<?xml version="1.0" standalone="yes"?><svg version="1.1" xmlns = 'http://www.w3.org/2000/svg'><defs><font id='web' horiz-adv-x="1000">
<font-face font-family="web" descent="-367" cap-height="1518" units-per-em="2048" bbox="-127,-547,3205,2113" x-height="1139" ascent="1589" />
<missing-glyph horiz-adv-x="1024" d="" /><glyph horiz-adv-x="1460" d="M 98 735 L 1362 735 L 1362 549 L 98 549 L 98 735 Z" unicode="–" />
<glyph horiz-adv-x="1909" d="M 98 735 L 1810 735 L 1810 549 L 98 549 L 98 735 Z" unicode="—" />
<glyph horiz-adv-x="518" d="M 133 1174 C 133 1246 138 1301 149 1339 C 160 1377 179 1409 207 1437 C 234 1465 277 1494 336 1524 L 389 1417 C 334 1386 299 1359 284 1337 C 269 1314 262 1283 262 1243 L 383 1243 L 383 969 L 133 969 L 133 1174 Z" unicode="‘" />
<glyph horiz-adv-x="518" d="M 129 1069 C 181 1096 215 1121 231 1144 C 247 1166 256 1199 256 1241 L 133 1241 L 133 1518 L 383 1518 L 383 1315 C 383 1211 369 1135 342 1089 C 315 1043 262 1001 182 963 L 129 1069 Z" unicode="’" />
<glyph horiz-adv-x="518" d="M 129 -147 C 183 -117 217 -91 233 -69 C 248 -47 256 -14 256 29 L 133 29 L 133 301 L 383 301 L 383 96 C 383 -4 368 -77 340 -125 C 312 -173 259 -215 182 -252 L 129 -147 Z" unicode="‚" />
<glyph horiz-adv-x="918" d="M 133 1174 C 133 1274 146 1346 173 1392 C 200 1437 254 1479 334 1518 L 385 1413 C 334 1386 300 1362 284 1341 C 268 1319 260 1287 260 1243 L 379 1243 L 379 975 L 133 975 L 133 1174 Z M 541 1174 C 541 1275 554 1348 580 1393 C 606 1438 658 1480 737 1518 L 791 1413 C 739 1386 705 1362 689 1340 C 672 1318 664 1285 664 1243 L 782 1243 L 782 975 L 541 975 L 541 1174 Z" unicode="“" />
<glyph horiz-adv-x="918" d="M 129 1077 C 182 1105 216 1131 231 1154 C 246 1176 254 1208 254 1249 L 133 1249 L 133 1518 L 379 1518 L 379 1317 C 379 1245 373 1190 361 1152 C 349 1113 330 1080 303 1054 C 275 1027 234 1001 180 975 L 129 1077 Z M 530 1077 C 582 1103 617 1128 634 1150 C 650 1172 659 1205 659 1249 L 541 1249 L 541 1518 L 782 1518 L 782 1317 C 782 1244 776 1189 765 1151 C 754 1113 735 1081 709 1055 C 682 1029 641 1002 586 975 L 530 1077 Z" unicode="”" />
<glyph horiz-adv-x="918" d="M 129 -143 C 181 -115 215 -91 231 -69 C 246 -47 254 -14 254 29 L 133 29 L 133 295 L 379 295 L 379 96 C 379 -2 364 -74 336 -122 C 308 -169 256 -210 180 -246 L 129 -143 Z M 530 -143 C 582 -117 617 -94 634 -72 C 650 -50 659 -16 659 29 L 541 29 L 541 295 L 782 295 L 782 96 C 782 24 776 -30 764 -68 C 752 -106 732 -138 705 -166 C 677 -194 638 -220 586 -246 L 530 -143 Z" unicode="„" />
<glyph horiz-adv-x="471" d="" unicode=" " />
<glyph horiz-adv-x="758" d="M 254 266 L 502 266 L 502 0 L 254 0 L 254 266 Z M 268 1518 L 487 1518 L 465 434 L 291 434 L 268 1518 Z" unicode="!" />
<glyph horiz-adv-x="1034" d="M 195 1518 L 399 1518 L 387 897 L 209 897 L 195 1518 Z M 635 1518 L 842 1518 L 827 897 L 649 897 L 635 1518 Z" unicode="&#x22;" />
<glyph horiz-adv-x="1542" d="M 371 428 L 129 428 L 129 610 L 403 610 L 457 889 L 129 889 L 129 1073 L 492 1073 L 580 1518 L 770 1518 L 682 1073 L 979 1073 L 1065 1518 L 1255 1518 L 1171 1073 L 1415 1073 L 1415 889 L 1137 889 L 1081 610 L 1415 610 L 1415 428 L 1049 428 L 965 0 L 774 0 L 856 428 L 561 428 L 479 0 L 287 0 L 371 428 Z M 901 600 L 961 901 L 639 901 L 580 600 L 901 600 Z" unicode="#" />
<glyph horiz-adv-x="1372" d="M 117 152 L 211 299 C 337 218 470 175 610 170 L 610 711 C 450 741 338 787 276 849 C 213 911 182 998 182 1110 C 182 1239 216 1337 284 1403 C 352 1469 458 1507 602 1517 L 602 1655 L 784 1655 L 784 1516 C 934 1506 1058 1469 1157 1405 L 1063 1249 C 1021 1276 970 1297 912 1313 C 854 1328 809 1336 778 1336 L 778 861 C 898 835 982 810 1031 786 C 1080 762 1120 733 1150 699 C 1180 665 1201 628 1215 588 C 1228 548 1235 500 1235 444 C 1235 175 1084 28 784 3 L 784 -193 L 602 -193 L 602 2 C 512 4 425 18 342 44 C 258 70 183 106 117 152 Z M 1044 430 C 1044 493 1027 543 993 580 C 959 616 905 644 831 664 L 778 677 L 778 172 C 868 181 934 206 978 248 C 1022 290 1044 350 1044 430 Z M 375 1118 C 375 1059 392 1013 426 979 C 460 945 522 918 610 896 L 610 1338 C 526 1330 466 1308 430 1274 C 393 1239 375 1187 375 1118 Z" unicode="$" />
<glyph horiz-adv-x="2347" d="M 514 569 C 372 569 265 610 193 694 C 120 777 84 897 84 1055 C 84 1213 120 1333 194 1417 C 267 1500 374 1542 514 1542 C 652 1542 758 1500 830 1416 C 902 1332 938 1211 938 1055 C 938 899 902 779 831 695 C 759 611 654 569 514 569 Z M 514 729 C 678 729 760 837 760 1055 C 760 1269 678 1376 514 1376 C 347 1376 264 1269 264 1055 C 264 837 347 729 514 729 Z M 1833 -20 C 1693 -20 1587 21 1515 105 C 1443 189 1407 309 1407 467 C 1407 624 1443 744 1517 828 C 1590 912 1695 954 1833 954 C 1970 954 2076 912 2150 828 C 2224 744 2261 624 2261 467 C 2261 309 2224 188 2152 105 C 2079 21 1973 -20 1833 -20 Z M 1833 139 C 1997 139 2079 248 2079 467 C 2079 575 2058 656 2017 708 C 1976 760 1915 786 1833 786 C 1669 786 1587 679 1587 467 C 1587 248 1669 139 1833 139 Z M 1501 1520 L 1690 1520 L 842 0 L 653 0 L 1501 1520 Z" unicode="%" />
<glyph horiz-adv-x="1647" d="M 616 -20 C 428 -20 294 13 212 80 C 130 146 90 256 90 410 C 90 500 114 582 162 654 C 210 726 293 795 409 860 C 357 984 332 1098 332 1200 C 332 1310 362 1395 422 1454 C 482 1512 569 1542 684 1542 C 792 1542 874 1515 928 1461 C 982 1407 1010 1320 1010 1200 C 1010 1126 988 1060 946 1000 C 904 940 839 886 753 837 L 660 785 C 761 615 889 470 1045 351 C 1081 402 1115 467 1147 547 C 1179 626 1215 741 1255 891 L 1425 850 C 1392 720 1357 605 1319 505 C 1281 404 1239 320 1192 254 C 1234 230 1280 212 1328 199 C 1376 186 1433 180 1499 180 L 1520 180 L 1520 0 L 1493 0 C 1398 0 1317 9 1251 27 C 1184 45 1120 72 1059 110 C 999 64 933 31 861 11 C 789 -9 707 -20 616 -20 Z M 485 706 C 412 658 360 611 330 565 C 300 518 285 468 285 414 C 285 343 295 290 317 254 C 339 218 373 191 421 173 C 469 155 534 147 616 147 C 734 147 832 170 908 218 C 862 254 808 303 746 365 C 684 426 626 494 573 568 C 520 642 491 688 485 706 Z M 834 1200 C 834 1260 822 1303 799 1328 C 775 1353 737 1366 684 1366 C 627 1366 586 1352 560 1325 C 534 1298 522 1256 522 1200 C 522 1123 544 1032 588 927 L 654 965 C 774 1037 834 1116 834 1200 Z" unicode="&#x26;" />
<glyph horiz-adv-x="596" d="M 195 1520 L 399 1520 L 387 897 L 209 897 L 195 1520 Z" unicode="'" />
<glyph horiz-adv-x="1001" d="M 662 -381 C 575 -309 499 -222 433 -119 C 367 -15 316 98 280 223 C 243 347 225 478 225 616 C 225 748 244 877 282 1005 C 320 1133 373 1250 439 1358 C 505 1465 580 1553 662 1622 L 805 1518 C 680 1399 586 1262 524 1108 C 461 954 430 790 430 616 C 430 442 462 276 528 119 C 593 -38 685 -171 805 -279 L 662 -381 Z" unicode="(" />
<glyph horiz-adv-x="1001" d="M 199 -279 C 445 -36 569 262 569 616 C 569 739 553 856 522 968 C 491 1079 448 1181 394 1274 C 339 1367 274 1448 199 1518 L 338 1622 C 424 1548 499 1459 565 1355 C 630 1251 681 1136 718 1010 C 755 884 774 753 774 616 C 774 423 733 236 653 56 C 572 -124 467 -270 338 -381 L 199 -279 Z" unicode=")" />
<glyph horiz-adv-x="1196" d="M 537 907 L 213 707 L 133 850 L 471 1024 L 133 1200 L 213 1343 L 537 1139 L 518 1520 L 676 1520 L 659 1139 L 983 1343 L 1063 1200 L 723 1024 L 1063 850 L 983 707 L 659 909 L 676 532 L 518 532 L 537 907 Z" unicode="*" />
<glyph horiz-adv-x="1440" d="M 621 627 L 211 627 L 211 817 L 621 817 L 621 1225 L 817 1225 L 817 817 L 1229 817 L 1229 627 L 817 627 L 817 219 L 621 219 L 621 627 Z" unicode="+" />
<glyph horiz-adv-x="518" d="M 129 -162 C 183 -132 217 -106 233 -86 C 248 -66 256 -37 256 0 L 133 0 L 133 270 L 383 270 L 383 70 C 383 0 377 -53 366 -91 C 355 -128 336 -159 310 -185 C 284 -210 241 -237 182 -266 L 129 -162 Z" unicode="," />
<glyph horiz-adv-x="911" d="M 98 735 L 809 735 L 809 549 L 98 549 L 98 735 Z" unicode="-" />
<glyph horiz-adv-x="518" d="M 133 270 L 383 270 L 383 0 L 133 0 L 133 270 Z" unicode="." />
<glyph horiz-adv-x="1055" d="M 850 1518 L 1055 1518 L 205 0 L 0 0 L 850 1518 Z" unicode="/" />
<glyph horiz-adv-x="1518" d="M 760 -23 C 618 -23 502 4 414 60 C 325 115 259 198 217 309 C 175 419 154 570 154 760 C 154 949 175 1099 217 1210 C 259 1321 324 1404 413 1459 C 502 1514 618 1542 760 1542 C 900 1542 1015 1514 1104 1459 C 1192 1403 1257 1320 1299 1209 C 1341 1098 1362 948 1362 760 C 1362 571 1341 421 1299 310 C 1257 199 1191 116 1103 60 C 1014 4 900 -23 760 -23 Z M 760 162 C 856 162 933 182 991 223 C 1049 263 1091 324 1118 406 C 1145 487 1159 605 1159 760 C 1159 914 1145 1032 1119 1112 C 1092 1192 1050 1252 992 1292 C 934 1332 856 1352 760 1352 C 662 1352 585 1332 527 1292 C 469 1252 426 1192 399 1112 C 371 1031 358 914 358 760 C 358 608 371 490 398 408 C 425 326 468 264 526 223 C 584 182 662 162 760 162 Z" unicode="0" />
<glyph horiz-adv-x="786" d="M 354 1327 L 72 1327 L 72 1518 L 549 1518 L 549 0 L 354 0 L 354 1327 Z" unicode="1" />
<glyph horiz-adv-x="1237" d="M 74 166 L 582 653 C 685 751 755 823 792 869 C 829 915 856 958 872 998 C 888 1038 897 1085 897 1137 C 897 1216 873 1273 826 1307 C 779 1341 701 1358 592 1358 C 514 1358 439 1349 367 1333 C 294 1316 232 1294 180 1266 L 92 1430 C 163 1468 239 1497 321 1515 C 402 1533 498 1542 608 1542 C 774 1542 896 1511 976 1449 C 1056 1387 1096 1289 1096 1155 C 1096 1084 1086 1020 1066 964 C 1046 908 1013 850 968 791 C 922 731 849 653 748 557 L 350 176 L 1118 176 L 1118 0 L 74 0 L 74 166 Z" unicode="2" />
<glyph horiz-adv-x="1274" d="M 608 -25 C 494 -25 392 -13 303 10 C 213 33 124 71 35 123 L 135 283 C 224 234 305 200 377 182 C 449 163 523 154 600 154 C 730 154 821 176 873 220 C 924 264 950 340 950 449 C 950 525 937 583 913 621 C 889 659 849 688 793 706 C 737 724 662 733 567 733 L 342 733 L 342 911 L 563 911 C 691 911 780 928 831 963 C 881 998 907 1060 907 1149 C 907 1229 883 1284 837 1315 C 791 1346 710 1362 596 1362 C 521 1362 446 1352 372 1332 C 298 1312 234 1286 180 1255 L 74 1409 C 142 1451 223 1483 317 1507 C 410 1530 508 1542 612 1542 C 785 1542 910 1513 987 1457 C 1063 1401 1102 1310 1102 1184 C 1102 988 1039 872 915 836 C 997 816 1056 774 1092 710 C 1127 646 1145 554 1145 434 C 1145 275 1103 159 1020 85 C 936 11 799 -25 608 -25 Z" unicode="3" />
<glyph horiz-adv-x="1384" d="M 98 522 L 774 1518 L 991 1518 L 319 532 L 860 532 L 901 1014 L 1044 1014 L 1044 532 L 1317 532 L 1317 360 L 1044 360 L 1044 0 L 858 0 L 858 360 L 98 360 L 98 522 Z" unicode="4" />
<glyph horiz-adv-x="1323" d="M 651 -23 C 552 -23 458 -11 370 11 C 281 34 192 72 104 125 L 207 285 C 293 236 370 202 439 183 C 507 163 577 154 647 154 C 785 154 884 181 943 235 C 1002 289 1032 373 1032 487 C 1032 603 1003 689 946 743 C 889 797 796 825 666 825 C 594 825 533 819 481 809 C 429 798 378 780 328 756 L 160 807 L 199 1518 L 1120 1518 L 1120 1337 L 379 1337 L 356 938 C 391 955 439 970 500 984 C 560 997 631 1004 713 1004 C 838 1004 937 986 1010 951 C 1082 915 1138 860 1176 786 C 1214 711 1233 614 1233 494 C 1233 376 1213 279 1175 203 C 1137 127 1076 70 994 33 C 911 -4 797 -23 651 -23 Z" unicode="5" />
<glyph horiz-adv-x="1434" d="M 754 -23 C 543 -23 389 29 291 133 C 193 237 145 401 145 627 C 145 863 172 1042 228 1166 C 284 1289 375 1378 501 1434 C 627 1490 802 1518 1026 1518 L 1110 1518 L 1110 1337 L 1020 1337 C 908 1337 812 1328 732 1311 C 651 1294 584 1269 532 1236 C 479 1203 438 1159 408 1105 C 378 1050 358 975 348 881 C 422 975 577 1022 813 1022 C 986 1022 1113 981 1195 901 C 1276 820 1317 689 1317 508 C 1317 324 1271 189 1180 104 C 1089 19 947 -23 754 -23 Z M 756 152 C 883 152 975 179 1033 233 C 1091 287 1120 376 1120 502 C 1120 626 1090 716 1030 771 C 970 826 879 854 756 854 C 628 854 528 826 457 772 C 385 717 350 639 350 539 C 350 407 382 309 446 246 C 510 183 614 152 756 152 Z" unicode="6" />
<glyph horiz-adv-x="1122" d="M 868 1337 L 39 1337 L 39 1518 L 1085 1518 L 1085 1360 L 489 0 L 281 0 L 868 1337 Z" unicode="7" />
<glyph horiz-adv-x="1448" d="M 723 -29 C 528 -29 380 8 280 84 C 179 160 129 274 129 426 C 129 535 150 624 192 694 C 234 763 296 810 379 834 C 246 876 180 986 180 1163 C 180 1294 225 1390 315 1451 C 405 1511 541 1542 723 1542 C 904 1542 1040 1511 1130 1451 C 1220 1391 1266 1295 1266 1163 C 1266 1075 1249 1003 1216 947 C 1182 891 1133 853 1069 834 C 1235 784 1319 648 1319 426 C 1319 274 1268 161 1168 85 C 1067 9 919 -29 723 -29 Z M 723 143 C 861 143 961 168 1024 218 C 1086 268 1118 342 1118 440 C 1118 537 1086 611 1024 661 C 961 711 861 737 723 737 C 589 737 490 712 426 664 C 362 616 330 541 330 440 C 330 339 361 264 425 216 C 489 167 588 143 723 143 Z M 723 905 C 843 905 931 923 988 961 C 1044 998 1073 1058 1073 1141 C 1073 1221 1045 1280 989 1317 C 933 1353 844 1372 723 1372 C 601 1372 513 1353 457 1317 C 401 1280 373 1221 373 1141 C 373 1058 401 998 458 961 C 514 923 603 905 723 905 Z" unicode="8" />
<glyph horiz-adv-x="1434" d="M 330 176 L 420 176 C 532 176 630 184 712 202 C 794 220 862 246 914 280 C 966 314 1006 358 1035 414 C 1064 470 1084 543 1094 635 C 1054 585 995 549 918 527 C 841 505 745 494 629 494 C 457 494 330 535 248 617 C 166 699 125 829 125 1008 C 125 1191 170 1326 261 1412 C 352 1498 494 1542 688 1542 C 899 1542 1053 1489 1150 1385 C 1247 1281 1296 1117 1296 893 C 1296 656 1268 476 1212 352 C 1156 228 1066 139 940 83 C 814 27 640 0 416 0 L 330 0 L 330 176 Z M 684 657 C 813 657 913 684 985 739 C 1056 794 1092 871 1092 971 C 1092 1104 1060 1202 996 1265 C 932 1328 829 1360 688 1360 C 560 1360 467 1333 409 1279 C 351 1225 322 1136 322 1010 C 322 884 351 794 410 739 C 469 684 560 657 684 657 Z" unicode="9" />
<glyph horiz-adv-x="559" d="M 154 262 L 403 262 L 403 0 L 154 0 L 154 262 Z M 154 1139 L 403 1139 L 403 877 L 154 877 L 154 1139 Z" unicode=":" />
<glyph horiz-adv-x="559" d="M 150 -162 C 205 -131 240 -105 254 -85 C 268 -64 276 -36 276 0 L 154 0 L 154 262 L 403 262 L 403 70 C 403 -1 397 -55 385 -92 C 373 -128 354 -160 326 -187 C 298 -213 257 -240 203 -266 L 150 -162 Z M 154 1139 L 403 1139 L 403 877 L 154 877 L 154 1139 Z" unicode=";" />
<glyph horiz-adv-x="1440" d="M 217 635 L 217 782 L 1141 1243 L 1141 1057 L 422 709 L 1141 362 L 1141 170 L 217 635 Z" unicode="&#x3C;" />
<glyph horiz-adv-x="1440" d="M 223 586 L 1219 586 L 1219 399 L 223 399 L 223 586 Z M 223 1042 L 1219 1042 L 1219 858 L 223 858 L 223 1042 Z" unicode="=" />
<glyph horiz-adv-x="1440" d="M 299 362 L 1018 707 L 299 1055 L 299 1243 L 1223 780 L 1223 633 L 299 170 L 299 362 Z" unicode="&#x3E;" />
<glyph horiz-adv-x="1380" d="M 551 414 C 545 463 542 507 542 546 C 542 628 558 694 592 744 C 625 794 688 843 782 893 C 869 939 925 973 949 994 C 973 1014 991 1036 1002 1060 C 1012 1083 1018 1114 1018 1153 C 1018 1209 1007 1250 986 1276 C 964 1302 930 1322 883 1335 C 836 1347 773 1354 694 1354 C 536 1354 389 1319 252 1249 L 168 1423 C 233 1459 314 1487 412 1509 C 509 1531 608 1542 709 1542 C 891 1542 1021 1513 1101 1456 C 1181 1399 1221 1303 1221 1169 C 1221 1108 1212 1056 1195 1012 C 1177 968 1150 929 1114 895 C 1078 861 1019 822 938 778 C 858 737 805 699 779 665 C 753 631 741 580 741 512 L 745 414 L 551 414 Z M 522 242 L 772 242 L 772 0 L 522 0 L 522 242 Z" unicode="?" />
<glyph horiz-adv-x="2210" d="M 1124 -338 C 803 -338 564 -261 408 -107 C 252 47 174 282 174 598 C 174 910 252 1146 409 1305 C 565 1464 797 1544 1104 1544 C 1414 1544 1647 1464 1804 1306 C 1961 1147 2040 911 2040 598 C 2040 454 2029 345 2007 271 C 1985 197 1948 145 1898 113 C 1848 81 1776 66 1683 66 C 1599 66 1535 78 1490 103 C 1444 127 1419 169 1413 229 C 1379 175 1331 135 1269 111 C 1206 86 1122 74 1016 74 C 868 74 758 117 685 205 C 611 293 575 427 575 608 C 575 962 724 1139 1024 1139 C 1128 1139 1208 1127 1265 1105 C 1322 1083 1364 1046 1391 995 L 1434 1128 L 1559 1118 L 1559 352 C 1559 304 1564 269 1575 247 C 1585 225 1602 208 1625 196 C 1648 184 1679 178 1718 178 C 1772 178 1814 189 1842 212 C 1870 235 1889 273 1901 325 C 1913 377 1919 468 1919 598 C 1919 876 1851 1083 1717 1220 C 1582 1356 1378 1425 1104 1425 C 564 1425 295 1149 295 598 C 295 321 363 116 501 -18 C 638 -152 845 -219 1122 -219 C 1229 -219 1332 -208 1430 -186 C 1528 -164 1612 -136 1683 -102 L 1735 -207 C 1559 -294 1355 -338 1124 -338 Z M 1053 233 C 1167 233 1249 262 1301 321 C 1352 380 1378 476 1378 608 C 1378 738 1353 831 1304 886 C 1254 941 1171 969 1053 969 C 953 969 878 939 829 881 C 780 822 756 731 756 608 C 756 480 780 385 830 324 C 880 263 954 233 1053 233 Z" unicode="@" />
<glyph horiz-adv-x="1518" d="M 653 1528 L 864 1528 L 1473 0 L 1260 0 L 1135 319 L 377 319 L 252 0 L 45 0 L 653 1528 Z M 1061 510 L 754 1280 L 446 510 L 1061 510 Z" unicode="A" />
<glyph horiz-adv-x="1468" d="M 172 1518 L 842 1518 C 1018 1518 1146 1487 1228 1427 C 1309 1367 1350 1272 1350 1143 C 1350 952 1286 837 1159 797 C 1239 777 1297 737 1334 679 C 1370 620 1389 534 1389 420 C 1389 273 1345 166 1259 100 C 1172 33 1029 0 829 0 L 172 0 L 172 1518 Z M 852 186 C 964 186 1047 205 1100 244 C 1153 283 1180 348 1180 438 C 1180 524 1153 587 1100 626 C 1047 664 963 684 848 684 L 375 684 L 375 186 L 852 186 Z M 848 877 C 949 877 1023 895 1070 933 C 1117 971 1141 1031 1141 1114 C 1141 1189 1116 1244 1068 1278 C 1019 1312 946 1329 848 1329 L 375 1329 L 375 877 L 848 877 Z" unicode="B" />
<glyph horiz-adv-x="1497" d="M 842 -23 C 586 -23 396 41 271 170 C 146 299 84 496 84 760 C 84 1017 148 1212 278 1344 C 407 1476 598 1542 852 1542 C 1081 1542 1264 1475 1401 1343 L 1251 1194 C 1143 1293 1010 1343 850 1343 C 478 1343 293 1148 293 758 C 293 559 339 412 431 316 C 523 220 663 172 852 172 C 912 172 965 177 1013 188 C 1061 199 1103 215 1141 235 C 1178 255 1219 286 1264 328 L 1411 186 C 1335 110 1252 57 1160 25 C 1068 -7 962 -23 842 -23 Z" unicode="C" />
<glyph horiz-adv-x="1559" d="M 172 1518 L 680 1518 C 888 1518 1048 1494 1159 1446 C 1270 1398 1351 1321 1401 1213 C 1451 1105 1477 954 1477 760 C 1477 570 1450 420 1396 311 C 1342 202 1258 123 1143 74 C 1027 24 865 0 657 0 L 172 0 L 172 1518 Z M 668 190 C 821 190 940 208 1026 244 C 1111 280 1173 338 1211 418 C 1249 498 1268 612 1268 760 C 1268 914 1250 1030 1215 1106 C 1180 1182 1122 1236 1041 1270 C 960 1304 840 1321 682 1321 L 379 1321 L 379 190 L 668 190 Z" unicode="D" />
<glyph horiz-adv-x="1335" d="M 172 1518 L 1210 1518 L 1210 1319 L 379 1319 L 379 883 L 1190 883 L 1190 686 L 379 686 L 379 190 L 1219 190 L 1219 0 L 172 0 L 172 1518 Z" unicode="E" />
<glyph horiz-adv-x="1257" d="M 172 1518 L 1182 1518 L 1182 1319 L 379 1319 L 379 862 L 1163 862 L 1163 666 L 379 666 L 379 0 L 172 0 L 172 1518 Z" unicode="F" />
<glyph horiz-adv-x="1604" d="M 840 -23 C 578 -23 386 38 265 162 C 144 286 84 485 84 760 C 84 1022 147 1218 274 1348 C 401 1477 593 1542 850 1542 C 1098 1542 1288 1476 1419 1346 L 1272 1194 C 1210 1248 1146 1286 1078 1309 C 1010 1331 934 1343 850 1343 C 660 1343 520 1294 428 1198 C 336 1102 291 955 291 758 C 291 545 335 392 423 300 C 511 208 652 162 848 162 C 962 162 1052 176 1120 205 C 1188 234 1237 279 1268 341 C 1299 403 1315 494 1315 614 L 1315 657 L 825 657 L 825 842 L 1520 842 L 1520 651 C 1520 476 1496 342 1448 248 C 1400 154 1327 85 1228 42 C 1128 -1 999 -23 840 -23 Z" unicode="G" />
<glyph horiz-adv-x="1612" d="M 172 1518 L 379 1518 L 379 891 L 1233 891 L 1233 1518 L 1440 1518 L 1440 0 L 1233 0 L 1233 686 L 379 686 L 379 0 L 172 0 L 172 1518 Z" unicode="H" />
<glyph horiz-adv-x="582" d="M 188 1518 L 393 1518 L 393 0 L 188 0 L 188 1518 Z" unicode="I" />
<glyph horiz-adv-x="848" d="M 229 -2 L 132 -2 L 57 0 L 57 190 L 207 190 C 307 190 377 210 419 251 C 460 291 481 358 481 451 L 481 1518 L 686 1518 L 686 442 C 686 287 649 174 576 104 C 503 33 387 -2 229 -2 Z" unicode="J" />
<glyph horiz-adv-x="1473" d="M 172 1518 L 375 1518 L 375 721 L 1090 1518 L 1327 1518 L 791 920 L 1401 0 L 1165 0 L 655 768 L 375 455 L 375 0 L 172 0 L 172 1518 Z" unicode="K" />
<glyph horiz-adv-x="1219" d="M 172 1518 L 379 1518 L 379 190 L 1169 190 L 1169 0 L 172 0 L 172 1518 Z" unicode="L" />
<glyph horiz-adv-x="1907" d="M 172 1518 L 442 1518 L 954 291 L 1468 1518 L 1735 1518 L 1735 0 L 1532 0 L 1532 1171 L 1036 0 L 864 0 L 371 1169 L 371 0 L 172 0 L 172 1518 Z" unicode="M" />
<glyph horiz-adv-x="1620" d="M 172 1518 L 397 1518 L 1247 348 L 1247 1518 L 1448 1518 L 1448 0 L 1257 0 L 373 1214 L 373 0 L 172 0 L 172 1518 Z" unicode="N" />
<glyph horiz-adv-x="1718" d="M 858 -25 C 342 -25 84 236 84 760 C 84 1281 342 1542 858 1542 C 1374 1542 1632 1281 1632 760 C 1632 236 1374 -25 858 -25 Z M 858 168 C 1236 168 1425 364 1425 756 C 1425 1147 1236 1343 858 1343 C 668 1343 526 1294 433 1197 C 339 1100 293 953 293 756 C 293 558 340 410 434 313 C 528 216 669 168 858 168 Z" unicode="O" />
<glyph horiz-adv-x="1475" d="M 172 1518 L 854 1518 C 1038 1518 1174 1480 1261 1404 C 1347 1328 1391 1210 1391 1049 C 1391 879 1346 753 1256 671 C 1166 589 1030 549 848 549 L 375 549 L 375 0 L 172 0 L 172 1518 Z M 854 741 C 970 741 1054 765 1106 813 C 1158 861 1184 936 1184 1038 C 1184 1142 1159 1215 1109 1259 C 1059 1303 972 1325 850 1325 L 375 1325 L 375 741 L 854 741 Z" unicode="P" />
<glyph horiz-adv-x="1718" d="M 1108 -383 C 1006 -383 926 -373 868 -353 C 810 -333 768 -300 742 -255 C 716 -210 703 -142 703 -52 L 704 -4 C 494 18 339 91 237 217 C 135 342 84 523 84 760 C 84 1024 147 1220 275 1349 C 403 1477 597 1542 858 1542 C 1120 1542 1314 1477 1441 1348 C 1568 1219 1632 1023 1632 760 C 1632 506 1573 316 1456 190 C 1338 64 1154 -3 903 -11 L 902 -47 C 902 -92 908 -125 921 -146 C 933 -167 954 -182 982 -190 C 1010 -198 1052 -203 1108 -203 L 1276 -203 L 1276 -381 L 1108 -383 Z M 858 168 C 1050 168 1192 215 1285 310 C 1378 405 1425 554 1425 756 C 1425 956 1379 1103 1287 1199 C 1195 1295 1052 1343 858 1343 C 664 1343 522 1295 430 1199 C 338 1103 293 956 293 756 C 293 555 339 407 431 311 C 523 215 666 168 858 168 Z" unicode="Q" />
<glyph horiz-adv-x="1499" d="M 172 1518 L 848 1518 C 1029 1518 1163 1481 1250 1407 C 1336 1333 1380 1217 1380 1059 C 1380 924 1348 819 1286 743 C 1223 667 1132 618 1014 598 L 1358 0 L 1137 0 L 798 584 L 375 584 L 375 0 L 172 0 L 172 1518 Z M 846 774 C 962 774 1046 795 1096 839 C 1146 883 1171 953 1171 1051 C 1171 1149 1146 1220 1096 1262 C 1046 1304 960 1325 840 1325 L 375 1325 L 375 774 L 846 774 Z" unicode="R" />
<glyph horiz-adv-x="1460" d="M 727 -20 C 469 -20 251 40 74 160 L 178 319 C 340 214 521 162 721 162 C 871 162 979 182 1046 222 C 1113 262 1147 330 1147 426 C 1147 476 1135 516 1111 548 C 1087 579 1051 604 1003 624 C 955 644 860 665 719 688 C 549 715 430 745 360 777 C 290 809 238 853 204 908 C 170 962 154 1033 154 1120 C 154 1266 199 1373 290 1441 C 381 1508 525 1542 723 1542 C 952 1542 1136 1495 1276 1403 L 1163 1233 C 1106 1271 1038 1300 960 1321 C 881 1341 802 1352 723 1352 C 593 1352 499 1334 443 1298 C 386 1262 358 1204 358 1124 C 358 1076 369 1038 392 1009 C 415 979 450 955 498 936 C 546 917 636 896 770 874 C 916 850 1021 826 1086 803 C 1150 780 1202 752 1240 720 C 1278 688 1306 648 1324 602 C 1342 555 1352 500 1352 436 C 1352 280 1301 165 1200 91 C 1098 17 941 -20 727 -20 Z" unicode="S" />
<glyph horiz-adv-x="1419" d="M 606 1319 L 49 1319 L 49 1518 L 1372 1518 L 1372 1319 L 815 1319 L 815 0 L 606 0 L 606 1319 Z" unicode="T" />
<glyph horiz-adv-x="1614" d="M 805 -27 C 693 -27 596 -15 515 7 C 434 29 368 63 316 108 C 264 152 226 210 200 282 C 174 353 162 445 162 557 L 162 1518 L 369 1518 L 369 582 C 369 476 383 395 413 339 C 442 282 489 239 553 211 C 617 182 702 168 807 168 C 913 168 999 182 1065 210 C 1130 238 1178 281 1208 339 C 1238 397 1253 478 1253 582 L 1253 1518 L 1454 1518 L 1454 557 C 1454 411 1430 296 1383 213 C 1335 130 1263 69 1167 31 C 1070 -7 949 -27 805 -27 Z" unicode="U" />
<glyph horiz-adv-x="1513" d="M 47 1518 L 264 1518 L 760 250 L 1251 1518 L 1468 1518 L 862 -10 L 651 -10 L 47 1518 Z" unicode="V" />
<glyph horiz-adv-x="2218" d="M 63 1518 L 279 1518 L 647 336 L 1024 1518 L 1206 1518 L 1583 336 L 1952 1518 L 2154 1518 L 1673 -10 L 1491 -10 L 1110 1180 L 731 -10 L 547 -10 L 63 1518 Z" unicode="W" />
<glyph horiz-adv-x="1491" d="M 125 1518 L 354 1518 L 752 950 L 1139 1518 L 1368 1518 L 861 795 L 1419 0 L 1186 0 L 739 640 L 303 0 L 74 0 L 630 795 L 125 1518 Z" unicode="X" />
<glyph horiz-adv-x="1466" d="M 20 1518 L 246 1518 L 735 762 L 1229 1518 L 1444 1518 L 836 579 L 836 0 L 631 0 L 631 574 L 20 1518 Z" unicode="Y" />
<glyph horiz-adv-x="1376" d="M 86 164 L 1004 1319 L 121 1319 L 121 1518 L 1264 1518 L 1264 1337 L 350 190 L 1286 190 L 1286 0 L 86 0 L 86 164 Z" unicode="Z" />
<glyph horiz-adv-x="975" d="M 244 1589 L 776 1589 L 776 1407 L 446 1407 L 446 -162 L 782 -162 L 782 -338 L 244 -338 L 244 1589 Z" unicode="[" />
<glyph horiz-adv-x="1055" d="M 0 1518 L 205 1518 L 1055 0 L 850 0 L 0 1518 Z" unicode="\" />
<glyph horiz-adv-x="975" d="M 197 -162 L 528 -162 L 528 1407 L 195 1407 L 195 1589 L 729 1589 L 729 -338 L 197 -338 L 197 -162 Z" unicode="]" />
<glyph horiz-adv-x="1208" d="M 496 1539 L 711 1539 L 1024 1203 L 831 1203 L 600 1410 L 373 1203 L 182 1203 L 496 1539 Z" unicode="^" />
<glyph horiz-adv-x="928" d="M -76 -109 L 1004 -109 L 1004 -270 L -76 -270 L -76 -109 Z" unicode="_" />
<glyph horiz-adv-x="1208" d="M 229 1591 L 473 1591 L 776 1255 L 592 1255 L 229 1591 Z" unicode="`" />
<glyph horiz-adv-x="1284" d="M 487 -20 C 350 -20 248 7 181 61 C 113 115 80 203 80 324 C 80 432 102 516 147 574 C 192 632 267 675 371 701 C 475 727 628 741 831 741 L 892 741 C 890 810 881 860 863 891 C 845 921 816 944 776 958 C 736 972 680 979 608 979 C 546 979 486 970 428 952 C 369 934 317 911 272 883 L 168 1038 C 221 1074 290 1105 375 1129 C 459 1153 543 1165 627 1165 C 746 1165 838 1151 903 1125 C 968 1098 1015 1055 1043 996 C 1071 936 1085 841 1085 709 L 1085 303 C 1085 258 1087 228 1093 214 C 1099 199 1109 189 1124 184 C 1138 178 1163 176 1198 176 L 1198 2 C 1188 0 1160 -2 1116 -2 C 1056 -2 1012 7 984 26 C 956 45 936 79 922 127 C 884 74 829 36 759 14 C 689 -8 598 -20 487 -20 Z M 270 338 C 270 271 289 223 328 195 C 367 166 431 152 520 152 C 649 152 743 179 803 233 C 863 287 893 377 893 502 L 893 571 L 842 571 C 682 571 564 564 486 551 C 408 537 352 515 319 484 C 286 452 270 404 270 338 Z" unicode="a" />
<glyph horiz-adv-x="1343" d="M 754 -20 C 633 -20 540 -9 474 13 C 408 35 358 71 324 121 L 287 -8 L 147 6 L 147 1589 L 346 1589 L 346 1026 C 378 1074 427 1109 494 1131 C 560 1153 650 1165 764 1165 C 930 1165 1052 1118 1132 1024 C 1211 930 1251 779 1251 571 C 1251 363 1210 213 1128 120 C 1046 26 922 -20 754 -20 Z M 721 158 C 833 158 916 189 969 252 C 1022 315 1049 419 1049 563 C 1049 712 1022 818 969 881 C 916 943 833 975 721 975 C 587 975 491 944 434 882 C 376 820 348 714 348 563 C 348 460 359 380 383 323 C 407 265 445 223 499 197 C 552 171 626 158 721 158 Z" unicode="b" />
<glyph horiz-adv-x="1165" d="M 647 -20 C 458 -20 318 26 228 118 C 137 210 92 361 92 571 C 92 715 111 829 151 913 C 190 997 251 1060 334 1102 C 417 1144 524 1165 655 1165 C 836 1165 977 1108 1079 995 L 934 858 C 895 898 853 928 808 946 C 762 964 711 973 655 973 C 529 973 438 941 380 878 C 322 814 293 711 293 567 C 293 420 322 315 380 252 C 438 189 529 158 655 158 C 712 158 763 167 809 185 C 855 203 900 233 944 274 L 1077 147 C 1009 84 943 40 877 16 C 811 -7 735 -20 647 -20 Z" unicode="c" />
<glyph horiz-adv-x="1343" d="M 582 -20 C 415 -20 292 27 212 122 C 132 217 92 368 92 575 C 92 778 132 927 214 1021 C 295 1115 420 1163 588 1163 C 699 1163 787 1152 852 1131 C 916 1110 964 1075 995 1026 L 995 1589 L 1196 1589 L 1196 8 L 1042 -6 L 1020 127 C 983 75 930 37 862 14 C 793 -8 700 -20 582 -20 Z M 625 162 C 759 162 855 193 911 256 C 967 319 995 425 995 575 C 995 724 967 828 912 888 C 857 947 761 977 625 977 C 511 977 427 946 374 885 C 321 824 295 721 295 575 C 295 426 321 320 374 257 C 426 193 510 162 625 162 Z" unicode="d" />
<glyph horiz-adv-x="1229" d="M 651 -23 C 524 -23 419 -3 337 36 C 254 76 192 138 152 223 C 112 307 92 423 92 571 C 92 713 111 826 151 910 C 190 994 250 1057 332 1100 C 413 1143 518 1165 647 1165 C 725 1165 792 1156 847 1139 C 901 1121 947 1097 983 1066 C 1019 1034 1047 997 1067 953 C 1087 909 1102 858 1112 800 C 1122 742 1127 666 1127 570 L 1126 494 L 285 494 C 290 406 305 338 331 292 C 357 246 395 210 447 186 C 498 162 566 150 651 150 C 723 150 787 158 843 174 C 898 190 955 219 1014 262 L 1120 123 C 1052 70 982 32 908 10 C 834 -11 748 -23 651 -23 Z M 938 670 C 933 741 927 791 920 819 C 913 847 903 871 890 892 C 876 913 859 931 838 945 C 816 959 789 970 757 978 C 724 985 685 989 641 989 C 539 989 459 968 403 927 C 347 886 311 823 296 737 L 287 670 L 938 670 Z" unicode="e" />
<glyph horiz-adv-x="819" d="M 59 1139 L 274 1139 L 274 1219 C 274 1350 303 1444 361 1502 C 419 1560 511 1589 637 1589 L 768 1589 L 768 1415 L 662 1415 C 598 1415 550 1399 519 1369 C 488 1339 473 1289 473 1219 L 473 1139 L 768 1139 L 768 958 L 473 958 L 473 0 L 274 0 L 274 958 L 59 958 L 59 1139 Z" unicode="f" />
<glyph horiz-adv-x="1251" d="M 604 416 C 533 416 471 421 417 431 C 398 407 389 383 389 360 C 389 329 402 308 428 298 C 454 288 517 283 616 283 C 762 283 875 273 953 255 C 1031 236 1087 205 1122 163 C 1156 121 1174 60 1174 -18 C 1174 -103 1154 -171 1114 -221 C 1074 -271 1013 -307 931 -331 C 848 -355 737 -367 598 -367 C 450 -367 340 -358 266 -340 C 192 -322 139 -293 105 -253 C 71 -213 55 -156 55 -84 C 55 72 127 165 272 195 C 230 223 209 269 209 332 C 209 387 226 439 260 488 C 211 520 176 560 154 608 C 132 656 121 714 121 782 C 121 913 160 1010 239 1072 C 317 1134 439 1165 604 1165 L 674 1162 L 1126 1227 L 1126 1063 L 943 1063 C 1041 1011 1090 918 1090 782 C 1090 656 1051 563 973 504 C 895 445 772 416 604 416 Z M 604 -209 C 693 -209 765 -203 819 -191 C 873 -179 912 -160 936 -136 C 960 -112 973 -76 973 -29 C 973 10 962 39 941 59 C 920 79 885 93 835 102 C 785 110 708 115 604 115 C 518 115 449 109 399 98 C 349 87 312 71 290 49 C 267 27 256 -6 256 -51 C 256 -109 281 -150 333 -174 C 384 -197 474 -209 604 -209 Z M 604 580 C 708 580 783 596 827 628 C 871 660 893 711 893 782 C 893 855 869 907 822 938 C 774 969 702 985 604 985 C 497 985 422 969 378 937 C 334 905 313 854 313 782 C 313 711 335 660 379 628 C 423 596 498 580 604 580 Z" unicode="g" />
<glyph horiz-adv-x="1294" d="M 147 1589 L 346 1589 L 346 1040 C 402 1123 534 1165 741 1165 C 842 1165 922 1149 982 1119 C 1041 1089 1084 1043 1111 981 C 1137 919 1151 824 1151 694 L 1151 0 L 952 0 L 952 655 C 952 750 943 817 926 855 C 909 893 881 921 842 940 C 802 959 748 969 678 969 C 598 969 535 957 487 934 C 439 911 403 877 381 832 C 359 786 348 719 348 631 L 348 0 L 147 0 L 147 1589 Z" unicode="h" />
<glyph horiz-adv-x="516" d="M 160 1139 L 356 1139 L 356 0 L 160 0 L 160 1139 Z M 158 1518 L 358 1518 L 358 1276 L 158 1276 L 158 1518 Z" unicode="i" />
<glyph horiz-adv-x="516" d="M 4 -180 L 20 -180 C 76 -178 114 -167 132 -146 C 150 -125 160 -80 160 -12 L 160 1139 L 356 1139 L 356 -10 C 356 -106 346 -176 328 -220 C 309 -264 278 -296 234 -315 C 190 -334 126 -344 41 -344 L 4 -344 L 4 -180 Z M 158 1518 L 358 1518 L 358 1276 L 158 1276 L 158 1518 Z" unicode="j" />
<glyph horiz-adv-x="1143" d="M 147 1589 L 344 1589 L 344 554 L 848 1139 L 1069 1139 L 665 666 L 1110 0 L 889 0 L 533 521 L 344 306 L 344 0 L 147 0 L 147 1589 Z" unicode="k" />
<glyph horiz-adv-x="625" d="M 416 -2 C 322 -2 255 19 217 63 C 179 107 160 184 160 295 L 160 1589 L 356 1589 L 356 317 C 356 258 364 220 382 202 C 400 184 433 176 483 176 L 528 176 L 528 2 C 509 0 472 -2 416 -2 Z" unicode="l" />
<glyph horiz-adv-x="2052" d="M 147 1128 L 305 1139 L 322 1030 C 376 1120 512 1165 729 1165 C 831 1165 910 1154 966 1132 C 1022 1110 1059 1073 1077 1022 C 1138 1117 1283 1165 1513 1165 C 1587 1165 1649 1156 1701 1140 C 1752 1124 1793 1099 1824 1066 C 1854 1033 1877 989 1891 933 C 1905 877 1913 797 1913 694 L 1913 0 L 1712 0 L 1712 655 C 1712 701 1710 743 1707 782 C 1703 820 1693 853 1677 881 C 1660 909 1634 930 1599 946 C 1563 961 1514 969 1450 969 C 1371 969 1308 957 1261 934 C 1214 911 1180 877 1159 832 C 1138 786 1128 719 1128 631 L 1128 0 L 932 0 L 932 655 C 932 753 923 821 907 858 C 891 895 864 923 827 941 C 789 959 736 969 668 969 C 590 969 527 957 481 935 C 434 912 400 878 379 834 C 358 789 348 721 348 631 L 348 0 L 147 0 L 147 1128 Z" unicode="m" />
<glyph horiz-adv-x="1294" d="M 147 1128 L 305 1139 L 322 1030 C 356 1077 409 1111 479 1133 C 549 1154 636 1165 741 1165 C 842 1165 922 1149 982 1119 C 1041 1089 1084 1043 1111 981 C 1137 919 1151 824 1151 694 L 1151 0 L 952 0 L 952 655 C 952 750 943 817 926 855 C 909 893 881 921 842 940 C 802 959 748 969 678 969 C 598 969 535 957 487 934 C 439 911 403 877 381 832 C 359 786 348 719 348 631 L 348 0 L 147 0 L 147 1128 Z" unicode="n" />
<glyph horiz-adv-x="1309" d="M 653 -23 C 461 -23 319 24 228 120 C 137 216 92 366 92 571 C 92 775 137 925 228 1021 C 318 1117 460 1165 653 1165 C 847 1165 989 1117 1080 1021 C 1171 925 1217 775 1217 571 C 1217 367 1171 217 1080 121 C 989 25 847 -23 653 -23 Z M 653 158 C 777 158 868 190 926 254 C 984 318 1014 423 1014 567 C 1014 709 984 813 926 878 C 868 942 777 975 653 975 C 529 975 438 942 380 878 C 322 813 293 709 293 567 C 293 423 322 318 380 254 C 438 190 529 158 653 158 Z" unicode="o" />
<glyph horiz-adv-x="1343" d="M 147 1128 L 305 1139 L 322 1018 C 354 1069 406 1106 477 1130 C 547 1153 643 1165 764 1165 C 877 1165 969 1143 1041 1100 C 1113 1057 1166 993 1200 909 C 1234 824 1251 711 1251 571 C 1251 365 1210 216 1129 122 C 1047 28 923 -18 756 -18 C 642 -18 554 -7 490 14 C 426 35 378 70 348 119 L 348 -338 L 147 -338 L 147 1128 Z M 721 162 C 833 162 916 192 969 254 C 1022 316 1049 419 1049 565 C 1049 712 1022 817 970 880 C 917 943 834 975 721 975 C 585 975 488 943 432 881 C 376 819 348 713 348 565 C 348 415 375 310 431 251 C 487 191 583 162 721 162 Z" unicode="p" />
<glyph horiz-adv-x="1343" d="M 995 115 C 957 65 907 30 845 10 C 783 -10 696 -20 582 -20 C 415 -20 292 27 212 122 C 132 217 92 367 92 573 C 92 779 132 929 214 1023 C 296 1117 420 1165 588 1165 C 708 1165 801 1154 867 1133 C 933 1111 984 1076 1020 1028 L 1057 1153 L 1196 1141 L 1196 -338 L 995 -338 L 995 115 Z M 625 162 C 759 162 854 193 910 255 C 966 317 995 423 995 573 C 995 722 967 827 913 887 C 858 947 762 977 625 977 C 511 977 427 946 374 885 C 321 823 295 719 295 573 C 295 425 321 319 375 256 C 428 193 511 162 625 162 Z" unicode="q" />
<glyph horiz-adv-x="760" d="M 147 1128 L 305 1139 L 326 999 C 350 1042 396 1078 464 1106 C 532 1134 614 1150 711 1153 L 711 952 C 588 950 497 921 437 864 C 377 807 348 719 348 600 L 348 0 L 147 0 L 147 1128 Z" unicode="r" />
<glyph horiz-adv-x="1098" d="M 543 -20 C 347 -20 183 24 51 113 L 154 268 C 273 192 407 154 555 154 C 662 154 734 166 772 191 C 810 215 829 259 829 322 C 829 354 822 379 808 399 C 794 418 770 434 738 446 C 705 458 644 471 555 487 C 417 511 322 537 268 563 C 214 589 174 624 148 668 C 122 711 109 768 109 840 C 109 952 145 1034 218 1086 C 290 1138 403 1165 555 1165 C 731 1165 876 1131 989 1065 L 895 901 C 795 954 683 981 559 981 C 469 981 405 970 366 948 C 326 926 307 890 307 840 C 307 792 323 757 355 735 C 387 712 457 692 563 674 C 633 661 696 648 753 635 C 809 621 858 603 898 579 C 938 555 968 523 990 484 C 1011 445 1022 394 1022 330 C 1022 204 985 114 912 60 C 839 6 716 -20 543 -20 Z" unicode="s" />
<glyph horiz-adv-x="856" d="M 59 1139 L 266 1139 L 301 1462 L 459 1493 L 459 1139 L 760 1139 L 760 958 L 459 958 L 459 338 C 459 287 464 252 474 233 C 484 213 501 199 525 190 C 548 180 581 176 623 176 L 760 176 L 760 0 L 676 -2 L 588 -2 C 505 -2 440 7 393 27 C 346 46 312 77 291 119 C 270 161 260 225 260 311 L 260 958 L 59 958 L 59 1139 Z" unicode="t" />
<glyph horiz-adv-x="1280" d="M 643 -20 C 517 -20 418 -5 346 25 C 273 55 221 103 189 171 C 157 238 141 343 141 487 L 141 1139 L 340 1139 L 340 483 C 340 437 341 395 345 356 C 348 317 359 283 378 255 C 397 226 427 203 468 187 C 509 170 567 162 643 162 C 700 162 748 167 787 177 C 825 187 856 202 879 222 C 901 242 918 269 928 304 C 938 338 944 400 944 489 L 944 1139 L 1139 1139 L 1139 494 C 1139 348 1123 241 1093 173 C 1062 105 1011 56 940 26 C 868 -4 769 -20 643 -20 Z" unicode="u" />
<glyph horiz-adv-x="1151" d="M 14 1139 L 227 1139 L 578 227 L 928 1139 L 1135 1139 L 682 -10 L 467 -10 L 14 1139 Z" unicode="v" />
<glyph horiz-adv-x="1819" d="M 27 1139 L 236 1139 L 530 279 L 813 1139 L 1010 1139 L 1292 281 L 1589 1139 L 1792 1139 L 1391 -10 L 1192 -10 L 909 838 L 627 -10 L 426 -10 L 27 1139 Z" unicode="w" />
<glyph horiz-adv-x="1139" d="M 70 1139 L 291 1139 L 577 739 L 856 1139 L 1071 1139 L 681 593 L 1106 0 L 883 0 L 561 450 L 250 0 L 33 0 L 458 595 L 70 1139 Z" unicode="x" />
<glyph horiz-adv-x="1114" d="M 14 1139 L 227 1139 L 562 250 L 893 1139 L 1102 1139 L 618 -96 C 585 -186 542 -250 489 -288 C 436 -325 360 -344 262 -344 L 211 -344 L 158 -342 L 158 -180 L 246 -180 C 304 -180 344 -172 368 -157 C 392 -141 410 -114 422 -76 L 456 13 L 14 1139 Z" unicode="y" />
<glyph horiz-adv-x="1049" d="M 61 145 L 711 958 L 94 958 L 94 1139 L 971 1139 L 971 989 L 319 170 L 993 170 L 993 0 L 61 0 L 61 145 Z" unicode="z" />
<glyph horiz-adv-x="1051" d="M 674 -338 C 548 -338 456 -316 398 -273 C 340 -229 311 -160 311 -66 C 311 -16 329 70 367 194 C 403 317 422 397 422 434 C 422 474 404 501 370 516 C 336 531 266 539 160 539 L 160 711 C 242 711 299 714 331 720 C 363 726 386 737 400 753 C 414 768 422 790 422 819 C 422 855 403 935 367 1059 C 329 1182 311 1268 311 1317 C 311 1411 339 1479 397 1523 C 455 1567 547 1589 674 1589 L 858 1589 L 858 1407 L 715 1407 C 640 1407 588 1396 559 1375 C 530 1354 516 1317 516 1264 C 516 1235 533 1159 569 1037 C 603 913 621 829 621 784 C 621 702 580 649 500 627 C 580 600 621 547 621 467 C 621 422 603 337 569 213 C 533 88 516 12 516 -16 C 516 -71 530 -109 559 -130 C 587 -151 639 -162 715 -162 L 858 -162 L 858 -338 L 674 -338 Z" unicode="{" />
<glyph horiz-adv-x="692" d="M 244 1589 L 446 1589 L 446 -338 L 244 -338 L 244 1589 Z" unicode="|" />
<glyph horiz-adv-x="1051" d="M 193 -162 L 338 -162 C 412 -162 464 -151 493 -130 C 522 -109 537 -71 537 -16 C 537 8 527 54 509 122 C 469 266 445 355 439 387 C 433 419 430 446 430 467 C 430 548 470 601 551 627 C 470 651 430 704 430 784 C 430 826 448 911 484 1037 C 506 1117 521 1170 527 1197 C 533 1224 537 1246 537 1264 C 537 1317 522 1354 493 1375 C 464 1396 412 1407 338 1407 L 193 1407 L 193 1589 L 379 1589 C 503 1589 594 1567 652 1525 C 710 1482 739 1413 739 1317 C 739 1271 720 1185 684 1059 C 660 976 644 920 638 891 C 632 861 629 837 629 819 C 629 778 646 750 681 735 C 715 720 785 713 891 713 L 891 541 C 807 541 750 537 719 531 C 688 524 665 513 651 498 C 636 483 629 462 629 434 C 629 415 632 390 639 359 C 646 328 661 273 684 194 C 720 66 739 -20 739 -66 C 739 -162 710 -231 652 -274 C 594 -316 503 -338 379 -338 L 193 -338 L 193 -162 Z" unicode="}" />
<glyph horiz-adv-x="1208" d="M 184 935 C 228 989 274 1031 322 1061 C 370 1090 415 1105 459 1105 C 494 1105 524 1099 549 1089 C 573 1078 596 1066 616 1053 C 636 1040 656 1028 676 1018 C 695 1007 717 1002 743 1002 C 787 1002 842 1039 907 1115 L 1024 1021 C 926 897 834 836 748 836 C 716 836 687 841 663 852 C 639 862 616 874 594 887 C 572 900 551 912 531 923 C 510 933 487 939 463 939 C 439 939 414 930 386 913 C 358 896 332 871 307 839 L 184 935 Z" unicode="~" />
<glyph horiz-adv-x="471" d="" unicode=" " />
<glyph horiz-adv-x="758" d="M 291 1083 L 467 1083 L 487 0 L 268 0 L 291 1083 Z M 254 1518 L 504 1518 L 504 1251 L 254 1251 L 254 1518 Z" unicode="¡" />
<glyph horiz-adv-x="1159" d="M 551 -10 C 395 4 280 57 206 149 C 132 241 96 381 96 571 C 96 761 133 902 207 995 C 281 1088 396 1142 551 1156 L 551 1286 L 739 1286 L 739 1157 C 875 1143 987 1089 1073 995 L 932 862 C 901 892 872 915 844 931 C 816 947 777 960 727 972 L 727 159 C 800 169 872 206 942 270 L 1073 147 C 1014 95 958 57 906 34 C 853 10 797 -3 739 -9 L 739 -193 L 551 -193 L 551 -10 Z M 563 160 L 563 970 C 469 956 400 917 356 853 C 311 789 289 693 289 567 C 289 439 311 342 357 278 C 402 213 471 174 563 160 Z" unicode="¢" />
<glyph horiz-adv-x="1284" d="M 66 864 L 261 864 L 254 892 C 229 995 217 1078 217 1141 C 217 1278 255 1379 333 1445 C 411 1511 527 1544 682 1544 C 761 1544 834 1537 900 1525 C 966 1512 1032 1492 1098 1464 L 1020 1290 C 926 1334 812 1356 678 1356 C 587 1356 520 1337 478 1300 C 435 1262 414 1201 414 1116 C 414 1068 425 994 447 895 L 454 864 L 901 864 L 901 700 L 494 700 C 526 569 543 468 543 397 C 543 337 537 284 526 237 C 574 215 628 197 686 183 C 744 169 798 162 850 162 C 896 162 932 167 958 178 C 983 189 1001 207 1013 231 C 1024 255 1030 298 1030 360 L 1030 414 L 1204 414 L 1204 354 C 1204 258 1192 185 1169 133 C 1146 81 1110 43 1060 19 C 1010 -4 941 -16 854 -16 C 783 -16 711 -6 637 12 C 563 30 496 56 437 88 C 399 58 352 35 296 21 C 239 7 167 0 80 0 L 80 172 C 156 172 214 177 254 189 C 293 200 321 219 337 245 C 353 271 362 321 362 393 C 362 460 342 562 304 700 L 66 700 L 66 864 Z" unicode="£" />
<glyph horiz-adv-x="1152" d="M 1056 392 L 940 284 L 740 500 C 692 468 636 452 572 452 C 510 452 456 468 408 500 L 208 284 L 92 392 L 300 608 C 281 634 268 660 262 686 C 255 711 252 742 252 780 C 252 848 268 906 300 952 L 92 1168 L 208 1276 L 408 1060 C 456 1092 510 1108 572 1108 C 636 1108 692 1092 740 1060 L 944 1276 L 1060 1156 L 852 952 C 870 925 883 898 890 872 C 896 845 900 814 900 780 C 900 716 882 658 848 608 L 1056 392 Z M 748 780 C 748 833 731 876 698 910 C 664 943 622 960 572 960 C 521 960 480 943 448 910 C 416 876 400 833 400 780 C 400 726 416 684 450 652 C 483 620 524 604 572 604 C 625 604 668 620 700 652 C 732 684 748 726 748 780 Z" unicode="¤" />
<glyph horiz-adv-x="1311" d="M 139 324 L 557 324 L 557 473 L 139 473 L 139 643 L 557 643 L 557 657 L 29 1518 L 240 1518 L 655 829 L 1071 1518 L 1282 1518 L 754 662 L 754 643 L 1171 643 L 1171 473 L 754 473 L 754 324 L 1171 324 L 1171 156 L 754 156 L 754 0 L 557 0 L 557 156 L 139 156 L 139 324 Z" unicode="¥" />
<glyph horiz-adv-x="692" d="M 244 465 L 446 465 L 446 -338 L 244 -338 L 244 465 Z M 244 1589 L 446 1589 L 446 786 L 244 786 L 244 1589 Z" unicode="¦" />
<glyph horiz-adv-x="1147" d="M 455 1159 C 455 1259 468 1335 494 1386 C 520 1437 559 1474 612 1497 C 665 1520 734 1532 819 1532 L 952 1528 L 952 1356 L 842 1356 C 794 1356 756 1349 729 1337 C 702 1325 683 1306 671 1281 C 659 1255 653 1215 653 1161 L 653 1068 C 780 1060 875 1030 938 980 C 1000 930 1032 856 1032 758 C 1032 666 1003 596 947 547 C 890 498 801 468 680 457 L 680 356 C 680 256 667 181 643 132 C 619 83 580 46 527 21 C 474 -3 403 -16 315 -16 L 184 -12 L 184 154 L 295 154 C 341 154 378 160 404 172 C 430 184 450 202 462 226 C 474 250 481 290 481 348 L 481 456 C 355 465 262 494 203 543 C 144 592 115 664 115 758 C 115 850 142 922 197 972 C 252 1022 338 1053 455 1065 L 455 1159 Z M 571 590 C 672 590 747 602 795 628 C 843 653 868 695 868 754 C 868 813 843 855 795 880 C 747 905 672 918 571 918 C 471 918 398 905 351 880 C 304 855 281 813 281 754 C 281 695 304 653 351 628 C 398 602 471 590 571 590 Z" unicode="§" />
<glyph horiz-adv-x="1208" d="M 293 1491 L 475 1491 L 475 1262 L 293 1262 L 293 1491 Z M 735 1491 L 915 1491 L 915 1262 L 735 1262 L 735 1491 Z" unicode="¨" />
<glyph horiz-adv-x="1692" d="M 858 250 C 692 250 566 294 482 382 C 398 470 356 598 356 768 C 356 935 399 1063 487 1151 C 574 1239 700 1284 864 1284 C 1016 1284 1137 1241 1227 1155 L 1133 1055 C 1057 1120 967 1153 862 1153 C 746 1153 657 1120 593 1055 C 529 990 498 894 498 768 C 498 641 528 545 590 479 C 651 413 742 381 864 381 C 920 381 971 388 1017 404 C 1062 420 1104 445 1143 481 L 1233 389 C 1183 339 1128 304 1066 282 C 1004 260 934 250 858 250 Z M 842 -25 C 683 -25 547 6 433 70 C 319 133 232 224 173 342 C 113 460 84 600 84 760 C 84 920 113 1059 173 1177 C 232 1295 319 1386 433 1449 C 547 1512 683 1544 842 1544 C 1000 1544 1137 1512 1252 1449 C 1367 1385 1454 1294 1514 1175 C 1574 1056 1604 918 1604 760 C 1604 600 1574 460 1514 342 C 1454 224 1366 133 1252 70 C 1138 6 1001 -25 842 -25 Z M 842 63 C 1057 63 1223 123 1340 244 C 1457 364 1516 536 1516 760 C 1516 982 1457 1153 1340 1274 C 1223 1395 1057 1456 842 1456 C 628 1456 463 1396 347 1276 C 231 1156 174 984 174 760 C 174 536 231 363 347 243 C 462 123 627 63 842 63 Z" unicode="©" />
<glyph horiz-adv-x="1221" d="M 453 578 C 237 578 129 672 129 860 C 129 981 174 1068 264 1120 C 354 1172 513 1198 741 1198 L 783 1198 C 781 1254 774 1294 760 1318 C 746 1342 723 1359 692 1370 C 660 1380 617 1386 561 1386 C 519 1386 474 1379 426 1367 C 378 1354 335 1335 295 1311 L 207 1438 C 249 1468 305 1492 375 1511 C 444 1530 512 1540 578 1540 C 674 1540 748 1529 800 1508 C 852 1487 889 1453 912 1405 C 934 1357 946 1278 946 1169 L 946 848 C 946 800 951 770 962 759 C 972 748 998 743 1040 743 L 1040 594 L 977 592 C 911 592 866 602 844 622 C 821 642 807 679 801 731 C 771 673 729 633 674 611 C 618 589 545 578 453 578 Z M 289 872 C 289 771 355 721 489 721 C 587 721 661 743 710 789 C 759 834 784 906 784 1006 L 784 1065 L 752 1065 C 626 1065 531 1059 467 1047 C 403 1035 357 1016 330 990 C 302 964 289 924 289 872 Z M 215 438 L 950 438 L 950 287 L 215 287 L 215 438 Z" unicode="ª" />
<glyph horiz-adv-x="1436" d="M 199 567 L 508 1139 L 684 1139 L 387 567 L 684 0 L 508 0 L 199 567 Z M 698 567 L 1008 1139 L 1186 1139 L 891 567 L 1186 0 L 1008 0 L 698 567 Z" unicode="«" />
<glyph horiz-adv-x="1536" d="M 1116 352 L 1116 728 L 212 728 L 212 920 L 1296 920 L 1296 352 L 1116 352 Z" unicode="¬" />
<glyph horiz-adv-x="911" d="M 98 735 L 809 735 L 809 549 L 98 549 L 98 735 Z" unicode="­" />
<glyph horiz-adv-x="1692" d="M 842 -25 C 683 -25 547 6 433 70 C 319 133 232 224 173 342 C 113 460 84 600 84 760 C 84 920 113 1059 173 1177 C 232 1295 319 1386 433 1449 C 547 1512 683 1544 842 1544 C 1000 1544 1137 1512 1252 1449 C 1367 1385 1454 1294 1514 1175 C 1574 1056 1604 918 1604 760 C 1604 600 1574 460 1514 342 C 1454 224 1366 133 1252 70 C 1138 6 1001 -25 842 -25 Z M 842 63 C 1057 63 1223 123 1340 244 C 1457 364 1516 536 1516 760 C 1516 982 1457 1153 1340 1274 C 1223 1395 1057 1456 842 1456 C 628 1456 463 1396 347 1276 C 231 1156 174 984 174 760 C 174 536 231 363 347 243 C 462 123 627 63 842 63 Z M 477 1249 L 915 1249 C 1035 1249 1122 1226 1175 1181 C 1228 1136 1255 1060 1255 954 C 1255 864 1236 795 1198 749 C 1160 703 1101 673 1021 660 L 1253 262 L 1112 262 L 889 653 L 608 653 L 608 262 L 477 262 L 477 1249 Z M 913 770 C 989 770 1044 783 1076 811 C 1108 838 1124 884 1124 950 C 1124 1016 1108 1062 1076 1088 C 1044 1114 989 1128 911 1128 L 608 1128 L 608 770 L 913 770 Z" unicode="®" />
<glyph horiz-adv-x="1208" d="M 219 1413 L 989 1413 L 989 1243 L 219 1243 L 219 1413 Z" unicode="¯" />
<glyph horiz-adv-x="1165" d="M 582 563 C 434 563 321 605 243 690 C 164 774 125 895 125 1053 C 125 1209 164 1329 242 1414 C 320 1499 434 1542 582 1542 C 729 1542 842 1499 921 1415 C 1000 1330 1040 1209 1040 1053 C 1040 895 1000 774 921 690 C 841 605 728 563 582 563 Z M 582 721 C 679 721 752 748 802 803 C 852 858 877 940 877 1049 C 877 1156 852 1237 802 1293 C 752 1348 678 1376 582 1376 C 486 1376 414 1348 364 1294 C 314 1239 289 1157 289 1049 C 289 830 386 721 582 721 Z" unicode="°" />
<glyph horiz-adv-x="1440" d="M 621 627 L 211 627 L 211 817 L 621 817 L 621 1225 L 817 1225 L 817 817 L 1229 817 L 1229 627 L 817 627 L 817 219 L 621 219 L 621 627 Z M 211 215 L 1229 215 L 1229 29 L 211 29 L 211 215 Z" unicode="±" />
<glyph horiz-adv-x="942" d="M 129 688 L 430 973 C 500 1039 546 1085 566 1111 C 586 1136 600 1160 608 1183 C 616 1206 621 1234 621 1266 C 621 1312 606 1346 576 1366 C 546 1386 499 1397 436 1397 C 343 1397 261 1378 190 1341 L 121 1462 C 211 1508 323 1532 455 1532 C 561 1532 641 1512 695 1473 C 749 1434 776 1370 776 1282 C 776 1217 762 1161 735 1113 C 707 1065 645 995 549 903 L 340 702 L 786 702 L 786 571 L 129 571 L 129 688 Z" unicode="²" />
<glyph horiz-adv-x="979" d="M 473 559 C 401 559 336 566 279 580 C 222 594 163 618 102 653 L 182 770 C 269 719 362 694 461 694 C 541 694 596 706 626 731 C 656 755 672 799 672 862 C 672 924 654 967 620 989 C 586 1011 526 1022 440 1022 L 299 1022 L 299 1149 L 436 1149 C 518 1149 573 1158 601 1176 C 629 1194 643 1227 643 1276 C 643 1318 629 1349 603 1367 C 577 1385 528 1395 457 1395 C 360 1395 274 1373 199 1331 L 123 1448 C 168 1476 222 1497 284 1512 C 346 1526 411 1534 477 1534 C 592 1534 675 1515 726 1479 C 777 1442 803 1385 803 1307 C 803 1249 792 1203 772 1169 C 752 1135 719 1111 674 1096 C 728 1081 767 1053 792 1013 C 816 972 829 916 829 846 C 829 745 801 672 747 627 C 692 581 601 559 473 559 Z" unicode="³" />
<glyph horiz-adv-x="1208" d="M 735 1591 L 979 1591 L 616 1255 L 432 1255 L 735 1591 Z" unicode="´" />
<glyph horiz-adv-x="1288" d="M 147 1139 L 348 1139 L 348 483 C 348 413 350 363 356 335 C 361 307 370 282 382 261 C 394 239 412 221 434 207 C 456 193 485 182 519 174 C 553 166 597 162 651 162 C 702 162 745 165 779 173 C 813 181 842 192 864 206 C 886 220 904 237 916 258 C 928 279 936 303 942 331 C 947 358 950 411 950 489 L 950 1139 L 1147 1139 L 1147 494 C 1147 376 1138 286 1121 226 C 1103 165 1076 117 1039 82 C 1001 46 952 20 891 4 C 830 -11 754 -20 664 -20 C 580 -20 513 -12 461 3 C 409 18 371 42 348 76 L 348 -338 L 147 -338 L 147 1139 Z" unicode="µ" />
<glyph horiz-adv-x="1300" d="M 928 565 L 698 565 L 698 0 L 510 0 L 510 572 C 369 588 266 633 201 707 C 136 781 104 895 104 1049 C 104 1217 145 1337 229 1409 C 313 1481 451 1518 643 1518 L 1116 1518 L 1116 0 L 928 0 L 928 565 Z M 928 733 L 928 1333 L 639 1333 C 513 1333 426 1311 378 1268 C 329 1224 305 1148 305 1038 C 305 927 330 848 381 802 C 431 756 516 733 635 733 L 928 733 Z" unicode="¶" />
<glyph horiz-adv-x="518" d="M 133 836 L 383 836 L 383 561 L 133 561 L 133 836 Z" unicode="·" />
<glyph horiz-adv-x="1208" d="M 616 -475 C 522 -475 440 -454 369 -414 L 424 -309 C 484 -340 545 -356 608 -356 C 660 -356 699 -348 724 -333 C 749 -318 762 -292 762 -256 C 762 -219 749 -195 724 -185 C 699 -174 664 -169 620 -169 L 573 -170 L 524 -135 L 553 14 L 674 14 L 655 -90 L 686 -89 C 742 -89 783 -95 811 -107 C 839 -119 860 -138 876 -164 C 891 -189 899 -224 899 -268 C 899 -337 876 -389 830 -423 C 784 -457 712 -475 616 -475 Z" unicode="¸" />
<glyph horiz-adv-x="696" d="M 307 1378 L 125 1378 L 125 1518 L 465 1518 L 465 571 L 307 571 L 307 1378 Z" unicode="¹" />
<glyph horiz-adv-x="1223" d="M 612 582 C 455 582 340 623 267 705 C 194 787 158 906 158 1063 C 158 1219 194 1338 267 1420 C 340 1501 455 1542 612 1542 C 914 1542 1065 1382 1065 1063 C 1065 742 914 582 612 582 Z M 612 735 C 802 735 897 843 897 1059 C 897 1274 802 1382 612 1382 C 512 1382 440 1354 394 1299 C 348 1244 326 1164 326 1059 C 326 843 421 735 612 735 Z M 215 438 L 1008 438 L 1008 283 L 215 283 L 215 438 Z" unicode="º" />
<glyph horiz-adv-x="1436" d="M 547 569 L 252 1139 L 428 1139 L 737 569 L 428 0 L 252 0 L 547 569 Z M 1047 569 L 752 1139 L 930 1139 L 1239 569 L 930 0 L 752 0 L 1047 569 Z" unicode="»" />
<glyph horiz-adv-x="1878" d="M 1493 207 L 1026 207 L 1026 330 L 1448 950 L 1622 950 L 1206 340 L 1493 340 L 1524 580 L 1647 580 L 1647 340 L 1800 340 L 1800 207 L 1647 207 L 1647 0 L 1493 0 L 1493 207 Z M 287 1372 L 104 1372 L 104 1518 L 451 1518 L 451 567 L 287 567 L 287 1372 Z M 1229 1518 L 1407 1518 L 561 0 L 381 0 L 1229 1518 Z" unicode="¼" />
<glyph horiz-adv-x="2009" d="M 1204 121 L 1503 403 C 1583 481 1633 531 1651 554 C 1669 577 1681 599 1687 619 C 1693 639 1696 663 1696 690 C 1696 736 1681 769 1651 789 C 1621 809 1575 819 1511 819 C 1423 819 1341 800 1266 764 L 1194 891 C 1248 917 1301 935 1354 945 C 1407 955 1466 961 1530 961 C 1636 961 1716 941 1770 902 C 1824 862 1851 797 1851 707 C 1851 664 1845 627 1835 595 C 1824 563 1807 530 1783 498 C 1759 465 1706 409 1624 330 L 1423 135 L 1851 135 L 1851 0 L 1204 0 L 1204 121 Z M 287 1372 L 104 1372 L 104 1518 L 451 1518 L 451 567 L 287 567 L 287 1372 Z M 1229 1518 L 1407 1518 L 561 0 L 381 0 L 1229 1518 Z" unicode="½" />
<glyph horiz-adv-x="2093" d="M 449 563 C 379 563 316 570 260 584 C 204 598 142 623 76 659 L 162 782 C 208 754 253 735 296 723 C 339 711 385 705 434 705 C 515 705 570 717 600 741 C 630 765 645 807 645 868 C 645 911 637 943 623 964 C 609 984 585 999 552 1009 C 518 1019 473 1024 416 1024 L 274 1024 L 274 1159 L 412 1159 C 492 1159 547 1167 575 1185 C 603 1203 618 1235 618 1282 C 618 1325 604 1355 576 1373 C 548 1390 500 1399 430 1399 C 333 1399 248 1377 176 1333 L 96 1456 C 188 1513 307 1542 453 1542 C 565 1542 647 1524 699 1488 C 750 1452 776 1395 776 1315 C 776 1256 764 1210 742 1177 C 720 1143 687 1118 643 1102 C 751 1075 805 992 805 852 C 805 751 776 678 720 632 C 664 586 573 563 449 563 Z M 1708 207 L 1241 207 L 1241 330 L 1661 950 L 1837 950 L 1421 340 L 1710 340 L 1739 580 L 1862 580 L 1862 340 L 2013 340 L 2013 207 L 1862 207 L 1862 0 L 1708 0 L 1708 207 Z M 1444 1518 L 1622 1518 L 774 0 L 598 0 L 1444 1518 Z" unicode="¾" />
<glyph horiz-adv-x="1380" d="M 670 -20 C 487 -20 356 8 277 66 C 197 123 158 219 158 354 C 158 442 177 515 217 573 C 257 630 331 687 440 743 C 497 773 538 799 564 821 C 590 842 608 866 620 894 C 631 922 637 961 637 1011 L 633 1108 L 827 1108 C 833 1057 836 1012 836 972 C 836 890 819 825 786 777 C 752 728 689 679 596 631 C 516 587 463 554 435 532 C 407 510 388 486 378 462 C 367 438 362 407 362 371 C 362 315 372 273 393 246 C 414 219 448 199 494 187 C 540 174 604 168 684 168 C 846 168 993 202 1126 272 L 1210 98 C 1141 62 1058 33 962 12 C 865 -9 768 -20 670 -20 Z M 606 1522 L 856 1522 L 856 1280 L 606 1280 L 606 1522 Z" unicode="¿" />
<glyph horiz-adv-x="1520" d="M 653 1528 L 864 1528 L 1473 0 L 1260 0 L 1135 319 L 377 319 L 252 0 L 45 0 L 653 1528 Z M 1061 510 L 754 1280 L 446 510 L 1061 510 Z M 381 1941 L 625 1941 L 928 1605 L 744 1605 L 381 1941 Z" unicode="À" />
<glyph horiz-adv-x="1520" d="M 653 1528 L 864 1528 L 1473 0 L 1260 0 L 1135 319 L 377 319 L 252 0 L 45 0 L 653 1528 Z M 1061 510 L 754 1280 L 446 510 L 1061 510 Z M 887 1941 L 1131 1941 L 768 1605 L 584 1605 L 887 1941 Z" unicode="Á" />
<glyph horiz-adv-x="1520" d="M 653 1528 L 864 1528 L 1473 0 L 1260 0 L 1135 319 L 377 319 L 252 0 L 45 0 L 653 1528 Z M 1061 510 L 754 1280 L 446 510 L 1061 510 Z M 648 1941 L 863 1941 L 1176 1605 L 983 1605 L 752 1812 L 525 1605 L 334 1605 L 648 1941 Z" unicode="Â" />
<glyph horiz-adv-x="1520" d="M 653 1528 L 864 1528 L 1473 0 L 1260 0 L 1135 319 L 377 319 L 252 0 L 45 0 L 653 1528 Z M 1061 510 L 754 1280 L 446 510 L 1061 510 Z M 336 1706 C 380 1760 426 1802 474 1832 C 522 1861 567 1876 611 1876 C 646 1876 676 1870 701 1860 C 725 1849 748 1837 768 1824 C 788 1811 808 1799 828 1789 C 847 1778 869 1773 895 1773 C 939 1773 994 1810 1059 1886 L 1176 1792 C 1078 1668 986 1607 900 1607 C 868 1607 839 1612 815 1623 C 791 1633 768 1645 746 1658 C 724 1671 703 1683 683 1694 C 662 1704 639 1710 615 1710 C 591 1710 566 1701 538 1684 C 510 1667 484 1642 459 1610 L 336 1706 Z" unicode="Ã" />
<glyph horiz-adv-x="1520" d="M 653 1528 L 864 1528 L 1473 0 L 1260 0 L 1135 319 L 377 319 L 252 0 L 45 0 L 653 1528 Z M 1061 510 L 754 1280 L 446 510 L 1061 510 Z M 445 1841 L 627 1841 L 627 1612 L 445 1612 L 445 1841 Z M 887 1841 L 1067 1841 L 1067 1612 L 887 1612 L 887 1841 Z" unicode="Ä" />
<glyph horiz-adv-x="1520" d="M 616 1434 C 540 1477 502 1554 502 1665 C 502 1748 524 1813 569 1859 C 614 1905 677 1929 758 1929 C 838 1929 901 1905 947 1858 C 993 1810 1016 1746 1016 1665 C 1016 1615 1006 1569 988 1529 C 969 1488 940 1457 901 1436 L 1475 0 L 1264 0 L 1137 317 L 375 317 L 252 0 L 45 0 L 616 1434 Z M 1063 508 L 756 1280 L 449 508 L 1063 508 Z M 758 1511 C 807 1511 844 1524 868 1551 C 892 1578 905 1616 905 1665 C 905 1715 892 1754 867 1781 C 842 1807 806 1821 758 1821 C 710 1821 674 1807 648 1780 C 622 1752 610 1714 610 1665 C 610 1617 622 1579 647 1552 C 672 1524 709 1511 758 1511 Z" unicode="Å" />
<glyph horiz-adv-x="2234" d="M 985 1518 L 2111 1518 L 2111 1319 L 1278 1319 L 1278 879 L 2091 879 L 2091 688 L 1278 688 L 1278 190 L 2120 190 L 2120 0 L 1079 0 L 1079 319 L 440 319 L 236 0 L 31 0 L 985 1518 Z M 1079 498 L 1079 1333 L 545 498 L 1079 498 Z" unicode="Æ" />
<glyph horiz-adv-x="1497" d="M 842 -23 C 586 -23 396 41 271 170 C 146 299 84 496 84 760 C 84 1017 148 1212 278 1344 C 407 1476 598 1542 852 1542 C 1081 1542 1264 1475 1401 1343 L 1251 1194 C 1143 1293 1010 1343 850 1343 C 478 1343 293 1148 293 758 C 293 559 339 412 431 316 C 523 220 663 172 852 172 C 912 172 965 177 1013 188 C 1061 199 1103 215 1141 235 C 1178 255 1219 286 1264 328 L 1411 186 C 1335 110 1252 57 1160 25 C 1068 -7 962 -23 842 -23 Z M 756 -475 C 662 -475 580 -454 509 -414 L 564 -309 C 624 -340 685 -356 748 -356 C 800 -356 839 -348 864 -333 C 889 -318 902 -292 902 -256 C 902 -219 889 -195 864 -185 C 839 -174 804 -169 760 -169 L 713 -170 L 664 -135 L 693 14 L 814 14 L 795 -90 L 826 -89 C 882 -89 923 -95 951 -107 C 979 -119 1000 -138 1016 -164 C 1031 -189 1039 -224 1039 -268 C 1039 -337 1016 -389 970 -423 C 924 -457 852 -475 756 -475 Z" unicode="Ç" />
<glyph horiz-adv-x="1335" d="M 172 1518 L 1210 1518 L 1210 1319 L 379 1319 L 379 883 L 1190 883 L 1190 686 L 379 686 L 379 190 L 1219 190 L 1219 0 L 172 0 L 172 1518 Z M 288 1941 L 532 1941 L 835 1605 L 651 1605 L 288 1941 Z" unicode="È" />
<glyph horiz-adv-x="1335" d="M 794 1941 L 1038 1941 L 675 1605 L 491 1605 L 794 1941 Z M 172 1518 L 1210 1518 L 1210 1319 L 379 1319 L 379 883 L 1190 883 L 1190 686 L 379 686 L 379 190 L 1219 190 L 1219 0 L 172 0 L 172 1518 Z" unicode="É" />
<glyph horiz-adv-x="1335" d="M 555 1941 L 770 1941 L 1083 1605 L 890 1605 L 659 1812 L 432 1605 L 241 1605 L 555 1941 Z M 172 1518 L 1210 1518 L 1210 1319 L 379 1319 L 379 883 L 1190 883 L 1190 686 L 379 686 L 379 190 L 1219 190 L 1219 0 L 172 0 L 172 1518 Z" unicode="Ê" />
<glyph horiz-adv-x="1335" d="M 352 1841 L 534 1841 L 534 1612 L 352 1612 L 352 1841 Z M 794 1841 L 974 1841 L 974 1612 L 794 1612 L 794 1841 Z M 172 1518 L 1210 1518 L 1210 1319 L 379 1319 L 379 883 L 1190 883 L 1190 686 L 379 686 L 379 190 L 1219 190 L 1219 0 L 172 0 L 172 1518 Z" unicode="Ë" />
<glyph horiz-adv-x="582" d="M -127 1939 L 123 1939 L 393 1606 L 205 1606 L -127 1939 Z M 188 1518 L 393 1518 L 393 0 L 188 0 L 188 1518 Z" unicode="Ì" />
<glyph horiz-adv-x="582" d="M 457 1939 L 707 1939 L 377 1606 L 188 1606 L 457 1939 Z M 188 1518 L 393 1518 L 393 0 L 188 0 L 188 1518 Z" unicode="Í" />
<glyph horiz-adv-x="582" d="M 184 1939 L 395 1939 L 666 1606 L 471 1606 L 287 1817 L 104 1606 L -86 1606 L 184 1939 Z M 188 1518 L 393 1518 L 393 0 L 188 0 L 188 1518 Z" unicode="Î" />
<glyph horiz-adv-x="582" d="M 188 1518 L 393 1518 L 393 0 L 188 0 L 188 1518 Z M -15 1841 L 167 1841 L 167 1612 L -15 1612 L -15 1841 Z M 427 1841 L 607 1841 L 607 1612 L 427 1612 L 427 1841 Z" unicode="Ï" />
<glyph horiz-adv-x="1559" d="M 0 866 L 172 866 L 172 1518 L 680 1518 C 888 1518 1048 1494 1159 1446 C 1270 1398 1351 1321 1401 1213 C 1451 1105 1477 954 1477 760 C 1477 572 1450 424 1396 315 C 1342 205 1257 125 1143 75 C 1028 25 866 0 657 0 L 172 0 L 172 694 L 0 694 L 0 866 Z M 668 190 C 821 190 940 208 1026 244 C 1111 280 1173 338 1211 418 C 1249 498 1268 612 1268 760 C 1268 914 1250 1030 1215 1106 C 1180 1182 1122 1236 1041 1270 C 960 1304 840 1321 682 1321 L 379 1321 L 379 866 L 707 866 L 707 694 L 379 694 L 379 190 L 668 190 Z" unicode="Ð" />
<glyph horiz-adv-x="1620" d="M 172 1518 L 397 1518 L 1247 348 L 1247 1518 L 1448 1518 L 1448 0 L 1257 0 L 373 1214 L 373 0 L 172 0 L 172 1518 Z M 385 1706 C 429 1760 475 1802 523 1832 C 571 1861 616 1876 660 1876 C 695 1876 725 1870 750 1860 C 774 1849 797 1837 817 1824 C 837 1811 857 1799 877 1789 C 896 1778 918 1773 944 1773 C 988 1773 1043 1810 1108 1886 L 1225 1792 C 1127 1668 1035 1607 949 1607 C 917 1607 888 1612 864 1623 C 840 1633 817 1645 795 1658 C 773 1671 752 1683 732 1694 C 711 1704 688 1710 664 1710 C 640 1710 615 1701 587 1684 C 559 1667 533 1642 508 1610 L 385 1706 Z" unicode="Ñ" />
<glyph horiz-adv-x="1718" d="M 858 -25 C 342 -25 84 236 84 760 C 84 1281 342 1542 858 1542 C 1374 1542 1632 1281 1632 760 C 1632 236 1374 -25 858 -25 Z M 858 168 C 1236 168 1425 364 1425 756 C 1425 1147 1236 1343 858 1343 C 668 1343 526 1294 433 1197 C 339 1100 293 953 293 756 C 293 558 340 410 434 313 C 528 216 669 168 858 168 Z M 481 1941 L 725 1941 L 1028 1605 L 844 1605 L 481 1941 Z" unicode="Ò" />
<glyph horiz-adv-x="1718" d="M 987 1941 L 1231 1941 L 868 1605 L 684 1605 L 987 1941 Z M 858 -25 C 342 -25 84 236 84 760 C 84 1281 342 1542 858 1542 C 1374 1542 1632 1281 1632 760 C 1632 236 1374 -25 858 -25 Z M 858 168 C 1236 168 1425 364 1425 756 C 1425 1147 1236 1343 858 1343 C 668 1343 526 1294 433 1197 C 339 1100 293 953 293 756 C 293 558 340 410 434 313 C 528 216 669 168 858 168 Z" unicode="Ó" />
<glyph horiz-adv-x="1718" d="M 748 1941 L 963 1941 L 1276 1605 L 1083 1605 L 852 1812 L 625 1605 L 434 1605 L 748 1941 Z M 858 -25 C 342 -25 84 236 84 760 C 84 1281 342 1542 858 1542 C 1374 1542 1632 1281 1632 760 C 1632 236 1374 -25 858 -25 Z M 858 168 C 1236 168 1425 364 1425 756 C 1425 1147 1236 1343 858 1343 C 668 1343 526 1294 433 1197 C 339 1100 293 953 293 756 C 293 558 340 410 434 313 C 528 216 669 168 858 168 Z" unicode="Ô" />
<glyph horiz-adv-x="1718" d="M 858 -25 C 342 -25 84 236 84 760 C 84 1281 342 1542 858 1542 C 1374 1542 1632 1281 1632 760 C 1632 236 1374 -25 858 -25 Z M 858 168 C 1236 168 1425 364 1425 756 C 1425 1147 1236 1343 858 1343 C 668 1343 526 1294 433 1197 C 339 1100 293 953 293 756 C 293 558 340 410 434 313 C 528 216 669 168 858 168 Z M 436 1706 C 480 1760 526 1802 574 1832 C 622 1861 667 1876 711 1876 C 746 1876 776 1870 801 1860 C 825 1849 848 1837 868 1824 C 888 1811 908 1799 928 1789 C 947 1778 969 1773 995 1773 C 1039 1773 1094 1810 1159 1886 L 1276 1792 C 1178 1668 1086 1607 1000 1607 C 968 1607 939 1612 915 1623 C 891 1633 868 1645 846 1658 C 824 1671 803 1683 783 1694 C 762 1704 739 1710 715 1710 C 691 1710 666 1701 638 1684 C 610 1667 584 1642 559 1610 L 436 1706 Z" unicode="Õ" />
<glyph horiz-adv-x="1718" d="M 545 1841 L 727 1841 L 727 1612 L 545 1612 L 545 1841 Z M 987 1841 L 1167 1841 L 1167 1612 L 987 1612 L 987 1841 Z M 858 -25 C 342 -25 84 236 84 760 C 84 1281 342 1542 858 1542 C 1374 1542 1632 1281 1632 760 C 1632 236 1374 -25 858 -25 Z M 858 168 C 1236 168 1425 364 1425 756 C 1425 1147 1236 1343 858 1343 C 668 1343 526 1294 433 1197 C 339 1100 293 953 293 756 C 293 558 340 410 434 313 C 528 216 669 168 858 168 Z" unicode="Ö" />
<glyph horiz-adv-x="1440" d="M 276 401 L 596 721 L 276 1040 L 399 1169 L 721 848 L 1038 1169 L 1161 1040 L 842 721 L 1161 403 L 1038 276 L 721 596 L 397 276 L 276 401 Z" unicode="×" />
<glyph horiz-adv-x="1718" d="M 858 -25 C 732 -25 622 -10 526 20 L 467 -84 L 268 -84 L 369 92 C 179 213 84 436 84 760 C 84 1024 147 1220 275 1349 C 403 1477 597 1542 858 1542 C 974 1542 1079 1529 1171 1503 L 1229 1604 L 1425 1604 L 1329 1436 C 1531 1315 1632 1090 1632 760 C 1632 496 1568 299 1442 169 C 1315 39 1120 -25 858 -25 Z M 858 162 C 1054 162 1198 210 1292 306 C 1385 402 1432 552 1432 756 C 1432 880 1415 984 1381 1067 C 1347 1149 1295 1214 1223 1262 L 616 193 C 684 172 765 162 858 162 Z M 858 1350 C 662 1350 517 1301 425 1205 C 333 1108 287 958 287 756 C 287 520 349 356 475 262 L 1079 1324 C 1015 1341 942 1350 858 1350 Z" unicode="Ø" />
<glyph horiz-adv-x="1614" d="M 805 -27 C 693 -27 596 -15 515 7 C 434 29 368 63 316 108 C 264 152 226 210 200 282 C 174 353 162 445 162 557 L 162 1518 L 369 1518 L 369 582 C 369 476 383 395 413 339 C 442 282 489 239 553 211 C 617 182 702 168 807 168 C 913 168 999 182 1065 210 C 1130 238 1178 281 1208 339 C 1238 397 1253 478 1253 582 L 1253 1518 L 1454 1518 L 1454 557 C 1454 411 1430 296 1383 213 C 1335 130 1263 69 1167 31 C 1070 -7 949 -27 805 -27 Z M 428 1941 L 672 1941 L 975 1605 L 791 1605 L 428 1941 Z" unicode="Ù" />
<glyph horiz-adv-x="1614" d="M 934 1941 L 1178 1941 L 815 1605 L 631 1605 L 934 1941 Z M 805 -27 C 693 -27 596 -15 515 7 C 434 29 368 63 316 108 C 264 152 226 210 200 282 C 174 353 162 445 162 557 L 162 1518 L 369 1518 L 369 582 C 369 476 383 395 413 339 C 442 282 489 239 553 211 C 617 182 702 168 807 168 C 913 168 999 182 1065 210 C 1130 238 1178 281 1208 339 C 1238 397 1253 478 1253 582 L 1253 1518 L 1454 1518 L 1454 557 C 1454 411 1430 296 1383 213 C 1335 130 1263 69 1167 31 C 1070 -7 949 -27 805 -27 Z" unicode="Ú" />
<glyph horiz-adv-x="1614" d="M 695 1941 L 910 1941 L 1223 1605 L 1030 1605 L 799 1812 L 572 1605 L 381 1605 L 695 1941 Z M 805 -27 C 693 -27 596 -15 515 7 C 434 29 368 63 316 108 C 264 152 226 210 200 282 C 174 353 162 445 162 557 L 162 1518 L 369 1518 L 369 582 C 369 476 383 395 413 339 C 442 282 489 239 553 211 C 617 182 702 168 807 168 C 913 168 999 182 1065 210 C 1130 238 1178 281 1208 339 C 1238 397 1253 478 1253 582 L 1253 1518 L 1454 1518 L 1454 557 C 1454 411 1430 296 1383 213 C 1335 130 1263 69 1167 31 C 1070 -7 949 -27 805 -27 Z" unicode="Û" />
<glyph horiz-adv-x="1614" d="M 492 1841 L 674 1841 L 674 1612 L 492 1612 L 492 1841 Z M 934 1841 L 1114 1841 L 1114 1612 L 934 1612 L 934 1841 Z M 805 -27 C 693 -27 596 -15 515 7 C 434 29 368 63 316 108 C 264 152 226 210 200 282 C 174 353 162 445 162 557 L 162 1518 L 369 1518 L 369 582 C 369 476 383 395 413 339 C 442 282 489 239 553 211 C 617 182 702 168 807 168 C 913 168 999 182 1065 210 C 1130 238 1178 281 1208 339 C 1238 397 1253 478 1253 582 L 1253 1518 L 1454 1518 L 1454 557 C 1454 411 1430 296 1383 213 C 1335 130 1263 69 1167 31 C 1070 -7 949 -27 805 -27 Z" unicode="Ü" />
<glyph horiz-adv-x="1466" d="M 20 1518 L 246 1518 L 735 762 L 1229 1518 L 1444 1518 L 836 579 L 836 0 L 631 0 L 631 574 L 20 1518 Z M 860 1941 L 1104 1941 L 741 1605 L 557 1605 L 860 1941 Z" unicode="Ý" />
<glyph horiz-adv-x="1475" d="M 172 1518 L 375 1518 L 375 1282 L 854 1282 C 982 1282 1086 1265 1165 1233 C 1243 1201 1301 1151 1337 1084 C 1373 1016 1391 925 1391 809 C 1391 688 1372 593 1335 523 C 1297 453 1238 400 1158 365 C 1078 330 974 313 848 313 L 375 313 L 375 0 L 172 0 L 172 1518 Z M 854 504 C 974 504 1059 527 1109 573 C 1159 619 1184 695 1184 803 C 1184 909 1160 984 1112 1028 C 1064 1072 977 1094 850 1094 L 375 1094 L 375 504 L 854 504 Z" unicode="Þ" />
<glyph horiz-adv-x="1352" d="M 147 1098 C 147 1265 191 1390 281 1474 C 370 1557 501 1599 674 1599 C 842 1599 965 1565 1043 1498 C 1121 1430 1161 1330 1161 1198 C 1161 1101 1144 1023 1110 965 C 1076 906 1024 864 952 838 C 1064 817 1147 775 1200 713 C 1253 651 1280 560 1280 442 C 1280 323 1260 234 1222 174 C 1183 114 1121 70 1036 42 C 950 14 834 0 686 0 L 557 0 L 557 180 L 682 180 C 780 180 858 189 916 207 C 974 225 1016 253 1043 290 C 1069 326 1083 381 1083 455 C 1083 525 1068 578 1040 616 C 1012 653 966 680 904 697 C 842 714 756 723 647 723 L 647 889 C 756 889 836 909 888 951 C 939 993 965 1059 965 1149 C 965 1235 941 1298 894 1338 C 847 1377 773 1397 672 1397 C 453 1397 344 1294 344 1090 L 344 0 L 147 0 L 147 1098 Z" unicode="ß" />
<glyph horiz-adv-x="1284" d="M 487 -20 C 350 -20 248 7 181 61 C 113 115 80 203 80 324 C 80 432 102 516 147 574 C 192 632 267 675 371 701 C 475 727 628 741 831 741 L 892 741 C 890 810 881 860 863 891 C 845 921 816 944 776 958 C 736 972 680 979 608 979 C 546 979 486 970 428 952 C 369 934 317 911 272 883 L 168 1038 C 221 1074 290 1105 375 1129 C 459 1153 543 1165 627 1165 C 746 1165 838 1151 903 1125 C 968 1098 1015 1055 1043 996 C 1071 936 1085 841 1085 709 L 1085 303 C 1085 258 1087 228 1093 214 C 1099 199 1109 189 1124 184 C 1138 178 1163 176 1198 176 L 1198 2 C 1188 0 1160 -2 1116 -2 C 1056 -2 1012 7 984 26 C 956 45 936 79 922 127 C 884 74 829 36 759 14 C 689 -8 598 -20 487 -20 Z M 270 338 C 270 271 289 223 328 195 C 367 166 431 152 520 152 C 649 152 743 179 803 233 C 863 287 893 377 893 502 L 893 571 L 842 571 C 682 571 564 564 486 551 C 408 537 352 515 319 484 C 286 452 270 404 270 338 Z M 268 1591 L 512 1591 L 815 1255 L 631 1255 L 268 1591 Z" unicode="à" />
<glyph horiz-adv-x="1284" d="M 487 -20 C 350 -20 248 7 181 61 C 113 115 80 203 80 324 C 80 432 102 516 147 574 C 192 632 267 675 371 701 C 475 727 628 741 831 741 L 892 741 C 890 810 881 860 863 891 C 845 921 816 944 776 958 C 736 972 680 979 608 979 C 546 979 486 970 428 952 C 369 934 317 911 272 883 L 168 1038 C 221 1074 290 1105 375 1129 C 459 1153 543 1165 627 1165 C 746 1165 838 1151 903 1125 C 968 1098 1015 1055 1043 996 C 1071 936 1085 841 1085 709 L 1085 303 C 1085 258 1087 228 1093 214 C 1099 199 1109 189 1124 184 C 1138 178 1163 176 1198 176 L 1198 2 C 1188 0 1160 -2 1116 -2 C 1056 -2 1012 7 984 26 C 956 45 936 79 922 127 C 884 74 829 36 759 14 C 689 -8 598 -20 487 -20 Z M 270 338 C 270 271 289 223 328 195 C 367 166 431 152 520 152 C 649 152 743 179 803 233 C 863 287 893 377 893 502 L 893 571 L 842 571 C 682 571 564 564 486 551 C 408 537 352 515 319 484 C 286 452 270 404 270 338 Z M 774 1591 L 1018 1591 L 655 1255 L 471 1255 L 774 1591 Z" unicode="á" />
<glyph horiz-adv-x="1284" d="M 487 -20 C 350 -20 248 7 181 61 C 113 115 80 203 80 324 C 80 432 102 516 147 574 C 192 632 267 675 371 701 C 475 727 628 741 831 741 L 892 741 C 890 810 881 860 863 891 C 845 921 816 944 776 958 C 736 972 680 979 608 979 C 546 979 486 970 428 952 C 369 934 317 911 272 883 L 168 1038 C 221 1074 290 1105 375 1129 C 459 1153 543 1165 627 1165 C 746 1165 838 1151 903 1125 C 968 1098 1015 1055 1043 996 C 1071 936 1085 841 1085 709 L 1085 303 C 1085 258 1087 228 1093 214 C 1099 199 1109 189 1124 184 C 1138 178 1163 176 1198 176 L 1198 2 C 1188 0 1160 -2 1116 -2 C 1056 -2 1012 7 984 26 C 956 45 936 79 922 127 C 884 74 829 36 759 14 C 689 -8 598 -20 487 -20 Z M 270 338 C 270 271 289 223 328 195 C 367 166 431 152 520 152 C 649 152 743 179 803 233 C 863 287 893 377 893 502 L 893 571 L 842 571 C 682 571 564 564 486 551 C 408 537 352 515 319 484 C 286 452 270 404 270 338 Z M 535 1591 L 750 1591 L 1063 1255 L 870 1255 L 639 1462 L 412 1255 L 221 1255 L 535 1591 Z" unicode="â" />
<glyph horiz-adv-x="1284" d="M 487 -20 C 350 -20 248 7 181 61 C 113 115 80 203 80 324 C 80 432 102 516 147 574 C 192 632 267 675 371 701 C 475 727 628 741 831 741 L 892 741 C 890 810 881 860 863 891 C 845 921 816 944 776 958 C 736 972 680 979 608 979 C 546 979 486 970 428 952 C 369 934 317 911 272 883 L 168 1038 C 221 1074 290 1105 375 1129 C 459 1153 543 1165 627 1165 C 746 1165 838 1151 903 1125 C 968 1098 1015 1055 1043 996 C 1071 936 1085 841 1085 709 L 1085 303 C 1085 258 1087 228 1093 214 C 1099 199 1109 189 1124 184 C 1138 178 1163 176 1198 176 L 1198 2 C 1188 0 1160 -2 1116 -2 C 1056 -2 1012 7 984 26 C 956 45 936 79 922 127 C 884 74 829 36 759 14 C 689 -8 598 -20 487 -20 Z M 270 338 C 270 271 289 223 328 195 C 367 166 431 152 520 152 C 649 152 743 179 803 233 C 863 287 893 377 893 502 L 893 571 L 842 571 C 682 571 564 564 486 551 C 408 537 352 515 319 484 C 286 452 270 404 270 338 Z M 223 1356 C 267 1410 313 1452 361 1482 C 409 1511 454 1526 498 1526 C 533 1526 563 1520 588 1510 C 612 1499 635 1487 655 1474 C 675 1461 695 1449 715 1439 C 734 1428 756 1423 782 1423 C 826 1423 881 1460 946 1536 L 1063 1442 C 965 1318 873 1257 787 1257 C 755 1257 726 1262 702 1273 C 678 1283 655 1295 633 1308 C 611 1321 590 1333 570 1344 C 549 1354 526 1360 502 1360 C 478 1360 453 1351 425 1334 C 397 1317 371 1292 346 1260 L 223 1356 Z" unicode="ã" />
<glyph horiz-adv-x="1284" d="M 487 -20 C 350 -20 248 7 181 61 C 113 115 80 203 80 324 C 80 432 102 516 147 574 C 192 632 267 675 371 701 C 475 727 628 741 831 741 L 892 741 C 890 810 881 860 863 891 C 845 921 816 944 776 958 C 736 972 680 979 608 979 C 546 979 486 970 428 952 C 369 934 317 911 272 883 L 168 1038 C 221 1074 290 1105 375 1129 C 459 1153 543 1165 627 1165 C 746 1165 838 1151 903 1125 C 968 1098 1015 1055 1043 996 C 1071 936 1085 841 1085 709 L 1085 303 C 1085 258 1087 228 1093 214 C 1099 199 1109 189 1124 184 C 1138 178 1163 176 1198 176 L 1198 2 C 1188 0 1160 -2 1116 -2 C 1056 -2 1012 7 984 26 C 956 45 936 79 922 127 C 884 74 829 36 759 14 C 689 -8 598 -20 487 -20 Z M 270 338 C 270 271 289 223 328 195 C 367 166 431 152 520 152 C 649 152 743 179 803 233 C 863 287 893 377 893 502 L 893 571 L 842 571 C 682 571 564 564 486 551 C 408 537 352 515 319 484 C 286 452 270 404 270 338 Z M 332 1491 L 514 1491 L 514 1262 L 332 1262 L 332 1491 Z M 774 1491 L 954 1491 L 954 1262 L 774 1262 L 774 1491 Z" unicode="ä" />
<glyph horiz-adv-x="1284" d="M 487 -20 C 350 -20 248 7 181 61 C 113 115 80 203 80 324 C 80 432 102 516 147 574 C 192 632 267 675 371 701 C 475 727 628 741 831 741 L 892 741 C 890 810 881 860 863 891 C 845 921 816 944 776 958 C 736 972 680 979 608 979 C 546 979 486 970 428 952 C 369 934 317 911 272 883 L 168 1038 C 221 1074 290 1105 375 1129 C 459 1153 543 1165 627 1165 C 746 1165 838 1151 903 1125 C 968 1098 1015 1055 1043 996 C 1071 936 1085 841 1085 709 L 1085 303 C 1085 258 1087 228 1093 214 C 1099 199 1109 189 1124 184 C 1138 178 1163 176 1198 176 L 1198 2 C 1188 0 1160 -2 1116 -2 C 1056 -2 1012 7 984 26 C 956 45 936 79 922 127 C 884 74 829 36 759 14 C 689 -8 598 -20 487 -20 Z M 270 338 C 270 271 289 223 328 195 C 367 166 431 152 520 152 C 649 152 743 179 803 233 C 863 287 893 377 893 502 L 893 571 L 842 571 C 682 571 564 564 486 551 C 408 537 352 515 319 484 C 286 452 270 404 270 338 Z M 643 1231 C 561 1231 498 1253 453 1299 C 407 1345 385 1410 385 1495 C 385 1581 407 1647 452 1693 C 496 1739 560 1763 643 1763 C 723 1763 786 1739 831 1691 C 876 1643 899 1578 899 1495 C 899 1413 876 1348 831 1301 C 785 1254 723 1231 643 1231 Z M 643 1341 C 690 1341 726 1354 751 1382 C 776 1410 789 1447 789 1495 C 789 1542 776 1579 751 1607 C 726 1635 690 1649 643 1649 C 595 1649 559 1635 534 1609 C 508 1582 496 1544 496 1495 C 496 1446 508 1408 533 1381 C 558 1354 595 1341 643 1341 Z" unicode="å" />
<glyph horiz-adv-x="2019" d="M 1444 -23 C 1224 -23 1074 35 994 153 L 974 185 C 932 110 875 57 804 26 C 732 -4 628 -20 492 -20 C 349 -20 245 7 179 62 C 113 117 80 204 80 324 C 80 431 103 514 150 573 C 196 632 271 675 375 701 C 479 727 631 741 831 741 L 892 741 C 890 810 881 860 863 891 C 845 921 816 944 776 958 C 736 972 680 979 608 979 C 487 979 374 947 268 885 L 168 1038 C 221 1074 290 1105 375 1129 C 459 1153 543 1165 627 1165 C 737 1165 822 1152 883 1126 C 944 1100 987 1061 1012 1009 C 1096 1113 1238 1165 1438 1165 C 1602 1165 1722 1126 1799 1049 C 1876 971 1916 843 1918 664 L 1918 608 L 1917 494 L 1077 494 C 1082 406 1097 338 1123 292 C 1149 246 1187 210 1239 186 C 1290 162 1358 150 1444 150 C 1516 150 1579 158 1634 174 C 1688 190 1745 219 1804 262 L 1913 123 C 1842 69 1770 31 1698 9 C 1626 -12 1541 -23 1444 -23 Z M 270 338 C 270 271 289 223 328 195 C 367 166 432 152 522 152 C 651 152 745 179 804 234 C 863 289 893 378 893 502 L 893 571 L 842 571 C 690 571 573 564 493 552 C 413 539 355 517 321 486 C 287 455 270 406 270 338 Z M 1729 668 C 1725 764 1713 832 1694 871 C 1674 909 1644 939 1603 959 C 1562 979 1506 989 1434 989 C 1353 989 1288 977 1239 953 C 1189 929 1152 895 1126 850 C 1100 805 1085 744 1079 668 L 1729 668 Z" unicode="æ" />
<glyph horiz-adv-x="1165" d="M 597 -475 C 503 -475 421 -454 350 -414 L 405 -309 C 465 -340 526 -356 589 -356 C 641 -356 680 -348 705 -333 C 730 -318 743 -292 743 -256 C 743 -219 730 -195 705 -185 C 680 -174 645 -169 601 -169 L 554 -170 L 505 -135 L 534 14 L 655 14 L 636 -90 L 667 -89 C 723 -89 764 -95 792 -107 C 820 -119 841 -138 857 -164 C 872 -189 880 -224 880 -268 C 880 -337 857 -389 811 -423 C 765 -457 693 -475 597 -475 Z M 647 -20 C 458 -20 318 26 228 118 C 137 210 92 361 92 571 C 92 715 111 829 151 913 C 190 997 251 1060 334 1102 C 417 1144 524 1165 655 1165 C 836 1165 977 1108 1079 995 L 934 858 C 895 898 853 928 808 946 C 762 964 711 973 655 973 C 529 973 438 941 380 878 C 322 814 293 711 293 567 C 293 420 322 315 380 252 C 438 189 529 158 655 158 C 712 158 763 167 809 185 C 855 203 900 233 944 274 L 1077 147 C 1009 84 943 40 877 16 C 811 -7 735 -20 647 -20 Z" unicode="ç" />
<glyph horiz-adv-x="1229" d="M 651 -23 C 524 -23 419 -3 337 36 C 254 76 192 138 152 223 C 112 307 92 423 92 571 C 92 713 111 826 151 910 C 190 994 250 1057 332 1100 C 413 1143 518 1165 647 1165 C 725 1165 792 1156 847 1139 C 901 1121 947 1097 983 1066 C 1019 1034 1047 997 1067 953 C 1087 909 1102 858 1112 800 C 1122 742 1127 666 1127 570 L 1126 494 L 285 494 C 290 406 305 338 331 292 C 357 246 395 210 447 186 C 498 162 566 150 651 150 C 723 150 787 158 843 174 C 898 190 955 219 1014 262 L 1120 123 C 1052 70 982 32 908 10 C 834 -11 748 -23 651 -23 Z M 938 670 C 933 741 927 791 920 819 C 913 847 903 871 890 892 C 876 913 859 931 838 945 C 816 959 789 970 757 978 C 724 985 685 989 641 989 C 539 989 459 968 403 927 C 347 886 311 823 296 737 L 287 670 L 938 670 Z M 235 1591 L 479 1591 L 782 1255 L 598 1255 L 235 1591 Z" unicode="è" />
<glyph horiz-adv-x="1229" d="M 741 1591 L 985 1591 L 622 1255 L 438 1255 L 741 1591 Z M 651 -23 C 524 -23 419 -3 337 36 C 254 76 192 138 152 223 C 112 307 92 423 92 571 C 92 713 111 826 151 910 C 190 994 250 1057 332 1100 C 413 1143 518 1165 647 1165 C 725 1165 792 1156 847 1139 C 901 1121 947 1097 983 1066 C 1019 1034 1047 997 1067 953 C 1087 909 1102 858 1112 800 C 1122 742 1127 666 1127 570 L 1126 494 L 285 494 C 290 406 305 338 331 292 C 357 246 395 210 447 186 C 498 162 566 150 651 150 C 723 150 787 158 843 174 C 898 190 955 219 1014 262 L 1120 123 C 1052 70 982 32 908 10 C 834 -11 748 -23 651 -23 Z M 938 670 C 933 741 927 791 920 819 C 913 847 903 871 890 892 C 876 913 859 931 838 945 C 816 959 789 970 757 978 C 724 985 685 989 641 989 C 539 989 459 968 403 927 C 347 886 311 823 296 737 L 287 670 L 938 670 Z" unicode="é" />
<glyph horiz-adv-x="1229" d="M 502 1591 L 717 1591 L 1030 1255 L 837 1255 L 606 1462 L 379 1255 L 188 1255 L 502 1591 Z M 651 -23 C 524 -23 419 -3 337 36 C 254 76 192 138 152 223 C 112 307 92 423 92 571 C 92 713 111 826 151 910 C 190 994 250 1057 332 1100 C 413 1143 518 1165 647 1165 C 725 1165 792 1156 847 1139 C 901 1121 947 1097 983 1066 C 1019 1034 1047 997 1067 953 C 1087 909 1102 858 1112 800 C 1122 742 1127 666 1127 570 L 1126 494 L 285 494 C 290 406 305 338 331 292 C 357 246 395 210 447 186 C 498 162 566 150 651 150 C 723 150 787 158 843 174 C 898 190 955 219 1014 262 L 1120 123 C 1052 70 982 32 908 10 C 834 -11 748 -23 651 -23 Z M 938 670 C 933 741 927 791 920 819 C 913 847 903 871 890 892 C 876 913 859 931 838 945 C 816 959 789 970 757 978 C 724 985 685 989 641 989 C 539 989 459 968 403 927 C 347 886 311 823 296 737 L 287 670 L 938 670 Z" unicode="ê" />
<glyph horiz-adv-x="1229" d="M 299 1491 L 481 1491 L 481 1262 L 299 1262 L 299 1491 Z M 741 1491 L 921 1491 L 921 1262 L 741 1262 L 741 1491 Z M 651 -23 C 524 -23 419 -3 337 36 C 254 76 192 138 152 223 C 112 307 92 423 92 571 C 92 713 111 826 151 910 C 190 994 250 1057 332 1100 C 413 1143 518 1165 647 1165 C 725 1165 792 1156 847 1139 C 901 1121 947 1097 983 1066 C 1019 1034 1047 997 1067 953 C 1087 909 1102 858 1112 800 C 1122 742 1127 666 1127 570 L 1126 494 L 285 494 C 290 406 305 338 331 292 C 357 246 395 210 447 186 C 498 162 566 150 651 150 C 723 150 787 158 843 174 C 898 190 955 219 1014 262 L 1120 123 C 1052 70 982 32 908 10 C 834 -11 748 -23 651 -23 Z M 938 670 C 933 741 927 791 920 819 C 913 847 903 871 890 892 C 876 913 859 931 838 945 C 816 959 789 970 757 978 C 724 985 685 989 641 989 C 539 989 459 968 403 927 C 347 886 311 823 296 737 L 287 670 L 938 670 Z" unicode="ë" />
<glyph horiz-adv-x="516" d="M -109 1587 L 133 1587 L 356 1255 L 172 1255 L -109 1587 Z M 160 1139 L 356 1139 L 356 0 L 160 0 L 160 1139 Z" unicode="ì" />
<glyph horiz-adv-x="516" d="M 383 1587 L 627 1587 L 346 1255 L 164 1255 L 383 1587 Z M 160 1139 L 356 1139 L 356 0 L 160 0 L 160 1139 Z" unicode="í" />
<glyph horiz-adv-x="516" d="M 156 1587 L 358 1587 L 608 1255 L 418 1255 L 256 1464 L 90 1255 L -92 1255 L 156 1587 Z M 160 1139 L 356 1139 L 356 0 L 160 0 L 160 1139 Z" unicode="î" />
<glyph horiz-adv-x="516" d="M -18 1505 L 145 1505 L 145 1278 L -18 1278 L -18 1505 Z M 373 1505 L 537 1505 L 537 1278 L 373 1278 L 373 1505 Z M 160 1139 L 356 1139 L 356 0 L 160 0 L 160 1139 Z" unicode="ï" />
<glyph horiz-adv-x="1309" d="M 604 1352 L 757 1391 C 714 1439 665 1488 610 1538 L 795 1616 C 855 1566 910 1511 962 1449 L 966 1444 L 1245 1516 L 1245 1372 L 1049 1322 C 1161 1134 1217 892 1217 598 C 1217 382 1171 225 1081 126 C 990 26 847 -23 651 -23 C 463 -23 322 23 230 117 C 138 211 92 354 92 547 C 92 739 134 882 218 976 C 302 1069 429 1116 600 1116 C 691 1116 766 1107 826 1089 C 886 1071 935 1041 973 999 C 951 1091 911 1181 852 1269 L 850 1272 L 604 1210 L 604 1352 Z M 651 158 C 777 158 869 189 927 252 C 985 315 1014 415 1014 551 C 1014 689 984 789 926 850 C 867 911 775 942 651 942 C 527 942 436 910 379 848 C 321 785 293 686 293 551 C 293 416 321 317 379 253 C 437 189 527 158 651 158 Z" unicode="ð" />
<glyph horiz-adv-x="1294" d="M 147 1128 L 305 1139 L 322 1030 C 356 1077 409 1111 479 1133 C 549 1154 636 1165 741 1165 C 842 1165 922 1149 982 1119 C 1041 1089 1084 1043 1111 981 C 1137 919 1151 824 1151 694 L 1151 0 L 952 0 L 952 655 C 952 750 943 817 926 855 C 909 893 881 921 842 940 C 802 959 748 969 678 969 C 598 969 535 957 487 934 C 439 911 403 877 381 832 C 359 786 348 719 348 631 L 348 0 L 147 0 L 147 1128 Z M 223 1356 C 267 1410 313 1452 361 1482 C 409 1511 454 1526 498 1526 C 533 1526 563 1520 588 1510 C 612 1499 635 1487 655 1474 C 675 1461 695 1449 715 1439 C 734 1428 756 1423 782 1423 C 826 1423 881 1460 946 1536 L 1063 1442 C 965 1318 873 1257 787 1257 C 755 1257 726 1262 702 1273 C 678 1283 655 1295 633 1308 C 611 1321 590 1333 570 1344 C 549 1354 526 1360 502 1360 C 478 1360 453 1351 425 1334 C 397 1317 371 1292 346 1260 L 223 1356 Z" unicode="ñ" />
<glyph horiz-adv-x="1309" d="M 653 -23 C 461 -23 319 24 228 120 C 137 216 92 366 92 571 C 92 775 137 925 228 1021 C 318 1117 460 1165 653 1165 C 847 1165 989 1117 1080 1021 C 1171 925 1217 775 1217 571 C 1217 367 1171 217 1080 121 C 989 25 847 -23 653 -23 Z M 653 158 C 777 158 868 190 926 254 C 984 318 1014 423 1014 567 C 1014 709 984 813 926 878 C 868 942 777 975 653 975 C 529 975 438 942 380 878 C 322 813 293 709 293 567 C 293 423 322 318 380 254 C 438 190 529 158 653 158 Z M 276 1591 L 520 1591 L 823 1255 L 639 1255 L 276 1591 Z" unicode="ò" />
<glyph horiz-adv-x="1309" d="M 782 1591 L 1026 1591 L 663 1255 L 479 1255 L 782 1591 Z M 653 -23 C 461 -23 319 24 228 120 C 137 216 92 366 92 571 C 92 775 137 925 228 1021 C 318 1117 460 1165 653 1165 C 847 1165 989 1117 1080 1021 C 1171 925 1217 775 1217 571 C 1217 367 1171 217 1080 121 C 989 25 847 -23 653 -23 Z M 653 158 C 777 158 868 190 926 254 C 984 318 1014 423 1014 567 C 1014 709 984 813 926 878 C 868 942 777 975 653 975 C 529 975 438 942 380 878 C 322 813 293 709 293 567 C 293 423 322 318 380 254 C 438 190 529 158 653 158 Z" unicode="ó" />
<glyph horiz-adv-x="1309" d="M 543 1591 L 758 1591 L 1071 1255 L 878 1255 L 647 1462 L 420 1255 L 229 1255 L 543 1591 Z M 653 -23 C 461 -23 319 24 228 120 C 137 216 92 366 92 571 C 92 775 137 925 228 1021 C 318 1117 460 1165 653 1165 C 847 1165 989 1117 1080 1021 C 1171 925 1217 775 1217 571 C 1217 367 1171 217 1080 121 C 989 25 847 -23 653 -23 Z M 653 158 C 777 158 868 190 926 254 C 984 318 1014 423 1014 567 C 1014 709 984 813 926 878 C 868 942 777 975 653 975 C 529 975 438 942 380 878 C 322 813 293 709 293 567 C 293 423 322 318 380 254 C 438 190 529 158 653 158 Z" unicode="ô" />
<glyph horiz-adv-x="1309" d="M 653 -23 C 461 -23 319 24 228 120 C 137 216 92 366 92 571 C 92 775 137 925 228 1021 C 318 1117 460 1165 653 1165 C 847 1165 989 1117 1080 1021 C 1171 925 1217 775 1217 571 C 1217 367 1171 217 1080 121 C 989 25 847 -23 653 -23 Z M 653 158 C 777 158 868 190 926 254 C 984 318 1014 423 1014 567 C 1014 709 984 813 926 878 C 868 942 777 975 653 975 C 529 975 438 942 380 878 C 322 813 293 709 293 567 C 293 423 322 318 380 254 C 438 190 529 158 653 158 Z M 231 1356 C 275 1410 321 1452 369 1482 C 417 1511 462 1526 506 1526 C 541 1526 571 1520 596 1510 C 620 1499 643 1487 663 1474 C 683 1461 703 1449 723 1439 C 742 1428 764 1423 790 1423 C 834 1423 889 1460 954 1536 L 1071 1442 C 973 1318 881 1257 795 1257 C 763 1257 734 1262 710 1273 C 686 1283 663 1295 641 1308 C 619 1321 598 1333 578 1344 C 557 1354 534 1360 510 1360 C 486 1360 461 1351 433 1334 C 405 1317 379 1292 354 1260 L 231 1356 Z" unicode="õ" />
<glyph horiz-adv-x="1309" d="M 340 1491 L 522 1491 L 522 1262 L 340 1262 L 340 1491 Z M 782 1491 L 962 1491 L 962 1262 L 782 1262 L 782 1491 Z M 653 -23 C 461 -23 319 24 228 120 C 137 216 92 366 92 571 C 92 775 137 925 228 1021 C 318 1117 460 1165 653 1165 C 847 1165 989 1117 1080 1021 C 1171 925 1217 775 1217 571 C 1217 367 1171 217 1080 121 C 989 25 847 -23 653 -23 Z M 653 158 C 777 158 868 190 926 254 C 984 318 1014 423 1014 567 C 1014 709 984 813 926 878 C 868 942 777 975 653 975 C 529 975 438 942 380 878 C 322 813 293 709 293 567 C 293 423 322 318 380 254 C 438 190 529 158 653 158 Z" unicode="ö" />
<glyph horiz-adv-x="1440" d="M 608 420 L 831 420 L 831 205 L 608 205 L 608 420 Z M 211 817 L 1229 817 L 1229 627 L 211 627 L 211 817 Z M 608 1241 L 831 1241 L 831 1026 L 608 1026 L 608 1241 Z" unicode="÷" />
<glyph horiz-adv-x="1309" d="M 653 -23 C 559 -23 478 -12 410 8 L 352 -86 L 170 -86 L 270 80 C 208 128 162 193 134 274 C 106 354 92 453 92 571 C 92 777 136 928 226 1023 C 316 1117 458 1165 653 1165 C 747 1165 828 1154 896 1133 L 954 1229 L 1137 1229 L 1039 1061 C 1103 1009 1148 943 1176 863 C 1203 783 1217 686 1217 571 C 1217 363 1171 212 1081 118 C 990 24 847 -23 653 -23 Z M 653 154 C 777 154 869 186 929 251 C 988 315 1018 421 1018 567 C 1018 635 1011 695 998 747 C 985 799 960 845 924 887 L 500 174 C 542 160 593 154 653 154 Z M 653 979 C 529 979 437 946 378 882 C 318 817 289 712 289 567 C 289 487 297 419 314 365 C 331 310 353 271 381 248 L 801 959 C 759 972 709 979 653 979 Z" unicode="ø" />
<glyph horiz-adv-x="1280" d="M 643 -20 C 517 -20 418 -5 346 25 C 273 55 221 103 189 171 C 157 238 141 343 141 487 L 141 1139 L 340 1139 L 340 483 C 340 437 341 395 345 356 C 348 317 359 283 378 255 C 397 226 427 203 468 187 C 509 170 567 162 643 162 C 700 162 748 167 787 177 C 825 187 856 202 879 222 C 901 242 918 269 928 304 C 938 338 944 400 944 489 L 944 1139 L 1139 1139 L 1139 494 C 1139 348 1123 241 1093 173 C 1062 105 1011 56 940 26 C 868 -4 769 -20 643 -20 Z M 262 1591 L 506 1591 L 809 1255 L 625 1255 L 262 1591 Z" unicode="ù" />
<glyph horiz-adv-x="1280" d="M 768 1591 L 1012 1591 L 649 1255 L 465 1255 L 768 1591 Z M 643 -20 C 517 -20 418 -5 346 25 C 273 55 221 103 189 171 C 157 238 141 343 141 487 L 141 1139 L 340 1139 L 340 483 C 340 437 341 395 345 356 C 348 317 359 283 378 255 C 397 226 427 203 468 187 C 509 170 567 162 643 162 C 700 162 748 167 787 177 C 825 187 856 202 879 222 C 901 242 918 269 928 304 C 938 338 944 400 944 489 L 944 1139 L 1139 1139 L 1139 494 C 1139 348 1123 241 1093 173 C 1062 105 1011 56 940 26 C 868 -4 769 -20 643 -20 Z" unicode="ú" />
<glyph horiz-adv-x="1280" d="M 529 1591 L 744 1591 L 1057 1255 L 864 1255 L 633 1462 L 406 1255 L 215 1255 L 529 1591 Z M 643 -20 C 517 -20 418 -5 346 25 C 273 55 221 103 189 171 C 157 238 141 343 141 487 L 141 1139 L 340 1139 L 340 483 C 340 437 341 395 345 356 C 348 317 359 283 378 255 C 397 226 427 203 468 187 C 509 170 567 162 643 162 C 700 162 748 167 787 177 C 825 187 856 202 879 222 C 901 242 918 269 928 304 C 938 338 944 400 944 489 L 944 1139 L 1139 1139 L 1139 494 C 1139 348 1123 241 1093 173 C 1062 105 1011 56 940 26 C 868 -4 769 -20 643 -20 Z" unicode="û" />
<glyph horiz-adv-x="1280" d="M 326 1491 L 508 1491 L 508 1262 L 326 1262 L 326 1491 Z M 768 1491 L 948 1491 L 948 1262 L 768 1262 L 768 1491 Z M 643 -20 C 517 -20 418 -5 346 25 C 273 55 221 103 189 171 C 157 238 141 343 141 487 L 141 1139 L 340 1139 L 340 483 C 340 437 341 395 345 356 C 348 317 359 283 378 255 C 397 226 427 203 468 187 C 509 170 567 162 643 162 C 700 162 748 167 787 177 C 825 187 856 202 879 222 C 901 242 918 269 928 304 C 938 338 944 400 944 489 L 944 1139 L 1139 1139 L 1139 494 C 1139 348 1123 241 1093 173 C 1062 105 1011 56 940 26 C 868 -4 769 -20 643 -20 Z" unicode="ü" />
<glyph horiz-adv-x="1114" d="M 14 1139 L 227 1139 L 562 250 L 893 1139 L 1102 1139 L 618 -96 C 585 -186 542 -250 489 -288 C 436 -325 360 -344 262 -344 L 211 -344 L 158 -342 L 158 -180 L 246 -180 C 304 -180 344 -172 368 -157 C 392 -141 410 -114 422 -76 L 456 13 L 14 1139 Z M 693 1591 L 937 1591 L 574 1255 L 390 1255 L 693 1591 Z" unicode="ý" />
<glyph horiz-adv-x="1343" d="M 147 1589 L 346 1589 L 346 1026 C 377 1073 425 1108 490 1131 C 555 1153 646 1165 764 1165 C 877 1165 969 1143 1041 1100 C 1113 1057 1166 993 1200 909 C 1234 824 1251 711 1251 571 C 1251 365 1210 215 1129 121 C 1048 27 924 -20 756 -20 C 644 -20 556 -9 492 11 C 428 32 380 68 348 119 L 348 -338 L 147 -338 L 147 1589 Z M 721 162 C 833 162 916 192 969 254 C 1022 316 1049 419 1049 565 C 1049 712 1022 817 970 880 C 917 943 834 975 721 975 C 585 975 488 943 432 881 C 376 819 348 713 348 565 C 348 415 375 310 431 251 C 487 191 583 162 721 162 Z" unicode="þ" />
<glyph horiz-adv-x="1114" d="M 14 1139 L 227 1139 L 562 250 L 893 1139 L 1102 1139 L 618 -96 C 585 -186 542 -250 489 -288 C 436 -325 360 -344 262 -344 L 211 -344 L 158 -342 L 158 -180 L 246 -180 C 304 -180 344 -172 368 -157 C 392 -141 410 -114 422 -76 L 456 13 L 14 1139 Z M 251 1491 L 433 1491 L 433 1262 L 251 1262 L 251 1491 Z M 693 1491 L 873 1491 L 873 1262 L 693 1262 L 693 1491 Z" unicode="ÿ" />
<glyph horiz-adv-x="1520" d="M 653 1528 L 864 1528 L 1473 0 L 1260 0 L 1135 319 L 377 319 L 252 0 L 45 0 L 653 1528 Z M 1061 510 L 754 1280 L 446 510 L 1061 510 Z M 371 1763 L 1141 1763 L 1141 1593 L 371 1593 L 371 1763 Z" unicode="Ā" />
<glyph horiz-adv-x="1284" d="M 487 -20 C 350 -20 248 7 181 61 C 113 115 80 203 80 324 C 80 432 102 516 147 574 C 192 632 267 675 371 701 C 475 727 628 741 831 741 L 892 741 C 890 810 881 860 863 891 C 845 921 816 944 776 958 C 736 972 680 979 608 979 C 546 979 486 970 428 952 C 369 934 317 911 272 883 L 168 1038 C 221 1074 290 1105 375 1129 C 459 1153 543 1165 627 1165 C 746 1165 838 1151 903 1125 C 968 1098 1015 1055 1043 996 C 1071 936 1085 841 1085 709 L 1085 303 C 1085 258 1087 228 1093 214 C 1099 199 1109 189 1124 184 C 1138 178 1163 176 1198 176 L 1198 2 C 1188 0 1160 -2 1116 -2 C 1056 -2 1012 7 984 26 C 956 45 936 79 922 127 C 884 74 829 36 759 14 C 689 -8 598 -20 487 -20 Z M 270 338 C 270 271 289 223 328 195 C 367 166 431 152 520 152 C 649 152 743 179 803 233 C 863 287 893 377 893 502 L 893 571 L 842 571 C 682 571 564 564 486 551 C 408 537 352 515 319 484 C 286 452 270 404 270 338 Z M 258 1413 L 1028 1413 L 1028 1243 L 258 1243 L 258 1413 Z" unicode="ā" />
<glyph horiz-adv-x="1520" d="M 653 1528 L 864 1528 L 1473 0 L 1260 0 L 1135 319 L 377 319 L 252 0 L 45 0 L 653 1528 Z M 1061 510 L 754 1280 L 446 510 L 1061 510 Z M 756 1583 C 677 1583 611 1594 559 1617 C 506 1640 464 1674 432 1720 C 400 1765 376 1830 359 1915 L 506 1945 C 522 1871 550 1819 589 1790 C 627 1761 683 1747 756 1747 C 828 1747 883 1761 922 1790 C 961 1819 989 1871 1006 1945 L 1156 1917 C 1138 1833 1113 1768 1081 1722 C 1049 1676 1006 1641 953 1618 C 900 1594 834 1583 756 1583 Z" unicode="Ă" />
<glyph horiz-adv-x="1284" d="M 487 -20 C 350 -20 248 7 181 61 C 113 115 80 203 80 324 C 80 432 102 516 147 574 C 192 632 267 675 371 701 C 475 727 628 741 831 741 L 892 741 C 890 810 881 860 863 891 C 845 921 816 944 776 958 C 736 972 680 979 608 979 C 546 979 486 970 428 952 C 369 934 317 911 272 883 L 168 1038 C 221 1074 290 1105 375 1129 C 459 1153 543 1165 627 1165 C 746 1165 838 1151 903 1125 C 968 1098 1015 1055 1043 996 C 1071 936 1085 841 1085 709 L 1085 303 C 1085 258 1087 228 1093 214 C 1099 199 1109 189 1124 184 C 1138 178 1163 176 1198 176 L 1198 2 C 1188 0 1160 -2 1116 -2 C 1056 -2 1012 7 984 26 C 956 45 936 79 922 127 C 884 74 829 36 759 14 C 689 -8 598 -20 487 -20 Z M 270 338 C 270 271 289 223 328 195 C 367 166 431 152 520 152 C 649 152 743 179 803 233 C 863 287 893 377 893 502 L 893 571 L 842 571 C 682 571 564 564 486 551 C 408 537 352 515 319 484 C 286 452 270 404 270 338 Z M 643 1233 C 564 1233 498 1244 446 1267 C 393 1290 351 1324 319 1370 C 287 1415 263 1480 246 1565 L 393 1595 C 409 1521 437 1469 476 1440 C 514 1411 570 1397 643 1397 C 715 1397 770 1411 809 1440 C 848 1469 876 1521 893 1595 L 1043 1567 C 1025 1483 1000 1418 968 1372 C 936 1326 893 1291 840 1268 C 787 1244 721 1233 643 1233 Z" unicode="ă" />
<glyph horiz-adv-x="1520" d="M 653 1528 L 864 1528 L 1473 0 L 1409 0 C 1346 -38 1299 -75 1269 -113 C 1238 -151 1223 -186 1223 -219 C 1223 -253 1233 -278 1254 -293 C 1274 -307 1304 -315 1343 -315 C 1390 -315 1439 -307 1491 -291 L 1536 -412 C 1478 -440 1406 -455 1319 -455 C 1231 -455 1165 -438 1123 -405 C 1080 -372 1059 -320 1059 -250 C 1059 -197 1076 -146 1111 -96 C 1145 -46 1191 -5 1249 27 L 1135 319 L 377 319 L 252 0 L 45 0 L 653 1528 Z M 1061 510 L 754 1280 L 446 510 L 1061 510 Z" unicode="Ą" />
<glyph horiz-adv-x="1284" d="M 487 -20 C 350 -20 248 7 181 61 C 113 115 80 203 80 324 C 80 432 102 516 147 574 C 192 632 267 675 371 701 C 475 727 628 741 831 741 L 893 741 C 891 811 881 862 863 892 C 845 922 816 944 777 958 C 737 972 681 979 608 979 C 546 979 486 970 428 952 C 369 934 317 911 272 883 L 168 1038 C 221 1074 290 1105 375 1129 C 459 1153 543 1165 627 1165 C 746 1165 838 1151 903 1125 C 968 1098 1015 1055 1043 996 C 1071 936 1085 841 1085 709 L 1085 303 C 1085 258 1087 228 1093 214 C 1099 199 1109 189 1124 184 C 1138 178 1163 176 1198 176 L 1198 2 C 1056 -79 985 -153 985 -219 C 985 -253 995 -278 1017 -293 C 1038 -307 1070 -315 1112 -315 C 1169 -315 1220 -306 1264 -289 L 1313 -410 C 1250 -440 1175 -455 1087 -455 C 997 -455 930 -438 887 -406 C 844 -374 823 -322 823 -250 C 823 -200 840 -151 875 -104 C 909 -57 956 -18 1014 12 C 967 28 936 67 922 127 C 884 74 829 36 759 14 C 689 -8 598 -20 487 -20 Z M 520 152 C 649 152 743 179 803 233 C 863 287 893 377 893 502 L 893 571 L 842 571 C 684 571 566 564 488 551 C 410 538 354 516 320 485 C 286 453 270 404 270 338 C 270 271 289 223 328 195 C 367 166 431 152 520 152 Z" unicode="ą" />
<glyph horiz-adv-x="1497" d="M 876 1941 L 1120 1941 L 757 1605 L 573 1605 L 876 1941 Z M 842 -23 C 586 -23 396 41 271 170 C 146 299 84 496 84 760 C 84 1017 148 1212 278 1344 C 407 1476 598 1542 852 1542 C 1081 1542 1264 1475 1401 1343 L 1251 1194 C 1143 1293 1010 1343 850 1343 C 478 1343 293 1148 293 758 C 293 559 339 412 431 316 C 523 220 663 172 852 172 C 912 172 965 177 1013 188 C 1061 199 1103 215 1141 235 C 1178 255 1219 286 1264 328 L 1411 186 C 1335 110 1252 57 1160 25 C 1068 -7 962 -23 842 -23 Z" unicode="Ć" />
<glyph horiz-adv-x="1165" d="M 718 1591 L 962 1591 L 599 1255 L 415 1255 L 718 1591 Z M 647 -20 C 458 -20 318 26 228 118 C 137 210 92 361 92 571 C 92 715 111 829 151 913 C 190 997 251 1060 334 1102 C 417 1144 524 1165 655 1165 C 836 1165 977 1108 1079 995 L 934 858 C 895 898 853 928 808 946 C 762 964 711 973 655 973 C 529 973 438 941 380 878 C 322 814 293 711 293 567 C 293 420 322 315 380 252 C 438 189 529 158 655 158 C 712 158 763 167 809 185 C 855 203 900 233 944 274 L 1077 147 C 1009 84 943 40 877 16 C 811 -7 735 -20 647 -20 Z" unicode="ć" />
<glyph horiz-adv-x="1497" d="M 323 1941 L 518 1941 L 747 1734 L 977 1941 L 1165 1941 L 852 1605 L 637 1605 L 323 1941 Z M 842 -23 C 586 -23 396 41 271 170 C 146 299 84 496 84 760 C 84 1017 148 1212 278 1344 C 407 1476 598 1542 852 1542 C 1081 1542 1264 1475 1401 1343 L 1251 1194 C 1143 1293 1010 1343 850 1343 C 478 1343 293 1148 293 758 C 293 559 339 412 431 316 C 523 220 663 172 852 172 C 912 172 965 177 1013 188 C 1061 199 1103 215 1141 235 C 1178 255 1219 286 1264 328 L 1411 186 C 1335 110 1252 57 1160 25 C 1068 -7 962 -23 842 -23 Z" unicode="Č" />
<glyph horiz-adv-x="1165" d="M 165 1591 L 360 1591 L 589 1384 L 819 1591 L 1007 1591 L 694 1255 L 479 1255 L 165 1591 Z M 647 -20 C 458 -20 318 26 228 118 C 137 210 92 361 92 571 C 92 715 111 829 151 913 C 190 997 251 1060 334 1102 C 417 1144 524 1165 655 1165 C 836 1165 977 1108 1079 995 L 934 858 C 895 898 853 928 808 946 C 762 964 711 973 655 973 C 529 973 438 941 380 878 C 322 814 293 711 293 567 C 293 420 322 315 380 252 C 438 189 529 158 655 158 C 712 158 763 167 809 185 C 855 203 900 233 944 274 L 1077 147 C 1009 84 943 40 877 16 C 811 -7 735 -20 647 -20 Z" unicode="č" />
<glyph horiz-adv-x="1559" d="M 354 1941 L 549 1941 L 778 1734 L 1008 1941 L 1196 1941 L 883 1605 L 668 1605 L 354 1941 Z M 172 1518 L 680 1518 C 888 1518 1048 1494 1159 1446 C 1270 1398 1351 1321 1401 1213 C 1451 1105 1477 954 1477 760 C 1477 570 1450 420 1396 311 C 1342 202 1258 123 1143 74 C 1027 24 865 0 657 0 L 172 0 L 172 1518 Z M 668 190 C 821 190 940 208 1026 244 C 1111 280 1173 338 1211 418 C 1249 498 1268 612 1268 760 C 1268 914 1250 1030 1215 1106 C 1180 1182 1122 1236 1041 1270 C 960 1304 840 1321 682 1321 L 379 1321 L 379 190 L 668 190 Z" unicode="Ď" />
<glyph horiz-adv-x="1581" d="M 1346 1212 C 1396 1239 1428 1262 1442 1281 C 1455 1300 1462 1327 1462 1362 L 1362 1362 L 1362 1589 L 1575 1589 L 1575 1421 C 1575 1333 1563 1269 1539 1231 C 1515 1192 1467 1156 1395 1122 L 1346 1212 Z M 582 -20 C 415 -20 292 27 212 122 C 132 217 92 368 92 575 C 92 778 132 927 214 1021 C 295 1115 420 1163 588 1163 C 699 1163 787 1152 852 1131 C 916 1110 964 1075 995 1026 L 995 1589 L 1196 1589 L 1196 8 L 1042 -6 L 1020 127 C 983 75 930 37 862 14 C 793 -8 700 -20 582 -20 Z M 625 162 C 759 162 855 193 911 256 C 967 319 995 425 995 575 C 995 724 967 828 912 888 C 857 947 761 977 625 977 C 511 977 427 946 374 885 C 321 824 295 721 295 575 C 295 426 321 320 374 257 C 426 193 510 162 625 162 Z" unicode="ď" />
<glyph horiz-adv-x="1559" d="M 0 866 L 172 866 L 172 1518 L 680 1518 C 888 1518 1048 1494 1159 1446 C 1270 1398 1351 1321 1401 1213 C 1451 1105 1477 954 1477 760 C 1477 572 1450 424 1396 315 C 1342 205 1257 125 1143 75 C 1028 25 866 0 657 0 L 172 0 L 172 694 L 0 694 L 0 866 Z M 668 190 C 821 190 940 208 1026 244 C 1111 280 1173 338 1211 418 C 1249 498 1268 612 1268 760 C 1268 914 1250 1030 1215 1106 C 1180 1182 1122 1236 1041 1270 C 960 1304 840 1321 682 1321 L 379 1321 L 379 866 L 707 866 L 707 694 L 379 694 L 379 190 L 668 190 Z" unicode="Đ" />
<glyph horiz-adv-x="1343" d="M 582 -20 C 415 -20 292 27 212 122 C 132 217 92 368 92 575 C 92 778 132 927 214 1021 C 295 1115 420 1163 588 1163 C 699 1163 787 1152 852 1131 C 916 1110 964 1075 995 1026 L 995 1260 L 684 1260 L 684 1434 L 995 1434 L 995 1589 L 1196 1589 L 1196 1434 L 1343 1434 L 1343 1260 L 1196 1260 L 1196 8 L 1042 -6 L 1020 127 C 983 75 930 37 862 14 C 793 -8 700 -20 582 -20 Z M 625 162 C 759 162 855 193 911 256 C 967 319 995 425 995 575 C 995 724 967 828 912 888 C 857 947 761 977 625 977 C 511 977 427 946 374 885 C 321 824 295 721 295 575 C 295 426 321 320 374 257 C 426 193 510 162 625 162 Z" unicode="đ" />
<glyph horiz-adv-x="1335" d="M 172 1518 L 1210 1518 L 1210 1319 L 379 1319 L 379 883 L 1190 883 L 1190 686 L 379 686 L 379 190 L 1219 190 L 1219 0 L 172 0 L 172 1518 Z M 278 1763 L 1048 1763 L 1048 1593 L 278 1593 L 278 1763 Z" unicode="Ē" />
<glyph horiz-adv-x="1229" d="M 651 -23 C 524 -23 419 -3 337 36 C 254 76 192 138 152 223 C 112 307 92 423 92 571 C 92 713 111 826 151 910 C 190 994 250 1057 332 1100 C 413 1143 518 1165 647 1165 C 725 1165 792 1156 847 1139 C 901 1121 947 1097 983 1066 C 1019 1034 1047 997 1067 953 C 1087 909 1102 858 1112 800 C 1122 742 1127 666 1127 570 L 1126 494 L 285 494 C 290 406 305 338 331 292 C 357 246 395 210 447 186 C 498 162 566 150 651 150 C 723 150 787 158 843 174 C 898 190 955 219 1014 262 L 1120 123 C 1052 70 982 32 908 10 C 834 -11 748 -23 651 -23 Z M 938 670 C 933 741 927 791 920 819 C 913 847 903 871 890 892 C 876 913 859 931 838 945 C 816 959 789 970 757 978 C 724 985 685 989 641 989 C 539 989 459 968 403 927 C 347 886 311 823 296 737 L 287 670 L 938 670 Z M 225 1413 L 995 1413 L 995 1243 L 225 1243 L 225 1413 Z" unicode="ē" />
<glyph horiz-adv-x="1335" d="M 172 1518 L 1210 1518 L 1210 1319 L 379 1319 L 379 883 L 1190 883 L 1190 686 L 379 686 L 379 190 L 1219 190 L 1219 0 L 172 0 L 172 1518 Z M 563 1841 L 764 1841 L 764 1603 L 563 1603 L 563 1841 Z" unicode="Ė" />
<glyph horiz-adv-x="1229" d="M 651 -23 C 524 -23 419 -3 337 36 C 254 76 192 138 152 223 C 112 307 92 423 92 571 C 92 713 111 826 151 910 C 190 994 250 1057 332 1100 C 413 1143 518 1165 647 1165 C 725 1165 792 1156 847 1139 C 901 1121 947 1097 983 1066 C 1019 1034 1047 997 1067 953 C 1087 909 1102 858 1112 800 C 1122 742 1127 666 1127 570 L 1126 494 L 285 494 C 290 406 305 338 331 292 C 357 246 395 210 447 186 C 498 162 566 150 651 150 C 723 150 787 158 843 174 C 898 190 955 219 1014 262 L 1120 123 C 1052 70 982 32 908 10 C 834 -11 748 -23 651 -23 Z M 938 670 C 933 741 927 791 920 819 C 913 847 903 871 890 892 C 876 913 859 931 838 945 C 816 959 789 970 757 978 C 724 985 685 989 641 989 C 539 989 459 968 403 927 C 347 886 311 823 296 737 L 287 670 L 938 670 Z M 510 1491 L 711 1491 L 711 1253 L 510 1253 L 510 1491 Z" unicode="ė" />
<glyph horiz-adv-x="1335" d="M 172 1518 L 1210 1518 L 1210 1319 L 379 1319 L 379 883 L 1190 883 L 1190 686 L 379 686 L 379 190 L 1219 190 L 1219 0 L 1053 0 C 993 -37 947 -75 917 -113 C 887 -151 872 -187 872 -219 C 872 -254 882 -279 903 -293 C 924 -307 956 -315 999 -315 C 1028 -315 1059 -311 1091 -305 C 1123 -299 1152 -290 1176 -279 L 1225 -399 C 1193 -415 1155 -429 1111 -439 C 1066 -449 1021 -455 975 -455 C 885 -455 819 -439 775 -407 C 731 -375 709 -324 709 -252 C 709 -208 722 -164 749 -120 C 775 -76 816 -36 870 0 L 172 0 L 172 1518 Z" unicode="Ę" />
<glyph horiz-adv-x="1229" d="M 651 -23 C 524 -23 419 -3 337 36 C 254 76 192 138 152 223 C 112 307 92 423 92 571 C 92 713 111 826 151 910 C 190 994 250 1057 332 1100 C 413 1143 518 1165 647 1165 C 725 1165 792 1156 847 1139 C 901 1121 947 1097 983 1066 C 1019 1034 1047 997 1067 953 C 1087 909 1102 858 1112 800 C 1122 742 1127 666 1127 570 L 1126 494 L 285 494 C 291 370 324 282 382 229 C 440 176 529 150 651 150 C 723 150 787 158 843 174 C 898 190 955 219 1014 262 L 1120 123 C 1054 73 988 37 922 14 C 852 -24 800 -63 766 -105 C 732 -147 715 -185 715 -219 C 715 -255 725 -280 746 -294 C 767 -308 799 -315 842 -315 C 870 -315 901 -311 934 -305 C 967 -298 995 -289 1018 -279 L 1067 -399 C 995 -436 912 -455 817 -455 C 727 -455 661 -439 617 -407 C 573 -375 551 -324 551 -252 C 551 -210 562 -169 585 -130 C 608 -90 640 -55 682 -23 L 651 -23 Z M 641 989 C 529 989 444 964 387 915 C 329 866 296 784 287 670 L 938 670 C 933 741 927 791 920 819 C 913 847 903 871 890 892 C 876 913 859 931 838 945 C 816 959 789 970 757 978 C 724 985 685 989 641 989 Z" unicode="ę" />
<glyph horiz-adv-x="1335" d="M 241 1941 L 436 1941 L 665 1734 L 895 1941 L 1083 1941 L 770 1605 L 555 1605 L 241 1941 Z M 172 1518 L 1210 1518 L 1210 1319 L 379 1319 L 379 883 L 1190 883 L 1190 686 L 379 686 L 379 190 L 1219 190 L 1219 0 L 172 0 L 172 1518 Z" unicode="Ě" />
<glyph horiz-adv-x="1229" d="M 188 1591 L 383 1591 L 612 1384 L 842 1591 L 1030 1591 L 717 1255 L 502 1255 L 188 1591 Z M 651 -23 C 524 -23 419 -3 337 36 C 254 76 192 138 152 223 C 112 307 92 423 92 571 C 92 713 111 826 151 910 C 190 994 250 1057 332 1100 C 413 1143 518 1165 647 1165 C 725 1165 792 1156 847 1139 C 901 1121 947 1097 983 1066 C 1019 1034 1047 997 1067 953 C 1087 909 1102 858 1112 800 C 1122 742 1127 666 1127 570 L 1126 494 L 285 494 C 290 406 305 338 331 292 C 357 246 395 210 447 186 C 498 162 566 150 651 150 C 723 150 787 158 843 174 C 898 190 955 219 1014 262 L 1120 123 C 1052 70 982 32 908 10 C 834 -11 748 -23 651 -23 Z M 938 670 C 933 741 927 791 920 819 C 913 847 903 871 890 892 C 876 913 859 931 838 945 C 816 959 789 970 757 978 C 724 985 685 989 641 989 C 539 989 459 968 403 927 C 347 886 311 823 296 737 L 287 670 L 938 670 Z" unicode="ě" />
<glyph horiz-adv-x="1604" d="M 840 -23 C 578 -23 386 38 265 162 C 144 286 84 485 84 760 C 84 1022 147 1218 274 1348 C 401 1477 593 1542 850 1542 C 1098 1542 1288 1476 1419 1346 L 1272 1194 C 1210 1248 1146 1286 1078 1309 C 1010 1331 934 1343 850 1343 C 660 1343 520 1294 428 1198 C 336 1102 291 955 291 758 C 291 545 335 392 423 300 C 511 208 652 162 848 162 C 962 162 1052 176 1120 205 C 1188 234 1237 279 1268 341 C 1299 403 1315 494 1315 614 L 1315 657 L 825 657 L 825 842 L 1520 842 L 1520 651 C 1520 476 1496 342 1448 248 C 1400 154 1327 85 1228 42 C 1128 -1 999 -23 840 -23 Z M 799 1583 C 720 1583 654 1594 602 1617 C 549 1640 507 1674 475 1720 C 443 1765 419 1830 402 1915 L 549 1945 C 565 1871 593 1819 632 1790 C 670 1761 726 1747 799 1747 C 871 1747 926 1761 965 1790 C 1004 1819 1032 1871 1049 1945 L 1199 1917 C 1181 1833 1156 1768 1124 1722 C 1092 1676 1049 1641 996 1618 C 943 1594 877 1583 799 1583 Z" unicode="Ğ" />
<glyph horiz-adv-x="1251" d="M 604 416 C 533 416 471 421 417 431 C 398 407 389 383 389 360 C 389 329 402 308 428 298 C 454 288 517 283 616 283 C 762 283 875 273 953 255 C 1031 236 1087 205 1122 163 C 1156 121 1174 60 1174 -18 C 1174 -103 1154 -171 1114 -221 C 1074 -271 1013 -307 931 -331 C 848 -355 737 -367 598 -367 C 450 -367 340 -358 266 -340 C 192 -322 139 -293 105 -253 C 71 -213 55 -156 55 -84 C 55 72 127 165 272 195 C 230 223 209 269 209 332 C 209 387 226 439 260 488 C 211 520 176 560 154 608 C 132 656 121 714 121 782 C 121 913 160 1010 239 1072 C 317 1134 439 1165 604 1165 L 674 1162 L 1126 1227 L 1126 1063 L 943 1063 C 1041 1011 1090 918 1090 782 C 1090 656 1051 563 973 504 C 895 445 772 416 604 416 Z M 604 -209 C 693 -209 765 -203 819 -191 C 873 -179 912 -160 936 -136 C 960 -112 973 -76 973 -29 C 973 10 962 39 941 59 C 920 79 885 93 835 102 C 785 110 708 115 604 115 C 518 115 449 109 399 98 C 349 87 312 71 290 49 C 267 27 256 -6 256 -51 C 256 -109 281 -150 333 -174 C 384 -197 474 -209 604 -209 Z M 604 580 C 708 580 783 596 827 628 C 871 660 893 711 893 782 C 893 855 869 907 822 938 C 774 969 702 985 604 985 C 497 985 422 969 378 937 C 334 905 313 854 313 782 C 313 711 335 660 379 628 C 423 596 498 580 604 580 Z M 622 1233 C 543 1233 477 1244 425 1267 C 372 1290 330 1324 298 1370 C 266 1415 242 1480 225 1565 L 372 1595 C 388 1521 416 1469 455 1440 C 493 1411 549 1397 622 1397 C 694 1397 749 1411 788 1440 C 827 1469 855 1521 872 1595 L 1022 1567 C 1004 1483 979 1418 947 1372 C 915 1326 872 1291 819 1268 C 766 1244 700 1233 622 1233 Z" unicode="ğ" />
<glyph horiz-adv-x="3289" d="M 514 569 C 372 569 265 610 193 694 C 120 777 84 897 84 1055 C 84 1213 120 1333 194 1417 C 267 1500 374 1542 514 1542 C 652 1542 758 1500 830 1416 C 902 1332 938 1211 938 1055 C 938 899 902 779 831 695 C 759 611 654 569 514 569 Z M 514 729 C 678 729 760 837 760 1055 C 760 1269 678 1376 514 1376 C 347 1376 264 1269 264 1055 C 264 837 347 729 514 729 Z M 1833 -20 C 1693 -20 1587 21 1515 105 C 1443 189 1407 309 1407 467 C 1407 624 1443 744 1517 828 C 1590 912 1695 954 1833 954 C 1970 954 2076 912 2150 828 C 2224 744 2261 624 2261 467 C 2261 309 2224 188 2152 105 C 2079 21 1973 -20 1833 -20 Z M 1833 139 C 1997 139 2079 248 2079 467 C 2079 575 2058 656 2017 708 C 1976 760 1915 786 1833 786 C 1669 786 1587 679 1587 467 C 1587 248 1669 139 1833 139 Z M 2779 -20 C 2638 -20 2531 21 2459 105 C 2387 189 2351 309 2351 467 C 2351 624 2387 744 2461 828 C 2534 912 2640 954 2779 954 C 2915 954 3020 912 3094 828 C 3168 744 3205 624 3205 467 C 3205 309 3168 188 3095 105 C 3022 21 2917 -20 2779 -20 Z M 2779 139 C 2943 139 3025 248 3025 467 C 3025 679 2943 786 2779 786 C 2613 786 2531 679 2531 467 C 2531 248 2613 139 2779 139 Z M 1501 1520 L 1690 1520 L 842 0 L 653 0 L 1501 1520 Z" unicode="‰" />
<glyph horiz-adv-x="1604" d="M 682 -457 C 727 -434 757 -413 773 -394 C 789 -374 797 -345 797 -307 L 688 -307 L 688 -80 L 912 -80 L 912 -250 C 912 -313 906 -361 896 -393 C 886 -425 868 -453 844 -476 C 819 -499 781 -523 731 -547 L 682 -457 Z M 840 -23 C 578 -23 386 38 265 162 C 144 286 84 485 84 760 C 84 1022 147 1218 274 1348 C 401 1477 593 1542 850 1542 C 1098 1542 1288 1476 1419 1346 L 1272 1194 C 1210 1248 1146 1286 1078 1309 C 1010 1331 934 1343 850 1343 C 660 1343 520 1294 428 1198 C 336 1102 291 955 291 758 C 291 545 335 392 423 300 C 511 208 652 162 848 162 C 962 162 1052 176 1120 205 C 1188 234 1237 279 1268 341 C 1299 403 1315 494 1315 614 L 1315 657 L 825 657 L 825 842 L 1520 842 L 1520 651 C 1520 476 1496 342 1448 248 C 1400 154 1327 85 1228 42 C 1128 -1 999 -23 840 -23 Z" unicode="Ģ" />
<glyph horiz-adv-x="1251" d="M 512 1405 C 512 1469 517 1517 527 1549 C 537 1581 555 1608 580 1632 C 605 1656 643 1680 695 1704 L 742 1614 C 694 1589 663 1567 649 1549 C 634 1530 627 1501 627 1462 L 736 1462 L 736 1253 L 512 1253 L 512 1405 Z M 604 416 C 533 416 471 421 417 431 C 398 407 389 383 389 360 C 389 329 402 308 428 298 C 454 288 517 283 616 283 C 762 283 875 273 953 255 C 1031 236 1087 205 1122 163 C 1156 121 1174 60 1174 -18 C 1174 -103 1154 -171 1114 -221 C 1074 -271 1013 -307 931 -331 C 848 -355 737 -367 598 -367 C 450 -367 340 -358 266 -340 C 192 -322 139 -293 105 -253 C 71 -213 55 -156 55 -84 C 55 72 127 165 272 195 C 230 223 209 269 209 332 C 209 387 226 439 260 488 C 211 520 176 560 154 608 C 132 656 121 714 121 782 C 121 913 160 1010 239 1072 C 317 1134 439 1165 604 1165 L 674 1162 L 1126 1227 L 1126 1063 L 943 1063 C 1041 1011 1090 918 1090 782 C 1090 656 1051 563 973 504 C 895 445 772 416 604 416 Z M 604 -209 C 693 -209 765 -203 819 -191 C 873 -179 912 -160 936 -136 C 960 -112 973 -76 973 -29 C 973 10 962 39 941 59 C 920 79 885 93 835 102 C 785 110 708 115 604 115 C 518 115 449 109 399 98 C 349 87 312 71 290 49 C 267 27 256 -6 256 -51 C 256 -109 281 -150 333 -174 C 384 -197 474 -209 604 -209 Z M 604 580 C 708 580 783 596 827 628 C 871 660 893 711 893 782 C 893 855 869 907 822 938 C 774 969 702 985 604 985 C 497 985 422 969 378 937 C 334 905 313 854 313 782 C 313 711 335 660 379 628 C 423 596 498 580 604 580 Z" unicode="ģ" />
<glyph horiz-adv-x="1664" d="" unicode="Ω" />
<glyph horiz-adv-x="582" d="M 188 1518 L 393 1518 L 393 0 L 188 0 L 188 1518 Z M -89 1763 L 681 1763 L 681 1593 L -89 1593 L -89 1763 Z" unicode="Ī" />
<glyph horiz-adv-x="516" d="M 160 1139 L 356 1139 L 356 0 L 160 0 L 160 1139 Z M -122 1413 L 648 1413 L 648 1243 L -122 1243 L -122 1413 Z" unicode="ī" />
<glyph horiz-adv-x="582" d="M 291 -455 C 204 -455 139 -438 96 -405 C 52 -372 31 -320 31 -250 C 31 -195 45 -144 75 -98 C 104 -52 142 -15 188 12 L 188 1518 L 393 1518 L 393 0 C 262 -76 197 -149 197 -219 C 197 -253 207 -278 228 -293 C 248 -307 278 -315 317 -315 C 371 -315 423 -305 473 -287 L 522 -408 C 456 -439 379 -455 291 -455 Z" unicode="Į" />
<glyph horiz-adv-x="516" d="M 254 -455 C 167 -455 102 -438 59 -405 C 15 -372 -6 -320 -6 -250 C -6 -198 8 -150 37 -104 C 66 -58 107 -19 160 12 L 160 1139 L 356 1139 L 356 0 C 225 -76 160 -149 160 -219 C 160 -253 170 -278 191 -293 C 211 -307 241 -315 281 -315 C 335 -315 386 -305 436 -287 L 485 -408 C 417 -439 340 -455 254 -455 Z M 158 1518 L 358 1518 L 358 1276 L 158 1276 L 158 1518 Z" unicode="į" />
<glyph horiz-adv-x="582" d="M 188 1518 L 393 1518 L 393 0 L 188 0 L 188 1518 Z M 196 1841 L 397 1841 L 397 1603 L 196 1603 L 196 1841 Z" unicode="İ" />
<glyph horiz-adv-x="516" d="M 160 1139 L 356 1139 L 356 0 L 160 0 L 160 1139 Z" unicode="ı" />
<glyph horiz-adv-x="1473" d="M 616 -457 C 661 -434 691 -413 707 -394 C 723 -374 731 -345 731 -307 L 622 -307 L 622 -80 L 846 -80 L 846 -250 C 846 -313 840 -361 830 -393 C 820 -425 802 -453 778 -476 C 753 -499 715 -523 665 -547 L 616 -457 Z M 172 1518 L 375 1518 L 375 721 L 1090 1518 L 1327 1518 L 791 920 L 1401 0 L 1165 0 L 655 768 L 375 455 L 375 0 L 172 0 L 172 1518 Z" unicode="Ķ" />
<glyph horiz-adv-x="1143" d="M 450 -457 C 495 -434 525 -413 541 -394 C 557 -374 565 -345 565 -307 L 456 -307 L 456 -80 L 680 -80 L 680 -250 C 680 -313 674 -361 664 -393 C 654 -425 636 -453 612 -476 C 587 -499 549 -523 499 -547 L 450 -457 Z M 147 1589 L 344 1589 L 344 554 L 848 1139 L 1069 1139 L 665 666 L 1110 0 L 889 0 L 533 521 L 344 306 L 344 0 L 147 0 L 147 1589 Z" unicode="ķ" />
<glyph horiz-adv-x="1219" d="M 492 1941 L 736 1941 L 373 1605 L 189 1605 L 492 1941 Z M 172 1518 L 379 1518 L 379 190 L 1169 190 L 1169 0 L 172 0 L 172 1518 Z" unicode="Ĺ" />
<glyph horiz-adv-x="625" d="M 466 1997 L 710 1997 L 347 1661 L 163 1661 L 466 1997 Z M 416 -2 C 322 -2 255 19 217 63 C 179 107 160 184 160 295 L 160 1589 L 356 1589 L 356 317 C 356 258 364 220 382 202 C 400 184 433 176 483 176 L 528 176 L 528 2 C 509 0 472 -2 416 -2 Z" unicode="ĺ" />
<glyph horiz-adv-x="1219" d="M 487 -457 C 532 -434 562 -413 578 -394 C 594 -374 602 -345 602 -307 L 493 -307 L 493 -80 L 717 -80 L 717 -250 C 717 -313 711 -361 701 -393 C 691 -425 673 -453 649 -476 C 624 -499 586 -523 536 -547 L 487 -457 Z M 172 1518 L 379 1518 L 379 190 L 1169 190 L 1169 0 L 172 0 L 172 1518 Z" unicode="Ļ" />
<glyph horiz-adv-x="625" d="M 192 -457 C 237 -434 267 -413 283 -394 C 299 -374 307 -345 307 -307 L 198 -307 L 198 -80 L 422 -80 L 422 -250 C 422 -313 416 -361 406 -393 C 396 -425 378 -453 354 -476 C 329 -499 291 -523 241 -547 L 192 -457 Z M 416 -2 C 322 -2 255 19 217 63 C 179 107 160 184 160 295 L 160 1589 L 356 1589 L 356 317 C 356 258 364 220 382 202 C 400 184 433 176 483 176 L 528 176 L 528 2 C 509 0 472 -2 416 -2 Z" unicode="ļ" />
<glyph horiz-adv-x="1219" d="M 569 1212 C 619 1239 651 1262 664 1281 C 677 1300 684 1327 684 1362 L 584 1362 L 584 1589 L 797 1589 L 797 1421 C 797 1357 792 1309 782 1277 C 772 1244 755 1216 731 1194 C 707 1171 668 1147 616 1122 L 569 1212 Z M 172 1518 L 379 1518 L 379 190 L 1169 190 L 1169 0 L 172 0 L 172 1518 Z" unicode="Ľ" />
<glyph horiz-adv-x="754" d="M 518 1212 C 568 1240 600 1264 613 1282 C 626 1300 633 1327 633 1362 L 532 1362 L 532 1589 L 745 1589 L 745 1421 C 745 1333 733 1269 709 1231 C 685 1192 637 1156 565 1122 L 518 1212 Z M 416 -2 C 322 -2 255 19 217 63 C 179 107 160 184 160 295 L 160 1589 L 356 1589 L 356 317 C 356 258 364 220 382 202 C 400 184 433 176 483 176 L 528 176 L 528 2 C 509 0 472 -2 416 -2 Z" unicode="ľ" />
<glyph horiz-adv-x="1219" d="M 0 776 L 172 872 L 172 1518 L 379 1518 L 379 987 L 705 1169 L 705 991 L 379 809 L 379 190 L 1169 190 L 1169 0 L 172 0 L 172 694 L 0 598 L 0 776 Z" unicode="Ł" />
<glyph horiz-adv-x="752" d="M 47 932 L 244 1046 L 244 1589 L 444 1589 L 444 1162 L 662 1288 L 662 1116 L 444 990 L 444 311 C 444 251 452 213 468 195 C 484 177 517 168 567 168 L 614 168 L 614 2 C 595 0 558 -2 502 -2 C 408 -2 341 20 302 64 C 263 108 244 183 244 291 L 244 875 L 47 762 L 47 932 Z" unicode="ł" />
<glyph horiz-adv-x="1620" d="M 936 1941 L 1180 1941 L 817 1605 L 633 1605 L 936 1941 Z M 172 1518 L 397 1518 L 1247 348 L 1247 1518 L 1448 1518 L 1448 0 L 1257 0 L 373 1214 L 373 0 L 172 0 L 172 1518 Z" unicode="Ń" />
<glyph horiz-adv-x="1294" d="M 774 1591 L 1018 1591 L 655 1255 L 471 1255 L 774 1591 Z M 147 1128 L 305 1139 L 322 1030 C 356 1077 409 1111 479 1133 C 549 1154 636 1165 741 1165 C 842 1165 922 1149 982 1119 C 1041 1089 1084 1043 1111 981 C 1137 919 1151 824 1151 694 L 1151 0 L 952 0 L 952 655 C 952 750 943 817 926 855 C 909 893 881 921 842 940 C 802 959 748 969 678 969 C 598 969 535 957 487 934 C 439 911 403 877 381 832 C 359 786 348 719 348 631 L 348 0 L 147 0 L 147 1128 Z" unicode="ń" />
<glyph horiz-adv-x="1620" d="M 688 -457 C 733 -434 763 -413 779 -394 C 795 -374 803 -345 803 -307 L 694 -307 L 694 -80 L 918 -80 L 918 -250 C 918 -313 912 -361 902 -393 C 892 -425 874 -453 850 -476 C 825 -499 787 -523 737 -547 L 688 -457 Z M 172 1518 L 397 1518 L 1247 348 L 1247 1518 L 1448 1518 L 1448 0 L 1257 0 L 373 1214 L 373 0 L 172 0 L 172 1518 Z" unicode="Ņ" />
<glyph horiz-adv-x="1294" d="M 524 -457 C 569 -434 599 -413 615 -394 C 631 -374 639 -345 639 -307 L 530 -307 L 530 -80 L 754 -80 L 754 -250 C 754 -313 748 -361 738 -393 C 728 -425 710 -453 686 -476 C 661 -499 623 -523 573 -547 L 524 -457 Z M 147 1128 L 305 1139 L 322 1030 C 356 1077 409 1111 479 1133 C 549 1154 636 1165 741 1165 C 842 1165 922 1149 982 1119 C 1041 1089 1084 1043 1111 981 C 1137 919 1151 824 1151 694 L 1151 0 L 952 0 L 952 655 C 952 750 943 817 926 855 C 909 893 881 921 842 940 C 802 959 748 969 678 969 C 598 969 535 957 487 934 C 439 911 403 877 381 832 C 359 786 348 719 348 631 L 348 0 L 147 0 L 147 1128 Z" unicode="ņ" />
<glyph horiz-adv-x="1620" d="M 383 1941 L 578 1941 L 807 1734 L 1037 1941 L 1225 1941 L 912 1605 L 697 1605 L 383 1941 Z M 172 1518 L 397 1518 L 1247 348 L 1247 1518 L 1448 1518 L 1448 0 L 1257 0 L 373 1214 L 373 0 L 172 0 L 172 1518 Z" unicode="Ň" />
<glyph horiz-adv-x="1294" d="M 221 1591 L 416 1591 L 645 1384 L 875 1591 L 1063 1591 L 750 1255 L 535 1255 L 221 1591 Z M 147 1128 L 305 1139 L 322 1030 C 356 1077 409 1111 479 1133 C 549 1154 636 1165 741 1165 C 842 1165 922 1149 982 1119 C 1041 1089 1084 1043 1111 981 C 1137 919 1151 824 1151 694 L 1151 0 L 952 0 L 952 655 C 952 750 943 817 926 855 C 909 893 881 921 842 940 C 802 959 748 969 678 969 C 598 969 535 957 487 934 C 439 911 403 877 381 832 C 359 786 348 719 348 631 L 348 0 L 147 0 L 147 1128 Z" unicode="ň" />
<glyph horiz-adv-x="1718" d="M 471 1763 L 1241 1763 L 1241 1593 L 471 1593 L 471 1763 Z M 858 -25 C 342 -25 84 236 84 760 C 84 1281 342 1542 858 1542 C 1374 1542 1632 1281 1632 760 C 1632 236 1374 -25 858 -25 Z M 858 168 C 1236 168 1425 364 1425 756 C 1425 1147 1236 1343 858 1343 C 668 1343 526 1294 433 1197 C 339 1100 293 953 293 756 C 293 558 340 410 434 313 C 528 216 669 168 858 168 Z" unicode="Ō" />
<glyph horiz-adv-x="1309" d="M 266 1413 L 1036 1413 L 1036 1243 L 266 1243 L 266 1413 Z M 653 -23 C 461 -23 319 24 228 120 C 137 216 92 366 92 571 C 92 775 137 925 228 1021 C 318 1117 460 1165 653 1165 C 847 1165 989 1117 1080 1021 C 1171 925 1217 775 1217 571 C 1217 367 1171 217 1080 121 C 989 25 847 -23 653 -23 Z M 653 158 C 777 158 868 190 926 254 C 984 318 1014 423 1014 567 C 1014 709 984 813 926 878 C 868 942 777 975 653 975 C 529 975 438 942 380 878 C 322 813 293 709 293 567 C 293 423 322 318 380 254 C 438 190 529 158 653 158 Z" unicode="ō" />
<glyph horiz-adv-x="1718" d="M 707 1937 L 940 1937 L 621 1605 L 449 1605 L 707 1937 Z M 1194 1937 L 1426 1937 L 1110 1605 L 936 1605 L 1194 1937 Z M 858 -25 C 342 -25 84 236 84 760 C 84 1281 342 1542 858 1542 C 1374 1542 1632 1281 1632 760 C 1632 236 1374 -25 858 -25 Z M 858 168 C 1236 168 1425 364 1425 756 C 1425 1147 1236 1343 858 1343 C 668 1343 526 1294 433 1197 C 339 1100 293 953 293 756 C 293 558 340 410 434 313 C 528 216 669 168 858 168 Z" unicode="Ő" />
<glyph horiz-adv-x="1309" d="M 502 1587 L 735 1587 L 416 1255 L 244 1255 L 502 1587 Z M 989 1587 L 1221 1587 L 905 1255 L 731 1255 L 989 1587 Z M 653 -23 C 461 -23 319 24 228 120 C 137 216 92 366 92 571 C 92 775 137 925 228 1021 C 318 1117 460 1165 653 1165 C 847 1165 989 1117 1080 1021 C 1171 925 1217 775 1217 571 C 1217 367 1171 217 1080 121 C 989 25 847 -23 653 -23 Z M 653 158 C 777 158 868 190 926 254 C 984 318 1014 423 1014 567 C 1014 709 984 813 926 878 C 868 942 777 975 653 975 C 529 975 438 942 380 878 C 322 813 293 709 293 567 C 293 423 322 318 380 254 C 438 190 529 158 653 158 Z" unicode="ő" />
<glyph horiz-adv-x="2583" d="M 1438 1518 L 2458 1518 L 2458 1319 L 1626 1319 L 1626 879 L 2437 879 L 2437 688 L 1626 688 L 1626 190 L 2466 190 L 2466 0 L 1438 0 L 1438 201 C 1375 123 1296 66 1200 30 C 1104 -6 990 -25 858 -25 C 596 -25 402 39 275 168 C 147 297 84 494 84 760 C 84 1024 147 1220 275 1349 C 403 1477 597 1542 858 1542 C 991 1542 1105 1523 1201 1487 C 1297 1450 1376 1393 1438 1317 L 1438 1518 Z M 858 168 C 1050 168 1192 215 1285 310 C 1378 405 1425 554 1425 756 C 1425 956 1379 1103 1287 1199 C 1195 1295 1052 1343 858 1343 C 664 1343 522 1295 430 1199 C 338 1103 293 956 293 756 C 293 555 339 407 431 311 C 523 215 666 168 858 168 Z" unicode="Œ" />
<glyph horiz-adv-x="2150" d="M 1573 -23 C 1355 -23 1205 35 1125 153 L 1111 175 C 1030 43 877 -23 653 -23 C 459 -23 317 24 227 119 C 137 213 92 364 92 571 C 92 777 136 928 226 1023 C 316 1117 458 1165 653 1165 C 767 1165 861 1148 936 1115 C 1011 1081 1070 1031 1113 964 C 1191 1098 1343 1165 1569 1165 C 1731 1165 1851 1126 1928 1050 C 2005 973 2045 844 2049 664 L 2049 591 L 2048 494 L 1208 494 C 1213 406 1228 338 1254 292 C 1279 246 1317 210 1368 186 C 1418 162 1487 150 1573 150 C 1645 150 1709 157 1764 173 C 1818 189 1875 218 1935 262 L 2044 123 C 1973 69 1901 31 1829 9 C 1757 -12 1671 -23 1573 -23 Z M 653 158 C 777 158 868 190 926 254 C 984 318 1014 423 1014 567 C 1014 709 984 813 926 878 C 868 942 777 975 653 975 C 529 975 438 942 380 878 C 322 813 293 709 293 567 C 293 423 322 318 380 254 C 438 190 529 158 653 158 Z M 1860 668 C 1854 767 1841 835 1822 873 C 1802 910 1772 939 1732 959 C 1691 979 1635 989 1563 989 C 1483 989 1418 977 1370 954 C 1321 930 1284 896 1258 852 C 1232 807 1216 746 1210 668 L 1860 668 Z" unicode="œ" />
<glyph horiz-adv-x="1499" d="M 876 1941 L 1120 1941 L 757 1605 L 573 1605 L 876 1941 Z M 172 1518 L 848 1518 C 1029 1518 1163 1481 1250 1407 C 1336 1333 1380 1217 1380 1059 C 1380 924 1348 819 1286 743 C 1223 667 1132 618 1014 598 L 1358 0 L 1137 0 L 798 584 L 375 584 L 375 0 L 172 0 L 172 1518 Z M 846 774 C 962 774 1046 795 1096 839 C 1146 883 1171 953 1171 1051 C 1171 1149 1146 1220 1096 1262 C 1046 1304 960 1325 840 1325 L 375 1325 L 375 774 L 846 774 Z" unicode="Ŕ" />
<glyph horiz-adv-x="760" d="M 529 1591 L 773 1591 L 410 1255 L 226 1255 L 529 1591 Z M 147 1128 L 305 1139 L 326 999 C 350 1042 396 1078 464 1106 C 532 1134 614 1150 711 1153 L 711 952 C 588 950 497 921 437 864 C 377 807 348 719 348 600 L 348 0 L 147 0 L 147 1128 Z" unicode="ŕ" />
<glyph horiz-adv-x="1499" d="M 630 -457 C 675 -434 705 -413 721 -394 C 737 -374 745 -345 745 -307 L 636 -307 L 636 -80 L 860 -80 L 860 -250 C 860 -313 854 -361 844 -393 C 834 -425 816 -453 792 -476 C 767 -499 729 -523 679 -547 L 630 -457 Z M 172 1518 L 848 1518 C 1029 1518 1163 1481 1250 1407 C 1336 1333 1380 1217 1380 1059 C 1380 924 1348 819 1286 743 C 1223 667 1132 618 1014 598 L 1358 0 L 1137 0 L 798 584 L 375 584 L 375 0 L 172 0 L 172 1518 Z M 846 774 C 962 774 1046 795 1096 839 C 1146 883 1171 953 1171 1051 C 1171 1149 1146 1220 1096 1262 C 1046 1304 960 1325 840 1325 L 375 1325 L 375 774 L 846 774 Z" unicode="Ŗ" />
<glyph horiz-adv-x="760" d="M 134 -457 C 179 -434 209 -413 225 -394 C 241 -374 249 -345 249 -307 L 140 -307 L 140 -80 L 364 -80 L 364 -250 C 364 -313 358 -361 348 -393 C 338 -425 320 -453 296 -476 C 271 -499 233 -523 183 -547 L 134 -457 Z M 147 1128 L 305 1139 L 326 999 C 350 1042 396 1078 464 1106 C 532 1134 614 1150 711 1153 L 711 952 C 588 950 497 921 437 864 C 377 807 348 719 348 600 L 348 0 L 147 0 L 147 1128 Z" unicode="ŗ" />
<glyph horiz-adv-x="1499" d="M 323 1941 L 518 1941 L 747 1734 L 977 1941 L 1165 1941 L 852 1605 L 637 1605 L 323 1941 Z M 172 1518 L 848 1518 C 1029 1518 1163 1481 1250 1407 C 1336 1333 1380 1217 1380 1059 C 1380 924 1348 819 1286 743 C 1223 667 1132 618 1014 598 L 1358 0 L 1137 0 L 798 584 L 375 584 L 375 0 L 172 0 L 172 1518 Z M 846 774 C 962 774 1046 795 1096 839 C 1146 883 1171 953 1171 1051 C 1171 1149 1146 1220 1096 1262 C 1046 1304 960 1325 840 1325 L 375 1325 L 375 774 L 846 774 Z" unicode="Ř" />
<glyph horiz-adv-x="743" d="M -46 1591 L 149 1591 L 378 1384 L 608 1591 L 796 1591 L 483 1255 L 268 1255 L -46 1591 Z M 147 1128 L 305 1139 L 326 999 C 350 1042 396 1078 464 1106 C 532 1134 614 1150 711 1153 L 711 952 C 588 950 497 921 437 864 C 377 807 348 719 348 600 L 348 0 L 147 0 L 147 1128 Z" unicode="ř" />
<glyph horiz-adv-x="1460" d="M 858 1941 L 1102 1941 L 739 1605 L 555 1605 L 858 1941 Z M 727 -20 C 469 -20 251 40 74 160 L 178 319 C 340 214 521 162 721 162 C 871 162 979 182 1046 222 C 1113 262 1147 330 1147 426 C 1147 476 1135 516 1111 548 C 1087 579 1051 604 1003 624 C 955 644 860 665 719 688 C 549 715 430 745 360 777 C 290 809 238 853 204 908 C 170 962 154 1033 154 1120 C 154 1266 199 1373 290 1441 C 381 1508 525 1542 723 1542 C 952 1542 1136 1495 1276 1403 L 1163 1233 C 1106 1271 1038 1300 960 1321 C 881 1341 802 1352 723 1352 C 593 1352 499 1334 443 1298 C 386 1262 358 1204 358 1124 C 358 1076 369 1038 392 1009 C 415 979 450 955 498 936 C 546 917 636 896 770 874 C 916 850 1021 826 1086 803 C 1150 780 1202 752 1240 720 C 1278 688 1306 648 1324 602 C 1342 555 1352 500 1352 436 C 1352 280 1301 165 1200 91 C 1098 17 941 -20 727 -20 Z" unicode="Ś" />
<glyph horiz-adv-x="1098" d="M 681 1591 L 925 1591 L 562 1255 L 378 1255 L 681 1591 Z M 543 -20 C 347 -20 183 24 51 113 L 154 268 C 273 192 407 154 555 154 C 662 154 734 166 772 191 C 810 215 829 259 829 322 C 829 354 822 379 808 399 C 794 418 770 434 738 446 C 705 458 644 471 555 487 C 417 511 322 537 268 563 C 214 589 174 624 148 668 C 122 711 109 768 109 840 C 109 952 145 1034 218 1086 C 290 1138 403 1165 555 1165 C 731 1165 876 1131 989 1065 L 895 901 C 795 954 683 981 559 981 C 469 981 405 970 366 948 C 326 926 307 890 307 840 C 307 792 323 757 355 735 C 387 712 457 692 563 674 C 633 661 696 648 753 635 C 809 621 858 603 898 579 C 938 555 968 523 990 484 C 1011 445 1022 394 1022 330 C 1022 204 985 114 912 60 C 839 6 716 -20 543 -20 Z" unicode="ś" />
<glyph horiz-adv-x="899" d="M 526 569 L 229 1139 L 414 1139 L 723 569 L 414 0 L 229 0 L 526 569 Z" unicode="›" />
<glyph horiz-adv-x="1460" d="M 727 -20 C 469 -20 251 40 74 160 L 178 319 C 340 214 521 162 721 162 C 871 162 979 182 1046 222 C 1113 262 1147 330 1147 426 C 1147 476 1135 516 1111 548 C 1087 579 1051 604 1003 624 C 955 644 860 665 719 688 C 549 715 430 745 360 777 C 290 809 238 853 204 908 C 170 962 154 1033 154 1120 C 154 1266 199 1373 290 1441 C 381 1508 525 1542 723 1542 C 952 1542 1136 1495 1276 1403 L 1163 1233 C 1106 1271 1038 1300 960 1321 C 881 1341 802 1352 723 1352 C 593 1352 499 1334 443 1298 C 386 1262 358 1204 358 1124 C 358 1076 369 1038 392 1009 C 415 979 450 955 498 936 C 546 917 636 896 770 874 C 916 850 1021 826 1086 803 C 1150 780 1202 752 1240 720 C 1278 688 1306 648 1324 602 C 1342 555 1352 500 1352 436 C 1352 280 1301 165 1200 91 C 1098 17 941 -20 727 -20 Z M 739 -475 C 645 -475 563 -454 492 -414 L 547 -309 C 607 -340 668 -356 731 -356 C 783 -356 822 -348 847 -333 C 872 -318 885 -292 885 -256 C 885 -219 872 -195 847 -185 C 822 -174 787 -169 743 -169 L 696 -170 L 647 -135 L 676 14 L 797 14 L 778 -90 L 809 -89 C 865 -89 906 -95 934 -107 C 962 -119 983 -138 999 -164 C 1014 -189 1022 -224 1022 -268 C 1022 -337 999 -389 953 -423 C 907 -457 835 -475 739 -475 Z" unicode="Ş" />
<glyph horiz-adv-x="1098" d="M 543 -20 C 347 -20 183 24 51 113 L 154 268 C 273 192 407 154 555 154 C 662 154 734 166 772 191 C 810 215 829 259 829 322 C 829 354 822 379 808 399 C 794 418 770 434 738 446 C 705 458 644 471 555 487 C 417 511 322 537 268 563 C 214 589 174 624 148 668 C 122 711 109 768 109 840 C 109 952 145 1034 218 1086 C 290 1138 403 1165 555 1165 C 731 1165 876 1131 989 1065 L 895 901 C 795 954 683 981 559 981 C 469 981 405 970 366 948 C 326 926 307 890 307 840 C 307 792 323 757 355 735 C 387 712 457 692 563 674 C 633 661 696 648 753 635 C 809 621 858 603 898 579 C 938 555 968 523 990 484 C 1011 445 1022 394 1022 330 C 1022 204 985 114 912 60 C 839 6 716 -20 543 -20 Z M 562 -475 C 468 -475 386 -454 315 -414 L 370 -309 C 430 -340 491 -356 554 -356 C 606 -356 645 -348 670 -333 C 695 -318 708 -292 708 -256 C 708 -219 695 -195 670 -185 C 645 -174 610 -169 566 -169 L 519 -170 L 470 -135 L 499 14 L 620 14 L 601 -90 L 632 -89 C 688 -89 729 -95 757 -107 C 785 -119 806 -138 822 -164 C 837 -189 845 -224 845 -268 C 845 -337 822 -389 776 -423 C 730 -457 658 -475 562 -475 Z" unicode="ş" />
<glyph horiz-adv-x="1460" d="M 305 1941 L 500 1941 L 729 1734 L 959 1941 L 1147 1941 L 834 1605 L 619 1605 L 305 1941 Z M 727 -20 C 469 -20 251 40 74 160 L 178 319 C 340 214 521 162 721 162 C 871 162 979 182 1046 222 C 1113 262 1147 330 1147 426 C 1147 476 1135 516 1111 548 C 1087 579 1051 604 1003 624 C 955 644 860 665 719 688 C 549 715 430 745 360 777 C 290 809 238 853 204 908 C 170 962 154 1033 154 1120 C 154 1266 199 1373 290 1441 C 381 1508 525 1542 723 1542 C 952 1542 1136 1495 1276 1403 L 1163 1233 C 1106 1271 1038 1300 960 1321 C 881 1341 802 1352 723 1352 C 593 1352 499 1334 443 1298 C 386 1262 358 1204 358 1124 C 358 1076 369 1038 392 1009 C 415 979 450 955 498 936 C 546 917 636 896 770 874 C 916 850 1021 826 1086 803 C 1150 780 1202 752 1240 720 C 1278 688 1306 648 1324 602 C 1342 555 1352 500 1352 436 C 1352 280 1301 165 1200 91 C 1098 17 941 -20 727 -20 Z" unicode="Š" />
<glyph horiz-adv-x="1098" d="M 128 1591 L 323 1591 L 552 1384 L 782 1591 L 970 1591 L 657 1255 L 442 1255 L 128 1591 Z M 543 -20 C 347 -20 183 24 51 113 L 154 268 C 273 192 407 154 555 154 C 662 154 734 166 772 191 C 810 215 829 259 829 322 C 829 354 822 379 808 399 C 794 418 770 434 738 446 C 705 458 644 471 555 487 C 417 511 322 537 268 563 C 214 589 174 624 148 668 C 122 711 109 768 109 840 C 109 952 145 1034 218 1086 C 290 1138 403 1165 555 1165 C 731 1165 876 1131 989 1065 L 895 901 C 795 954 683 981 559 981 C 469 981 405 970 366 948 C 326 926 307 890 307 840 C 307 792 323 757 355 735 C 387 712 457 692 563 674 C 633 661 696 648 753 635 C 809 621 858 603 898 579 C 938 555 968 523 990 484 C 1011 445 1022 394 1022 330 C 1022 204 985 114 912 60 C 839 6 716 -20 543 -20 Z" unicode="š" />
<glyph horiz-adv-x="1419" d="M 590 -457 C 635 -434 665 -413 681 -394 C 697 -374 705 -345 705 -307 L 596 -307 L 596 -80 L 820 -80 L 820 -250 C 820 -313 814 -361 804 -393 C 794 -425 776 -453 752 -476 C 727 -499 689 -523 639 -547 L 590 -457 Z M 606 1319 L 49 1319 L 49 1518 L 1372 1518 L 1372 1319 L 815 1319 L 815 0 L 606 0 L 606 1319 Z" unicode="Ţ" />
<glyph horiz-adv-x="856" d="M 252 -457 C 297 -434 327 -413 343 -394 C 359 -374 367 -345 367 -307 L 258 -307 L 258 -80 L 482 -80 L 482 -250 C 482 -313 476 -361 466 -393 C 456 -425 438 -453 414 -476 C 389 -499 351 -523 301 -547 L 252 -457 Z M 59 1139 L 266 1139 L 301 1462 L 459 1493 L 459 1139 L 760 1139 L 760 958 L 459 958 L 459 338 C 459 287 464 252 474 233 C 484 213 501 199 525 190 C 548 180 581 176 623 176 L 760 176 L 760 0 L 676 -2 L 588 -2 C 505 -2 440 7 393 27 C 346 46 312 77 291 119 C 270 161 260 225 260 311 L 260 958 L 59 958 L 59 1139 Z" unicode="ţ" />
<glyph horiz-adv-x="1419" d="M 284 1941 L 479 1941 L 708 1734 L 938 1941 L 1126 1941 L 813 1605 L 598 1605 L 284 1941 Z M 606 1319 L 49 1319 L 49 1518 L 1372 1518 L 1372 1319 L 815 1319 L 815 0 L 606 0 L 606 1319 Z" unicode="Ť" />
<glyph horiz-adv-x="856" d="M 612 1413 C 656 1437 686 1458 702 1477 C 717 1496 725 1525 725 1563 L 629 1563 L 629 1780 L 834 1780 L 834 1616 C 834 1531 822 1470 799 1432 C 776 1394 729 1359 659 1325 L 612 1413 Z M 59 1139 L 266 1139 L 301 1462 L 459 1493 L 459 1139 L 760 1139 L 760 958 L 459 958 L 459 338 C 459 287 464 252 474 233 C 484 213 501 199 525 190 C 548 180 581 176 623 176 L 760 176 L 760 0 L 676 -2 L 588 -2 C 505 -2 440 7 393 27 C 346 46 312 77 291 119 C 270 161 260 225 260 311 L 260 958 L 59 958 L 59 1139 Z" unicode="ť" />
<glyph horiz-adv-x="1614" d="M 805 -27 C 693 -27 596 -15 515 7 C 434 29 368 63 316 108 C 264 152 226 210 200 282 C 174 353 162 445 162 557 L 162 1518 L 369 1518 L 369 582 C 369 476 383 395 413 339 C 442 282 489 239 553 211 C 617 182 702 168 807 168 C 913 168 999 182 1065 210 C 1130 238 1178 281 1208 339 C 1238 397 1253 478 1253 582 L 1253 1518 L 1454 1518 L 1454 557 C 1454 411 1430 296 1383 213 C 1335 130 1263 69 1167 31 C 1070 -7 949 -27 805 -27 Z M 418 1763 L 1188 1763 L 1188 1593 L 418 1593 L 418 1763 Z" unicode="Ū" />
<glyph horiz-adv-x="1280" d="M 643 -20 C 517 -20 418 -5 346 25 C 273 55 221 103 189 171 C 157 238 141 343 141 487 L 141 1139 L 340 1139 L 340 483 C 340 437 341 395 345 356 C 348 317 359 283 378 255 C 397 226 427 203 468 187 C 509 170 567 162 643 162 C 700 162 748 167 787 177 C 825 187 856 202 879 222 C 901 242 918 269 928 304 C 938 338 944 400 944 489 L 944 1139 L 1139 1139 L 1139 494 C 1139 348 1123 241 1093 173 C 1062 105 1011 56 940 26 C 868 -4 769 -20 643 -20 Z M 252 1413 L 1022 1413 L 1022 1243 L 252 1243 L 252 1413 Z" unicode="ū" />
<glyph horiz-adv-x="1614" d="M 803 1581 C 721 1581 658 1603 613 1649 C 567 1695 545 1760 545 1845 C 545 1931 567 1997 612 2043 C 656 2089 720 2113 803 2113 C 883 2113 946 2089 991 2041 C 1036 1993 1059 1928 1059 1845 C 1059 1763 1036 1698 991 1651 C 945 1604 883 1581 803 1581 Z M 803 1691 C 850 1691 886 1704 911 1732 C 936 1760 949 1797 949 1845 C 949 1892 936 1929 911 1957 C 886 1985 850 1999 803 1999 C 755 1999 719 1985 694 1959 C 668 1932 656 1894 656 1845 C 656 1796 668 1758 693 1731 C 718 1704 755 1691 803 1691 Z M 805 -27 C 693 -27 596 -15 515 7 C 434 29 368 63 316 108 C 264 152 226 210 200 282 C 174 353 162 445 162 557 L 162 1518 L 369 1518 L 369 582 C 369 476 383 395 413 339 C 442 282 489 239 553 211 C 617 182 702 168 807 168 C 913 168 999 182 1065 210 C 1130 238 1178 281 1208 339 C 1238 397 1253 478 1253 582 L 1253 1518 L 1454 1518 L 1454 557 C 1454 411 1430 296 1383 213 C 1335 130 1263 69 1167 31 C 1070 -7 949 -27 805 -27 Z" unicode="Ů" />
<glyph horiz-adv-x="1280" d="M 637 1231 C 555 1231 492 1253 447 1299 C 401 1345 379 1410 379 1495 C 379 1581 401 1647 446 1693 C 490 1739 554 1763 637 1763 C 717 1763 780 1739 825 1691 C 870 1643 893 1578 893 1495 C 893 1413 870 1348 825 1301 C 779 1254 717 1231 637 1231 Z M 637 1341 C 684 1341 720 1354 745 1382 C 770 1410 783 1447 783 1495 C 783 1542 770 1579 745 1607 C 720 1635 684 1649 637 1649 C 589 1649 553 1635 528 1609 C 502 1582 490 1544 490 1495 C 490 1446 502 1408 527 1381 C 552 1354 589 1341 637 1341 Z M 643 -20 C 517 -20 418 -5 346 25 C 273 55 221 103 189 171 C 157 238 141 343 141 487 L 141 1139 L 340 1139 L 340 483 C 340 437 341 395 345 356 C 348 317 359 283 378 255 C 397 226 427 203 468 187 C 509 170 567 162 643 162 C 700 162 748 167 787 177 C 825 187 856 202 879 222 C 901 242 918 269 928 304 C 938 338 944 400 944 489 L 944 1139 L 1139 1139 L 1139 494 C 1139 348 1123 241 1093 173 C 1062 105 1011 56 940 26 C 868 -4 769 -20 643 -20 Z" unicode="ů" />
<glyph horiz-adv-x="1614" d="M 805 -27 C 693 -27 596 -15 515 7 C 434 29 368 63 316 108 C 264 152 226 210 200 282 C 174 353 162 445 162 557 L 162 1518 L 369 1518 L 369 582 C 369 476 383 395 413 339 C 442 282 489 239 553 211 C 617 182 702 168 807 168 C 913 168 999 182 1065 210 C 1130 238 1178 281 1208 339 C 1238 397 1253 478 1253 582 L 1253 1518 L 1454 1518 L 1454 557 C 1454 411 1430 296 1383 213 C 1335 130 1263 69 1167 31 C 1070 -7 949 -27 805 -27 Z M 654 1937 L 887 1937 L 568 1605 L 396 1605 L 654 1937 Z M 1141 1937 L 1373 1937 L 1057 1605 L 883 1605 L 1141 1937 Z" unicode="Ű" />
<glyph horiz-adv-x="1280" d="M 643 -20 C 517 -20 418 -5 346 25 C 273 55 221 103 189 171 C 157 238 141 343 141 487 L 141 1139 L 340 1139 L 340 483 C 340 437 341 395 345 356 C 348 317 359 283 378 255 C 397 226 427 203 468 187 C 509 170 567 162 643 162 C 700 162 748 167 787 177 C 825 187 856 202 879 222 C 901 242 918 269 928 304 C 938 338 944 400 944 489 L 944 1139 L 1139 1139 L 1139 494 C 1139 348 1123 241 1093 173 C 1062 105 1011 56 940 26 C 868 -4 769 -20 643 -20 Z M 488 1587 L 721 1587 L 402 1255 L 230 1255 L 488 1587 Z M 975 1587 L 1207 1587 L 891 1255 L 717 1255 L 975 1587 Z" unicode="ű" />
<glyph horiz-adv-x="1614" d="M 860 -455 C 770 -455 704 -439 660 -407 C 616 -375 594 -324 594 -252 C 594 -210 605 -170 628 -130 C 650 -90 682 -55 723 -25 C 595 -17 490 6 408 47 C 325 87 263 147 223 226 C 182 305 162 415 162 557 L 162 1518 L 369 1518 L 369 582 C 369 476 383 395 413 339 C 442 282 489 239 553 211 C 617 182 702 168 807 168 C 913 168 999 182 1065 210 C 1130 238 1178 281 1208 339 C 1238 397 1253 478 1253 582 L 1253 1518 L 1454 1518 L 1454 557 C 1454 421 1433 314 1393 234 C 1353 154 1292 94 1211 52 C 1130 10 1027 -14 903 -23 C 855 -57 818 -91 794 -125 C 770 -159 758 -190 758 -219 C 758 -255 768 -280 789 -294 C 810 -308 842 -315 885 -315 C 913 -315 944 -311 977 -305 C 1010 -298 1038 -289 1061 -279 L 1110 -399 C 1038 -436 955 -455 860 -455 Z" unicode="Ų" />
<glyph horiz-adv-x="1280" d="M 694 -455 C 604 -455 538 -439 494 -407 C 450 -375 428 -324 428 -252 C 428 -168 473 -90 563 -18 C 457 -12 374 6 314 40 C 253 73 209 122 182 186 C 154 250 141 350 141 487 L 141 1139 L 340 1139 L 340 483 C 340 437 341 395 345 356 C 348 317 359 283 378 255 C 397 226 427 203 468 187 C 509 170 567 162 643 162 C 700 162 748 167 787 177 C 825 187 856 202 879 222 C 901 242 918 269 928 304 C 938 338 944 400 944 489 L 944 1139 L 1139 1139 L 1139 494 C 1139 356 1126 256 1101 192 C 1076 128 1035 79 979 45 C 923 11 846 -8 748 -16 C 696 -51 657 -86 631 -121 C 605 -156 592 -189 592 -219 C 592 -255 602 -280 623 -294 C 644 -308 676 -315 719 -315 C 747 -315 778 -311 811 -305 C 844 -298 872 -289 895 -279 L 944 -399 C 872 -436 789 -455 694 -455 Z" unicode="ų" />
<glyph horiz-adv-x="1466" d="M 20 1518 L 246 1518 L 735 762 L 1229 1518 L 1444 1518 L 836 579 L 836 0 L 631 0 L 631 574 L 20 1518 Z M 418 1841 L 600 1841 L 600 1612 L 418 1612 L 418 1841 Z M 860 1841 L 1040 1841 L 1040 1612 L 860 1612 L 860 1841 Z" unicode="Ÿ" />
<glyph horiz-adv-x="1376" d="M 817 1941 L 1061 1941 L 698 1605 L 514 1605 L 817 1941 Z M 86 164 L 1004 1319 L 121 1319 L 121 1518 L 1264 1518 L 1264 1337 L 350 190 L 1286 190 L 1286 0 L 86 0 L 86 164 Z" unicode="Ź" />
<glyph horiz-adv-x="1049" d="M 660 1591 L 904 1591 L 541 1255 L 357 1255 L 660 1591 Z M 61 145 L 711 958 L 94 958 L 94 1139 L 971 1139 L 971 989 L 319 170 L 993 170 L 993 0 L 61 0 L 61 145 Z" unicode="ź" />
<glyph horiz-adv-x="1376" d="M 86 164 L 1004 1319 L 121 1319 L 121 1518 L 1264 1518 L 1264 1337 L 350 190 L 1286 190 L 1286 0 L 86 0 L 86 164 Z M 586 1841 L 787 1841 L 787 1603 L 586 1603 L 586 1841 Z" unicode="Ż" />
<glyph horiz-adv-x="1049" d="M 61 145 L 711 958 L 94 958 L 94 1139 L 971 1139 L 971 989 L 319 170 L 993 170 L 993 0 L 61 0 L 61 145 Z M 429 1491 L 630 1491 L 630 1253 L 429 1253 L 429 1491 Z" unicode="ż" />
<glyph horiz-adv-x="1376" d="M 264 1941 L 459 1941 L 688 1734 L 918 1941 L 1106 1941 L 793 1605 L 578 1605 L 264 1941 Z M 86 164 L 1004 1319 L 121 1319 L 121 1518 L 1264 1518 L 1264 1337 L 350 190 L 1286 190 L 1286 0 L 86 0 L 86 164 Z" unicode="Ž" />
<glyph horiz-adv-x="1049" d="M 107 1591 L 302 1591 L 531 1384 L 761 1591 L 949 1591 L 636 1255 L 421 1255 L 107 1591 Z M 61 145 L 711 958 L 94 958 L 94 1139 L 971 1139 L 971 989 L 319 170 L 993 170 L 993 0 L 61 0 L 61 145 Z" unicode="ž" />
<glyph horiz-adv-x="1133" d="M 178 930 L 432 930 L 487 1186 C 508 1286 533 1356 563 1396 C 592 1436 632 1466 684 1487 C 735 1507 802 1518 885 1518 L 965 1518 L 965 1329 L 895 1329 C 849 1329 813 1322 785 1310 C 757 1298 734 1280 718 1256 C 702 1232 687 1188 674 1126 L 632 930 L 965 930 L 965 750 L 594 750 L 362 -340 L 162 -340 L 394 750 L 178 750 L 178 930 Z" unicode="ƒ" />
<glyph horiz-adv-x="1032" d="" unicode="⁄" />
<glyph horiz-adv-x="1280" d="" unicode="∂" />
<glyph horiz-adv-x="1536" d="" unicode="∆" />
<glyph horiz-adv-x="1536" d="" unicode="∏" />
<glyph horiz-adv-x="1152" d="" unicode="∑" />
<glyph horiz-adv-x="1440" d="" unicode="−" />
<glyph horiz-adv-x="1032" d="" unicode="∕" />
<glyph horiz-adv-x="1460" d="" unicode="Ș" />
<glyph horiz-adv-x="1098" d="" unicode="ș" />
<glyph horiz-adv-x="1419" d="M 590 -457 C 635 -434 665 -413 681 -394 C 697 -374 705 -345 705 -307 L 596 -307 L 596 -80 L 820 -80 L 820 -250 C 820 -313 814 -361 804 -393 C 794 -425 776 -453 752 -476 C 727 -499 689 -523 639 -547 L 590 -457 Z M 606 1319 L 49 1319 L 49 1518 L 1372 1518 L 1372 1319 L 815 1319 L 815 0 L 606 0 L 606 1319 Z" unicode="Ț" />
<glyph horiz-adv-x="856" d="M 252 -457 C 297 -434 327 -413 343 -394 C 359 -374 367 -345 367 -307 L 258 -307 L 258 -80 L 482 -80 L 482 -250 C 482 -313 476 -361 466 -393 C 456 -425 438 -453 414 -476 C 389 -499 351 -523 301 -547 L 252 -457 Z M 59 1139 L 266 1139 L 301 1462 L 459 1493 L 459 1139 L 760 1139 L 760 958 L 459 958 L 459 338 C 459 287 464 252 474 233 C 484 213 501 199 525 190 C 548 180 581 176 623 176 L 760 176 L 760 0 L 676 -2 L 588 -2 C 505 -2 440 7 393 27 C 346 46 312 77 291 119 C 270 161 260 225 260 311 L 260 958 L 59 958 L 59 1139 Z" unicode="ț" />
<glyph horiz-adv-x="1778" d="" unicode="∞" />
<glyph horiz-adv-x="1152" d="" unicode="∫" />
<glyph horiz-adv-x="1536" d="" unicode="≈" />
<glyph horiz-adv-x="2087" d="M 948 958 L 473 958 L 473 0 L 274 0 L 274 958 L 59 958 L 59 1139 L 274 1139 L 274 1219 C 274 1350 303 1444 361 1502 C 419 1560 511 1589 637 1589 L 768 1589 L 768 1415 L 662 1415 C 598 1415 550 1399 519 1369 C 488 1339 473 1289 473 1219 L 473 1139 L 948 1139 L 948 1219 C 948 1350 976 1444 1034 1502 C 1092 1560 1184 1589 1311 1589 L 1444 1589 L 1444 1415 L 1335 1415 C 1270 1415 1222 1399 1192 1369 C 1162 1338 1147 1288 1147 1219 L 1147 1139 L 1444 1139 L 1444 958 L 1147 958 L 1147 0 L 948 0 L 948 958 Z M 1878 -2 C 1784 -2 1717 20 1679 64 C 1641 108 1622 185 1622 295 L 1622 1589 L 1819 1589 L 1819 317 C 1819 273 1822 242 1829 225 C 1836 207 1848 195 1865 187 C 1882 179 1908 176 1944 176 L 1991 176 L 1991 2 C 1973 0 1936 -2 1878 -2 Z" unicode="ﬄ" />
<glyph horiz-adv-x="1440" d="" unicode="≠" />
<glyph horiz-adv-x="1440" d="" unicode="≤" />
<glyph horiz-adv-x="1440" d="" unicode="≥" />
<glyph horiz-adv-x="1208" d="M 496 1591 L 711 1591 L 1024 1255 L 831 1255 L 600 1462 L 373 1255 L 182 1255 L 496 1591 Z" unicode="ˆ" />
<glyph horiz-adv-x="1208" d="M 182 1591 L 377 1591 L 606 1384 L 836 1591 L 1024 1591 L 711 1255 L 496 1255 L 182 1591 Z" unicode="ˇ" />
<glyph horiz-adv-x="1208" d="M 604 1233 C 525 1233 459 1244 407 1267 C 354 1290 312 1324 280 1370 C 248 1415 224 1480 207 1565 L 354 1595 C 370 1521 398 1469 437 1440 C 475 1411 531 1397 604 1397 C 676 1397 731 1411 770 1440 C 809 1469 837 1521 854 1595 L 1004 1567 C 986 1483 961 1418 929 1372 C 897 1326 854 1291 801 1268 C 748 1244 682 1233 604 1233 Z" unicode="˘" />
<glyph horiz-adv-x="1208" d="M 504 1491 L 705 1491 L 705 1253 L 504 1253 L 504 1491 Z" unicode="˙" />
<glyph horiz-adv-x="1208" d="M 604 1231 C 522 1231 459 1253 414 1299 C 368 1345 346 1410 346 1495 C 346 1581 368 1647 413 1693 C 457 1739 521 1763 604 1763 C 684 1763 747 1739 792 1691 C 837 1643 860 1578 860 1495 C 860 1413 837 1348 792 1301 C 746 1254 684 1231 604 1231 Z M 604 1341 C 651 1341 687 1354 712 1382 C 737 1410 750 1447 750 1495 C 750 1542 737 1579 712 1607 C 687 1635 651 1649 604 1649 C 556 1649 520 1635 495 1609 C 469 1582 457 1544 457 1495 C 457 1446 469 1408 494 1381 C 519 1354 556 1341 604 1341 Z" unicode="˚" />
<glyph horiz-adv-x="1208" d="M 625 -455 C 535 -455 468 -439 424 -407 C 380 -375 358 -323 358 -252 C 358 -202 375 -152 410 -104 C 444 -56 491 -16 549 16 L 731 16 C 662 -22 610 -63 575 -105 C 539 -147 522 -185 522 -219 C 522 -254 532 -279 553 -293 C 574 -307 606 -315 649 -315 C 679 -315 710 -311 742 -305 C 774 -298 801 -289 825 -279 L 874 -399 C 843 -415 805 -429 761 -439 C 716 -449 671 -455 625 -455 Z" unicode="˛" />
<glyph horiz-adv-x="1208" d="M 184 1356 C 228 1410 274 1452 322 1482 C 370 1511 415 1526 459 1526 C 494 1526 524 1520 549 1510 C 573 1499 596 1487 616 1474 C 636 1461 656 1449 676 1439 C 695 1428 717 1423 743 1423 C 787 1423 842 1460 907 1536 L 1024 1442 C 926 1318 834 1257 748 1257 C 716 1257 687 1262 663 1273 C 639 1283 616 1295 594 1308 C 572 1321 551 1333 531 1344 C 510 1354 487 1360 463 1360 C 439 1360 414 1351 386 1334 C 358 1317 332 1292 307 1260 L 184 1356 Z" unicode="˜" />
<glyph horiz-adv-x="1208" d="M 455 1587 L 688 1587 L 369 1255 L 197 1255 L 455 1587 Z M 942 1587 L 1174 1587 L 858 1255 L 684 1255 L 942 1587 Z" unicode="˝" />
<glyph horiz-adv-x="1493" d="M 948 958 L 473 958 L 473 0 L 274 0 L 274 958 L 59 958 L 59 1139 L 274 1139 L 274 1219 C 274 1350 303 1444 361 1502 C 419 1560 511 1589 637 1589 L 768 1589 L 768 1415 L 662 1415 C 598 1415 550 1399 519 1369 C 488 1339 473 1289 473 1219 L 473 1139 L 948 1139 L 948 1219 C 948 1350 976 1444 1034 1502 C 1092 1560 1184 1589 1311 1589 L 1444 1589 L 1444 1415 L 1335 1415 C 1270 1415 1222 1399 1192 1369 C 1162 1338 1147 1288 1147 1219 L 1147 1139 L 1444 1139 L 1444 958 L 1147 958 L 1147 0 L 948 0 L 948 958 Z" unicode="ﬀ" />
<glyph horiz-adv-x="1307" d="M 59 1139 L 274 1139 L 274 1219 C 274 1350 303 1444 361 1502 C 419 1560 511 1589 637 1589 L 768 1589 L 768 1415 L 662 1415 C 598 1415 550 1399 519 1369 C 488 1339 473 1289 473 1219 L 473 1139 L 768 1139 L 768 958 L 473 958 L 473 0 L 274 0 L 274 958 L 59 958 L 59 1139 Z M 948 1139 L 1147 1139 L 1147 0 L 948 0 L 948 1139 Z M 946 1518 L 1147 1518 L 1147 1276 L 946 1276 L 946 1518 Z" unicode="ﬁ" />
<glyph horiz-adv-x="1413" d="M 59 1139 L 274 1139 L 274 1219 C 274 1350 303 1444 361 1502 C 419 1560 511 1589 637 1589 L 768 1589 L 768 1415 L 662 1415 C 598 1415 550 1399 519 1369 C 488 1339 473 1289 473 1219 L 473 1139 L 768 1139 L 768 958 L 473 958 L 473 0 L 274 0 L 274 958 L 59 958 L 59 1139 Z M 1204 -2 C 1110 -2 1043 20 1005 64 C 967 108 948 185 948 295 L 948 1589 L 1147 1589 L 1147 317 C 1147 257 1155 219 1172 202 C 1188 184 1222 176 1272 176 L 1319 176 L 1319 2 C 1300 0 1262 -2 1204 -2 Z" unicode="ﬂ" />
<glyph horiz-adv-x="1978" d="M 948 958 L 473 958 L 473 0 L 274 0 L 274 958 L 59 958 L 59 1139 L 274 1139 L 274 1219 C 274 1350 303 1444 361 1502 C 419 1560 511 1589 637 1589 L 768 1589 L 768 1415 L 662 1415 C 598 1415 550 1399 519 1369 C 488 1339 473 1289 473 1219 L 473 1139 L 948 1139 L 948 1219 C 948 1350 976 1444 1034 1502 C 1092 1560 1184 1589 1311 1589 L 1444 1589 L 1444 1415 L 1335 1415 C 1270 1415 1222 1399 1192 1369 C 1162 1338 1147 1288 1147 1219 L 1147 1139 L 1444 1139 L 1444 958 L 1147 958 L 1147 0 L 948 0 L 948 958 Z M 1622 1139 L 1819 1139 L 1819 0 L 1622 0 L 1622 1139 Z M 1620 1518 L 1821 1518 L 1821 1276 L 1620 1276 L 1620 1518 Z" unicode="ﬃ" />
<glyph horiz-adv-x="1208" d="M 219 1413 L 989 1413 L 989 1243 L 219 1243 L 219 1413 Z" unicode="̄" />
<glyph horiz-adv-x="518" d="M 141 -457 C 186 -434 216 -413 232 -394 C 248 -374 256 -345 256 -307 L 147 -307 L 147 -80 L 371 -80 L 371 -250 C 371 -313 365 -361 355 -393 C 345 -425 327 -453 303 -476 C 278 -499 240 -523 190 -547 L 141 -457 Z" unicode="̦" />
<glyph horiz-adv-x="1536" d="" unicode="Δ" />
<glyph horiz-adv-x="1664" d="" unicode="Ω" />
<glyph horiz-adv-x="1288" d="M 147 1139 L 348 1139 L 348 483 C 348 413 350 363 356 335 C 361 307 370 282 382 261 C 394 239 412 221 434 207 C 456 193 485 182 519 174 C 553 166 597 162 651 162 C 702 162 745 165 779 173 C 813 181 842 192 864 206 C 886 220 904 237 916 258 C 928 279 936 303 942 331 C 947 358 950 411 950 489 L 950 1139 L 1147 1139 L 1147 494 C 1147 376 1138 286 1121 226 C 1103 165 1076 117 1039 82 C 1001 46 952 20 891 4 C 830 -11 754 -20 664 -20 C 580 -20 513 -12 461 3 C 409 18 371 42 348 76 L 348 -338 L 147 -338 L 147 1139 Z" unicode="μ" />
<glyph horiz-adv-x="1408" d="" unicode="π" />
<glyph horiz-adv-x="1335" d="M 352 1839 L 534 1839 L 534 1610 L 352 1610 L 352 1839 Z M 794 1839 L 974 1839 L 974 1610 L 794 1610 L 794 1839 Z M 172 1518 L 1210 1518 L 1210 1319 L 379 1319 L 379 883 L 1190 883 L 1190 686 L 379 686 L 379 190 L 1219 190 L 1219 0 L 172 0 L 172 1518 Z" unicode="Ё" />
<glyph horiz-adv-x="1784" d="M 1255 -180 L 1272 -180 C 1329 -178 1366 -167 1383 -147 C 1400 -126 1409 -81 1409 -12 L 1409 596 C 1409 692 1400 758 1384 796 C 1367 833 1340 861 1302 879 C 1264 897 1210 907 1141 907 C 1062 907 999 896 951 874 C 903 852 869 819 847 775 C 825 731 815 666 815 582 L 815 0 L 606 0 L 606 1319 L 49 1319 L 49 1518 L 1372 1518 L 1372 1319 L 815 1319 L 815 977 C 867 1063 997 1106 1204 1106 C 1306 1106 1387 1090 1447 1059 C 1507 1027 1550 980 1577 918 C 1604 856 1618 761 1618 633 L 1618 -10 C 1618 -100 1608 -169 1588 -215 C 1568 -261 1536 -294 1492 -314 C 1448 -334 1381 -344 1292 -344 L 1255 -344 L 1255 -180 Z" unicode="Ђ" />
<glyph horiz-adv-x="1221" d="M 737 1939 L 981 1939 L 618 1603 L 434 1603 L 737 1939 Z M 172 1518 L 1171 1518 L 1171 1319 L 379 1319 L 379 0 L 172 0 L 172 1518 Z" unicode="Ѓ" />
<glyph horiz-adv-x="1497" d="M 840 -23 C 336 -23 84 238 84 760 C 84 1015 149 1209 279 1342 C 409 1475 596 1542 840 1542 C 1077 1542 1263 1475 1399 1343 L 1257 1194 C 1205 1242 1144 1278 1075 1304 C 1005 1330 930 1343 850 1343 C 687 1343 558 1303 463 1224 C 367 1145 311 1028 293 872 L 1182 872 L 1182 680 L 289 680 C 301 514 353 387 445 301 C 537 215 668 172 840 172 C 928 172 1007 183 1076 207 C 1144 230 1210 271 1274 330 L 1409 186 C 1336 113 1252 60 1158 27 C 1064 -6 958 -23 840 -23 Z" unicode="Є" />
<glyph horiz-adv-x="1460" d="M 727 -20 C 469 -20 251 40 74 160 L 178 319 C 340 214 521 162 721 162 C 871 162 979 182 1046 222 C 1113 262 1147 330 1147 426 C 1147 476 1135 516 1111 548 C 1087 579 1051 604 1003 624 C 955 644 860 665 719 688 C 549 715 430 745 360 777 C 290 809 238 853 204 908 C 170 962 154 1033 154 1120 C 154 1266 199 1373 290 1441 C 381 1508 525 1542 723 1542 C 952 1542 1136 1495 1276 1403 L 1163 1233 C 1106 1271 1038 1300 960 1321 C 881 1341 802 1352 723 1352 C 593 1352 499 1334 443 1298 C 386 1262 358 1204 358 1124 C 358 1076 369 1038 392 1009 C 415 979 450 955 498 936 C 546 917 636 896 770 874 C 916 850 1021 826 1086 803 C 1150 780 1202 752 1240 720 C 1278 688 1306 648 1324 602 C 1342 555 1352 500 1352 436 C 1352 280 1301 165 1200 91 C 1098 17 941 -20 727 -20 Z" unicode="Ѕ" />
<glyph horiz-adv-x="582" d="M 188 1518 L 393 1518 L 393 0 L 188 0 L 188 1518 Z" unicode="І" />
<glyph horiz-adv-x="582" d="M 188 1518 L 393 1518 L 393 0 L 188 0 L 188 1518 Z M -15 1839 L 167 1839 L 167 1610 L -15 1610 L -15 1839 Z M 427 1839 L 607 1839 L 607 1610 L 427 1610 L 427 1839 Z" unicode="Ї" />
<glyph horiz-adv-x="848" d="M 229 -2 L 132 -2 L 57 0 L 57 190 L 207 190 C 307 190 377 210 419 251 C 460 291 481 358 481 451 L 481 1518 L 686 1518 L 686 442 C 686 287 649 174 576 104 C 503 33 387 -2 229 -2 Z" unicode="Ј" />
<glyph horiz-adv-x="2619" d="M 90 190 L 135 190 C 170 190 196 193 213 201 C 230 208 242 221 249 239 C 256 257 260 287 260 330 L 260 1518 L 1518 1518 L 1518 948 L 1995 948 C 2182 948 2319 911 2405 838 C 2491 765 2535 648 2535 487 C 2535 320 2490 197 2401 118 C 2311 39 2175 0 1991 0 L 1315 0 L 1315 1323 L 469 1323 L 469 295 C 469 185 448 108 407 64 C 366 20 298 -2 203 -2 L 90 2 L 90 190 Z M 1999 184 C 2115 184 2199 207 2251 254 C 2303 301 2329 375 2329 477 C 2329 579 2303 652 2252 696 C 2201 740 2115 762 1993 762 L 1518 762 L 1518 184 L 1999 184 Z" unicode="Љ" />
<glyph horiz-adv-x="2535" d="M 172 1518 L 379 1518 L 379 891 L 1233 891 L 1233 1518 L 1436 1518 L 1436 948 L 1913 948 C 2100 948 2236 911 2322 838 C 2408 764 2451 647 2451 487 C 2451 319 2406 195 2317 117 C 2227 39 2091 0 1907 0 L 1233 0 L 1233 686 L 379 686 L 379 0 L 172 0 L 172 1518 Z M 1915 184 C 2031 184 2115 207 2167 253 C 2219 299 2245 374 2245 477 C 2245 580 2219 653 2169 697 C 2118 740 2031 762 1909 762 L 1436 762 L 1436 184 L 1915 184 Z" unicode="Њ" />
<glyph horiz-adv-x="1784" d="M 606 1319 L 49 1319 L 49 1518 L 1372 1518 L 1372 1319 L 815 1319 L 815 977 C 867 1063 997 1106 1204 1106 C 1306 1106 1387 1090 1447 1059 C 1507 1027 1550 980 1577 918 C 1604 856 1618 761 1618 633 L 1618 0 L 1409 0 L 1409 596 C 1409 692 1400 758 1384 796 C 1367 833 1340 861 1302 879 C 1264 897 1210 907 1141 907 C 1062 907 999 896 951 874 C 903 852 869 819 847 775 C 825 731 815 666 815 582 L 815 0 L 606 0 L 606 1319 Z" unicode="Ћ" />
<glyph horiz-adv-x="1473" d="M 864 1939 L 1108 1939 L 745 1603 L 561 1603 L 864 1939 Z M 172 1518 L 375 1518 L 375 721 L 1090 1518 L 1327 1518 L 791 920 L 1401 0 L 1165 0 L 655 768 L 375 455 L 375 0 L 172 0 L 172 1518 Z" unicode="Ќ" />
<glyph horiz-adv-x="1434" d="M 45 1518 L 266 1518 L 751 577 L 1200 1518 L 1409 1518 L 782 248 C 744 172 711 118 683 87 C 654 55 621 33 583 19 C 545 5 496 -2 438 -2 L 364 -2 L 301 0 L 301 184 L 406 184 C 461 184 500 191 523 206 C 546 220 568 250 588 295 L 632 388 L 45 1518 Z M 713 1581 C 634 1581 568 1592 516 1615 C 463 1638 421 1672 389 1718 C 357 1763 333 1828 316 1913 L 463 1943 C 479 1869 507 1817 546 1788 C 584 1759 640 1745 713 1745 C 785 1745 840 1759 879 1788 C 918 1817 946 1869 963 1943 L 1113 1915 C 1095 1831 1070 1766 1038 1720 C 1006 1674 963 1639 910 1616 C 857 1592 791 1581 713 1581 Z" unicode="Ў" />
<glyph horiz-adv-x="1604" d="M 698 0 L 172 0 L 172 1518 L 379 1518 L 379 186 L 1227 186 L 1227 1518 L 1432 1518 L 1432 0 L 905 0 L 905 -340 L 698 -340 L 698 0 Z" unicode="Џ" />
<glyph horiz-adv-x="1520" d="M 653 1528 L 864 1528 L 1473 0 L 1260 0 L 1135 319 L 377 319 L 252 0 L 45 0 L 653 1528 Z M 1061 510 L 754 1280 L 446 510 L 1061 510 Z" unicode="А" />
<glyph horiz-adv-x="1483" d="M 172 1518 L 1204 1518 L 1204 1319 L 369 1319 L 369 918 L 854 918 C 1041 918 1177 883 1263 814 C 1348 745 1391 631 1391 473 C 1391 307 1347 186 1259 112 C 1171 37 1034 0 848 0 L 172 0 L 172 1518 Z M 854 182 C 975 182 1060 204 1110 248 C 1159 292 1184 364 1184 463 C 1184 530 1173 583 1152 622 C 1131 661 1098 689 1053 707 C 1008 724 940 733 850 733 L 369 733 L 369 182 L 854 182 Z" unicode="Б" />
<glyph horiz-adv-x="1468" d="M 172 1518 L 842 1518 C 1018 1518 1146 1487 1228 1427 C 1309 1367 1350 1272 1350 1143 C 1350 952 1286 837 1159 797 C 1239 777 1297 737 1334 679 C 1370 620 1389 534 1389 420 C 1389 273 1345 166 1259 100 C 1172 33 1029 0 829 0 L 172 0 L 172 1518 Z M 852 186 C 964 186 1047 205 1100 244 C 1153 283 1180 348 1180 438 C 1180 524 1153 587 1100 626 C 1047 664 963 684 848 684 L 375 684 L 375 186 L 852 186 Z M 848 877 C 949 877 1023 895 1070 933 C 1117 971 1141 1031 1141 1114 C 1141 1189 1116 1244 1068 1278 C 1019 1312 946 1329 848 1329 L 375 1329 L 375 877 L 848 877 Z" unicode="В" />
<glyph horiz-adv-x="1221" d="M 172 1518 L 1171 1518 L 1171 1319 L 379 1319 L 379 0 L 172 0 L 172 1518 Z" unicode="Г" />
<glyph horiz-adv-x="1794" d="M 94 190 L 145 190 C 195 190 228 199 246 217 C 263 235 272 272 272 330 L 272 1518 L 1530 1518 L 1530 190 L 1700 190 L 1700 -340 L 1491 -340 L 1491 0 L 301 0 L 301 -340 L 94 -340 L 94 190 Z M 1321 184 L 1321 1323 L 475 1323 L 475 322 C 475 292 473 266 470 242 C 466 218 455 199 436 184 L 1321 184 Z" unicode="Д" />
<glyph horiz-adv-x="1335" d="M 172 1518 L 1210 1518 L 1210 1319 L 379 1319 L 379 883 L 1190 883 L 1190 686 L 379 686 L 379 190 L 1219 190 L 1219 0 L 172 0 L 172 1518 Z" unicode="Е" />
<glyph horiz-adv-x="2392" d="M 305 0 L 72 0 L 681 919 L 145 1518 L 377 1518 L 1098 713 L 1098 1518 L 1294 1518 L 1294 715 L 2015 1518 L 2247 1518 L 1711 920 L 2320 0 L 2087 0 L 1576 769 L 1294 454 L 1294 0 L 1098 0 L 1098 454 L 816 769 L 305 0 Z" unicode="Ж" />
<glyph horiz-adv-x="1384" d="M 686 -25 C 558 -25 441 -13 337 9 C 232 32 135 70 47 123 L 145 297 C 303 211 482 168 680 168 C 797 168 883 176 938 194 C 993 211 1033 239 1058 279 C 1083 319 1096 374 1096 446 C 1096 521 1081 576 1053 612 C 1024 648 977 674 911 690 C 845 706 757 715 645 715 L 311 715 L 311 905 L 641 905 C 746 905 828 912 886 927 C 944 942 986 966 1013 1000 C 1039 1034 1053 1081 1053 1141 C 1053 1216 1026 1269 973 1301 C 919 1332 820 1348 676 1348 C 588 1348 500 1338 410 1318 C 320 1298 247 1272 193 1241 L 86 1409 C 152 1449 242 1482 354 1506 C 466 1530 578 1542 690 1542 C 890 1542 1036 1512 1126 1454 C 1216 1396 1262 1306 1262 1184 C 1262 1083 1247 1007 1218 956 C 1188 904 1135 864 1059 836 C 1150 806 1213 763 1249 706 C 1285 649 1303 558 1303 434 C 1303 277 1254 161 1158 87 C 1061 12 904 -25 686 -25 Z" unicode="З" />
<glyph horiz-adv-x="1620" d="M 172 1518 L 369 1518 L 369 360 L 1223 1518 L 1448 1518 L 1448 0 L 1251 0 L 1251 1204 L 360 0 L 172 0 L 172 1518 Z" unicode="И" />
<glyph horiz-adv-x="1620" d="M 172 1518 L 369 1518 L 369 360 L 1223 1518 L 1448 1518 L 1448 0 L 1251 0 L 1251 1204 L 360 0 L 172 0 L 172 1518 Z M 805 1581 C 726 1581 660 1592 608 1615 C 555 1638 513 1672 481 1718 C 449 1763 425 1828 408 1913 L 555 1943 C 571 1869 599 1817 638 1788 C 676 1759 732 1745 805 1745 C 877 1745 932 1759 971 1788 C 1010 1817 1038 1869 1055 1943 L 1205 1915 C 1187 1831 1162 1766 1130 1720 C 1098 1674 1055 1639 1002 1616 C 949 1592 883 1581 805 1581 Z" unicode="Й" />
<glyph horiz-adv-x="1473" d="M 172 1518 L 375 1518 L 375 721 L 1090 1518 L 1327 1518 L 791 920 L 1401 0 L 1165 0 L 655 768 L 375 455 L 375 0 L 172 0 L 172 1518 Z" unicode="К" />
<glyph horiz-adv-x="1702" d="M 94 190 L 141 190 C 176 190 202 193 219 201 C 236 208 248 221 255 239 C 262 257 266 287 266 330 L 266 1518 L 1530 1518 L 1530 0 L 1321 0 L 1321 1323 L 473 1323 L 473 295 C 473 187 453 110 413 65 C 373 20 305 -2 209 -2 L 94 2 L 94 190 Z" unicode="Л" />
<glyph horiz-adv-x="1907" d="M 172 1518 L 442 1518 L 954 291 L 1468 1518 L 1735 1518 L 1735 0 L 1532 0 L 1532 1171 L 1036 0 L 864 0 L 371 1169 L 371 0 L 172 0 L 172 1518 Z" unicode="М" />
<glyph horiz-adv-x="1612" d="M 172 1518 L 379 1518 L 379 891 L 1233 891 L 1233 1518 L 1440 1518 L 1440 0 L 1233 0 L 1233 686 L 379 686 L 379 0 L 172 0 L 172 1518 Z" unicode="Н" />
<glyph horiz-adv-x="1718" d="M 858 -25 C 342 -25 84 236 84 760 C 84 1281 342 1542 858 1542 C 1374 1542 1632 1281 1632 760 C 1632 236 1374 -25 858 -25 Z M 858 168 C 1236 168 1425 364 1425 756 C 1425 1147 1236 1343 858 1343 C 668 1343 526 1294 433 1197 C 339 1100 293 953 293 756 C 293 558 340 410 434 313 C 528 216 669 168 858 168 Z" unicode="О" />
<glyph horiz-adv-x="1604" d="M 172 1518 L 1432 1518 L 1432 0 L 1225 0 L 1225 1323 L 375 1323 L 375 0 L 172 0 L 172 1518 Z" unicode="П" />
<glyph horiz-adv-x="1475" d="M 172 1518 L 854 1518 C 1038 1518 1174 1480 1261 1404 C 1347 1328 1391 1210 1391 1049 C 1391 879 1346 753 1256 671 C 1166 589 1030 549 848 549 L 375 549 L 375 0 L 172 0 L 172 1518 Z M 854 741 C 970 741 1054 765 1106 813 C 1158 861 1184 936 1184 1038 C 1184 1142 1159 1215 1109 1259 C 1059 1303 972 1325 850 1325 L 375 1325 L 375 741 L 854 741 Z" unicode="Р" />
<glyph horiz-adv-x="1497" d="M 842 -23 C 586 -23 396 41 271 170 C 146 299 84 496 84 760 C 84 1017 148 1212 278 1344 C 407 1476 598 1542 852 1542 C 1081 1542 1264 1475 1401 1343 L 1251 1194 C 1143 1293 1010 1343 850 1343 C 478 1343 293 1148 293 758 C 293 559 339 412 431 316 C 523 220 663 172 852 172 C 912 172 965 177 1013 188 C 1061 199 1103 215 1141 235 C 1178 255 1219 286 1264 328 L 1411 186 C 1335 110 1252 57 1160 25 C 1068 -7 962 -23 842 -23 Z" unicode="С" />
<glyph horiz-adv-x="1419" d="M 606 1319 L 49 1319 L 49 1518 L 1372 1518 L 1372 1319 L 815 1319 L 815 0 L 606 0 L 606 1319 Z" unicode="Т" />
<glyph horiz-adv-x="1434" d="M 45 1518 L 266 1518 L 751 577 L 1200 1518 L 1409 1518 L 782 248 C 744 172 711 118 683 87 C 654 55 621 33 583 19 C 545 5 496 -2 438 -2 L 364 -2 L 301 0 L 301 184 L 406 184 C 461 184 500 191 523 206 C 546 220 568 250 588 295 L 632 388 L 45 1518 Z" unicode="У" />
<glyph horiz-adv-x="2173" d="M 987 246 L 629 246 C 447 246 311 289 220 376 C 129 463 84 600 84 786 C 84 967 128 1099 217 1183 C 306 1267 442 1309 625 1309 L 987 1309 L 987 1518 L 1186 1518 L 1186 1309 L 1550 1309 C 1732 1309 1867 1268 1956 1186 C 2044 1104 2089 973 2089 791 C 2089 603 2043 466 1952 378 C 1860 290 1725 246 1546 246 L 1186 246 L 1186 0 L 987 0 L 987 246 Z M 987 434 L 987 1122 L 629 1122 C 513 1122 428 1094 374 1040 C 320 986 293 900 293 782 C 293 664 320 577 374 520 C 428 462 510 434 621 434 L 987 434 Z M 1554 434 C 1771 434 1880 550 1880 782 C 1880 900 1853 986 1799 1040 C 1745 1094 1661 1122 1546 1122 L 1186 1122 L 1186 434 L 1554 434 Z" unicode="Ф" />
<glyph horiz-adv-x="1491" d="M 125 1518 L 354 1518 L 752 950 L 1139 1518 L 1368 1518 L 861 795 L 1419 0 L 1186 0 L 739 640 L 303 0 L 74 0 L 630 795 L 125 1518 Z" unicode="Х" />
<glyph horiz-adv-x="1700" d="M 1397 0 L 172 0 L 172 1518 L 379 1518 L 379 186 L 1227 186 L 1227 1518 L 1432 1518 L 1432 190 L 1606 190 L 1606 -340 L 1397 -340 L 1397 0 Z" unicode="Ц" />
<glyph horiz-adv-x="1526" d="M 1147 623 C 1119 572 1060 531 970 501 C 880 470 772 455 647 455 C 525 455 426 470 350 502 C 274 534 217 583 181 650 C 145 716 127 812 127 936 L 127 1518 L 332 1518 L 332 977 C 332 889 344 824 368 782 C 392 739 432 707 487 686 C 541 665 616 655 711 655 C 859 655 969 681 1040 735 C 1111 789 1147 877 1147 1001 L 1147 1518 L 1354 1518 L 1354 0 L 1147 0 L 1147 623 Z" unicode="Ч" />
<glyph horiz-adv-x="2421" d="M 172 1530 L 379 1530 L 379 186 L 1108 186 L 1108 1530 L 1315 1530 L 1315 186 L 2044 186 L 2044 1530 L 2249 1530 L 2249 0 L 172 0 L 172 1530 Z" unicode="Ш" />
<glyph horiz-adv-x="2515" d="M 2214 0 L 172 0 L 172 1530 L 379 1530 L 379 186 L 1108 186 L 1108 1530 L 1315 1530 L 1315 186 L 2044 186 L 2044 1530 L 2249 1530 L 2249 190 L 2421 190 L 2421 -340 L 2214 -340 L 2214 0 Z" unicode="Щ" />
<glyph horiz-adv-x="1554" d="M 252 1319 L 80 1319 L 80 1518 L 455 1518 L 455 948 L 934 948 C 1121 948 1257 911 1342 837 C 1427 763 1470 647 1470 487 C 1470 320 1426 197 1338 118 C 1250 39 1114 0 928 0 L 252 0 L 252 1319 Z M 934 184 C 1050 184 1134 207 1186 253 C 1238 299 1264 374 1264 477 C 1264 579 1239 652 1189 696 C 1139 740 1052 762 930 762 L 455 762 L 455 184 L 934 184 Z" unicode="Ъ" />
<glyph horiz-adv-x="1911" d="M 172 1518 L 375 1518 L 375 948 L 854 948 C 1040 948 1176 911 1262 837 C 1348 763 1391 647 1391 487 C 1391 319 1346 196 1258 118 C 1169 39 1032 0 848 0 L 172 0 L 172 1518 Z M 854 184 C 970 184 1054 207 1106 253 C 1158 299 1184 374 1184 477 C 1184 579 1159 652 1109 696 C 1059 740 972 762 850 762 L 375 762 L 375 184 L 854 184 Z M 1534 1518 L 1741 1518 L 1741 0 L 1534 0 L 1534 1518 Z" unicode="Ы" />
<glyph horiz-adv-x="1475" d="M 172 1518 L 375 1518 L 375 948 L 854 948 C 1040 948 1176 911 1262 837 C 1348 763 1391 647 1391 487 C 1391 319 1346 196 1258 118 C 1169 39 1032 0 848 0 L 172 0 L 172 1518 Z M 854 184 C 970 184 1054 207 1106 253 C 1158 299 1184 374 1184 477 C 1184 579 1159 652 1109 696 C 1059 740 972 762 850 762 L 375 762 L 375 184 L 854 184 Z" unicode="Ь" />
<glyph horiz-adv-x="1497" d="M 311 680 L 311 872 L 1199 872 C 1181 1027 1125 1144 1031 1224 C 937 1303 809 1343 647 1343 C 565 1343 490 1330 420 1304 C 350 1278 290 1242 238 1194 L 96 1343 C 232 1475 419 1542 655 1542 C 899 1542 1086 1475 1216 1342 C 1346 1209 1411 1015 1411 760 C 1411 238 1159 -23 655 -23 C 537 -23 431 -6 339 26 C 246 58 162 112 86 186 L 223 330 C 284 272 349 232 417 208 C 485 184 565 172 655 172 C 995 172 1177 341 1203 680 L 311 680 Z" unicode="Э" />
<glyph horiz-adv-x="2271" d="M 172 1518 L 379 1518 L 379 877 L 651 877 C 687 1320 941 1542 1411 1542 C 1928 1542 2187 1281 2187 760 C 2187 236 1928 -25 1411 -25 C 927 -25 673 210 649 682 L 379 682 L 379 0 L 172 0 L 172 1518 Z M 1411 168 C 1601 168 1742 216 1836 314 C 1929 411 1976 558 1976 756 C 1976 952 1929 1099 1837 1197 C 1744 1294 1602 1343 1411 1343 C 1221 1343 1079 1294 986 1197 C 892 1100 846 953 846 756 C 846 558 893 410 987 313 C 1081 216 1222 168 1411 168 Z" unicode="Ю" />
<glyph horiz-adv-x="1499" d="M 1124 584 L 699 584 L 362 0 L 141 0 L 487 598 C 367 618 276 666 212 742 C 148 818 117 923 117 1059 C 117 1217 160 1333 248 1407 C 335 1481 469 1518 651 1518 L 1327 1518 L 1327 0 L 1124 0 L 1124 584 Z M 1124 772 L 1124 1329 L 659 1329 C 537 1329 451 1307 401 1263 C 351 1219 326 1148 326 1051 C 326 955 351 884 401 839 C 451 794 535 772 653 772 L 1124 772 Z" unicode="Я" />
<glyph horiz-adv-x="1284" d="M 487 -20 C 350 -20 248 7 181 61 C 113 115 80 203 80 324 C 80 432 102 516 147 574 C 192 632 267 675 371 701 C 475 727 628 741 831 741 L 892 741 C 890 810 881 860 863 891 C 845 921 816 944 776 958 C 736 972 680 979 608 979 C 546 979 486 970 428 952 C 369 934 317 911 272 883 L 168 1038 C 221 1074 290 1105 375 1129 C 459 1153 543 1165 627 1165 C 746 1165 838 1151 903 1125 C 968 1098 1015 1055 1043 996 C 1071 936 1085 841 1085 709 L 1085 303 C 1085 258 1087 228 1093 214 C 1099 199 1109 189 1124 184 C 1138 178 1163 176 1198 176 L 1198 2 C 1188 0 1160 -2 1116 -2 C 1056 -2 1012 7 984 26 C 956 45 936 79 922 127 C 884 74 829 36 759 14 C 689 -8 598 -20 487 -20 Z M 270 338 C 270 271 289 223 328 195 C 367 166 431 152 520 152 C 649 152 743 179 803 233 C 863 287 893 377 893 502 L 893 571 L 842 571 C 682 571 564 564 486 551 C 408 537 352 515 319 484 C 286 452 270 404 270 338 Z" unicode="а" />
<glyph horiz-adv-x="1309" d="M 655 -23 C 461 -23 318 26 228 126 C 137 226 92 383 92 598 L 92 831 C 92 1005 112 1148 154 1260 C 196 1372 262 1454 353 1508 C 444 1562 573 1589 739 1589 L 909 1589 L 909 1403 L 748 1403 C 590 1403 474 1368 402 1298 C 329 1228 293 1119 293 971 C 356 1075 495 1128 711 1128 C 883 1128 1010 1082 1093 991 C 1175 900 1217 752 1217 547 C 1217 354 1170 211 1078 117 C 986 23 845 -23 655 -23 Z M 655 158 C 779 158 870 189 928 252 C 985 315 1014 415 1014 551 C 1014 688 985 787 927 849 C 869 911 779 942 655 942 C 530 942 438 911 380 849 C 322 787 293 687 293 551 C 293 415 322 316 380 253 C 438 189 529 158 655 158 Z" unicode="б" />
<glyph horiz-adv-x="1270" d="M 147 1139 L 719 1139 C 869 1139 976 1117 1040 1075 C 1103 1032 1135 962 1135 864 C 1135 781 1123 720 1100 681 C 1076 641 1039 614 987 598 C 1051 582 1096 553 1124 510 C 1151 467 1165 402 1165 315 C 1165 236 1150 174 1121 129 C 1091 83 1046 50 984 30 C 922 10 831 0 711 0 L 147 0 L 147 1139 Z M 727 174 C 821 174 885 187 919 213 C 953 239 971 281 971 340 C 971 399 951 440 912 464 C 872 488 809 500 723 500 L 336 500 L 336 174 L 727 174 Z M 723 672 C 799 672 855 683 890 707 C 924 730 942 769 942 825 C 942 876 925 911 892 931 C 858 951 802 961 723 961 L 336 961 L 336 672 L 723 672 Z" unicode="в" />
<glyph horiz-adv-x="1053" d="M 147 1139 L 1006 1139 L 1006 958 L 348 958 L 348 0 L 147 0 L 147 1139 Z" unicode="г" />
<glyph horiz-adv-x="1528" d="M 90 176 L 135 176 C 170 176 196 179 213 187 C 230 194 242 207 249 225 C 256 243 260 273 260 317 L 260 1139 L 1266 1139 L 1266 176 L 1438 176 L 1438 -340 L 1249 -340 L 1249 0 L 276 0 L 276 -340 L 90 -340 L 90 176 Z M 1069 166 L 1069 963 L 461 963 L 461 305 C 461 271 458 243 453 221 C 447 199 437 181 422 166 L 1069 166 Z" unicode="д" />
<glyph horiz-adv-x="1229" d="M 651 -23 C 524 -23 419 -3 337 36 C 254 76 192 138 152 223 C 112 307 92 423 92 571 C 92 713 111 826 151 910 C 190 994 250 1057 332 1100 C 413 1143 518 1165 647 1165 C 725 1165 792 1156 847 1139 C 901 1121 947 1097 983 1066 C 1019 1034 1047 997 1067 953 C 1087 909 1102 858 1112 800 C 1122 742 1127 666 1127 570 L 1126 494 L 285 494 C 290 406 305 338 331 292 C 357 246 395 210 447 186 C 498 162 566 150 651 150 C 723 150 787 158 843 174 C 898 190 955 219 1014 262 L 1120 123 C 1052 70 982 32 908 10 C 834 -11 748 -23 651 -23 Z M 938 670 C 933 741 927 791 920 819 C 913 847 903 871 890 892 C 876 913 859 931 838 945 C 816 959 789 970 757 978 C 724 985 685 989 641 989 C 539 989 459 968 403 927 C 347 886 311 823 296 737 L 287 670 L 938 670 Z" unicode="е" />
<glyph horiz-adv-x="1784" d="M 797 1139 L 985 1139 L 985 555 L 1491 1139 L 1710 1139 L 1308 665 L 1751 0 L 1530 0 L 1174 518 L 985 302 L 985 0 L 797 0 L 797 302 L 609 517 L 254 0 L 33 0 L 475 667 L 72 1139 L 291 1139 L 797 556 L 797 1139 Z" unicode="ж" />
<glyph horiz-adv-x="1174" d="M 561 -25 C 346 -25 173 13 43 90 L 131 248 C 245 185 381 154 541 154 C 639 154 709 159 751 170 C 793 181 822 200 840 226 C 857 252 866 290 866 340 C 866 396 855 436 834 459 C 812 482 777 498 727 508 C 677 517 606 522 514 522 L 262 522 L 262 700 L 510 700 C 609 700 679 704 721 713 C 763 721 792 736 809 757 C 825 777 834 809 834 852 C 834 888 826 915 810 933 C 794 951 768 965 733 973 C 697 981 632 985 537 985 C 472 985 405 977 336 963 C 267 949 211 930 168 907 L 70 1063 C 121 1093 192 1117 284 1136 C 376 1155 469 1165 565 1165 C 737 1165 858 1144 929 1103 C 1000 1061 1036 991 1036 893 C 1036 813 1025 754 1003 715 C 981 676 941 647 885 629 C 954 611 1002 581 1028 539 C 1054 497 1067 426 1067 324 C 1067 238 1050 170 1016 120 C 982 69 930 32 860 9 C 789 -13 689 -25 561 -25 Z" unicode="з" />
<glyph horiz-adv-x="1309" d="M 147 1139 L 342 1139 L 342 330 L 942 1139 L 1159 1139 L 1159 0 L 965 0 L 965 856 L 330 0 L 147 0 L 147 1139 Z" unicode="и" />
<glyph horiz-adv-x="1309" d="M 147 1139 L 342 1139 L 342 330 L 942 1139 L 1159 1139 L 1159 0 L 965 0 L 965 856 L 330 0 L 147 0 L 147 1139 Z M 651 1233 C 572 1233 506 1244 454 1267 C 401 1290 359 1324 327 1370 C 295 1415 271 1480 254 1565 L 401 1595 C 417 1521 445 1469 484 1440 C 522 1411 578 1397 651 1397 C 723 1397 778 1411 817 1440 C 856 1469 884 1521 901 1595 L 1051 1567 C 1033 1483 1008 1418 976 1372 C 944 1326 901 1291 848 1268 C 795 1244 729 1233 651 1233 Z" unicode="й" />
<glyph horiz-adv-x="1143" d="M 147 1139 L 344 1139 L 344 552 L 852 1139 L 1069 1139 L 668 666 L 1110 0 L 889 0 L 534 519 L 344 300 L 344 0 L 147 0 L 147 1139 Z" unicode="к" />
<glyph horiz-adv-x="1417" d="M 90 176 L 135 176 C 185 176 219 184 237 202 C 255 220 264 258 264 317 L 264 1139 L 1268 1139 L 1268 0 L 1069 0 L 1069 963 L 461 963 L 461 295 C 461 185 441 108 403 64 C 364 20 297 -2 203 -2 L 90 2 L 90 176 Z" unicode="л" />
<glyph horiz-adv-x="1548" d="M 147 1139 L 399 1139 L 788 262 L 1176 1139 L 1423 1139 L 1423 0 L 1225 0 L 1225 827 L 862 0 L 698 0 L 334 827 L 334 0 L 147 0 L 147 1139 Z" unicode="м" />
<glyph horiz-adv-x="1305" d="M 147 1139 L 348 1139 L 348 686 L 956 686 L 956 1139 L 1155 1139 L 1155 0 L 956 0 L 956 498 L 348 498 L 348 0 L 147 0 L 147 1139 Z" unicode="н" />
<glyph horiz-adv-x="1309" d="M 653 -23 C 461 -23 319 24 228 120 C 137 216 92 366 92 571 C 92 775 137 925 228 1021 C 318 1117 460 1165 653 1165 C 847 1165 989 1117 1080 1021 C 1171 925 1217 775 1217 571 C 1217 367 1171 217 1080 121 C 989 25 847 -23 653 -23 Z M 653 158 C 777 158 868 190 926 254 C 984 318 1014 423 1014 567 C 1014 709 984 813 926 878 C 868 942 777 975 653 975 C 529 975 438 942 380 878 C 322 813 293 709 293 567 C 293 423 322 318 380 254 C 438 190 529 158 653 158 Z" unicode="о" />
<glyph horiz-adv-x="1303" d="M 147 1139 L 1153 1139 L 1153 0 L 954 0 L 954 963 L 344 963 L 344 0 L 147 0 L 147 1139 Z" unicode="п" />
<glyph horiz-adv-x="1343" d="M 147 1128 L 305 1139 L 322 1018 C 354 1069 406 1106 477 1130 C 547 1153 643 1165 764 1165 C 877 1165 969 1143 1041 1100 C 1113 1057 1166 993 1200 909 C 1234 824 1251 711 1251 571 C 1251 365 1210 216 1129 122 C 1047 28 923 -18 756 -18 C 642 -18 554 -7 490 14 C 426 35 378 70 348 119 L 348 -338 L 147 -338 L 147 1128 Z M 721 162 C 833 162 916 192 969 254 C 1022 316 1049 419 1049 565 C 1049 712 1022 817 970 880 C 917 943 834 975 721 975 C 585 975 488 943 432 881 C 376 819 348 713 348 565 C 348 415 375 310 431 251 C 487 191 583 162 721 162 Z" unicode="р" />
<glyph horiz-adv-x="1165" d="M 647 -20 C 458 -20 318 26 228 118 C 137 210 92 361 92 571 C 92 715 111 829 151 913 C 190 997 251 1060 334 1102 C 417 1144 524 1165 655 1165 C 836 1165 977 1108 1079 995 L 934 858 C 895 898 853 928 808 946 C 762 964 711 973 655 973 C 529 973 438 941 380 878 C 322 814 293 711 293 567 C 293 420 322 315 380 252 C 438 189 529 158 655 158 C 712 158 763 167 809 185 C 855 203 900 233 944 274 L 1077 147 C 1009 84 943 40 877 16 C 811 -7 735 -20 647 -20 Z" unicode="с" />
<glyph horiz-adv-x="1139" d="M 469 958 L 49 958 L 49 1139 L 1090 1139 L 1090 958 L 670 958 L 670 0 L 469 0 L 469 958 Z" unicode="т" />
<glyph horiz-adv-x="1114" d="M 14 1139 L 227 1139 L 562 250 L 893 1139 L 1102 1139 L 618 -96 C 585 -186 542 -250 489 -288 C 436 -325 360 -344 262 -344 L 211 -344 L 158 -342 L 158 -180 L 246 -180 C 304 -180 344 -172 368 -157 C 392 -141 410 -114 422 -76 L 456 13 L 14 1139 Z" unicode="у" />
<glyph horiz-adv-x="2183" d="M 995 121 C 959 71 909 35 845 13 C 781 -8 693 -20 582 -20 C 415 -20 292 27 212 122 C 132 217 92 368 92 575 C 92 780 133 930 215 1024 C 297 1118 421 1165 588 1165 C 699 1165 787 1154 852 1133 C 916 1112 964 1077 995 1028 L 995 1589 L 1186 1589 L 1186 1026 C 1215 1072 1262 1107 1327 1130 C 1392 1153 1484 1165 1604 1165 C 1768 1165 1889 1118 1969 1025 C 2049 931 2089 780 2089 571 C 2089 365 2048 216 1967 122 C 1885 28 1761 -18 1593 -18 C 1480 -18 1391 -7 1327 14 C 1263 36 1216 71 1186 119 L 1186 -338 L 995 -338 L 995 121 Z M 625 162 C 759 162 855 193 911 256 C 967 319 995 425 995 575 C 995 724 967 828 912 888 C 857 947 761 977 625 977 C 511 977 427 946 374 885 C 321 824 295 721 295 575 C 295 426 321 320 374 257 C 426 193 510 162 625 162 Z M 1559 162 C 1673 162 1756 192 1809 254 C 1861 316 1888 419 1888 565 C 1888 713 1861 818 1808 881 C 1755 943 1672 975 1559 975 C 1422 975 1326 943 1270 881 C 1214 819 1186 713 1186 565 C 1186 415 1213 310 1269 251 C 1325 191 1421 162 1559 162 Z" unicode="ф" />
<glyph horiz-adv-x="1139" d="M 70 1139 L 291 1139 L 577 739 L 856 1139 L 1071 1139 L 681 593 L 1106 0 L 883 0 L 561 450 L 250 0 L 33 0 L 458 595 L 70 1139 Z" unicode="х" />
<glyph horiz-adv-x="1415" d="M 1137 0 L 147 0 L 147 1139 L 348 1139 L 348 172 L 956 172 L 956 1139 L 1153 1139 L 1153 176 L 1325 176 L 1325 -340 L 1137 -340 L 1137 0 Z" unicode="ц" />
<glyph horiz-adv-x="1288" d="M 942 418 C 914 373 865 339 795 316 C 724 292 637 281 535 281 C 431 281 349 296 288 327 C 227 358 183 405 155 469 C 127 532 113 626 113 752 L 113 1139 L 311 1139 L 311 791 C 311 701 320 636 339 596 C 357 556 387 526 429 506 C 471 486 527 477 598 477 C 716 477 803 502 858 554 C 912 606 940 693 940 815 L 940 1139 L 1139 1139 L 1139 0 L 942 0 L 942 418 Z" unicode="ч" />
<glyph horiz-adv-x="2056" d="M 147 1139 L 348 1139 L 348 172 L 932 172 L 932 1139 L 1128 1139 L 1128 172 L 1712 172 L 1712 1139 L 1907 1139 L 1907 0 L 147 0 L 147 1139 Z" unicode="ш" />
<glyph horiz-adv-x="2169" d="M 1892 0 L 147 0 L 147 1139 L 348 1139 L 348 172 L 932 172 L 932 1139 L 1128 1139 L 1128 172 L 1712 172 L 1712 1139 L 1907 1139 L 1907 176 L 2079 176 L 2079 -340 L 1892 -340 L 1892 0 Z" unicode="щ" />
<glyph horiz-adv-x="1378" d="M 260 958 L 90 958 L 90 1139 L 459 1139 L 459 809 L 866 809 C 1142 809 1280 677 1280 414 C 1280 277 1244 174 1174 104 C 1103 34 999 0 862 0 L 260 0 L 260 958 Z M 834 166 C 914 166 975 185 1016 223 C 1056 261 1077 322 1077 406 C 1077 487 1057 546 1019 583 C 980 620 917 639 829 639 L 459 639 L 459 166 L 834 166 Z" unicode="ъ" />
<glyph horiz-adv-x="1634" d="M 147 1139 L 344 1139 L 344 809 L 754 809 C 1029 809 1167 677 1167 414 C 1167 277 1131 174 1061 104 C 991 34 887 0 750 0 L 147 0 L 147 1139 Z M 721 166 C 801 166 862 185 903 223 C 944 261 965 322 965 406 C 965 487 945 546 907 583 C 868 620 805 639 717 639 L 344 639 L 344 166 L 721 166 Z M 1286 1139 L 1487 1139 L 1487 0 L 1286 0 L 1286 1139 Z" unicode="ы" />
<glyph horiz-adv-x="1268" d="M 147 1139 L 344 1139 L 344 811 L 754 811 C 1029 811 1167 678 1167 414 C 1167 277 1131 174 1061 104 C 991 34 887 0 750 0 L 147 0 L 147 1139 Z M 721 166 C 801 166 862 185 903 223 C 944 261 965 322 965 406 C 965 487 945 546 907 583 C 868 620 805 639 717 639 L 344 639 L 344 166 L 721 166 Z" unicode="ь" />
<glyph horiz-adv-x="1165" d="M 250 492 L 250 670 L 872 670 C 861 782 827 862 770 910 C 713 958 627 983 512 983 C 400 983 304 941 225 858 L 90 995 C 188 1108 330 1165 516 1165 C 647 1165 753 1144 835 1102 C 916 1060 976 998 1015 915 C 1053 831 1073 717 1073 571 C 1073 426 1053 312 1015 229 C 977 145 917 83 836 42 C 754 0 649 -20 520 -20 C 432 -20 355 -8 289 16 C 223 40 155 83 86 147 L 211 272 C 254 233 299 204 347 186 C 394 167 449 158 512 158 C 594 158 660 169 711 191 C 761 213 800 247 826 294 C 852 340 868 406 874 492 L 250 492 Z" unicode="э" />
<glyph horiz-adv-x="1731" d="M 147 1139 L 348 1139 L 348 680 L 528 680 C 542 848 594 971 683 1049 C 771 1126 902 1165 1075 1165 C 1269 1165 1411 1117 1501 1021 C 1591 925 1636 775 1636 571 C 1636 366 1591 216 1501 120 C 1411 24 1269 -23 1075 -23 C 955 -23 856 -4 778 31 C 700 67 640 123 598 198 C 556 272 532 373 525 500 L 348 500 L 348 0 L 147 0 L 147 1139 Z M 1075 158 C 1201 158 1293 189 1351 253 C 1409 316 1438 421 1438 567 C 1438 712 1409 816 1352 880 C 1294 943 1202 975 1075 975 C 949 975 857 943 801 880 C 745 817 717 713 717 567 C 717 421 745 316 802 253 C 859 189 950 158 1075 158 Z" unicode="ю" />
<glyph horiz-adv-x="1296" d="M 950 399 L 567 399 L 338 0 L 125 0 L 364 416 C 277 438 213 478 171 536 C 129 594 109 672 109 770 C 109 896 143 989 213 1049 C 283 1109 388 1139 528 1139 L 1149 1139 L 1149 0 L 950 0 L 950 399 Z M 950 569 L 950 963 L 537 963 C 453 963 395 947 361 915 C 327 883 311 833 311 764 C 311 694 327 644 361 614 C 394 584 451 569 532 569 L 950 569 Z" unicode="я" />
<glyph horiz-adv-x="1229" d="M 299 1491 L 481 1491 L 481 1262 L 299 1262 L 299 1491 Z M 741 1491 L 921 1491 L 921 1262 L 741 1262 L 741 1491 Z M 651 -23 C 524 -23 419 -3 337 36 C 254 76 192 138 152 223 C 112 307 92 423 92 571 C 92 713 111 826 151 910 C 190 994 250 1057 332 1100 C 413 1143 518 1165 647 1165 C 725 1165 792 1156 847 1139 C 901 1121 947 1097 983 1066 C 1019 1034 1047 997 1067 953 C 1087 909 1102 858 1112 800 C 1122 742 1127 666 1127 570 L 1126 494 L 285 494 C 290 406 305 338 331 292 C 357 246 395 210 447 186 C 498 162 566 150 651 150 C 723 150 787 158 843 174 C 898 190 955 219 1014 262 L 1120 123 C 1052 70 982 32 908 10 C 834 -11 748 -23 651 -23 Z M 938 670 C 933 741 927 791 920 819 C 913 847 903 871 890 892 C 876 913 859 931 838 945 C 816 959 789 970 757 978 C 724 985 685 989 641 989 C 539 989 459 968 403 927 C 347 886 311 823 296 737 L 287 670 L 938 670 Z" unicode="ё" />
<glyph horiz-adv-x="1307" d="M 811 -180 L 827 -180 C 882 -178 919 -168 937 -149 C 955 -130 965 -90 967 -29 L 967 637 C 967 727 958 792 940 832 C 922 871 893 900 853 920 C 813 940 758 950 690 950 C 610 950 546 938 498 915 C 449 891 413 857 391 811 C 369 765 358 698 358 612 L 358 0 L 160 0 L 160 1249 L -10 1249 L -10 1430 L 160 1430 L 160 1589 L 358 1589 L 358 1430 L 641 1430 L 641 1249 L 358 1249 L 358 1022 C 417 1105 549 1147 754 1147 C 855 1147 935 1131 995 1101 C 1054 1070 1097 1023 1123 961 C 1149 899 1163 803 1163 674 L 1163 -53 C 1163 -130 1153 -189 1134 -229 C 1114 -269 1082 -299 1038 -317 C 994 -335 930 -344 848 -344 L 811 -344 L 811 -180 Z" unicode="ђ" />
<glyph horiz-adv-x="1053" d="M 662 1591 L 906 1591 L 543 1255 L 359 1255 L 662 1591 Z M 147 1139 L 1006 1139 L 1006 958 L 348 958 L 348 0 L 147 0 L 147 1139 Z" unicode="ѓ" />
<glyph horiz-adv-x="1165" d="M 647 -20 C 516 -20 410 0 329 42 C 247 84 187 147 149 231 C 111 315 92 429 92 571 C 92 716 111 830 150 914 C 188 998 249 1060 332 1102 C 414 1144 522 1165 655 1165 C 839 1165 981 1108 1079 995 L 942 858 C 899 902 854 934 806 954 C 758 973 708 983 655 983 C 538 983 451 958 394 909 C 337 859 304 780 294 670 L 918 670 L 918 492 L 291 492 C 299 370 331 283 387 233 C 443 183 533 158 655 158 C 717 158 771 167 818 186 C 865 204 910 233 952 272 L 1077 147 C 1009 84 943 40 877 16 C 811 -7 735 -20 647 -20 Z" unicode="є" />
<glyph horiz-adv-x="1098" d="M 543 -20 C 347 -20 183 24 51 113 L 154 268 C 273 192 407 154 555 154 C 662 154 734 166 772 191 C 810 215 829 259 829 322 C 829 354 822 379 808 399 C 794 418 770 434 738 446 C 705 458 644 471 555 487 C 417 511 322 537 268 563 C 214 589 174 624 148 668 C 122 711 109 768 109 840 C 109 952 145 1034 218 1086 C 290 1138 403 1165 555 1165 C 731 1165 876 1131 989 1065 L 895 901 C 795 954 683 981 559 981 C 469 981 405 970 366 948 C 326 926 307 890 307 840 C 307 792 323 757 355 735 C 387 712 457 692 563 674 C 633 661 696 648 753 635 C 809 621 858 603 898 579 C 938 555 968 523 990 484 C 1011 445 1022 394 1022 330 C 1022 204 985 114 912 60 C 839 6 716 -20 543 -20 Z" unicode="ѕ" />
<glyph horiz-adv-x="516" d="M 160 1139 L 356 1139 L 356 0 L 160 0 L 160 1139 Z M 158 1518 L 358 1518 L 358 1276 L 158 1276 L 158 1518 Z" unicode="і" />
<glyph horiz-adv-x="516" d="M -18 1509 L 145 1509 L 145 1278 L -18 1278 L -18 1509 Z M 373 1509 L 537 1509 L 537 1278 L 373 1278 L 373 1509 Z M 160 1139 L 356 1139 L 356 0 L 160 0 L 160 1139 Z" unicode="ї" />
<glyph horiz-adv-x="516" d="M 4 -180 L 20 -180 C 76 -178 114 -167 132 -146 C 150 -125 160 -80 160 -12 L 160 1139 L 356 1139 L 356 -10 C 356 -106 346 -176 328 -220 C 309 -264 278 -296 234 -315 C 190 -334 126 -344 41 -344 L 4 -344 L 4 -180 Z M 158 1518 L 358 1518 L 358 1276 L 158 1276 L 158 1518 Z" unicode="ј" />
<glyph horiz-adv-x="2171" d="M 90 176 L 135 176 C 185 176 219 184 237 202 C 255 220 264 258 264 317 L 264 1139 L 1255 1139 L 1255 809 L 1661 809 C 1935 809 2073 677 2073 414 C 2073 278 2037 175 1966 105 C 1895 35 1791 0 1655 0 L 1063 0 L 1063 963 L 461 963 L 461 295 C 461 185 441 108 403 64 C 364 20 297 -2 203 -2 L 90 2 L 90 176 Z M 1628 166 C 1708 166 1768 185 1809 223 C 1849 261 1870 322 1870 406 C 1870 487 1850 546 1812 583 C 1773 620 1710 639 1622 639 L 1255 639 L 1255 166 L 1628 166 Z" unicode="љ" />
<glyph horiz-adv-x="2058" d="M 147 1139 L 348 1139 L 348 686 L 950 686 L 950 1139 L 1145 1139 L 1145 809 L 1548 809 C 1822 809 1960 677 1960 414 C 1960 277 1924 174 1854 104 C 1783 34 1680 0 1544 0 L 950 0 L 950 498 L 348 498 L 348 0 L 147 0 L 147 1139 Z M 1516 166 C 1595 166 1655 185 1696 223 C 1736 261 1757 322 1757 406 C 1757 486 1738 544 1700 582 C 1662 620 1599 639 1511 639 L 1145 639 L 1145 166 L 1516 166 Z" unicode="њ" />
<glyph horiz-adv-x="1307" d="M -10 1430 L 160 1430 L 160 1589 L 358 1589 L 358 1430 L 641 1430 L 641 1249 L 358 1249 L 358 1022 C 417 1105 549 1147 754 1147 C 855 1147 935 1131 995 1101 C 1054 1070 1097 1023 1123 961 C 1149 899 1163 803 1163 674 L 1163 0 L 967 0 L 967 637 C 967 727 958 792 940 832 C 922 871 893 900 853 920 C 813 940 758 950 690 950 C 610 950 546 938 498 915 C 449 891 413 857 391 811 C 369 765 358 698 358 612 L 358 0 L 160 0 L 160 1249 L -10 1249 L -10 1430 Z" unicode="ћ" />
<glyph horiz-adv-x="1143" d="M 703 1591 L 947 1591 L 584 1255 L 400 1255 L 703 1591 Z M 147 1139 L 344 1139 L 344 552 L 852 1139 L 1069 1139 L 668 666 L 1110 0 L 889 0 L 534 519 L 344 300 L 344 0 L 147 0 L 147 1139 Z" unicode="ќ" />
<glyph horiz-adv-x="1114" d="M 14 1139 L 227 1139 L 562 250 L 893 1139 L 1102 1139 L 618 -96 C 585 -186 542 -250 489 -288 C 436 -325 360 -344 262 -344 L 211 -344 L 158 -342 L 158 -180 L 246 -180 C 304 -180 344 -172 368 -157 C 392 -141 410 -114 422 -76 L 456 13 L 14 1139 Z M 562 1233 C 483 1233 417 1244 365 1267 C 312 1290 270 1324 238 1370 C 206 1415 182 1480 165 1565 L 312 1595 C 328 1521 356 1469 395 1440 C 433 1411 489 1397 562 1397 C 634 1397 689 1411 728 1440 C 767 1469 795 1521 812 1595 L 962 1567 C 944 1483 919 1418 887 1372 C 855 1326 812 1291 759 1268 C 706 1244 640 1233 562 1233 Z" unicode="ў" />
<glyph horiz-adv-x="1303" d="M 557 0 L 147 0 L 147 1139 L 348 1139 L 348 172 L 956 172 L 956 1139 L 1153 1139 L 1153 0 L 745 0 L 745 -340 L 557 -340 L 557 0 Z" unicode="џ" />
<glyph horiz-adv-x="1221" d="M 172 1518 L 963 1518 L 963 1858 L 1171 1858 L 1171 1319 L 379 1319 L 379 0 L 172 0 L 172 1518 Z" unicode="Ґ" />
<glyph horiz-adv-x="1053" d="M 147 1139 L 815 1139 L 815 1479 L 1006 1479 L 1006 958 L 348 958 L 348 0 L 147 0 L 147 1139 Z" unicode="ґ" />
<glyph horiz-adv-x="518" d="M 133 836 L 383 836 L 383 561 L 133 561 L 133 836 Z" unicode="∙" />
<glyph horiz-adv-x="1370" d="" unicode="√" />
<glyph horiz-adv-x="1139" d="M 471 928 L 113 928 L 113 1116 L 471 1116 L 471 1589 L 668 1589 L 668 1116 L 1026 1116 L 1026 928 L 668 928 L 668 -340 L 471 -340 L 471 928 Z" unicode="†" />
<glyph horiz-adv-x="1139" d="M 471 176 L 113 176 L 113 365 L 471 365 L 471 928 L 113 928 L 113 1116 L 471 1116 L 471 1589 L 668 1589 L 668 1116 L 1026 1116 L 1026 928 L 668 928 L 668 365 L 1026 365 L 1026 176 L 668 176 L 668 -340 L 471 -340 L 471 176 Z" unicode="‡" />
<glyph horiz-adv-x="725" d="M 199 807 L 526 807 L 526 438 L 199 438 L 199 807 Z" unicode="•" />
<glyph horiz-adv-x="1386" d="M 74 686 L 302 686 L 301 764 L 302 836 L 74 836 L 74 1006 L 316 1006 C 339 1186 396 1321 488 1409 C 579 1497 708 1542 874 1542 C 954 1542 1024 1536 1082 1524 C 1140 1512 1200 1491 1262 1460 L 1167 1288 C 1087 1332 991 1354 881 1354 C 770 1354 684 1325 624 1269 C 564 1213 525 1126 509 1010 L 508 1006 L 1020 1006 L 1020 836 L 495 836 L 494 768 L 495 686 L 1020 686 L 1020 516 L 509 516 L 510 511 C 526 391 564 303 624 245 C 684 187 768 158 877 158 C 930 158 980 163 1027 173 C 1074 183 1121 202 1169 231 L 1270 74 C 1213 38 1154 13 1093 -2 C 1031 -17 956 -25 866 -25 C 754 -25 660 -5 585 34 C 510 74 451 132 407 209 C 363 286 333 388 315 516 L 74 516 L 74 686 Z" unicode="€" />
<glyph horiz-adv-x="1485" d="M 133 270 L 383 270 L 383 0 L 133 0 L 133 270 Z M 616 270 L 866 270 L 866 0 L 616 0 L 616 270 Z M 1102 270 L 1352 270 L 1352 0 L 1102 0 L 1102 270 Z" unicode="…" />
<glyph horiz-adv-x="1292" d="" unicode="◊" />
<glyph horiz-adv-x="1704" d="" unicode="" />
<glyph horiz-adv-x="2775" d="M 172 1518 L 397 1518 L 1251 360 L 1251 1518 L 1448 1518 L 1448 0 L 1257 0 L 369 1204 L 369 0 L 172 0 L 172 1518 Z M 2107 582 C 1807 582 1657 742 1657 1063 C 1657 1219 1693 1338 1766 1420 C 1838 1501 1952 1542 2107 1542 C 2410 1542 2562 1382 2562 1063 C 2562 742 2410 582 2107 582 Z M 2107 735 C 2298 735 2394 843 2394 1059 C 2394 1274 2298 1382 2107 1382 C 1919 1382 1825 1274 1825 1059 C 1825 843 1919 735 2107 735 Z M 1712 438 L 2505 438 L 2505 283 L 1712 283 L 1712 438 Z" unicode="№" />
<glyph horiz-adv-x="2236" d="M 1006 1518 L 1178 1518 L 1481 791 L 1782 1518 L 1956 1518 L 1956 586 L 1804 586 L 1804 1247 L 1532 586 L 1425 586 L 1151 1247 L 1151 586 L 1006 586 L 1006 1518 Z M 440 1374 L 123 1374 L 123 1518 L 911 1518 L 911 1374 L 594 1374 L 594 586 L 440 586 L 440 1374 Z" unicode="™" />
<glyph horiz-adv-x="899" d="M 178 567 L 487 1139 L 668 1139 L 373 567 L 668 0 L 487 0 L 178 567 Z" unicode="‹" />
</font>
</defs>
</svg>
