<?xml version="1.0" standalone="yes"?><svg version="1.1" xmlns = 'http://www.w3.org/2000/svg'><defs><font id='web' horiz-adv-x="1000">
<font-face font-family="web" descent="-410" cap-height="1518" units-per-em="2048" bbox="-121,-500,3086,2091" x-height="1130" ascent="1638" />
<missing-glyph horiz-adv-x="1024" d="" /><glyph horiz-adv-x="1436" d="M 106 702 L 1329 702 L 1329 557 L 106 557 L 106 702 Z" unicode="–" />
<glyph horiz-adv-x="1886" d="M 106 702 L 1782 702 L 1782 557 L 106 557 L 106 702 Z" unicode="—" />
<glyph horiz-adv-x="489" d="M 141 1217 C 141 1259 143 1296 148 1327 C 153 1357 162 1384 175 1408 C 187 1431 205 1452 227 1470 C 249 1488 278 1506 313 1524 L 358 1440 C 335 1428 316 1416 302 1405 C 288 1393 276 1381 268 1369 C 260 1356 254 1342 251 1326 C 247 1310 246 1291 246 1270 L 346 1270 L 346 1036 L 141 1036 L 141 1217 Z" unicode="‘" />
<glyph horiz-adv-x="489" d="M 131 1114 C 153 1126 172 1137 186 1148 C 200 1159 212 1171 221 1184 C 229 1196 235 1210 239 1226 C 242 1242 244 1260 244 1282 L 141 1282 L 141 1518 L 346 1518 L 346 1339 C 346 1295 343 1258 339 1227 C 334 1196 325 1169 313 1145 C 300 1121 283 1101 261 1083 C 239 1065 210 1047 176 1030 L 131 1114 Z" unicode="’" />
<glyph horiz-adv-x="489" d="M 131 -135 C 153 -123 172 -111 186 -100 C 200 -89 212 -77 221 -65 C 229 -52 235 -38 239 -22 C 242 -6 244 13 244 35 L 141 35 L 141 268 L 346 268 L 346 88 C 346 47 343 11 339 -18 C 334 -48 325 -76 313 -100 C 300 -124 283 -145 261 -164 C 239 -183 210 -201 176 -219 L 131 -135 Z" unicode="‚" />
<glyph horiz-adv-x="856" d="M 141 1214 C 141 1256 143 1292 148 1322 C 153 1352 162 1379 175 1402 C 187 1425 205 1446 227 1464 C 249 1482 277 1500 311 1518 L 356 1434 C 333 1422 314 1410 300 1400 C 286 1389 274 1377 266 1365 C 258 1353 252 1339 249 1323 C 245 1307 244 1289 244 1268 L 344 1268 L 344 1038 L 141 1038 L 141 1214 Z M 514 1214 C 514 1256 516 1292 521 1322 C 525 1352 534 1379 546 1402 C 558 1425 576 1446 598 1464 C 620 1482 648 1500 682 1518 L 727 1434 C 704 1422 685 1410 671 1400 C 656 1389 644 1377 636 1365 C 628 1353 622 1339 619 1323 C 615 1307 614 1289 614 1268 L 715 1268 L 715 1038 L 514 1038 L 514 1214 Z" unicode="“" />
<glyph horiz-adv-x="856" d="M 131 1120 C 153 1132 171 1143 186 1154 C 200 1165 212 1177 220 1189 C 228 1201 234 1215 238 1231 C 242 1247 244 1266 244 1288 L 141 1288 L 141 1518 L 344 1518 L 344 1341 C 344 1298 341 1261 337 1231 C 332 1201 323 1174 311 1152 C 298 1129 281 1109 259 1091 C 237 1073 208 1055 174 1038 L 131 1120 Z M 500 1120 C 522 1132 541 1143 556 1154 C 570 1165 582 1177 591 1189 C 599 1201 605 1215 609 1231 C 612 1247 614 1266 614 1288 L 514 1288 L 514 1518 L 715 1518 L 715 1341 C 715 1298 712 1261 707 1231 C 702 1201 693 1174 681 1152 C 668 1129 651 1109 629 1091 C 607 1073 579 1055 545 1038 L 500 1120 Z" unicode="”" />
<glyph horiz-adv-x="856" d="M 131 -133 C 153 -121 171 -109 186 -99 C 200 -88 212 -76 220 -64 C 228 -52 234 -38 238 -22 C 242 -6 244 13 244 35 L 141 35 L 141 264 L 344 264 L 344 88 C 344 47 341 11 337 -18 C 332 -48 323 -75 311 -99 C 298 -122 281 -143 259 -162 C 237 -180 208 -198 174 -215 L 131 -133 Z M 500 -133 C 522 -121 541 -109 556 -99 C 570 -88 582 -76 591 -64 C 599 -52 605 -38 609 -22 C 612 -6 614 13 614 35 L 514 35 L 514 264 L 715 264 L 715 88 C 715 47 712 11 707 -18 C 702 -48 693 -75 681 -99 C 668 -122 651 -143 629 -162 C 607 -180 579 -198 545 -215 L 500 -133 Z" unicode="„" />
<glyph horiz-adv-x="481" d="" unicode=" " />
<glyph horiz-adv-x="733" d="M 264 225 L 469 225 L 469 0 L 264 0 L 264 225 Z M 281 1518 L 453 1518 L 434 418 L 299 418 L 281 1518 Z" unicode="!" />
<glyph horiz-adv-x="981" d="M 201 1518 L 360 1518 L 348 932 L 215 932 L 201 1518 Z M 621 1518 L 780 1518 L 768 932 L 633 932 L 621 1518 Z" unicode="&#x22;" />
<glyph horiz-adv-x="1507" d="M 381 455 L 135 455 L 135 596 L 408 596 L 469 918 L 135 918 L 135 1061 L 498 1061 L 586 1518 L 735 1518 L 645 1061 L 975 1061 L 1065 1518 L 1212 1518 L 1126 1061 L 1374 1061 L 1374 918 L 1098 918 L 1036 596 L 1374 596 L 1374 455 L 1010 455 L 922 0 L 772 0 L 860 455 L 532 455 L 444 0 L 293 0 L 381 455 Z M 895 590 L 961 926 L 612 926 L 547 590 L 895 590 Z" unicode="#" />
<glyph horiz-adv-x="1360" d="M 682 0 C 634 0 587 2 541 6 C 495 10 449 17 403 28 C 357 39 311 54 266 73 C 221 92 177 117 133 147 L 209 264 C 250 236 290 214 329 197 C 368 180 407 167 445 158 C 483 148 522 142 560 138 C 598 134 638 133 680 133 C 748 133 806 139 854 151 C 902 163 942 182 972 206 C 1002 230 1025 261 1039 298 C 1053 334 1061 377 1061 426 C 1061 477 1052 519 1035 552 C 1017 584 992 611 959 633 C 926 654 885 671 837 685 C 789 699 734 712 672 725 C 610 737 550 750 493 766 C 436 781 386 803 342 831 C 298 859 264 897 238 943 C 212 989 199 1050 199 1124 C 199 1260 238 1360 316 1424 C 394 1488 516 1520 682 1520 C 771 1520 854 1510 932 1491 C 1010 1472 1076 1444 1130 1407 L 1055 1286 C 1032 1301 1006 1314 978 1326 C 949 1338 918 1348 886 1356 C 854 1364 820 1370 786 1374 C 751 1378 716 1380 682 1380 C 619 1380 566 1374 524 1364 C 482 1353 448 1337 422 1316 C 396 1295 377 1269 366 1238 C 355 1206 350 1170 350 1130 C 350 1084 358 1046 376 1016 C 393 986 418 962 450 942 C 482 922 522 906 569 893 C 615 880 668 868 727 856 C 791 842 853 826 911 809 C 969 792 1021 768 1065 738 C 1109 708 1145 668 1171 620 C 1197 572 1210 510 1210 434 C 1210 363 1199 301 1179 247 C 1158 193 1126 147 1083 111 C 1039 74 984 46 918 28 C 852 9 773 0 682 0 Z M 616 59 L 623 74 L 623 1436 L 616 1452 L 616 1651 L 760 1651 L 760 1452 L 754 1440 L 754 78 L 760 57 L 760 -193 L 616 -193 L 616 59 Z" unicode="$" />
<glyph horiz-adv-x="2271" d="M 500 582 C 426 582 363 593 311 617 C 259 640 217 673 184 715 C 151 757 127 808 112 867 C 97 925 90 990 90 1061 C 90 1131 97 1195 112 1254 C 127 1313 151 1364 184 1406 C 217 1448 259 1482 311 1506 C 363 1530 426 1542 500 1542 C 572 1542 633 1530 685 1506 C 736 1482 778 1448 810 1406 C 842 1364 866 1313 882 1254 C 897 1195 905 1131 905 1061 C 905 990 897 925 882 867 C 866 808 842 757 810 715 C 778 673 736 640 685 617 C 633 593 572 582 500 582 Z M 500 709 C 550 709 591 717 625 735 C 659 753 686 777 707 809 C 727 841 742 878 751 921 C 759 964 764 1011 764 1061 C 764 1111 759 1157 751 1200 C 742 1243 727 1280 707 1311 C 686 1342 659 1366 625 1384 C 591 1402 550 1411 500 1411 C 449 1411 406 1402 372 1385 C 338 1367 310 1343 290 1312 C 269 1281 254 1244 246 1201 C 237 1158 233 1111 233 1061 C 233 1011 237 964 246 921 C 254 878 269 841 289 809 C 309 777 337 753 371 735 C 405 717 448 709 500 709 Z M 1772 -20 C 1699 -20 1637 -8 1586 15 C 1534 38 1492 71 1460 113 C 1427 155 1403 206 1388 265 C 1373 323 1366 388 1366 459 C 1366 529 1373 593 1388 652 C 1403 711 1427 762 1460 804 C 1492 846 1534 880 1586 904 C 1637 928 1699 940 1772 940 C 1844 940 1906 928 1958 904 C 2009 880 2051 846 2084 804 C 2116 762 2140 711 2156 652 C 2171 593 2179 529 2179 459 C 2179 388 2171 323 2156 265 C 2140 206 2116 155 2084 113 C 2051 71 2009 38 1958 15 C 1906 -8 1844 -20 1772 -20 Z M 1772 106 C 1822 106 1864 115 1898 133 C 1932 151 1959 175 1979 207 C 1999 238 2014 275 2023 319 C 2031 362 2036 409 2036 459 C 2036 508 2031 554 2023 597 C 2014 639 1999 676 1979 708 C 1959 739 1932 764 1898 782 C 1864 800 1822 809 1772 809 C 1722 809 1680 800 1646 782 C 1612 764 1584 740 1564 709 C 1543 677 1528 640 1520 598 C 1511 555 1507 509 1507 459 C 1507 409 1511 362 1520 319 C 1528 275 1543 238 1564 207 C 1584 175 1612 151 1646 133 C 1680 115 1722 106 1772 106 Z M 1483 1520 L 1630 1520 L 784 0 L 637 0 L 1483 1520 Z" unicode="%" />
<glyph horiz-adv-x="1614" d="M 600 -20 C 506 -20 428 -11 364 5 C 300 22 248 48 208 83 C 168 117 140 161 122 214 C 104 267 96 330 96 403 C 96 464 106 519 126 567 C 146 615 173 659 207 697 C 241 735 279 770 323 800 C 366 830 411 857 457 883 L 520 897 C 559 919 597 942 634 966 C 670 989 703 1014 731 1040 C 759 1066 781 1093 798 1123 C 814 1153 823 1186 823 1223 C 823 1284 811 1330 787 1360 C 763 1390 722 1405 662 1405 C 602 1405 557 1390 529 1360 C 501 1330 487 1285 487 1223 C 487 1163 497 1098 518 1028 C 539 958 568 887 605 815 C 642 743 685 673 735 605 C 785 537 839 475 897 420 C 966 354 1028 302 1084 265 C 1139 227 1189 199 1235 181 C 1281 163 1322 151 1360 147 C 1398 143 1434 141 1468 141 L 1491 141 L 1491 0 L 1464 0 C 1412 0 1361 3 1311 10 C 1261 16 1210 31 1157 54 C 1103 76 1046 109 985 153 C 924 196 856 254 780 328 C 716 390 657 459 603 534 C 549 608 502 685 463 764 C 423 843 393 922 371 1000 C 349 1078 338 1153 338 1223 C 338 1278 345 1326 360 1366 C 375 1406 397 1439 425 1465 C 453 1491 487 1510 527 1523 C 567 1535 612 1542 662 1542 C 762 1542 838 1516 888 1466 C 938 1415 963 1334 963 1223 C 963 1166 951 1116 929 1074 C 906 1031 876 992 840 958 C 803 924 761 893 715 865 C 669 837 622 809 575 782 L 508 762 C 473 740 440 717 409 693 C 377 669 350 642 326 613 C 302 584 283 553 269 519 C 255 485 248 447 248 406 C 248 360 252 318 261 282 C 269 246 286 215 312 190 C 338 164 374 145 420 131 C 466 117 526 111 600 111 C 699 111 783 127 851 159 C 919 191 977 239 1025 303 C 1073 367 1115 447 1150 543 C 1184 639 1218 751 1251 879 L 1386 846 C 1362 752 1337 665 1311 586 C 1285 506 1257 434 1226 370 C 1194 306 1159 249 1120 201 C 1081 152 1036 111 986 79 C 936 46 879 21 816 5 C 752 -11 680 -20 600 -20 Z" unicode="&#x26;" />
<glyph horiz-adv-x="563" d="M 201 1520 L 360 1520 L 348 932 L 215 932 L 201 1520 Z" unicode="'" />
<glyph horiz-adv-x="977" d="M 672 -377 C 639 -349 605 -317 571 -280 C 536 -243 502 -201 470 -155 C 438 -108 407 -57 378 -1 C 349 54 324 114 303 178 C 281 242 264 310 252 383 C 239 456 233 533 233 614 C 233 692 239 767 252 839 C 264 911 281 979 303 1044 C 324 1109 349 1170 378 1227 C 407 1284 438 1337 470 1385 C 502 1433 536 1477 571 1515 C 605 1553 639 1586 672 1614 L 782 1530 C 737 1488 691 1439 645 1381 C 599 1323 557 1256 519 1180 C 481 1104 451 1018 427 924 C 403 830 391 726 391 614 C 391 500 403 396 428 302 C 452 208 484 123 522 48 C 560 -27 603 -93 649 -150 C 695 -207 739 -255 782 -293 L 672 -377 L 672 -377 Z" unicode="(" />
<glyph horiz-adv-x="977" d="M 195 -293 C 239 -252 284 -203 330 -146 C 376 -88 417 -22 455 52 C 493 127 524 211 548 304 C 572 397 584 500 584 614 C 584 726 571 830 547 926 C 522 1021 491 1107 453 1184 C 415 1261 373 1329 327 1387 C 281 1445 237 1492 195 1530 L 303 1614 C 352 1572 402 1520 454 1457 C 506 1393 553 1319 596 1235 C 638 1151 673 1057 700 953 C 727 849 741 736 741 614 C 741 497 727 387 700 285 C 673 183 638 89 596 5 C 553 -79 506 -154 454 -219 C 402 -283 352 -336 303 -377 L 195 -293 Z" unicode=")" />
<glyph horiz-adv-x="1178" d="M 541 940 L 203 735 L 139 848 L 487 1032 L 139 1221 L 203 1333 L 541 1124 L 526 1520 L 651 1520 L 637 1124 L 975 1333 L 1038 1221 L 690 1032 L 1038 848 L 975 735 L 637 942 L 651 549 L 526 549 L 541 940 Z" unicode="*" />
<glyph horiz-adv-x="1425" d="M 635 649 L 217 649 L 217 797 L 635 797 L 635 1212 L 788 1212 L 788 797 L 1206 797 L 1206 649 L 788 649 L 788 231 L 635 231 L 635 649 Z" unicode="+" />
<glyph horiz-adv-x="489" d="M 131 -160 C 153 -148 172 -136 186 -126 C 200 -115 212 -104 221 -92 C 229 -80 235 -67 239 -53 C 242 -38 244 -20 244 0 L 141 0 L 141 227 L 346 227 L 346 55 C 346 12 343 -23 339 -53 C 334 -83 325 -109 313 -132 C 300 -154 283 -174 261 -192 C 239 -209 210 -226 176 -244 L 131 -160 Z" unicode="," />
<glyph horiz-adv-x="926" d="M 106 702 L 817 702 L 817 557 L 106 557 L 106 702 Z" unicode="-" />
<glyph horiz-adv-x="489" d="M 141 227 L 346 227 L 346 0 L 141 0 L 141 227 Z" unicode="." />
<glyph horiz-adv-x="1012" d="M 850 1518 L 1012 1518 L 162 0 L 0 0 L 850 1518 Z" unicode="/" />
<glyph horiz-adv-x="1493" d="M 748 -23 C 668 -23 599 -14 539 3 C 479 21 427 46 384 78 C 340 110 304 150 276 197 C 248 243 225 296 209 354 C 192 412 180 475 174 543 C 167 611 164 684 164 760 C 164 875 172 980 188 1076 C 204 1172 233 1254 276 1323 C 319 1392 379 1446 455 1484 C 531 1522 628 1542 748 1542 C 826 1542 895 1533 954 1516 C 1013 1498 1064 1473 1108 1441 C 1151 1409 1187 1370 1215 1324 C 1243 1278 1266 1226 1283 1168 C 1299 1110 1311 1046 1318 978 C 1325 909 1329 836 1329 760 C 1329 684 1325 611 1318 543 C 1311 475 1299 412 1283 354 C 1266 296 1243 243 1215 197 C 1187 150 1151 110 1108 78 C 1064 46 1013 21 954 3 C 895 -14 826 -23 748 -23 Z M 748 121 C 808 121 860 128 905 143 C 949 157 987 178 1019 206 C 1050 233 1075 266 1095 304 C 1115 342 1130 385 1142 433 C 1153 480 1161 531 1165 586 C 1169 641 1171 699 1171 760 C 1171 851 1166 935 1156 1013 C 1146 1091 1125 1158 1095 1214 C 1065 1270 1022 1315 967 1347 C 911 1379 838 1395 748 1395 C 656 1395 583 1379 527 1347 C 471 1315 429 1270 399 1214 C 369 1158 349 1091 339 1013 C 329 935 324 851 324 760 C 324 669 329 585 339 507 C 349 429 369 361 399 304 C 429 247 471 202 527 170 C 583 137 656 121 748 121 Z" unicode="0" />
<glyph horiz-adv-x="764" d="M 365 1370 L 76 1370 L 76 1518 L 518 1518 L 518 0 L 365 0 L 365 1370 Z" unicode="1" />
<glyph horiz-adv-x="1206" d="M 78 131 L 588 643 C 644 699 692 748 732 791 C 772 834 805 875 831 914 C 857 952 876 991 888 1030 C 900 1068 907 1111 907 1159 C 907 1200 901 1236 889 1266 C 877 1296 859 1321 833 1341 C 807 1361 773 1375 732 1385 C 691 1394 642 1399 584 1399 C 498 1399 420 1390 350 1373 C 280 1355 221 1334 174 1309 L 104 1436 C 135 1452 168 1466 202 1480 C 236 1493 274 1504 314 1513 C 354 1522 397 1529 443 1534 C 489 1539 540 1542 596 1542 C 673 1542 741 1535 799 1521 C 857 1507 905 1485 944 1455 C 983 1425 1012 1386 1032 1340 C 1051 1293 1061 1237 1061 1171 C 1061 1113 1054 1061 1040 1013 C 1026 965 1005 918 977 872 C 949 825 913 777 870 728 C 826 679 775 625 715 565 L 289 137 L 1085 137 L 1085 0 L 78 0 L 78 131 Z" unicode="2" />
<glyph horiz-adv-x="1251" d="M 596 -25 C 543 -25 493 -22 446 -17 C 399 -12 353 -4 309 7 C 264 18 220 33 177 51 C 133 69 89 91 45 117 L 123 240 C 163 218 203 199 241 183 C 279 167 317 154 355 144 C 393 134 431 126 470 122 C 508 117 548 115 590 115 C 654 115 710 120 757 131 C 804 141 843 159 874 185 C 904 210 927 244 941 286 C 955 328 963 380 963 442 C 963 494 957 539 946 579 C 935 619 915 652 885 678 C 855 704 813 724 760 738 C 706 751 637 758 553 758 L 344 758 L 344 897 L 549 897 C 619 897 677 901 725 911 C 772 921 810 936 839 958 C 868 979 889 1006 901 1040 C 913 1074 920 1115 920 1163 C 920 1207 913 1245 901 1275 C 889 1305 869 1330 843 1349 C 816 1367 782 1381 740 1389 C 698 1397 647 1401 588 1401 C 553 1401 517 1398 480 1394 C 443 1390 406 1383 370 1374 C 334 1365 298 1354 264 1341 C 230 1327 198 1312 168 1294 L 84 1413 C 120 1435 159 1455 201 1471 C 242 1487 285 1500 329 1511 C 373 1521 417 1529 463 1534 C 508 1539 553 1542 598 1542 C 677 1542 746 1535 805 1523 C 864 1511 913 1491 953 1463 C 992 1435 1021 1398 1041 1353 C 1061 1308 1071 1253 1071 1188 C 1071 1137 1066 1092 1056 1052 C 1046 1012 1033 977 1016 948 C 999 919 979 895 955 877 C 931 859 905 846 877 838 C 961 819 1022 776 1059 709 C 1095 642 1114 550 1114 432 C 1114 344 1102 271 1080 213 C 1057 154 1024 107 980 72 C 936 36 881 11 817 -3 C 753 -17 679 -25 596 -25 Z" unicode="3" />
<glyph horiz-adv-x="1366" d="M 109 510 L 788 1518 L 958 1518 L 281 518 L 1294 518 L 1294 383 L 109 383 L 109 510 Z M 864 492 L 897 1020 L 1012 1020 L 1012 0 L 864 0 L 864 492 Z" unicode="4" />
<glyph horiz-adv-x="1303" d="M 641 -23 C 583 -23 529 -19 480 -12 C 430 -4 384 5 342 18 C 299 31 259 46 222 63 C 185 79 150 97 117 117 L 197 242 C 227 225 259 209 291 194 C 323 178 357 165 393 153 C 429 141 467 132 507 125 C 547 118 590 115 637 115 C 694 115 748 120 798 130 C 848 140 891 158 929 186 C 966 213 995 250 1017 298 C 1038 346 1049 407 1049 483 C 1049 557 1039 618 1020 666 C 1000 714 973 752 939 780 C 905 808 864 827 816 839 C 768 850 715 856 659 856 C 619 856 583 854 551 851 C 519 848 488 843 460 837 C 432 831 405 823 379 813 C 353 803 327 792 301 780 L 170 819 L 209 1518 L 1096 1518 L 1096 1376 L 348 1376 L 324 926 C 358 944 407 961 470 975 C 532 989 606 997 692 997 C 764 997 832 989 894 974 C 956 959 1011 933 1057 895 C 1103 857 1139 805 1165 739 C 1191 673 1204 589 1204 487 C 1204 383 1189 297 1161 231 C 1133 165 1094 113 1044 75 C 994 37 934 12 865 -2 C 796 -16 721 -23 641 -23 Z" unicode="5" />
<glyph horiz-adv-x="1411" d="M 743 -23 C 645 -23 559 -11 485 11 C 411 34 350 71 302 122 C 253 172 216 238 192 319 C 168 400 156 498 156 614 C 156 720 161 817 172 903 C 183 989 202 1065 228 1132 C 254 1199 288 1257 331 1305 C 373 1353 426 1393 490 1425 C 554 1457 629 1480 716 1495 C 802 1510 902 1518 1016 1518 L 1079 1518 L 1079 1376 L 1012 1376 C 920 1376 839 1370 771 1359 C 702 1347 643 1331 593 1310 C 543 1288 501 1263 468 1233 C 435 1203 408 1169 387 1131 C 366 1093 350 1053 339 1009 C 328 965 320 918 315 870 C 356 922 416 960 495 984 C 574 1008 670 1020 784 1020 C 880 1020 961 1008 1025 984 C 1089 960 1141 925 1180 881 C 1218 837 1246 783 1262 719 C 1278 655 1286 584 1286 504 C 1286 422 1277 349 1259 284 C 1241 218 1211 163 1169 118 C 1127 72 1071 37 1001 13 C 931 -10 845 -23 743 -23 Z M 745 113 C 821 113 885 122 935 140 C 985 158 1024 184 1054 218 C 1083 251 1103 291 1115 339 C 1127 387 1133 440 1133 500 C 1133 558 1126 611 1114 659 C 1102 707 1081 747 1051 781 C 1021 815 981 841 931 859 C 881 877 819 887 745 887 C 682 887 624 880 571 866 C 518 852 472 831 434 803 C 396 775 366 739 345 697 C 323 654 313 604 313 547 C 313 465 323 396 343 341 C 363 285 391 241 428 207 C 465 173 510 148 564 134 C 617 120 677 113 745 113 Z" unicode="6" />
<glyph horiz-adv-x="1094" d="M 893 1376 L 45 1376 L 45 1518 L 1061 1518 L 1061 1393 L 449 0 L 287 0 L 893 1376 Z" unicode="7" />
<glyph horiz-adv-x="1423" d="M 713 -27 C 610 -27 522 -16 450 4 C 377 24 318 54 272 93 C 226 131 192 179 171 235 C 149 291 139 354 139 424 C 139 530 160 619 203 691 C 245 763 309 810 393 834 C 358 844 328 860 302 881 C 276 901 255 926 239 955 C 222 984 210 1016 202 1052 C 194 1088 190 1126 190 1167 C 190 1223 198 1275 215 1321 C 232 1367 261 1406 301 1439 C 341 1471 395 1497 462 1515 C 529 1533 613 1542 713 1542 C 813 1542 896 1533 963 1515 C 1029 1497 1083 1471 1123 1439 C 1163 1406 1191 1367 1208 1321 C 1224 1275 1233 1223 1233 1167 C 1233 1126 1229 1087 1221 1051 C 1213 1015 1200 982 1184 953 C 1167 924 1146 899 1120 879 C 1094 858 1064 843 1030 834 C 1074 821 1113 802 1145 778 C 1177 754 1204 724 1225 689 C 1246 654 1261 614 1271 570 C 1281 525 1286 476 1286 424 C 1286 354 1275 291 1253 235 C 1231 179 1196 131 1150 93 C 1104 54 1044 24 972 4 C 900 -16 813 -27 713 -27 Z M 713 109 C 855 109 960 136 1027 190 C 1094 244 1128 325 1128 434 C 1128 542 1094 624 1027 679 C 960 734 855 762 713 762 C 567 762 461 734 395 679 C 328 624 295 542 295 434 C 295 325 328 244 395 190 C 461 136 567 109 713 109 Z M 713 893 C 781 893 838 898 885 909 C 932 920 970 937 1000 959 C 1029 981 1050 1008 1063 1040 C 1076 1072 1083 1109 1083 1151 C 1083 1193 1076 1230 1063 1262 C 1050 1294 1029 1321 1000 1343 C 970 1365 932 1381 885 1392 C 838 1403 781 1409 713 1409 C 644 1409 586 1403 539 1392 C 491 1381 453 1365 423 1343 C 393 1321 372 1294 359 1262 C 346 1230 340 1193 340 1151 C 340 1109 346 1072 359 1040 C 372 1008 393 981 423 959 C 453 937 491 920 539 909 C 586 898 644 893 713 893 Z" unicode="8" />
<glyph horiz-adv-x="1411" d="M 336 137 L 403 137 C 495 137 576 142 646 154 C 715 166 775 183 825 205 C 875 227 916 253 949 284 C 982 314 1009 348 1029 386 C 1049 424 1065 465 1076 509 C 1086 553 1094 599 1100 647 C 1058 595 998 557 920 533 C 842 509 746 498 633 498 C 536 498 455 510 391 534 C 327 558 275 593 237 638 C 198 683 171 737 155 801 C 139 864 131 935 131 1014 C 131 1094 140 1167 158 1232 C 176 1297 206 1353 248 1399 C 290 1445 345 1480 415 1505 C 484 1529 570 1542 674 1542 C 772 1542 857 1530 931 1507 C 1004 1484 1065 1447 1114 1397 C 1163 1346 1200 1280 1225 1200 C 1249 1119 1262 1021 1262 905 C 1262 798 1256 702 1245 616 C 1234 530 1216 453 1190 386 C 1164 319 1129 261 1086 213 C 1043 164 990 124 926 92 C 862 60 787 37 701 22 C 614 7 514 0 401 0 L 336 0 L 336 137 Z M 670 627 C 733 627 791 634 844 648 C 897 662 943 683 981 711 C 1019 739 1048 775 1070 817 C 1091 859 1102 909 1102 967 C 1102 1049 1092 1117 1072 1173 C 1052 1228 1024 1272 987 1306 C 950 1340 905 1364 853 1379 C 800 1393 740 1401 674 1401 C 597 1401 533 1391 483 1373 C 433 1355 393 1329 363 1295 C 333 1261 313 1221 301 1173 C 289 1125 283 1072 283 1014 C 283 954 289 901 301 853 C 313 805 335 765 365 732 C 395 698 434 672 484 654 C 534 636 596 627 670 627 Z" unicode="9" />
<glyph horiz-adv-x="530" d="M 162 223 L 367 223 L 367 0 L 162 0 L 162 223 Z M 162 1130 L 367 1130 L 367 907 L 162 907 L 162 1130 Z" unicode=":" />
<glyph horiz-adv-x="530" d="M 152 -160 C 174 -148 193 -136 207 -126 C 221 -115 233 -104 241 -92 C 249 -80 255 -67 259 -53 C 262 -38 264 -20 264 0 L 162 0 L 162 223 L 367 223 L 367 55 C 367 12 364 -23 360 -53 C 355 -83 346 -109 334 -132 C 321 -154 304 -174 282 -192 C 260 -209 231 -226 197 -244 L 152 -160 Z M 162 1130 L 367 1130 L 367 907 L 162 907 L 162 1130 Z" unicode=";" />
<glyph horiz-adv-x="1425" d="M 213 649 L 213 768 L 1130 1227 L 1130 1081 L 371 709 L 1130 336 L 1130 186 L 213 649 Z" unicode="&#x3C;" />
<glyph horiz-adv-x="1425" d="M 229 573 L 1196 573 L 1196 428 L 229 428 L 229 573 Z M 229 1014 L 1196 1014 L 1196 870 L 229 870 L 229 1014 Z" unicode="=" />
<glyph horiz-adv-x="1425" d="M 295 336 L 1055 707 L 295 1079 L 295 1227 L 1212 766 L 1212 647 L 295 186 L 295 336 Z" unicode="&#x3E;" />
<glyph horiz-adv-x="1360" d="M 561 403 C 554 470 552 527 556 575 C 559 622 569 663 586 699 C 602 735 627 767 659 795 C 691 823 734 853 786 883 C 833 909 872 933 904 953 C 935 973 960 994 979 1014 C 998 1034 1012 1057 1020 1081 C 1028 1105 1032 1135 1032 1169 C 1032 1203 1028 1235 1020 1263 C 1012 1291 995 1315 971 1335 C 946 1355 911 1370 866 1381 C 820 1391 760 1397 686 1397 C 604 1397 526 1387 450 1368 C 374 1349 304 1323 242 1290 L 174 1425 C 207 1443 244 1460 286 1474 C 327 1488 370 1501 416 1511 C 461 1521 507 1528 555 1534 C 603 1539 650 1542 696 1542 C 792 1542 872 1534 936 1519 C 1000 1503 1050 1481 1088 1451 C 1125 1421 1151 1383 1167 1338 C 1182 1293 1190 1241 1190 1182 C 1190 1130 1183 1086 1171 1049 C 1158 1011 1139 978 1115 949 C 1091 919 1061 892 1026 868 C 990 843 950 818 905 793 C 859 767 822 743 795 721 C 767 699 747 674 734 647 C 720 619 713 586 711 548 C 709 510 710 461 715 403 L 561 403 Z M 535 209 L 739 209 L 739 0 L 535 0 L 535 209 Z" unicode="?" />
<glyph horiz-adv-x="2222" d="M 1124 -338 C 964 -338 825 -318 707 -278 C 589 -238 492 -179 415 -101 C 337 -22 280 75 242 192 C 204 308 186 444 186 598 C 186 910 264 1146 420 1305 C 576 1464 806 1544 1110 1544 C 1416 1544 1648 1464 1805 1305 C 1961 1146 2040 910 2040 598 C 2040 498 2035 415 2025 347 C 2015 279 1997 225 1971 184 C 1945 142 1910 113 1866 95 C 1822 77 1766 68 1698 68 C 1640 68 1595 73 1561 84 C 1527 94 1501 108 1483 125 C 1465 142 1453 161 1447 181 C 1441 201 1437 220 1436 240 C 1419 212 1399 187 1376 167 C 1352 146 1324 129 1292 115 C 1259 101 1221 91 1179 85 C 1136 79 1087 76 1032 76 C 952 76 884 88 828 113 C 772 138 726 174 691 220 C 656 266 631 322 615 388 C 599 454 592 527 592 608 C 592 688 600 760 616 826 C 632 891 658 947 694 993 C 729 1039 775 1075 832 1101 C 888 1126 957 1139 1038 1139 C 1092 1139 1139 1136 1181 1130 C 1222 1124 1258 1114 1289 1102 C 1319 1090 1345 1074 1366 1054 C 1387 1034 1405 1011 1419 983 L 1452 1130 L 1552 1124 L 1552 344 C 1552 321 1553 299 1557 277 C 1560 255 1568 236 1580 219 C 1592 202 1609 188 1632 178 C 1654 167 1685 162 1724 162 C 1770 162 1807 169 1835 185 C 1863 200 1885 225 1901 259 C 1916 293 1926 338 1931 394 C 1936 449 1939 517 1939 598 C 1939 877 1871 1088 1735 1231 C 1599 1374 1390 1446 1110 1446 C 834 1446 628 1374 492 1231 C 355 1088 287 877 287 598 C 287 461 304 340 338 236 C 372 132 423 44 492 -26 C 561 -96 648 -150 753 -186 C 858 -222 982 -240 1124 -240 C 1238 -240 1343 -228 1439 -206 C 1535 -184 1619 -155 1692 -121 L 1735 -207 C 1655 -247 1565 -278 1463 -302 C 1361 -326 1248 -338 1124 -338 Z M 1059 201 C 1117 201 1168 207 1212 221 C 1256 235 1292 257 1322 289 C 1352 321 1374 363 1389 415 C 1403 467 1411 531 1411 608 C 1411 684 1403 747 1389 798 C 1375 848 1353 889 1324 919 C 1294 949 1258 971 1214 984 C 1170 997 1118 1004 1059 1004 C 999 1004 949 995 908 977 C 867 959 834 933 808 899 C 782 865 764 823 752 774 C 740 725 735 670 735 608 C 735 544 740 487 752 437 C 764 387 782 344 808 309 C 834 274 867 247 908 229 C 949 210 999 201 1059 201 Z" unicode="@" />
<glyph horiz-adv-x="1481" d="M 659 1528 L 821 1528 L 1430 0 L 1266 0 L 1126 350 L 348 350 L 211 0 L 51 0 L 659 1528 Z M 1069 498 L 737 1333 L 403 498 L 1069 498 Z" unicode="A" />
<glyph horiz-adv-x="1440" d="M 178 1518 L 838 1518 C 1004 1518 1126 1487 1204 1425 C 1282 1363 1321 1271 1321 1149 C 1321 1105 1316 1065 1307 1027 C 1298 989 1285 954 1267 924 C 1249 894 1228 868 1202 846 C 1176 824 1146 809 1112 799 C 1195 778 1257 736 1297 674 C 1337 612 1358 527 1358 420 C 1358 343 1346 278 1324 225 C 1301 171 1267 128 1222 95 C 1177 61 1121 37 1054 22 C 987 7 909 0 821 0 L 178 0 L 178 1518 Z M 838 145 C 899 145 952 150 997 161 C 1042 172 1079 189 1109 213 C 1138 236 1160 266 1174 302 C 1188 338 1196 382 1196 434 C 1196 530 1167 601 1109 646 C 1051 690 959 713 834 713 L 336 713 L 336 145 L 838 145 Z M 842 860 C 904 860 956 866 997 880 C 1037 894 1069 913 1093 937 C 1117 961 1133 989 1143 1022 C 1152 1054 1157 1090 1157 1128 C 1157 1167 1151 1202 1139 1232 C 1127 1262 1109 1288 1084 1308 C 1058 1328 1026 1344 986 1354 C 946 1364 898 1370 842 1370 L 336 1370 L 336 860 L 842 860 Z" unicode="B" />
<glyph horiz-adv-x="1477" d="M 838 -23 C 710 -23 600 -6 506 27 C 412 60 334 109 272 175 C 210 241 165 322 135 420 C 105 518 90 631 90 760 C 90 892 106 1008 140 1106 C 174 1204 223 1285 287 1350 C 351 1414 431 1462 525 1494 C 619 1526 726 1542 846 1542 C 954 1542 1052 1526 1142 1495 C 1231 1463 1309 1416 1376 1352 L 1262 1237 C 1207 1286 1144 1324 1074 1350 C 1004 1376 927 1389 844 1389 C 648 1389 501 1336 401 1231 C 301 1125 252 968 252 758 C 252 654 263 563 287 485 C 311 406 347 340 396 288 C 445 235 507 195 582 169 C 656 142 744 129 846 129 C 902 129 952 133 996 141 C 1039 149 1077 161 1111 175 C 1145 189 1175 206 1201 225 C 1227 243 1251 263 1274 285 L 1386 176 C 1360 150 1330 126 1298 102 C 1265 78 1227 56 1183 38 C 1139 19 1089 4 1033 -6 C 977 -17 912 -23 838 -23 Z" unicode="C" />
<glyph horiz-adv-x="1540" d="M 178 1518 L 674 1518 C 816 1518 936 1506 1035 1482 C 1134 1458 1214 1417 1276 1359 C 1338 1301 1382 1223 1410 1126 C 1438 1028 1452 906 1452 760 C 1452 616 1436 496 1406 399 C 1376 301 1328 223 1264 164 C 1199 105 1116 63 1014 38 C 912 12 789 0 647 0 L 178 0 L 178 1518 Z M 653 147 C 773 147 873 157 955 179 C 1036 201 1101 236 1151 284 C 1201 332 1236 396 1258 474 C 1279 552 1290 647 1290 760 C 1290 836 1286 904 1278 964 C 1270 1024 1256 1076 1238 1121 C 1219 1165 1194 1203 1163 1235 C 1132 1266 1094 1291 1049 1311 C 1003 1330 950 1344 888 1353 C 826 1361 756 1366 676 1366 L 340 1366 L 340 147 L 653 147 Z" unicode="D" />
<glyph horiz-adv-x="1309" d="M 178 1518 L 1182 1518 L 1182 1364 L 340 1364 L 340 862 L 1161 862 L 1161 711 L 340 711 L 340 147 L 1190 147 L 1190 0 L 178 0 L 178 1518 Z" unicode="E" />
<glyph horiz-adv-x="1229" d="M 178 1518 L 1155 1518 L 1155 1364 L 340 1364 L 340 850 L 1137 850 L 1137 698 L 340 698 L 340 0 L 178 0 L 178 1518 Z" unicode="F" />
<glyph horiz-adv-x="1591" d="M 836 -23 C 701 -23 586 -6 492 26 C 397 59 320 108 261 174 C 201 239 158 321 131 419 C 103 517 90 630 90 760 C 90 896 106 1014 139 1113 C 172 1211 221 1292 285 1356 C 349 1419 427 1466 521 1496 C 615 1526 722 1542 844 1542 C 916 1542 981 1536 1039 1526 C 1096 1515 1147 1501 1192 1483 C 1237 1465 1276 1445 1310 1423 C 1343 1400 1372 1377 1397 1354 L 1282 1237 C 1258 1257 1231 1277 1203 1296 C 1175 1314 1143 1330 1108 1344 C 1072 1358 1033 1369 990 1377 C 946 1385 898 1389 844 1389 C 646 1389 498 1337 399 1234 C 299 1131 250 972 250 758 C 250 650 260 557 282 477 C 304 397 338 330 385 278 C 432 225 493 186 568 160 C 643 134 734 121 842 121 C 944 121 1027 131 1091 153 C 1155 175 1206 207 1243 250 C 1279 292 1304 345 1318 409 C 1332 473 1339 547 1339 631 L 1339 680 L 827 680 L 827 829 L 1499 829 L 1499 657 C 1499 588 1495 524 1488 464 C 1481 404 1469 348 1451 298 C 1433 247 1408 202 1376 162 C 1344 122 1304 89 1255 62 C 1206 34 1147 13 1078 -1 C 1009 -15 928 -23 836 -23 Z" unicode="G" />
<glyph horiz-adv-x="1591" d="M 178 1518 L 340 1518 L 340 870 L 1251 870 L 1251 1518 L 1411 1518 L 1411 0 L 1251 0 L 1251 713 L 340 713 L 340 0 L 178 0 L 178 1518 Z" unicode="H" />
<glyph horiz-adv-x="547" d="M 195 1518 L 352 1518 L 352 0 L 195 0 L 195 1518 Z" unicode="I" />
<glyph horiz-adv-x="819" d="M 215 -2 C 197 -2 181 -2 168 -2 C 155 -2 143 -2 132 -2 C 121 -2 110 -1 99 -1 C 88 -1 75 0 61 0 L 61 147 L 199 147 C 253 147 298 152 335 164 C 372 175 402 192 426 216 C 449 239 466 269 476 305 C 486 341 492 384 492 434 L 492 1518 L 649 1518 L 649 428 C 649 350 639 283 621 229 C 603 175 575 130 539 96 C 503 62 458 37 404 21 C 350 5 287 -2 215 -2 Z" unicode="J" />
<glyph horiz-adv-x="1442" d="M 178 1518 L 336 1518 L 336 0 L 178 0 L 178 1518 Z M 225 559 L 1104 1518 L 1290 1518 L 311 446 L 225 559 Z M 598 866 L 723 954 L 1364 0 L 1182 0 L 598 866 Z" unicode="K" />
<glyph horiz-adv-x="1202" d="M 178 1518 L 340 1518 L 340 147 L 1147 147 L 1147 0 L 178 0 L 178 1518 Z" unicode="L" />
<glyph horiz-adv-x="1872" d="M 178 1518 L 387 1518 L 936 223 L 1489 1518 L 1694 1518 L 1694 0 L 1536 0 L 1536 1249 L 1001 0 L 866 0 L 332 1249 L 332 0 L 178 0 L 178 1518 Z" unicode="M" />
<glyph horiz-adv-x="1595" d="M 178 1518 L 354 1518 L 1262 266 L 1262 1518 L 1417 1518 L 1417 0 L 1270 0 L 334 1288 L 334 0 L 178 0 L 178 1518 Z" unicode="N" />
<glyph horiz-adv-x="1708" d="M 852 -25 C 730 -25 622 -9 528 21 C 434 52 354 100 289 164 C 224 228 175 309 141 408 C 107 506 90 624 90 760 C 90 894 107 1011 141 1109 C 175 1207 224 1289 289 1353 C 354 1417 434 1464 528 1495 C 622 1526 730 1542 852 1542 C 974 1542 1082 1526 1177 1495 C 1272 1464 1352 1417 1418 1353 C 1483 1289 1533 1207 1567 1109 C 1601 1011 1618 894 1618 760 C 1618 624 1601 506 1567 408 C 1533 309 1483 228 1418 164 C 1352 100 1272 52 1177 21 C 1082 -9 974 -25 852 -25 Z M 852 125 C 955 125 1045 138 1121 166 C 1197 193 1259 233 1309 287 C 1359 340 1396 406 1420 485 C 1444 563 1456 654 1456 758 C 1456 860 1444 950 1420 1029 C 1396 1107 1359 1173 1309 1227 C 1259 1280 1197 1320 1121 1348 C 1045 1375 955 1389 852 1389 C 748 1389 659 1375 584 1348 C 508 1320 446 1280 397 1227 C 348 1173 312 1107 288 1029 C 264 950 252 860 252 758 C 252 654 264 563 288 485 C 312 406 348 340 397 287 C 446 233 508 193 584 166 C 659 138 748 125 852 125 Z" unicode="O" />
<glyph horiz-adv-x="1446" d="M 178 1518 L 844 1518 C 1020 1518 1149 1481 1232 1408 C 1314 1334 1356 1220 1356 1065 C 1356 986 1345 917 1325 857 C 1305 797 1274 746 1232 706 C 1190 666 1136 635 1072 615 C 1007 594 930 584 842 584 L 336 584 L 336 0 L 178 0 L 178 1518 Z M 846 733 C 902 733 951 738 995 750 C 1039 761 1075 780 1105 806 C 1135 832 1157 865 1173 907 C 1188 948 1196 999 1196 1059 C 1196 1118 1188 1167 1173 1207 C 1158 1247 1136 1278 1106 1302 C 1076 1326 1038 1343 994 1353 C 950 1363 898 1368 840 1368 L 336 1368 L 336 733 L 846 733 Z" unicode="P" />
<glyph horiz-adv-x="1708" d="M 1104 -373 C 1024 -373 959 -366 908 -353 C 857 -339 817 -317 789 -287 C 760 -256 741 -216 733 -166 C 724 -116 723 -55 729 18 L 887 10 C 883 -38 882 -77 886 -108 C 889 -139 898 -164 914 -182 C 930 -200 953 -213 983 -220 C 1013 -227 1054 -231 1104 -231 L 1262 -231 L 1262 -371 C 1258 -371 1249 -371 1235 -371 C 1221 -371 1205 -372 1189 -372 C 1173 -372 1157 -372 1141 -372 C 1125 -372 1112 -373 1104 -373 Z M 852 -14 C 726 -14 615 0 520 30 C 425 60 346 106 282 169 C 218 232 170 312 138 410 C 106 507 90 624 90 760 C 90 894 106 1011 138 1109 C 170 1207 218 1289 282 1353 C 346 1417 425 1464 520 1495 C 615 1526 726 1542 852 1542 C 978 1542 1089 1526 1185 1495 C 1281 1464 1361 1417 1425 1353 C 1489 1289 1537 1207 1569 1109 C 1601 1011 1618 894 1618 760 C 1618 624 1601 507 1569 410 C 1537 312 1489 232 1425 169 C 1361 106 1281 60 1185 30 C 1089 0 978 -14 852 -14 Z M 852 125 C 959 125 1051 138 1127 166 C 1203 193 1266 233 1315 287 C 1363 340 1399 406 1422 485 C 1444 563 1456 654 1456 758 C 1456 860 1444 950 1422 1029 C 1399 1107 1363 1173 1315 1227 C 1266 1280 1203 1320 1127 1348 C 1051 1375 959 1389 852 1389 C 744 1389 653 1375 577 1348 C 501 1320 439 1280 391 1227 C 343 1173 307 1107 285 1029 C 263 950 252 860 252 758 C 252 654 263 563 285 485 C 307 406 343 340 391 287 C 439 233 501 193 577 166 C 653 138 744 125 852 125 Z" unicode="Q" />
<glyph horiz-adv-x="1470" d="M 178 1518 L 834 1518 C 1010 1518 1139 1481 1222 1408 C 1304 1335 1346 1223 1346 1073 C 1346 923 1304 810 1220 733 C 1136 656 1006 618 831 618 L 336 618 L 336 0 L 178 0 L 178 1518 Z M 836 766 C 890 766 938 770 981 780 C 1024 789 1061 805 1091 828 C 1121 850 1144 881 1160 920 C 1176 958 1184 1007 1184 1067 C 1184 1125 1176 1174 1160 1213 C 1144 1252 1121 1283 1091 1306 C 1061 1328 1024 1344 980 1354 C 936 1363 885 1368 829 1368 L 336 1368 L 336 766 L 836 766 Z M 741 700 L 913 700 L 1323 0 L 1151 0 L 741 700 Z" unicode="R" />
<glyph horiz-adv-x="1440" d="M 713 -20 C 597 -20 488 -6 384 19 C 280 45 180 90 84 154 L 166 276 C 211 247 256 223 302 204 C 347 184 392 169 437 157 C 482 145 527 136 572 131 C 617 125 663 123 709 123 C 787 123 854 128 911 140 C 968 151 1015 169 1052 193 C 1089 217 1116 247 1134 285 C 1152 323 1161 368 1161 420 C 1161 474 1150 517 1128 550 C 1106 582 1076 609 1037 629 C 997 649 950 666 894 678 C 838 690 777 703 709 715 C 654 724 602 734 554 744 C 506 754 461 767 421 781 C 380 795 343 811 311 831 C 279 850 251 874 229 902 C 207 930 190 963 178 1001 C 166 1039 160 1083 160 1135 C 160 1207 171 1269 195 1321 C 218 1373 253 1415 299 1448 C 345 1480 402 1504 471 1519 C 539 1534 619 1542 709 1542 C 827 1542 930 1529 1016 1505 C 1102 1480 1176 1447 1237 1407 L 1151 1276 C 1123 1294 1093 1310 1060 1325 C 1026 1339 991 1352 953 1362 C 915 1372 876 1380 835 1386 C 793 1392 751 1395 709 1395 C 641 1395 582 1390 533 1380 C 483 1370 443 1355 411 1334 C 379 1313 356 1286 341 1254 C 326 1222 319 1183 319 1139 C 319 1091 328 1051 348 1021 C 367 990 395 965 432 945 C 468 925 513 909 566 897 C 619 884 680 872 748 860 C 830 845 907 829 977 813 C 1047 796 1107 773 1158 743 C 1208 713 1248 673 1276 623 C 1304 573 1319 507 1319 426 C 1319 275 1269 163 1171 90 C 1072 16 919 -20 713 -20 Z" unicode="S" />
<glyph horiz-adv-x="1409" d="M 625 1364 L 55 1364 L 55 1518 L 1356 1518 L 1356 1364 L 786 1364 L 786 0 L 625 0 L 625 1364 Z" unicode="T" />
<glyph horiz-adv-x="1593" d="M 795 -25 C 705 -25 627 -17 561 -3 C 495 10 439 30 393 56 C 346 82 308 112 279 148 C 250 184 227 223 211 265 C 194 307 183 352 177 400 C 171 448 168 497 168 547 L 168 1518 L 330 1518 L 330 565 C 330 500 336 441 349 387 C 361 333 385 287 419 248 C 453 209 500 179 560 157 C 620 135 699 125 795 125 C 891 125 970 135 1032 157 C 1094 178 1142 208 1177 247 C 1212 285 1236 332 1250 386 C 1263 440 1270 499 1270 565 L 1270 1518 L 1425 1518 L 1425 547 C 1425 497 1421 448 1415 400 C 1409 352 1397 306 1380 264 C 1363 222 1340 183 1311 148 C 1281 112 1243 82 1197 56 C 1150 30 1094 10 1028 -3 C 962 -17 884 -25 795 -25 Z" unicode="U" />
<glyph horiz-adv-x="1481" d="M 55 1518 L 221 1518 L 743 193 L 1262 1518 L 1427 1518 L 821 -10 L 659 -10 L 55 1518 Z" unicode="V" />
<glyph horiz-adv-x="2218" d="M 72 1518 L 238 1518 L 637 262 L 1044 1518 L 1184 1518 L 1589 262 L 1991 1518 L 2146 1518 L 1659 -10 L 1520 -10 L 1110 1253 L 702 -10 L 561 -10 L 72 1518 Z" unicode="W" />
<glyph horiz-adv-x="1452" d="M 649 811 L 680 838 L 1147 1518 L 1325 1518 L 805 778 L 770 748 L 258 0 L 82 0 L 649 811 Z M 131 1518 L 307 1518 L 1372 0 L 1192 0 L 131 1518 Z" unicode="X" />
<glyph horiz-adv-x="1434" d="M 27 1518 L 203 1518 L 719 735 L 1239 1518 L 1405 1518 L 782 571 L 649 571 L 27 1518 Z M 637 670 L 797 670 L 797 0 L 637 0 L 637 670 Z" unicode="Y" />
<glyph horiz-adv-x="1362" d="M 92 129 L 1042 1364 L 127 1364 L 127 1518 L 1241 1518 L 1241 1378 L 295 147 L 1264 147 L 1264 0 L 92 0 L 92 129 Z" unicode="Z" />
<glyph horiz-adv-x="946" d="M 252 1589 L 739 1589 L 739 1448 L 410 1448 L 410 -201 L 745 -201 L 745 -338 L 252 -338 L 252 1589 Z" unicode="[" />
<glyph horiz-adv-x="1012" d="M 0 1518 L 162 1518 L 1012 0 L 850 0 L 0 1518 Z" unicode="\" />
<glyph horiz-adv-x="946" d="M 205 -201 L 537 -201 L 537 1448 L 201 1448 L 201 1589 L 692 1589 L 692 -338 L 205 -338 L 205 -201 Z" unicode="]" />
<glyph horiz-adv-x="1208" d="M 516 1552 L 690 1552 L 1001 1232 L 846 1232 L 600 1451 L 358 1232 L 205 1232 L 516 1552 Z" unicode="^" />
<glyph horiz-adv-x="928" d="M -76 -121 L 1004 -121 L 1004 -248 L -76 -248 L -76 -121 Z" unicode="_" />
<glyph horiz-adv-x="1208" d="M 262 1569 L 453 1569 L 762 1249 L 614 1249 L 262 1569 Z" unicode="`" />
<glyph horiz-adv-x="1270" d="M 487 -20 C 407 -20 342 -11 291 5 C 239 22 199 46 169 76 C 139 106 119 141 107 182 C 95 223 90 267 90 315 C 90 395 102 462 127 516 C 151 570 193 613 251 645 C 309 677 387 699 484 713 C 580 726 700 733 844 733 L 932 733 L 932 592 L 852 592 C 770 592 698 590 636 587 C 574 583 520 578 475 570 C 429 562 391 552 361 539 C 331 525 307 509 289 489 C 271 469 258 446 251 419 C 243 392 240 361 240 326 C 240 292 244 261 253 235 C 261 209 276 186 297 168 C 317 150 345 136 380 127 C 414 117 458 113 510 113 C 581 113 642 120 693 136 C 743 152 785 176 817 208 C 849 240 873 282 888 332 C 903 382 911 441 911 510 L 911 700 C 911 754 908 801 902 841 C 896 880 882 912 861 938 C 840 963 809 982 769 994 C 729 1006 674 1012 606 1012 C 570 1012 535 1009 503 1003 C 470 997 439 990 410 980 C 381 970 355 960 331 948 C 307 936 286 925 268 913 L 186 1034 C 204 1046 228 1060 258 1074 C 288 1088 321 1102 359 1114 C 397 1126 437 1137 481 1145 C 525 1153 570 1157 618 1157 C 713 1157 790 1148 848 1131 C 906 1113 950 1086 982 1050 C 1014 1013 1035 966 1045 908 C 1055 850 1061 780 1061 700 L 1061 274 C 1061 244 1062 220 1064 202 C 1066 184 1070 170 1078 160 C 1086 150 1097 144 1113 141 C 1129 138 1150 137 1178 137 L 1178 2 C 1172 0 1164 -1 1154 -1 C 1144 -1 1131 -2 1116 -2 C 1083 -2 1056 0 1034 6 C 1012 11 995 19 981 31 C 967 42 957 56 950 74 C 942 92 936 113 932 139 C 914 112 893 89 869 69 C 844 49 814 33 778 20 C 742 6 701 -3 653 -10 C 605 -16 550 -20 487 -20 Z" unicode="a" />
<glyph horiz-adv-x="1325" d="M 733 -20 C 670 -20 615 -17 569 -11 C 522 -5 481 3 447 16 C 412 28 382 44 358 63 C 334 82 313 105 295 133 L 266 -6 L 156 4 L 156 1589 L 311 1589 L 311 1001 C 327 1028 347 1051 371 1071 C 395 1091 425 1107 460 1120 C 495 1132 536 1142 582 1148 C 628 1154 681 1157 741 1157 C 835 1157 913 1142 975 1114 C 1037 1086 1087 1046 1124 995 C 1161 943 1187 881 1202 809 C 1217 736 1225 655 1225 567 C 1225 478 1217 398 1201 326 C 1185 254 1159 192 1121 141 C 1083 89 1033 50 970 22 C 907 -6 828 -20 733 -20 Z M 711 119 C 780 119 838 129 884 149 C 930 169 966 199 993 237 C 1020 275 1039 321 1050 376 C 1061 430 1067 492 1067 561 C 1067 631 1061 693 1051 749 C 1040 804 1021 851 994 890 C 967 928 931 958 885 979 C 839 999 781 1010 711 1010 C 639 1010 578 1002 528 987 C 477 971 436 946 404 911 C 372 876 348 830 333 773 C 318 715 311 645 311 561 C 311 477 318 407 333 351 C 347 294 371 248 403 214 C 435 180 476 155 527 141 C 577 126 639 119 711 119 Z" unicode="b" />
<glyph horiz-adv-x="1153" d="M 641 -20 C 535 -20 448 -6 378 21 C 308 49 253 88 212 139 C 170 190 141 252 125 324 C 108 396 100 477 100 567 C 100 657 108 738 125 811 C 141 883 170 945 212 997 C 254 1048 310 1087 380 1115 C 450 1143 538 1157 645 1157 C 695 1157 741 1152 783 1144 C 824 1135 861 1123 894 1109 C 927 1094 957 1077 983 1057 C 1009 1037 1032 1017 1053 995 L 940 889 C 926 903 910 917 892 931 C 874 945 853 957 829 969 C 805 980 777 989 747 997 C 717 1004 683 1008 645 1008 C 571 1008 509 998 459 978 C 409 958 369 930 339 892 C 309 854 287 807 275 752 C 262 696 256 633 256 563 C 256 493 262 431 274 376 C 286 321 307 275 337 237 C 367 199 407 169 457 149 C 507 129 569 119 645 119 C 677 119 706 121 734 126 C 762 131 788 139 812 149 C 836 159 860 171 882 186 C 904 201 926 218 948 238 L 1053 139 C 1025 113 996 91 967 71 C 938 51 907 34 875 21 C 842 7 806 -2 768 -9 C 730 -16 687 -20 641 -20 Z" unicode="c" />
<glyph horiz-adv-x="1325" d="M 586 -20 C 492 -20 413 -5 351 22 C 288 50 238 90 201 142 C 164 193 138 255 123 328 C 107 400 100 481 100 571 C 100 659 107 739 123 811 C 139 883 165 944 203 995 C 240 1046 290 1085 353 1113 C 416 1141 495 1155 590 1155 C 651 1155 705 1152 751 1146 C 797 1140 838 1130 872 1118 C 906 1106 934 1090 957 1071 C 979 1052 998 1030 1014 1004 L 1014 1589 L 1169 1589 L 1169 6 L 1049 -4 L 1030 141 C 1012 113 990 88 965 68 C 940 48 910 31 875 18 C 839 5 798 -4 751 -10 C 703 -16 648 -20 586 -20 Z M 614 123 C 685 123 746 130 797 146 C 847 161 889 186 921 221 C 953 256 976 302 991 359 C 1006 416 1014 487 1014 571 C 1014 653 1006 723 992 779 C 978 835 955 881 923 915 C 891 949 849 973 799 988 C 748 1002 686 1010 614 1010 C 544 1010 486 1000 440 980 C 394 960 357 931 330 893 C 303 855 284 809 274 755 C 263 701 258 639 258 571 C 258 501 263 439 274 384 C 284 328 303 281 330 243 C 357 204 394 174 440 154 C 486 133 544 123 614 123 Z" unicode="d" />
<glyph horiz-adv-x="1214" d="M 643 -23 C 567 -23 500 -16 444 -2 C 388 12 340 31 300 57 C 260 82 227 112 201 148 C 175 184 154 223 139 267 C 124 311 114 358 108 409 C 102 459 100 512 100 567 C 100 649 107 725 122 797 C 137 869 164 931 204 985 C 244 1038 298 1080 368 1111 C 438 1141 527 1157 637 1157 C 713 1157 777 1148 830 1132 C 882 1116 926 1093 961 1064 C 995 1034 1022 999 1042 959 C 1061 919 1075 875 1084 827 C 1093 779 1098 729 1100 676 C 1102 622 1102 568 1102 514 L 168 514 L 170 655 L 954 655 C 952 688 949 720 947 751 C 944 782 939 811 932 838 C 924 865 914 890 901 912 C 887 934 869 952 846 968 C 822 984 793 996 759 1005 C 724 1013 682 1018 633 1018 C 551 1018 486 1006 436 984 C 386 962 347 930 320 890 C 292 850 274 802 264 746 C 254 690 250 629 250 563 C 250 497 254 437 264 382 C 273 327 292 280 320 240 C 348 200 388 168 440 146 C 491 124 559 113 643 113 C 689 113 730 115 766 121 C 801 127 833 135 861 145 C 889 155 915 168 939 182 C 962 196 985 211 1008 227 L 1092 119 C 1064 97 1034 78 1003 60 C 972 42 939 27 903 15 C 867 3 827 -6 785 -13 C 742 -19 695 -23 643 -23 Z" unicode="e" />
<glyph horiz-adv-x="786" d="M 276 1235 C 276 1287 281 1334 291 1378 C 301 1422 318 1459 344 1490 C 369 1521 403 1545 447 1563 C 490 1580 545 1589 612 1589 L 735 1589 L 735 1452 L 629 1452 C 589 1452 556 1446 530 1435 C 504 1424 484 1409 469 1390 C 454 1370 444 1347 438 1321 C 432 1295 430 1266 430 1235 L 430 0 L 276 0 L 276 1235 Z M 63 1130 L 735 1130 L 735 989 L 63 989 L 63 1130 Z" unicode="f" />
<glyph horiz-adv-x="1223" d="M 584 -367 C 493 -367 415 -362 349 -354 C 283 -346 228 -331 186 -310 C 143 -289 111 -260 91 -224 C 71 -187 61 -140 61 -84 C 61 -51 64 -20 71 10 C 77 40 89 67 106 92 C 123 117 146 139 175 157 C 204 175 241 188 285 197 C 261 207 243 223 231 247 C 219 271 213 298 213 330 C 213 368 221 403 239 437 C 256 471 278 498 305 520 L 416 455 C 399 440 385 423 374 405 C 363 386 358 367 358 348 C 358 330 361 315 369 304 C 376 292 389 284 407 278 C 425 272 449 267 480 265 C 510 263 549 262 596 262 C 698 262 783 257 853 249 C 923 241 979 226 1021 204 C 1063 182 1094 153 1113 116 C 1131 78 1141 31 1141 -27 C 1141 -85 1131 -135 1112 -178 C 1092 -220 1061 -256 1017 -284 C 973 -312 916 -332 845 -346 C 774 -360 687 -367 584 -367 Z M 590 414 C 510 414 440 421 382 435 C 324 449 276 472 238 502 C 200 532 172 569 154 615 C 136 661 127 715 127 778 C 127 841 136 896 154 944 C 172 991 199 1030 237 1062 C 274 1094 322 1117 380 1133 C 438 1149 508 1157 590 1157 C 634 1157 677 1154 719 1149 C 761 1144 799 1136 831 1126 L 854 1092 C 887 1079 916 1064 942 1046 C 967 1028 988 1006 1005 981 C 1022 956 1035 927 1044 893 C 1052 859 1057 821 1057 778 C 1057 652 1019 560 944 502 C 868 443 750 414 590 414 Z M 588 -238 C 668 -238 733 -233 785 -225 C 836 -216 876 -203 906 -186 C 935 -169 955 -148 966 -123 C 977 -98 983 -69 983 -37 C 983 -3 976 24 963 46 C 949 67 927 84 896 96 C 865 108 824 116 774 120 C 724 124 662 127 588 127 C 506 127 441 122 392 112 C 343 102 306 88 280 71 C 254 54 237 34 229 11 C 221 -11 217 -35 217 -61 C 217 -95 224 -124 239 -147 C 253 -169 276 -187 306 -201 C 336 -215 375 -224 422 -230 C 468 -235 524 -238 588 -238 Z M 590 549 C 646 549 693 553 733 562 C 773 571 805 585 830 603 C 855 621 873 645 885 674 C 897 703 903 738 903 778 C 903 859 876 918 824 956 C 771 993 693 1012 590 1012 C 534 1012 486 1007 447 998 C 407 988 375 974 350 955 C 325 936 307 912 296 883 C 284 853 279 818 279 778 C 279 738 284 703 296 674 C 307 645 325 621 350 603 C 375 585 407 571 447 562 C 486 553 534 549 590 549 Z M 606 1141 L 1094 1198 L 1094 1069 L 768 1069 L 606 1141 Z" unicode="g" />
<glyph horiz-adv-x="1270" d="M 156 1589 L 311 1589 L 311 1018 C 321 1036 336 1054 356 1071 C 376 1088 401 1103 433 1116 C 465 1128 503 1138 549 1146 C 595 1153 649 1157 713 1157 C 803 1157 876 1145 930 1123 C 984 1101 1025 1069 1053 1028 C 1081 987 1099 938 1107 881 C 1115 823 1120 760 1120 690 L 1120 0 L 965 0 L 965 664 C 965 714 962 759 957 801 C 952 843 940 879 920 909 C 900 939 871 962 831 979 C 791 995 737 1004 668 1004 C 592 1004 531 994 485 976 C 438 958 402 932 376 899 C 350 866 333 827 324 782 C 315 737 311 688 311 635 L 311 0 L 156 0 L 156 1589 Z" unicode="h" />
<glyph horiz-adv-x="487" d="M 166 1130 L 319 1130 L 319 0 L 166 0 L 166 1130 Z M 166 1501 L 322 1501 L 322 1280 L 166 1280 L 166 1501 Z" unicode="i" />
<glyph horiz-adv-x="487" d="M 4 -213 L 16 -213 C 48 -212 73 -209 93 -203 C 113 -197 128 -188 139 -175 C 149 -161 156 -143 160 -121 C 164 -99 166 -71 166 -37 L 166 1130 L 319 1130 L 319 -37 C 319 -94 315 -142 307 -181 C 299 -220 285 -251 264 -275 C 242 -299 213 -316 176 -326 C 138 -336 90 -342 31 -342 L 4 -342 L 4 -213 Z M 166 1501 L 322 1501 L 322 1280 L 166 1280 L 166 1501 Z" unicode="j" />
<glyph horiz-adv-x="1110" d="M 221 408 L 854 1130 L 1026 1130 L 569 602 L 545 580 L 279 279 L 221 408 Z M 156 1589 L 309 1589 L 309 0 L 156 0 L 156 1589 Z M 463 621 L 592 694 L 1069 0 L 897 0 L 463 621 Z" unicode="k" />
<glyph horiz-adv-x="598" d="M 401 -2 C 355 -2 316 3 286 13 C 256 23 232 40 214 62 C 196 84 184 112 177 146 C 169 180 166 222 166 270 L 166 1589 L 319 1589 L 319 287 C 319 259 320 235 323 216 C 325 197 331 182 341 170 C 350 158 363 150 381 145 C 398 139 421 137 451 137 L 500 137 L 500 2 C 491 0 478 0 460 -1 C 442 -1 422 -2 401 -2 Z" unicode="l" />
<glyph horiz-adv-x="2034" d="M 156 1122 L 279 1130 L 293 1012 C 303 1031 319 1049 339 1067 C 359 1085 385 1100 417 1114 C 449 1127 489 1137 535 1145 C 581 1153 636 1157 700 1157 C 762 1157 814 1153 856 1145 C 898 1137 932 1127 958 1114 C 984 1100 1005 1084 1019 1066 C 1033 1047 1043 1026 1051 1004 C 1063 1026 1081 1046 1104 1065 C 1127 1083 1156 1099 1192 1113 C 1227 1127 1269 1137 1318 1145 C 1366 1153 1423 1157 1489 1157 C 1579 1157 1651 1145 1704 1123 C 1757 1101 1797 1069 1824 1028 C 1850 987 1867 938 1875 881 C 1882 823 1886 760 1886 690 L 1886 0 L 1731 0 L 1731 664 C 1731 714 1729 759 1725 801 C 1721 843 1709 879 1691 909 C 1673 939 1644 962 1606 979 C 1567 995 1513 1004 1444 1004 C 1368 1004 1308 994 1263 976 C 1217 958 1182 932 1158 899 C 1133 866 1117 827 1109 782 C 1101 737 1098 688 1098 635 L 1098 0 L 944 0 L 944 664 C 944 714 942 759 938 801 C 934 843 923 879 905 909 C 886 939 857 962 819 979 C 781 995 727 1004 657 1004 C 581 1004 521 994 476 976 C 430 958 395 932 371 899 C 346 866 330 827 322 782 C 314 737 311 688 311 635 L 311 0 L 156 0 L 156 1122 Z" unicode="m" />
<glyph horiz-adv-x="1270" d="M 156 1122 L 279 1130 L 293 1012 C 305 1031 321 1049 342 1067 C 363 1085 390 1100 423 1114 C 456 1127 496 1137 544 1145 C 591 1153 647 1157 713 1157 C 803 1157 876 1145 930 1123 C 984 1101 1025 1069 1053 1028 C 1081 987 1099 938 1107 881 C 1115 823 1120 760 1120 690 L 1120 0 L 965 0 L 965 664 C 965 714 962 759 957 801 C 952 843 940 879 920 909 C 900 939 871 962 831 979 C 791 995 737 1004 668 1004 C 592 1004 531 994 485 976 C 438 958 402 932 376 899 C 350 866 333 827 324 782 C 315 737 311 688 311 635 L 311 0 L 156 0 L 156 1122 Z" unicode="n" />
<glyph horiz-adv-x="1292" d="M 645 -23 C 547 -23 463 -10 394 14 C 325 39 269 76 225 126 C 181 175 150 236 130 310 C 110 384 100 469 100 567 C 100 664 110 749 130 823 C 150 897 181 958 225 1008 C 269 1057 325 1094 394 1119 C 463 1144 547 1157 645 1157 C 743 1157 826 1144 895 1119 C 964 1094 1021 1057 1065 1008 C 1109 958 1141 897 1161 823 C 1181 749 1192 664 1192 567 C 1192 469 1181 384 1161 310 C 1141 236 1109 175 1065 126 C 1021 76 964 39 895 14 C 826 -10 743 -23 645 -23 Z M 645 119 C 716 119 776 128 826 147 C 875 166 915 194 946 232 C 977 270 999 316 1013 372 C 1027 427 1034 491 1034 563 C 1034 635 1027 699 1013 755 C 999 811 977 857 946 895 C 915 933 875 961 826 981 C 776 1000 716 1010 645 1010 C 573 1010 513 1000 464 981 C 414 961 374 933 343 895 C 312 857 290 811 276 755 C 262 699 256 635 256 563 C 256 491 262 427 276 372 C 290 316 312 270 343 232 C 374 194 414 166 464 147 C 513 128 573 119 645 119 Z" unicode="o" />
<glyph horiz-adv-x="1325" d="M 156 1122 L 279 1130 L 293 995 C 308 1022 328 1046 352 1066 C 376 1086 407 1103 443 1117 C 479 1130 521 1140 570 1147 C 619 1153 676 1157 741 1157 C 835 1157 913 1143 975 1115 C 1037 1087 1087 1047 1124 996 C 1161 944 1187 882 1202 810 C 1217 737 1225 656 1225 567 C 1225 479 1217 399 1202 327 C 1186 255 1160 193 1123 142 C 1085 91 1035 52 972 24 C 909 -4 830 -18 735 -18 C 673 -18 619 -15 573 -9 C 527 -3 487 6 453 18 C 419 30 390 46 367 65 C 344 84 325 107 311 133 L 311 -338 L 156 -338 L 156 1122 Z M 711 123 C 780 123 838 133 884 153 C 930 173 966 201 993 239 C 1020 277 1039 323 1050 377 C 1061 431 1067 493 1067 563 C 1067 632 1061 694 1051 750 C 1040 805 1021 852 994 890 C 967 928 931 958 885 979 C 839 999 781 1010 711 1010 C 639 1010 578 1002 528 987 C 477 972 436 947 404 912 C 372 877 348 831 333 774 C 318 717 311 647 311 563 C 311 479 318 409 333 353 C 347 297 371 252 403 218 C 435 184 476 159 527 145 C 577 130 639 123 711 123 Z" unicode="p" />
<glyph horiz-adv-x="1325" d="M 1014 131 C 994 103 972 80 947 61 C 922 42 893 27 859 15 C 825 3 786 -5 742 -11 C 697 -17 645 -20 586 -20 C 492 -20 413 -6 351 22 C 288 50 238 89 201 141 C 164 193 138 255 123 327 C 107 399 100 480 100 569 C 100 657 107 738 123 810 C 139 882 165 944 203 996 C 240 1047 290 1087 353 1115 C 416 1143 495 1157 590 1157 C 652 1157 707 1154 755 1148 C 802 1142 843 1133 878 1121 C 913 1109 943 1093 967 1074 C 991 1055 1012 1032 1030 1006 L 1059 1149 L 1169 1139 L 1169 -338 L 1014 -338 L 1014 131 Z M 614 123 C 685 123 746 130 797 146 C 847 161 889 186 921 221 C 953 256 976 302 991 359 C 1006 415 1014 485 1014 569 C 1014 652 1006 722 992 778 C 978 834 955 880 923 914 C 891 948 849 973 799 988 C 748 1002 686 1010 614 1010 C 544 1010 486 1000 440 980 C 394 960 357 931 330 893 C 303 855 284 809 274 755 C 263 700 258 638 258 569 C 258 499 263 437 274 382 C 284 327 303 280 330 242 C 357 204 394 174 440 154 C 486 133 544 123 614 123 Z" unicode="q" />
<glyph horiz-adv-x="735" d="M 156 1122 L 279 1130 L 295 979 C 305 1001 322 1022 345 1042 C 367 1062 395 1079 428 1094 C 461 1109 499 1121 543 1130 C 586 1139 634 1144 686 1145 L 686 989 C 616 989 558 979 510 961 C 462 942 424 916 395 882 C 365 848 344 808 331 762 C 317 716 311 665 311 610 L 311 0 L 156 0 L 156 1122 Z" unicode="r" />
<glyph horiz-adv-x="1069" d="M 532 -20 C 494 -20 456 -18 417 -14 C 377 -10 338 -4 298 5 C 258 15 218 28 178 44 C 138 60 99 80 61 106 L 143 227 C 176 205 210 187 244 173 C 278 159 313 147 347 139 C 381 130 414 124 447 120 C 479 116 511 115 541 115 C 591 115 635 117 673 123 C 711 129 742 139 767 154 C 791 169 810 189 822 215 C 834 240 840 273 840 313 C 840 345 834 371 824 391 C 813 411 796 428 772 442 C 748 456 717 467 679 477 C 641 487 595 497 541 508 C 475 520 416 534 364 548 C 311 562 266 582 229 606 C 192 630 164 661 144 699 C 124 737 115 786 115 848 C 115 896 122 940 137 978 C 152 1016 177 1048 211 1075 C 245 1101 289 1122 343 1136 C 397 1150 463 1157 541 1157 C 626 1157 703 1148 772 1131 C 841 1113 902 1089 954 1059 L 881 932 C 837 955 787 974 731 990 C 674 1006 611 1014 543 1014 C 489 1014 445 1010 410 1002 C 374 994 346 983 325 969 C 304 955 289 937 281 917 C 272 896 268 873 268 848 C 268 816 273 790 284 770 C 294 749 311 732 334 718 C 356 704 385 692 421 682 C 456 672 499 663 549 653 C 617 639 679 625 733 611 C 787 597 834 579 872 556 C 910 532 939 502 959 465 C 979 428 989 379 989 319 C 989 254 979 200 961 157 C 943 113 915 78 878 52 C 840 26 793 7 736 -3 C 678 -14 610 -20 532 -20 Z" unicode="s" />
<glyph horiz-adv-x="831" d="M 567 -2 C 503 -2 452 4 413 17 C 373 29 343 48 321 73 C 299 97 285 128 277 164 C 269 200 266 243 266 291 L 266 1077 L 297 1470 L 420 1493 L 420 309 C 420 283 421 259 424 238 C 427 216 434 198 446 183 C 458 168 475 157 498 149 C 521 141 552 137 592 137 L 731 137 L 731 0 C 727 0 717 -1 702 -1 C 686 -1 670 -2 652 -2 C 634 -2 616 -2 600 -2 C 584 -2 573 -2 567 -2 Z M 63 1130 L 731 1130 L 731 989 L 63 989 L 63 1130 Z" unicode="t" />
<glyph horiz-adv-x="1257" d="M 633 -20 C 559 -20 497 -15 445 -5 C 393 5 349 19 313 39 C 277 58 248 82 227 110 C 205 138 189 169 178 205 C 166 241 159 280 155 324 C 151 368 150 415 150 465 L 150 1130 L 303 1130 L 303 461 C 303 429 303 399 304 371 C 305 342 309 315 315 290 C 321 264 330 241 344 221 C 357 200 376 182 400 167 C 424 152 455 141 493 133 C 531 125 577 121 633 121 C 687 121 733 125 771 133 C 808 141 838 152 862 167 C 886 182 904 200 917 221 C 930 242 939 266 945 292 C 951 318 954 345 955 375 C 955 405 956 436 956 469 L 956 1130 L 1108 1130 L 1108 471 C 1108 419 1106 372 1103 328 C 1099 284 1092 243 1081 207 C 1070 171 1054 138 1034 110 C 1013 82 985 58 950 39 C 914 19 871 5 819 -5 C 767 -15 705 -20 633 -20 Z" unicode="u" />
<glyph horiz-adv-x="1112" d="M 23 1130 L 186 1130 L 557 174 L 930 1130 L 1090 1130 L 639 -10 L 473 -10 L 23 1130 Z" unicode="v" />
<glyph horiz-adv-x="1794" d="M 31 1130 L 193 1130 L 518 215 L 823 1130 L 977 1130 L 1280 217 L 1606 1130 L 1763 1130 L 1356 -10 L 1202 -10 L 897 897 L 592 -10 L 438 -10 L 31 1130 Z" unicode="w" />
<glyph horiz-adv-x="1108" d="M 475 602 L 514 637 L 864 1130 L 1032 1130 L 631 575 L 598 551 L 209 0 L 41 0 L 475 602 Z M 78 1130 L 248 1130 L 1067 0 L 893 0 L 78 1130 Z" unicode="x" />
<glyph horiz-adv-x="1085" d="M 258 -342 C 254 -342 247 -342 238 -342 C 229 -342 220 -342 210 -342 C 200 -342 190 -341 181 -341 C 171 -341 164 -340 160 -340 L 160 -213 L 248 -213 C 274 -213 296 -211 315 -207 C 333 -203 349 -196 363 -187 C 377 -178 388 -166 398 -151 C 407 -136 416 -118 424 -96 L 471 25 L 502 72 L 903 1130 L 1063 1130 L 575 -113 C 559 -153 542 -187 524 -216 C 506 -245 484 -269 459 -288 C 434 -306 405 -320 373 -329 C 340 -337 302 -342 258 -342 Z M 23 1130 L 186 1130 L 604 43 L 477 -23 L 23 1130 Z" unicode="y" />
<glyph horiz-adv-x="1028" d="M 68 117 L 743 989 L 102 989 L 102 1130 L 942 1130 L 942 1012 L 266 133 L 965 133 L 965 0 L 68 0 L 68 117 Z" unicode="z" />
<glyph horiz-adv-x="1022" d="M 664 -338 C 600 -338 546 -332 502 -321 C 458 -310 422 -294 394 -272 C 366 -250 347 -222 335 -189 C 323 -155 317 -116 317 -72 C 317 -50 319 -25 325 3 C 331 32 338 63 346 96 C 354 128 363 162 373 196 C 383 230 392 262 400 294 C 408 325 415 354 421 381 C 427 408 430 431 430 449 C 430 471 425 490 416 504 C 406 518 391 529 370 537 C 349 545 322 550 289 553 C 255 555 215 557 168 557 L 168 692 C 212 692 251 693 284 695 C 316 697 343 703 365 711 C 387 719 403 730 414 745 C 424 759 430 779 430 805 C 430 823 427 845 421 871 C 415 897 408 926 400 958 C 392 989 383 1021 373 1055 C 363 1089 354 1122 346 1155 C 338 1187 331 1218 325 1247 C 319 1276 317 1301 317 1323 C 317 1367 323 1406 335 1440 C 347 1473 366 1501 394 1523 C 422 1545 458 1561 502 1572 C 546 1583 600 1589 664 1589 L 821 1589 L 821 1448 L 692 1448 C 648 1448 613 1444 585 1438 C 557 1432 534 1422 518 1409 C 502 1396 490 1379 484 1359 C 478 1338 475 1314 475 1286 C 475 1269 477 1248 483 1222 C 488 1196 495 1168 503 1138 C 511 1107 519 1075 529 1042 C 539 1008 548 976 556 944 C 564 912 570 881 576 853 C 581 825 584 800 584 780 C 584 740 574 708 556 682 C 537 656 508 638 469 627 C 510 613 539 594 557 568 C 575 542 584 510 584 471 C 584 450 581 425 576 397 C 570 369 564 339 556 307 C 548 275 539 242 529 208 C 519 174 511 142 503 112 C 495 81 488 53 483 27 C 477 1 475 -20 475 -37 C 475 -65 478 -90 484 -111 C 490 -131 502 -148 518 -162 C 534 -175 557 -185 585 -191 C 613 -197 648 -201 692 -201 L 821 -201 L 821 -338 L 664 -338 L 664 -338 Z" unicode="{" />
<glyph horiz-adv-x="664" d="M 252 1589 L 410 1589 L 410 -338 L 252 -338 L 252 1589 Z" unicode="|" />
<glyph horiz-adv-x="1022" d="M 201 -201 L 332 -201 C 375 -201 411 -197 439 -191 C 467 -185 489 -175 505 -162 C 521 -148 532 -131 538 -111 C 544 -90 547 -65 547 -37 C 547 -20 544 1 539 27 C 533 53 527 81 519 112 C 511 142 502 174 492 208 C 482 242 474 275 466 307 C 458 339 451 369 446 397 C 440 425 438 450 438 471 C 438 550 476 602 553 627 C 511 639 482 658 464 684 C 446 710 438 742 438 780 C 438 800 440 825 446 853 C 451 881 458 912 466 944 C 474 976 482 1008 492 1042 C 502 1075 511 1107 519 1138 C 527 1168 533 1196 539 1222 C 544 1248 547 1269 547 1286 C 547 1314 544 1338 538 1359 C 532 1379 521 1396 505 1409 C 489 1422 467 1432 439 1438 C 411 1444 375 1448 332 1448 L 201 1448 L 201 1589 L 358 1589 C 422 1589 477 1583 521 1572 C 565 1561 601 1545 629 1523 C 656 1501 676 1473 688 1440 C 700 1406 707 1367 707 1323 C 707 1301 704 1276 698 1247 C 692 1218 685 1187 677 1155 C 668 1122 659 1089 649 1055 C 639 1021 630 989 622 958 C 613 926 606 897 600 871 C 594 844 592 822 592 805 C 592 781 596 762 606 748 C 616 734 631 723 652 715 C 673 707 700 701 733 698 C 766 695 806 694 854 694 L 854 559 C 809 559 770 557 738 555 C 705 553 678 548 656 540 C 634 532 618 521 608 507 C 597 493 592 473 592 449 C 592 431 594 408 600 381 C 606 354 613 325 622 294 C 630 262 639 230 649 196 C 659 162 668 128 677 96 C 685 63 692 32 698 3 C 704 -25 707 -50 707 -72 C 707 -116 700 -155 688 -189 C 676 -222 656 -250 629 -272 C 601 -294 565 -310 521 -321 C 477 -332 422 -338 358 -338 L 201 -338 L 201 -201 Z" unicode="}" />
<glyph horiz-adv-x="1208" d="M 211 945 C 227 965 246 985 266 1004 C 286 1022 306 1038 328 1052 C 349 1066 371 1077 393 1085 C 415 1093 438 1097 461 1097 C 495 1097 525 1091 549 1081 C 573 1071 596 1059 617 1047 C 637 1035 657 1023 677 1013 C 697 1003 719 998 745 998 C 758 998 771 1001 785 1007 C 799 1013 812 1021 826 1031 C 839 1041 852 1053 866 1067 C 879 1080 892 1094 905 1109 L 999 1033 C 981 1011 963 991 944 971 C 924 951 904 933 883 918 C 861 902 839 890 817 881 C 794 871 771 867 748 867 C 717 867 689 872 665 883 C 641 893 618 905 596 917 C 574 929 553 941 532 952 C 510 962 487 968 463 968 C 438 968 412 959 384 941 C 356 923 331 899 309 869 L 211 945 Z" unicode="~" />
<glyph horiz-adv-x="481" d="" unicode=" " />
<glyph horiz-adv-x="733" d="M 299 1100 L 436 1100 L 453 0 L 281 0 L 299 1100 Z M 264 1518 L 471 1518 L 471 1292 L 264 1292 L 264 1518 Z" unicode="¡" />
<glyph horiz-adv-x="1143" d="M 565 41 L 573 66 L 573 1077 L 565 1102 L 565 1278 L 713 1278 L 713 1104 L 702 1077 L 702 59 L 713 31 L 713 -193 L 565 -193 L 565 41 Z M 641 -16 C 535 -16 448 -2 379 25 C 310 52 255 91 214 142 C 172 192 143 253 127 325 C 110 397 102 477 102 567 C 102 656 110 737 127 809 C 143 881 172 942 214 993 C 256 1044 311 1083 381 1111 C 451 1139 539 1153 645 1153 C 696 1153 742 1148 783 1140 C 823 1132 860 1120 893 1106 C 925 1092 954 1075 980 1056 C 1005 1036 1028 1016 1049 995 L 938 891 C 924 905 909 919 891 933 C 873 947 853 959 830 971 C 806 982 779 991 749 999 C 718 1006 683 1010 645 1010 C 571 1010 509 1000 459 980 C 409 960 368 930 338 892 C 308 854 286 807 273 752 C 260 696 254 633 254 563 C 254 493 260 431 273 376 C 285 320 307 273 337 235 C 367 196 407 166 457 146 C 507 125 569 115 645 115 C 678 115 708 117 736 123 C 763 128 789 136 813 146 C 837 156 860 169 882 184 C 904 199 926 216 948 236 L 1049 139 C 1021 113 992 91 964 72 C 936 53 905 37 873 24 C 841 10 806 0 768 -6 C 730 -12 687 -16 641 -16 Z" unicode="¢" />
<glyph horiz-adv-x="1251" d="M 88 135 C 152 135 203 139 241 148 C 279 157 307 171 326 191 C 344 210 356 235 361 265 C 366 295 369 331 369 373 C 369 407 365 444 358 486 C 350 527 341 570 331 616 C 320 661 308 707 296 755 C 283 802 271 849 261 895 C 250 941 241 986 234 1030 C 226 1073 223 1113 223 1151 C 223 1209 230 1263 246 1311 C 261 1359 286 1401 321 1435 C 355 1469 401 1496 457 1515 C 513 1534 583 1544 666 1544 C 744 1544 815 1537 879 1524 C 942 1511 1004 1492 1065 1466 L 1004 1331 C 953 1354 899 1371 842 1381 C 784 1391 725 1397 664 1397 C 608 1397 562 1390 525 1378 C 488 1365 459 1347 437 1324 C 415 1301 399 1273 390 1241 C 381 1209 377 1173 377 1133 C 377 1100 380 1064 387 1024 C 393 984 402 942 412 898 C 422 854 432 808 444 762 C 456 716 467 670 477 625 C 487 579 495 535 502 493 C 508 451 512 411 512 375 C 512 314 506 260 496 214 C 485 167 464 128 433 96 C 402 64 359 40 304 24 C 248 8 176 0 88 0 L 88 135 Z M 846 -16 C 794 -16 743 -11 693 -2 C 643 7 597 19 553 35 C 509 50 468 67 432 86 C 395 105 364 125 338 145 L 410 250 C 433 236 461 221 493 206 C 525 191 559 177 597 165 C 635 153 674 143 716 135 C 758 127 800 123 844 123 C 883 123 914 127 938 135 C 962 143 980 155 993 172 C 1006 188 1015 210 1019 236 C 1023 262 1026 293 1026 330 L 1026 379 L 1165 379 L 1165 326 C 1165 264 1160 212 1150 169 C 1140 126 1122 91 1098 63 C 1074 35 1041 15 1000 3 C 959 -9 908 -16 846 -16 Z M 72 852 L 893 852 L 893 721 L 72 721 L 72 852 Z" unicode="£" />
<glyph horiz-adv-x="1152" d="M 1056 392 L 940 284 L 740 500 C 692 468 636 452 572 452 C 510 452 456 468 408 500 L 208 284 L 92 392 L 300 608 C 281 634 268 660 262 686 C 255 711 252 742 252 780 C 252 812 255 842 262 870 C 268 898 281 925 300 952 L 92 1168 L 208 1276 L 408 1060 C 456 1092 510 1108 572 1108 C 636 1108 692 1092 740 1060 L 944 1276 L 1060 1156 L 852 952 C 870 925 883 898 890 872 C 896 845 900 814 900 780 C 900 716 882 658 848 608 L 1056 392 Z M 748 780 C 748 833 731 876 698 910 C 664 943 622 960 572 960 C 521 960 480 943 448 910 C 416 876 400 833 400 780 C 400 726 416 684 450 652 C 483 620 524 604 572 604 C 625 604 668 620 700 652 C 732 684 748 726 748 780 Z" unicode="¤" />
<glyph horiz-adv-x="1280" d="M 33 1518 L 197 1518 L 641 788 L 1083 1518 L 1247 1518 L 705 637 L 573 637 L 33 1518 Z M 135 309 L 1147 309 L 1147 172 L 135 172 L 135 309 Z M 563 717 L 717 717 L 717 0 L 563 0 L 563 717 Z M 135 618 L 1147 618 L 1147 481 L 135 481 L 135 618 Z" unicode="¥" />
<glyph horiz-adv-x="664" d="M 252 465 L 410 465 L 410 -338 L 252 -338 L 252 465 Z M 252 1589 L 410 1589 L 410 786 L 252 786 L 252 1589 Z" unicode="¦" />
<glyph horiz-adv-x="1114" d="M 307 -18 C 299 -18 288 -17 276 -17 C 264 -17 251 -17 239 -17 C 227 -17 215 -16 205 -16 C 195 -16 188 -16 184 -16 L 184 115 L 293 115 C 337 115 373 120 399 131 C 425 142 445 157 458 177 C 471 197 479 220 483 246 C 487 272 489 301 489 332 L 489 502 L 645 502 L 645 336 C 645 287 641 241 635 198 C 628 155 613 118 590 86 C 566 54 532 28 488 10 C 443 -8 383 -18 307 -18 Z M 555 467 C 409 467 299 490 224 536 C 148 582 111 657 111 762 C 111 866 148 942 224 990 C 299 1037 409 1061 555 1061 C 701 1061 813 1037 889 990 C 965 942 1004 866 1004 762 C 1004 710 994 665 975 628 C 955 590 927 560 889 536 C 851 512 805 494 749 483 C 693 472 628 467 555 467 Z M 555 578 C 660 578 739 592 792 620 C 845 648 872 694 872 760 C 872 824 845 870 793 897 C 740 924 661 938 555 938 C 449 938 371 924 319 897 C 267 870 242 824 242 760 C 242 694 268 648 320 620 C 372 592 450 578 555 578 Z M 459 1180 C 459 1228 462 1274 469 1317 C 475 1360 490 1398 514 1430 C 537 1462 571 1487 615 1506 C 659 1524 719 1534 795 1534 C 802 1534 812 1534 825 1534 C 837 1534 850 1534 863 1534 C 875 1534 887 1533 898 1533 C 908 1533 916 1532 920 1532 L 920 1397 L 811 1397 C 765 1397 729 1391 703 1380 C 676 1369 656 1354 643 1335 C 629 1315 621 1292 617 1266 C 613 1240 612 1212 612 1182 L 612 1014 L 459 1014 L 459 1180 Z" unicode="§" />
<glyph horiz-adv-x="1208" d="M 317 1462 L 461 1462 L 461 1253 L 317 1253 L 317 1462 Z M 750 1462 L 891 1462 L 891 1253 L 750 1253 L 750 1462 Z" unicode="¨" />
<glyph horiz-adv-x="1704" d="M 864 240 C 699 240 574 284 488 373 C 402 462 360 594 360 768 C 360 856 372 934 396 1000 C 420 1066 454 1120 498 1163 C 542 1206 595 1238 658 1260 C 720 1281 790 1292 868 1292 C 937 1292 1002 1281 1064 1260 C 1126 1238 1179 1207 1225 1165 L 1147 1085 C 1111 1117 1068 1141 1020 1159 C 971 1177 920 1186 866 1186 C 804 1186 749 1177 701 1159 C 652 1141 611 1115 577 1080 C 543 1045 518 1001 500 949 C 482 897 473 836 473 768 C 473 629 506 524 574 454 C 641 383 739 348 868 348 C 904 348 937 350 966 356 C 995 361 1021 368 1045 378 C 1068 388 1089 399 1107 411 C 1125 423 1142 437 1157 451 L 1231 375 C 1213 357 1192 340 1170 324 C 1147 308 1121 293 1091 281 C 1061 268 1028 258 991 251 C 953 243 911 240 864 240 Z M 848 -25 C 720 -25 609 -5 515 33 C 420 71 341 125 278 195 C 215 264 168 347 137 443 C 105 539 90 644 90 760 C 90 875 105 981 137 1077 C 168 1173 215 1255 278 1325 C 341 1394 420 1448 515 1486 C 609 1524 720 1544 848 1544 C 975 1544 1086 1524 1182 1486 C 1277 1448 1356 1394 1420 1325 C 1483 1255 1530 1173 1562 1077 C 1594 981 1610 875 1610 760 C 1610 644 1594 539 1562 443 C 1530 347 1483 264 1420 195 C 1356 125 1277 71 1182 33 C 1086 -5 975 -25 848 -25 Z M 848 51 C 966 51 1068 68 1154 103 C 1240 137 1311 186 1367 248 C 1423 310 1465 385 1493 472 C 1520 559 1534 655 1534 760 C 1534 864 1520 960 1493 1047 C 1465 1133 1423 1208 1367 1270 C 1311 1332 1240 1381 1154 1416 C 1068 1450 966 1468 848 1468 C 730 1468 629 1450 544 1416 C 458 1381 388 1332 332 1270 C 276 1208 235 1133 208 1047 C 181 960 168 864 168 760 C 168 655 181 559 208 472 C 235 385 276 310 332 248 C 388 186 458 137 544 103 C 629 68 730 51 848 51 Z" unicode="©" />
<glyph horiz-adv-x="1206" d="M 453 584 C 394 584 344 590 304 604 C 263 617 230 636 205 660 C 179 684 161 714 150 748 C 138 782 133 820 133 862 C 133 926 145 980 169 1023 C 193 1066 231 1100 281 1126 C 331 1152 395 1170 473 1180 C 550 1190 642 1196 748 1196 L 813 1196 L 813 1090 L 756 1090 C 663 1090 585 1086 522 1080 C 458 1073 407 1061 369 1044 C 330 1027 302 1004 285 976 C 268 948 260 912 260 870 C 260 816 277 773 311 743 C 345 713 401 698 479 698 C 585 698 664 723 716 775 C 768 826 795 908 795 1020 L 795 1171 C 795 1216 792 1254 787 1286 C 781 1317 770 1342 754 1362 C 737 1382 713 1396 682 1405 C 650 1414 609 1419 557 1419 C 529 1419 501 1416 475 1411 C 449 1406 424 1400 401 1393 C 377 1385 356 1377 337 1368 C 318 1358 302 1349 289 1341 L 217 1444 C 232 1454 252 1464 276 1476 C 300 1487 328 1497 358 1507 C 388 1517 421 1525 457 1531 C 492 1537 529 1540 567 1540 C 643 1540 705 1533 752 1519 C 798 1505 834 1484 860 1454 C 886 1424 903 1386 911 1340 C 919 1293 924 1237 924 1171 L 924 831 C 924 805 924 785 926 771 C 928 756 932 745 939 737 C 945 729 955 724 968 722 C 980 720 998 719 1020 719 L 1020 600 C 1014 600 1008 599 1001 599 C 994 598 985 598 973 598 C 943 598 918 599 898 603 C 878 607 861 614 848 625 C 835 636 825 652 819 672 C 813 692 809 719 807 752 C 793 723 776 698 756 677 C 736 656 712 639 684 625 C 656 611 623 600 585 594 C 547 587 503 584 453 584 Z M 219 428 L 928 428 L 928 307 L 219 307 L 219 428 Z" unicode="ª" />
<glyph horiz-adv-x="1386" d="M 195 563 L 504 1130 L 643 1130 L 344 563 L 643 0 L 504 0 L 195 563 Z M 692 563 L 1001 1130 L 1143 1130 L 842 563 L 1143 0 L 1001 0 L 692 563 Z" unicode="«" />
<glyph horiz-adv-x="1536" d="M 1116 352 L 1116 728 L 212 728 L 212 920 L 1296 920 L 1296 352 L 1116 352 Z" unicode="¬" />
<glyph horiz-adv-x="926" d="M 106 702 L 817 702 L 817 557 L 106 557 L 106 702 Z" unicode="­" />
<glyph horiz-adv-x="1704" d="M 848 -25 C 720 -25 609 -5 515 33 C 420 71 341 125 278 195 C 215 264 168 347 137 443 C 105 539 90 644 90 760 C 90 875 105 981 137 1077 C 168 1173 215 1255 278 1325 C 341 1394 420 1448 515 1486 C 609 1524 720 1544 848 1544 C 975 1544 1086 1524 1182 1486 C 1277 1448 1356 1394 1420 1325 C 1483 1255 1530 1173 1562 1077 C 1594 981 1610 875 1610 760 C 1610 644 1594 539 1562 443 C 1530 347 1483 264 1420 195 C 1356 125 1277 71 1182 33 C 1086 -5 975 -25 848 -25 Z M 848 51 C 966 51 1068 68 1154 103 C 1240 137 1311 186 1367 248 C 1423 310 1465 385 1493 472 C 1520 559 1534 655 1534 760 C 1534 864 1520 960 1493 1047 C 1465 1133 1423 1208 1367 1270 C 1311 1332 1240 1381 1154 1416 C 1068 1450 966 1468 848 1468 C 730 1468 629 1450 544 1416 C 458 1381 388 1332 332 1270 C 276 1208 235 1133 208 1047 C 181 960 168 864 168 760 C 168 655 181 559 208 472 C 235 385 276 310 332 248 C 388 186 458 137 544 103 C 629 68 730 51 848 51 Z M 487 1260 L 922 1260 C 984 1260 1036 1254 1078 1242 C 1120 1230 1155 1211 1182 1187 C 1208 1163 1227 1132 1239 1096 C 1251 1059 1257 1016 1257 967 C 1257 917 1251 873 1239 836 C 1227 799 1207 768 1181 744 C 1154 719 1119 700 1077 688 C 1034 676 982 670 922 670 L 594 670 L 594 250 L 487 250 L 487 1260 Z M 922 766 C 960 766 993 769 1021 775 C 1049 781 1073 792 1093 808 C 1112 824 1126 844 1136 870 C 1146 895 1151 927 1151 965 C 1151 1002 1146 1033 1137 1058 C 1127 1083 1113 1103 1094 1119 C 1075 1134 1051 1145 1022 1151 C 993 1157 959 1161 920 1161 L 594 1161 L 594 766 L 922 766 Z M 868 721 L 979 721 L 1255 250 L 1141 250 L 868 721 Z" unicode="®" />
<glyph horiz-adv-x="1208" d="M 236 1374 L 973 1374 L 973 1241 L 236 1241 L 236 1374 Z" unicode="¯" />
<glyph horiz-adv-x="1165" d="M 582 571 C 502 571 435 583 379 607 C 323 631 277 664 241 707 C 205 750 178 801 162 861 C 145 920 137 985 137 1057 C 137 1127 145 1192 162 1252 C 178 1311 205 1362 241 1405 C 277 1448 323 1482 379 1506 C 435 1530 502 1542 582 1542 C 660 1542 728 1530 784 1506 C 840 1482 887 1448 923 1405 C 959 1362 985 1311 1002 1252 C 1019 1192 1028 1127 1028 1057 C 1028 985 1019 920 1002 861 C 985 801 959 750 923 707 C 887 664 840 631 784 607 C 728 583 660 571 582 571 Z M 582 696 C 639 696 688 704 728 722 C 768 739 800 763 825 795 C 850 827 868 865 880 909 C 891 953 897 1001 897 1055 C 897 1107 891 1155 880 1199 C 868 1243 850 1280 825 1312 C 800 1343 768 1367 728 1385 C 688 1402 639 1411 582 1411 C 524 1411 476 1402 436 1385 C 396 1367 363 1343 338 1312 C 313 1280 295 1243 284 1199 C 273 1155 268 1107 268 1055 C 268 1001 273 953 284 909 C 295 865 313 827 338 795 C 363 763 396 739 436 722 C 476 704 524 696 582 696 Z" unicode="°" />
<glyph horiz-adv-x="1425" d="M 635 649 L 217 649 L 217 797 L 635 797 L 635 1212 L 788 1212 L 788 797 L 1206 797 L 1206 649 L 788 649 L 788 231 L 635 231 L 635 649 Z M 217 180 L 1206 180 L 1206 35 L 217 35 L 217 180 Z" unicode="±" />
<glyph horiz-adv-x="903" d="M 131 686 L 424 977 C 462 1014 493 1045 517 1071 C 541 1097 561 1121 575 1143 C 589 1165 598 1186 604 1208 C 609 1229 612 1254 612 1282 C 612 1329 597 1364 568 1387 C 539 1409 490 1421 422 1421 C 372 1421 326 1416 285 1406 C 244 1396 209 1384 180 1370 L 125 1466 C 163 1485 206 1500 254 1512 C 302 1524 362 1530 434 1530 C 535 1530 611 1511 661 1474 C 711 1437 737 1376 737 1292 C 737 1255 732 1222 724 1193 C 716 1163 703 1135 685 1107 C 667 1079 644 1050 616 1020 C 588 990 554 956 516 918 L 297 696 L 748 696 L 748 592 L 131 592 L 131 686 Z" unicode="²" />
<glyph horiz-adv-x="944" d="M 457 580 C 422 580 390 581 360 584 C 330 587 301 592 273 599 C 245 605 217 614 191 625 C 164 636 137 650 109 666 L 172 760 C 218 733 262 714 306 703 C 350 691 396 686 446 686 C 484 686 518 688 546 694 C 574 700 597 710 615 724 C 633 738 646 756 655 780 C 663 804 668 834 668 870 C 668 900 664 926 658 948 C 651 970 639 988 621 1003 C 603 1017 579 1028 548 1036 C 516 1043 476 1047 426 1047 L 295 1047 L 295 1147 L 422 1147 C 462 1147 497 1149 525 1154 C 553 1158 575 1166 592 1177 C 608 1188 620 1203 628 1221 C 635 1239 639 1262 639 1290 C 639 1339 623 1373 593 1392 C 562 1411 512 1421 444 1421 C 398 1421 353 1415 309 1405 C 265 1394 225 1378 190 1358 L 129 1452 C 151 1465 175 1477 201 1487 C 227 1497 254 1505 283 1512 C 311 1518 340 1523 370 1527 C 400 1530 429 1532 459 1532 C 513 1532 559 1527 598 1519 C 637 1511 669 1498 694 1480 C 718 1462 736 1439 748 1411 C 760 1383 766 1351 766 1313 C 766 1255 755 1209 735 1176 C 714 1143 681 1119 635 1104 C 691 1090 732 1063 756 1022 C 780 980 793 926 793 858 C 793 806 786 762 772 726 C 758 690 738 662 710 640 C 682 618 648 603 606 594 C 564 584 514 580 457 580 Z" unicode="³" />
<glyph horiz-adv-x="1208" d="M 756 1569 L 946 1569 L 594 1249 L 446 1249 L 756 1569 Z" unicode="´" />
<glyph horiz-adv-x="1266" d="M 156 1130 L 311 1130 L 311 461 C 311 429 311 399 312 371 C 313 342 317 315 323 290 C 329 264 338 241 351 221 C 364 200 383 182 408 167 C 432 152 463 141 501 133 C 539 125 585 121 641 121 C 695 121 741 125 778 133 C 815 141 846 152 870 167 C 894 182 912 200 925 221 C 937 242 946 266 952 292 C 958 318 961 345 962 375 C 962 405 963 436 963 469 L 963 1130 L 1116 1130 L 1116 471 C 1116 419 1114 372 1111 328 C 1107 284 1100 243 1090 207 C 1079 171 1063 138 1043 110 C 1022 82 994 58 960 39 C 925 19 882 5 832 -5 C 781 -15 720 -20 649 -20 C 600 -20 557 -17 520 -12 C 483 -7 451 0 424 9 C 396 18 373 29 355 43 C 337 57 322 72 311 90 L 311 -338 L 156 -338 L 156 1130 Z" unicode="µ" />
<glyph horiz-adv-x="1268" d="M 928 596 L 625 596 C 529 596 448 605 382 625 C 316 644 263 673 223 712 C 183 751 154 800 137 859 C 119 917 111 986 111 1065 C 111 1143 119 1210 137 1267 C 155 1323 184 1370 224 1408 C 264 1445 316 1473 382 1491 C 447 1509 527 1518 623 1518 L 1075 1518 L 1075 0 L 928 0 L 928 596 Z M 928 729 L 928 1374 L 621 1374 C 557 1374 502 1368 457 1358 C 412 1348 375 1330 347 1306 C 319 1281 298 1249 285 1209 C 272 1169 266 1119 266 1059 C 266 998 272 947 286 905 C 299 863 320 829 348 803 C 376 777 412 758 456 746 C 500 734 552 729 614 729 L 928 729 Z M 526 655 L 674 655 L 674 0 L 526 0 L 526 655 Z" unicode="¶" />
<glyph horiz-adv-x="489" d="M 141 793 L 346 793 L 346 561 L 141 561 L 141 793 Z" unicode="·" />
<glyph horiz-adv-x="1208" d="M 621 -461 C 569 -461 524 -455 486 -444 C 448 -432 413 -418 383 -401 L 430 -315 C 456 -329 485 -341 516 -349 C 547 -357 580 -362 614 -362 C 648 -362 676 -359 697 -353 C 718 -347 734 -339 746 -329 C 758 -319 766 -307 770 -294 C 774 -281 776 -268 776 -254 C 776 -235 773 -219 767 -207 C 761 -194 750 -184 736 -177 C 721 -169 701 -164 677 -162 C 652 -160 621 -160 584 -162 L 539 -129 L 567 14 L 668 14 L 649 -92 C 679 -90 709 -90 738 -92 C 767 -94 793 -102 815 -114 C 837 -126 855 -143 869 -167 C 882 -191 889 -223 889 -264 C 889 -292 884 -319 875 -343 C 866 -367 851 -387 830 -405 C 809 -423 782 -436 748 -446 C 714 -456 671 -461 621 -461 Z" unicode="¸" />
<glyph horiz-adv-x="672" d="M 311 1405 L 127 1405 L 127 1518 L 436 1518 L 436 592 L 311 592 L 311 1405 Z" unicode="¹" />
<glyph horiz-adv-x="1212" d="M 606 590 C 456 590 346 630 274 711 C 202 791 166 910 166 1067 C 166 1223 202 1342 274 1422 C 346 1502 456 1542 606 1542 C 753 1542 863 1502 937 1422 C 1010 1342 1047 1223 1047 1067 C 1047 910 1010 791 937 711 C 863 630 753 590 606 590 Z M 606 711 C 710 711 787 741 837 801 C 887 861 913 949 913 1065 C 913 1180 887 1267 837 1326 C 787 1385 710 1415 606 1415 C 501 1415 424 1385 374 1326 C 324 1266 299 1179 299 1065 C 299 949 324 861 374 801 C 424 741 501 711 606 711 Z M 221 428 L 991 428 L 991 305 L 221 305 L 221 428 Z" unicode="º" />
<glyph horiz-adv-x="1386" d="M 547 565 L 248 1130 L 385 1130 L 694 565 L 385 0 L 248 0 L 547 565 Z M 1042 565 L 743 1130 L 885 1130 L 1194 565 L 885 0 L 743 0 L 1042 565 Z" unicode="»" />
<glyph horiz-adv-x="1786" d="M 1423 217 L 969 217 L 969 315 L 1382 930 L 1522 930 L 1112 324 L 1423 324 L 1446 575 L 1546 575 L 1546 324 L 1700 324 L 1700 217 L 1546 217 L 1546 0 L 1423 0 L 1423 217 Z M 299 1401 L 115 1401 L 115 1518 L 428 1518 L 428 588 L 299 588 L 299 1401 Z M 1208 1518 L 1350 1518 L 504 0 L 362 0 L 1208 1518 Z" unicode="¼" />
<glyph horiz-adv-x="1925" d="M 1151 98 L 1444 387 C 1482 425 1513 457 1538 483 C 1562 509 1582 532 1596 554 C 1610 575 1620 596 1626 616 C 1631 636 1634 660 1634 688 C 1634 735 1619 770 1590 793 C 1561 815 1512 827 1444 827 C 1393 827 1347 821 1307 811 C 1266 801 1231 788 1202 774 L 1145 877 C 1183 895 1227 910 1276 922 C 1324 934 1384 940 1456 940 C 1557 940 1632 921 1682 884 C 1732 847 1757 786 1757 700 C 1757 663 1753 630 1745 601 C 1737 572 1724 544 1706 516 C 1688 488 1666 460 1638 430 C 1610 400 1577 365 1538 326 L 1323 109 L 1755 109 L 1755 0 L 1151 0 L 1151 98 Z M 299 1401 L 115 1401 L 115 1518 L 428 1518 L 428 588 L 299 588 L 299 1401 Z M 1208 1518 L 1350 1518 L 504 0 L 362 0 L 1208 1518 Z" unicode="½" />
<glyph horiz-adv-x="1978" d="M 426 586 C 392 586 360 587 330 590 C 300 593 271 598 243 605 C 215 612 187 621 160 633 C 133 644 106 658 78 674 L 145 772 C 192 745 237 726 279 715 C 321 703 366 698 416 698 C 454 698 486 700 514 705 C 542 710 565 719 583 733 C 601 747 614 765 622 789 C 630 812 635 842 635 879 C 635 908 631 933 625 955 C 618 977 606 995 588 1009 C 570 1023 546 1033 515 1040 C 484 1047 444 1051 395 1051 L 266 1051 L 266 1159 L 391 1159 C 432 1159 467 1161 495 1165 C 523 1169 545 1177 562 1188 C 579 1198 591 1212 599 1230 C 606 1248 610 1270 610 1298 C 610 1322 606 1343 598 1360 C 590 1376 579 1390 563 1400 C 547 1410 526 1417 502 1421 C 477 1425 448 1427 414 1427 C 368 1427 324 1421 280 1410 C 236 1399 196 1383 162 1362 L 98 1460 C 142 1488 193 1508 251 1522 C 309 1535 368 1542 428 1542 C 482 1542 528 1537 567 1529 C 606 1521 638 1508 663 1490 C 687 1472 705 1449 717 1421 C 729 1393 735 1359 735 1321 C 735 1263 724 1217 702 1185 C 680 1153 647 1128 602 1112 C 656 1098 697 1071 723 1031 C 749 990 762 935 762 866 C 762 813 755 769 741 733 C 727 697 707 669 679 647 C 651 625 617 609 575 600 C 533 590 483 586 426 586 Z M 1616 217 L 1163 217 L 1163 315 L 1575 930 L 1716 930 L 1305 324 L 1618 324 L 1640 575 L 1741 575 L 1741 324 L 1892 324 L 1892 217 L 1741 217 L 1741 0 L 1616 0 L 1616 217 Z M 1403 1518 L 1544 1518 L 696 0 L 557 0 L 1403 1518 Z" unicode="¾" />
<glyph horiz-adv-x="1360" d="M 662 -14 C 564 -14 484 -6 421 9 C 357 24 307 47 269 78 C 231 108 205 146 190 191 C 175 236 168 288 168 348 C 168 398 174 442 187 480 C 199 517 218 550 242 580 C 266 609 295 636 331 660 C 366 684 407 709 453 735 C 499 761 536 785 564 807 C 591 829 611 853 625 881 C 638 909 645 942 647 980 C 649 1018 647 1066 643 1124 L 797 1124 C 803 1056 805 999 803 952 C 800 905 790 864 773 828 C 756 792 731 760 699 732 C 666 704 623 675 571 645 C 524 619 485 595 454 575 C 423 555 398 534 380 514 C 361 493 348 470 340 446 C 332 422 328 392 328 358 C 328 324 331 293 339 265 C 347 237 363 213 387 194 C 411 174 446 159 492 149 C 537 138 597 133 672 133 C 753 133 832 142 908 160 C 984 178 1054 204 1116 238 L 1184 102 C 1150 84 1113 67 1072 53 C 1030 39 987 27 942 17 C 896 7 850 0 802 -6 C 754 -11 708 -14 662 -14 Z M 618 1528 L 823 1528 L 823 1319 L 618 1319 L 618 1528 Z" unicode="¿" />
<glyph horiz-adv-x="1487" d="M 659 1528 L 821 1528 L 1430 0 L 1266 0 L 1126 350 L 348 350 L 211 0 L 51 0 L 659 1528 Z M 1069 498 L 737 1333 L 403 498 L 1069 498 Z M 397 1927 L 588 1927 L 897 1607 L 749 1607 L 397 1927 Z" unicode="À" />
<glyph horiz-adv-x="1487" d="M 659 1528 L 821 1528 L 1430 0 L 1266 0 L 1126 350 L 348 350 L 211 0 L 51 0 L 659 1528 Z M 1069 498 L 737 1333 L 403 498 L 1069 498 Z M 891 1927 L 1081 1927 L 729 1607 L 581 1607 L 891 1927 Z" unicode="Á" />
<glyph horiz-adv-x="1487" d="M 659 1528 L 821 1528 L 1430 0 L 1266 0 L 1126 350 L 348 350 L 211 0 L 51 0 L 659 1528 Z M 1069 498 L 737 1333 L 403 498 L 1069 498 Z M 651 1927 L 825 1927 L 1136 1607 L 981 1607 L 735 1826 L 493 1607 L 340 1607 L 651 1927 Z" unicode="Â" />
<glyph horiz-adv-x="1487" d="M 659 1528 L 821 1528 L 1430 0 L 1266 0 L 1126 350 L 348 350 L 211 0 L 51 0 L 659 1528 Z M 1069 498 L 737 1333 L 403 498 L 1069 498 Z M 346 1689 C 362 1709 381 1729 401 1748 C 421 1766 441 1782 463 1796 C 484 1810 506 1821 528 1829 C 550 1837 573 1841 596 1841 C 630 1841 660 1835 684 1825 C 708 1815 731 1803 752 1791 C 772 1779 792 1767 812 1757 C 832 1747 854 1742 880 1742 C 893 1742 906 1745 920 1751 C 934 1757 947 1765 961 1775 C 974 1785 987 1797 1001 1811 C 1014 1824 1027 1838 1040 1853 L 1134 1777 C 1116 1755 1098 1735 1079 1715 C 1059 1695 1039 1677 1018 1662 C 996 1646 974 1634 952 1625 C 929 1615 906 1611 883 1611 C 852 1611 824 1616 800 1627 C 776 1637 753 1649 731 1661 C 709 1673 688 1685 667 1696 C 645 1706 622 1712 598 1712 C 573 1712 547 1703 519 1685 C 491 1667 466 1643 444 1613 L 346 1689 Z" unicode="Ã" />
<glyph horiz-adv-x="1487" d="M 659 1528 L 821 1528 L 1430 0 L 1266 0 L 1126 350 L 348 350 L 211 0 L 51 0 L 659 1528 Z M 1069 498 L 737 1333 L 403 498 L 1069 498 Z M 452 1820 L 596 1820 L 596 1611 L 452 1611 L 452 1820 Z M 885 1820 L 1026 1820 L 1026 1611 L 885 1611 L 885 1820 Z" unicode="Ä" />
<glyph horiz-adv-x="1487" d="M 627 1442 C 581 1460 548 1490 528 1530 C 508 1570 498 1617 498 1671 C 498 1705 502 1738 512 1768 C 521 1798 535 1825 555 1848 C 574 1870 599 1888 630 1901 C 660 1914 697 1921 741 1921 C 782 1921 818 1914 849 1901 C 880 1888 906 1870 926 1848 C 946 1825 962 1798 972 1768 C 982 1738 987 1705 987 1671 C 987 1619 976 1572 954 1532 C 932 1491 900 1461 856 1442 L 1432 0 L 1270 0 L 1130 348 L 348 348 L 213 0 L 53 0 L 627 1442 Z M 1073 496 L 739 1333 L 406 496 L 1073 496 Z M 741 1511 C 768 1511 791 1515 811 1523 C 830 1531 846 1542 859 1556 C 871 1570 880 1587 886 1607 C 892 1626 895 1647 895 1671 C 895 1693 892 1714 886 1734 C 880 1753 871 1770 859 1784 C 846 1798 830 1810 811 1818 C 791 1826 768 1831 741 1831 C 713 1831 690 1826 671 1818 C 652 1810 636 1798 624 1784 C 611 1770 602 1753 596 1734 C 590 1714 588 1693 588 1671 C 588 1647 590 1626 596 1607 C 602 1587 611 1570 624 1556 C 636 1542 652 1531 671 1523 C 690 1515 713 1511 741 1511 Z" unicode="Å" />
<glyph horiz-adv-x="2191" d="M 995 1518 L 2066 1518 L 2066 1364 L 1223 1364 L 1223 862 L 2046 862 L 2046 715 L 1223 715 L 1223 147 L 2075 147 L 2075 0 L 1069 0 L 1069 344 L 420 344 L 201 0 L 41 0 L 995 1518 Z M 1069 483 L 1069 1372 L 502 483 L 1069 483 Z" unicode="Æ" />
<glyph horiz-adv-x="1477" d="M 754 -461 C 702 -461 657 -455 619 -444 C 581 -432 547 -418 516 -401 L 563 -315 C 589 -329 618 -341 650 -349 C 681 -357 714 -362 748 -362 C 782 -362 809 -359 831 -353 C 852 -347 868 -339 880 -329 C 891 -319 899 -307 903 -294 C 907 -281 909 -268 909 -254 C 909 -235 906 -219 900 -207 C 894 -194 883 -184 869 -177 C 854 -169 834 -164 810 -162 C 785 -160 754 -160 717 -162 L 672 -129 L 694 -14 C 488 9 336 86 238 217 C 139 347 90 528 90 760 C 90 892 106 1008 140 1106 C 174 1204 223 1285 287 1350 C 351 1414 431 1462 525 1494 C 619 1526 726 1542 846 1542 C 954 1542 1052 1526 1142 1495 C 1231 1463 1309 1416 1376 1352 L 1262 1237 C 1207 1286 1144 1324 1074 1350 C 1004 1376 927 1389 844 1389 C 648 1389 501 1336 401 1231 C 301 1125 252 968 252 758 C 252 654 263 563 287 485 C 311 406 347 340 396 288 C 445 235 507 195 582 169 C 656 142 744 129 846 129 C 902 129 952 133 996 141 C 1039 149 1077 161 1111 175 C 1145 189 1175 206 1201 225 C 1227 243 1251 263 1274 285 L 1386 176 C 1360 150 1330 126 1298 102 C 1265 78 1227 56 1183 38 C 1139 19 1089 4 1033 -6 C 977 -17 912 -23 838 -23 L 795 -23 L 782 -92 C 812 -90 842 -90 871 -92 C 900 -94 926 -102 948 -114 C 970 -126 988 -143 1002 -167 C 1015 -191 1022 -223 1022 -264 C 1022 -292 1017 -319 1008 -343 C 999 -367 984 -387 963 -405 C 942 -423 915 -436 881 -446 C 847 -456 804 -461 754 -461 Z" unicode="Ç" />
<glyph horiz-adv-x="1309" d="M 178 1518 L 1182 1518 L 1182 1364 L 340 1364 L 340 862 L 1161 862 L 1161 711 L 340 711 L 340 147 L 1190 147 L 1190 0 L 178 0 L 178 1518 Z M 309 1927 L 500 1927 L 809 1607 L 661 1607 L 309 1927 Z" unicode="È" />
<glyph horiz-adv-x="1309" d="M 803 1927 L 993 1927 L 641 1607 L 493 1607 L 803 1927 Z M 178 1518 L 1182 1518 L 1182 1364 L 340 1364 L 340 862 L 1161 862 L 1161 711 L 340 711 L 340 147 L 1190 147 L 1190 0 L 178 0 L 178 1518 Z" unicode="É" />
<glyph horiz-adv-x="1309" d="M 563 1927 L 737 1927 L 1048 1607 L 893 1607 L 647 1826 L 405 1607 L 252 1607 L 563 1927 Z M 178 1518 L 1182 1518 L 1182 1364 L 340 1364 L 340 862 L 1161 862 L 1161 711 L 340 711 L 340 147 L 1190 147 L 1190 0 L 178 0 L 178 1518 Z" unicode="Ê" />
<glyph horiz-adv-x="1309" d="M 364 1820 L 508 1820 L 508 1611 L 364 1611 L 364 1820 Z M 797 1820 L 938 1820 L 938 1611 L 797 1611 L 797 1820 Z M 178 1518 L 1182 1518 L 1182 1364 L 340 1364 L 340 862 L 1161 862 L 1161 711 L 340 711 L 340 147 L 1190 147 L 1190 0 L 178 0 L 178 1518 Z" unicode="Ë" />
<glyph horiz-adv-x="547" d="M -111 1927 L 84 1927 L 352 1608 L 203 1608 L -111 1927 Z M 195 1518 L 352 1518 L 352 0 L 195 0 L 195 1518 Z" unicode="Ì" />
<glyph horiz-adv-x="547" d="M 461 1927 L 655 1927 L 344 1608 L 195 1608 L 461 1927 Z M 195 1518 L 352 1518 L 352 0 L 195 0 L 195 1518 Z" unicode="Í" />
<glyph horiz-adv-x="547" d="M 188 1927 L 356 1927 L 618 1608 L 465 1608 L 270 1831 L 76 1608 L -76 1608 L 188 1927 Z M 195 1518 L 352 1518 L 352 0 L 195 0 L 195 1518 Z" unicode="Î" />
<glyph horiz-adv-x="547" d="M 195 1518 L 352 1518 L 352 0 L 195 0 L 195 1518 Z M -12 1820 L 132 1820 L 132 1611 L -12 1611 L -12 1820 Z M 421 1820 L 562 1820 L 562 1611 L 421 1611 L 421 1820 Z" unicode="Ï" />
<glyph horiz-adv-x="1540" d="M 178 1518 L 674 1518 C 816 1518 936 1506 1035 1482 C 1134 1458 1214 1417 1276 1359 C 1338 1301 1382 1223 1410 1126 C 1438 1028 1452 906 1452 760 C 1452 616 1436 496 1405 399 C 1374 301 1326 223 1261 164 C 1195 105 1112 63 1011 38 C 909 12 788 0 647 0 L 178 0 L 178 1518 Z M 653 147 C 773 147 873 157 955 179 C 1036 201 1101 236 1151 284 C 1201 332 1236 396 1258 474 C 1279 552 1290 647 1290 760 C 1290 836 1286 904 1278 964 C 1270 1024 1256 1076 1238 1121 C 1219 1165 1194 1203 1163 1235 C 1132 1266 1094 1291 1049 1311 C 1003 1330 950 1344 888 1353 C 826 1361 756 1366 676 1366 L 340 1366 L 340 147 L 653 147 Z M 0 854 L 684 854 L 684 719 L 0 719 L 0 854 Z" unicode="Ð" />
<glyph horiz-adv-x="1595" d="M 178 1518 L 354 1518 L 1262 266 L 1262 1518 L 1417 1518 L 1417 0 L 1270 0 L 334 1288 L 334 0 L 178 0 L 178 1518 Z M 401 1689 C 417 1709 436 1729 456 1748 C 476 1766 496 1782 518 1796 C 539 1810 561 1821 583 1829 C 605 1837 628 1841 651 1841 C 685 1841 715 1835 739 1825 C 763 1815 786 1803 807 1791 C 827 1779 847 1767 867 1757 C 887 1747 909 1742 935 1742 C 948 1742 961 1745 975 1751 C 989 1757 1002 1765 1016 1775 C 1029 1785 1042 1797 1056 1811 C 1069 1824 1082 1838 1095 1853 L 1189 1777 C 1171 1755 1153 1735 1134 1715 C 1114 1695 1094 1677 1073 1662 C 1051 1646 1029 1634 1007 1625 C 984 1615 961 1611 938 1611 C 907 1611 879 1616 855 1627 C 831 1637 808 1649 786 1661 C 764 1673 743 1685 722 1696 C 700 1706 677 1712 653 1712 C 628 1712 602 1703 574 1685 C 546 1667 521 1643 499 1613 L 401 1689 Z" unicode="Ñ" />
<glyph horiz-adv-x="1708" d="M 852 -25 C 730 -25 622 -9 528 21 C 434 52 354 100 289 164 C 224 228 175 309 141 408 C 107 506 90 624 90 760 C 90 894 107 1011 141 1109 C 175 1207 224 1289 289 1353 C 354 1417 434 1464 528 1495 C 622 1526 730 1542 852 1542 C 974 1542 1082 1526 1177 1495 C 1272 1464 1352 1417 1418 1353 C 1483 1289 1533 1207 1567 1109 C 1601 1011 1618 894 1618 760 C 1618 624 1601 506 1567 408 C 1533 309 1483 228 1418 164 C 1352 100 1272 52 1177 21 C 1082 -9 974 -25 852 -25 Z M 852 125 C 955 125 1045 138 1121 166 C 1197 193 1259 233 1309 287 C 1359 340 1396 406 1420 485 C 1444 563 1456 654 1456 758 C 1456 860 1444 950 1420 1029 C 1396 1107 1359 1173 1309 1227 C 1259 1280 1197 1320 1121 1348 C 1045 1375 955 1389 852 1389 C 748 1389 659 1375 584 1348 C 508 1320 446 1280 397 1227 C 348 1173 312 1107 288 1029 C 264 950 252 860 252 758 C 252 654 264 563 288 485 C 312 406 348 340 397 287 C 446 233 508 193 584 166 C 659 138 748 125 852 125 Z M 510 1927 L 701 1927 L 1010 1607 L 862 1607 L 510 1927 Z" unicode="Ò" />
<glyph horiz-adv-x="1708" d="M 1004 1927 L 1194 1927 L 842 1607 L 694 1607 L 1004 1927 Z M 852 -25 C 730 -25 622 -9 528 21 C 434 52 354 100 289 164 C 224 228 175 309 141 408 C 107 506 90 624 90 760 C 90 894 107 1011 141 1109 C 175 1207 224 1289 289 1353 C 354 1417 434 1464 528 1495 C 622 1526 730 1542 852 1542 C 974 1542 1082 1526 1177 1495 C 1272 1464 1352 1417 1418 1353 C 1483 1289 1533 1207 1567 1109 C 1601 1011 1618 894 1618 760 C 1618 624 1601 506 1567 408 C 1533 309 1483 228 1418 164 C 1352 100 1272 52 1177 21 C 1082 -9 974 -25 852 -25 Z M 852 125 C 955 125 1045 138 1121 166 C 1197 193 1259 233 1309 287 C 1359 340 1396 406 1420 485 C 1444 563 1456 654 1456 758 C 1456 860 1444 950 1420 1029 C 1396 1107 1359 1173 1309 1227 C 1259 1280 1197 1320 1121 1348 C 1045 1375 955 1389 852 1389 C 748 1389 659 1375 584 1348 C 508 1320 446 1280 397 1227 C 348 1173 312 1107 288 1029 C 264 950 252 860 252 758 C 252 654 264 563 288 485 C 312 406 348 340 397 287 C 446 233 508 193 584 166 C 659 138 748 125 852 125 Z" unicode="Ó" />
<glyph horiz-adv-x="1708" d="M 764 1927 L 938 1927 L 1249 1607 L 1094 1607 L 848 1826 L 606 1607 L 453 1607 L 764 1927 Z M 852 -25 C 730 -25 622 -9 528 21 C 434 52 354 100 289 164 C 224 228 175 309 141 408 C 107 506 90 624 90 760 C 90 894 107 1011 141 1109 C 175 1207 224 1289 289 1353 C 354 1417 434 1464 528 1495 C 622 1526 730 1542 852 1542 C 974 1542 1082 1526 1177 1495 C 1272 1464 1352 1417 1418 1353 C 1483 1289 1533 1207 1567 1109 C 1601 1011 1618 894 1618 760 C 1618 624 1601 506 1567 408 C 1533 309 1483 228 1418 164 C 1352 100 1272 52 1177 21 C 1082 -9 974 -25 852 -25 Z M 852 125 C 955 125 1045 138 1121 166 C 1197 193 1259 233 1309 287 C 1359 340 1396 406 1420 485 C 1444 563 1456 654 1456 758 C 1456 860 1444 950 1420 1029 C 1396 1107 1359 1173 1309 1227 C 1259 1280 1197 1320 1121 1348 C 1045 1375 955 1389 852 1389 C 748 1389 659 1375 584 1348 C 508 1320 446 1280 397 1227 C 348 1173 312 1107 288 1029 C 264 950 252 860 252 758 C 252 654 264 563 288 485 C 312 406 348 340 397 287 C 446 233 508 193 584 166 C 659 138 748 125 852 125 Z" unicode="Ô" />
<glyph horiz-adv-x="1708" d="M 852 -25 C 730 -25 622 -9 528 21 C 434 52 354 100 289 164 C 224 228 175 309 141 408 C 107 506 90 624 90 760 C 90 894 107 1011 141 1109 C 175 1207 224 1289 289 1353 C 354 1417 434 1464 528 1495 C 622 1526 730 1542 852 1542 C 974 1542 1082 1526 1177 1495 C 1272 1464 1352 1417 1418 1353 C 1483 1289 1533 1207 1567 1109 C 1601 1011 1618 894 1618 760 C 1618 624 1601 506 1567 408 C 1533 309 1483 228 1418 164 C 1352 100 1272 52 1177 21 C 1082 -9 974 -25 852 -25 Z M 852 125 C 955 125 1045 138 1121 166 C 1197 193 1259 233 1309 287 C 1359 340 1396 406 1420 485 C 1444 563 1456 654 1456 758 C 1456 860 1444 950 1420 1029 C 1396 1107 1359 1173 1309 1227 C 1259 1280 1197 1320 1121 1348 C 1045 1375 955 1389 852 1389 C 748 1389 659 1375 584 1348 C 508 1320 446 1280 397 1227 C 348 1173 312 1107 288 1029 C 264 950 252 860 252 758 C 252 654 264 563 288 485 C 312 406 348 340 397 287 C 446 233 508 193 584 166 C 659 138 748 125 852 125 Z M 459 1689 C 475 1709 494 1729 514 1748 C 534 1766 554 1782 576 1796 C 597 1810 619 1821 641 1829 C 663 1837 686 1841 709 1841 C 743 1841 773 1835 797 1825 C 821 1815 844 1803 865 1791 C 885 1779 905 1767 925 1757 C 945 1747 967 1742 993 1742 C 1006 1742 1019 1745 1033 1751 C 1047 1757 1060 1765 1074 1775 C 1087 1785 1100 1797 1114 1811 C 1127 1824 1140 1838 1153 1853 L 1247 1777 C 1229 1755 1211 1735 1192 1715 C 1172 1695 1152 1677 1131 1662 C 1109 1646 1087 1634 1065 1625 C 1042 1615 1019 1611 996 1611 C 965 1611 937 1616 913 1627 C 889 1637 866 1649 844 1661 C 822 1673 801 1685 780 1696 C 758 1706 735 1712 711 1712 C 686 1712 660 1703 632 1685 C 604 1667 579 1643 557 1613 L 459 1689 Z" unicode="Õ" />
<glyph horiz-adv-x="1708" d="M 565 1820 L 709 1820 L 709 1611 L 565 1611 L 565 1820 Z M 998 1820 L 1139 1820 L 1139 1611 L 998 1611 L 998 1820 Z M 852 -25 C 730 -25 622 -9 528 21 C 434 52 354 100 289 164 C 224 228 175 309 141 408 C 107 506 90 624 90 760 C 90 894 107 1011 141 1109 C 175 1207 224 1289 289 1353 C 354 1417 434 1464 528 1495 C 622 1526 730 1542 852 1542 C 974 1542 1082 1526 1177 1495 C 1272 1464 1352 1417 1418 1353 C 1483 1289 1533 1207 1567 1109 C 1601 1011 1618 894 1618 760 C 1618 624 1601 506 1567 408 C 1533 309 1483 228 1418 164 C 1352 100 1272 52 1177 21 C 1082 -9 974 -25 852 -25 Z M 852 125 C 955 125 1045 138 1121 166 C 1197 193 1259 233 1309 287 C 1359 340 1396 406 1420 485 C 1444 563 1456 654 1456 758 C 1456 860 1444 950 1420 1029 C 1396 1107 1359 1173 1309 1227 C 1259 1280 1197 1320 1121 1348 C 1045 1375 955 1389 852 1389 C 748 1389 659 1375 584 1348 C 508 1320 446 1280 397 1227 C 348 1173 312 1107 288 1029 C 264 950 252 860 252 758 C 252 654 264 563 288 485 C 312 406 348 340 397 287 C 446 233 508 193 584 166 C 659 138 748 125 852 125 Z" unicode="Ö" />
<glyph horiz-adv-x="1425" d="M 291 397 L 616 721 L 291 1047 L 387 1147 L 713 821 L 1036 1147 L 1133 1047 L 809 721 L 1133 397 L 1036 299 L 713 625 L 385 299 L 291 397 Z" unicode="×" />
<glyph horiz-adv-x="1708" d="M 852 1393 C 637 1393 483 1338 389 1229 C 295 1120 248 963 248 758 C 248 630 265 521 300 430 C 335 338 390 267 466 217 L 1105 1360 C 1069 1370 1029 1378 987 1384 C 945 1390 900 1393 852 1393 L 852 1393 Z M 576 162 C 614 148 656 138 702 131 C 748 124 798 121 852 121 C 1068 121 1223 175 1318 285 C 1412 394 1460 552 1460 758 C 1460 890 1440 1003 1402 1097 C 1363 1191 1302 1262 1218 1311 L 576 162 Z M 1618 760 C 1618 490 1553 291 1424 165 C 1294 38 1104 -25 852 -25 C 786 -25 724 -20 666 -12 C 608 -3 555 9 507 26 L 444 -84 L 289 -84 L 383 85 C 286 144 213 229 164 341 C 114 453 90 592 90 760 C 90 1028 154 1226 283 1352 C 411 1478 601 1542 852 1542 C 912 1542 970 1538 1024 1531 C 1078 1524 1129 1513 1176 1499 L 1235 1604 L 1391 1604 L 1301 1446 C 1405 1388 1484 1302 1538 1189 C 1591 1075 1618 932 1618 760 L 1618 760 Z" unicode="Ø" />
<glyph horiz-adv-x="1593" d="M 795 -25 C 705 -25 627 -17 561 -3 C 495 10 439 30 393 56 C 346 82 308 112 279 148 C 250 184 227 223 211 265 C 194 307 183 352 177 400 C 171 448 168 497 168 547 L 168 1518 L 330 1518 L 330 565 C 330 500 336 441 349 387 C 361 333 385 287 419 248 C 453 209 500 179 560 157 C 620 135 699 125 795 125 C 891 125 970 135 1032 157 C 1094 178 1142 208 1177 247 C 1212 285 1236 332 1250 386 C 1263 440 1270 499 1270 565 L 1270 1518 L 1425 1518 L 1425 547 C 1425 497 1421 448 1415 400 C 1409 352 1397 306 1380 264 C 1363 222 1340 183 1311 148 C 1281 112 1243 82 1197 56 C 1150 30 1094 10 1028 -3 C 962 -17 884 -25 795 -25 Z M 452 1927 L 643 1927 L 952 1607 L 804 1607 L 452 1927 Z" unicode="Ù" />
<glyph horiz-adv-x="1593" d="M 946 1927 L 1136 1927 L 784 1607 L 636 1607 L 946 1927 Z M 795 -25 C 705 -25 627 -17 561 -3 C 495 10 439 30 393 56 C 346 82 308 112 279 148 C 250 184 227 223 211 265 C 194 307 183 352 177 400 C 171 448 168 497 168 547 L 168 1518 L 330 1518 L 330 565 C 330 500 336 441 349 387 C 361 333 385 287 419 248 C 453 209 500 179 560 157 C 620 135 699 125 795 125 C 891 125 970 135 1032 157 C 1094 178 1142 208 1177 247 C 1212 285 1236 332 1250 386 C 1263 440 1270 499 1270 565 L 1270 1518 L 1425 1518 L 1425 547 C 1425 497 1421 448 1415 400 C 1409 352 1397 306 1380 264 C 1363 222 1340 183 1311 148 C 1281 112 1243 82 1197 56 C 1150 30 1094 10 1028 -3 C 962 -17 884 -25 795 -25 Z" unicode="Ú" />
<glyph horiz-adv-x="1593" d="M 706 1927 L 880 1927 L 1191 1607 L 1036 1607 L 790 1826 L 548 1607 L 395 1607 L 706 1927 Z M 795 -25 C 705 -25 627 -17 561 -3 C 495 10 439 30 393 56 C 346 82 308 112 279 148 C 250 184 227 223 211 265 C 194 307 183 352 177 400 C 171 448 168 497 168 547 L 168 1518 L 330 1518 L 330 565 C 330 500 336 441 349 387 C 361 333 385 287 419 248 C 453 209 500 179 560 157 C 620 135 699 125 795 125 C 891 125 970 135 1032 157 C 1094 178 1142 208 1177 247 C 1212 285 1236 332 1250 386 C 1263 440 1270 499 1270 565 L 1270 1518 L 1425 1518 L 1425 547 C 1425 497 1421 448 1415 400 C 1409 352 1397 306 1380 264 C 1363 222 1340 183 1311 148 C 1281 112 1243 82 1197 56 C 1150 30 1094 10 1028 -3 C 962 -17 884 -25 795 -25 Z" unicode="Û" />
<glyph horiz-adv-x="1593" d="M 507 1820 L 651 1820 L 651 1611 L 507 1611 L 507 1820 Z M 940 1820 L 1081 1820 L 1081 1611 L 940 1611 L 940 1820 Z M 795 -25 C 705 -25 627 -17 561 -3 C 495 10 439 30 393 56 C 346 82 308 112 279 148 C 250 184 227 223 211 265 C 194 307 183 352 177 400 C 171 448 168 497 168 547 L 168 1518 L 330 1518 L 330 565 C 330 500 336 441 349 387 C 361 333 385 287 419 248 C 453 209 500 179 560 157 C 620 135 699 125 795 125 C 891 125 970 135 1032 157 C 1094 178 1142 208 1177 247 C 1212 285 1236 332 1250 386 C 1263 440 1270 499 1270 565 L 1270 1518 L 1425 1518 L 1425 547 C 1425 497 1421 448 1415 400 C 1409 352 1397 306 1380 264 C 1363 222 1340 183 1311 148 C 1281 112 1243 82 1197 56 C 1150 30 1094 10 1028 -3 C 962 -17 884 -25 795 -25 Z" unicode="Ü" />
<glyph horiz-adv-x="1434" d="M 27 1518 L 203 1518 L 719 735 L 1239 1518 L 1405 1518 L 782 571 L 649 571 L 27 1518 Z M 637 670 L 797 670 L 797 0 L 637 0 L 637 670 Z M 867 1927 L 1057 1927 L 705 1607 L 557 1607 L 867 1927 Z" unicode="Ý" />
<glyph horiz-adv-x="1446" d="M 178 1518 L 336 1518 L 336 1268 L 844 1268 C 939 1268 1019 1259 1085 1241 C 1150 1223 1203 1195 1243 1158 C 1283 1120 1311 1073 1329 1016 C 1347 958 1356 891 1356 813 C 1356 735 1347 666 1330 606 C 1312 546 1283 497 1243 457 C 1203 417 1150 386 1084 366 C 1018 346 938 336 842 336 L 336 336 L 336 0 L 178 0 L 178 1518 Z M 846 483 C 908 483 961 488 1005 500 C 1049 512 1086 531 1114 557 C 1142 583 1162 616 1176 658 C 1189 699 1196 749 1196 809 C 1196 869 1189 919 1176 959 C 1163 999 1142 1031 1114 1055 C 1086 1079 1049 1097 1004 1107 C 959 1117 904 1122 840 1122 L 336 1122 L 336 483 L 846 483 Z" unicode="Þ" />
<glyph horiz-adv-x="1327" d="M 156 1112 C 156 1178 164 1241 181 1300 C 197 1358 225 1409 265 1453 C 305 1497 357 1531 422 1557 C 487 1582 568 1595 664 1595 C 826 1595 945 1562 1021 1497 C 1097 1432 1135 1334 1135 1202 C 1135 1150 1129 1105 1119 1065 C 1109 1025 1094 991 1075 961 C 1056 931 1033 907 1006 887 C 978 867 947 852 913 840 C 969 830 1019 814 1061 794 C 1103 773 1139 746 1167 714 C 1195 682 1216 643 1230 597 C 1244 551 1251 498 1251 438 C 1251 370 1243 310 1229 256 C 1214 202 1186 156 1144 118 C 1102 80 1044 50 969 30 C 894 10 796 0 676 0 L 543 0 L 543 141 L 672 141 C 734 141 787 144 832 151 C 877 158 915 168 947 181 C 979 194 1004 210 1024 229 C 1044 247 1059 268 1070 290 C 1081 312 1088 337 1092 363 C 1096 389 1098 417 1098 446 C 1098 497 1090 542 1076 580 C 1062 618 1037 649 1003 675 C 968 700 922 719 865 731 C 807 743 735 750 649 750 L 649 881 C 757 881 840 904 896 950 C 952 996 981 1069 981 1167 C 981 1213 975 1253 963 1287 C 951 1321 932 1350 906 1373 C 880 1395 847 1412 807 1423 C 767 1434 718 1440 662 1440 C 600 1440 546 1432 502 1416 C 457 1400 420 1378 392 1349 C 364 1320 343 1285 329 1244 C 315 1203 309 1157 309 1106 L 309 0 L 156 0 L 156 1112 Z" unicode="ß" />
<glyph horiz-adv-x="1270" d="M 487 -20 C 407 -20 342 -11 291 5 C 239 22 199 46 169 76 C 139 106 119 141 107 182 C 95 223 90 267 90 315 C 90 395 102 462 127 516 C 151 570 193 613 251 645 C 309 677 387 699 484 713 C 580 726 700 733 844 733 L 932 733 L 932 592 L 852 592 C 770 592 698 590 636 587 C 574 583 520 578 475 570 C 429 562 391 552 361 539 C 331 525 307 509 289 489 C 271 469 258 446 251 419 C 243 392 240 361 240 326 C 240 292 244 261 253 235 C 261 209 276 186 297 168 C 317 150 345 136 380 127 C 414 117 458 113 510 113 C 581 113 642 120 693 136 C 743 152 785 176 817 208 C 849 240 873 282 888 332 C 903 382 911 441 911 510 L 911 700 C 911 754 908 801 902 841 C 896 880 882 912 861 938 C 840 963 809 982 769 994 C 729 1006 674 1012 606 1012 C 570 1012 535 1009 503 1003 C 470 997 439 990 410 980 C 381 970 355 960 331 948 C 307 936 286 925 268 913 L 186 1034 C 204 1046 228 1060 258 1074 C 288 1088 321 1102 359 1114 C 397 1126 437 1137 481 1145 C 525 1153 570 1157 618 1157 C 713 1157 790 1148 848 1131 C 906 1113 950 1086 982 1050 C 1014 1013 1035 966 1045 908 C 1055 850 1061 780 1061 700 L 1061 274 C 1061 244 1062 220 1064 202 C 1066 184 1070 170 1078 160 C 1086 150 1097 144 1113 141 C 1129 138 1150 137 1178 137 L 1178 2 C 1172 0 1164 -1 1154 -1 C 1144 -1 1131 -2 1116 -2 C 1083 -2 1056 0 1034 6 C 1012 11 995 19 981 31 C 967 42 957 56 950 74 C 942 92 936 113 932 139 C 914 112 893 89 869 69 C 844 49 814 33 778 20 C 742 6 701 -3 653 -10 C 605 -16 550 -20 487 -20 Z M 295 1569 L 486 1569 L 795 1249 L 647 1249 L 295 1569 Z" unicode="à" />
<glyph horiz-adv-x="1270" d="M 487 -20 C 407 -20 342 -11 291 5 C 239 22 199 46 169 76 C 139 106 119 141 107 182 C 95 223 90 267 90 315 C 90 395 102 462 127 516 C 151 570 193 613 251 645 C 309 677 387 699 484 713 C 580 726 700 733 844 733 L 932 733 L 932 592 L 852 592 C 770 592 698 590 636 587 C 574 583 520 578 475 570 C 429 562 391 552 361 539 C 331 525 307 509 289 489 C 271 469 258 446 251 419 C 243 392 240 361 240 326 C 240 292 244 261 253 235 C 261 209 276 186 297 168 C 317 150 345 136 380 127 C 414 117 458 113 510 113 C 581 113 642 120 693 136 C 743 152 785 176 817 208 C 849 240 873 282 888 332 C 903 382 911 441 911 510 L 911 700 C 911 754 908 801 902 841 C 896 880 882 912 861 938 C 840 963 809 982 769 994 C 729 1006 674 1012 606 1012 C 570 1012 535 1009 503 1003 C 470 997 439 990 410 980 C 381 970 355 960 331 948 C 307 936 286 925 268 913 L 186 1034 C 204 1046 228 1060 258 1074 C 288 1088 321 1102 359 1114 C 397 1126 437 1137 481 1145 C 525 1153 570 1157 618 1157 C 713 1157 790 1148 848 1131 C 906 1113 950 1086 982 1050 C 1014 1013 1035 966 1045 908 C 1055 850 1061 780 1061 700 L 1061 274 C 1061 244 1062 220 1064 202 C 1066 184 1070 170 1078 160 C 1086 150 1097 144 1113 141 C 1129 138 1150 137 1178 137 L 1178 2 C 1172 0 1164 -1 1154 -1 C 1144 -1 1131 -2 1116 -2 C 1083 -2 1056 0 1034 6 C 1012 11 995 19 981 31 C 967 42 957 56 950 74 C 942 92 936 113 932 139 C 914 112 893 89 869 69 C 844 49 814 33 778 20 C 742 6 701 -3 653 -10 C 605 -16 550 -20 487 -20 Z M 789 1569 L 979 1569 L 627 1249 L 479 1249 L 789 1569 Z" unicode="á" />
<glyph horiz-adv-x="1270" d="M 487 -20 C 407 -20 342 -11 291 5 C 239 22 199 46 169 76 C 139 106 119 141 107 182 C 95 223 90 267 90 315 C 90 395 102 462 127 516 C 151 570 193 613 251 645 C 309 677 387 699 484 713 C 580 726 700 733 844 733 L 932 733 L 932 592 L 852 592 C 770 592 698 590 636 587 C 574 583 520 578 475 570 C 429 562 391 552 361 539 C 331 525 307 509 289 489 C 271 469 258 446 251 419 C 243 392 240 361 240 326 C 240 292 244 261 253 235 C 261 209 276 186 297 168 C 317 150 345 136 380 127 C 414 117 458 113 510 113 C 581 113 642 120 693 136 C 743 152 785 176 817 208 C 849 240 873 282 888 332 C 903 382 911 441 911 510 L 911 700 C 911 754 908 801 902 841 C 896 880 882 912 861 938 C 840 963 809 982 769 994 C 729 1006 674 1012 606 1012 C 570 1012 535 1009 503 1003 C 470 997 439 990 410 980 C 381 970 355 960 331 948 C 307 936 286 925 268 913 L 186 1034 C 204 1046 228 1060 258 1074 C 288 1088 321 1102 359 1114 C 397 1126 437 1137 481 1145 C 525 1153 570 1157 618 1157 C 713 1157 790 1148 848 1131 C 906 1113 950 1086 982 1050 C 1014 1013 1035 966 1045 908 C 1055 850 1061 780 1061 700 L 1061 274 C 1061 244 1062 220 1064 202 C 1066 184 1070 170 1078 160 C 1086 150 1097 144 1113 141 C 1129 138 1150 137 1178 137 L 1178 2 C 1172 0 1164 -1 1154 -1 C 1144 -1 1131 -2 1116 -2 C 1083 -2 1056 0 1034 6 C 1012 11 995 19 981 31 C 967 42 957 56 950 74 C 942 92 936 113 932 139 C 914 112 893 89 869 69 C 844 49 814 33 778 20 C 742 6 701 -3 653 -10 C 605 -16 550 -20 487 -20 Z M 549 1569 L 723 1569 L 1034 1249 L 879 1249 L 633 1468 L 391 1249 L 238 1249 L 549 1569 Z" unicode="â" />
<glyph horiz-adv-x="1270" d="M 487 -20 C 407 -20 342 -11 291 5 C 239 22 199 46 169 76 C 139 106 119 141 107 182 C 95 223 90 267 90 315 C 90 395 102 462 127 516 C 151 570 193 613 251 645 C 309 677 387 699 484 713 C 580 726 700 733 844 733 L 932 733 L 932 592 L 852 592 C 770 592 698 590 636 587 C 574 583 520 578 475 570 C 429 562 391 552 361 539 C 331 525 307 509 289 489 C 271 469 258 446 251 419 C 243 392 240 361 240 326 C 240 292 244 261 253 235 C 261 209 276 186 297 168 C 317 150 345 136 380 127 C 414 117 458 113 510 113 C 581 113 642 120 693 136 C 743 152 785 176 817 208 C 849 240 873 282 888 332 C 903 382 911 441 911 510 L 911 700 C 911 754 908 801 902 841 C 896 880 882 912 861 938 C 840 963 809 982 769 994 C 729 1006 674 1012 606 1012 C 570 1012 535 1009 503 1003 C 470 997 439 990 410 980 C 381 970 355 960 331 948 C 307 936 286 925 268 913 L 186 1034 C 204 1046 228 1060 258 1074 C 288 1088 321 1102 359 1114 C 397 1126 437 1137 481 1145 C 525 1153 570 1157 618 1157 C 713 1157 790 1148 848 1131 C 906 1113 950 1086 982 1050 C 1014 1013 1035 966 1045 908 C 1055 850 1061 780 1061 700 L 1061 274 C 1061 244 1062 220 1064 202 C 1066 184 1070 170 1078 160 C 1086 150 1097 144 1113 141 C 1129 138 1150 137 1178 137 L 1178 2 C 1172 0 1164 -1 1154 -1 C 1144 -1 1131 -2 1116 -2 C 1083 -2 1056 0 1034 6 C 1012 11 995 19 981 31 C 967 42 957 56 950 74 C 942 92 936 113 932 139 C 914 112 893 89 869 69 C 844 49 814 33 778 20 C 742 6 701 -3 653 -10 C 605 -16 550 -20 487 -20 Z M 244 1331 C 260 1351 279 1371 299 1390 C 319 1408 339 1424 361 1438 C 382 1452 404 1463 426 1471 C 448 1479 471 1483 494 1483 C 528 1483 558 1477 582 1467 C 606 1457 629 1445 650 1433 C 670 1421 690 1409 710 1399 C 730 1389 752 1384 778 1384 C 791 1384 804 1387 818 1393 C 832 1399 845 1407 859 1417 C 872 1427 885 1439 899 1453 C 912 1466 925 1480 938 1495 L 1032 1419 C 1014 1397 996 1377 977 1357 C 957 1337 937 1319 916 1304 C 894 1288 872 1276 850 1267 C 827 1257 804 1253 781 1253 C 750 1253 722 1258 698 1269 C 674 1279 651 1291 629 1303 C 607 1315 586 1327 565 1338 C 543 1348 520 1354 496 1354 C 471 1354 445 1345 417 1327 C 389 1309 364 1285 342 1255 L 244 1331 Z" unicode="ã" />
<glyph horiz-adv-x="1270" d="M 487 -20 C 407 -20 342 -11 291 5 C 239 22 199 46 169 76 C 139 106 119 141 107 182 C 95 223 90 267 90 315 C 90 395 102 462 127 516 C 151 570 193 613 251 645 C 309 677 387 699 484 713 C 580 726 700 733 844 733 L 932 733 L 932 592 L 852 592 C 770 592 698 590 636 587 C 574 583 520 578 475 570 C 429 562 391 552 361 539 C 331 525 307 509 289 489 C 271 469 258 446 251 419 C 243 392 240 361 240 326 C 240 292 244 261 253 235 C 261 209 276 186 297 168 C 317 150 345 136 380 127 C 414 117 458 113 510 113 C 581 113 642 120 693 136 C 743 152 785 176 817 208 C 849 240 873 282 888 332 C 903 382 911 441 911 510 L 911 700 C 911 754 908 801 902 841 C 896 880 882 912 861 938 C 840 963 809 982 769 994 C 729 1006 674 1012 606 1012 C 570 1012 535 1009 503 1003 C 470 997 439 990 410 980 C 381 970 355 960 331 948 C 307 936 286 925 268 913 L 186 1034 C 204 1046 228 1060 258 1074 C 288 1088 321 1102 359 1114 C 397 1126 437 1137 481 1145 C 525 1153 570 1157 618 1157 C 713 1157 790 1148 848 1131 C 906 1113 950 1086 982 1050 C 1014 1013 1035 966 1045 908 C 1055 850 1061 780 1061 700 L 1061 274 C 1061 244 1062 220 1064 202 C 1066 184 1070 170 1078 160 C 1086 150 1097 144 1113 141 C 1129 138 1150 137 1178 137 L 1178 2 C 1172 0 1164 -1 1154 -1 C 1144 -1 1131 -2 1116 -2 C 1083 -2 1056 0 1034 6 C 1012 11 995 19 981 31 C 967 42 957 56 950 74 C 942 92 936 113 932 139 C 914 112 893 89 869 69 C 844 49 814 33 778 20 C 742 6 701 -3 653 -10 C 605 -16 550 -20 487 -20 Z M 350 1462 L 494 1462 L 494 1253 L 350 1253 L 350 1462 Z M 783 1462 L 924 1462 L 924 1253 L 783 1253 L 783 1462 Z" unicode="ä" />
<glyph horiz-adv-x="1270" d="M 487 -20 C 407 -20 342 -11 291 5 C 239 22 199 46 169 76 C 139 106 119 141 107 182 C 95 223 90 267 90 315 C 90 395 102 462 127 516 C 151 570 193 613 251 645 C 309 677 387 699 484 713 C 580 726 700 733 844 733 L 932 733 L 932 592 L 852 592 C 770 592 698 590 636 587 C 574 583 520 578 475 570 C 429 562 391 552 361 539 C 331 525 307 509 289 489 C 271 469 258 446 251 419 C 243 392 240 361 240 326 C 240 292 244 261 253 235 C 261 209 276 186 297 168 C 317 150 345 136 380 127 C 414 117 458 113 510 113 C 581 113 642 120 693 136 C 743 152 785 176 817 208 C 849 240 873 282 888 332 C 903 382 911 441 911 510 L 911 700 C 911 754 908 801 902 841 C 896 880 882 912 861 938 C 840 963 809 982 769 994 C 729 1006 674 1012 606 1012 C 570 1012 535 1009 503 1003 C 470 997 439 990 410 980 C 381 970 355 960 331 948 C 307 936 286 925 268 913 L 186 1034 C 204 1046 228 1060 258 1074 C 288 1088 321 1102 359 1114 C 397 1126 437 1137 481 1145 C 525 1153 570 1157 618 1157 C 713 1157 790 1148 848 1131 C 906 1113 950 1086 982 1050 C 1014 1013 1035 966 1045 908 C 1055 850 1061 780 1061 700 L 1061 274 C 1061 244 1062 220 1064 202 C 1066 184 1070 170 1078 160 C 1086 150 1097 144 1113 141 C 1129 138 1150 137 1178 137 L 1178 2 C 1172 0 1164 -1 1154 -1 C 1144 -1 1131 -2 1116 -2 C 1083 -2 1056 0 1034 6 C 1012 11 995 19 981 31 C 967 42 957 56 950 74 C 942 92 936 113 932 139 C 914 112 893 89 869 69 C 844 49 814 33 778 20 C 742 6 701 -3 653 -10 C 605 -16 550 -20 487 -20 Z M 637 1227 C 593 1227 556 1233 525 1246 C 494 1258 469 1276 449 1299 C 429 1321 414 1348 405 1379 C 395 1409 391 1443 391 1479 C 391 1515 395 1548 405 1579 C 414 1609 429 1636 449 1659 C 469 1682 494 1700 525 1713 C 556 1726 593 1733 637 1733 C 677 1733 713 1726 744 1713 C 774 1700 800 1682 820 1659 C 840 1636 856 1609 866 1579 C 876 1548 881 1515 881 1479 C 881 1443 876 1409 866 1379 C 856 1348 840 1321 820 1299 C 800 1276 774 1258 744 1246 C 713 1233 677 1227 637 1227 Z M 637 1319 C 663 1319 686 1323 706 1331 C 725 1339 741 1351 753 1365 C 765 1379 774 1396 780 1416 C 786 1435 789 1456 789 1479 C 789 1501 786 1522 780 1542 C 774 1561 765 1578 753 1592 C 741 1606 725 1618 706 1626 C 686 1634 663 1638 637 1638 C 609 1638 586 1634 567 1626 C 547 1618 531 1606 519 1592 C 507 1578 498 1561 492 1542 C 486 1522 484 1501 484 1479 C 484 1456 486 1435 492 1416 C 498 1396 507 1379 519 1365 C 531 1351 547 1339 567 1331 C 586 1323 609 1319 637 1319 Z" unicode="å" />
<glyph horiz-adv-x="2017" d="M 489 -20 C 422 -20 364 -13 314 -1 C 264 11 223 31 190 58 C 156 85 131 120 115 162 C 98 204 90 255 90 315 C 90 395 102 462 127 516 C 151 570 193 613 251 645 C 309 677 387 699 484 713 C 580 726 700 733 844 733 L 932 733 L 932 592 L 852 592 C 770 592 698 590 636 587 C 574 583 520 578 475 570 C 429 562 391 552 361 539 C 331 525 307 509 289 489 C 271 469 258 446 251 419 C 243 392 240 361 240 326 C 240 292 244 261 253 235 C 261 209 276 186 297 168 C 317 150 345 136 380 127 C 415 117 459 113 512 113 C 582 113 643 120 693 136 C 743 152 785 176 817 208 C 849 240 873 282 888 332 C 903 382 911 441 911 510 L 911 700 C 911 754 908 801 902 841 C 896 880 882 912 861 938 C 840 963 809 982 769 994 C 729 1006 674 1012 606 1012 C 570 1012 535 1009 502 1003 C 468 997 437 990 408 981 C 378 971 351 961 327 949 C 303 937 282 926 264 915 L 186 1034 C 204 1046 228 1060 258 1074 C 288 1088 321 1102 359 1114 C 397 1126 437 1137 481 1145 C 525 1153 570 1157 618 1157 C 681 1157 735 1152 781 1144 C 827 1136 865 1123 897 1106 C 928 1089 953 1068 972 1043 C 990 1017 1005 988 1015 954 C 1025 920 1031 882 1035 840 C 1038 797 1040 750 1040 700 L 1040 385 L 1026 324 C 1006 254 980 196 949 152 C 918 108 881 73 837 47 C 793 21 742 4 684 -5 C 626 -15 561 -20 489 -20 Z M 1448 -23 C 1370 -23 1304 -15 1248 -1 C 1192 12 1144 32 1105 58 C 1066 84 1034 115 1010 151 C 986 187 967 226 954 270 C 940 314 931 361 927 411 C 922 461 920 513 920 567 C 920 621 922 673 927 723 C 932 773 941 820 955 864 C 969 908 988 947 1012 983 C 1036 1019 1068 1050 1106 1076 C 1144 1102 1191 1122 1246 1136 C 1300 1150 1365 1157 1440 1157 C 1517 1157 1582 1148 1636 1132 C 1689 1116 1733 1093 1768 1064 C 1803 1034 1830 999 1849 959 C 1868 919 1882 875 1890 827 C 1898 779 1903 729 1904 676 C 1905 622 1905 568 1905 514 L 971 514 L 973 655 L 1757 655 C 1755 688 1753 720 1751 751 C 1748 782 1743 811 1736 838 C 1728 865 1718 890 1705 912 C 1691 934 1673 952 1650 968 C 1626 984 1597 996 1563 1005 C 1529 1013 1487 1018 1438 1018 C 1356 1018 1291 1006 1241 984 C 1191 962 1152 930 1124 890 C 1096 850 1077 802 1067 746 C 1057 690 1053 629 1053 563 C 1053 497 1057 437 1067 382 C 1076 327 1095 280 1123 240 C 1151 200 1191 168 1243 146 C 1295 124 1363 113 1448 113 C 1494 113 1534 115 1569 121 C 1604 127 1636 135 1664 145 C 1692 155 1717 168 1741 182 C 1764 196 1787 211 1810 227 L 1894 119 C 1865 97 1836 78 1806 60 C 1776 42 1743 27 1707 15 C 1671 3 1632 -6 1590 -13 C 1548 -19 1500 -23 1448 -23 Z" unicode="æ" />
<glyph horiz-adv-x="1153" d="M 594 -461 C 542 -461 498 -455 460 -444 C 422 -432 387 -418 356 -401 L 403 -315 C 430 -329 459 -341 490 -349 C 521 -357 554 -362 588 -362 C 622 -362 649 -359 671 -353 C 692 -347 708 -339 720 -329 C 732 -319 740 -307 744 -294 C 748 -281 750 -268 750 -254 C 750 -235 747 -219 741 -207 C 735 -194 724 -184 710 -177 C 695 -169 675 -164 650 -162 C 625 -160 594 -160 557 -162 L 512 -129 L 535 -14 C 451 -4 381 15 325 46 C 269 77 225 118 191 168 C 157 218 134 276 120 343 C 106 410 100 485 100 567 C 100 657 108 738 125 811 C 141 883 170 945 212 997 C 254 1048 310 1087 380 1115 C 450 1143 538 1157 645 1157 C 695 1157 741 1152 783 1144 C 824 1135 861 1123 894 1109 C 927 1094 957 1077 983 1057 C 1009 1037 1032 1017 1053 995 L 940 889 C 926 903 910 917 892 931 C 874 945 853 957 829 969 C 805 980 777 989 747 997 C 717 1004 683 1008 645 1008 C 571 1008 509 998 459 978 C 409 958 369 930 339 892 C 309 854 287 807 275 752 C 262 696 256 633 256 563 C 256 493 262 431 274 376 C 286 321 307 275 337 237 C 367 199 407 169 457 149 C 507 129 569 119 645 119 C 677 119 706 121 734 126 C 762 131 788 139 812 149 C 836 159 860 171 882 186 C 904 201 926 218 948 238 L 1053 139 C 1025 113 996 91 967 71 C 938 51 907 34 875 21 C 842 7 806 -2 768 -9 C 730 -16 687 -20 641 -20 L 635 -20 L 623 -92 C 653 -90 683 -90 712 -92 C 740 -94 766 -102 788 -114 C 810 -126 828 -143 842 -167 C 855 -191 862 -223 862 -264 C 862 -292 857 -319 848 -343 C 839 -367 824 -387 804 -405 C 783 -423 755 -436 721 -446 C 687 -456 644 -461 594 -461 Z" unicode="ç" />
<glyph horiz-adv-x="1214" d="M 643 -23 C 567 -23 500 -16 444 -2 C 388 12 340 31 300 57 C 260 82 227 112 201 148 C 175 184 154 223 139 267 C 124 311 114 358 108 409 C 102 459 100 512 100 567 C 100 649 107 725 122 797 C 137 869 164 931 204 985 C 244 1038 298 1080 368 1111 C 438 1141 527 1157 637 1157 C 713 1157 777 1148 830 1132 C 882 1116 926 1093 961 1064 C 995 1034 1022 999 1042 959 C 1061 919 1075 875 1084 827 C 1093 779 1098 729 1100 676 C 1102 622 1102 568 1102 514 L 168 514 L 170 655 L 954 655 C 952 688 949 720 947 751 C 944 782 939 811 932 838 C 924 865 914 890 901 912 C 887 934 869 952 846 968 C 822 984 793 996 759 1005 C 724 1013 682 1018 633 1018 C 551 1018 486 1006 436 984 C 386 962 347 930 320 890 C 292 850 274 802 264 746 C 254 690 250 629 250 563 C 250 497 254 437 264 382 C 273 327 292 280 320 240 C 348 200 388 168 440 146 C 491 124 559 113 643 113 C 689 113 730 115 766 121 C 801 127 833 135 861 145 C 889 155 915 168 939 182 C 962 196 985 211 1008 227 L 1092 119 C 1064 97 1034 78 1003 60 C 972 42 939 27 903 15 C 867 3 827 -6 785 -13 C 742 -19 695 -23 643 -23 Z M 262 1569 L 453 1569 L 762 1249 L 614 1249 L 262 1569 Z" unicode="è" />
<glyph horiz-adv-x="1214" d="M 756 1569 L 946 1569 L 594 1249 L 446 1249 L 756 1569 Z M 643 -23 C 567 -23 500 -16 444 -2 C 388 12 340 31 300 57 C 260 82 227 112 201 148 C 175 184 154 223 139 267 C 124 311 114 358 108 409 C 102 459 100 512 100 567 C 100 649 107 725 122 797 C 137 869 164 931 204 985 C 244 1038 298 1080 368 1111 C 438 1141 527 1157 637 1157 C 713 1157 777 1148 830 1132 C 882 1116 926 1093 961 1064 C 995 1034 1022 999 1042 959 C 1061 919 1075 875 1084 827 C 1093 779 1098 729 1100 676 C 1102 622 1102 568 1102 514 L 168 514 L 170 655 L 954 655 C 952 688 949 720 947 751 C 944 782 939 811 932 838 C 924 865 914 890 901 912 C 887 934 869 952 846 968 C 822 984 793 996 759 1005 C 724 1013 682 1018 633 1018 C 551 1018 486 1006 436 984 C 386 962 347 930 320 890 C 292 850 274 802 264 746 C 254 690 250 629 250 563 C 250 497 254 437 264 382 C 273 327 292 280 320 240 C 348 200 388 168 440 146 C 491 124 559 113 643 113 C 689 113 730 115 766 121 C 801 127 833 135 861 145 C 889 155 915 168 939 182 C 962 196 985 211 1008 227 L 1092 119 C 1064 97 1034 78 1003 60 C 972 42 939 27 903 15 C 867 3 827 -6 785 -13 C 742 -19 695 -23 643 -23 Z" unicode="é" />
<glyph horiz-adv-x="1214" d="M 516 1569 L 690 1569 L 1001 1249 L 846 1249 L 600 1468 L 358 1249 L 205 1249 L 516 1569 Z M 643 -23 C 567 -23 500 -16 444 -2 C 388 12 340 31 300 57 C 260 82 227 112 201 148 C 175 184 154 223 139 267 C 124 311 114 358 108 409 C 102 459 100 512 100 567 C 100 649 107 725 122 797 C 137 869 164 931 204 985 C 244 1038 298 1080 368 1111 C 438 1141 527 1157 637 1157 C 713 1157 777 1148 830 1132 C 882 1116 926 1093 961 1064 C 995 1034 1022 999 1042 959 C 1061 919 1075 875 1084 827 C 1093 779 1098 729 1100 676 C 1102 622 1102 568 1102 514 L 168 514 L 170 655 L 954 655 C 952 688 949 720 947 751 C 944 782 939 811 932 838 C 924 865 914 890 901 912 C 887 934 869 952 846 968 C 822 984 793 996 759 1005 C 724 1013 682 1018 633 1018 C 551 1018 486 1006 436 984 C 386 962 347 930 320 890 C 292 850 274 802 264 746 C 254 690 250 629 250 563 C 250 497 254 437 264 382 C 273 327 292 280 320 240 C 348 200 388 168 440 146 C 491 124 559 113 643 113 C 689 113 730 115 766 121 C 801 127 833 135 861 145 C 889 155 915 168 939 182 C 962 196 985 211 1008 227 L 1092 119 C 1064 97 1034 78 1003 60 C 972 42 939 27 903 15 C 867 3 827 -6 785 -13 C 742 -19 695 -23 643 -23 Z" unicode="ê" />
<glyph horiz-adv-x="1214" d="M 317 1462 L 461 1462 L 461 1253 L 317 1253 L 317 1462 Z M 750 1462 L 891 1462 L 891 1253 L 750 1253 L 750 1462 Z M 643 -23 C 567 -23 500 -16 444 -2 C 388 12 340 31 300 57 C 260 82 227 112 201 148 C 175 184 154 223 139 267 C 124 311 114 358 108 409 C 102 459 100 512 100 567 C 100 649 107 725 122 797 C 137 869 164 931 204 985 C 244 1038 298 1080 368 1111 C 438 1141 527 1157 637 1157 C 713 1157 777 1148 830 1132 C 882 1116 926 1093 961 1064 C 995 1034 1022 999 1042 959 C 1061 919 1075 875 1084 827 C 1093 779 1098 729 1100 676 C 1102 622 1102 568 1102 514 L 168 514 L 170 655 L 954 655 C 952 688 949 720 947 751 C 944 782 939 811 932 838 C 924 865 914 890 901 912 C 887 934 869 952 846 968 C 822 984 793 996 759 1005 C 724 1013 682 1018 633 1018 C 551 1018 486 1006 436 984 C 386 962 347 930 320 890 C 292 850 274 802 264 746 C 254 690 250 629 250 563 C 250 497 254 437 264 382 C 273 327 292 280 320 240 C 348 200 388 168 440 146 C 491 124 559 113 643 113 C 689 113 730 115 766 121 C 801 127 833 135 861 145 C 889 155 915 168 939 182 C 962 196 985 211 1008 227 L 1092 119 C 1064 97 1034 78 1003 60 C 972 42 939 27 903 15 C 867 3 827 -6 785 -13 C 742 -19 695 -23 643 -23 Z" unicode="ë" />
<glyph horiz-adv-x="487" d="M -102 1567 L 86 1567 L 319 1249 L 174 1249 L -102 1567 Z M 166 1130 L 319 1130 L 319 0 L 166 0 L 166 1130 Z" unicode="ì" />
<glyph horiz-adv-x="487" d="M 401 1567 L 592 1567 L 315 1249 L 170 1249 L 401 1567 Z M 166 1130 L 319 1130 L 319 0 L 166 0 L 166 1130 Z" unicode="í" />
<glyph horiz-adv-x="487" d="M 162 1567 L 324 1567 L 565 1249 L 414 1249 L 242 1470 L 66 1249 L -80 1249 L 162 1567 Z M 166 1130 L 319 1130 L 319 0 L 166 0 L 166 1130 Z" unicode="î" />
<glyph horiz-adv-x="487" d="M -14 1485 L 117 1485 L 117 1278 L -14 1278 L -14 1485 Z M 371 1485 L 502 1485 L 502 1278 L 371 1278 L 371 1485 Z M 166 1130 L 319 1130 L 319 0 L 166 0 L 166 1130 Z" unicode="ï" />
<glyph horiz-adv-x="1292" d="M 643 -23 C 545 -23 461 -10 393 15 C 324 40 268 77 225 126 C 181 175 150 235 130 306 C 110 377 100 459 100 551 C 100 639 108 719 126 790 C 144 860 173 920 213 970 C 253 1019 305 1057 370 1083 C 434 1109 514 1122 608 1122 C 661 1122 708 1119 749 1113 C 790 1107 826 1099 857 1088 C 888 1076 915 1062 938 1046 C 961 1029 981 1010 999 989 C 974 1093 930 1190 867 1280 C 804 1369 720 1456 616 1542 L 754 1608 C 795 1576 834 1542 872 1506 C 910 1470 945 1431 977 1388 C 1009 1344 1039 1296 1065 1244 C 1091 1192 1114 1133 1133 1068 C 1151 1003 1166 931 1176 851 C 1186 771 1192 683 1192 586 C 1192 480 1181 389 1160 313 C 1138 237 1105 174 1060 124 C 1015 74 958 37 889 13 C 820 -11 738 -23 643 -23 Z M 643 119 C 714 119 774 128 824 146 C 874 164 914 192 945 229 C 976 265 999 311 1013 365 C 1027 419 1034 481 1034 553 C 1034 625 1027 688 1013 742 C 999 796 976 841 945 877 C 914 913 874 941 824 959 C 774 977 714 987 643 987 C 573 987 513 977 464 959 C 414 941 374 913 344 877 C 313 841 291 796 277 742 C 263 688 256 625 256 553 C 256 481 263 419 277 365 C 291 311 313 265 344 229 C 374 192 414 164 464 146 C 513 128 573 119 643 119 Z M 616 1339 L 1225 1509 L 1225 1395 L 616 1225 L 616 1339 Z" unicode="ð" />
<glyph horiz-adv-x="1270" d="M 156 1122 L 279 1130 L 293 1012 C 305 1031 321 1049 342 1067 C 363 1085 390 1100 423 1114 C 456 1127 496 1137 544 1145 C 591 1153 647 1157 713 1157 C 803 1157 876 1145 930 1123 C 984 1101 1025 1069 1053 1028 C 1081 987 1099 938 1107 881 C 1115 823 1120 760 1120 690 L 1120 0 L 965 0 L 965 664 C 965 714 962 759 957 801 C 952 843 940 879 920 909 C 900 939 871 962 831 979 C 791 995 737 1004 668 1004 C 592 1004 531 994 485 976 C 438 958 402 932 376 899 C 350 866 333 827 324 782 C 315 737 311 688 311 635 L 311 0 L 156 0 L 156 1122 Z M 240 1331 C 256 1351 275 1371 295 1390 C 315 1408 335 1424 357 1438 C 378 1452 400 1463 422 1471 C 444 1479 467 1483 490 1483 C 524 1483 554 1477 578 1467 C 602 1457 625 1445 646 1433 C 666 1421 686 1409 706 1399 C 726 1389 748 1384 774 1384 C 787 1384 800 1387 814 1393 C 828 1399 841 1407 855 1417 C 868 1427 881 1439 895 1453 C 908 1466 921 1480 934 1495 L 1028 1419 C 1010 1397 992 1377 973 1357 C 953 1337 933 1319 912 1304 C 890 1288 868 1276 846 1267 C 823 1257 800 1253 777 1253 C 746 1253 718 1258 694 1269 C 670 1279 647 1291 625 1303 C 603 1315 582 1327 561 1338 C 539 1348 516 1354 492 1354 C 467 1354 441 1345 413 1327 C 385 1309 360 1285 338 1255 L 240 1331 Z" unicode="ñ" />
<glyph horiz-adv-x="1292" d="M 645 -23 C 547 -23 463 -10 394 14 C 325 39 269 76 225 126 C 181 175 150 236 130 310 C 110 384 100 469 100 567 C 100 664 110 749 130 823 C 150 897 181 958 225 1008 C 269 1057 325 1094 394 1119 C 463 1144 547 1157 645 1157 C 743 1157 826 1144 895 1119 C 964 1094 1021 1057 1065 1008 C 1109 958 1141 897 1161 823 C 1181 749 1192 664 1192 567 C 1192 469 1181 384 1161 310 C 1141 236 1109 175 1065 126 C 1021 76 964 39 895 14 C 826 -10 743 -23 645 -23 Z M 645 119 C 716 119 776 128 826 147 C 875 166 915 194 946 232 C 977 270 999 316 1013 372 C 1027 427 1034 491 1034 563 C 1034 635 1027 699 1013 755 C 999 811 977 857 946 895 C 915 933 875 961 826 981 C 776 1000 716 1010 645 1010 C 573 1010 513 1000 464 981 C 414 961 374 933 343 895 C 312 857 290 811 276 755 C 262 699 256 635 256 563 C 256 491 262 427 276 372 C 290 316 312 270 343 232 C 374 194 414 166 464 147 C 513 128 573 119 645 119 Z M 301 1569 L 492 1569 L 801 1249 L 653 1249 L 301 1569 Z" unicode="ò" />
<glyph horiz-adv-x="1292" d="M 795 1569 L 985 1569 L 633 1249 L 485 1249 L 795 1569 Z M 645 -23 C 547 -23 463 -10 394 14 C 325 39 269 76 225 126 C 181 175 150 236 130 310 C 110 384 100 469 100 567 C 100 664 110 749 130 823 C 150 897 181 958 225 1008 C 269 1057 325 1094 394 1119 C 463 1144 547 1157 645 1157 C 743 1157 826 1144 895 1119 C 964 1094 1021 1057 1065 1008 C 1109 958 1141 897 1161 823 C 1181 749 1192 664 1192 567 C 1192 469 1181 384 1161 310 C 1141 236 1109 175 1065 126 C 1021 76 964 39 895 14 C 826 -10 743 -23 645 -23 Z M 645 119 C 716 119 776 128 826 147 C 875 166 915 194 946 232 C 977 270 999 316 1013 372 C 1027 427 1034 491 1034 563 C 1034 635 1027 699 1013 755 C 999 811 977 857 946 895 C 915 933 875 961 826 981 C 776 1000 716 1010 645 1010 C 573 1010 513 1000 464 981 C 414 961 374 933 343 895 C 312 857 290 811 276 755 C 262 699 256 635 256 563 C 256 491 262 427 276 372 C 290 316 312 270 343 232 C 374 194 414 166 464 147 C 513 128 573 119 645 119 Z" unicode="ó" />
<glyph horiz-adv-x="1292" d="M 555 1569 L 729 1569 L 1040 1249 L 885 1249 L 639 1468 L 397 1249 L 244 1249 L 555 1569 Z M 645 -23 C 547 -23 463 -10 394 14 C 325 39 269 76 225 126 C 181 175 150 236 130 310 C 110 384 100 469 100 567 C 100 664 110 749 130 823 C 150 897 181 958 225 1008 C 269 1057 325 1094 394 1119 C 463 1144 547 1157 645 1157 C 743 1157 826 1144 895 1119 C 964 1094 1021 1057 1065 1008 C 1109 958 1141 897 1161 823 C 1181 749 1192 664 1192 567 C 1192 469 1181 384 1161 310 C 1141 236 1109 175 1065 126 C 1021 76 964 39 895 14 C 826 -10 743 -23 645 -23 Z M 645 119 C 716 119 776 128 826 147 C 875 166 915 194 946 232 C 977 270 999 316 1013 372 C 1027 427 1034 491 1034 563 C 1034 635 1027 699 1013 755 C 999 811 977 857 946 895 C 915 933 875 961 826 981 C 776 1000 716 1010 645 1010 C 573 1010 513 1000 464 981 C 414 961 374 933 343 895 C 312 857 290 811 276 755 C 262 699 256 635 256 563 C 256 491 262 427 276 372 C 290 316 312 270 343 232 C 374 194 414 166 464 147 C 513 128 573 119 645 119 Z" unicode="ô" />
<glyph horiz-adv-x="1292" d="M 645 -23 C 547 -23 463 -10 394 14 C 325 39 269 76 225 126 C 181 175 150 236 130 310 C 110 384 100 469 100 567 C 100 664 110 749 130 823 C 150 897 181 958 225 1008 C 269 1057 325 1094 394 1119 C 463 1144 547 1157 645 1157 C 743 1157 826 1144 895 1119 C 964 1094 1021 1057 1065 1008 C 1109 958 1141 897 1161 823 C 1181 749 1192 664 1192 567 C 1192 469 1181 384 1161 310 C 1141 236 1109 175 1065 126 C 1021 76 964 39 895 14 C 826 -10 743 -23 645 -23 Z M 645 119 C 716 119 776 128 826 147 C 875 166 915 194 946 232 C 977 270 999 316 1013 372 C 1027 427 1034 491 1034 563 C 1034 635 1027 699 1013 755 C 999 811 977 857 946 895 C 915 933 875 961 826 981 C 776 1000 716 1010 645 1010 C 573 1010 513 1000 464 981 C 414 961 374 933 343 895 C 312 857 290 811 276 755 C 262 699 256 635 256 563 C 256 491 262 427 276 372 C 290 316 312 270 343 232 C 374 194 414 166 464 147 C 513 128 573 119 645 119 Z M 250 1331 C 266 1351 285 1371 305 1390 C 325 1408 345 1424 367 1438 C 388 1452 410 1463 432 1471 C 454 1479 477 1483 500 1483 C 534 1483 564 1477 588 1467 C 612 1457 635 1445 656 1433 C 676 1421 696 1409 716 1399 C 736 1389 758 1384 784 1384 C 797 1384 810 1387 824 1393 C 838 1399 851 1407 865 1417 C 878 1427 891 1439 905 1453 C 918 1466 931 1480 944 1495 L 1038 1419 C 1020 1397 1002 1377 983 1357 C 963 1337 943 1319 922 1304 C 900 1288 878 1276 856 1267 C 833 1257 810 1253 787 1253 C 756 1253 728 1258 704 1269 C 680 1279 657 1291 635 1303 C 613 1315 592 1327 571 1338 C 549 1348 526 1354 502 1354 C 477 1354 451 1345 423 1327 C 395 1309 370 1285 348 1255 L 250 1331 Z" unicode="õ" />
<glyph horiz-adv-x="1292" d="M 356 1462 L 500 1462 L 500 1253 L 356 1253 L 356 1462 Z M 789 1462 L 930 1462 L 930 1253 L 789 1253 L 789 1462 Z M 645 -23 C 547 -23 463 -10 394 14 C 325 39 269 76 225 126 C 181 175 150 236 130 310 C 110 384 100 469 100 567 C 100 664 110 749 130 823 C 150 897 181 958 225 1008 C 269 1057 325 1094 394 1119 C 463 1144 547 1157 645 1157 C 743 1157 826 1144 895 1119 C 964 1094 1021 1057 1065 1008 C 1109 958 1141 897 1161 823 C 1181 749 1192 664 1192 567 C 1192 469 1181 384 1161 310 C 1141 236 1109 175 1065 126 C 1021 76 964 39 895 14 C 826 -10 743 -23 645 -23 Z M 645 119 C 716 119 776 128 826 147 C 875 166 915 194 946 232 C 977 270 999 316 1013 372 C 1027 427 1034 491 1034 563 C 1034 635 1027 699 1013 755 C 999 811 977 857 946 895 C 915 933 875 961 826 981 C 776 1000 716 1010 645 1010 C 573 1010 513 1000 464 981 C 414 961 374 933 343 895 C 312 857 290 811 276 755 C 262 699 256 635 256 563 C 256 491 262 427 276 372 C 290 316 312 270 343 232 C 374 194 414 166 464 147 C 513 128 573 119 645 119 Z" unicode="ö" />
<glyph horiz-adv-x="1425" d="M 618 412 L 807 412 L 807 221 L 618 221 L 618 412 Z M 217 797 L 1206 797 L 1206 649 L 217 649 L 217 797 Z M 618 1225 L 807 1225 L 807 1034 L 618 1034 L 618 1225 Z" unicode="÷" />
<glyph horiz-adv-x="1292" d="M 645 1012 C 501 1012 399 973 341 897 C 283 820 254 709 254 563 C 254 481 263 409 281 348 C 299 287 328 238 368 201 L 822 985 C 797 993 770 1000 740 1005 C 710 1009 679 1012 645 1012 L 645 1012 Z M 465 143 C 489 133 517 126 547 122 C 577 117 609 115 645 115 C 787 115 888 153 948 230 C 1008 307 1038 418 1038 563 C 1038 646 1028 718 1010 780 C 991 841 961 890 920 928 L 465 143 Z M 1192 567 C 1192 373 1150 227 1066 127 C 982 27 841 -23 645 -23 C 597 -23 552 -20 510 -14 C 468 -8 431 1 397 13 L 338 -86 L 193 -86 L 285 70 C 219 117 172 182 143 266 C 114 350 100 450 100 567 C 100 760 141 907 224 1007 C 307 1107 447 1157 645 1157 C 693 1157 739 1154 781 1148 C 823 1142 862 1132 896 1120 L 954 1219 L 1098 1219 L 1008 1062 C 1072 1014 1118 949 1148 866 C 1177 783 1192 683 1192 567 L 1192 567 Z" unicode="ø" />
<glyph horiz-adv-x="1257" d="M 633 -20 C 559 -20 497 -15 445 -5 C 393 5 349 19 313 39 C 277 58 248 82 227 110 C 205 138 189 169 178 205 C 166 241 159 280 155 324 C 151 368 150 415 150 465 L 150 1130 L 303 1130 L 303 461 C 303 429 303 399 304 371 C 305 342 309 315 315 290 C 321 264 330 241 344 221 C 357 200 376 182 400 167 C 424 152 455 141 493 133 C 531 125 577 121 633 121 C 687 121 733 125 771 133 C 808 141 838 152 862 167 C 886 182 904 200 917 221 C 930 242 939 266 945 292 C 951 318 954 345 955 375 C 955 405 956 436 956 469 L 956 1130 L 1108 1130 L 1108 471 C 1108 419 1106 372 1103 328 C 1099 284 1092 243 1081 207 C 1070 171 1054 138 1034 110 C 1013 82 985 58 950 39 C 914 19 871 5 819 -5 C 767 -15 705 -20 633 -20 Z M 285 1569 L 476 1569 L 785 1249 L 637 1249 L 285 1569 Z" unicode="ù" />
<glyph horiz-adv-x="1257" d="M 779 1569 L 969 1569 L 617 1249 L 469 1249 L 779 1569 Z M 633 -20 C 559 -20 497 -15 445 -5 C 393 5 349 19 313 39 C 277 58 248 82 227 110 C 205 138 189 169 178 205 C 166 241 159 280 155 324 C 151 368 150 415 150 465 L 150 1130 L 303 1130 L 303 461 C 303 429 303 399 304 371 C 305 342 309 315 315 290 C 321 264 330 241 344 221 C 357 200 376 182 400 167 C 424 152 455 141 493 133 C 531 125 577 121 633 121 C 687 121 733 125 771 133 C 808 141 838 152 862 167 C 886 182 904 200 917 221 C 930 242 939 266 945 292 C 951 318 954 345 955 375 C 955 405 956 436 956 469 L 956 1130 L 1108 1130 L 1108 471 C 1108 419 1106 372 1103 328 C 1099 284 1092 243 1081 207 C 1070 171 1054 138 1034 110 C 1013 82 985 58 950 39 C 914 19 871 5 819 -5 C 767 -15 705 -20 633 -20 Z" unicode="ú" />
<glyph horiz-adv-x="1257" d="M 539 1569 L 713 1569 L 1024 1249 L 869 1249 L 623 1468 L 381 1249 L 228 1249 L 539 1569 Z M 633 -20 C 559 -20 497 -15 445 -5 C 393 5 349 19 313 39 C 277 58 248 82 227 110 C 205 138 189 169 178 205 C 166 241 159 280 155 324 C 151 368 150 415 150 465 L 150 1130 L 303 1130 L 303 461 C 303 429 303 399 304 371 C 305 342 309 315 315 290 C 321 264 330 241 344 221 C 357 200 376 182 400 167 C 424 152 455 141 493 133 C 531 125 577 121 633 121 C 687 121 733 125 771 133 C 808 141 838 152 862 167 C 886 182 904 200 917 221 C 930 242 939 266 945 292 C 951 318 954 345 955 375 C 955 405 956 436 956 469 L 956 1130 L 1108 1130 L 1108 471 C 1108 419 1106 372 1103 328 C 1099 284 1092 243 1081 207 C 1070 171 1054 138 1034 110 C 1013 82 985 58 950 39 C 914 19 871 5 819 -5 C 767 -15 705 -20 633 -20 Z" unicode="û" />
<glyph horiz-adv-x="1257" d="M 340 1462 L 484 1462 L 484 1253 L 340 1253 L 340 1462 Z M 773 1462 L 914 1462 L 914 1253 L 773 1253 L 773 1462 Z M 633 -20 C 559 -20 497 -15 445 -5 C 393 5 349 19 313 39 C 277 58 248 82 227 110 C 205 138 189 169 178 205 C 166 241 159 280 155 324 C 151 368 150 415 150 465 L 150 1130 L 303 1130 L 303 461 C 303 429 303 399 304 371 C 305 342 309 315 315 290 C 321 264 330 241 344 221 C 357 200 376 182 400 167 C 424 152 455 141 493 133 C 531 125 577 121 633 121 C 687 121 733 125 771 133 C 808 141 838 152 862 167 C 886 182 904 200 917 221 C 930 242 939 266 945 292 C 951 318 954 345 955 375 C 955 405 956 436 956 469 L 956 1130 L 1108 1130 L 1108 471 C 1108 419 1106 372 1103 328 C 1099 284 1092 243 1081 207 C 1070 171 1054 138 1034 110 C 1013 82 985 58 950 39 C 914 19 871 5 819 -5 C 767 -15 705 -20 633 -20 Z" unicode="ü" />
<glyph horiz-adv-x="1085" d="M 258 -342 C 254 -342 247 -342 238 -342 C 229 -342 220 -342 210 -342 C 200 -342 190 -341 181 -341 C 171 -341 164 -340 160 -340 L 160 -213 L 248 -213 C 274 -213 296 -211 315 -207 C 333 -203 349 -196 363 -187 C 377 -178 388 -166 398 -151 C 407 -136 416 -118 424 -96 L 471 25 L 502 72 L 903 1130 L 1063 1130 L 575 -113 C 559 -153 542 -187 524 -216 C 506 -245 484 -269 459 -288 C 434 -306 405 -320 373 -329 C 340 -337 302 -342 258 -342 Z M 23 1130 L 186 1130 L 604 43 L 477 -23 L 23 1130 Z M 698 1569 L 888 1569 L 536 1249 L 388 1249 L 698 1569 Z" unicode="ý" />
<glyph horiz-adv-x="1325" d="M 156 1589 L 311 1589 L 311 1004 C 341 1056 391 1095 459 1120 C 527 1144 621 1157 741 1157 C 835 1157 913 1143 975 1115 C 1037 1087 1087 1047 1124 996 C 1161 944 1187 882 1202 810 C 1217 737 1225 656 1225 567 C 1225 479 1217 399 1202 327 C 1186 255 1160 193 1123 141 C 1085 89 1035 50 972 22 C 909 -6 830 -20 735 -20 C 673 -20 619 -17 573 -11 C 527 -5 487 4 453 16 C 419 28 390 44 367 64 C 344 83 325 106 311 133 L 311 -338 L 156 -338 L 156 1589 Z M 711 123 C 780 123 838 133 884 153 C 930 173 966 201 993 239 C 1020 277 1039 323 1050 377 C 1061 431 1067 493 1067 563 C 1067 632 1061 694 1051 750 C 1040 805 1021 852 994 890 C 967 928 931 958 885 979 C 839 999 781 1010 711 1010 C 639 1010 578 1002 528 987 C 477 972 436 947 404 912 C 372 877 348 831 333 774 C 318 717 311 647 311 563 C 311 479 318 409 333 353 C 347 297 371 252 403 218 C 435 184 476 159 527 145 C 577 130 639 123 711 123 Z" unicode="þ" />
<glyph horiz-adv-x="1085" d="M 258 -342 C 254 -342 247 -342 238 -342 C 229 -342 220 -342 210 -342 C 200 -342 190 -341 181 -341 C 171 -341 164 -340 160 -340 L 160 -213 L 248 -213 C 274 -213 296 -211 315 -207 C 333 -203 349 -196 363 -187 C 377 -178 388 -166 398 -151 C 407 -136 416 -118 424 -96 L 471 25 L 502 72 L 903 1130 L 1063 1130 L 575 -113 C 559 -153 542 -187 524 -216 C 506 -245 484 -269 459 -288 C 434 -306 405 -320 373 -329 C 340 -337 302 -342 258 -342 Z M 23 1130 L 186 1130 L 604 43 L 477 -23 L 23 1130 Z M 259 1462 L 403 1462 L 403 1253 L 259 1253 L 259 1462 Z M 692 1462 L 833 1462 L 833 1253 L 692 1253 L 692 1462 Z" unicode="ÿ" />
<glyph horiz-adv-x="1487" d="" unicode="Ā" />
<glyph horiz-adv-x="1270" d="" unicode="ā" />
<glyph horiz-adv-x="1487" d="M 659 1528 L 821 1528 L 1430 0 L 1266 0 L 1126 350 L 348 350 L 211 0 L 51 0 L 659 1528 Z M 1069 498 L 737 1333 L 403 498 L 1069 498 Z M 739 1587 C 671 1587 615 1595 570 1611 C 524 1627 487 1649 458 1677 C 429 1704 407 1736 391 1773 C 375 1809 364 1848 356 1890 L 475 1914 C 481 1886 489 1861 500 1837 C 511 1813 526 1792 546 1774 C 566 1756 591 1741 622 1731 C 653 1721 692 1716 739 1716 C 785 1716 823 1721 854 1731 C 884 1741 910 1756 930 1774 C 950 1792 965 1813 976 1837 C 987 1861 996 1886 1003 1914 L 1124 1892 C 1114 1850 1102 1811 1086 1774 C 1070 1737 1047 1705 1018 1677 C 989 1649 952 1627 907 1611 C 861 1595 805 1587 739 1587 Z" unicode="Ă" />
<glyph horiz-adv-x="1270" d="M 487 -20 C 407 -20 342 -11 291 5 C 239 22 199 46 169 76 C 139 106 119 141 107 182 C 95 223 90 267 90 315 C 90 395 102 462 127 516 C 151 570 193 613 251 645 C 309 677 387 699 484 713 C 580 726 700 733 844 733 L 932 733 L 932 592 L 852 592 C 770 592 698 590 636 587 C 574 583 520 578 475 570 C 429 562 391 552 361 539 C 331 525 307 509 289 489 C 271 469 258 446 251 419 C 243 392 240 361 240 326 C 240 292 244 261 253 235 C 261 209 276 186 297 168 C 317 150 345 136 380 127 C 414 117 458 113 510 113 C 581 113 642 120 693 136 C 743 152 785 176 817 208 C 849 240 873 282 888 332 C 903 382 911 441 911 510 L 911 700 C 911 754 908 801 902 841 C 896 880 882 912 861 938 C 840 963 809 982 769 994 C 729 1006 674 1012 606 1012 C 570 1012 535 1009 503 1003 C 470 997 439 990 410 980 C 381 970 355 960 331 948 C 307 936 286 925 268 913 L 186 1034 C 204 1046 228 1060 258 1074 C 288 1088 321 1102 359 1114 C 397 1126 437 1137 481 1145 C 525 1153 570 1157 618 1157 C 713 1157 790 1148 848 1131 C 906 1113 950 1086 982 1050 C 1014 1013 1035 966 1045 908 C 1055 850 1061 780 1061 700 L 1061 274 C 1061 244 1062 220 1064 202 C 1066 184 1070 170 1078 160 C 1086 150 1097 144 1113 141 C 1129 138 1150 137 1178 137 L 1178 2 C 1172 0 1164 -1 1154 -1 C 1144 -1 1131 -2 1116 -2 C 1083 -2 1056 0 1034 6 C 1012 11 995 19 981 31 C 967 42 957 56 950 74 C 942 92 936 113 932 139 C 914 112 893 89 869 69 C 844 49 814 33 778 20 C 742 6 701 -3 653 -10 C 605 -16 550 -20 487 -20 Z M 637 1229 C 569 1229 513 1237 468 1253 C 422 1269 385 1291 356 1319 C 327 1346 305 1378 289 1415 C 273 1451 262 1490 254 1532 L 373 1556 C 379 1528 387 1503 398 1479 C 409 1455 424 1434 444 1416 C 464 1398 489 1383 520 1373 C 551 1363 590 1358 637 1358 C 683 1358 721 1363 752 1373 C 782 1383 808 1398 828 1416 C 848 1434 863 1455 874 1479 C 885 1503 894 1528 901 1556 L 1022 1534 C 1012 1492 1000 1453 984 1416 C 968 1379 945 1347 916 1319 C 887 1291 850 1269 805 1253 C 759 1237 703 1229 637 1229 Z" unicode="ă" />
<glyph horiz-adv-x="1487" d="M 659 1528 L 821 1528 L 1430 0 L 1378 0 C 1252 -73 1190 -146 1190 -219 C 1190 -232 1191 -245 1194 -258 C 1197 -270 1203 -282 1212 -292 C 1220 -302 1233 -310 1249 -316 C 1265 -322 1287 -326 1313 -326 C 1343 -326 1370 -323 1395 -318 C 1419 -312 1441 -306 1460 -299 L 1507 -406 C 1484 -418 1454 -427 1417 -434 C 1379 -440 1338 -444 1292 -444 C 1244 -444 1205 -438 1175 -428 C 1144 -417 1119 -402 1101 -383 C 1082 -364 1069 -342 1062 -317 C 1054 -292 1051 -265 1051 -236 C 1051 -206 1056 -177 1067 -150 C 1078 -122 1093 -97 1111 -74 C 1129 -51 1150 -30 1174 -12 C 1198 6 1223 23 1249 37 L 1126 350 L 348 350 L 211 0 L 51 0 L 659 1528 Z M 1069 498 L 737 1333 L 403 498 L 1069 498 Z" unicode="Ą" />
<glyph horiz-adv-x="1270" d="M 487 -20 C 407 -20 342 -11 291 5 C 239 22 199 46 169 76 C 139 106 119 141 107 182 C 95 223 90 267 90 315 C 90 395 102 462 127 516 C 151 570 193 613 251 645 C 309 677 387 699 484 713 C 580 726 700 733 844 733 L 911 733 C 909 781 905 822 898 858 C 890 893 876 922 854 945 C 832 967 802 984 762 995 C 722 1006 670 1012 606 1012 C 570 1012 535 1009 503 1003 C 470 997 439 990 410 980 C 381 970 355 960 331 948 C 307 936 286 925 268 913 L 186 1034 C 204 1046 228 1060 258 1074 C 288 1088 321 1102 359 1114 C 397 1126 437 1137 481 1145 C 525 1153 570 1157 618 1157 C 713 1157 790 1148 848 1131 C 906 1113 950 1086 982 1050 C 1014 1013 1035 966 1045 908 C 1055 850 1061 780 1061 700 L 1061 274 C 1061 244 1062 220 1064 202 C 1066 184 1070 170 1078 160 C 1086 150 1097 144 1113 141 C 1129 138 1150 137 1178 137 L 1178 2 C 1177 2 1176 1 1176 1 L 1176 0 C 1108 -37 1057 -73 1022 -109 C 986 -145 969 -181 969 -219 C 969 -232 970 -245 973 -258 C 976 -270 982 -282 992 -292 C 1002 -302 1015 -310 1033 -316 C 1050 -322 1073 -326 1102 -326 C 1132 -326 1159 -323 1184 -318 C 1208 -312 1230 -306 1249 -299 L 1296 -406 C 1273 -418 1243 -427 1206 -434 C 1169 -440 1127 -444 1081 -444 C 1029 -444 987 -438 955 -428 C 923 -417 897 -402 878 -383 C 859 -364 846 -342 839 -317 C 832 -292 829 -265 829 -236 C 829 -207 834 -180 846 -155 C 858 -129 873 -106 891 -85 C 909 -64 928 -45 950 -29 C 972 -13 992 0 1012 12 C 998 17 987 24 979 32 C 970 40 962 49 956 61 C 950 71 945 83 942 96 C 938 109 935 123 932 139 C 914 112 893 89 869 69 C 844 49 814 33 778 20 C 742 6 701 -3 653 -10 C 605 -16 550 -20 487 -20 Z M 510 113 C 581 113 642 120 693 136 C 743 152 785 176 817 208 C 849 240 873 282 888 332 C 903 382 911 441 911 510 L 911 592 L 852 592 C 770 592 698 590 636 587 C 574 583 520 578 475 570 C 429 562 391 552 361 539 C 331 525 307 509 289 489 C 271 469 258 446 251 419 C 243 392 240 361 240 326 C 240 292 244 261 253 235 C 261 209 276 186 297 168 C 317 150 345 136 380 127 C 414 117 458 113 510 113 Z" unicode="ą" />
<glyph horiz-adv-x="1477" d="M 889 1927 L 1079 1927 L 727 1607 L 579 1607 L 889 1927 Z M 838 -23 C 710 -23 600 -6 506 27 C 412 60 334 109 272 175 C 210 241 165 322 135 420 C 105 518 90 631 90 760 C 90 892 106 1008 140 1106 C 174 1204 223 1285 287 1350 C 351 1414 431 1462 525 1494 C 619 1526 726 1542 846 1542 C 954 1542 1052 1526 1142 1495 C 1231 1463 1309 1416 1376 1352 L 1262 1237 C 1207 1286 1144 1324 1074 1350 C 1004 1376 927 1389 844 1389 C 648 1389 501 1336 401 1231 C 301 1125 252 968 252 758 C 252 654 263 563 287 485 C 311 406 347 340 396 288 C 445 235 507 195 582 169 C 656 142 744 129 846 129 C 902 129 952 133 996 141 C 1039 149 1077 161 1111 175 C 1145 189 1175 206 1201 225 C 1227 243 1251 263 1274 285 L 1386 176 C 1360 150 1330 126 1298 102 C 1265 78 1227 56 1183 38 C 1139 19 1089 4 1033 -6 C 977 -17 912 -23 838 -23 Z" unicode="Ć" />
<glyph horiz-adv-x="1153" d="M 730 1569 L 920 1569 L 568 1249 L 420 1249 L 730 1569 Z M 641 -20 C 535 -20 448 -6 378 21 C 308 49 253 88 212 139 C 170 190 141 252 125 324 C 108 396 100 477 100 567 C 100 657 108 738 125 811 C 141 883 170 945 212 997 C 254 1048 310 1087 380 1115 C 450 1143 538 1157 645 1157 C 695 1157 741 1152 783 1144 C 824 1135 861 1123 894 1109 C 927 1094 957 1077 983 1057 C 1009 1037 1032 1017 1053 995 L 940 889 C 926 903 910 917 892 931 C 874 945 853 957 829 969 C 805 980 777 989 747 997 C 717 1004 683 1008 645 1008 C 571 1008 509 998 459 978 C 409 958 369 930 339 892 C 309 854 287 807 275 752 C 262 696 256 633 256 563 C 256 493 262 431 274 376 C 286 321 307 275 337 237 C 367 199 407 169 457 149 C 507 129 569 119 645 119 C 677 119 706 121 734 126 C 762 131 788 139 812 149 C 836 159 860 171 882 186 C 904 201 926 218 948 238 L 1053 139 C 1025 113 996 91 967 71 C 938 51 907 34 875 21 C 842 7 806 -2 768 -9 C 730 -16 687 -20 641 -20 Z" unicode="ć" />
<glyph horiz-adv-x="1477" d="M 338 1927 L 493 1927 L 739 1708 L 983 1927 L 1134 1927 L 823 1607 L 649 1607 L 338 1927 Z M 838 -23 C 710 -23 600 -6 506 27 C 412 60 334 109 272 175 C 210 241 165 322 135 420 C 105 518 90 631 90 760 C 90 892 106 1008 140 1106 C 174 1204 223 1285 287 1350 C 351 1414 431 1462 525 1494 C 619 1526 726 1542 846 1542 C 954 1542 1052 1526 1142 1495 C 1231 1463 1309 1416 1376 1352 L 1262 1237 C 1207 1286 1144 1324 1074 1350 C 1004 1376 927 1389 844 1389 C 648 1389 501 1336 401 1231 C 301 1125 252 968 252 758 C 252 654 263 563 287 485 C 311 406 347 340 396 288 C 445 235 507 195 582 169 C 656 142 744 129 846 129 C 902 129 952 133 996 141 C 1039 149 1077 161 1111 175 C 1145 189 1175 206 1201 225 C 1227 243 1251 263 1274 285 L 1386 176 C 1360 150 1330 126 1298 102 C 1265 78 1227 56 1183 38 C 1139 19 1089 4 1033 -6 C 977 -17 912 -23 838 -23 Z" unicode="Č" />
<glyph horiz-adv-x="1153" d="M 179 1569 L 334 1569 L 580 1350 L 824 1569 L 975 1569 L 664 1249 L 490 1249 L 179 1569 Z M 641 -20 C 535 -20 448 -6 378 21 C 308 49 253 88 212 139 C 170 190 141 252 125 324 C 108 396 100 477 100 567 C 100 657 108 738 125 811 C 141 883 170 945 212 997 C 254 1048 310 1087 380 1115 C 450 1143 538 1157 645 1157 C 695 1157 741 1152 783 1144 C 824 1135 861 1123 894 1109 C 927 1094 957 1077 983 1057 C 1009 1037 1032 1017 1053 995 L 940 889 C 926 903 910 917 892 931 C 874 945 853 957 829 969 C 805 980 777 989 747 997 C 717 1004 683 1008 645 1008 C 571 1008 509 998 459 978 C 409 958 369 930 339 892 C 309 854 287 807 275 752 C 262 696 256 633 256 563 C 256 493 262 431 274 376 C 286 321 307 275 337 237 C 367 199 407 169 457 149 C 507 129 569 119 645 119 C 677 119 706 121 734 126 C 762 131 788 139 812 149 C 836 159 860 171 882 186 C 904 201 926 218 948 238 L 1053 139 C 1025 113 996 91 967 71 C 938 51 907 34 875 21 C 842 7 806 -2 768 -9 C 730 -16 687 -20 641 -20 Z" unicode="č" />
<glyph horiz-adv-x="1540" d="M 369 1927 L 524 1927 L 770 1708 L 1014 1927 L 1165 1927 L 854 1607 L 680 1607 L 369 1927 Z M 178 1518 L 674 1518 C 816 1518 936 1506 1035 1482 C 1134 1458 1214 1417 1276 1359 C 1338 1301 1382 1223 1410 1126 C 1438 1028 1452 906 1452 760 C 1452 616 1436 496 1406 399 C 1376 301 1328 223 1264 164 C 1199 105 1116 63 1014 38 C 912 12 789 0 647 0 L 178 0 L 178 1518 Z M 653 147 C 773 147 873 157 955 179 C 1036 201 1101 236 1151 284 C 1201 332 1236 396 1258 474 C 1279 552 1290 647 1290 760 C 1290 836 1286 904 1278 964 C 1270 1024 1256 1076 1238 1121 C 1219 1165 1194 1203 1163 1235 C 1132 1266 1094 1291 1049 1311 C 1003 1330 950 1344 888 1353 C 826 1361 756 1366 676 1366 L 340 1366 L 340 147 L 653 147 Z" unicode="Ď" />
<glyph horiz-adv-x="1534" d="M 1329 1243 C 1349 1254 1366 1265 1380 1275 C 1393 1285 1404 1295 1412 1307 C 1420 1318 1425 1331 1429 1345 C 1432 1359 1434 1375 1434 1395 L 1348 1395 L 1348 1589 L 1526 1589 L 1526 1442 C 1526 1403 1523 1370 1519 1343 C 1515 1315 1507 1291 1495 1271 C 1483 1251 1468 1233 1448 1217 C 1428 1201 1402 1185 1370 1169 L 1329 1243 Z M 586 -20 C 492 -20 413 -5 351 22 C 288 50 238 90 201 142 C 164 193 138 255 123 328 C 107 400 100 481 100 571 C 100 659 107 739 123 811 C 139 883 165 944 203 995 C 240 1046 290 1085 353 1113 C 416 1141 495 1155 590 1155 C 651 1155 705 1152 751 1146 C 797 1140 838 1130 872 1118 C 906 1106 934 1090 957 1071 C 979 1052 998 1030 1014 1004 L 1014 1589 L 1169 1589 L 1169 6 L 1049 -4 L 1030 141 C 1012 113 990 88 965 68 C 940 48 910 31 875 18 C 839 5 798 -4 751 -10 C 703 -16 648 -20 586 -20 Z M 614 123 C 685 123 746 130 797 146 C 847 161 889 186 921 221 C 953 256 976 302 991 359 C 1006 416 1014 487 1014 571 C 1014 653 1006 723 992 779 C 978 835 955 881 923 915 C 891 949 849 973 799 988 C 748 1002 686 1010 614 1010 C 544 1010 486 1000 440 980 C 394 960 357 931 330 893 C 303 855 284 809 274 755 C 263 701 258 639 258 571 C 258 501 263 439 274 384 C 284 328 303 281 330 243 C 357 204 394 174 440 154 C 486 133 544 123 614 123 Z" unicode="ď" />
<glyph horiz-adv-x="1540" d="M 178 1518 L 674 1518 C 816 1518 936 1506 1035 1482 C 1134 1458 1214 1417 1276 1359 C 1338 1301 1382 1223 1410 1126 C 1438 1028 1452 906 1452 760 C 1452 616 1436 496 1405 399 C 1374 301 1326 223 1261 164 C 1195 105 1112 63 1011 38 C 909 12 788 0 647 0 L 178 0 L 178 1518 Z M 653 147 C 773 147 873 157 955 179 C 1036 201 1101 236 1151 284 C 1201 332 1236 396 1258 474 C 1279 552 1290 647 1290 760 C 1290 836 1286 904 1278 964 C 1270 1024 1256 1076 1238 1121 C 1219 1165 1194 1203 1163 1235 C 1132 1266 1094 1291 1049 1311 C 1003 1330 950 1344 888 1353 C 826 1361 756 1366 676 1366 L 340 1366 L 340 147 L 653 147 Z M 0 854 L 684 854 L 684 719 L 0 719 L 0 854 Z" unicode="Đ" />
<glyph horiz-adv-x="1325" d="M 674 1413 L 1325 1413 L 1325 1276 L 674 1276 L 674 1413 Z M 586 -20 C 492 -20 413 -5 351 22 C 288 50 238 90 201 142 C 164 193 138 255 123 328 C 107 400 100 481 100 571 C 100 659 107 739 123 811 C 139 883 165 944 203 995 C 240 1046 290 1085 353 1113 C 416 1141 495 1155 590 1155 C 651 1155 705 1152 751 1146 C 797 1140 838 1130 872 1118 C 906 1106 934 1090 957 1071 C 979 1052 998 1030 1014 1004 L 1014 1589 L 1169 1589 L 1169 6 L 1049 -4 L 1030 141 C 1012 113 990 88 965 68 C 940 48 910 31 875 18 C 839 5 798 -4 751 -10 C 703 -16 648 -20 586 -20 Z M 614 123 C 685 123 746 130 797 146 C 847 161 889 186 921 221 C 953 256 976 302 991 359 C 1006 416 1014 487 1014 571 C 1014 653 1006 723 992 779 C 978 835 955 881 923 915 C 891 949 849 973 799 988 C 748 1002 686 1010 614 1010 C 544 1010 486 1000 440 980 C 394 960 357 931 330 893 C 303 855 284 809 274 755 C 263 701 258 639 258 571 C 258 501 263 439 274 384 C 284 328 303 281 330 243 C 357 204 394 174 440 154 C 486 133 544 123 614 123 Z" unicode="đ" />
<glyph horiz-adv-x="1309" d="" unicode="Ē" />
<glyph horiz-adv-x="1214" d="" unicode="ē" />
<glyph horiz-adv-x="1309" d="" unicode="Ė" />
<glyph horiz-adv-x="1214" d="" unicode="ė" />
<glyph horiz-adv-x="1309" d="M 178 1518 L 1182 1518 L 1182 1364 L 340 1364 L 340 862 L 1161 862 L 1161 711 L 340 711 L 340 147 L 1190 147 L 1190 0 L 1028 0 C 970 -36 925 -73 894 -111 C 863 -149 848 -186 848 -221 C 848 -234 849 -247 852 -260 C 855 -272 861 -283 871 -293 C 881 -303 894 -311 912 -317 C 929 -323 952 -326 981 -326 C 1015 -326 1048 -321 1080 -313 C 1112 -305 1137 -296 1157 -287 L 1204 -393 C 1175 -408 1139 -420 1095 -430 C 1051 -439 1007 -444 961 -444 C 909 -444 867 -438 835 -428 C 802 -417 776 -402 758 -384 C 739 -366 726 -344 719 -320 C 712 -295 709 -268 709 -240 C 709 -213 714 -188 724 -164 C 734 -140 746 -118 762 -98 C 777 -78 794 -59 814 -43 C 833 -26 852 -12 870 0 L 178 0 L 178 1518 Z" unicode="Ę" />
<glyph horiz-adv-x="1214" d="M 643 -23 C 567 -23 500 -16 444 -2 C 388 12 340 31 300 57 C 260 82 227 112 201 148 C 175 184 154 223 139 267 C 124 311 114 358 108 409 C 102 459 100 512 100 567 C 100 649 107 725 122 797 C 137 869 164 931 204 985 C 244 1038 298 1080 368 1111 C 438 1141 527 1157 637 1157 C 713 1157 777 1148 830 1132 C 882 1116 926 1093 961 1064 C 995 1034 1022 999 1042 959 C 1061 919 1075 875 1084 827 C 1093 779 1098 729 1100 676 C 1102 622 1102 568 1102 514 L 250 514 C 252 454 258 400 270 351 C 282 301 302 259 331 224 C 360 188 400 161 450 142 C 500 122 564 113 643 113 C 689 113 730 115 766 121 C 801 127 833 135 861 145 C 889 155 915 168 939 182 C 962 196 985 211 1008 227 L 1092 119 C 1062 97 1033 78 1003 61 C 973 43 941 28 905 16 L 907 16 C 840 -22 788 -61 752 -103 C 716 -144 698 -183 698 -221 C 698 -234 699 -247 702 -260 C 705 -272 711 -283 721 -293 C 731 -303 744 -311 762 -317 C 779 -323 802 -326 831 -326 C 865 -326 898 -321 930 -313 C 962 -305 988 -296 1008 -287 L 1055 -393 C 1025 -408 989 -420 945 -430 C 901 -439 857 -444 811 -444 C 759 -444 717 -438 685 -428 C 652 -417 626 -402 608 -384 C 589 -366 576 -344 569 -320 C 562 -295 559 -268 559 -240 C 559 -216 562 -194 570 -173 C 578 -152 588 -132 600 -114 C 612 -96 626 -79 642 -63 C 658 -47 674 -33 690 -20 C 682 -21 674 -22 666 -22 C 658 -22 651 -23 643 -23 Z M 633 1018 C 561 1018 502 1009 455 992 C 408 974 370 950 341 918 C 312 886 291 847 278 803 C 264 758 256 709 252 655 L 954 655 C 952 688 949 720 947 751 C 944 782 939 811 932 838 C 924 865 914 890 901 912 C 887 934 869 952 846 968 C 822 984 793 996 759 1005 C 724 1013 682 1018 633 1018 Z" unicode="ę" />
<glyph horiz-adv-x="1309" d="M 252 1927 L 407 1927 L 653 1708 L 897 1927 L 1048 1927 L 737 1607 L 563 1607 L 252 1927 Z M 178 1518 L 1182 1518 L 1182 1364 L 340 1364 L 340 862 L 1161 862 L 1161 711 L 340 711 L 340 147 L 1190 147 L 1190 0 L 178 0 L 178 1518 Z" unicode="Ě" />
<glyph horiz-adv-x="1214" d="M 205 1569 L 360 1569 L 606 1350 L 850 1569 L 1001 1569 L 690 1249 L 516 1249 L 205 1569 Z M 643 -23 C 567 -23 500 -16 444 -2 C 388 12 340 31 300 57 C 260 82 227 112 201 148 C 175 184 154 223 139 267 C 124 311 114 358 108 409 C 102 459 100 512 100 567 C 100 649 107 725 122 797 C 137 869 164 931 204 985 C 244 1038 298 1080 368 1111 C 438 1141 527 1157 637 1157 C 713 1157 777 1148 830 1132 C 882 1116 926 1093 961 1064 C 995 1034 1022 999 1042 959 C 1061 919 1075 875 1084 827 C 1093 779 1098 729 1100 676 C 1102 622 1102 568 1102 514 L 168 514 L 170 655 L 954 655 C 952 688 949 720 947 751 C 944 782 939 811 932 838 C 924 865 914 890 901 912 C 887 934 869 952 846 968 C 822 984 793 996 759 1005 C 724 1013 682 1018 633 1018 C 551 1018 486 1006 436 984 C 386 962 347 930 320 890 C 292 850 274 802 264 746 C 254 690 250 629 250 563 C 250 497 254 437 264 382 C 273 327 292 280 320 240 C 348 200 388 168 440 146 C 491 124 559 113 643 113 C 689 113 730 115 766 121 C 801 127 833 135 861 145 C 889 155 915 168 939 182 C 962 196 985 211 1008 227 L 1092 119 C 1064 97 1034 78 1003 60 C 972 42 939 27 903 15 C 867 3 827 -6 785 -13 C 742 -19 695 -23 643 -23 Z" unicode="ě" />
<glyph horiz-adv-x="1591" d="" unicode="Ğ" />
<glyph horiz-adv-x="1223" d="" unicode="ğ" />
<glyph horiz-adv-x="3176" d="M 500 582 C 426 582 363 593 311 617 C 259 640 217 673 184 715 C 151 757 127 808 112 867 C 97 925 90 990 90 1061 C 90 1131 97 1195 112 1254 C 127 1313 151 1364 184 1406 C 217 1448 259 1482 311 1506 C 363 1530 426 1542 500 1542 C 572 1542 633 1530 685 1506 C 736 1482 778 1448 810 1406 C 842 1364 866 1313 882 1254 C 897 1195 905 1131 905 1061 C 905 990 897 925 882 867 C 866 808 842 757 810 715 C 778 673 736 640 685 617 C 633 593 572 582 500 582 Z M 500 709 C 550 709 591 717 625 735 C 659 753 686 777 707 809 C 727 841 742 878 751 921 C 759 964 764 1011 764 1061 C 764 1111 759 1157 751 1200 C 742 1243 727 1280 707 1311 C 686 1342 659 1366 625 1384 C 591 1402 550 1411 500 1411 C 449 1411 406 1402 372 1385 C 338 1367 310 1343 290 1312 C 269 1281 254 1244 246 1201 C 237 1158 233 1111 233 1061 C 233 1011 237 964 246 921 C 254 878 269 841 289 809 C 309 777 337 753 371 735 C 405 717 448 709 500 709 Z M 1772 -20 C 1699 -20 1637 -8 1586 15 C 1534 38 1492 71 1460 113 C 1427 155 1403 206 1388 265 C 1373 323 1366 388 1366 459 C 1366 529 1373 593 1388 652 C 1403 711 1427 762 1460 804 C 1492 846 1534 880 1586 904 C 1637 928 1699 940 1772 940 C 1844 940 1906 928 1958 904 C 2009 880 2051 846 2084 804 C 2116 762 2140 711 2156 652 C 2171 593 2179 529 2179 459 C 2179 388 2171 323 2156 265 C 2140 206 2116 155 2084 113 C 2051 71 2009 38 1958 15 C 1906 -8 1844 -20 1772 -20 Z M 1772 106 C 1822 106 1864 115 1898 133 C 1932 151 1959 175 1979 207 C 1999 238 2014 275 2023 319 C 2031 362 2036 409 2036 459 C 2036 508 2031 554 2023 597 C 2014 639 1999 676 1979 708 C 1959 739 1932 764 1898 782 C 1864 800 1822 809 1772 809 C 1722 809 1680 800 1646 782 C 1612 764 1584 740 1564 709 C 1543 677 1528 640 1520 598 C 1511 555 1507 509 1507 459 C 1507 409 1511 362 1520 319 C 1528 275 1543 238 1564 207 C 1584 175 1612 151 1646 133 C 1680 115 1722 106 1772 106 Z M 2681 -20 C 2607 -20 2545 -8 2493 15 C 2441 38 2399 71 2367 113 C 2334 155 2310 206 2295 265 C 2280 323 2273 388 2273 459 C 2273 529 2280 593 2295 652 C 2310 711 2334 762 2367 804 C 2399 846 2441 880 2493 904 C 2545 928 2607 940 2681 940 C 2753 940 2815 928 2867 904 C 2918 880 2960 846 2992 804 C 3024 762 3048 711 3063 652 C 3078 593 3086 529 3086 459 C 3086 388 3078 323 3063 265 C 3048 206 3024 155 2992 113 C 2960 71 2918 38 2867 15 C 2815 -8 2753 -20 2681 -20 Z M 2681 106 C 2731 106 2774 115 2808 133 C 2842 151 2869 175 2889 207 C 2909 238 2924 275 2932 319 C 2940 362 2945 409 2945 459 C 2945 508 2940 554 2932 597 C 2923 639 2908 676 2888 708 C 2868 739 2841 764 2807 782 C 2773 800 2731 809 2681 809 C 2631 809 2589 800 2555 782 C 2521 764 2493 740 2473 709 C 2452 677 2437 640 2428 598 C 2419 555 2415 509 2415 459 C 2415 409 2419 362 2428 319 C 2436 275 2451 238 2472 207 C 2492 175 2520 151 2554 133 C 2588 115 2630 106 2681 106 Z M 1483 1520 L 1630 1520 L 784 0 L 637 0 L 1483 1520 Z" unicode="‰" />
<glyph horiz-adv-x="1591" d="" unicode="Ģ" />
<glyph horiz-adv-x="1223" d="" unicode="ģ" />
<glyph horiz-adv-x="1664" d="" unicode="Ω" />
<glyph horiz-adv-x="547" d="" unicode="Ī" />
<glyph horiz-adv-x="487" d="" unicode="ī" />
<glyph horiz-adv-x="547" d="" unicode="Į" />
<glyph horiz-adv-x="487" d="" unicode="į" />
<glyph horiz-adv-x="547" d="" unicode="İ" />
<glyph horiz-adv-x="487" d="" unicode="ı" />
<glyph horiz-adv-x="1442" d="" unicode="Ķ" />
<glyph horiz-adv-x="1110" d="" unicode="ķ" />
<glyph horiz-adv-x="1202" d="M 503 1927 L 693 1927 L 341 1607 L 193 1607 L 503 1927 Z M 178 1518 L 340 1518 L 340 147 L 1147 147 L 1147 0 L 178 0 L 178 1518 Z" unicode="Ĺ" />
<glyph horiz-adv-x="598" d="M 476 1979 L 666 1979 L 314 1659 L 166 1659 L 476 1979 Z M 401 -2 C 355 -2 316 3 286 13 C 256 23 232 40 214 62 C 196 84 184 112 177 146 C 169 180 166 222 166 270 L 166 1589 L 319 1589 L 319 287 C 319 259 320 235 323 216 C 325 197 331 182 341 170 C 350 158 363 150 381 145 C 398 139 421 137 451 137 L 500 137 L 500 2 C 491 0 478 0 460 -1 C 442 -1 422 -2 401 -2 Z" unicode="ĺ" />
<glyph horiz-adv-x="1202" d="" unicode="Ļ" />
<glyph horiz-adv-x="598" d="" unicode="ļ" />
<glyph horiz-adv-x="1202" d="M 547 1243 C 567 1254 584 1265 598 1275 C 611 1285 622 1295 630 1307 C 638 1318 643 1331 646 1345 C 649 1359 651 1375 651 1395 L 563 1395 L 563 1589 L 743 1589 L 743 1442 C 743 1403 740 1370 736 1343 C 732 1315 724 1291 713 1271 C 701 1251 686 1233 666 1217 C 646 1201 620 1185 588 1169 L 547 1243 Z M 178 1518 L 340 1518 L 340 147 L 1147 147 L 1147 0 L 178 0 L 178 1518 Z" unicode="Ľ" />
<glyph horiz-adv-x="696" d="M 492 1243 C 512 1254 528 1265 542 1275 C 555 1285 566 1295 574 1307 C 582 1318 587 1331 591 1345 C 594 1359 596 1375 596 1395 L 508 1395 L 508 1589 L 688 1589 L 688 1442 C 688 1403 685 1370 681 1343 C 677 1315 669 1291 657 1271 C 645 1251 630 1233 610 1217 C 590 1201 564 1185 532 1169 L 492 1243 Z M 401 -2 C 355 -2 316 3 286 13 C 256 23 232 40 214 62 C 196 84 184 112 177 146 C 169 180 166 222 166 270 L 166 1589 L 319 1589 L 319 287 C 319 259 320 235 323 216 C 325 197 331 182 341 170 C 350 158 363 150 381 145 C 398 139 421 137 451 137 L 500 137 L 500 2 C 491 0 478 0 460 -1 C 442 -1 422 -2 401 -2 Z" unicode="ľ" />
<glyph horiz-adv-x="1202" d="M 178 1518 L 340 1518 L 340 147 L 1147 147 L 1147 0 L 178 0 L 178 1518 Z M 0 766 L 682 1147 L 682 1008 L 0 627 L 0 766 Z" unicode="Ł" />
<glyph horiz-adv-x="723" d="M 485 -2 C 439 -2 400 3 370 13 C 340 23 316 40 298 62 C 280 84 268 112 261 146 C 253 180 250 220 250 268 L 250 1589 L 406 1589 L 406 283 C 406 255 407 231 410 212 C 412 192 418 177 427 165 C 436 153 449 145 466 140 C 483 135 506 133 535 133 L 584 133 L 584 2 C 575 0 562 0 545 -1 C 527 -1 507 -2 485 -2 Z M 45 932 L 635 1274 L 635 1139 L 45 799 L 45 932 Z" unicode="ł" />
<glyph horiz-adv-x="1595" d="M 946 1927 L 1136 1927 L 784 1607 L 636 1607 L 946 1927 Z M 178 1518 L 354 1518 L 1262 266 L 1262 1518 L 1417 1518 L 1417 0 L 1270 0 L 334 1288 L 334 0 L 178 0 L 178 1518 Z" unicode="Ń" />
<glyph horiz-adv-x="1270" d="M 785 1569 L 975 1569 L 623 1249 L 475 1249 L 785 1569 Z M 156 1122 L 279 1130 L 293 1012 C 305 1031 321 1049 342 1067 C 363 1085 390 1100 423 1114 C 456 1127 496 1137 544 1145 C 591 1153 647 1157 713 1157 C 803 1157 876 1145 930 1123 C 984 1101 1025 1069 1053 1028 C 1081 987 1099 938 1107 881 C 1115 823 1120 760 1120 690 L 1120 0 L 965 0 L 965 664 C 965 714 962 759 957 801 C 952 843 940 879 920 909 C 900 939 871 962 831 979 C 791 995 737 1004 668 1004 C 592 1004 531 994 485 976 C 438 958 402 932 376 899 C 350 866 333 827 324 782 C 315 737 311 688 311 635 L 311 0 L 156 0 L 156 1122 Z" unicode="ń" />
<glyph horiz-adv-x="1595" d="" unicode="Ņ" />
<glyph horiz-adv-x="1270" d="" unicode="ņ" />
<glyph horiz-adv-x="1595" d="M 395 1927 L 550 1927 L 796 1708 L 1040 1927 L 1191 1927 L 880 1607 L 706 1607 L 395 1927 Z M 178 1518 L 354 1518 L 1262 266 L 1262 1518 L 1417 1518 L 1417 0 L 1270 0 L 334 1288 L 334 0 L 178 0 L 178 1518 Z" unicode="Ň" />
<glyph horiz-adv-x="1270" d="M 234 1569 L 389 1569 L 635 1350 L 879 1569 L 1030 1569 L 719 1249 L 545 1249 L 234 1569 Z M 156 1122 L 279 1130 L 293 1012 C 305 1031 321 1049 342 1067 C 363 1085 390 1100 423 1114 C 456 1127 496 1137 544 1145 C 591 1153 647 1157 713 1157 C 803 1157 876 1145 930 1123 C 984 1101 1025 1069 1053 1028 C 1081 987 1099 938 1107 881 C 1115 823 1120 760 1120 690 L 1120 0 L 965 0 L 965 664 C 965 714 962 759 957 801 C 952 843 940 879 920 909 C 900 939 871 962 831 979 C 791 995 737 1004 668 1004 C 592 1004 531 994 485 976 C 438 958 402 932 376 899 C 350 866 333 827 324 782 C 315 737 311 688 311 635 L 311 0 L 156 0 L 156 1122 Z" unicode="ň" />
<glyph horiz-adv-x="1708" d="" unicode="Ō" />
<glyph horiz-adv-x="1292" d="" unicode="ō" />
<glyph horiz-adv-x="1708" d="M 731 1925 L 916 1925 L 613 1607 L 473 1607 L 731 1925 Z M 1196 1925 L 1378 1925 L 1077 1607 L 938 1607 L 1196 1925 Z M 852 -25 C 730 -25 622 -9 528 21 C 434 52 354 100 289 164 C 224 228 175 309 141 408 C 107 506 90 624 90 760 C 90 894 107 1011 141 1109 C 175 1207 224 1289 289 1353 C 354 1417 434 1464 528 1495 C 622 1526 730 1542 852 1542 C 974 1542 1082 1526 1177 1495 C 1272 1464 1352 1417 1418 1353 C 1483 1289 1533 1207 1567 1109 C 1601 1011 1618 894 1618 760 C 1618 624 1601 506 1567 408 C 1533 309 1483 228 1418 164 C 1352 100 1272 52 1177 21 C 1082 -9 974 -25 852 -25 Z M 852 125 C 955 125 1045 138 1121 166 C 1197 193 1259 233 1309 287 C 1359 340 1396 406 1420 485 C 1444 563 1456 654 1456 758 C 1456 860 1444 950 1420 1029 C 1396 1107 1359 1173 1309 1227 C 1259 1280 1197 1320 1121 1348 C 1045 1375 955 1389 852 1389 C 748 1389 659 1375 584 1348 C 508 1320 446 1280 397 1227 C 348 1173 312 1107 288 1029 C 264 950 252 860 252 758 C 252 654 264 563 288 485 C 312 406 348 340 397 287 C 446 233 508 193 584 166 C 659 138 748 125 852 125 Z" unicode="Ő" />
<glyph horiz-adv-x="1292" d="M 522 1567 L 707 1567 L 404 1249 L 264 1249 L 522 1567 Z M 987 1567 L 1169 1567 L 868 1249 L 729 1249 L 987 1567 Z M 645 -23 C 547 -23 463 -10 394 14 C 325 39 269 76 225 126 C 181 175 150 236 130 310 C 110 384 100 469 100 567 C 100 664 110 749 130 823 C 150 897 181 958 225 1008 C 269 1057 325 1094 394 1119 C 463 1144 547 1157 645 1157 C 743 1157 826 1144 895 1119 C 964 1094 1021 1057 1065 1008 C 1109 958 1141 897 1161 823 C 1181 749 1192 664 1192 567 C 1192 469 1181 384 1161 310 C 1141 236 1109 175 1065 126 C 1021 76 964 39 895 14 C 826 -10 743 -23 645 -23 Z M 645 119 C 716 119 776 128 826 147 C 875 166 915 194 946 232 C 977 270 999 316 1013 372 C 1027 427 1034 491 1034 563 C 1034 635 1027 699 1013 755 C 999 811 977 857 946 895 C 915 933 875 961 826 981 C 776 1000 716 1010 645 1010 C 573 1010 513 1000 464 981 C 414 961 374 933 343 895 C 312 857 290 811 276 755 C 262 699 256 635 256 563 C 256 491 262 427 276 372 C 290 316 312 270 343 232 C 374 194 414 166 464 147 C 513 128 573 119 645 119 Z" unicode="ő" />
<glyph horiz-adv-x="2580" d="M 852 -25 C 726 -25 615 -9 520 21 C 425 52 346 100 282 164 C 218 228 170 309 138 408 C 106 506 90 624 90 760 C 90 894 106 1011 138 1109 C 170 1207 218 1289 282 1353 C 346 1417 425 1464 520 1495 C 615 1526 726 1542 852 1542 C 978 1542 1088 1525 1180 1493 C 1272 1461 1348 1412 1408 1347 C 1468 1282 1512 1201 1541 1103 C 1570 1005 1585 890 1585 760 C 1585 628 1570 514 1541 416 C 1512 318 1468 236 1408 171 C 1348 105 1272 56 1180 24 C 1088 -8 978 -25 852 -25 Z M 852 125 C 959 125 1051 138 1127 166 C 1203 193 1266 233 1315 287 C 1363 340 1399 406 1422 485 C 1444 563 1456 654 1456 758 C 1456 860 1444 950 1422 1029 C 1399 1107 1363 1173 1315 1227 C 1266 1280 1203 1320 1127 1348 C 1051 1375 959 1389 852 1389 C 744 1389 653 1375 577 1348 C 501 1320 439 1280 391 1227 C 343 1173 307 1107 285 1029 C 263 950 252 860 252 758 C 252 654 263 563 285 485 C 307 406 343 340 391 287 C 439 233 501 193 577 166 C 653 138 744 125 852 125 Z M 1466 1518 L 2454 1518 L 2454 1364 L 1612 1364 L 1612 862 L 2433 862 L 2433 715 L 1612 715 L 1612 147 L 2462 147 L 2462 0 L 1466 0 L 1466 1518 Z" unicode="Œ" />
<glyph horiz-adv-x="2146" d="M 645 -23 C 545 -23 461 -10 392 14 C 323 39 267 76 224 126 C 180 175 149 236 129 310 C 109 384 100 469 100 567 C 100 664 109 749 129 823 C 149 897 180 958 224 1008 C 267 1057 323 1094 392 1119 C 461 1144 545 1157 645 1157 C 743 1157 827 1144 895 1118 C 963 1092 1018 1055 1060 1005 C 1102 955 1132 893 1150 820 C 1168 746 1178 662 1178 567 C 1178 471 1168 387 1150 314 C 1132 240 1102 179 1060 129 C 1018 79 963 41 895 15 C 827 -10 743 -23 645 -23 Z M 645 119 C 716 119 776 128 826 147 C 875 166 915 194 946 232 C 977 270 999 316 1013 372 C 1027 427 1034 491 1034 563 C 1034 635 1027 699 1013 755 C 999 811 977 857 946 895 C 915 933 875 961 826 981 C 776 1000 716 1010 645 1010 C 573 1010 513 1000 464 981 C 414 961 374 933 343 895 C 312 857 290 811 276 755 C 262 699 256 635 256 563 C 256 491 262 427 276 372 C 290 316 312 270 343 232 C 374 194 414 166 464 147 C 513 128 573 119 645 119 Z M 1577 -23 C 1499 -23 1433 -15 1377 -1 C 1321 12 1273 32 1234 58 C 1195 84 1164 115 1140 151 C 1116 187 1097 226 1084 270 C 1071 314 1062 361 1058 411 C 1053 461 1051 513 1051 567 C 1051 621 1053 673 1058 723 C 1063 773 1072 820 1086 864 C 1100 908 1119 947 1143 983 C 1167 1019 1199 1050 1237 1076 C 1275 1102 1322 1122 1377 1136 C 1431 1150 1496 1157 1571 1157 C 1648 1157 1713 1148 1767 1132 C 1820 1116 1864 1093 1899 1064 C 1933 1034 1960 999 1979 959 C 1998 919 2012 875 2021 827 C 2029 779 2034 729 2035 676 C 2036 622 2036 568 2036 514 L 1100 514 L 1104 653 L 1888 653 C 1886 686 1883 718 1881 749 C 1878 780 1873 809 1866 837 C 1858 864 1848 889 1834 911 C 1820 933 1802 952 1779 968 C 1755 984 1726 996 1692 1005 C 1658 1013 1616 1018 1567 1018 C 1485 1018 1420 1006 1370 984 C 1320 962 1281 930 1254 890 C 1226 850 1208 802 1198 746 C 1188 690 1184 629 1184 563 C 1184 497 1188 437 1198 382 C 1207 327 1226 280 1254 240 C 1282 200 1322 168 1374 146 C 1425 124 1493 113 1577 113 C 1623 113 1664 115 1700 121 C 1735 127 1767 135 1795 145 C 1823 155 1849 168 1873 182 C 1896 196 1919 211 1942 227 L 2028 119 C 1999 97 1969 78 1939 60 C 1908 42 1875 27 1839 15 C 1803 3 1763 -6 1721 -13 C 1678 -19 1630 -23 1577 -23 Z" unicode="œ" />
<glyph horiz-adv-x="1470" d="M 883 1927 L 1073 1927 L 721 1607 L 573 1607 L 883 1927 Z M 178 1518 L 834 1518 C 1010 1518 1139 1481 1222 1408 C 1304 1335 1346 1223 1346 1073 C 1346 923 1304 810 1220 733 C 1136 656 1006 618 831 618 L 336 618 L 336 0 L 178 0 L 178 1518 Z M 836 766 C 890 766 938 770 981 780 C 1024 789 1061 805 1091 828 C 1121 850 1144 881 1160 920 C 1176 958 1184 1007 1184 1067 C 1184 1125 1176 1174 1160 1213 C 1144 1252 1121 1283 1091 1306 C 1061 1328 1024 1344 980 1354 C 936 1363 885 1368 829 1368 L 336 1368 L 336 766 L 836 766 Z M 741 700 L 913 700 L 1323 0 L 1151 0 L 741 700 Z" unicode="Ŕ" />
<glyph horiz-adv-x="735" d="M 542 1569 L 732 1569 L 380 1249 L 232 1249 L 542 1569 Z M 156 1122 L 279 1130 L 295 979 C 305 1001 322 1022 345 1042 C 367 1062 395 1079 428 1094 C 461 1109 499 1121 543 1130 C 586 1139 634 1144 686 1145 L 686 989 C 616 989 558 979 510 961 C 462 942 424 916 395 882 C 365 848 344 808 331 762 C 317 716 311 665 311 610 L 311 0 L 156 0 L 156 1122 Z" unicode="ŕ" />
<glyph horiz-adv-x="1470" d="" unicode="Ŗ" />
<glyph horiz-adv-x="735" d="" unicode="ŗ" />
<glyph horiz-adv-x="1470" d="M 332 1927 L 487 1927 L 733 1708 L 977 1927 L 1128 1927 L 817 1607 L 643 1607 L 332 1927 Z M 178 1518 L 834 1518 C 1010 1518 1139 1481 1222 1408 C 1304 1335 1346 1223 1346 1073 C 1346 923 1304 810 1220 733 C 1136 656 1006 618 831 618 L 336 618 L 336 0 L 178 0 L 178 1518 Z M 836 766 C 890 766 938 770 981 780 C 1024 789 1061 805 1091 828 C 1121 850 1144 881 1160 920 C 1176 958 1184 1007 1184 1067 C 1184 1125 1176 1174 1160 1213 C 1144 1252 1121 1283 1091 1306 C 1061 1328 1024 1344 980 1354 C 936 1363 885 1368 829 1368 L 336 1368 L 336 766 L 836 766 Z M 741 700 L 913 700 L 1323 0 L 1151 0 L 741 700 Z" unicode="Ř" />
<glyph horiz-adv-x="719" d="M -38 1569 L 117 1569 L 363 1350 L 607 1569 L 758 1569 L 447 1249 L 273 1249 L -38 1569 Z M 156 1122 L 279 1130 L 295 979 C 305 1001 322 1022 345 1042 C 367 1062 395 1079 428 1094 C 461 1109 499 1121 543 1130 C 586 1139 634 1144 686 1145 L 686 989 C 616 989 558 979 510 961 C 462 942 424 916 395 882 C 365 848 344 808 331 762 C 317 716 311 665 311 610 L 311 0 L 156 0 L 156 1122 Z" unicode="ř" />
<glyph horiz-adv-x="1440" d="M 869 1927 L 1059 1927 L 707 1607 L 559 1607 L 869 1927 Z M 713 -20 C 597 -20 488 -6 384 19 C 280 45 180 90 84 154 L 166 276 C 211 247 256 223 302 204 C 347 184 392 169 437 157 C 482 145 527 136 572 131 C 617 125 663 123 709 123 C 787 123 854 128 911 140 C 968 151 1015 169 1052 193 C 1089 217 1116 247 1134 285 C 1152 323 1161 368 1161 420 C 1161 474 1150 517 1128 550 C 1106 582 1076 609 1037 629 C 997 649 950 666 894 678 C 838 690 777 703 709 715 C 654 724 602 734 554 744 C 506 754 461 767 421 781 C 380 795 343 811 311 831 C 279 850 251 874 229 902 C 207 930 190 963 178 1001 C 166 1039 160 1083 160 1135 C 160 1207 171 1269 195 1321 C 218 1373 253 1415 299 1448 C 345 1480 402 1504 471 1519 C 539 1534 619 1542 709 1542 C 827 1542 930 1529 1016 1505 C 1102 1480 1176 1447 1237 1407 L 1151 1276 C 1123 1294 1093 1310 1060 1325 C 1026 1339 991 1352 953 1362 C 915 1372 876 1380 835 1386 C 793 1392 751 1395 709 1395 C 641 1395 582 1390 533 1380 C 483 1370 443 1355 411 1334 C 379 1313 356 1286 341 1254 C 326 1222 319 1183 319 1139 C 319 1091 328 1051 348 1021 C 367 990 395 965 432 945 C 468 925 513 909 566 897 C 619 884 680 872 748 860 C 830 845 907 829 977 813 C 1047 796 1107 773 1158 743 C 1208 713 1248 673 1276 623 C 1304 573 1319 507 1319 426 C 1319 275 1269 163 1171 90 C 1072 16 919 -20 713 -20 Z" unicode="Ś" />
<glyph horiz-adv-x="1069" d="M 687 1569 L 877 1569 L 525 1249 L 377 1249 L 687 1569 Z M 532 -20 C 494 -20 456 -18 417 -14 C 377 -10 338 -4 298 5 C 258 15 218 28 178 44 C 138 60 99 80 61 106 L 143 227 C 176 205 210 187 244 173 C 278 159 313 147 347 139 C 381 130 414 124 447 120 C 479 116 511 115 541 115 C 591 115 635 117 673 123 C 711 129 742 139 767 154 C 791 169 810 189 822 215 C 834 240 840 273 840 313 C 840 345 834 371 824 391 C 813 411 796 428 772 442 C 748 456 717 467 679 477 C 641 487 595 497 541 508 C 475 520 416 534 364 548 C 311 562 266 582 229 606 C 192 630 164 661 144 699 C 124 737 115 786 115 848 C 115 896 122 940 137 978 C 152 1016 177 1048 211 1075 C 245 1101 289 1122 343 1136 C 397 1150 463 1157 541 1157 C 626 1157 703 1148 772 1131 C 841 1113 902 1089 954 1059 L 881 932 C 837 955 787 974 731 990 C 674 1006 611 1014 543 1014 C 489 1014 445 1010 410 1002 C 374 994 346 983 325 969 C 304 955 289 937 281 917 C 272 896 268 873 268 848 C 268 816 273 790 284 770 C 294 749 311 732 334 718 C 356 704 385 692 421 682 C 456 672 499 663 549 653 C 617 639 679 625 733 611 C 787 597 834 579 872 556 C 910 532 939 502 959 465 C 979 428 989 379 989 319 C 989 254 979 200 961 157 C 943 113 915 78 878 52 C 840 26 793 7 736 -3 C 678 -14 610 -20 532 -20 Z" unicode="ś" />
<glyph horiz-adv-x="866" d="M 532 565 L 231 1130 L 375 1130 L 684 565 L 375 0 L 231 0 L 532 565 Z" unicode="›" />
<glyph horiz-adv-x="1440" d="M 713 -20 C 597 -20 488 -6 384 19 C 280 45 180 90 84 154 L 166 276 C 211 247 256 223 302 204 C 347 184 392 169 437 157 C 482 145 527 136 572 131 C 617 125 663 123 709 123 C 787 123 854 128 911 140 C 968 151 1015 169 1052 193 C 1089 217 1116 247 1134 285 C 1152 323 1161 368 1161 420 C 1161 474 1150 517 1128 550 C 1106 582 1076 609 1037 629 C 997 649 950 666 894 678 C 838 690 777 703 709 715 C 654 724 602 734 554 744 C 506 754 461 767 421 781 C 380 795 343 811 311 831 C 279 850 251 874 229 902 C 207 930 190 963 178 1001 C 166 1039 160 1083 160 1135 C 160 1207 171 1269 195 1321 C 218 1373 253 1415 299 1448 C 345 1480 402 1504 471 1519 C 539 1534 619 1542 709 1542 C 827 1542 930 1529 1016 1505 C 1102 1480 1176 1447 1237 1407 L 1151 1276 C 1123 1294 1093 1310 1060 1325 C 1026 1339 991 1352 953 1362 C 915 1372 876 1380 835 1386 C 793 1392 751 1395 709 1395 C 641 1395 582 1390 533 1380 C 483 1370 443 1355 411 1334 C 379 1313 356 1286 341 1254 C 326 1222 319 1183 319 1139 C 319 1091 328 1051 348 1021 C 367 990 395 965 432 945 C 468 925 513 909 566 897 C 619 884 680 872 748 860 C 830 845 907 829 977 813 C 1047 796 1107 773 1158 743 C 1208 713 1248 673 1276 623 C 1304 573 1319 507 1319 426 C 1319 275 1269 163 1171 90 C 1072 16 919 -20 713 -20 Z M 734 -461 C 682 -461 637 -455 599 -444 C 561 -432 526 -418 496 -401 L 543 -315 C 569 -329 598 -341 629 -349 C 660 -357 693 -362 727 -362 C 761 -362 789 -359 810 -353 C 831 -347 847 -339 859 -329 C 871 -319 879 -307 883 -294 C 887 -281 889 -268 889 -254 C 889 -235 886 -219 880 -207 C 874 -194 863 -184 849 -177 C 834 -169 814 -164 790 -162 C 765 -160 734 -160 697 -162 L 652 -129 L 680 14 L 781 14 L 762 -92 C 792 -90 822 -90 851 -92 C 880 -94 906 -102 928 -114 C 950 -126 968 -143 982 -167 C 995 -191 1002 -223 1002 -264 C 1002 -292 997 -319 988 -343 C 979 -367 964 -387 943 -405 C 922 -423 895 -436 861 -446 C 827 -456 784 -461 734 -461 Z" unicode="Ş" />
<glyph horiz-adv-x="1069" d="M 532 -20 C 494 -20 456 -18 417 -14 C 377 -10 338 -4 298 5 C 258 15 218 28 178 44 C 138 60 99 80 61 106 L 143 227 C 176 205 210 187 244 173 C 278 159 313 147 347 139 C 381 130 414 124 447 120 C 479 116 511 115 541 115 C 591 115 635 117 673 123 C 711 129 742 139 767 154 C 791 169 810 189 822 215 C 834 240 840 273 840 313 C 840 345 834 371 824 391 C 813 411 796 428 772 442 C 748 456 717 467 679 477 C 641 487 595 497 541 508 C 475 520 416 534 364 548 C 311 562 266 582 229 606 C 192 630 164 661 144 699 C 124 737 115 786 115 848 C 115 896 122 940 137 978 C 152 1016 177 1048 211 1075 C 245 1101 289 1122 343 1136 C 397 1150 463 1157 541 1157 C 626 1157 703 1148 772 1131 C 841 1113 902 1089 954 1059 L 881 932 C 837 955 787 974 731 990 C 674 1006 611 1014 543 1014 C 489 1014 445 1010 410 1002 C 374 994 346 983 325 969 C 304 955 289 937 281 917 C 272 896 268 873 268 848 C 268 816 273 790 284 770 C 294 749 311 732 334 718 C 356 704 385 692 421 682 C 456 672 499 663 549 653 C 617 639 679 625 733 611 C 787 597 834 579 872 556 C 910 532 939 502 959 465 C 979 428 989 379 989 319 C 989 254 979 200 961 157 C 943 113 915 78 878 52 C 840 26 793 7 736 -3 C 678 -14 610 -20 532 -20 Z M 552 -461 C 500 -461 455 -455 417 -444 C 379 -432 344 -418 314 -401 L 361 -315 C 387 -329 416 -341 447 -349 C 478 -357 511 -362 545 -362 C 579 -362 607 -359 628 -353 C 649 -347 665 -339 677 -329 C 689 -319 697 -307 701 -294 C 705 -281 707 -268 707 -254 C 707 -235 704 -219 698 -207 C 692 -194 681 -184 667 -177 C 652 -169 632 -164 608 -162 C 583 -160 552 -160 515 -162 L 470 -129 L 498 14 L 599 14 L 580 -92 C 610 -90 640 -90 669 -92 C 698 -94 724 -102 746 -114 C 768 -126 786 -143 800 -167 C 813 -191 820 -223 820 -264 C 820 -292 815 -319 806 -343 C 797 -367 782 -387 761 -405 C 740 -423 713 -436 679 -446 C 645 -456 602 -461 552 -461 Z" unicode="ş" />
<glyph horiz-adv-x="1440" d="M 318 1927 L 473 1927 L 719 1708 L 963 1927 L 1114 1927 L 803 1607 L 629 1607 L 318 1927 Z M 713 -20 C 597 -20 488 -6 384 19 C 280 45 180 90 84 154 L 166 276 C 211 247 256 223 302 204 C 347 184 392 169 437 157 C 482 145 527 136 572 131 C 617 125 663 123 709 123 C 787 123 854 128 911 140 C 968 151 1015 169 1052 193 C 1089 217 1116 247 1134 285 C 1152 323 1161 368 1161 420 C 1161 474 1150 517 1128 550 C 1106 582 1076 609 1037 629 C 997 649 950 666 894 678 C 838 690 777 703 709 715 C 654 724 602 734 554 744 C 506 754 461 767 421 781 C 380 795 343 811 311 831 C 279 850 251 874 229 902 C 207 930 190 963 178 1001 C 166 1039 160 1083 160 1135 C 160 1207 171 1269 195 1321 C 218 1373 253 1415 299 1448 C 345 1480 402 1504 471 1519 C 539 1534 619 1542 709 1542 C 827 1542 930 1529 1016 1505 C 1102 1480 1176 1447 1237 1407 L 1151 1276 C 1123 1294 1093 1310 1060 1325 C 1026 1339 991 1352 953 1362 C 915 1372 876 1380 835 1386 C 793 1392 751 1395 709 1395 C 641 1395 582 1390 533 1380 C 483 1370 443 1355 411 1334 C 379 1313 356 1286 341 1254 C 326 1222 319 1183 319 1139 C 319 1091 328 1051 348 1021 C 367 990 395 965 432 945 C 468 925 513 909 566 897 C 619 884 680 872 748 860 C 830 845 907 829 977 813 C 1047 796 1107 773 1158 743 C 1208 713 1248 673 1276 623 C 1304 573 1319 507 1319 426 C 1319 275 1269 163 1171 90 C 1072 16 919 -20 713 -20 Z" unicode="Š" />
<glyph horiz-adv-x="1069" d="M 136 1569 L 291 1569 L 537 1350 L 781 1569 L 932 1569 L 621 1249 L 447 1249 L 136 1569 Z M 532 -20 C 494 -20 456 -18 417 -14 C 377 -10 338 -4 298 5 C 258 15 218 28 178 44 C 138 60 99 80 61 106 L 143 227 C 176 205 210 187 244 173 C 278 159 313 147 347 139 C 381 130 414 124 447 120 C 479 116 511 115 541 115 C 591 115 635 117 673 123 C 711 129 742 139 767 154 C 791 169 810 189 822 215 C 834 240 840 273 840 313 C 840 345 834 371 824 391 C 813 411 796 428 772 442 C 748 456 717 467 679 477 C 641 487 595 497 541 508 C 475 520 416 534 364 548 C 311 562 266 582 229 606 C 192 630 164 661 144 699 C 124 737 115 786 115 848 C 115 896 122 940 137 978 C 152 1016 177 1048 211 1075 C 245 1101 289 1122 343 1136 C 397 1150 463 1157 541 1157 C 626 1157 703 1148 772 1131 C 841 1113 902 1089 954 1059 L 881 932 C 837 955 787 974 731 990 C 674 1006 611 1014 543 1014 C 489 1014 445 1010 410 1002 C 374 994 346 983 325 969 C 304 955 289 937 281 917 C 272 896 268 873 268 848 C 268 816 273 790 284 770 C 294 749 311 732 334 718 C 356 704 385 692 421 682 C 456 672 499 663 549 653 C 617 639 679 625 733 611 C 787 597 834 579 872 556 C 910 532 939 502 959 465 C 979 428 989 379 989 319 C 989 254 979 200 961 157 C 943 113 915 78 878 52 C 840 26 793 7 736 -3 C 678 -14 610 -20 532 -20 Z" unicode="š" />
<glyph horiz-adv-x="1409" d="M 598 -428 C 618 -416 635 -406 649 -396 C 663 -386 674 -375 682 -363 C 690 -351 695 -338 698 -324 C 701 -310 703 -293 703 -274 L 611 -274 L 611 -80 L 797 -80 L 797 -229 C 797 -267 794 -299 790 -326 C 785 -353 777 -377 765 -397 C 753 -417 737 -436 717 -452 C 697 -468 671 -484 639 -500 L 598 -428 Z M 625 1364 L 55 1364 L 55 1518 L 1356 1518 L 1356 1364 L 786 1364 L 786 0 L 625 0 L 625 1364 Z" unicode="Ţ" />
<glyph horiz-adv-x="831" d="M 250 -428 C 270 -416 287 -406 301 -396 C 315 -386 326 -375 334 -363 C 342 -351 347 -338 350 -324 C 353 -310 355 -293 355 -274 L 263 -274 L 263 -80 L 449 -80 L 449 -229 C 449 -267 446 -299 442 -326 C 437 -353 429 -377 417 -397 C 405 -417 389 -436 369 -452 C 349 -468 323 -484 291 -500 L 250 -428 Z M 567 -2 C 503 -2 452 4 413 17 C 373 29 343 48 321 73 C 299 97 285 128 277 164 C 269 200 266 243 266 291 L 266 1077 L 297 1470 L 420 1493 L 420 309 C 420 283 421 259 424 238 C 427 216 434 198 446 183 C 458 168 475 157 498 149 C 521 141 552 137 592 137 L 731 137 L 731 0 C 727 0 717 -1 702 -1 C 686 -1 670 -2 652 -2 C 634 -2 616 -2 600 -2 C 584 -2 573 -2 567 -2 Z M 63 1130 L 731 1130 L 731 989 L 63 989 L 63 1130 Z" unicode="ţ" />
<glyph horiz-adv-x="1409" d="M 303 1927 L 458 1927 L 704 1708 L 948 1927 L 1099 1927 L 788 1607 L 614 1607 L 303 1927 Z M 625 1364 L 55 1364 L 55 1518 L 1356 1518 L 1356 1364 L 786 1364 L 786 0 L 625 0 L 625 1364 Z" unicode="Ť" />
<glyph horiz-adv-x="831" d="M 592 1407 C 612 1418 628 1429 641 1439 C 654 1449 665 1459 673 1471 C 681 1482 686 1495 689 1509 C 692 1523 694 1539 694 1559 L 610 1559 L 610 1747 L 784 1747 L 784 1602 C 784 1564 781 1532 777 1506 C 773 1479 765 1456 754 1436 C 742 1416 727 1398 707 1382 C 687 1366 662 1351 631 1335 L 592 1407 Z M 567 -2 C 503 -2 452 4 413 17 C 373 29 343 48 321 73 C 299 97 285 128 277 164 C 269 200 266 243 266 291 L 266 1077 L 297 1470 L 420 1493 L 420 309 C 420 283 421 259 424 238 C 427 216 434 198 446 183 C 458 168 475 157 498 149 C 521 141 552 137 592 137 L 731 137 L 731 0 C 727 0 717 -1 702 -1 C 686 -1 670 -2 652 -2 C 634 -2 616 -2 600 -2 C 584 -2 573 -2 567 -2 Z M 63 1130 L 731 1130 L 731 989 L 63 989 L 63 1130 Z" unicode="ť" />
<glyph horiz-adv-x="1593" d="" unicode="Ū" />
<glyph horiz-adv-x="1257" d="" unicode="ū" />
<glyph horiz-adv-x="1593" d="M 794 1585 C 750 1585 713 1591 682 1604 C 651 1616 626 1634 606 1657 C 586 1679 571 1706 562 1737 C 552 1767 548 1801 548 1837 C 548 1873 552 1906 562 1937 C 571 1967 586 1994 606 2017 C 626 2040 651 2058 682 2071 C 713 2084 750 2091 794 2091 C 834 2091 870 2084 901 2071 C 931 2058 957 2040 977 2017 C 997 1994 1013 1967 1023 1937 C 1033 1906 1038 1873 1038 1837 C 1038 1801 1033 1767 1023 1737 C 1013 1706 997 1679 977 1657 C 957 1634 931 1616 901 1604 C 870 1591 834 1585 794 1585 Z M 794 1677 C 820 1677 843 1681 863 1689 C 882 1697 898 1709 910 1723 C 922 1737 931 1754 937 1774 C 943 1793 946 1814 946 1837 C 946 1859 943 1880 937 1900 C 931 1919 922 1936 910 1950 C 898 1964 882 1976 863 1984 C 843 1992 820 1996 794 1996 C 766 1996 743 1992 724 1984 C 704 1976 688 1964 676 1950 C 664 1936 655 1919 649 1900 C 643 1880 641 1859 641 1837 C 641 1814 643 1793 649 1774 C 655 1754 664 1737 676 1723 C 688 1709 704 1697 724 1689 C 743 1681 766 1677 794 1677 Z M 795 -25 C 705 -25 627 -17 561 -3 C 495 10 439 30 393 56 C 346 82 308 112 279 148 C 250 184 227 223 211 265 C 194 307 183 352 177 400 C 171 448 168 497 168 547 L 168 1518 L 330 1518 L 330 565 C 330 500 336 441 349 387 C 361 333 385 287 419 248 C 453 209 500 179 560 157 C 620 135 699 125 795 125 C 891 125 970 135 1032 157 C 1094 178 1142 208 1177 247 C 1212 285 1236 332 1250 386 C 1263 440 1270 499 1270 565 L 1270 1518 L 1425 1518 L 1425 547 C 1425 497 1421 448 1415 400 C 1409 352 1397 306 1380 264 C 1363 222 1340 183 1311 148 C 1281 112 1243 82 1197 56 C 1150 30 1094 10 1028 -3 C 962 -17 884 -25 795 -25 Z" unicode="Ů" />
<glyph horiz-adv-x="1257" d="M 627 1227 C 583 1227 546 1233 515 1246 C 484 1258 459 1276 439 1299 C 419 1321 404 1348 395 1379 C 385 1409 381 1443 381 1479 C 381 1515 385 1548 395 1579 C 404 1609 419 1636 439 1659 C 459 1682 484 1700 515 1713 C 546 1726 583 1733 627 1733 C 667 1733 703 1726 734 1713 C 764 1700 790 1682 810 1659 C 830 1636 846 1609 856 1579 C 866 1548 871 1515 871 1479 C 871 1443 866 1409 856 1379 C 846 1348 830 1321 810 1299 C 790 1276 764 1258 734 1246 C 703 1233 667 1227 627 1227 Z M 627 1319 C 653 1319 676 1323 696 1331 C 715 1339 731 1351 743 1365 C 755 1379 764 1396 770 1416 C 776 1435 779 1456 779 1479 C 779 1501 776 1522 770 1542 C 764 1561 755 1578 743 1592 C 731 1606 715 1618 696 1626 C 676 1634 653 1638 627 1638 C 599 1638 576 1634 557 1626 C 537 1618 521 1606 509 1592 C 497 1578 488 1561 482 1542 C 476 1522 474 1501 474 1479 C 474 1456 476 1435 482 1416 C 488 1396 497 1379 509 1365 C 521 1351 537 1339 557 1331 C 576 1323 599 1319 627 1319 Z M 633 -20 C 559 -20 497 -15 445 -5 C 393 5 349 19 313 39 C 277 58 248 82 227 110 C 205 138 189 169 178 205 C 166 241 159 280 155 324 C 151 368 150 415 150 465 L 150 1130 L 303 1130 L 303 461 C 303 429 303 399 304 371 C 305 342 309 315 315 290 C 321 264 330 241 344 221 C 357 200 376 182 400 167 C 424 152 455 141 493 133 C 531 125 577 121 633 121 C 687 121 733 125 771 133 C 808 141 838 152 862 167 C 886 182 904 200 917 221 C 930 242 939 266 945 292 C 951 318 954 345 955 375 C 955 405 956 436 956 469 L 956 1130 L 1108 1130 L 1108 471 C 1108 419 1106 372 1103 328 C 1099 284 1092 243 1081 207 C 1070 171 1054 138 1034 110 C 1013 82 985 58 950 39 C 914 19 871 5 819 -5 C 767 -15 705 -20 633 -20 Z" unicode="ů" />
<glyph horiz-adv-x="1593" d="M 795 -25 C 705 -25 627 -17 561 -3 C 495 10 439 30 393 56 C 346 82 308 112 279 148 C 250 184 227 223 211 265 C 194 307 183 352 177 400 C 171 448 168 497 168 547 L 168 1518 L 330 1518 L 330 565 C 330 500 336 441 349 387 C 361 333 385 287 419 248 C 453 209 500 179 560 157 C 620 135 699 125 795 125 C 891 125 970 135 1032 157 C 1094 178 1142 208 1177 247 C 1212 285 1236 332 1250 386 C 1263 440 1270 499 1270 565 L 1270 1518 L 1425 1518 L 1425 547 C 1425 497 1421 448 1415 400 C 1409 352 1397 306 1380 264 C 1363 222 1340 183 1311 148 C 1281 112 1243 82 1197 56 C 1150 30 1094 10 1028 -3 C 962 -17 884 -25 795 -25 Z M 673 1925 L 858 1925 L 555 1607 L 415 1607 L 673 1925 Z M 1138 1925 L 1320 1925 L 1019 1607 L 880 1607 L 1138 1925 Z" unicode="Ű" />
<glyph horiz-adv-x="1257" d="M 633 -20 C 559 -20 497 -15 445 -5 C 393 5 349 19 313 39 C 277 58 248 82 227 110 C 205 138 189 169 178 205 C 166 241 159 280 155 324 C 151 368 150 415 150 465 L 150 1130 L 303 1130 L 303 461 C 303 429 303 399 304 371 C 305 342 309 315 315 290 C 321 264 330 241 344 221 C 357 200 376 182 400 167 C 424 152 455 141 493 133 C 531 125 577 121 633 121 C 687 121 733 125 771 133 C 808 141 838 152 862 167 C 886 182 904 200 917 221 C 930 242 939 266 945 292 C 951 318 954 345 955 375 C 955 405 956 436 956 469 L 956 1130 L 1108 1130 L 1108 471 C 1108 419 1106 372 1103 328 C 1099 284 1092 243 1081 207 C 1070 171 1054 138 1034 110 C 1013 82 985 58 950 39 C 914 19 871 5 819 -5 C 767 -15 705 -20 633 -20 Z M 506 1567 L 691 1567 L 388 1249 L 248 1249 L 506 1567 Z M 971 1567 L 1153 1567 L 852 1249 L 713 1249 L 971 1567 Z" unicode="ű" />
<glyph horiz-adv-x="1593" d="" unicode="Ų" />
<glyph horiz-adv-x="1257" d="" unicode="ų" />
<glyph horiz-adv-x="1434" d="M 27 1518 L 203 1518 L 719 735 L 1239 1518 L 1405 1518 L 782 571 L 649 571 L 27 1518 Z M 637 670 L 797 670 L 797 0 L 637 0 L 637 670 Z M 428 1820 L 572 1820 L 572 1611 L 428 1611 L 428 1820 Z M 861 1820 L 1002 1820 L 1002 1611 L 861 1611 L 861 1820 Z" unicode="Ÿ" />
<glyph horiz-adv-x="1362" d="M 832 1927 L 1022 1927 L 670 1607 L 522 1607 L 832 1927 Z M 92 129 L 1042 1364 L 127 1364 L 127 1518 L 1241 1518 L 1241 1378 L 295 147 L 1264 147 L 1264 0 L 92 0 L 92 129 Z" unicode="Ź" />
<glyph horiz-adv-x="1028" d="M 669 1569 L 859 1569 L 507 1249 L 359 1249 L 669 1569 Z M 68 117 L 743 989 L 102 989 L 102 1130 L 942 1130 L 942 1012 L 266 133 L 965 133 L 965 0 L 68 0 L 68 117 Z" unicode="ź" />
<glyph horiz-adv-x="1362" d="M 92 129 L 1042 1364 L 127 1364 L 127 1518 L 1241 1518 L 1241 1378 L 295 147 L 1264 147 L 1264 0 L 92 0 L 92 129 Z M 602 1824 L 758 1824 L 758 1605 L 602 1605 L 602 1824 Z" unicode="Ż" />
<glyph horiz-adv-x="1028" d="M 68 117 L 743 989 L 102 989 L 102 1130 L 942 1130 L 942 1012 L 266 133 L 965 133 L 965 0 L 68 0 L 68 117 Z M 439 1466 L 595 1466 L 595 1247 L 439 1247 L 439 1466 Z" unicode="ż" />
<glyph horiz-adv-x="1362" d="M 281 1927 L 436 1927 L 682 1708 L 926 1927 L 1077 1927 L 766 1607 L 592 1607 L 281 1927 Z M 92 129 L 1042 1364 L 127 1364 L 127 1518 L 1241 1518 L 1241 1378 L 295 147 L 1264 147 L 1264 0 L 92 0 L 92 129 Z" unicode="Ž" />
<glyph horiz-adv-x="1028" d="M 118 1569 L 273 1569 L 519 1350 L 763 1569 L 914 1569 L 603 1249 L 429 1249 L 118 1569 Z M 68 117 L 743 989 L 102 989 L 102 1130 L 942 1130 L 942 1012 L 266 133 L 965 133 L 965 0 L 68 0 L 68 117 Z" unicode="ž" />
<glyph horiz-adv-x="1085" d="M 483 1192 C 492 1237 503 1279 516 1319 C 528 1359 548 1393 574 1423 C 600 1452 635 1475 679 1492 C 723 1509 782 1518 854 1518 L 920 1518 L 920 1372 L 862 1372 C 816 1372 780 1366 752 1354 C 724 1342 702 1325 686 1305 C 670 1285 658 1261 650 1234 C 642 1207 635 1179 629 1149 L 313 -340 L 158 -340 L 483 1192 Z M 180 924 L 920 924 L 920 782 L 180 782 L 180 924 Z" unicode="ƒ" />
<glyph horiz-adv-x="995" d="" unicode="⁄" />
<glyph horiz-adv-x="1280" d="" unicode="∂" />
<glyph horiz-adv-x="1536" d="" unicode="∆" />
<glyph horiz-adv-x="1536" d="" unicode="∏" />
<glyph horiz-adv-x="1152" d="" unicode="∑" />
<glyph horiz-adv-x="1425" d="" unicode="−" />
<glyph horiz-adv-x="995" d="" unicode="∕" />
<glyph horiz-adv-x="1440" d="" unicode="Ș" />
<glyph horiz-adv-x="1069" d="" unicode="ș" />
<glyph horiz-adv-x="1409" d="M 598 -428 C 618 -416 635 -406 649 -396 C 663 -386 674 -375 682 -363 C 690 -351 695 -338 698 -324 C 701 -310 703 -293 703 -274 L 611 -274 L 611 -80 L 797 -80 L 797 -229 C 797 -267 794 -299 790 -326 C 785 -353 777 -377 765 -397 C 753 -417 737 -436 717 -452 C 697 -468 671 -484 639 -500 L 598 -428 Z M 625 1364 L 55 1364 L 55 1518 L 1356 1518 L 1356 1364 L 786 1364 L 786 0 L 625 0 L 625 1364 Z" unicode="Ț" />
<glyph horiz-adv-x="831" d="M 250 -428 C 270 -416 287 -406 301 -396 C 315 -386 326 -375 334 -363 C 342 -351 347 -338 350 -324 C 353 -310 355 -293 355 -274 L 263 -274 L 263 -80 L 449 -80 L 449 -229 C 449 -267 446 -299 442 -326 C 437 -353 429 -377 417 -397 C 405 -417 389 -436 369 -452 C 349 -468 323 -484 291 -500 L 250 -428 Z M 567 -2 C 503 -2 452 4 413 17 C 373 29 343 48 321 73 C 299 97 285 128 277 164 C 269 200 266 243 266 291 L 266 1077 L 297 1470 L 420 1493 L 420 309 C 420 283 421 259 424 238 C 427 216 434 198 446 183 C 458 168 475 157 498 149 C 521 141 552 137 592 137 L 731 137 L 731 0 C 727 0 717 -1 702 -1 C 686 -1 670 -2 652 -2 C 634 -2 616 -2 600 -2 C 584 -2 573 -2 567 -2 Z M 63 1130 L 731 1130 L 731 989 L 63 989 L 63 1130 Z" unicode="ț" />
<glyph horiz-adv-x="1757" d="" unicode="∞" />
<glyph horiz-adv-x="1152" d="" unicode="∫" />
<glyph horiz-adv-x="1536" d="" unicode="≈" />
<glyph horiz-adv-x="2009" d="M 276 1235 C 276 1287 281 1334 291 1378 C 301 1422 318 1459 344 1490 C 369 1521 403 1545 447 1563 C 490 1580 545 1589 612 1589 L 735 1589 L 735 1452 L 629 1452 C 589 1452 556 1446 530 1435 C 504 1424 484 1409 469 1390 C 454 1370 444 1347 438 1321 C 432 1295 430 1266 430 1235 L 430 0 L 276 0 L 276 1235 Z M 926 1235 C 926 1287 931 1334 941 1378 C 951 1422 968 1459 994 1490 C 1019 1521 1053 1545 1097 1563 C 1140 1580 1195 1589 1262 1589 L 1386 1589 L 1386 1452 L 1278 1452 C 1238 1452 1206 1446 1180 1435 C 1154 1424 1134 1409 1120 1390 C 1105 1370 1095 1347 1089 1321 C 1083 1295 1081 1266 1081 1235 L 1081 0 L 926 0 L 926 1235 Z M 1810 -2 C 1764 -2 1727 3 1697 13 C 1667 23 1643 40 1625 62 C 1607 84 1595 112 1588 146 C 1580 180 1577 222 1577 270 L 1577 1589 L 1731 1589 L 1731 287 C 1731 259 1732 235 1735 216 C 1737 197 1743 182 1752 170 C 1761 158 1774 150 1791 145 C 1808 139 1831 137 1860 137 L 1909 137 L 1909 2 C 1901 0 1888 0 1870 -1 C 1851 -1 1831 -2 1810 -2 Z M 63 1130 L 1386 1130 L 1386 989 L 63 989 L 63 1130 Z" unicode="ﬄ" />
<glyph horiz-adv-x="1425" d="" unicode="≠" />
<glyph horiz-adv-x="1425" d="" unicode="≤" />
<glyph horiz-adv-x="1425" d="" unicode="≥" />
<glyph horiz-adv-x="1208" d="M 516 1569 L 690 1569 L 1001 1249 L 846 1249 L 600 1468 L 358 1249 L 205 1249 L 516 1569 Z" unicode="ˆ" />
<glyph horiz-adv-x="1208" d="M 205 1569 L 360 1569 L 606 1350 L 850 1569 L 1001 1569 L 690 1249 L 516 1249 L 205 1569 Z" unicode="ˇ" />
<glyph horiz-adv-x="1208" d="M 604 1229 C 536 1229 480 1237 435 1253 C 389 1269 352 1291 323 1319 C 294 1346 272 1378 256 1415 C 240 1451 229 1490 221 1532 L 340 1556 C 346 1528 354 1503 365 1479 C 376 1455 391 1434 411 1416 C 431 1398 456 1383 487 1373 C 518 1363 557 1358 604 1358 C 650 1358 688 1363 719 1373 C 749 1383 775 1398 795 1416 C 815 1434 830 1455 841 1479 C 852 1503 861 1528 868 1556 L 989 1534 C 979 1492 967 1453 951 1416 C 935 1379 912 1347 883 1319 C 854 1291 817 1269 772 1253 C 726 1237 670 1229 604 1229 Z" unicode="˘" />
<glyph horiz-adv-x="1208" d="M 526 1466 L 682 1466 L 682 1247 L 526 1247 L 526 1466 Z" unicode="˙" />
<glyph horiz-adv-x="1208" d="M 604 1227 C 560 1227 523 1233 492 1246 C 461 1258 436 1276 416 1299 C 396 1321 381 1348 372 1379 C 362 1409 358 1443 358 1479 C 358 1515 362 1548 372 1579 C 381 1609 396 1636 416 1659 C 436 1682 461 1700 492 1713 C 523 1726 560 1733 604 1733 C 644 1733 680 1726 711 1713 C 741 1700 767 1682 787 1659 C 807 1636 823 1609 833 1579 C 843 1548 848 1515 848 1479 C 848 1443 843 1409 833 1379 C 823 1348 807 1321 787 1299 C 767 1276 741 1258 711 1246 C 680 1233 644 1227 604 1227 Z M 604 1319 C 630 1319 653 1323 673 1331 C 692 1339 708 1351 720 1365 C 732 1379 741 1396 747 1416 C 753 1435 756 1456 756 1479 C 756 1501 753 1522 747 1542 C 741 1561 732 1578 720 1592 C 708 1606 692 1618 673 1626 C 653 1634 630 1638 604 1638 C 576 1638 553 1634 534 1626 C 514 1618 498 1606 486 1592 C 474 1578 465 1561 459 1542 C 453 1522 451 1501 451 1479 C 451 1456 453 1435 459 1416 C 465 1396 474 1379 486 1365 C 498 1351 514 1339 534 1331 C 553 1323 576 1319 604 1319 Z" unicode="˚" />
<glyph horiz-adv-x="1208" d="M 618 -444 C 566 -444 524 -438 492 -428 C 460 -417 434 -402 416 -384 C 397 -366 384 -344 377 -320 C 370 -295 367 -268 367 -240 C 367 -210 373 -182 385 -156 C 397 -130 413 -106 432 -84 C 450 -62 471 -43 493 -26 C 515 -9 535 4 555 16 L 715 16 C 648 -22 596 -61 560 -103 C 524 -144 506 -183 506 -221 C 506 -234 507 -247 510 -260 C 513 -272 519 -283 529 -293 C 539 -303 552 -311 570 -317 C 587 -323 610 -326 639 -326 C 673 -326 706 -321 738 -313 C 770 -305 795 -296 815 -287 L 862 -393 C 833 -408 797 -420 753 -430 C 709 -439 664 -444 618 -444 Z" unicode="˛" />
<glyph horiz-adv-x="1208" d="M 211 1331 C 227 1351 246 1371 266 1390 C 286 1408 306 1424 328 1438 C 349 1452 371 1463 393 1471 C 415 1479 438 1483 461 1483 C 495 1483 525 1477 549 1467 C 573 1457 596 1445 617 1433 C 637 1421 657 1409 677 1399 C 697 1389 719 1384 745 1384 C 758 1384 771 1387 785 1393 C 799 1399 812 1407 826 1417 C 839 1427 852 1439 866 1453 C 879 1466 892 1480 905 1495 L 999 1419 C 981 1397 963 1377 944 1357 C 924 1337 904 1319 883 1304 C 861 1288 839 1276 817 1267 C 794 1257 771 1253 748 1253 C 717 1253 689 1258 665 1269 C 641 1279 618 1291 596 1303 C 574 1315 553 1327 532 1338 C 510 1348 487 1354 463 1354 C 438 1354 412 1345 384 1327 C 356 1309 331 1285 309 1255 L 211 1331 Z" unicode="˜" />
<glyph horiz-adv-x="1208" d="M 483 1567 L 668 1567 L 365 1249 L 225 1249 L 483 1567 Z M 948 1567 L 1130 1567 L 829 1249 L 690 1249 L 948 1567 Z" unicode="˝" />
<glyph horiz-adv-x="1436" d="M 276 1235 C 276 1287 281 1334 291 1378 C 301 1422 318 1459 344 1490 C 369 1521 403 1545 447 1563 C 490 1580 545 1589 612 1589 L 735 1589 L 735 1452 L 629 1452 C 589 1452 556 1446 530 1435 C 504 1424 484 1409 469 1390 C 454 1370 444 1347 438 1321 C 432 1295 430 1266 430 1235 L 430 0 L 276 0 L 276 1235 Z M 926 1235 C 926 1287 931 1334 941 1378 C 951 1422 968 1459 994 1490 C 1019 1521 1053 1545 1097 1563 C 1140 1580 1195 1589 1262 1589 L 1386 1589 L 1386 1452 L 1278 1452 C 1238 1452 1206 1446 1180 1435 C 1154 1424 1134 1409 1120 1390 C 1105 1370 1095 1347 1089 1321 C 1083 1295 1081 1266 1081 1235 L 1081 0 L 926 0 L 926 1235 Z M 63 1130 L 1386 1130 L 1386 989 L 63 989 L 63 1130 Z" unicode="ﬀ" />
<glyph horiz-adv-x="1247" d="M 276 1235 C 276 1287 281 1334 291 1378 C 301 1422 318 1459 344 1490 C 369 1521 403 1545 447 1563 C 490 1580 545 1589 612 1589 L 735 1589 L 735 1452 L 629 1452 C 589 1452 556 1446 530 1435 C 504 1424 484 1409 469 1390 C 454 1370 444 1347 438 1321 C 432 1295 430 1266 430 1235 L 430 0 L 276 0 L 276 1235 Z M 63 1130 L 735 1130 L 735 989 L 63 989 L 63 1130 Z M 926 1130 L 1081 1130 L 1081 0 L 926 0 L 926 1130 Z M 926 1501 L 1081 1501 L 1081 1280 L 926 1280 L 926 1501 Z" unicode="ﬁ" />
<glyph horiz-adv-x="1358" d="M 276 1249 C 276 1301 281 1348 291 1392 C 301 1436 318 1473 344 1505 C 369 1536 403 1560 447 1578 C 490 1595 545 1604 612 1604 L 735 1604 L 735 1466 L 629 1466 C 589 1466 556 1460 530 1449 C 504 1438 484 1423 469 1404 C 454 1384 444 1361 438 1335 C 432 1309 430 1280 430 1249 L 430 0 L 276 0 L 276 1249 Z M 63 1130 L 735 1130 L 735 989 L 63 989 L 63 1130 Z M 1161 -2 C 1115 -2 1076 3 1046 13 C 1016 23 992 40 974 62 C 956 84 944 112 937 146 C 929 180 926 222 926 270 L 926 1589 L 1081 1589 L 1081 287 C 1081 259 1082 235 1085 216 C 1087 197 1093 182 1102 170 C 1111 158 1124 150 1141 145 C 1158 139 1181 137 1210 137 L 1260 137 L 1260 2 C 1251 0 1238 0 1221 -1 C 1203 -1 1183 -2 1161 -2 Z" unicode="ﬂ" />
<glyph horiz-adv-x="1896" d="M 276 1235 C 276 1287 281 1334 291 1378 C 301 1422 318 1459 344 1490 C 369 1521 403 1545 447 1563 C 490 1580 545 1589 612 1589 L 735 1589 L 735 1452 L 629 1452 C 589 1452 556 1446 530 1435 C 504 1424 484 1409 469 1390 C 454 1370 444 1347 438 1321 C 432 1295 430 1266 430 1235 L 430 0 L 276 0 L 276 1235 Z M 926 1235 C 926 1287 931 1334 941 1378 C 951 1422 968 1459 994 1490 C 1019 1521 1053 1545 1097 1563 C 1140 1580 1195 1589 1262 1589 L 1386 1589 L 1386 1452 L 1278 1452 C 1238 1452 1206 1446 1180 1435 C 1154 1424 1134 1409 1120 1390 C 1105 1370 1095 1347 1089 1321 C 1083 1295 1081 1266 1081 1235 L 1081 0 L 926 0 L 926 1235 Z M 1577 1130 L 1731 1130 L 1731 0 L 1577 0 L 1577 1130 Z M 1575 1501 L 1733 1501 L 1733 1280 L 1575 1280 L 1575 1501 Z M 63 1130 L 1386 1130 L 1386 989 L 63 989 L 63 1130 Z" unicode="ﬃ" />
<glyph horiz-adv-x="1208" d="M 236 1374 L 973 1374 L 973 1241 L 236 1241 L 236 1374 Z" unicode="̄" />
<glyph horiz-adv-x="489" d="M 139 -428 C 159 -416 176 -406 190 -396 C 204 -386 215 -375 223 -363 C 231 -351 236 -338 239 -324 C 242 -310 244 -293 244 -274 L 152 -274 L 152 -80 L 338 -80 L 338 -229 C 338 -267 335 -299 331 -326 C 326 -353 318 -377 306 -397 C 294 -417 278 -436 258 -452 C 238 -468 212 -484 180 -500 L 139 -428 Z" unicode="̦" />
<glyph horiz-adv-x="1536" d="" unicode="Δ" />
<glyph horiz-adv-x="1664" d="" unicode="Ω" />
<glyph horiz-adv-x="1266" d="M 156 1130 L 311 1130 L 311 461 C 311 429 311 399 312 371 C 313 342 317 315 323 290 C 329 264 338 241 351 221 C 364 200 383 182 408 167 C 432 152 463 141 501 133 C 539 125 585 121 641 121 C 695 121 741 125 778 133 C 815 141 846 152 870 167 C 894 182 912 200 925 221 C 937 242 946 266 952 292 C 958 318 961 345 962 375 C 962 405 963 436 963 469 L 963 1130 L 1116 1130 L 1116 471 C 1116 419 1114 372 1111 328 C 1107 284 1100 243 1090 207 C 1079 171 1063 138 1043 110 C 1022 82 994 58 960 39 C 925 19 882 5 832 -5 C 781 -15 720 -20 649 -20 C 600 -20 557 -17 520 -12 C 483 -7 451 0 424 9 C 396 18 373 29 355 43 C 337 57 322 72 311 90 L 311 -338 L 156 -338 L 156 1130 Z" unicode="μ" />
<glyph horiz-adv-x="1408" d="" unicode="π" />
<glyph horiz-adv-x="1309" d="M 364 1820 L 508 1820 L 508 1611 L 364 1611 L 364 1820 Z M 797 1820 L 938 1820 L 938 1611 L 797 1611 L 797 1820 Z M 178 1518 L 1182 1518 L 1182 1364 L 340 1364 L 340 862 L 1161 862 L 1161 711 L 340 711 L 340 147 L 1190 147 L 1190 0 L 178 0 L 178 1518 Z" unicode="Ё" />
<glyph horiz-adv-x="1774" d="M 1270 -213 L 1284 -213 C 1316 -212 1341 -209 1361 -203 C 1381 -197 1396 -188 1407 -175 C 1417 -161 1424 -143 1428 -121 C 1432 -99 1434 -71 1434 -37 L 1434 664 C 1434 697 1433 729 1431 759 C 1429 789 1425 816 1419 842 C 1413 867 1403 890 1391 910 C 1378 930 1361 948 1339 962 C 1317 976 1289 986 1257 994 C 1224 1002 1185 1006 1139 1006 C 1065 1006 1005 997 959 979 C 913 961 877 936 851 904 C 825 872 808 835 799 791 C 790 747 786 700 786 649 L 786 0 L 625 0 L 625 1364 L 55 1364 L 55 1518 L 1356 1518 L 1356 1364 L 786 1364 L 786 1018 C 796 1036 811 1054 831 1071 C 850 1088 875 1103 907 1116 C 939 1128 977 1138 1022 1146 C 1067 1153 1121 1157 1184 1157 C 1244 1157 1296 1152 1340 1142 C 1384 1132 1421 1117 1451 1098 C 1481 1078 1506 1055 1525 1028 C 1543 1000 1558 969 1568 935 C 1578 900 1584 862 1588 821 C 1591 780 1593 736 1593 690 L 1593 -37 C 1593 -94 1588 -142 1580 -181 C 1572 -220 1557 -251 1535 -275 C 1513 -299 1482 -316 1444 -326 C 1406 -336 1357 -342 1298 -342 L 1270 -342 L 1270 -213 Z" unicode="Ђ" />
<glyph horiz-adv-x="1204" d="M 753 1927 L 943 1927 L 591 1607 L 443 1607 L 753 1927 Z M 178 1518 L 1147 1518 L 1147 1364 L 340 1364 L 340 0 L 178 0 L 178 1518 Z" unicode="Ѓ" />
<glyph horiz-adv-x="1477" d="M 836 -23 C 588 -23 402 43 277 175 C 152 307 90 502 90 760 C 90 892 107 1008 142 1106 C 177 1204 227 1285 292 1350 C 356 1414 435 1462 527 1494 C 619 1526 722 1542 836 1542 C 942 1542 1042 1526 1136 1494 C 1229 1462 1309 1415 1376 1352 L 1268 1237 C 1213 1286 1149 1324 1075 1350 C 1001 1376 924 1389 844 1389 C 749 1389 665 1375 591 1349 C 517 1323 454 1283 404 1231 C 353 1178 314 1112 288 1033 C 261 954 248 862 248 758 C 248 550 298 394 398 288 C 498 182 644 129 836 129 C 892 129 943 133 988 141 C 1033 149 1073 161 1109 175 C 1145 189 1176 206 1204 226 C 1232 245 1257 265 1280 287 L 1386 176 C 1359 150 1329 126 1295 102 C 1261 78 1222 56 1178 38 C 1134 19 1083 4 1027 -6 C 971 -17 907 -23 836 -23 Z M 168 854 L 1192 854 L 1192 702 L 168 702 L 168 854 Z" unicode="Є" />
<glyph horiz-adv-x="1440" d="M 713 -20 C 597 -20 488 -6 384 19 C 280 45 180 90 84 154 L 166 276 C 211 247 256 223 302 204 C 347 184 392 169 437 157 C 482 145 527 136 572 131 C 617 125 663 123 709 123 C 787 123 854 128 911 140 C 968 151 1015 169 1052 193 C 1089 217 1116 247 1134 285 C 1152 323 1161 368 1161 420 C 1161 474 1150 517 1128 550 C 1106 582 1076 609 1037 629 C 997 649 950 666 894 678 C 838 690 777 703 709 715 C 654 724 602 734 554 744 C 506 754 461 767 421 781 C 380 795 343 811 311 831 C 279 850 251 874 229 902 C 207 930 190 963 178 1001 C 166 1039 160 1083 160 1135 C 160 1207 171 1269 195 1321 C 218 1373 253 1415 299 1448 C 345 1480 402 1504 471 1519 C 539 1534 619 1542 709 1542 C 827 1542 930 1529 1016 1505 C 1102 1480 1176 1447 1237 1407 L 1151 1276 C 1123 1294 1093 1310 1060 1325 C 1026 1339 991 1352 953 1362 C 915 1372 876 1380 835 1386 C 793 1392 751 1395 709 1395 C 641 1395 582 1390 533 1380 C 483 1370 443 1355 411 1334 C 379 1313 356 1286 341 1254 C 326 1222 319 1183 319 1139 C 319 1091 328 1051 348 1021 C 367 990 395 965 432 945 C 468 925 513 909 566 897 C 619 884 680 872 748 860 C 830 845 907 829 977 813 C 1047 796 1107 773 1158 743 C 1208 713 1248 673 1276 623 C 1304 573 1319 507 1319 426 C 1319 275 1269 163 1171 90 C 1072 16 919 -20 713 -20 Z" unicode="Ѕ" />
<glyph horiz-adv-x="547" d="M 195 1518 L 352 1518 L 352 0 L 195 0 L 195 1518 Z" unicode="І" />
<glyph horiz-adv-x="547" d="M 195 1518 L 352 1518 L 352 0 L 195 0 L 195 1518 Z M -12 1820 L 132 1820 L 132 1611 L -12 1611 L -12 1820 Z M 421 1820 L 562 1820 L 562 1611 L 421 1611 L 421 1820 Z" unicode="Ї" />
<glyph horiz-adv-x="819" d="M 215 -2 C 197 -2 181 -2 168 -2 C 155 -2 143 -2 132 -2 C 121 -2 110 -1 99 -1 C 88 -1 75 0 61 0 L 61 147 L 199 147 C 253 147 298 152 335 164 C 372 175 402 192 426 216 C 449 239 466 269 476 305 C 486 341 492 384 492 434 L 492 1518 L 649 1518 L 649 428 C 649 350 639 283 621 229 C 603 175 575 130 539 96 C 503 62 458 37 404 21 C 350 5 287 -2 215 -2 Z" unicode="Ј" />
</font>
</defs>
</svg>
