<?xml version="1.0" encoding="UTF-8"?><svg xmlns="http://www.w3.org/2000/svg" width="100%" height="100%"><defs><font id="web" horiz-adv-x="1250"><!--



NOTICE: This font software is the valuable property 
of Webtype LLC, The Font Bureau, Webtype and/or its 
suppliers and its use by you is covered under the terms 
of the Web Font license agreement between you and Webtype 
LLC. You may ONLY use this font software with the licensed 
web site. Except as specifically permitted by the license, 
you may not copy this font software. If you have any 
questions, please contact Webtype.com. 

For more information, please visit http://www.webtype.com/store/license/?id=23

Licensed to: ford.com

Serial number: SH-178
--><font-face font-family="" units-per-em="2048" panose-1="2 0 5 3 0 0 0 2 0 4" ascent="2220" descent="-766" alphabetic="0"/><missing-glyph horiz-adv-x="1024" d="M0 1434H1024V0H0V1434ZM102 102H922V1331H102V102Z"/><glyph unicode=" " horiz-adv-x="471"/><glyph unicode="!" horiz-adv-x="758" d="M147 266H397L342 0H94L147 266ZM432 1518H651L397 434H219L432 1518Z"/><glyph unicode="&quot;" horiz-adv-x="1034" d="M356 1518H563L418 897H242L356 1518ZM797 1518H1006L858 897H682L797 1518Z"/><glyph unicode="#" horiz-adv-x="1509" d="M342 428H63L100 610H379L440 889H160L199 1073H477L571 1518H764L668 1073H963L1057 1518H1249L1155 1073H1448L1409 889H1118L1059 610H1348L1311 428H1022L930 0H737L829 428H537L442 0H250L342 428ZM877 600L942 901H621L555 600H877Z"/><glyph unicode="$" horiz-adv-x="1331" d="M-10 193L106 334Q190 263 283 224T464 176L581 720L491 752Q368 801 308 879T248 1071Q248 1278 375 1395T743 1520L772 1655H954L925 1509H931Q1146 1478 1253 1384L1137 1231Q1040 1306 880 1331L777 850Q928 800 996 755T1102 646T1139 487Q1139 259 997 131T604 0L565 -193H379L421 10Q156 42 -10 193ZM944 463Q944 543 892 592T739 671L631 168Q782 176 863 252T944 463ZM446 1092Q446 1024 488 979T620 902L714 1340Q580 1332 513 1269T446 1092Z"/><glyph unicode="%" horiz-adv-x="2265" d="M498 569Q320 569 225 660T129 924Q129 1100 190 1242T362 1463T612 1542Q789 1542 885 1449T981 1180Q981 1002 920 863T748 646T498 569ZM512 729Q641 729 721 853T801 1171Q801 1376 604 1376Q470 1376 391 1252T311 932Q311 729 512 729ZM1657 -23Q1474 -23 1380 68T1286 332Q1286 509 1347 650T1519 871T1769 950Q1948 950 2043 857T2138 588Q2138 412 2077 272T1905 55T1657 -23ZM1667 137Q1797 137 1876 262T1956 580Q1956 786 1759 786Q1628 786 1548 663T1468 340Q1468 137 1667 137ZM1622 1518H1810L666 0H477L1622 1518Z"/><glyph unicode="&amp;" horiz-adv-x="1647" d="M541 -20Q267 -20 135 67T2 334Q2 529 102 663T435 888Q416 984 416 1075Q416 1299 516 1420T801 1542Q958 1542 1042 1470T1126 1260Q1126 1147 1082 1058T942 900T671 768Q770 505 969 324Q1138 493 1288 887L1450 831Q1299 429 1111 227Q1171 199 1224 190T1360 180H1405L1368 0H1339Q1211 0 1123 20T951 93Q771 -20 541 -20ZM479 722L404 683Q203 569 203 354Q203 246 293 197T559 147Q619 147 674 158T810 205Q691 320 608 453T479 722ZM942 1239Q942 1366 795 1366Q608 1366 608 1087Q608 1011 625 927Q798 989 870 1064T942 1239Z"/><glyph unicode="'" horiz-adv-x="596" d="M356 1520H563L418 897H242L356 1520Z"/><glyph unicode="(" horiz-adv-x="1001" d="M420 -381Q300 -248 233 -52T166 354Q166 589 252 832T499 1289T844 1622L967 1505Q794 1380 655 1188T443 780T369 348Q369 165 428 -8T580 -289L420 -381Z"/><glyph unicode=")" horiz-adv-x="1001" d="M-23 -266Q152 -139 291 56T502 465T573 891Q573 1077 514 1251T365 1528L524 1622Q643 1487 710 1292T778 885Q778 647 691 403T441 -54T98 -381L-23 -266Z"/><glyph unicode="*" horiz-adv-x="1196" d="M473 559L569 924L213 793L162 950L530 1049L236 1294L344 1417L618 1149L678 1526L836 1491L737 1122L1098 1257L1147 1100L776 997L1075 756L967 635L690 899L629 524L473 559Z"/><glyph unicode="+" horiz-adv-x="1440" d="M594 627H182L223 817H633L721 1225H918L831 817H1241L1200 627H793L707 219H508L594 627Z"/><glyph unicode="," horiz-adv-x="518" d="M-66 -162Q14 -128 47 -97T96 0H-25L29 270H279L233 43Q204 -95 152 -156T-33 -266L-66 -162Z"/><glyph unicode="-" horiz-adv-x="911" d="M94 735H805L766 549H55L94 735Z"/><glyph unicode="." horiz-adv-x="518" d="M29 270H279L223 0H-25L29 270Z"/><glyph unicode="/" horiz-adv-x="1055" d="M1008 1518H1223L49 0H-164L1008 1518Z"/><glyph unicode="0" horiz-adv-x="1477" d="M641 -23Q375 -23 244 97T113 471Q113 657 169 889T315 1263T536 1473T846 1542Q1362 1542 1362 1034Q1362 854 1305 625T1160 256T944 47T641 -23ZM653 162Q817 162 920 265T1090 609T1157 1020Q1157 1190 1077 1271T831 1352Q705 1352 617 1298T468 1131T363 820T319 483Q319 315 400 239T653 162Z"/><glyph unicode="1" horiz-adv-x="786" d="M477 1327H195L236 1518H713L389 0H193L477 1327Z"/><glyph unicode="2" horiz-adv-x="1196" d="M950 1171Q950 1267 876 1312T653 1358Q561 1358 465 1339T295 1286L229 1454Q428 1542 676 1542Q914 1542 1033 1461T1153 1212Q1153 1120 1136 1050T1081 917T973 786T722 571T231 176H948L913 0H-86L-51 166L547 653Q755 820 811 874T896 971T937 1062T950 1171Z"/><glyph unicode="3" horiz-adv-x="1235" d="M512 -25Q328 -25 187 15T-88 147L37 299Q145 227 256 191T514 154Q862 154 862 512Q862 631 786 682T543 733H342L379 911H643Q814 911 887 975T961 1186Q961 1277 889 1319T662 1362Q570 1362 468 1340T291 1280L207 1440Q300 1489 426 1515T694 1542Q1167 1542 1167 1231Q1167 1057 1101 952T911 819Q1059 754 1059 516Q1059 248 921 112T512 -25Z"/><glyph unicode="4" horiz-adv-x="1343" d="M940 1518H1167L283 532H784L928 1014H1071L969 532H1227L1192 360H932L856 0H670L745 360H16L49 522L940 1518Z"/><glyph unicode="5" horiz-adv-x="1282" d="M547 -23Q205 -23 -18 147L100 299Q210 221 322 188T565 154Q757 154 852 258T948 559Q948 694 866 759T616 825Q479 825 330 756L172 807L362 1518H1247L1208 1337H510L401 946Q530 997 686 997Q933 997 1044 895T1155 584Q1155 282 1008 130T547 -23Z"/><glyph unicode="6" horiz-adv-x="1393" d="M641 -23Q90 -23 90 453Q90 611 160 863T341 1256T627 1457T1083 1518H1233L1196 1337H1075Q872 1337 734 1297T510 1169T371 909Q426 962 531 994T780 1026Q1009 1026 1126 928T1243 635Q1243 320 1086 149T641 -23ZM645 152Q838 152 940 263T1042 596Q1042 729 959 791T705 854Q496 854 394 748T291 438Q291 152 645 152Z"/><glyph unicode="7" horiz-adv-x="1081" d="M946 1337H166L203 1518H1208L1174 1360L297 0H76L946 1337Z"/><glyph unicode="8" horiz-adv-x="1407" d="M606 -29Q337 -29 192 68T47 352Q47 548 136 671T399 838Q256 901 256 1106Q256 1316 389 1429T791 1542Q1056 1542 1189 1460T1323 1206Q1323 1044 1256 944T1055 815Q1140 781 1181 706T1223 504Q1223 245 1061 108T606 -29ZM627 143Q819 143 919 234T1020 498Q1020 739 655 739Q456 739 355 648T254 379Q254 258 346 201T627 143ZM778 901Q957 901 1039 968T1122 1178Q1122 1372 793 1372Q612 1372 531 1304T449 1096Q449 997 530 949T778 901Z"/><glyph unicode="9" horiz-adv-x="1393" d="M195 176H315Q526 176 662 217T882 343T1026 608Q970 554 864 523T612 492Q383 492 265 591T147 883Q147 1194 305 1368T752 1542Q1300 1542 1300 1065Q1300 948 1274 827Q1202 491 1092 319T800 74T309 0H160L195 176ZM686 655Q895 655 998 761T1102 1071Q1102 1360 745 1360Q551 1360 451 1248T350 915Q350 782 433 719T686 655Z"/><glyph unicode=":" horiz-adv-x="559" d="M49 262H299L244 0H-4L49 262ZM236 1139H485L432 877H184L236 1139Z"/><glyph unicode=";" horiz-adv-x="559" d="M-47 -162Q39 -125 71 -93T115 0H-4L49 262H299L254 43Q232 -57 205 -109T135 -194T-12 -266L-47 -162ZM236 1139H485L432 877H184L236 1139Z"/><glyph unicode="&lt;" horiz-adv-x="1440" d="M195 635L223 782L1245 1243L1208 1047L418 700L1057 360L1018 170L195 635Z"/><glyph unicode="=" horiz-adv-x="1440" d="M184 586H1182L1143 399H147L184 586ZM283 1042H1276L1239 858H244L283 1042Z"/><glyph unicode="&gt;" horiz-adv-x="1440" d="M1001 715L362 1055L401 1245L1225 780L1198 633L174 172L213 367L1001 715Z"/><glyph unicode="?" horiz-adv-x="1356" d="M459 412Q487 588 522 670T620 803T805 899Q955 954 1001 985T1067 1060T1087 1174Q1087 1270 1004 1312T756 1354Q571 1354 367 1282L299 1456Q393 1495 527 1518T788 1542Q1045 1542 1170 1464T1296 1219Q1296 1038 1217 940T926 764Q813 720 769 686T700 596T653 412H459ZM397 242H649L598 0H348L397 242Z"/><glyph unicode="@" horiz-adv-x="2210" d="M1081 -338Q600 -338 366 -107T131 598Q131 1067 366 1305T1061 1544Q1526 1544 1761 1306T1997 598Q1997 396 1961 282T1844 116T1620 63Q1470 63 1392 99T1296 207Q1232 137 1143 107T903 76Q718 76 620 171T522 453Q522 764 654 951T1030 1139Q1180 1139 1271 1108T1405 1004L1473 1128L1597 1118L1442 393Q1434 351 1434 319Q1434 244 1483 210T1642 176Q1735 176 1784 214T1855 339T1876 598Q1876 1015 1674 1220T1061 1425Q252 1425 252 598Q252 183 458 -18T1079 -219Q1242 -219 1388 -186T1638 -102L1692 -207Q1428 -338 1081 -338ZM950 238Q1107 238 1189 319T1309 580Q1329 658 1329 741Q1329 860 1260 914T1047 969Q887 969 799 839T711 479Q711 353 770 296T950 238Z"/><glyph unicode="A" horiz-adv-x="1473" d="M795 1528H999L1260 0H1053L999 319H295L106 0H-117L795 1528ZM971 510L846 1262L401 510H971Z"/><glyph unicode="B" horiz-adv-x="1434" d="M334 1518H858Q1141 1518 1273 1445T1405 1206Q1405 1024 1331 916T1124 784Q1206 757 1248 683T1290 498Q1290 241 1156 121T711 0H10L334 1518ZM750 186Q920 186 1001 262T1083 494Q1083 592 1008 638T774 684H362L252 186H750ZM889 877Q1043 877 1114 945T1186 1155Q1186 1249 1105 1289T852 1329H500L401 877H889Z"/><glyph unicode="C" horiz-adv-x="1462" d="M721 -23Q398 -23 230 128T61 569Q61 835 159 1068T445 1422T915 1542Q1295 1542 1483 1323L1307 1182Q1168 1343 907 1343Q411 1343 295 805Q272 698 272 596Q272 389 391 281T739 172Q864 172 957 202T1133 299L1260 145Q1157 58 1028 18T721 -23Z"/><glyph unicode="D" horiz-adv-x="1532" d="M334 1518H694Q974 1518 1144 1463T1393 1292T1473 985Q1473 811 1416 592T1261 244T1013 58T596 0H10L334 1518ZM600 190Q804 190 917 234T1102 379T1218 659T1262 956Q1262 1153 1129 1237T692 1321H502L256 190H600Z"/><glyph unicode="E" horiz-adv-x="1300" d="M334 1518H1341L1300 1319H500L401 883H1182L1143 686H365L256 190H1065L1026 0H10L334 1518Z"/><glyph unicode="F" horiz-adv-x="1217" d="M334 1518H1305L1262 1319H500L399 862H1143L1104 666H360L217 0H10L334 1518Z"/><glyph unicode="G" horiz-adv-x="1573" d="M737 -23Q404 -23 233 126T61 567Q61 762 117 953T281 1277T544 1476T905 1542Q1103 1542 1257 1485T1499 1317L1323 1174Q1245 1265 1140 1304T893 1343Q693 1343 555 1252T344 980T270 594Q270 162 750 162Q881 162 966 189T1105 276T1195 442T1247 657H791L829 846H1497L1456 639Q1402 373 1324 237T1111 39T737 -23Z"/><glyph unicode="H" horiz-adv-x="1579" d="M334 1518H541L406 891H1229L1364 1518H1571L1247 0H1040L1186 686H365L217 0H10L334 1518Z"/><glyph unicode="I" horiz-adv-x="582" d="M350 1518H559L236 0H27L350 1518Z"/><glyph unicode="J" horiz-adv-x="807" d="M-63 190H72Q206 190 273 246T371 436L602 1518H809L571 406Q527 196 416 97T94 -2H-40L-102 0L-63 190Z"/><glyph unicode="K" horiz-adv-x="1432" d="M334 1518H539L376 755L1192 1518H1450L819 927L1200 0H983L657 783L315 469L215 0H10L334 1518Z"/><glyph unicode="L" horiz-adv-x="1178" d="M334 1518H541L256 190H1008L969 0H10L334 1518Z"/><glyph unicode="M" horiz-adv-x="1866" d="M334 1518H602L831 319L1575 1518H1858L1534 0H1331L1589 1200L840 0H686L455 1192L197 0H10L334 1518Z"/><glyph unicode="N" horiz-adv-x="1577" d="M334 1518H559L1118 348L1372 1518H1569L1245 0H1057L469 1217L207 0H10L334 1518Z"/><glyph unicode="O" horiz-adv-x="1688" d="M764 -25Q423 -25 243 133T63 588V613Q63 705 90 840Q165 1192 371 1367T926 1542Q1266 1542 1446 1385T1626 934Q1626 759 1565 561T1393 231T1124 38T764 -25ZM766 168Q923 168 1042 218T1242 368T1368 620T1413 905Q1413 1122 1286 1232T915 1343Q408 1343 297 811Q274 709 274 606Q274 390 400 279T766 168Z"/><glyph unicode="P" horiz-adv-x="1434" d="M334 1518H899Q1432 1518 1432 1151Q1432 862 1283 706T860 549H330L213 0H10L334 1518ZM854 739Q1027 739 1122 830T1217 1114Q1217 1221 1137 1273T874 1325H498L369 739H854Z"/><glyph unicode="Q" horiz-adv-x="1688" d="M764 -14H739Q723 -70 723 -104Q723 -160 764 -181T909 -203H1044L1008 -381L940 -383H877Q680 -383 595 -330T509 -160Q510 -90 535 6Q376 39 272 115T116 311T63 613Q63 705 90 840Q162 1187 368 1364T926 1542Q1266 1542 1446 1385T1626 934Q1626 761 1566 565T1398 240T1132 49T764 -14ZM766 168Q923 168 1042 218T1242 368T1368 620T1413 905Q1413 1122 1286 1232T915 1343Q408 1343 297 811Q274 709 274 606Q274 390 400 279T766 168Z"/><glyph unicode="R" horiz-adv-x="1458" d="M334 1518H872Q1142 1518 1282 1427T1423 1153Q1423 897 1299 752T942 587L1155 0H944L730 584H338L213 0H10L334 1518ZM860 774Q1208 774 1208 1112Q1208 1221 1123 1273T856 1325H498L377 774H860Z"/><glyph unicode="S" horiz-adv-x="1419" d="M631 -20Q424 -20 256 29T-57 186L74 340Q187 254 324 208T641 162Q1032 162 1032 422Q1032 485 1007 524T935 591T819 639T662 688Q449 751 370 799T250 916T209 1090Q209 1312 352 1427T766 1542Q1138 1542 1356 1374L1221 1214Q1041 1352 758 1352Q422 1352 422 1106Q422 1048 451 1009T538 940T752 868Q982 805 1069 756T1199 638T1243 463Q1243 227 1089 104T631 -20Z"/><glyph unicode="T" horiz-adv-x="1378" d="M709 1319H170L211 1518H1493L1452 1319H915L633 0H426L709 1319Z"/><glyph unicode="U" horiz-adv-x="1575" d="M694 -27Q401 -27 252 79T102 408Q102 495 127 604L324 1518H530L336 610Q313 495 313 444Q313 300 411 234T715 168Q910 168 1016 256T1167 557L1374 1518H1575L1358 516Q1314 314 1230 198T1012 27T694 -27Z"/><glyph unicode="V" horiz-adv-x="1473" d="M215 1518H424L627 266L1360 1518H1587L676 -10H473L215 1518Z"/><glyph unicode="W" horiz-adv-x="2177" d="M227 1518H438L539 360L1153 1518H1350L1470 360L2062 1518H2275L1491 -10H1309L1182 1192L545 -10H362L227 1518Z"/><glyph unicode="X" horiz-adv-x="1450" d="M291 1518H506L768 950L1257 1518H1493L846 783L1208 0H993L697 639L143 0H-92L620 806L291 1518Z"/><glyph unicode="Y" horiz-adv-x="1425" d="M569 584L188 1518H403L711 782L1325 1518H1554L774 578L651 0H444L569 584Z"/><glyph unicode="Z" horiz-adv-x="1335" d="M1075 1319H242L283 1518H1384L1350 1337L238 190H1122L1083 0H-76L-41 164L1075 1319Z"/><glyph unicode="[" horiz-adv-x="975" d="M424 1589H954L920 1407H588L250 -162H588L551 -338H14L424 1589Z"/><glyph unicode="\" horiz-adv-x="1055" d="M170 1518H360L887 0H696L170 1518Z"/><glyph unicode="]" horiz-adv-x="975" d="M-2 -162H332L670 1407H336L373 1589H907L498 -338H-37L-2 -162Z"/><glyph unicode="^" horiz-adv-x="1208" d="M674 1795H889L1118 1459H930L758 1666L496 1459H301L674 1795Z"/><glyph unicode="_" horiz-adv-x="928" d="M-258 -109H821L788 -270H-291L-258 -109Z"/><glyph unicode="`" horiz-adv-x="1208" d="M414 1591H645L879 1255H702L414 1591Z"/><glyph unicode="a" horiz-adv-x="1251" d="M375 -20Q175 -20 79 51T-18 285Q-18 451 54 550T278 695T709 741H857Q868 798 868 846Q868 920 809 949T606 979Q540 979 450 959T299 907L219 1069Q293 1113 409 1139T641 1165Q864 1165 964 1104T1064 893Q1064 819 1034 676L954 303Q942 244 942 225Q942 197 959 187T1027 176H1040L1006 2Q993 -2 920 -2Q841 -2 808 26T770 115Q653 -20 375 -20ZM182 305Q182 224 241 188T426 152Q596 152 681 232T807 502L821 571H682Q455 571 361 547T224 465T182 305Z"/><glyph unicode="b" horiz-adv-x="1303" d="M627 -18Q266 -18 207 139L135 -8L-10 6L328 1589H524L406 1051Q467 1112 554 1138T776 1165Q1200 1165 1200 754Q1200 634 1156 460T1044 184T874 32T627 -18ZM600 162Q752 162 836 245T969 535Q991 655 991 715Q991 850 921 912T709 975Q549 975 467 910T337 691T289 418Q289 284 363 223T600 162Z"/><glyph unicode="c" horiz-adv-x="1124" d="M506 -20Q31 -20 31 403Q31 614 103 801T310 1076T655 1165Q802 1165 908 1123T1087 981L920 848Q866 919 799 946T641 973Q538 973 465 939T343 832T264 643T233 422Q233 288 304 223T520 158Q608 158 671 179T799 248L911 115Q824 45 727 13T506 -20Z"/><glyph unicode="d" horiz-adv-x="1303" d="M451 -18Q240 -18 134 82T27 391Q27 524 74 700T188 972T356 1117T600 1165Q779 1165 876 1128T1006 1008L1133 1589H1333L995 8L840 -6L854 102Q794 38 699 10T451 -18ZM518 162Q679 162 762 228T890 447T936 719Q936 855 862 916T625 977Q492 977 411 912T283 696T236 420Q236 288 304 225T518 162Z"/><glyph unicode="e" horiz-adv-x="1188" d="M502 -23Q27 -23 27 397Q27 537 69 698T188 961T378 1113T647 1165Q862 1165 971 1084T1081 827Q1081 699 1036 494H221L217 416Q217 283 292 219T524 154Q732 154 868 240L950 88Q849 22 739 0T502 -23ZM877 670Q893 740 893 797Q893 897 829 941T627 985Q484 985 396 912T258 670H877Z"/><glyph unicode="f" horiz-adv-x="807" d="M141 1139H356L381 1253Q420 1439 517 1514T805 1589H934L899 1415H809Q708 1415 653 1375T575 1231L555 1139H838L801 958H517L242 -338H41L318 958H102L141 1139Z"/><glyph unicode="g" horiz-adv-x="1221" d="M571 416Q415 416 331 446Q299 409 299 360Q299 317 328 302T420 287Q660 284 777 257T949 170T1004 8Q1004 -128 946 -209T763 -329T418 -367H401Q121 -367 -7 -300T-135 -86Q-135 40 -61 118T164 223Q119 264 119 350Q119 393 136 434T195 519Q113 592 113 729Q113 950 234 1057T614 1165Q680 1165 738 1160L1184 1225L1155 1051H972Q1013 1017 1038 959T1063 825Q1063 615 939 516T571 416ZM450 -209Q643 -209 719 -166T795 -16Q795 62 709 92T379 123Q219 123 149 82T78 -59Q78 -209 430 -209H450ZM573 582Q717 582 790 640T864 823Q864 909 800 947T602 985Q459 985 385 927T311 737Q311 655 373 619T573 582Z"/><glyph unicode="h" horiz-adv-x="1253" d="M324 1589H522L408 1053Q531 1165 739 1165Q936 1165 1028 1099T1120 879Q1120 808 1090 657L948 0H750L887 635Q912 754 912 801Q912 890 851 929T664 969Q525 969 443 897T324 649L186 0H-14L324 1589Z"/><glyph unicode="i" horiz-adv-x="516" d="M240 1139H438L197 0H-2L240 1139ZM319 1518H520L469 1276H268L319 1518Z"/><glyph unicode="j" horiz-adv-x="516" d="M-195 -180H-178Q-121 -180 -91 -168T-44 -128T-6 -12L240 1139H438L190 -35Q160 -170 124 -231T26 -318T-154 -344H-229L-195 -180ZM319 1518H520L469 1276H268L319 1518Z"/><glyph unicode="k" horiz-adv-x="1102" d="M328 1589H524L310 583L887 1139H1110L626 668L911 0H702L475 521L250 302L186 0H-10L328 1589Z"/><glyph unicode="l" horiz-adv-x="625" d="M266 -2Q150 -2 100 41T49 180Q49 241 66 326L336 1589H535L264 317Q253 267 253 241Q253 204 277 190T358 176H403L369 2Q341 -2 266 -2Z"/><glyph unicode="m" horiz-adv-x="1985" d="M385 1139L375 1044Q442 1108 529 1136T731 1165Q889 1165 968 1134T1075 1026Q1134 1094 1241 1129T1479 1165Q1670 1165 1760 1102T1850 894Q1850 813 1817 657L1677 0H1477L1614 635Q1640 751 1641 803Q1641 894 1583 931T1401 969Q1305 969 1242 937T1138 841T1069 649L932 0H733L868 635Q894 751 895 803Q895 894 837 931T655 969Q559 969 495 936T391 838T324 649L186 0H-14L225 1128L385 1139Z"/><glyph unicode="n" horiz-adv-x="1253" d="M385 1139L375 1044Q501 1165 739 1165Q936 1165 1028 1099T1120 879Q1120 808 1090 657L948 0H750L885 635Q910 748 910 803Q910 891 851 930T664 969Q525 969 443 897T324 649L186 0H-14L225 1128L385 1139Z"/><glyph unicode="o" horiz-adv-x="1268" d="M526 -23Q31 -23 31 416Q31 564 75 715T198 968T390 1117T662 1165Q1161 1165 1161 729Q1161 590 1117 434T995 176T801 26T526 -23ZM537 158Q680 158 768 222T905 425T954 700Q954 975 651 975Q507 975 419 910T282 703T233 426Q233 158 537 158Z"/><glyph unicode="p" horiz-adv-x="1303" d="M385 1139L375 1040Q434 1104 530 1134T776 1165Q1200 1165 1200 754Q1200 634 1156 460T1044 184T874 32T627 -18Q445 -18 347 18T217 137L115 -338H-82L227 1128L385 1139ZM600 162Q752 162 836 245T969 535Q991 655 991 715Q991 850 921 912T709 975Q549 975 467 910T337 691T289 418Q289 284 363 223T600 162Z"/><glyph unicode="q" horiz-adv-x="1303" d="M811 84Q751 30 669 6T451 -18Q240 -18 134 82T27 391Q27 524 74 700T188 972T356 1117T600 1165Q781 1165 882 1128T1020 1008L1096 1153L1235 1141L922 -338H723L811 84ZM518 162Q679 162 762 228T890 447T936 719Q936 855 862 916T625 977Q492 977 411 912T283 696T236 420Q236 288 304 225T518 162Z"/><glyph unicode="r" horiz-adv-x="721" d="M387 1139L371 1016Q475 1153 756 1153L715 956Q599 956 520 920T393 814T317 614L186 0H-10L227 1128L387 1139Z"/><glyph unicode="s" horiz-adv-x="1057" d="M442 -20Q284 -20 153 25T-72 150L57 291Q138 228 243 191T461 154Q591 154 645 198T700 334Q700 373 677 401T609 450T455 502Q303 546 244 582T151 670T117 801Q117 979 230 1072T561 1165Q837 1165 1010 1038L883 883Q801 937 718 959T547 981Q322 981 322 825Q322 773 371 737T561 662Q714 616 774 578T867 487T901 354Q901 167 788 74T442 -20Z"/><glyph unicode="t" horiz-adv-x="834" d="M141 1139H350L455 1462L614 1493L539 1139H815L780 958H500L369 338Q357 288 357 261Q357 217 391 197T500 176H610L575 0L507 -2H434Q289 -2 221 46T153 198Q153 261 168 340L304 958H102L141 1139Z"/><glyph unicode="u" horiz-adv-x="1239" d="M522 -23Q284 -23 173 54T61 307Q61 392 90 532L219 1139H420L289 514Q263 397 263 346Q263 247 329 205T539 162Q632 162 687 187T776 268T840 467L983 1139H1178L1032 455Q985 237 929 147T777 17T522 -23Z"/><glyph unicode="v" horiz-adv-x="1110" d="M98 1139H303L438 240L954 1139H1171L496 -10H289L98 1139Z"/><glyph unicode="w" horiz-adv-x="1778" d="M109 1139H313L412 303L864 1139H1069L1171 303L1620 1139H1829L1206 -10H1014L907 858L438 -10H246L109 1139Z"/><glyph unicode="x" horiz-adv-x="1098" d="M156 1139H362L547 742L891 1139H1112L621 585L895 0H688L478 449L88 0H-135L405 604L156 1139Z"/><glyph unicode="y" horiz-adv-x="1073" d="M98 1139H305L432 272L924 1139H1139L403 -113Q326 -249 254 -296T53 -344H-19L-76 -342L-43 -180H45Q117 -180 150 -162T223 -70L278 23L98 1139Z"/><glyph unicode="z" horiz-adv-x="1008" d="M711 958H141L176 1139H1010L981 989L199 170H827L793 0H-100L-70 145L711 958Z"/><glyph unicode="{" horiz-adv-x="1051" d="M465 -338Q293 -338 211 -291T129 -143Q129 -49 244 184Q313 325 335 380T358 463Q358 507 311 523T115 539L150 711Q295 711 346 726T417 778T438 893Q438 949 431 1049Q424 1148 424 1217Q424 1405 519 1497T813 1589H1036L1001 1407H860Q729 1407 675 1359T621 1188Q621 1135 628 1042Q635 949 635 881Q635 767 598 709T475 625Q526 606 545 576T565 500Q565 464 538 394T455 213Q397 96 371 29T344 -74Q344 -120 383 -141T512 -162H664L627 -338H465Z"/><glyph unicode="|" horiz-adv-x="692" d="M244 1589H444V-338H244V1589Z"/><glyph unicode="}" horiz-adv-x="1051" d="M-4 -162H135Q264 -162 320 -111T377 63L375 132Q362 319 362 371Q362 483 400 543T520 627Q471 645 452 676T432 752Q432 786 456 850T543 1037Q600 1153 626 1219T653 1321Q653 1367 614 1387T483 1407H334L371 1589H532Q709 1589 789 1542T870 1395Q870 1300 755 1068Q681 918 660 868T639 791Q639 745 687 729T883 713L848 541Q707 541 654 526T579 473T557 358Q557 316 565 203Q573 89 573 35Q573 -153 478 -245T184 -338H-39L-4 -162Z"/><glyph unicode="~" horiz-adv-x="1208" d="M893 839Q840 839 799 855T723 890T654 926T582 943Q549 943 512 923T422 847L319 949Q451 1107 590 1107Q643 1107 684 1091T760 1056T828 1020T899 1004Q939 1004 975 1031T1055 1107L1159 1004Q1090 924 1026 882T893 839Z"/><glyph unicode=" " horiz-adv-x="471"/><glyph unicode="¡" horiz-adv-x="758" d="M360 1083H539L328 0H109L360 1083ZM418 1518H666L612 1251H362L418 1518Z"/><glyph unicode="¢" horiz-adv-x="1118" d="M368 -1Q268 15 188 70T70 213T31 420Q31 748 186 946T617 1162L643 1286H834L805 1150Q889 1136 963 1094T1087 983L930 852Q871 935 754 965H752L577 155Q706 164 809 244L911 113Q844 58 759 25T554 -16L520 -193H328L368 -1ZM416 170L589 973Q428 953 332 809T236 438Q236 335 278 269T416 170Z"/><glyph unicode="£" horiz-adv-x="1243" d="M98 870H292L291 952Q291 1246 413 1395T772 1544Q1022 1544 1212 1438L1102 1272Q1036 1310 947 1333T764 1356Q623 1356 554 1255T485 932V870H899L866 700H491L492 622Q492 472 475 385T429 232Q564 162 713 162Q761 162 794 168T848 194T883 247T922 416H1098L1081 338Q1055 197 1014 123T904 17T717 -16Q489 -16 320 88Q203 -1 -28 -1L-68 0L-39 172Q158 172 228 237T303 502V549L299 700H63L98 870Z"/><glyph unicode="¤" horiz-adv-x="1152" d="M1056 392L940 284L740 500Q668 452 572 452Q480 452 408 500L208 284L92 392L300 608Q272 648 262 686T252 780Q252 883 300 952L92 1168L208 1276L408 1060Q480 1108 572 1108Q668 1108 740 1060L944 1276L1060 1156L852 952Q880 912 890 872T900 780Q900 684 848 608L1056 392ZM748 780Q748 860 698 910T572 960Q496 960 448 910T400 780Q400 700 450 652T572 604Q652 604 700 652T748 780Z"/><glyph unicode="¥" horiz-adv-x="1270" d="M49 344H446L479 502H86L115 664H514L190 1518H399L647 838L1188 1518H1403L715 664H1110L1079 502H677L644 344H1042L1012 182H609L571 0H373L411 182H18L49 344Z"/><glyph unicode="¦" horiz-adv-x="692" d="M244 465H444V-338H244V465ZM244 1589H444V786H244V1589Z"/><glyph unicode="§" horiz-adv-x="1147" d="M954 1532L1116 1528L1081 1356H973Q900 1356 856 1339T787 1286T741 1161L720 1061Q1042 1017 1042 788Q1042 624 940 540T615 453L592 350Q565 211 517 136T386 22T182 -16L23 -12L53 154H164Q237 154 281 171T350 222T395 354L418 464L374 472Q109 527 109 729Q109 843 156 916T290 1028T523 1070L545 1167Q575 1312 623 1385T752 1495T954 1532ZM600 584Q749 584 811 630T874 774Q874 926 555 926Q443 926 388 907T305 847T276 737Q276 584 600 584Z"/><glyph unicode="¨" horiz-adv-x="1208" d="M459 1485H641L594 1255H412L459 1485ZM874 1485H1057L1010 1255H827L874 1485Z"/><glyph unicode="©" horiz-adv-x="1692" d="M866 250Q618 250 492 381T365 768Q365 1019 496 1151T872 1284Q1100 1284 1235 1155L1141 1055Q1090 1101 1021 1127T872 1153Q697 1153 602 1056T506 768Q506 578 598 480T872 381Q1046 381 1151 481L1241 389Q1107 250 866 250ZM854 -25Q616 -25 444 70T182 343T92 760Q92 999 182 1176T443 1449T854 1544Q1091 1544 1262 1449T1524 1177T1614 760Q1614 520 1524 343T1263 70T854 -25ZM854 63Q1175 63 1349 245T1524 760Q1524 1092 1350 1274T854 1456Q533 1456 359 1276T184 760Q184 422 359 243T854 63Z"/><glyph unicode="ª" horiz-adv-x="1180" d="M451 578Q141 578 141 813Q141 951 198 1032T375 1152T731 1190H851Q862 1242 862 1282Q862 1343 813 1366T651 1389Q591 1389 518 1371T399 1329L336 1460Q396 1497 491 1519T678 1542Q862 1542 944 1492T1027 1328Q1027 1255 1004 1145L936 842Q928 805 928 785Q928 760 943 751T1008 741L977 596L952 594H911Q828 594 801 633Q780 658 780 705Q674 578 451 578ZM307 840Q309 777 355 750T500 723Q629 723 702 792T809 1004L821 1057H709Q528 1057 452 1038T342 972T307 840ZM147 438H846L815 287H117L147 438Z"/><glyph unicode="«" horiz-adv-x="1436" d="M160 567L588 1139H764L348 567L522 0H346L160 567ZM659 567L1090 1139H1268L850 567L1024 0H850L659 567Z"/><glyph unicode="¬" horiz-adv-x="1536" d="M1116 352V728H212V920H1296V352H1116Z"/><glyph unicode="­" horiz-adv-x="911" d="M94 735H805L766 549H55L94 735Z"/><glyph unicode="®" horiz-adv-x="1692" d="M850 -25Q612 -25 441 70T181 342T92 760Q92 1000 181 1177T441 1449T850 1544Q1088 1544 1260 1449T1522 1176T1612 760Q1612 520 1522 343T1261 70T850 -25ZM850 63Q1173 63 1347 244T1522 760Q1522 1092 1348 1274T850 1456Q529 1456 355 1275T180 760Q180 425 354 244T850 63ZM485 1249H922Q1105 1249 1184 1180T1264 954Q1264 820 1206 750T1029 660L1262 262H1120L895 653H614V262H485V1249ZM922 770Q1039 770 1086 812T1133 950Q1133 1047 1085 1087T918 1128H614V770H922Z"/><glyph unicode="¯" horiz-adv-x="1208" d="M373 1425H1116L1083 1255H338L373 1425Z"/><glyph unicode="°" horiz-adv-x="1141" d="M573 563Q381 563 276 662T170 942Q170 1115 235 1252T421 1466T700 1542Q891 1542 995 1441T1100 1157Q1100 985 1035 850T849 639T573 563ZM588 721Q747 721 839 834T932 1139Q932 1255 868 1315T678 1376Q521 1376 430 1258T338 952Q338 837 402 779T588 721Z"/><glyph unicode="±" horiz-adv-x="1440" d="M594 627H182L223 817H633L721 1225H918L831 817H1241L1200 627H793L707 219H508L594 627ZM94 215H1112L1075 29H55L94 215Z"/><glyph unicode="²" horiz-adv-x="963" d="M750 1292Q750 1386 580 1386Q454 1386 354 1343L305 1475Q438 1530 592 1530Q761 1530 837 1477T913 1319Q913 1237 896 1186T834 1083T635 909L379 702H788L764 567H115L139 688L506 983Q655 1105 688 1140T736 1208T750 1292Z"/><glyph unicode="³" horiz-adv-x="963" d="M492 553Q377 553 283 580T104 666L193 782Q276 729 343 709T489 688Q686 688 686 891Q686 960 640 987T502 1014H365L395 1151H567Q666 1151 705 1185T745 1298Q745 1346 706 1370T578 1395Q516 1395 453 1380T342 1341L285 1464Q402 1532 604 1532Q913 1532 913 1333Q913 1229 874 1168T745 1079Q848 1037 848 893Q848 726 758 640T492 553Z"/><glyph unicode="´" horiz-adv-x="1208" d="M909 1591H1159L727 1255H535L909 1591Z"/><glyph unicode="µ" horiz-adv-x="1247" d="M229 1139H430L297 514Q271 397 271 346Q271 245 338 204T549 162Q637 162 689 183T771 244T817 340T848 467L991 1139H1186L1040 455Q997 248 940 155T787 19T532 -23Q276 -23 209 98L115 -338H-82L229 1139Z"/><glyph unicode="¶" horiz-adv-x="1278" d="M862 565H658L537 0H348L471 582Q303 617 225 702T147 934Q147 1224 289 1371T727 1518H1255L932 0H743L862 565ZM899 733L1028 1333H707Q352 1333 352 956Q352 846 431 790T690 733H899Z"/><glyph unicode="·" horiz-adv-x="518" d="M150 836H399L342 561H94L150 836Z"/><glyph unicode="¸" horiz-adv-x="1208" d="M408 -475Q231 -475 119 -395L195 -289Q232 -315 280 -335T403 -356Q549 -356 549 -246Q549 -169 413 -169L375 -170L334 -135L393 14H516L473 -90Q582 -90 635 -129T688 -242Q688 -475 408 -475Z"/><glyph unicode="¹" horiz-adv-x="707" d="M440 1372H262L293 1518H637L436 567H270L440 1372Z"/><glyph unicode="º" horiz-adv-x="1182" d="M610 582Q408 582 305 674T201 944Q203 1218 336 1380T694 1542Q901 1542 1004 1450T1108 1180Q1108 904 975 743T610 582ZM608 735Q760 735 848 846T936 1157Q936 1382 696 1382Q548 1382 461 1265T373 956Q373 735 608 735ZM145 438H899L868 283H115L145 438Z"/><glyph unicode="»" horiz-adv-x="1436" d="M510 571L336 1139H510L698 569L268 0H92L510 571ZM1010 571L836 1139H1012L1200 569L772 0H592L1010 571Z"/><glyph unicode="¼" horiz-adv-x="1870" d="M1475 950H1651L1102 336H1387L1475 606H1597L1539 336H1696L1667 205H1511L1468 0H1317L1359 205H899L924 330L1475 950ZM1380 1518H1559L391 0H211L1380 1518ZM416 1372H238L266 1518H612L410 567H246L416 1372Z"/><glyph unicode="½" horiz-adv-x="2009" d="M416 1372H238L266 1518H612L410 567H246L416 1372ZM1380 1518H1559L391 0H211L1380 1518ZM1677 723Q1677 771 1637 795T1507 819Q1386 819 1282 776L1233 905Q1368 965 1520 965Q1841 965 1841 752Q1841 668 1821 612T1752 503T1567 342L1313 135H1718L1692 0H1044L1067 121L1436 416Q1579 532 1615 570T1664 641T1677 723Z"/><glyph unicode="¾" horiz-adv-x="2093" d="M469 561Q237 561 78 670L166 788Q232 744 302 719T465 694Q557 694 610 743T664 897Q664 966 619 995T477 1024H342L371 1155H541Q642 1155 682 1189T723 1305Q723 1354 684 1376T553 1399Q488 1399 424 1386T317 1350L260 1473Q381 1538 580 1538Q734 1538 811 1487T889 1339Q889 1236 851 1176T723 1087Q821 1043 821 899Q821 731 731 646T469 561ZM1700 950H1876L1327 336H1613L1698 606H1821L1764 336H1919L1890 205H1737L1694 0H1542L1584 205H1122L1149 330L1700 950ZM1606 1518H1784L612 0H436L1606 1518Z"/><glyph unicode="¿" horiz-adv-x="1356" d="M569 -20Q310 -20 185 58T59 305Q59 427 93 506T202 643T430 760Q537 800 583 835T656 926T705 1110H897Q869 933 834 852T736 719T551 625Q402 570 355 539T288 465T268 350Q268 255 349 212T602 168Q790 168 989 242L1057 66Q963 27 832 4T569 -20ZM758 1522H1008L958 1280H709L758 1522Z"/><glyph unicode="À" horiz-adv-x="1473" d="M795 1528H999L1260 0H1053L999 319H295L106 0H-117L795 1528ZM971 510L846 1262L401 510H971ZM615 1939H846L1080 1603H903L615 1939Z"/><glyph unicode="Á" horiz-adv-x="1473" d="M795 1528H999L1260 0H1053L999 319H295L106 0H-117L795 1528ZM971 510L846 1262L401 510H971ZM1110 1939H1360L928 1603H736L1110 1939Z"/><glyph unicode="Â" horiz-adv-x="1473" d="M795 1528H999L1260 0H1053L999 319H295L106 0H-117L795 1528ZM971 510L846 1262L401 510H971ZM875 1939H1090L1319 1603H1131L959 1810L697 1603H502L875 1939Z"/><glyph unicode="Ã" horiz-adv-x="1473" d="M795 1528H999L1260 0H1053L999 319H295L106 0H-117L795 1528ZM971 510L846 1262L401 510H971ZM1094 1608Q1041 1608 1000 1624T924 1659T855 1695T783 1712Q750 1712 713 1692T623 1616L520 1718Q652 1876 791 1876Q844 1876 885 1860T961 1825T1029 1789T1100 1773Q1140 1773 1176 1800T1256 1876L1360 1773Q1291 1693 1227 1651T1094 1608Z"/><glyph unicode="Ä" horiz-adv-x="1473" d="M795 1528H999L1260 0H1053L999 319H295L106 0H-117L795 1528ZM971 510L846 1262L401 510H971ZM660 1833H842L795 1603H613L660 1833ZM1075 1833H1258L1211 1603H1028L1075 1833Z"/><glyph unicode="Å" horiz-adv-x="1473" d="M745 1446Q645 1502 645 1630Q645 1771 725 1860T936 1950Q1048 1950 1112 1890T1176 1726Q1176 1618 1131 1547T1014 1442L1260 0H1053L999 319H295L106 0H-117L745 1446ZM971 510L846 1262L401 510H971ZM893 1530Q968 1530 1015 1578T1063 1714Q1063 1773 1029 1805T932 1837Q856 1837 807 1784T758 1645Q758 1595 790 1563T893 1530Z"/><glyph unicode="Æ" horiz-adv-x="2193" d="M1118 1518H2232L2191 1319H1401L1305 879H2075L2036 688H1266L1157 190H1956L1917 0H920L989 319H356L92 0H-141L1118 1518ZM1026 498L1202 1333L502 498H1026Z"/><glyph unicode="Ç" horiz-adv-x="1462" d="M528 -475Q351 -475 239 -395L315 -289Q352 -315 400 -335T523 -356Q669 -356 669 -246Q669 -169 533 -169L495 -170L454 -135L513 14H636L593 -90Q702 -90 755 -129T808 -242Q808 -475 528 -475ZM721 -23Q398 -23 230 128T61 569Q61 835 159 1068T445 1422T915 1542Q1295 1542 1483 1323L1307 1182Q1168 1343 907 1343Q411 1343 295 805Q272 698 272 596Q272 389 391 281T739 172Q864 172 957 202T1133 299L1260 145Q1157 58 1028 18T721 -23Z"/><glyph unicode="È" horiz-adv-x="1300" d="M334 1518H1341L1300 1319H500L401 883H1182L1143 686H365L256 190H1065L1026 0H10L334 1518ZM533 1939H764L998 1603H821L533 1939Z"/><glyph unicode="É" horiz-adv-x="1300" d="M1028 1939H1278L846 1603H654L1028 1939ZM334 1518H1341L1300 1319H500L401 883H1182L1143 686H365L256 190H1065L1026 0H10L334 1518Z"/><glyph unicode="Ê" horiz-adv-x="1300" d="M793 1939H1008L1237 1603H1049L877 1810L615 1603H420L793 1939ZM334 1518H1341L1300 1319H500L401 883H1182L1143 686H365L256 190H1065L1026 0H10L334 1518Z"/><glyph unicode="Ë" horiz-adv-x="1300" d="M578 1833H760L713 1603H531L578 1833ZM993 1833H1176L1129 1603H946L993 1833ZM334 1518H1341L1300 1319H500L401 883H1182L1143 686H365L256 190H1065L1026 0H10L334 1518Z"/><glyph unicode="Ì" horiz-adv-x="582" d="M174 1944H406L553 1606H383L174 1944ZM350 1518H559L236 0H27L350 1518Z"/><glyph unicode="Í" horiz-adv-x="582" d="M672 1944H918L561 1606H375L672 1944ZM350 1518H559L236 0H27L350 1518Z"/><glyph unicode="Î" horiz-adv-x="582" d="M350 1518H559L236 0H27L350 1518ZM437 1939H652L881 1603H693L521 1810L259 1603H64L437 1939Z"/><glyph unicode="Ï" horiz-adv-x="582" d="M350 1518H559L236 0H27L350 1518ZM222 1833H404L357 1603H175L222 1833ZM637 1833H820L773 1603H590L637 1833Z"/><glyph unicode="Ð" horiz-adv-x="1532" d="M25 866H194L334 1518H694Q974 1518 1144 1463T1393 1292T1473 985Q1473 811 1416 592T1261 244T1013 58T596 0H10L158 694H-12L25 866ZM600 190Q804 190 917 234T1102 379T1218 659T1262 956Q1262 1153 1129 1237T692 1321H502L403 866H729L692 694H365L256 190H600Z"/><glyph unicode="Ñ" horiz-adv-x="1577" d="M334 1518H559L1118 348L1372 1518H1569L1245 0H1057L469 1217L207 0H10L334 1518ZM1147 1608Q1094 1608 1053 1624T977 1659T908 1695T836 1712Q803 1712 766 1692T676 1616L573 1718Q705 1876 844 1876Q897 1876 938 1860T1014 1825T1082 1789T1153 1773Q1193 1773 1229 1800T1309 1876L1413 1773Q1344 1693 1280 1651T1147 1608Z"/><glyph unicode="Ò" horiz-adv-x="1688" d="M764 -25Q423 -25 243 133T63 588V613Q63 705 90 840Q165 1192 371 1367T926 1542Q1266 1542 1446 1385T1626 934Q1626 759 1565 561T1393 231T1124 38T764 -25ZM766 168Q923 168 1042 218T1242 368T1368 620T1413 905Q1413 1122 1286 1232T915 1343Q408 1343 297 811Q274 709 274 606Q274 390 400 279T766 168ZM725 1939H956L1190 1603H1013L725 1939Z"/><glyph unicode="Ó" horiz-adv-x="1688" d="M1216 1939H1466L1034 1603H842L1216 1939ZM764 -25Q423 -25 243 133T63 588V613Q63 705 90 840Q165 1192 371 1367T926 1542Q1266 1542 1446 1385T1626 934Q1626 759 1565 561T1393 231T1124 38T764 -25ZM766 168Q923 168 1042 218T1242 368T1368 620T1413 905Q1413 1122 1286 1232T915 1343Q408 1343 297 811Q274 709 274 606Q274 390 400 279T766 168Z"/><glyph unicode="Ô" horiz-adv-x="1688" d="M981 1939H1196L1425 1603H1237L1065 1810L803 1603H608L981 1939ZM764 -25Q423 -25 243 133T63 588V613Q63 705 90 840Q165 1192 371 1367T926 1542Q1266 1542 1446 1385T1626 934Q1626 759 1565 561T1393 231T1124 38T764 -25ZM766 168Q923 168 1042 218T1242 368T1368 620T1413 905Q1413 1122 1286 1232T915 1343Q408 1343 297 811Q274 709 274 606Q274 390 400 279T766 168Z"/><glyph unicode="Õ" horiz-adv-x="1688" d="M764 -25Q423 -25 243 133T63 588V613Q63 705 90 840Q165 1192 371 1367T926 1542Q1266 1542 1446 1385T1626 934Q1626 759 1565 561T1393 231T1124 38T764 -25ZM766 168Q923 168 1042 218T1242 368T1368 620T1413 905Q1413 1122 1286 1232T915 1343Q408 1343 297 811Q274 709 274 606Q274 390 400 279T766 168ZM1204 1608Q1151 1608 1110 1624T1034 1659T965 1695T893 1712Q860 1712 823 1692T733 1616L630 1718Q762 1876 901 1876Q954 1876 995 1860T1071 1825T1139 1789T1210 1773Q1250 1773 1286 1800T1366 1876L1470 1773Q1401 1693 1337 1651T1204 1608Z"/><glyph unicode="Ö" horiz-adv-x="1688" d="M770 1833H952L905 1603H723L770 1833ZM1185 1833H1368L1321 1603H1138L1185 1833ZM764 -25Q423 -25 243 133T63 588V613Q63 705 90 840Q165 1192 371 1367T926 1542Q1266 1542 1446 1385T1626 934Q1626 759 1565 561T1393 231T1124 38T764 -25ZM766 168Q923 168 1042 218T1242 368T1368 620T1413 905Q1413 1122 1286 1232T915 1343Q408 1343 297 811Q274 709 274 606Q274 390 400 279T766 168Z"/><glyph unicode="×" horiz-adv-x="1440" d="M201 401L588 721L338 1040L483 1165L737 846L1124 1165L1219 1038L831 721L1083 401L936 276L686 596L295 276L201 401Z"/><glyph unicode="Ø" horiz-adv-x="1688" d="M764 -25Q532 -25 374 48L272 -84H70L240 135Q149 216 106 330T63 613Q63 705 90 840Q162 1187 368 1364T926 1542Q1145 1542 1290 1479L1386 1604H1587L1429 1399Q1524 1325 1575 1208T1626 934Q1626 759 1565 561T1393 231T1124 38T764 -25ZM766 162Q927 162 1046 211T1247 362T1375 617T1421 909Q1421 1121 1301 1231L1294 1238L492 212Q607 162 766 162ZM915 1352Q404 1352 289 811Q264 709 264 602Q264 403 372 293L1168 1312Q1097 1336 1041 1344T915 1352Z"/><glyph unicode="Ù" horiz-adv-x="1575" d="M694 -27Q401 -27 252 79T102 408Q102 495 127 604L324 1518H530L336 610Q313 495 313 444Q313 300 411 234T715 168Q910 168 1016 256T1167 557L1374 1518H1575L1358 516Q1314 314 1230 198T1012 27T694 -27ZM668 1939H899L1133 1603H956L668 1939Z"/><glyph unicode="Ú" horiz-adv-x="1575" d="M1163 1939H1413L981 1603H789L1163 1939ZM694 -27Q401 -27 252 79T102 408Q102 495 127 604L324 1518H530L336 610Q313 495 313 444Q313 300 411 234T715 168Q910 168 1016 256T1167 557L1374 1518H1575L1358 516Q1314 314 1230 198T1012 27T694 -27Z"/><glyph unicode="Û" horiz-adv-x="1575" d="M928 1939H1143L1372 1603H1184L1012 1810L750 1603H555L928 1939ZM694 -27Q401 -27 252 79T102 408Q102 495 127 604L324 1518H530L336 610Q313 495 313 444Q313 300 411 234T715 168Q910 168 1016 256T1167 557L1374 1518H1575L1358 516Q1314 314 1230 198T1012 27T694 -27Z"/><glyph unicode="Ü" horiz-adv-x="1575" d="M713 1833H895L848 1603H666L713 1833ZM1128 1833H1311L1264 1603H1081L1128 1833ZM694 -27Q401 -27 252 79T102 408Q102 495 127 604L324 1518H530L336 610Q313 495 313 444Q313 300 411 234T715 168Q910 168 1016 256T1167 557L1374 1518H1575L1358 516Q1314 314 1230 198T1012 27T694 -27Z"/><glyph unicode="Ý" horiz-adv-x="1425" d="M569 584L188 1518H403L711 782L1325 1518H1554L774 578L651 0H444L569 584ZM1087 1939H1337L905 1603H713L1087 1939Z"/><glyph unicode="Þ" horiz-adv-x="1434" d="M334 1518H537L483 1282H848Q1382 1282 1382 915Q1382 627 1234 473T809 319H281L213 0H10L334 1518ZM805 504Q977 504 1072 595T1167 874Q1167 989 1083 1041T823 1094H446L317 504H805Z"/><glyph unicode="ß" horiz-adv-x="1309" d="M764 1599Q987 1599 1104 1515T1221 1268Q1221 1094 1147 981T934 829Q1061 795 1122 717T1184 508Q1184 250 1044 125T604 0H399L436 180H594Q791 180 891 258T991 502Q991 613 900 668T614 723L649 891H659Q1018 891 1018 1204Q1018 1299 948 1348T748 1397Q606 1397 528 1320T418 1090L115 -338H-82L227 1122Q278 1363 411 1481T764 1599Z"/><glyph unicode="à" horiz-adv-x="1251" d="M375 -20Q175 -20 79 51T-18 285Q-18 451 54 550T278 695T709 741H857Q868 798 868 846Q868 920 809 949T606 979Q540 979 450 959T299 907L219 1069Q293 1113 409 1139T641 1165Q864 1165 964 1104T1064 893Q1064 819 1034 676L954 303Q942 244 942 225Q942 197 959 187T1027 176H1040L1006 2Q993 -2 920 -2Q841 -2 808 26T770 115Q653 -20 375 -20ZM182 305Q182 224 241 188T426 152Q596 152 681 232T807 502L821 571H682Q455 571 361 547T224 465T182 305ZM437 1591H668L902 1255H725L437 1591Z"/><glyph unicode="á" horiz-adv-x="1251" d="M375 -20Q175 -20 79 51T-18 285Q-18 451 54 550T278 695T709 741H857Q868 798 868 846Q868 920 809 949T606 979Q540 979 450 959T299 907L219 1069Q293 1113 409 1139T641 1165Q864 1165 964 1104T1064 893Q1064 819 1034 676L954 303Q942 244 942 225Q942 197 959 187T1027 176H1040L1006 2Q993 -2 920 -2Q841 -2 808 26T770 115Q653 -20 375 -20ZM182 305Q182 224 241 188T426 152Q596 152 681 232T807 502L821 571H682Q455 571 361 547T224 465T182 305ZM932 1591H1182L750 1255H558L932 1591Z"/><glyph unicode="â" horiz-adv-x="1251" d="M375 -20Q175 -20 79 51T-18 285Q-18 451 54 550T278 695T709 741H857Q868 798 868 846Q868 920 809 949T606 979Q540 979 450 959T299 907L219 1069Q293 1113 409 1139T641 1165Q864 1165 964 1104T1064 893Q1064 819 1034 676L954 303Q942 244 942 225Q942 197 959 187T1027 176H1040L1006 2Q993 -2 920 -2Q841 -2 808 26T770 115Q653 -20 375 -20ZM182 305Q182 224 241 188T426 152Q596 152 681 232T807 502L821 571H682Q455 571 361 547T224 465T182 305ZM697 1591H912L1141 1255H953L781 1462L519 1255H324L697 1591Z"/><glyph unicode="ã" horiz-adv-x="1251" d="M375 -20Q175 -20 79 51T-18 285Q-18 451 54 550T278 695T709 741H857Q868 798 868 846Q868 920 809 949T606 979Q540 979 450 959T299 907L219 1069Q293 1113 409 1139T641 1165Q864 1165 964 1104T1064 893Q1064 819 1034 676L954 303Q942 244 942 225Q942 197 959 187T1027 176H1040L1006 2Q993 -2 920 -2Q841 -2 808 26T770 115Q653 -20 375 -20ZM182 305Q182 224 241 188T426 152Q596 152 681 232T807 502L821 571H682Q455 571 361 547T224 465T182 305ZM916 1260Q863 1260 822 1276T746 1311T677 1347T605 1364Q572 1364 535 1344T445 1268L342 1370Q474 1528 613 1528Q666 1528 707 1512T783 1477T851 1441T922 1425Q962 1425 998 1452T1078 1528L1182 1425Q1113 1345 1049 1303T916 1260Z"/><glyph unicode="ä" horiz-adv-x="1251" d="M375 -20Q175 -20 79 51T-18 285Q-18 451 54 550T278 695T709 741H857Q868 798 868 846Q868 920 809 949T606 979Q540 979 450 959T299 907L219 1069Q293 1113 409 1139T641 1165Q864 1165 964 1104T1064 893Q1064 819 1034 676L954 303Q942 244 942 225Q942 197 959 187T1027 176H1040L1006 2Q993 -2 920 -2Q841 -2 808 26T770 115Q653 -20 375 -20ZM182 305Q182 224 241 188T426 152Q596 152 681 232T807 502L821 571H682Q455 571 361 547T224 465T182 305ZM482 1485H664L617 1255H435L482 1485ZM897 1485H1080L1033 1255H850L897 1485Z"/><glyph unicode="å" horiz-adv-x="1251" d="M375 -20Q175 -20 79 51T-18 285Q-18 451 54 550T278 695T709 741H857Q868 798 868 846Q868 920 809 949T606 979Q540 979 450 959T299 907L219 1069Q293 1113 409 1139T641 1165Q864 1165 964 1104T1064 893Q1064 819 1034 676L954 303Q942 244 942 225Q942 197 959 187T1027 176H1040L1006 2Q993 -2 920 -2Q841 -2 808 26T770 115Q653 -20 375 -20ZM182 305Q182 224 241 188T426 152Q596 152 681 232T807 502L821 571H682Q455 571 361 547T224 465T182 305ZM760 1237Q644 1237 581 1292T517 1450Q517 1595 598 1682T807 1769Q921 1769 984 1708T1047 1546Q1047 1408 969 1323T760 1237ZM764 1350Q840 1350 887 1398T934 1534Q934 1593 900 1625T803 1657Q728 1657 679 1603T629 1464Q629 1415 661 1383T764 1350Z"/><glyph unicode="æ" horiz-adv-x="1950" d="M1268 -23Q942 -23 851 181L834 158Q697 -20 367 -20Q173 -20 78 55T-18 285Q-18 450 56 549T281 695T709 741H856Q868 801 868 846Q868 921 807 950T606 979Q540 979 450 959T299 907L219 1069Q294 1113 410 1139T641 1165Q804 1165 896 1133T1025 1028Q1164 1165 1413 1165Q1629 1165 1737 1083T1845 827Q1845 758 1832 663T1802 494H987L983 416Q983 283 1058 219T1288 154Q1498 154 1634 240L1716 88Q1628 31 1522 4T1268 -23ZM182 301Q182 223 240 188T426 152Q594 152 678 228T807 502L821 571H682Q448 571 356 547T223 465T182 301ZM1642 668Q1657 747 1657 797Q1657 897 1593 941T1393 985Q1295 985 1225 952T1107 853T1023 668H1642Z"/><glyph unicode="ç" horiz-adv-x="1124" d="M625 -475Q448 -475 336 -395L412 -289Q449 -315 497 -335T620 -356Q766 -356 766 -246Q766 -169 630 -169L592 -170L551 -135L610 14H733L690 -90Q799 -90 852 -129T905 -242Q905 -475 625 -475ZM506 -20Q31 -20 31 403Q31 614 103 801T310 1076T655 1165Q802 1165 908 1123T1087 981L920 848Q866 919 799 946T641 973Q538 973 465 939T343 832T264 643T233 422Q233 288 304 223T520 158Q608 158 671 179T799 248L911 115Q824 45 727 13T506 -20Z"/><glyph unicode="è" horiz-adv-x="1188" d="M502 -23Q27 -23 27 397Q27 537 69 698T188 961T378 1113T647 1165Q862 1165 971 1084T1081 827Q1081 699 1036 494H221L217 416Q217 283 292 219T524 154Q732 154 868 240L950 88Q849 22 739 0T502 -23ZM877 670Q893 740 893 797Q893 897 829 941T627 985Q484 985 396 912T258 670H877ZM663 1591H894L1128 1255H951L663 1591Z"/><glyph unicode="é" horiz-adv-x="1188" d="M1158 1591H1408L976 1255H784L1158 1591ZM502 -23Q27 -23 27 397Q27 537 69 698T188 961T378 1113T647 1165Q862 1165 971 1084T1081 827Q1081 699 1036 494H221L217 416Q217 283 292 219T524 154Q732 154 868 240L950 88Q849 22 739 0T502 -23ZM877 670Q893 740 893 797Q893 897 829 941T627 985Q484 985 396 912T258 670H877Z"/><glyph unicode="ê" horiz-adv-x="1188" d="M923 1591H1138L1367 1255H1179L1007 1462L745 1255H550L923 1591ZM502 -23Q27 -23 27 397Q27 537 69 698T188 961T378 1113T647 1165Q862 1165 971 1084T1081 827Q1081 699 1036 494H221L217 416Q217 283 292 219T524 154Q732 154 868 240L950 88Q849 22 739 0T502 -23ZM877 670Q893 740 893 797Q893 897 829 941T627 985Q484 985 396 912T258 670H877Z"/><glyph unicode="ë" horiz-adv-x="1188" d="M708 1485H890L843 1255H661L708 1485ZM1123 1485H1306L1259 1255H1076L1123 1485ZM502 -23Q27 -23 27 397Q27 537 69 698T188 961T378 1113T647 1165Q862 1165 971 1084T1081 827Q1081 699 1036 494H221L217 416Q217 283 292 219T524 154Q732 154 868 240L950 88Q849 22 739 0T502 -23ZM877 670Q893 740 893 797Q893 897 829 941T627 985Q484 985 396 912T258 670H877Z"/><glyph unicode="ì" horiz-adv-x="516" d="M66 1591H299L436 1255H262L66 1591ZM240 1139H438L197 0H-2L240 1139Z"/><glyph unicode="í" horiz-adv-x="516" d="M561 1591H807L449 1255H262L561 1591ZM240 1139H438L197 0H-2L240 1139Z"/><glyph unicode="î" horiz-adv-x="516" d="M326 1591H541L729 1255H541L410 1462L188 1255H-6L326 1591ZM240 1139H438L197 0H-2L240 1139Z"/><glyph unicode="ï" horiz-adv-x="516" d="M139 1485H309L262 1255H92L139 1485ZM510 1485H680L633 1255H463L510 1485ZM240 1139H438L197 0H-2L240 1139Z"/><glyph unicode="ð" horiz-adv-x="1268" d="M849 1401Q808 1462 741 1538L936 1616Q1012 1535 1057 1452L1382 1532L1352 1360L1125 1305Q1186 1127 1186 926Q1186 743 1145 543T1029 219T837 36T537 -23Q284 -23 157 87T29 414Q29 519 53 627Q108 880 242 1004T606 1128Q758 1128 842 1100T973 1008L974 1039Q974 1147 928 1257L674 1196L707 1366L849 1401ZM537 158Q680 158 768 220T904 418T952 676Q952 942 649 942Q506 942 418 880T281 683T233 418Q233 158 537 158Z"/><glyph unicode="ñ" horiz-adv-x="1253" d="M385 1139L375 1044Q501 1165 739 1165Q936 1165 1028 1099T1120 879Q1120 808 1090 657L948 0H750L885 635Q910 748 910 803Q910 891 851 930T664 969Q525 969 443 897T324 649L186 0H-14L225 1128L385 1139ZM911 1260Q858 1260 817 1276T741 1311T672 1347T600 1364Q567 1364 530 1344T440 1268L337 1370Q469 1528 608 1528Q661 1528 702 1512T778 1477T846 1441T917 1425Q957 1425 993 1452T1073 1528L1177 1425Q1108 1345 1044 1303T911 1260Z"/><glyph unicode="ò" horiz-adv-x="1268" d="M526 -23Q31 -23 31 416Q31 564 75 715T198 968T390 1117T662 1165Q1161 1165 1161 729Q1161 590 1117 434T995 176T801 26T526 -23ZM537 158Q680 158 768 222T905 425T954 700Q954 975 651 975Q507 975 419 910T282 703T233 426Q233 158 537 158ZM441 1591H672L906 1255H729L441 1591Z"/><glyph unicode="ó" horiz-adv-x="1268" d="M936 1591H1186L754 1255H562L936 1591ZM526 -23Q31 -23 31 416Q31 564 75 715T198 968T390 1117T662 1165Q1161 1165 1161 729Q1161 590 1117 434T995 176T801 26T526 -23ZM537 158Q680 158 768 222T905 425T954 700Q954 975 651 975Q507 975 419 910T282 703T233 426Q233 158 537 158Z"/><glyph unicode="ô" horiz-adv-x="1268" d="M701 1591H916L1145 1255H957L785 1462L523 1255H328L701 1591ZM526 -23Q31 -23 31 416Q31 564 75 715T198 968T390 1117T662 1165Q1161 1165 1161 729Q1161 590 1117 434T995 176T801 26T526 -23ZM537 158Q680 158 768 222T905 425T954 700Q954 975 651 975Q507 975 419 910T282 703T233 426Q233 158 537 158Z"/><glyph unicode="õ" horiz-adv-x="1268" d="M526 -23Q31 -23 31 416Q31 564 75 715T198 968T390 1117T662 1165Q1161 1165 1161 729Q1161 590 1117 434T995 176T801 26T526 -23ZM537 158Q680 158 768 222T905 425T954 700Q954 975 651 975Q507 975 419 910T282 703T233 426Q233 158 537 158ZM920 1260Q867 1260 826 1276T750 1311T681 1347T609 1364Q576 1364 539 1344T449 1268L346 1370Q478 1528 617 1528Q670 1528 711 1512T787 1477T855 1441T926 1425Q966 1425 1002 1452T1082 1528L1186 1425Q1117 1345 1053 1303T920 1260Z"/><glyph unicode="ö" horiz-adv-x="1268" d="M486 1485H668L621 1255H439L486 1485ZM901 1485H1084L1037 1255H854L901 1485ZM526 -23Q31 -23 31 416Q31 564 75 715T198 968T390 1117T662 1165Q1161 1165 1161 729Q1161 590 1117 434T995 176T801 26T526 -23ZM537 158Q680 158 768 222T905 425T954 700Q954 975 651 975Q507 975 419 910T282 703T233 426Q233 158 537 158Z"/><glyph unicode="÷" horiz-adv-x="1440" d="M537 420H762L715 205H492L537 420ZM223 817H1241L1200 627H182L223 817ZM711 1241H934L889 1026H666L711 1241Z"/><glyph unicode="ø" horiz-adv-x="1268" d="M526 -23Q357 -23 244 29L150 -86H-25L133 109Q31 217 31 416Q31 564 75 715T198 968T390 1117T662 1165Q832 1165 945 1113L1038 1229H1214L1057 1035Q1161 925 1161 729Q1161 590 1117 434T995 176T801 26T526 -23ZM535 147Q643 147 720 182T850 292T934 487T965 705Q965 813 919 879L355 180Q421 147 535 147ZM653 985Q545 985 467 949T337 836T254 638T223 422Q223 322 262 258L823 955Q763 985 653 985Z"/><glyph unicode="ù" horiz-adv-x="1239" d="M522 -23Q284 -23 173 54T61 307Q61 392 90 532L219 1139H420L289 514Q263 397 263 346Q263 247 329 205T539 162Q632 162 687 187T776 268T840 467L983 1139H1178L1032 455Q985 237 929 147T777 17T522 -23ZM426 1591H657L891 1255H714L426 1591Z"/><glyph unicode="ú" horiz-adv-x="1239" d="M921 1591H1171L739 1255H547L921 1591ZM522 -23Q284 -23 173 54T61 307Q61 392 90 532L219 1139H420L289 514Q263 397 263 346Q263 247 329 205T539 162Q632 162 687 187T776 268T840 467L983 1139H1178L1032 455Q985 237 929 147T777 17T522 -23Z"/><glyph unicode="û" horiz-adv-x="1239" d="M686 1591H901L1130 1255H942L770 1462L508 1255H313L686 1591ZM522 -23Q284 -23 173 54T61 307Q61 392 90 532L219 1139H420L289 514Q263 397 263 346Q263 247 329 205T539 162Q632 162 687 187T776 268T840 467L983 1139H1178L1032 455Q985 237 929 147T777 17T522 -23Z"/><glyph unicode="ü" horiz-adv-x="1239" d="M471 1485H653L606 1255H424L471 1485ZM886 1485H1069L1022 1255H839L886 1485ZM522 -23Q284 -23 173 54T61 307Q61 392 90 532L219 1139H420L289 514Q263 397 263 346Q263 247 329 205T539 162Q632 162 687 187T776 268T840 467L983 1139H1178L1032 455Q985 237 929 147T777 17T522 -23Z"/><glyph unicode="ý" horiz-adv-x="1073" d="M98 1139H305L432 272L924 1139H1139L403 -113Q326 -249 254 -296T53 -344H-19L-76 -342L-43 -180H45Q117 -180 150 -162T223 -70L278 23L98 1139ZM1103 1591H1353L921 1255H729L1103 1591Z"/><glyph unicode="þ" horiz-adv-x="1303" d="M328 1589H524L408 1051Q462 1112 551 1138T776 1165Q1200 1165 1200 754Q1200 634 1156 460T1044 184T874 32T627 -18Q444 -18 344 19T215 137L115 -338H-82L328 1589ZM600 162Q752 162 836 245T969 535Q991 655 991 715Q991 850 921 912T709 975Q549 975 467 910T337 691T289 418Q289 284 363 223T600 162Z"/><glyph unicode="ÿ" horiz-adv-x="1073" d="M98 1139H305L432 272L924 1139H1139L403 -113Q326 -249 254 -296T53 -344H-19L-76 -342L-43 -180H45Q117 -180 150 -162T223 -70L278 23L98 1139ZM653 1485H835L788 1255H606L653 1485ZM1068 1485H1251L1204 1255H1021L1068 1485Z"/><glyph unicode="Ă" horiz-adv-x="1473" d="M795 1528H999L1260 0H1053L999 319H295L106 0H-117L795 1528ZM971 510L846 1262L401 510H971ZM938 1585Q814 1585 738 1621T626 1727T590 1929L746 1950Q746 1866 765 1828T828 1770T944 1751Q1017 1751 1068 1770T1153 1828T1221 1950L1366 1921Q1310 1749 1204 1667T938 1585Z"/><glyph unicode="ă" horiz-adv-x="1251" d="M375 -20Q175 -20 79 51T-18 285Q-18 451 54 550T278 695T709 741H857Q868 798 868 846Q868 920 809 949T606 979Q540 979 450 959T299 907L219 1069Q293 1113 409 1139T641 1165Q864 1165 964 1104T1064 893Q1064 819 1034 676L954 303Q942 244 942 225Q942 197 959 187T1027 176H1040L1006 2Q993 -2 920 -2Q841 -2 808 26T770 115Q653 -20 375 -20ZM182 305Q182 224 241 188T426 152Q596 152 681 232T807 502L821 571H682Q455 571 361 547T224 465T182 305ZM760 1237Q636 1237 560 1273T448 1379T412 1581L568 1602Q568 1518 587 1480T650 1422T766 1403Q839 1403 890 1422T975 1480T1043 1602L1188 1573Q1132 1401 1026 1319T760 1237Z"/><glyph unicode="Ą" horiz-adv-x="1473" d="M795 1528H999L1260 0H1188Q1085 -59 1031 -122T977 -242Q977 -282 1003 -299T1092 -317Q1157 -317 1221 -287L1274 -414Q1176 -457 1061 -457Q932 -457 869 -415T805 -276Q805 -190 866 -108T1044 39L999 319H295L106 0H-117L795 1528ZM971 510L846 1262L401 510H971Z"/><glyph unicode="ą" horiz-adv-x="1251" d="M375 -20Q175 -20 79 51T-18 285Q-18 451 54 550T278 695T709 741H856Q868 796 868 846Q868 920 809 949T606 979Q540 979 450 959T299 907L219 1069Q293 1113 409 1139T641 1165Q864 1165 964 1104T1064 893Q1064 819 1034 676L954 303Q942 244 942 225Q942 197 959 187T1027 176H1040L1006 2L1004 1V0Q884 -64 824 -126T764 -242Q764 -280 790 -298T885 -317Q960 -317 1022 -287L1077 -414Q979 -457 856 -457Q718 -457 654 -416T590 -285Q590 -198 649 -116T813 20L795 39Q777 59 770 115Q653 -20 375 -20ZM426 152Q596 152 681 232T807 502L821 571H682Q457 571 362 547T225 467T182 305Q182 224 241 188T426 152Z"/><glyph unicode="Ć" horiz-adv-x="1462" d="M1106 1939H1356L924 1603H732L1106 1939ZM721 -23Q398 -23 230 128T61 569Q61 835 159 1068T445 1422T915 1542Q1295 1542 1483 1323L1307 1182Q1168 1343 907 1343Q411 1343 295 805Q272 698 272 596Q272 389 391 281T739 172Q864 172 957 202T1133 299L1260 145Q1157 58 1028 18T721 -23Z"/><glyph unicode="ć" horiz-adv-x="1124" d="M1127 1591H1377L945 1255H753L1127 1591ZM506 -20Q31 -20 31 403Q31 614 103 801T310 1076T655 1165Q802 1165 908 1123T1087 981L920 848Q866 919 799 946T641 973Q538 973 465 939T343 832T264 643T233 422Q233 288 304 223T520 158Q608 158 671 179T799 248L911 115Q824 45 727 13T506 -20Z"/><glyph unicode="Č" horiz-adv-x="1462" d="M570 1939H756L930 1732L1190 1939H1387L1016 1603H799L570 1939ZM721 -23Q398 -23 230 128T61 569Q61 835 159 1068T445 1422T915 1542Q1295 1542 1483 1323L1307 1182Q1168 1343 907 1343Q411 1343 295 805Q272 698 272 596Q272 389 391 281T739 172Q864 172 957 202T1133 299L1260 145Q1157 58 1028 18T721 -23Z"/><glyph unicode="č" horiz-adv-x="1124" d="M591 1591H777L951 1384L1211 1591H1408L1037 1255H820L591 1591ZM506 -20Q31 -20 31 403Q31 614 103 801T310 1076T655 1165Q802 1165 908 1123T1087 981L920 848Q866 919 799 946T641 973Q538 973 465 939T343 832T264 643T233 422Q233 288 304 223T520 158Q608 158 671 179T799 248L911 115Q824 45 727 13T506 -20Z"/><glyph unicode="Ď" horiz-adv-x="1532" d="M600 1941H786L960 1734L1220 1941H1417L1046 1605H829L600 1941ZM334 1518H694Q974 1518 1144 1463T1393 1292T1473 985Q1473 811 1416 592T1261 244T1013 58T596 0H10L334 1518ZM600 190Q804 190 917 234T1102 379T1218 659T1262 956Q1262 1153 1129 1237T692 1321H502L256 190H600Z"/><glyph unicode="ď" horiz-adv-x="1540" d="M1403 1204Q1483 1242 1511 1270T1552 1354H1452L1501 1589H1714L1679 1415Q1658 1318 1633 1269T1563 1184T1436 1110L1403 1204ZM451 -18Q240 -18 134 82T27 391Q27 524 74 700T188 972T356 1117T600 1165Q779 1165 876 1128T1006 1008L1133 1589H1333L995 8L840 -6L854 102Q794 38 699 10T451 -18ZM518 162Q679 162 762 228T890 447T936 719Q936 855 862 916T625 977Q492 977 411 912T283 696T236 420Q236 288 304 225T518 162Z"/><glyph unicode="Đ" horiz-adv-x="1532" d="M25 866H194L334 1518H694Q974 1518 1144 1463T1393 1292T1473 985Q1473 811 1416 592T1261 244T1013 58T596 0H10L158 694H-12L25 866ZM600 190Q804 190 917 234T1102 379T1218 659T1262 956Q1262 1153 1129 1237T692 1321H502L403 866H729L692 694H365L256 190H600Z"/><glyph unicode="đ" horiz-adv-x="1303" d="M451 -18Q240 -18 134 82T27 391Q27 524 74 700T188 972T356 1117T600 1165Q779 1165 876 1128T1006 1008L1061 1260H786L819 1436H1099L1133 1589H1333L1300 1436H1481L1444 1260H1262L995 8L840 -6L854 102Q794 38 699 10T451 -18ZM518 162Q679 162 762 228T890 447T936 719Q936 855 862 916T625 977Q492 977 411 912T283 696T236 420Q236 288 304 225T518 162Z"/><glyph unicode="Ę" horiz-adv-x="1300" d="M334 1518H1341L1300 1319H500L401 883H1182L1143 686H365L256 190H1065L1026 0H854Q730 -69 673 -132T616 -258Q616 -302 654 -321T768 -340Q844 -340 928 -309L948 -414Q905 -437 846 -450T731 -463Q598 -463 532 -426T465 -307Q465 -120 711 0H10L334 1518Z"/><glyph unicode="ę" horiz-adv-x="1188" d="M502 -23Q27 -23 27 397Q27 537 69 698T188 961T378 1113T647 1165Q862 1165 971 1084T1081 827Q1081 699 1036 494H221L217 416Q217 283 292 219T524 154Q732 154 868 240L950 88Q847 21 735 0Q611 -70 556 -133T500 -258Q500 -302 538 -321T651 -340Q727 -340 811 -309L831 -414Q788 -437 729 -450T614 -463Q481 -463 415 -426T348 -307Q348 -136 553 -20L502 -23ZM627 985Q485 985 395 910T258 670H877Q893 740 893 797Q893 897 829 941T627 985Z"/><glyph unicode="Ě" horiz-adv-x="1300" d="M492 1939H678L852 1732L1112 1939H1309L938 1603H721L492 1939ZM334 1518H1341L1300 1319H500L401 883H1182L1143 686H365L256 190H1065L1026 0H10L334 1518Z"/><glyph unicode="ě" horiz-adv-x="1188" d="M622 1591H808L982 1384L1242 1591H1439L1068 1255H851L622 1591ZM502 -23Q27 -23 27 397Q27 537 69 698T188 961T378 1113T647 1165Q862 1165 971 1084T1081 827Q1081 699 1036 494H221L217 416Q217 283 292 219T524 154Q732 154 868 240L950 88Q849 22 739 0T502 -23ZM877 670Q893 740 893 797Q893 897 829 941T627 985Q484 985 396 912T258 670H877Z"/><glyph unicode="Ĺ" horiz-adv-x="1178" d="M885 1939H1135L703 1603H511L885 1939ZM334 1518H541L256 190H1008L969 0H10L334 1518Z"/><glyph unicode="ĺ" horiz-adv-x="625" d="M736 1999H986L554 1663H362L736 1999ZM266 -2Q150 -2 100 41T49 180Q49 241 66 326L336 1589H535L264 317Q253 267 253 241Q253 204 277 190T358 176H403L369 2Q341 -2 266 -2Z"/><glyph unicode="Ľ" horiz-adv-x="1178" d="M664 1204Q748 1245 775 1274T813 1354H713L762 1589H975L940 1415Q919 1318 894 1269T825 1185T696 1110L664 1204ZM334 1518H541L256 190H1008L969 0H10L334 1518Z"/><glyph unicode="ľ" horiz-adv-x="752" d="M614 1204Q694 1243 722 1272T762 1354H662L711 1589H924L889 1415Q868 1318 843 1269T774 1185T645 1110L614 1204ZM266 -2Q150 -2 100 41T49 180Q49 241 66 326L336 1589H535L264 317Q253 267 253 241Q253 204 277 190T358 176H403L369 2Q341 -2 266 -2Z"/><glyph unicode="Ł" horiz-adv-x="1194" d="M334 1518H541L426 985L795 1169L756 987L387 803L256 190H1022L985 0H10L157 688L-31 594L6 776L196 870L334 1518Z"/><glyph unicode="ł" horiz-adv-x="752" d="M352 -2Q238 -2 186 40T134 177Q134 237 152 319L270 874L47 760L84 932L306 1047L422 1589H623L531 1163L774 1288L737 1114L494 989L348 311Q338 261 338 236Q338 198 361 183T444 168H492L455 2Q427 -2 352 -2Z"/><glyph unicode="Ń" horiz-adv-x="1577" d="M1163 1939H1413L981 1603H789L1163 1939ZM334 1518H559L1118 348L1372 1518H1569L1245 0H1057L469 1217L207 0H10L334 1518Z"/><glyph unicode="ń" horiz-adv-x="1253" d="M927 1591H1177L745 1255H553L927 1591ZM597 1139L587 1044Q713 1165 951 1165Q1148 1165 1240 1099T1332 879Q1332 808 1302 657L1160 0H962L1097 635Q1122 748 1122 803Q1122 891 1063 930T876 969Q737 969 655 897T536 649L398 0H198L437 1128L597 1139Z"/><glyph unicode="Ň" horiz-adv-x="1577" d="M627 1939H813L987 1732L1247 1939H1444L1073 1603H856L627 1939ZM334 1518H559L1118 348L1372 1518H1569L1245 0H1057L469 1217L207 0H10L334 1518Z"/><glyph unicode="ň" horiz-adv-x="1253" d="M391 1591H577L751 1384L1011 1591H1208L837 1255H620L391 1591ZM385 1139L375 1044Q501 1165 739 1165Q936 1165 1028 1099T1120 879Q1120 808 1090 657L948 0H750L885 635Q910 748 910 803Q910 891 851 930T664 969Q525 969 443 897T324 649L186 0H-14L225 1128L385 1139Z"/><glyph unicode="Ő" horiz-adv-x="1688" d="M905 1939H1140L751 1603H575L905 1939ZM1394 1939H1628L1239 1603H1065L1394 1939ZM764 -25Q423 -25 243 133T63 588V613Q63 705 90 840Q165 1192 371 1367T926 1542Q1266 1542 1446 1385T1626 934Q1626 759 1565 561T1393 231T1124 38T764 -25ZM766 168Q923 168 1042 218T1242 368T1368 620T1413 905Q1413 1122 1286 1232T915 1343Q408 1343 297 811Q274 709 274 606Q274 390 400 279T766 168Z"/><glyph unicode="ő" horiz-adv-x="1268" d="M621 1591H856L467 1255H291L621 1591ZM1110 1591H1344L955 1255H781L1110 1591ZM526 -23Q31 -23 31 416Q31 564 75 715T198 968T390 1117T662 1165Q1161 1165 1161 729Q1161 590 1117 434T995 176T801 26T526 -23ZM537 158Q680 158 768 222T905 425T954 700Q954 975 651 975Q507 975 419 910T282 703T233 426Q233 158 537 158Z"/><glyph unicode="Œ" horiz-adv-x="2529" d="M764 -25Q423 -25 243 133T63 588V613Q63 705 90 840Q165 1194 373 1368T926 1542Q1384 1542 1532 1250L1589 1518H2566L2523 1319H1735L1640 879H2408L2370 688H1599L1491 190H2290L2251 0H1266L1307 193Q1205 81 1072 28T764 -25ZM766 168Q923 168 1042 218T1242 368T1368 620T1413 905Q1413 1122 1286 1232T915 1343Q408 1343 297 811Q274 709 274 606Q274 390 400 279T766 168Z"/><glyph unicode="œ" horiz-adv-x="2083" d="M1399 -23Q1071 -23 983 180Q905 74 794 26T524 -23Q277 -23 153 88T29 416Q29 552 72 707T195 964T387 1116T662 1165Q998 1165 1097 958Q1239 1165 1544 1165Q1762 1165 1869 1084T1976 827Q1976 758 1963 663T1933 494H1118L1114 416Q1114 283 1189 219T1419 154Q1629 154 1765 240L1845 88Q1754 29 1650 3T1399 -23ZM535 158Q640 158 715 192T841 298T923 488T954 700Q954 975 651 975Q545 975 470 941T345 833T263 638T231 426Q231 158 535 158ZM1774 668Q1788 750 1788 797Q1788 897 1724 941T1524 985Q1379 985 1290 910T1154 668H1774Z"/><glyph unicode="Ŕ" horiz-adv-x="1458" d="M1106 1939H1356L924 1603H732L1106 1939ZM334 1518H872Q1142 1518 1282 1427T1423 1153Q1423 897 1299 752T942 587L1155 0H944L730 584H338L213 0H10L334 1518ZM860 774Q1208 774 1208 1112Q1208 1221 1123 1273T856 1325H498L377 774H860Z"/><glyph unicode="ŕ" horiz-adv-x="721" d="M683 1591H933L501 1255H309L683 1591ZM387 1139L371 1016Q475 1153 756 1153L715 956Q599 956 520 920T393 814T317 614L186 0H-10L227 1128L387 1139Z"/><glyph unicode="Ř" horiz-adv-x="1458" d="M570 1939H756L930 1732L1190 1939H1387L1016 1603H799L570 1939ZM334 1518H872Q1142 1518 1282 1427T1423 1153Q1423 897 1299 752T942 587L1155 0H944L730 584H338L213 0H10L334 1518ZM860 774Q1208 774 1208 1112Q1208 1221 1123 1273T856 1325H498L377 774H860Z"/><glyph unicode="ř" horiz-adv-x="702" d="M124 1591H310L484 1384L744 1591H941L570 1255H353L124 1591ZM387 1139L371 1016Q475 1153 756 1153L715 956Q599 956 520 920T393 814T317 614L186 0H-10L227 1128L387 1139Z"/><glyph unicode="Ś" horiz-adv-x="1419" d="M1085 1939H1335L903 1603H711L1085 1939ZM631 -20Q424 -20 256 29T-57 186L74 340Q187 254 324 208T641 162Q1032 162 1032 422Q1032 485 1007 524T935 591T819 639T662 688Q449 751 370 799T250 916T209 1090Q209 1312 352 1427T766 1542Q1138 1542 1356 1374L1221 1214Q1041 1352 758 1352Q422 1352 422 1106Q422 1048 451 1009T538 940T752 868Q982 805 1069 756T1199 638T1243 463Q1243 227 1089 104T631 -20Z"/><glyph unicode="ś" horiz-adv-x="1057" d="M1090 1591H1340L908 1255H716L1090 1591ZM442 -20Q284 -20 153 25T-72 150L57 291Q138 228 243 191T461 154Q591 154 645 198T700 334Q700 373 677 401T609 450T455 502Q303 546 244 582T151 670T117 801Q117 979 230 1072T561 1165Q837 1165 1010 1038L883 883Q801 937 718 959T547 981Q322 981 322 825Q322 773 371 737T561 662Q714 616 774 578T867 487T901 354Q901 167 788 74T442 -20Z"/><glyph unicode="Ş" horiz-adv-x="1419" d="M631 -20Q424 -20 256 29T-57 186L74 340Q187 254 324 208T641 162Q1032 162 1032 422Q1032 485 1007 524T935 591T819 639T662 688Q449 751 370 799T250 916T209 1090Q209 1312 352 1427T766 1542Q1138 1542 1356 1374L1221 1214Q1041 1352 758 1352Q422 1352 422 1106Q422 1048 451 1009T538 940T752 868Q982 805 1069 756T1199 638T1243 463Q1243 227 1089 104T631 -20ZM510 -475Q333 -475 221 -395L297 -289Q334 -315 382 -335T505 -356Q651 -356 651 -246Q651 -169 515 -169L477 -170L436 -135L495 14H618L575 -90Q684 -90 737 -129T790 -242Q790 -475 510 -475Z"/><glyph unicode="ş" horiz-adv-x="1057" d="M442 -20Q284 -20 153 25T-72 150L57 291Q138 228 243 191T461 154Q591 154 645 198T700 334Q700 373 677 401T609 450T455 502Q303 546 244 582T151 670T117 801Q117 979 230 1072T561 1165Q837 1165 1010 1038L883 883Q801 937 718 959T547 981Q322 981 322 825Q322 773 371 737T561 662Q714 616 774 578T867 487T901 354Q901 167 788 74T442 -20ZM589 -475Q412 -475 300 -395L376 -289Q413 -315 461 -335T584 -356Q730 -356 730 -246Q730 -169 594 -169L556 -170L515 -135L574 14H697L654 -90Q763 -90 816 -129T869 -242Q869 -475 589 -475Z"/><glyph unicode="Š" horiz-adv-x="1419" d="M549 1939H735L909 1732L1169 1939H1366L995 1603H778L549 1939ZM631 -20Q424 -20 256 29T-57 186L74 340Q187 254 324 208T641 162Q1032 162 1032 422Q1032 485 1007 524T935 591T819 639T662 688Q449 751 370 799T250 916T209 1090Q209 1312 352 1427T766 1542Q1138 1542 1356 1374L1221 1214Q1041 1352 758 1352Q422 1352 422 1106Q422 1048 451 1009T538 940T752 868Q982 805 1069 756T1199 638T1243 463Q1243 227 1089 104T631 -20Z"/><glyph unicode="š" horiz-adv-x="1057" d="M554 1591H740L914 1384L1174 1591H1371L1000 1255H783L554 1591ZM442 -20Q284 -20 153 25T-72 150L57 291Q138 228 243 191T461 154Q591 154 645 198T700 334Q700 373 677 401T609 450T455 502Q303 546 244 582T151 670T117 801Q117 979 230 1072T561 1165Q837 1165 1010 1038L883 883Q801 937 718 959T547 981Q322 981 322 825Q322 773 371 737T561 662Q714 616 774 578T867 487T901 354Q901 167 788 74T442 -20Z"/><glyph unicode="Ţ" horiz-adv-x="1378" d="M313 -465Q387 -431 417 -401T461 -313H352L399 -80H623L588 -254Q565 -361 539 -411T467 -494T344 -557L313 -465ZM709 1319H170L211 1518H1493L1452 1319H915L633 0H426L709 1319Z"/><glyph unicode="ţ" horiz-adv-x="834" d="M12 -465Q86 -431 116 -401T160 -313H51L98 -80H322L287 -254Q264 -361 238 -411T166 -494T43 -557L12 -465ZM141 1139H350L455 1462L614 1493L539 1139H815L780 958H500L369 338Q357 288 357 261Q357 217 391 197T500 176H610L575 0L507 -2H434Q289 -2 221 46T153 198Q153 261 168 340L304 958H102L141 1139Z"/><glyph unicode="Ť" horiz-adv-x="1378" d="M529 1939H715L889 1732L1149 1939H1346L975 1603H758L529 1939ZM709 1319H170L211 1518H1493L1452 1319H915L633 0H426L709 1319Z"/><glyph unicode="ť" horiz-adv-x="834" d="M752 1415Q829 1453 854 1479T895 1563H799L844 1788H1051L1016 1620Q991 1495 946 1437T780 1325L752 1415ZM141 1139H350L455 1462L614 1493L539 1139H815L780 958H500L369 338Q357 288 357 261Q357 217 391 197T500 176H610L575 0L507 -2H434Q289 -2 221 46T153 198Q153 261 168 340L304 958H102L141 1139Z"/><glyph unicode="Ů" horiz-adv-x="1575" d="M991 1585Q875 1585 812 1640T748 1798Q748 1943 829 2030T1038 2117Q1152 2117 1215 2056T1278 1894Q1278 1756 1200 1671T991 1585ZM995 1698Q1071 1698 1118 1746T1165 1882Q1165 1941 1131 1973T1034 2005Q959 2005 910 1951T860 1812Q860 1763 892 1731T995 1698ZM694 -27Q401 -27 252 79T102 408Q102 495 127 604L324 1518H530L336 610Q313 495 313 444Q313 300 411 234T715 168Q910 168 1016 256T1167 557L1374 1518H1575L1358 516Q1314 314 1230 198T1012 27T694 -27Z"/><glyph unicode="ů" horiz-adv-x="1239" d="M749 1237Q633 1237 570 1292T506 1450Q506 1595 587 1682T796 1769Q910 1769 973 1708T1036 1546Q1036 1408 958 1323T749 1237ZM753 1350Q829 1350 876 1398T923 1534Q923 1593 889 1625T792 1657Q717 1657 668 1603T618 1464Q618 1415 650 1383T753 1350ZM522 -23Q284 -23 173 54T61 307Q61 392 90 532L219 1139H420L289 514Q263 397 263 346Q263 247 329 205T539 162Q632 162 687 187T776 268T840 467L983 1139H1178L1032 455Q985 237 929 147T777 17T522 -23Z"/><glyph unicode="Ű" horiz-adv-x="1575" d="M694 -27Q401 -27 252 79T102 408Q102 495 127 604L324 1518H530L336 610Q313 495 313 444Q313 300 411 234T715 168Q910 168 1016 256T1167 557L1374 1518H1575L1358 516Q1314 314 1230 198T1012 27T694 -27ZM848 1939H1083L694 1603H518L848 1939ZM1337 1939H1571L1182 1603H1008L1337 1939Z"/><glyph unicode="ű" horiz-adv-x="1239" d="M522 -23Q284 -23 173 54T61 307Q61 392 90 532L219 1139H420L289 514Q263 397 263 346Q263 247 329 205T539 162Q632 162 687 187T776 268T840 467L983 1139H1178L1032 455Q985 237 929 147T777 17T522 -23ZM606 1591H841L452 1255H276L606 1591ZM1095 1591H1329L940 1255H766L1095 1591Z"/><glyph unicode="Ÿ" horiz-adv-x="1425" d="M569 584L188 1518H403L711 782L1325 1518H1554L774 578L651 0H444L569 584ZM637 1833H819L772 1603H590L637 1833ZM1052 1833H1235L1188 1603H1005L1052 1833Z"/><glyph unicode="Ź" horiz-adv-x="1335" d="M1044 1939H1294L862 1603H670L1044 1939ZM1075 1319H242L283 1518H1384L1350 1337L238 190H1122L1083 0H-76L-41 164L1075 1319Z"/><glyph unicode="ź" horiz-adv-x="1008" d="M1070 1591H1320L888 1255H696L1070 1591ZM711 958H141L176 1139H1010L981 989L199 170H827L793 0H-100L-70 145L711 958Z"/><glyph unicode="Ż" horiz-adv-x="1335" d="M1075 1319H242L283 1518H1384L1350 1337L238 190H1122L1083 0H-76L-41 164L1075 1319ZM794 1843H995L946 1603H743L794 1843Z"/><glyph unicode="ż" horiz-adv-x="1008" d="M711 958H141L176 1139H1010L981 989L199 170H827L793 0H-100L-70 145L711 958ZM820 1495H1021L972 1255H769L820 1495Z"/><glyph unicode="Ž" horiz-adv-x="1335" d="M508 1939H694L868 1732L1128 1939H1325L954 1603H737L508 1939ZM1075 1319H242L283 1518H1384L1350 1337L238 190H1122L1083 0H-76L-41 164L1075 1319Z"/><glyph unicode="ž" horiz-adv-x="1008" d="M534 1591H720L894 1384L1154 1591H1351L980 1255H763L534 1591ZM711 958H141L176 1139H1010L981 989L199 170H827L793 0H-100L-70 145L711 958Z"/><glyph unicode="ƒ" horiz-adv-x="1133" d="M236 930H469L524 1186Q548 1300 577 1357T652 1449T763 1501T922 1518H1044L1006 1329H934Q864 1329 822 1310T755 1253T713 1126L671 930H995L956 750H632L399 -340H201L431 750H195L236 930Z"/><glyph unicode="Ț" horiz-adv-x="1378" d="M313 -465Q387 -431 417 -401T461 -313H352L399 -80H623L588 -254Q565 -361 539 -411T467 -494T344 -557L313 -465ZM709 1319H170L211 1518H1493L1452 1319H915L633 0H426L709 1319Z"/><glyph unicode="ț" horiz-adv-x="834" d="M12 -465Q86 -431 116 -401T160 -313H51L98 -80H322L287 -254Q264 -361 238 -411T166 -494T43 -557L12 -465ZM141 1139H350L455 1462L614 1493L539 1139H815L780 958H500L369 338Q357 288 357 261Q357 217 391 197T500 176H610L575 0L507 -2H434Q289 -2 221 46T153 198Q153 261 168 340L304 958H102L141 1139Z"/><glyph unicode="ˆ" horiz-adv-x="1208" d="M674 1591H889L1118 1255H930L758 1462L496 1255H301L674 1591Z"/><glyph unicode="ˇ" horiz-adv-x="1208" d="M373 1591H559L733 1384L993 1591H1190L819 1255H602L373 1591Z"/><glyph unicode="˘" horiz-adv-x="1208" d="M737 1237Q613 1237 537 1273T425 1379T389 1581L545 1602Q545 1518 564 1480T627 1422T743 1403Q816 1403 867 1422T952 1480T1020 1602L1165 1573Q1109 1401 1003 1319T737 1237Z"/><glyph unicode="˙" horiz-adv-x="1208" d="M659 1495H860L811 1255H608L659 1495Z"/><glyph unicode="˚" horiz-adv-x="1208" d="M737 1237Q621 1237 558 1292T494 1450Q494 1595 575 1682T784 1769Q898 1769 961 1708T1024 1546Q1024 1408 946 1323T737 1237ZM741 1350Q817 1350 864 1398T911 1534Q911 1593 877 1625T780 1657Q705 1657 656 1603T606 1464Q606 1415 638 1383T741 1350Z"/><glyph unicode="˛" horiz-adv-x="1208" d="M408 -463Q276 -463 209 -426T141 -307Q141 -237 174 -180T262 -78T418 14H557Q421 -60 357 -125T293 -258Q293 -302 331 -321T444 -340Q520 -340 604 -309L625 -414Q581 -437 522 -450T408 -463Z"/><glyph unicode="˜" horiz-adv-x="1208" d="M893 1260Q840 1260 799 1276T723 1311T654 1347T582 1364Q549 1364 512 1344T422 1268L319 1370Q451 1528 590 1528Q643 1528 684 1512T760 1477T828 1441T899 1425Q939 1425 975 1452T1055 1528L1159 1425Q1090 1345 1026 1303T893 1260Z"/><glyph unicode="˝" horiz-adv-x="1208" d="M594 1591H829L440 1255H264L594 1591ZM1083 1591H1317L928 1255H754L1083 1591Z"/><glyph unicode="̄" horiz-adv-x="1208" d="M373 1425H1116L1083 1255H338L373 1425Z"/><glyph unicode="̦" horiz-adv-x="518" d="M-115 -465Q-41 -431 -11 -401T33 -313H-76L-29 -80H195L160 -254Q137 -361 111 -411T39 -494T-84 -557L-115 -465Z"/><glyph unicode="μ" horiz-adv-x="1247" d="M229 1139H430L297 514Q271 397 271 346Q271 245 338 204T549 162Q637 162 689 183T771 244T817 340T848 467L991 1139H1186L1040 455Q997 248 940 155T787 19T532 -23Q276 -23 209 98L115 -338H-82L229 1139Z"/><glyph unicode="–" horiz-adv-x="1419" d="M94 735H1315L1276 549H55L94 735Z"/><glyph unicode="—" horiz-adv-x="1868" d="M94 735H1763L1726 549H55L94 735Z"/><glyph unicode="‘" horiz-adv-x="518" d="M492 1524L535 1417Q448 1376 415 1343T367 1243H489L432 969H182L225 1174Q250 1294 277 1348T352 1442T492 1524Z"/><glyph unicode="’" horiz-adv-x="518" d="M197 1069Q287 1111 317 1143T362 1241H240L299 1518H547L504 1315Q480 1193 452 1137T376 1042T238 963L197 1069Z"/><glyph unicode="‚" horiz-adv-x="518" d="M-61 -147Q27 -104 56 -73T102 29H-20L37 301H287L244 96Q217 -27 188 -82T108 -177T-23 -252L-61 -147Z"/><glyph unicode="“" horiz-adv-x="918" d="M487 1518L526 1413Q442 1373 411 1341T365 1243H483L430 975H184L225 1174Q249 1288 277 1345T353 1441T487 1518ZM891 1518L932 1413Q841 1370 811 1337T768 1243H889L834 975H588L631 1174Q654 1286 682 1343T756 1439T891 1518Z"/><glyph unicode="”" horiz-adv-x="918" d="M199 1077Q282 1116 315 1148T362 1249H242L299 1518H543L500 1317Q475 1196 448 1143T374 1052T238 975L199 1077ZM602 1077Q691 1119 721 1152T766 1249H645L702 1518H944L905 1317Q880 1196 853 1143T779 1052T643 975L602 1077Z"/><glyph unicode="„" horiz-adv-x="918" d="M-61 -143Q24 -104 55 -72T100 29H-20L35 295H281L240 96Q213 -26 185 -79T108 -172T-23 -246L-61 -143ZM342 -143Q429 -104 460 -70T504 29H385L438 295H684L643 96Q616 -26 587 -79T510 -172T381 -246L342 -143Z"/><glyph unicode="†" horiz-adv-x="1139" d="M510 928H154L190 1116H547L649 1589H846L743 1116H1102L1065 928H707L436 -340H240L510 928Z"/><glyph unicode="‡" horiz-adv-x="1139" d="M348 176H-8L29 365H385L510 928H154L190 1116H547L649 1589H846L743 1116H1102L1065 928H707L584 365H942L903 176H545L436 -340H240L348 176Z"/><glyph unicode="•" horiz-adv-x="725" d="M207 807H537L463 438H133L207 807Z"/><glyph unicode="…" horiz-adv-x="1485" d="M29 270H279L223 0H-25L29 270ZM512 270H764L707 0H457L512 270ZM997 270H1247L1192 0H942L997 270Z"/><glyph unicode="‰" horiz-adv-x="3197" d="M498 569Q320 569 225 660T129 924Q129 1100 190 1242T362 1463T612 1542Q789 1542 885 1449T981 1180Q981 1002 920 863T748 646T498 569ZM512 729Q641 729 721 853T801 1171Q801 1376 604 1376Q470 1376 391 1252T311 932Q311 729 512 729ZM1657 -23Q1474 -23 1380 68T1286 332Q1286 509 1347 650T1519 871T1769 950Q1948 950 2043 857T2138 588Q2138 412 2077 272T1905 55T1657 -23ZM1667 137Q1797 137 1876 262T1956 580Q1956 786 1759 786Q1628 786 1548 663T1468 340Q1468 137 1667 137ZM2589 -23Q2410 -23 2315 67T2220 332Q2220 509 2281 650T2453 871T2703 950Q2881 950 2977 857T3074 588Q3074 413 3012 273T2839 55T2589 -23ZM2603 137Q2733 137 2812 263T2892 580Q2892 786 2693 786Q2561 786 2482 663T2402 340Q2402 137 2603 137ZM1622 1518H1810L666 0H477L1622 1518Z"/><glyph unicode="‹" horiz-adv-x="899" d="M139 567L569 1139H750L334 567L506 0H328L139 567Z"/><glyph unicode="›" horiz-adv-x="899" d="M487 571L315 1139H496L684 569L254 0H72L487 571Z"/><glyph unicode="€" horiz-adv-x="1346" d="M59 686H271Q278 747 295 844H96L127 1004H338Q428 1269 586 1405T954 1542Q1210 1542 1366 1438L1245 1276Q1183 1317 1113 1335T950 1354Q815 1354 711 1268T539 1004H1038L1008 844H493Q475 766 466 686H971L938 524H455V483Q455 317 531 238T762 158Q810 158 872 167T1006 215L1096 61Q939 -25 739 -25Q260 -25 260 475V524H29L59 686Z"/><glyph unicode="™" horiz-adv-x="2236" d="M1167 1518H1341L1485 791L1944 1518H2120L1921 586H1769L1913 1247L1495 586H1391L1260 1247L1112 586H969L1167 1518ZM573 1374H258L287 1518H1075L1044 1374H727L559 586H406L573 1374Z"/><glyph unicode="∙" horiz-adv-x="518" d="M150 836H399L342 561H94L150 836Z"/><glyph unicode="ﬀ" horiz-adv-x="1452" d="M963 958H517L242 -338H41L318 958H102L141 1139H356L381 1253Q420 1439 517 1514T805 1589H918L883 1415H809Q708 1415 653 1375T575 1231L555 1139H1001L1026 1253Q1065 1437 1161 1513T1450 1589H1579L1544 1415H1454Q1384 1415 1338 1396T1264 1341T1219 1231L1199 1139H1483L1446 958H1161L887 -338H686L963 958Z"/><glyph unicode="ﬁ" horiz-adv-x="1278" d="M141 1139H356L381 1253Q420 1439 517 1514T805 1589H918L883 1415H809Q708 1415 653 1375T575 1231L555 1139H821L786 958H517L242 -338H41L318 958H102L141 1139ZM1001 1139H1200L958 0H760L1001 1139ZM1081 1518H1280L1231 1276H1030L1081 1518Z"/><glyph unicode="ﬂ" horiz-adv-x="1384" d="M141 1139H356L381 1253Q420 1439 517 1514T805 1589H918L883 1415H809Q708 1415 653 1375T575 1231L555 1139H821L786 958H517L242 -338H41L318 958H102L141 1139ZM1026 -2Q911 -2 860 42T809 180Q809 241 827 326L1098 1589H1296L1024 317Q1013 269 1013 243Q1013 206 1036 191T1118 176H1167L1130 2Q1100 -2 1026 -2Z"/><glyph unicode="ﬃ" horiz-adv-x="1923" d="M963 958H517L242 -338H41L318 958H102L141 1139H356L381 1253Q420 1439 517 1514T805 1589H918L883 1415H809Q708 1415 653 1375T575 1231L555 1139H1001L1026 1253Q1065 1437 1161 1513T1450 1589H1561L1526 1415H1454Q1384 1415 1338 1396T1264 1341T1219 1231L1199 1139H1466L1430 958H1161L887 -338H686L963 958ZM1645 1139H1843L1602 0H1403L1645 1139ZM1724 1518H1925L1874 1276H1675L1724 1518Z"/><glyph unicode="ﬄ" horiz-adv-x="2030" d="M963 958H517L242 -338H41L318 958H102L141 1139H356L381 1253Q420 1439 517 1514T805 1589H918L883 1415H809Q708 1415 653 1375T575 1231L555 1139H1001L1026 1253Q1065 1437 1161 1513T1450 1589H1561L1526 1415H1454Q1384 1415 1338 1396T1264 1341T1219 1231L1199 1139H1466L1430 958H1161L887 -338H686L963 958ZM1671 -2Q1555 -2 1504 42T1453 180Q1453 241 1470 326L1741 1589H1939L1667 317Q1658 272 1658 245Q1658 206 1680 191T1761 176H1810L1774 2Q1746 -2 1671 -2Z"/></font>
</defs>
</svg>
