<?xml version="1.0" standalone="yes"?><svg version="1.1" xmlns = 'http://www.w3.org/2000/svg'><defs><font id='web' horiz-adv-x="1000">
<font-face font-family="web" descent="-344" cap-height="1518" units-per-em="2048" bbox="-108,-588,3025,2130" x-height="1161" ascent="1612" />
<missing-glyph horiz-adv-x="1024" d="" /><glyph horiz-adv-x="1411" d="M 825 891 L 522 891 L 522 0 L 213 0 L 213 891 L 25 891 L 25 1161 L 213 1161 L 213 1255 C 213 1493 348 1612 618 1612 L 682 1612 L 725 1610 L 725 1341 L 649 1341 C 601 1341 568 1332 550 1316 C 531 1300 522 1268 522 1221 L 522 1161 L 825 1161 L 825 1255 C 825 1493 961 1612 1233 1612 C 1307 1612 1363 1610 1401 1608 L 1401 1341 L 1262 1341 C 1213 1341 1180 1332 1162 1315 C 1144 1297 1135 1266 1135 1221 L 1135 1161 L 1401 1161 L 1401 891 L 1135 891 L 1135 0 L 825 0 L 825 891 Z" unicode="ﬀ" />
<glyph horiz-adv-x="997" d="M 348 1645 L 666 1645 L 379 1270 L 141 1270 L 348 1645 Z M 772 1645 L 1087 1645 L 801 1270 L 565 1270 L 772 1645 Z" unicode="˝" />
<glyph horiz-adv-x="532" d="M 90 944 L 442 944 L 442 569 L 90 569 L 90 944 Z" unicode="∙" />
<glyph horiz-adv-x="1536" d="" unicode="∆" />
<glyph horiz-adv-x="1243" d="M 25 1161 L 213 1161 L 213 1255 C 213 1493 348 1612 618 1612 L 682 1612 L 725 1610 L 725 1341 L 649 1341 C 601 1341 568 1332 550 1316 C 531 1300 522 1268 522 1221 L 522 1161 L 725 1161 L 725 891 L 522 891 L 522 0 L 213 0 L 213 891 L 25 891 L 25 1161 Z M 825 1161 L 1135 1161 L 1135 0 L 825 0 L 825 1161 Z M 825 1546 L 1137 1546 L 1137 1266 L 825 1266 L 825 1546 Z" unicode="ﬁ" />
<glyph horiz-adv-x="1247" d="M 47 705 L 242 705 L 242 811 L 47 811 L 47 1030 L 256 1030 C 276 1209 328 1338 412 1417 C 495 1496 623 1536 795 1536 C 949 1536 1082 1504 1192 1440 L 1047 1178 C 1011 1196 973 1210 934 1221 C 894 1231 847 1237 793 1237 C 725 1237 674 1220 640 1187 C 605 1154 581 1102 569 1030 L 918 1030 L 918 811 L 553 811 L 553 705 L 918 705 L 918 485 L 570 485 C 583 409 607 353 643 319 C 678 285 728 268 793 268 C 848 268 896 274 937 288 C 977 301 1015 317 1051 336 L 1190 88 C 1118 48 1049 20 983 5 C 917 -10 846 -18 772 -18 C 610 -18 488 21 408 100 C 327 178 276 307 256 485 L 47 485 L 47 705 Z" unicode="€" />
<glyph horiz-adv-x="1280" d="" unicode="∂" />
<glyph horiz-adv-x="1536" d="" unicode="∏" />
<glyph horiz-adv-x="1152" d="" unicode="∑" />
<glyph horiz-adv-x="1247" d="" unicode="−" />
<glyph horiz-adv-x="1276" d="M 61 823 L 1214 823 L 1214 541 L 61 541 L 61 823 Z" unicode="–" />
<glyph horiz-adv-x="1636" d="M 61 823 L 1577 823 L 1577 541 L 61 541 L 61 823 Z" unicode="—" />
<glyph horiz-adv-x="977" d="" unicode="∕" />
<glyph horiz-adv-x="1194" d="" unicode="Ș" />
<glyph horiz-adv-x="930" d="" unicode="ș" />
<glyph horiz-adv-x="1186" d="M 455 -471 C 509 -441 542 -419 556 -404 C 569 -389 576 -367 576 -338 L 457 -338 L 457 -72 L 727 -72 L 727 -313 C 727 -368 721 -410 709 -438 C 697 -466 676 -491 648 -514 C 620 -536 577 -561 521 -588 L 455 -471 Z M 430 1225 L 23 1225 L 23 1518 L 1163 1518 L 1163 1225 L 754 1225 L 754 0 L 430 0 L 430 1225 Z" unicode="Ț" />
<glyph horiz-adv-x="850" d="M 244 -471 C 298 -441 331 -419 345 -404 C 358 -389 365 -367 365 -338 L 246 -338 L 246 -72 L 516 -72 L 516 -313 C 516 -368 510 -410 498 -438 C 486 -466 465 -491 437 -514 C 409 -536 366 -561 310 -588 L 244 -471 Z M 25 1161 L 221 1161 L 268 1421 L 514 1477 L 514 1161 L 778 1161 L 778 891 L 514 891 L 514 391 C 514 351 518 324 526 310 C 534 295 548 284 567 278 C 585 271 611 268 645 268 L 778 268 L 778 0 L 689 -6 L 606 -10 C 504 -10 424 1 368 24 C 311 47 270 84 245 134 C 219 184 207 258 207 354 L 207 891 L 25 891 L 25 1161 Z" unicode="ț" />
<glyph horiz-adv-x="973" d="M 90 1153 C 90 1229 96 1285 110 1323 C 123 1360 146 1393 180 1421 C 213 1449 268 1482 346 1520 L 426 1372 C 364 1338 324 1310 307 1290 C 289 1270 281 1240 281 1200 L 434 1200 L 434 834 L 90 834 L 90 1153 Z M 541 1153 C 541 1231 547 1288 560 1324 C 573 1360 596 1393 629 1421 C 662 1449 717 1482 795 1520 L 877 1372 C 813 1336 772 1309 755 1289 C 737 1269 729 1239 729 1200 L 883 1200 L 883 834 L 541 834 L 541 1153 Z" unicode="“" />
<glyph horiz-adv-x="973" d="M 96 979 C 156 1011 196 1038 215 1059 C 234 1079 244 1109 244 1149 L 90 1149 L 90 1518 L 432 1518 L 432 1198 C 432 1118 425 1059 411 1022 C 397 985 374 953 340 925 C 306 897 252 865 178 831 L 96 979 Z M 549 979 C 607 1009 645 1035 664 1056 C 682 1077 692 1108 692 1149 L 539 1149 L 539 1518 L 883 1518 L 883 1198 C 883 1120 876 1063 863 1026 C 849 988 826 956 793 928 C 760 900 705 867 627 831 L 549 979 Z" unicode="”" />
<glyph horiz-adv-x="973" d="M 96 -164 C 156 -131 196 -104 215 -84 C 234 -63 244 -33 244 6 L 90 6 L 90 375 L 432 375 L 432 55 C 432 -24 425 -82 411 -119 C 397 -156 374 -188 341 -216 C 307 -244 253 -275 178 -311 L 96 -164 Z M 549 -164 C 607 -133 645 -107 664 -86 C 682 -65 692 -34 692 6 L 539 6 L 539 375 L 883 375 L 883 55 C 883 -21 876 -78 863 -116 C 849 -153 827 -185 795 -213 C 763 -241 707 -273 627 -311 L 549 -164 Z" unicode="„" />
<glyph horiz-adv-x="348" d="" unicode=" " />
<glyph horiz-adv-x="707" d="M 176 360 L 528 360 L 528 0 L 176 0 L 176 360 Z M 186 1518 L 522 1518 L 494 473 L 213 473 L 186 1518 Z" unicode="!" />
<glyph horiz-adv-x="1044" d="M 141 1518 L 461 1518 L 446 803 L 156 803 L 141 1518 Z M 584 1518 L 903 1518 L 887 803 L 600 803 L 584 1518 Z" unicode="&#x22;" />
<glyph horiz-adv-x="1325" d="M 236 371 L 84 371 L 84 653 L 279 653 L 301 809 L 84 809 L 84 1090 L 344 1090 L 408 1518 L 700 1518 L 637 1090 L 791 1090 L 854 1518 L 1147 1518 L 1081 1090 L 1239 1090 L 1239 809 L 1040 809 L 1016 653 L 1239 653 L 1239 371 L 973 371 L 918 0 L 627 0 L 682 371 L 528 371 L 473 0 L 180 0 L 236 371 Z M 745 631 L 776 831 L 573 831 L 543 631 L 745 631 Z" unicode="#" />
<glyph horiz-adv-x="1153" d="M 39 141 L 184 373 C 234 337 293 309 361 287 C 429 265 497 254 567 254 C 641 254 695 266 729 292 C 763 317 780 362 780 426 C 780 477 765 517 735 545 C 705 573 644 603 553 633 L 436 672 C 310 712 223 763 174 827 C 124 890 100 974 100 1079 C 100 1207 126 1306 180 1376 C 233 1446 318 1491 436 1511 L 436 1677 L 733 1677 L 733 1512 C 845 1496 944 1463 1030 1415 L 889 1167 C 797 1215 695 1239 584 1239 C 522 1239 476 1227 447 1204 C 417 1181 403 1143 403 1090 C 403 1046 418 1011 450 985 C 482 958 543 931 633 905 C 730 875 797 851 835 834 C 872 816 906 796 936 774 C 966 751 992 724 1014 694 C 1036 664 1053 628 1065 588 C 1077 547 1083 501 1083 449 C 1083 309 1054 205 997 136 C 940 67 852 24 733 7 L 733 -190 L 438 -190 L 438 1 C 347 11 272 27 212 49 C 152 71 94 101 39 141 Z" unicode="$" />
<glyph horiz-adv-x="2185" d="M 465 528 C 321 528 216 568 151 648 C 85 728 53 855 53 1030 C 53 1204 85 1332 151 1412 C 216 1492 321 1532 465 1532 C 610 1532 716 1491 782 1411 C 848 1331 881 1204 881 1030 C 881 856 848 728 782 648 C 716 568 610 528 465 528 Z M 467 758 C 519 758 556 777 576 816 C 596 855 606 924 606 1022 C 606 1119 596 1187 576 1227 C 556 1266 520 1286 467 1286 C 414 1286 378 1266 358 1227 C 338 1188 328 1120 328 1022 C 328 923 338 854 358 816 C 378 777 414 758 467 758 Z M 1716 -14 C 1573 -14 1469 25 1403 104 C 1337 183 1305 311 1305 489 C 1305 664 1337 791 1403 871 C 1468 951 1572 991 1716 991 C 1861 991 1967 951 2033 871 C 2099 791 2132 664 2132 489 C 2132 313 2099 185 2033 105 C 1967 25 1861 -14 1716 -14 Z M 1718 215 C 1771 215 1808 234 1829 272 C 1849 310 1860 379 1860 479 C 1860 579 1849 648 1829 686 C 1808 724 1771 743 1718 743 C 1665 743 1629 723 1609 684 C 1589 645 1579 577 1579 479 C 1579 381 1588 313 1608 274 C 1628 234 1664 215 1718 215 Z M 1300 1518 L 1587 1518 L 887 0 L 602 0 L 1300 1518 Z" unicode="%" />
<glyph horiz-adv-x="1489" d="M 586 -16 C 402 -16 267 18 181 88 C 95 158 53 268 53 418 C 53 585 127 714 275 806 L 342 846 C 274 954 240 1061 240 1167 C 240 1292 274 1387 342 1451 C 410 1515 509 1548 639 1548 C 769 1548 866 1516 929 1453 C 992 1389 1024 1294 1024 1167 C 1024 1089 1002 1017 960 951 C 917 885 850 824 759 770 L 1005 498 C 1022 542 1037 594 1050 654 C 1063 713 1078 811 1096 948 L 1356 918 C 1338 753 1316 622 1291 525 C 1265 428 1235 347 1199 283 L 1456 0 L 1073 0 L 1003 78 C 898 15 759 -16 586 -16 Z M 499 641 C 446 602 410 567 390 535 C 370 503 360 468 360 432 C 360 381 367 343 382 318 C 397 292 421 273 454 259 C 486 245 530 238 586 238 C 678 238 755 252 819 282 L 499 641 Z M 741 1167 C 741 1205 733 1233 718 1253 C 703 1272 677 1282 639 1282 C 601 1282 574 1272 560 1253 C 546 1233 539 1205 539 1167 C 539 1135 543 1104 553 1074 C 562 1044 579 1008 604 966 C 695 1026 741 1093 741 1167 Z" unicode="&#x26;" />
<glyph horiz-adv-x="602" d="M 141 1518 L 463 1518 L 449 803 L 156 803 L 141 1518 Z" unicode="'" />
<glyph horiz-adv-x="913" d="M 516 -365 C 446 -296 384 -211 332 -110 C 279 -8 238 104 209 228 C 180 352 166 484 166 623 C 166 753 181 882 212 1008 C 242 1134 284 1249 338 1355 C 392 1461 451 1546 516 1612 L 745 1470 C 677 1379 626 1293 591 1213 C 556 1133 529 1044 510 947 C 490 849 481 742 481 625 C 481 459 503 303 547 157 C 591 11 657 -116 745 -225 L 516 -365 Z" unicode="(" />
<glyph horiz-adv-x="913" d="M 170 -225 C 240 -127 291 -38 325 39 C 358 117 384 205 403 301 C 422 397 432 504 432 623 C 432 785 410 940 366 1086 C 322 1232 257 1360 170 1470 L 397 1612 C 508 1502 594 1360 656 1186 C 717 1012 748 825 748 625 C 748 493 732 363 701 235 C 670 107 628 -9 574 -114 C 520 -219 461 -303 397 -365 L 170 -225 Z" unicode=")" />
<glyph horiz-adv-x="1087" d="M 446 827 L 217 647 L 82 870 L 356 1016 L 82 1163 L 215 1384 L 446 1202 L 418 1520 L 664 1520 L 637 1198 L 870 1384 L 1004 1165 L 727 1016 L 1004 868 L 872 649 L 637 831 L 664 512 L 418 512 L 446 827 Z" unicode="*" />
<glyph horiz-adv-x="1247" d="M 477 588 L 162 588 L 162 856 L 477 856 L 477 1225 L 770 1225 L 770 856 L 1085 856 L 1085 588 L 770 588 L 770 215 L 477 215 L 477 588 Z" unicode="+" />
<glyph horiz-adv-x="532" d="M 96 -158 C 150 -128 186 -107 203 -95 C 219 -83 231 -70 237 -58 C 243 -45 246 -26 246 0 L 90 0 L 90 367 L 442 367 L 442 31 C 442 -38 434 -90 420 -124 C 406 -158 381 -189 345 -217 C 309 -245 255 -277 182 -313 L 96 -158 Z" unicode="," />
<glyph horiz-adv-x="711" d="M 61 823 L 647 823 L 647 541 L 61 541 L 61 823 Z" unicode="-" />
<glyph horiz-adv-x="532" d="M 90 367 L 442 367 L 442 0 L 90 0 L 90 367 Z" unicode="." />
<glyph horiz-adv-x="1014" d="M 700 1518 L 1014 1518 L 313 0 L 0 0 L 700 1518 Z" unicode="/" />
<glyph horiz-adv-x="1313" d="M 659 -18 C 553 -18 464 -4 392 23 C 320 50 262 92 220 148 C 178 204 147 279 128 373 C 109 467 100 595 100 758 C 100 928 110 1059 130 1151 C 150 1243 181 1317 224 1372 C 266 1427 323 1468 395 1495 C 467 1522 555 1536 659 1536 C 793 1536 900 1512 981 1465 C 1062 1418 1121 1343 1157 1240 C 1193 1137 1212 976 1212 758 C 1212 586 1202 453 1183 361 C 1163 268 1133 195 1091 141 C 1049 87 992 47 921 21 C 850 -5 763 -18 659 -18 Z M 659 268 C 720 268 767 282 801 310 C 834 338 858 384 873 448 C 887 511 895 614 895 758 C 895 895 887 995 873 1059 C 859 1122 835 1167 802 1195 C 769 1223 721 1237 659 1237 C 595 1237 547 1223 513 1195 C 479 1167 455 1122 441 1059 C 427 996 420 896 420 758 C 420 617 427 514 442 450 C 456 386 480 339 514 311 C 548 282 596 268 659 268 Z" unicode="0" />
<glyph horiz-adv-x="731" d="M 256 1235 L 47 1235 L 47 1518 L 565 1518 L 565 0 L 256 0 L 256 1235 Z" unicode="1" />
<glyph horiz-adv-x="1106" d="M 49 246 L 430 655 C 500 730 552 790 586 835 C 620 879 643 918 656 952 C 669 986 676 1028 676 1079 C 676 1139 660 1181 630 1205 C 599 1229 549 1241 481 1241 C 435 1241 384 1234 328 1221 C 272 1208 223 1191 180 1169 L 47 1430 C 128 1470 207 1497 285 1513 C 362 1528 445 1536 535 1536 C 691 1536 806 1502 878 1436 C 950 1370 987 1266 987 1126 C 987 1043 978 974 961 920 C 943 866 913 808 870 747 C 826 685 753 598 649 485 L 451 270 L 1012 270 L 1012 0 L 49 0 L 49 246 Z" unicode="2" />
<glyph horiz-adv-x="1114" d="M 512 -18 C 414 -18 328 -9 256 7 C 183 24 111 53 39 94 L 178 350 C 238 318 291 295 337 283 C 383 270 435 264 492 264 C 554 264 602 270 634 284 C 666 297 689 319 703 349 C 716 379 723 423 723 481 C 723 534 715 573 700 598 C 685 623 661 641 628 653 C 594 664 546 670 483 670 L 268 670 L 268 926 L 487 926 C 561 926 613 937 642 961 C 671 985 686 1027 686 1087 C 686 1143 672 1183 644 1206 C 616 1229 565 1241 489 1241 C 390 1241 290 1217 190 1171 L 59 1423 C 190 1498 350 1536 539 1536 C 653 1536 742 1523 806 1499 C 869 1474 916 1435 946 1382 C 976 1328 991 1257 991 1169 C 991 1064 979 987 956 937 C 932 887 895 851 844 831 C 894 814 933 791 959 763 C 985 735 1003 696 1015 646 C 1026 596 1032 531 1032 449 C 1032 283 991 164 911 91 C 831 18 698 -18 512 -18 Z" unicode="3" />
<glyph horiz-adv-x="1210" d="M 55 539 L 586 1518 L 909 1518 L 387 555 L 698 555 L 760 979 L 983 979 L 983 555 L 1167 555 L 1167 299 L 983 299 L 983 0 L 694 0 L 694 299 L 55 299 L 55 539 Z" unicode="4" />
<glyph horiz-adv-x="1159" d="M 561 -18 C 353 -18 180 20 43 96 L 182 350 C 242 317 300 294 355 282 C 410 270 472 264 541 264 C 607 264 656 271 688 287 C 720 302 743 327 757 363 C 771 398 778 446 778 506 C 778 565 771 612 757 646 C 743 680 721 705 693 720 C 664 735 620 743 561 743 C 474 743 402 725 346 690 L 106 760 L 147 1518 L 1016 1518 L 1016 1235 L 412 1235 L 397 965 C 457 999 550 1016 676 1016 C 781 1016 863 999 921 966 C 979 933 1021 880 1049 808 C 1076 735 1090 636 1090 512 C 1090 380 1072 276 1038 200 C 1004 123 951 67 880 33 C 808 0 702 -18 561 -18 Z" unicode="5" />
<glyph horiz-adv-x="1253" d="M 651 -18 C 546 -18 458 -6 387 17 C 315 40 258 75 216 123 C 173 170 142 233 123 313 C 103 393 94 507 94 655 C 94 861 105 1015 128 1115 C 151 1215 189 1293 241 1350 C 293 1407 365 1449 457 1477 C 549 1504 665 1518 805 1518 L 983 1518 L 983 1235 L 788 1235 C 698 1235 626 1225 574 1207 C 521 1188 482 1159 457 1121 C 431 1082 416 1020 410 934 C 469 1003 585 1038 758 1038 C 860 1038 941 1020 1003 985 C 1065 949 1110 897 1139 827 C 1167 757 1182 656 1182 526 C 1182 390 1164 283 1128 207 C 1092 130 1036 73 958 37 C 880 0 778 -18 651 -18 Z M 657 254 C 733 254 787 273 820 312 C 853 351 870 422 870 524 C 870 617 854 684 823 724 C 791 764 738 784 662 784 C 578 784 516 763 477 721 C 437 679 418 617 418 535 C 418 457 425 400 440 362 C 455 324 480 296 514 279 C 548 262 596 254 657 254 Z" unicode="6" />
<glyph horiz-adv-x="1026" d="M 649 1235 L 37 1235 L 37 1518 L 987 1518 L 987 1274 L 547 0 L 215 0 L 649 1235 Z" unicode="7" />
<glyph horiz-adv-x="1251" d="M 625 -18 C 529 -18 447 -9 378 8 C 308 26 252 51 210 85 C 168 118 136 162 115 216 C 94 270 84 343 84 434 C 84 526 90 595 103 641 C 116 687 137 727 166 759 C 195 791 235 817 285 836 C 229 862 189 899 164 948 C 139 997 127 1069 127 1163 C 127 1294 168 1389 252 1448 C 336 1506 460 1536 625 1536 C 741 1536 835 1522 908 1495 C 980 1467 1034 1428 1069 1376 C 1104 1324 1122 1253 1122 1163 C 1122 1068 1108 995 1082 945 C 1055 894 1015 858 963 836 C 1015 817 1055 792 1085 760 C 1114 728 1135 690 1149 646 C 1162 601 1169 530 1169 434 C 1169 343 1158 271 1137 217 C 1116 163 1084 119 1041 85 C 998 51 941 25 871 8 C 801 -9 719 -18 625 -18 Z M 625 246 C 703 246 761 263 798 298 C 835 332 854 392 854 477 C 854 560 836 619 800 653 C 764 687 706 705 625 705 C 545 705 488 688 452 654 C 416 620 399 561 399 477 C 399 392 417 332 453 298 C 489 263 547 246 625 246 Z M 625 928 C 693 928 742 941 773 967 C 803 993 819 1037 819 1100 C 819 1160 803 1204 773 1231 C 743 1258 693 1272 625 1272 C 557 1272 507 1258 476 1231 C 445 1204 430 1160 430 1100 C 430 1039 445 995 476 968 C 507 941 557 928 625 928 Z" unicode="8" />
<glyph horiz-adv-x="1253" d="M 268 270 L 465 270 C 555 270 626 279 678 298 C 730 316 769 345 795 385 C 820 425 836 488 842 575 C 786 505 670 471 496 471 C 394 471 313 488 251 523 C 189 557 144 610 115 680 C 86 750 72 850 72 981 C 72 1181 113 1324 196 1409 C 278 1493 413 1536 600 1536 C 704 1536 793 1524 865 1501 C 937 1477 994 1442 1036 1394 C 1078 1346 1109 1282 1129 1202 C 1149 1122 1159 1009 1159 862 C 1159 657 1147 505 1124 405 C 1100 305 1062 227 1010 169 C 957 111 885 69 794 41 C 702 13 586 0 446 0 L 268 0 L 268 270 Z M 590 723 C 674 723 736 744 776 786 C 816 828 836 891 836 975 C 836 1051 828 1108 813 1145 C 798 1182 773 1209 739 1227 C 704 1244 656 1253 594 1253 C 518 1253 464 1233 431 1194 C 397 1154 381 1084 381 983 C 381 891 396 824 428 784 C 460 743 514 723 590 723 Z" unicode="9" />
<glyph horiz-adv-x="565" d="M 106 358 L 457 358 L 457 0 L 106 0 L 106 358 Z M 106 1161 L 457 1161 L 457 803 L 106 803 L 106 1161 Z" unicode=":" />
<glyph horiz-adv-x="565" d="M 106 1161 L 457 1161 L 457 803 L 106 803 L 106 1161 Z M 113 -158 C 183 -120 225 -93 240 -77 C 254 -60 262 -34 262 0 L 106 0 L 106 358 L 457 358 L 457 31 C 457 -39 449 -91 435 -125 C 420 -159 395 -191 359 -219 C 323 -247 269 -279 199 -313 L 113 -158 Z" unicode=";" />
<glyph horiz-adv-x="1245" d="M 186 602 L 186 815 L 989 1260 L 989 963 L 510 711 L 989 457 L 989 158 L 186 602 Z" unicode="&#x3C;" />
<glyph horiz-adv-x="1247" d="M 164 625 L 1083 625 L 1083 340 L 164 340 L 164 625 Z M 164 1092 L 1083 1092 L 1083 809 L 164 809 L 164 1092 Z" unicode="=" />
<glyph horiz-adv-x="1247" d="M 254 455 L 735 707 L 254 961 L 254 1260 L 1059 815 L 1059 602 L 254 158 L 254 455 Z" unicode="&#x3E;" />
<glyph horiz-adv-x="1171" d="M 397 444 L 397 481 C 397 557 402 615 413 655 C 423 695 443 732 471 767 C 499 802 543 843 602 891 C 670 947 713 988 730 1014 C 747 1040 756 1072 756 1108 C 756 1159 739 1195 707 1217 C 675 1238 623 1249 551 1249 C 453 1249 352 1224 246 1174 L 111 1434 C 247 1502 411 1536 604 1536 C 761 1536 877 1506 953 1448 C 1029 1390 1067 1297 1067 1169 C 1067 1114 1062 1067 1052 1029 C 1042 991 1029 957 1011 928 C 993 899 972 873 947 850 C 922 826 894 802 864 776 C 810 732 772 698 751 672 C 729 646 715 621 708 595 C 701 569 698 532 698 484 L 698 444 L 397 444 Z M 371 322 L 723 322 L 723 0 L 371 0 L 371 322 Z" unicode="?" />
<glyph horiz-adv-x="1763" d="M 883 -338 C 689 -338 534 -306 417 -243 C 299 -179 213 -81 158 52 C 103 186 76 367 76 596 C 76 824 103 1005 158 1139 C 213 1273 299 1372 416 1436 C 533 1500 689 1532 883 1532 C 1075 1532 1230 1500 1347 1436 C 1464 1372 1550 1273 1605 1139 C 1660 1005 1688 824 1688 596 C 1688 445 1677 335 1657 265 C 1637 195 1603 145 1557 113 C 1510 81 1444 66 1360 66 C 1212 66 1124 112 1096 205 C 1042 112 930 66 760 66 C 680 66 614 82 562 116 C 510 150 472 203 447 276 C 422 349 410 455 410 594 C 410 729 422 833 446 905 C 470 977 508 1031 560 1069 C 612 1107 680 1126 766 1126 C 845 1126 906 1119 948 1105 C 990 1091 1023 1066 1047 1028 L 1098 1116 L 1296 1098 L 1296 414 C 1298 382 1299 356 1301 334 C 1303 312 1307 295 1313 282 C 1319 268 1328 259 1340 253 C 1352 247 1369 244 1391 244 C 1426 244 1451 253 1465 271 C 1479 289 1488 322 1494 369 C 1500 415 1503 491 1503 596 C 1503 786 1482 936 1441 1046 C 1399 1156 1334 1236 1245 1287 C 1155 1338 1035 1364 883 1364 C 729 1364 608 1338 518 1287 C 428 1236 363 1155 322 1045 C 280 934 260 784 260 596 C 260 406 280 256 322 146 C 363 36 428 -43 518 -94 C 608 -144 729 -170 883 -170 C 1043 -170 1200 -138 1356 -76 L 1423 -233 C 1329 -271 1240 -298 1157 -314 C 1073 -330 982 -338 883 -338 Z M 848 301 C 893 301 928 309 954 326 C 979 343 997 370 1008 406 C 1018 442 1024 504 1024 592 C 1024 679 1018 740 1008 774 C 997 808 979 832 955 848 C 931 864 895 872 848 872 C 788 872 746 853 722 815 C 698 777 686 702 686 590 C 686 504 691 442 701 406 C 711 370 728 343 751 326 C 774 309 806 301 848 301 Z" unicode="@" />
<glyph horiz-adv-x="1343" d="M 500 1528 L 844 1528 L 1317 0 L 987 0 L 918 236 L 416 236 L 348 0 L 27 0 L 500 1528 Z M 840 518 L 668 1094 L 492 518 L 840 518 Z" unicode="A" />
<glyph horiz-adv-x="1262" d="M 119 1518 L 674 1518 C 838 1518 959 1486 1039 1422 C 1119 1358 1159 1260 1159 1128 C 1159 955 1099 844 981 795 C 1055 768 1108 725 1141 665 C 1173 605 1190 524 1190 424 C 1190 141 1022 0 686 0 L 119 0 L 119 1518 Z M 682 268 C 747 268 794 283 823 313 C 851 343 866 388 866 449 C 866 510 851 555 823 583 C 795 611 747 625 680 625 L 434 625 L 434 268 L 682 268 Z M 664 905 C 725 905 769 919 797 947 C 824 975 838 1019 838 1079 C 838 1138 824 1180 797 1204 C 770 1228 726 1241 664 1241 L 434 1241 L 434 905 L 664 905 Z" unicode="B" />
<glyph horiz-adv-x="1155" d="M 664 -18 C 521 -18 405 9 316 64 C 226 119 160 202 118 313 C 76 423 55 572 55 758 C 55 951 77 1103 122 1214 C 167 1325 236 1406 329 1458 C 421 1510 541 1536 688 1536 C 850 1536 987 1499 1100 1425 L 928 1159 C 858 1201 775 1223 678 1223 C 599 1223 539 1207 498 1177 C 456 1146 426 1096 408 1028 C 390 960 381 867 381 750 C 381 627 390 532 409 464 C 428 396 458 347 500 316 C 542 285 602 270 680 270 C 734 270 783 276 825 289 C 867 302 908 322 948 348 L 1106 100 C 1036 56 968 26 900 8 C 832 -9 754 -18 664 -18 Z" unicode="C" />
<glyph horiz-adv-x="1315" d="M 119 1518 L 592 1518 C 764 1518 897 1493 991 1444 C 1085 1395 1153 1316 1196 1208 C 1238 1100 1260 950 1260 760 C 1260 565 1239 414 1197 306 C 1155 198 1088 120 996 72 C 903 24 768 0 592 0 L 119 0 L 119 1518 Z M 621 279 C 707 279 772 294 814 324 C 856 354 886 404 905 472 C 924 540 934 636 934 758 C 934 880 924 975 905 1041 C 886 1107 855 1154 812 1182 C 769 1210 702 1225 612 1225 L 440 1225 L 440 279 L 621 279 Z" unicode="D" />
<glyph horiz-adv-x="1141" d="M 119 1518 L 1055 1518 L 1055 1225 L 432 1225 L 432 922 L 1028 922 L 1028 631 L 432 631 L 432 287 L 1057 287 L 1057 0 L 119 0 L 119 1518 Z" unicode="E" />
<glyph horiz-adv-x="1112" d="M 119 1518 L 1057 1518 L 1057 1225 L 440 1225 L 440 897 L 1028 897 L 1028 606 L 440 606 L 440 0 L 119 0 L 119 1518 Z" unicode="F" />
<glyph horiz-adv-x="1262" d="M 645 -18 C 504 -18 390 9 304 63 C 218 117 155 198 115 307 C 75 415 55 566 55 758 C 55 951 76 1103 119 1214 C 162 1324 230 1406 323 1458 C 416 1510 542 1536 700 1536 C 870 1536 1017 1497 1141 1419 L 971 1153 C 885 1202 790 1227 686 1227 C 602 1227 539 1211 498 1181 C 457 1150 427 1100 407 1032 C 387 963 377 869 377 750 C 377 619 386 519 404 450 C 422 380 452 330 494 300 C 535 269 595 254 674 254 C 733 254 779 264 812 284 C 844 304 868 337 882 381 C 896 425 903 494 903 588 L 903 625 L 608 625 L 608 901 L 1208 901 L 1208 645 C 1208 461 1190 325 1156 235 C 1122 145 1065 81 985 41 C 905 1 792 -18 645 -18 Z" unicode="G" />
<glyph horiz-adv-x="1386" d="M 119 1518 L 440 1518 L 440 942 L 944 942 L 944 1518 L 1268 1518 L 1268 0 L 944 0 L 944 625 L 440 625 L 440 0 L 119 0 L 119 1518 Z" unicode="H" />
<glyph horiz-adv-x="594" d="M 137 1518 L 457 1518 L 457 0 L 137 0 L 137 1518 Z" unicode="I" />
<glyph horiz-adv-x="801" d="M 53 287 L 199 287 C 261 287 305 298 331 320 C 356 342 369 381 369 436 L 369 1518 L 690 1518 L 690 416 C 690 274 656 169 588 101 C 520 33 408 0 252 0 L 53 0 L 53 287 Z" unicode="J" />
<glyph horiz-adv-x="1309" d="M 119 1518 L 436 1518 L 436 894 L 899 1518 L 1268 1518 L 812 929 L 1276 0 L 922 0 L 596 658 L 436 439 L 436 0 L 119 0 L 119 1518 Z" unicode="K" />
<glyph horiz-adv-x="1051" d="M 119 1518 L 440 1518 L 440 287 L 1030 287 L 1030 0 L 119 0 L 119 1518 Z" unicode="L" />
<glyph horiz-adv-x="1649" d="M 119 1518 L 528 1518 L 823 555 L 1122 1518 L 1532 1518 L 1532 0 L 1219 0 L 1219 969 L 915 0 L 709 0 L 403 969 L 403 0 L 119 0 L 119 1518 Z" unicode="M" />
<glyph horiz-adv-x="1378" d="M 119 1518 L 459 1518 L 956 643 L 956 1518 L 1262 1518 L 1262 0 L 967 0 L 424 946 L 424 0 L 119 0 L 119 1518 Z" unicode="N" />
<glyph horiz-adv-x="1368" d="M 684 -18 C 540 -18 422 8 329 60 C 236 112 167 192 122 302 C 77 411 55 563 55 758 C 55 954 77 1107 123 1217 C 168 1327 237 1407 330 1459 C 423 1510 541 1536 684 1536 C 826 1536 944 1510 1037 1459 C 1129 1407 1198 1327 1244 1218 C 1290 1109 1313 956 1313 758 C 1313 562 1290 410 1245 301 C 1200 191 1131 111 1038 59 C 945 7 827 -18 684 -18 Z M 684 266 C 759 266 818 281 862 312 C 906 343 937 390 957 452 C 977 514 987 613 987 748 C 987 881 977 979 957 1041 C 937 1103 906 1150 862 1181 C 818 1211 758 1227 684 1227 C 608 1227 549 1211 505 1180 C 461 1149 430 1103 410 1041 C 390 979 381 881 381 748 C 381 613 390 514 410 452 C 430 389 462 342 506 312 C 550 281 609 266 684 266 Z" unicode="O" />
<glyph horiz-adv-x="1255" d="M 119 1518 L 702 1518 C 872 1518 997 1477 1079 1396 C 1161 1315 1202 1191 1202 1024 C 1202 849 1159 718 1073 630 C 987 542 862 498 696 498 L 434 498 L 434 0 L 119 0 L 119 1518 Z M 692 776 C 761 776 811 793 842 829 C 873 865 889 924 889 1006 C 889 1088 873 1146 843 1182 C 813 1217 762 1235 692 1235 L 434 1235 L 434 776 L 692 776 Z" unicode="P" />
<glyph horiz-adv-x="1368" d="M 889 -375 C 752 -375 650 -349 582 -297 C 514 -245 481 -165 481 -55 L 481 -49 L 481 13 C 380 36 298 77 236 135 C 174 193 128 272 99 371 C 69 470 55 599 55 758 C 55 954 77 1107 123 1217 C 168 1327 237 1407 330 1459 C 423 1510 541 1536 684 1536 C 826 1536 944 1510 1037 1459 C 1129 1407 1198 1327 1244 1218 C 1290 1109 1313 956 1313 758 C 1313 578 1294 437 1256 333 C 1218 229 1160 150 1082 96 C 1003 41 906 9 791 -1 C 792 -42 803 -70 824 -84 C 844 -98 879 -106 928 -106 L 1081 -106 L 1081 -375 L 889 -375 Z M 684 266 C 759 266 818 281 862 312 C 906 343 937 390 957 452 C 977 514 987 613 987 748 C 987 881 977 979 957 1041 C 937 1103 906 1150 862 1181 C 818 1211 758 1227 684 1227 C 608 1227 549 1211 505 1180 C 461 1149 430 1103 410 1041 C 390 979 381 881 381 748 C 381 613 390 514 410 452 C 430 389 462 342 506 312 C 550 281 609 266 684 266 Z" unicode="Q" />
<glyph horiz-adv-x="1278" d="M 119 1518 L 698 1518 C 868 1518 993 1478 1075 1400 C 1157 1321 1198 1199 1198 1034 C 1198 791 1113 631 945 554 L 1188 0 L 852 0 L 634 508 L 434 508 L 434 0 L 119 0 L 119 1518 Z M 690 788 C 761 788 811 805 841 840 C 870 875 885 932 885 1012 C 885 1093 870 1150 840 1184 C 810 1218 760 1235 690 1235 L 434 1235 L 434 788 L 690 788 Z" unicode="R" />
<glyph horiz-adv-x="1194" d="M 600 -18 C 356 -18 165 27 27 119 L 188 365 C 239 332 300 306 370 286 C 440 266 514 256 592 256 C 673 256 732 268 768 292 C 804 316 823 356 823 412 C 823 445 818 472 808 493 C 798 514 781 532 757 548 C 733 564 700 579 660 593 C 619 607 568 623 506 643 C 354 689 248 746 186 814 C 124 882 94 974 94 1090 C 94 1234 138 1344 227 1421 C 315 1497 446 1536 618 1536 C 711 1536 794 1528 867 1514 C 939 1499 1011 1475 1083 1442 L 944 1167 C 850 1212 744 1235 627 1235 C 549 1235 493 1224 459 1203 C 425 1182 408 1148 408 1100 C 408 1068 413 1043 425 1024 C 437 1005 457 988 485 973 C 513 957 568 937 649 911 C 798 863 904 820 966 780 C 1028 740 1071 692 1097 636 C 1122 580 1135 507 1135 418 C 1135 274 1089 166 998 92 C 906 18 774 -18 600 -18 Z" unicode="S" />
<glyph horiz-adv-x="1186" d="M 430 1225 L 23 1225 L 23 1518 L 1163 1518 L 1163 1225 L 754 1225 L 754 0 L 430 0 L 430 1225 Z" unicode="T" />
<glyph horiz-adv-x="1368" d="M 684 -23 C 484 -23 338 20 246 107 C 154 194 109 336 109 532 L 109 1518 L 430 1518 L 430 563 C 430 448 449 370 487 328 C 525 286 592 266 688 266 C 754 266 806 275 843 294 C 880 312 907 342 923 383 C 939 424 948 484 948 563 L 948 1518 L 1260 1518 L 1260 532 C 1260 334 1214 192 1123 106 C 1031 20 885 -23 684 -23 Z" unicode="U" />
<glyph horiz-adv-x="1327" d="M 27 1518 L 356 1518 L 670 455 L 977 1518 L 1303 1518 L 836 -10 L 492 -10 L 27 1518 Z" unicode="V" />
<glyph horiz-adv-x="1841" d="M 43 1518 L 371 1518 L 567 596 L 786 1518 L 1071 1518 L 1292 596 L 1489 1518 L 1796 1518 L 1458 -10 L 1143 -10 L 922 895 L 700 -10 L 383 -10 L 43 1518 Z" unicode="W" />
<glyph horiz-adv-x="1327" d="M 80 1518 L 434 1518 L 677 1086 L 899 1518 L 1247 1518 L 840 797 L 1290 0 L 936 0 L 646 514 L 379 0 L 33 0 L 484 800 L 80 1518 Z" unicode="X" />
<glyph horiz-adv-x="1282" d="M -4 1518 L 338 1518 L 645 856 L 954 1518 L 1284 1518 L 799 510 L 799 0 L 479 0 L 479 514 L -4 1518 Z" unicode="Y" />
<glyph horiz-adv-x="1155" d="M 47 242 L 702 1225 L 76 1225 L 76 1518 L 1085 1518 L 1085 1253 L 436 287 L 1104 287 L 1104 0 L 47 0 L 47 242 Z" unicode="Z" />
<glyph horiz-adv-x="909" d="M 180 1575 L 768 1575 L 768 1309 L 496 1309 L 496 -70 L 772 -70 L 772 -324 L 180 -324 L 180 1575 Z" unicode="[" />
<glyph horiz-adv-x="1014" d="M 0 1518 L 313 1518 L 1014 0 L 700 0 L 0 1518 Z" unicode="\" />
<glyph horiz-adv-x="909" d="M 139 -70 L 416 -70 L 416 1309 L 145 1309 L 145 1575 L 731 1575 L 731 -324 L 139 -324 L 139 -70 Z" unicode="]" />
<glyph horiz-adv-x="997" d="M 356 1544 L 641 1544 L 866 1169 L 621 1169 L 496 1331 L 373 1169 L 133 1169 L 356 1544 Z" unicode="^" />
<glyph horiz-adv-x="766" d="M -63 -78 L 829 -78 L 829 -307 L -63 -307 L -63 -78 Z" unicode="_" />
<glyph horiz-adv-x="997" d="M 119 1645 L 463 1645 L 680 1270 L 416 1270 L 119 1645 Z" unicode="`" />
<glyph horiz-adv-x="1116" d="M 414 -14 C 327 -14 257 -1 203 24 C 149 50 110 87 85 137 C 59 187 47 258 47 350 C 47 454 66 537 105 597 C 143 657 204 700 288 727 C 371 754 489 768 643 768 L 683 768 C 681 820 668 855 645 875 C 622 895 584 905 530 905 C 416 905 318 884 236 844 L 111 1094 C 227 1155 379 1186 565 1186 C 670 1186 752 1173 812 1148 C 871 1123 914 1083 942 1028 C 969 972 983 893 983 791 L 983 358 C 983 318 988 293 998 283 C 1008 273 1030 268 1063 268 L 1063 0 C 1041 -2 1010 -4 971 -4 C 889 -4 833 2 802 16 C 771 30 748 55 733 92 C 702 55 662 28 613 11 C 563 -5 497 -14 414 -14 Z M 342 385 C 342 332 353 295 375 273 C 397 251 434 240 485 240 C 556 240 607 256 638 289 C 668 321 684 372 684 442 L 684 549 L 645 549 C 560 549 497 544 456 534 C 415 524 386 507 368 485 C 350 463 342 429 342 385 Z" unicode="a" />
<glyph horiz-adv-x="1163" d="M 98 1575 L 406 1575 L 406 1073 C 434 1112 474 1140 524 1158 C 574 1175 640 1184 721 1184 C 809 1184 883 1164 941 1126 C 999 1087 1041 1026 1069 943 C 1096 860 1110 740 1110 584 C 1110 428 1095 309 1066 226 C 1037 142 993 81 933 43 C 873 5 799 -14 709 -14 C 648 -14 598 -11 559 -5 C 520 0 487 9 461 21 C 435 33 405 55 371 88 L 324 -12 L 98 10 L 98 1575 Z M 614 254 C 660 254 696 263 722 282 C 748 301 767 330 779 370 C 791 410 797 476 797 569 C 797 662 791 730 780 772 C 768 814 750 844 724 864 C 698 883 661 893 614 893 C 561 893 520 883 491 863 C 461 843 440 812 427 770 C 414 727 408 660 408 569 C 408 476 414 409 427 369 C 440 328 461 299 491 281 C 521 263 562 254 614 254 Z" unicode="b" />
<glyph horiz-adv-x="918" d="M 541 -16 C 423 -16 329 4 258 45 C 187 85 135 148 102 233 C 69 317 53 434 53 584 C 53 738 70 856 104 938 C 138 1020 191 1081 265 1121 C 339 1161 437 1182 559 1182 C 688 1182 795 1161 881 1120 L 745 852 C 694 879 637 893 575 893 C 499 893 445 870 415 824 C 384 778 369 694 369 573 C 369 448 384 363 416 319 C 448 274 503 252 582 252 C 640 252 705 267 776 299 L 893 63 C 834 35 778 14 726 2 C 674 -9 612 -16 541 -16 Z" unicode="c" />
<glyph horiz-adv-x="1163" d="M 442 -14 C 352 -14 278 5 221 44 C 164 82 122 143 95 227 C 68 310 55 430 55 586 C 55 738 69 857 98 941 C 127 1025 171 1086 230 1124 C 289 1162 365 1182 457 1182 C 539 1182 602 1175 647 1161 C 691 1147 728 1124 756 1094 L 756 1575 L 1067 1575 L 1067 10 L 819 -10 L 795 96 C 763 58 718 30 662 12 C 605 -5 532 -14 442 -14 Z M 549 254 C 601 254 642 264 672 284 C 702 304 723 335 736 377 C 749 419 756 486 756 580 C 756 672 749 738 736 778 C 723 818 702 848 672 867 C 642 885 601 895 549 895 C 502 895 466 885 440 866 C 414 847 396 817 384 777 C 372 736 367 670 367 580 C 367 486 372 417 384 375 C 395 333 414 302 440 283 C 466 263 503 254 549 254 Z" unicode="d" />
<glyph horiz-adv-x="1055" d="M 547 -14 C 426 -14 330 5 258 45 C 186 84 133 144 101 226 C 69 307 53 426 53 584 C 53 730 70 846 105 930 C 140 1014 194 1077 268 1119 C 342 1161 437 1182 555 1182 C 663 1182 750 1164 815 1128 C 880 1092 926 1035 953 959 C 980 882 994 778 995 646 L 993 442 L 352 442 C 358 390 368 350 383 324 C 397 298 419 279 447 267 C 475 255 514 250 563 250 C 621 250 674 254 720 264 C 766 274 816 291 868 317 L 985 82 C 864 18 718 -14 547 -14 Z M 721 682 C 718 762 711 814 701 839 C 690 863 673 881 650 893 C 626 905 592 911 547 911 C 483 911 437 896 407 868 C 377 839 359 790 353 722 L 350 682 L 721 682 Z" unicode="e" />
<glyph horiz-adv-x="799" d="M 25 1161 L 213 1161 L 213 1255 C 213 1493 348 1612 618 1612 C 695 1612 751 1610 786 1608 L 786 1341 L 649 1341 C 601 1341 568 1332 550 1316 C 531 1300 522 1268 522 1221 L 522 1161 L 786 1161 L 786 891 L 522 891 L 522 0 L 213 0 L 213 891 L 25 891 L 25 1161 Z" unicode="f" />
<glyph horiz-adv-x="1120" d="M 541 410 C 497 410 455 412 417 417 L 414 385 C 414 365 418 352 428 344 C 437 336 453 331 475 328 C 497 325 527 324 563 324 C 698 324 801 315 871 297 C 941 279 991 249 1021 208 C 1051 167 1067 104 1067 20 C 1067 -107 1027 -199 947 -257 C 867 -315 732 -344 543 -344 C 405 -344 299 -335 227 -317 C 154 -299 101 -270 69 -231 C 36 -191 20 -137 20 -68 C 20 77 85 165 217 197 C 176 231 156 284 156 356 C 156 409 169 455 197 493 C 116 554 76 652 76 786 C 76 920 114 1020 190 1086 C 266 1151 383 1184 541 1184 L 602 1182 L 1057 1276 L 1057 1036 L 899 1036 C 937 1009 965 975 982 934 C 999 892 1008 843 1008 786 C 1008 658 970 564 894 502 C 818 440 701 410 541 410 Z M 539 -129 C 594 -129 637 -125 668 -117 C 698 -109 720 -96 734 -80 C 747 -63 754 -36 754 0 C 754 30 747 52 734 66 C 721 79 699 88 668 94 C 636 99 594 102 541 102 C 463 102 408 93 376 76 C 344 59 328 30 328 -12 C 328 -54 344 -84 377 -102 C 409 -120 463 -129 539 -129 Z M 541 631 C 601 631 644 643 668 669 C 692 695 705 732 705 780 C 705 828 692 865 668 890 C 644 915 601 928 541 928 C 482 928 440 915 416 890 C 391 865 379 828 379 780 C 379 732 391 695 416 669 C 440 643 482 631 541 631 Z" unicode="g" />
<glyph horiz-adv-x="1151" d="M 98 1575 L 406 1575 L 406 1079 C 432 1114 471 1140 521 1157 C 571 1173 637 1182 721 1182 C 802 1182 867 1167 917 1137 C 967 1107 1003 1063 1026 1005 C 1049 947 1061 865 1061 760 L 1061 0 L 750 0 L 750 682 C 750 744 745 787 736 812 C 726 837 711 856 690 868 C 668 880 638 887 600 887 C 550 887 511 879 484 865 C 456 850 437 826 425 794 C 413 762 408 710 408 639 L 408 0 L 98 0 L 98 1575 Z" unicode="h" />
<glyph horiz-adv-x="524" d="M 106 1161 L 416 1161 L 416 0 L 106 0 L 106 1161 Z M 106 1546 L 418 1546 L 418 1266 L 106 1266 L 106 1546 Z" unicode="i" />
<glyph horiz-adv-x="524" d="M 2 -76 L 25 -76 C 57 -76 79 -69 90 -55 C 100 -41 106 -8 106 45 L 106 1161 L 416 1161 L 416 35 C 416 -61 404 -133 382 -183 C 359 -232 322 -268 271 -290 C 219 -312 145 -324 49 -324 L 2 -324 L 2 -76 Z M 106 1546 L 418 1546 L 418 1266 L 106 1266 L 106 1546 Z" unicode="j" />
<glyph horiz-adv-x="1071" d="M 98 1575 L 401 1575 L 401 694 L 717 1161 L 1042 1161 L 700 675 L 1063 0 L 733 0 L 498 425 L 401 281 L 401 0 L 98 0 L 98 1575 Z" unicode="k" />
<glyph horiz-adv-x="600" d="M 537 0 C 523 -2 486 -4 424 -4 C 340 -4 276 7 232 29 C 188 51 156 87 136 135 C 116 183 106 248 106 330 L 106 1575 L 416 1575 L 416 373 C 416 335 419 311 425 299 C 431 287 441 279 457 275 C 472 270 499 268 537 268 L 537 0 Z" unicode="l" />
<glyph horiz-adv-x="1751" d="M 98 1143 L 346 1163 L 369 1071 C 399 1109 440 1137 494 1155 C 548 1173 620 1182 711 1182 C 786 1182 846 1173 890 1156 C 934 1138 965 1109 983 1069 C 1015 1108 1060 1137 1119 1155 C 1178 1173 1253 1182 1343 1182 C 1423 1182 1487 1167 1534 1139 C 1581 1110 1615 1068 1637 1012 C 1658 956 1669 872 1669 760 L 1669 0 L 1362 0 L 1362 682 C 1362 747 1357 792 1349 816 C 1341 840 1327 857 1307 869 C 1287 881 1259 887 1221 887 C 1173 887 1135 879 1109 864 C 1082 849 1063 825 1052 793 C 1041 760 1036 709 1036 639 L 1036 0 L 729 0 L 729 682 C 729 747 724 792 716 817 C 708 841 694 859 674 870 C 654 881 626 887 590 887 C 541 887 503 879 477 864 C 450 849 431 826 420 794 C 408 762 403 711 403 639 L 403 0 L 98 0 L 98 1143 Z" unicode="m" />
<glyph horiz-adv-x="1151" d="M 98 1143 L 346 1163 L 369 1071 C 399 1109 442 1137 498 1155 C 553 1173 627 1182 721 1182 C 802 1182 867 1167 917 1137 C 967 1107 1003 1063 1026 1005 C 1049 947 1061 865 1061 760 L 1061 0 L 750 0 L 750 682 C 750 744 745 787 736 812 C 726 837 711 856 690 868 C 668 880 638 887 600 887 C 551 887 513 879 485 865 C 457 851 438 828 426 796 C 414 764 408 711 408 639 L 408 0 L 98 0 L 98 1143 Z" unicode="n" />
<glyph horiz-adv-x="1128" d="M 565 -18 C 443 -18 345 3 270 45 C 195 87 140 151 105 237 C 70 323 53 438 53 584 C 53 732 70 848 105 932 C 140 1016 195 1078 271 1120 C 347 1161 445 1182 565 1182 C 685 1182 783 1161 858 1120 C 932 1078 987 1016 1022 933 C 1057 850 1075 734 1075 584 C 1075 431 1057 313 1023 229 C 988 145 933 83 859 43 C 785 2 687 -18 565 -18 Z M 565 252 C 615 252 654 261 683 281 C 711 300 732 330 745 371 C 757 411 764 479 764 573 C 764 667 757 734 745 774 C 732 814 711 844 683 864 C 655 883 615 893 565 893 C 514 893 475 883 447 864 C 419 844 398 814 386 774 C 373 734 367 667 367 573 C 367 480 373 413 385 372 C 397 331 418 301 446 281 C 474 261 514 252 565 252 Z" unicode="o" />
<glyph horiz-adv-x="1163" d="M 98 1143 L 346 1163 L 367 1071 C 398 1109 442 1137 500 1155 C 557 1173 631 1182 721 1182 C 809 1182 883 1162 941 1124 C 999 1085 1041 1024 1069 942 C 1096 860 1110 740 1110 584 C 1110 429 1095 310 1065 226 C 1035 142 991 81 932 43 C 872 5 798 -14 709 -14 C 631 -14 569 -7 523 6 C 476 20 438 43 408 76 L 408 -324 L 98 -324 L 98 1143 Z M 614 254 C 660 254 697 264 723 284 C 749 304 768 335 780 377 C 791 419 797 483 797 569 C 797 663 791 731 779 773 C 767 814 748 844 722 864 C 696 883 660 893 614 893 C 561 893 520 883 491 863 C 461 843 440 812 427 770 C 414 727 408 660 408 569 C 408 476 414 409 427 369 C 440 328 461 299 491 281 C 521 263 562 254 614 254 Z" unicode="p" />
<glyph horiz-adv-x="1163" d="M 758 90 C 729 53 689 26 639 10 C 588 -5 522 -14 442 -14 C 352 -14 278 5 221 44 C 164 82 122 143 95 227 C 68 310 55 430 55 586 C 55 738 69 857 98 941 C 127 1025 171 1086 230 1124 C 289 1162 365 1182 457 1182 C 548 1182 619 1175 671 1161 C 722 1147 763 1121 795 1085 L 840 1171 L 1067 1151 L 1067 -324 L 758 -324 L 758 90 Z M 549 254 C 601 254 642 264 672 284 C 702 304 723 335 736 377 C 749 419 756 486 756 580 C 756 672 749 738 736 778 C 723 818 702 848 672 867 C 642 885 601 895 549 895 C 502 895 466 885 440 866 C 414 847 396 817 384 777 C 372 736 367 670 367 580 C 367 486 372 417 384 375 C 395 333 414 302 440 283 C 466 263 503 254 549 254 Z" unicode="q" />
<glyph horiz-adv-x="707" d="M 98 1143 L 344 1163 L 371 1055 C 403 1097 445 1126 497 1144 C 549 1162 614 1171 694 1171 L 694 879 C 621 878 564 868 524 849 C 484 830 455 802 437 765 C 419 728 410 667 410 582 L 410 0 L 98 0 L 98 1143 Z" unicode="r" />
<glyph horiz-adv-x="930" d="M 473 -14 C 277 -14 124 14 16 72 L 135 311 C 185 287 239 268 298 255 C 357 242 415 236 473 236 C 517 236 549 243 570 257 C 591 271 602 294 602 326 C 602 348 596 366 585 380 C 573 393 553 406 524 420 C 494 433 445 451 377 473 C 285 504 218 534 177 564 C 135 594 105 629 87 671 C 68 712 59 763 59 825 C 59 1063 204 1182 494 1182 C 570 1182 634 1177 686 1169 C 738 1161 794 1144 854 1120 L 735 864 C 657 896 573 913 481 913 C 435 913 402 907 383 895 C 363 883 354 861 354 831 C 354 803 367 781 393 765 C 419 748 473 726 555 700 C 653 668 723 637 767 607 C 811 577 842 540 862 497 C 881 453 891 398 891 330 C 891 100 751 -14 473 -14 Z" unicode="s" />
<glyph horiz-adv-x="850" d="M 25 1161 L 221 1161 L 268 1421 L 514 1477 L 514 1161 L 778 1161 L 778 891 L 514 891 L 514 391 C 514 351 518 324 526 310 C 534 295 548 284 567 278 C 585 271 611 268 645 268 L 778 268 L 778 0 L 689 -6 L 606 -10 C 504 -10 424 1 368 24 C 311 47 270 84 245 134 C 219 184 207 258 207 354 L 207 891 L 25 891 L 25 1161 Z" unicode="t" />
<glyph horiz-adv-x="1130" d="M 565 -16 C 443 -16 349 0 281 30 C 213 61 164 110 134 178 C 104 245 90 344 90 475 L 90 1161 L 401 1161 L 401 492 C 401 410 406 357 416 331 C 426 305 442 287 466 275 C 490 263 524 258 569 258 C 613 258 646 264 670 277 C 694 289 710 309 720 337 C 730 365 735 417 735 494 L 735 1161 L 1040 1161 L 1040 475 C 1040 341 1025 240 995 174 C 965 107 916 59 848 29 C 780 -1 685 -16 565 -16 Z" unicode="u" />
<glyph horiz-adv-x="1063" d="M 4 1161 L 328 1161 L 539 395 L 750 1161 L 1061 1161 L 700 -10 L 360 -10 L 4 1161 Z" unicode="v" />
<glyph horiz-adv-x="1559" d="M 20 1161 L 334 1161 L 475 481 L 645 1161 L 930 1161 L 1098 494 L 1241 1161 L 1538 1161 L 1257 -10 L 954 -10 L 780 641 L 610 -10 L 303 -10 L 20 1161 Z" unicode="w" />
<glyph horiz-adv-x="1038" d="M 33 1161 L 369 1161 L 537 867 L 690 1161 L 1006 1161 L 691 597 L 1032 0 L 698 0 L 501 343 L 319 0 L 4 0 L 348 611 L 33 1161 Z" unicode="x" />
<glyph horiz-adv-x="1020" d="M 2 1161 L 319 1161 L 517 448 L 711 1161 L 1016 1161 L 633 -90 C 615 -150 591 -196 563 -230 C 534 -264 498 -288 454 -302 C 410 -316 348 -324 268 -324 L 139 -324 L 139 -76 L 270 -76 C 288 -76 302 -74 313 -70 C 324 -66 332 -61 338 -53 C 343 -45 349 -28 357 0 L 2 1161 Z" unicode="y" />
<glyph horiz-adv-x="915" d="M 25 205 L 487 891 L 53 891 L 53 1161 L 877 1161 L 877 952 L 410 252 L 895 252 L 895 0 L 25 0 L 25 205 Z" unicode="z" />
<glyph horiz-adv-x="971" d="M 614 -324 C 486 -324 392 -301 333 -257 C 273 -213 244 -143 244 -47 C 244 -3 258 77 286 196 C 314 314 328 384 328 406 C 328 441 315 465 289 477 C 263 489 204 496 113 496 L 113 756 C 207 756 266 762 291 774 C 315 786 328 809 328 844 C 328 874 314 946 286 1060 C 258 1172 244 1251 244 1296 C 244 1393 274 1464 334 1508 C 394 1552 486 1575 610 1575 L 836 1575 L 836 1309 L 709 1309 C 655 1309 618 1299 596 1281 C 574 1263 563 1234 563 1194 C 563 1166 575 1101 600 1001 C 624 900 637 830 637 791 C 637 706 598 651 522 627 C 598 597 637 542 637 461 C 637 429 633 393 625 353 C 617 313 609 274 600 236 C 590 198 582 162 574 130 C 566 97 563 71 563 53 C 563 7 575 -24 601 -42 C 627 -60 663 -70 709 -70 L 836 -70 L 836 -324 L 614 -324 Z" unicode="{" />
<glyph horiz-adv-x="674" d="M 180 1575 L 496 1575 L 496 -324 L 180 -324 L 180 1575 Z" unicode="|" />
<glyph horiz-adv-x="971" d="M 137 -70 L 262 -70 C 308 -70 344 -60 370 -42 C 396 -24 410 7 410 53 C 410 71 406 97 398 130 C 390 162 381 198 372 236 C 362 274 354 313 346 353 C 338 393 334 429 334 461 C 334 544 372 599 449 627 C 372 653 334 707 334 791 C 334 818 338 850 346 888 C 354 925 362 963 372 1001 C 381 1039 390 1075 398 1109 C 406 1143 410 1172 410 1194 C 410 1234 398 1264 376 1282 C 353 1300 315 1309 262 1309 L 137 1309 L 137 1575 L 360 1575 C 485 1575 577 1552 637 1508 C 697 1464 727 1393 727 1296 C 727 1251 713 1172 685 1060 C 657 946 643 874 643 844 C 643 810 655 787 680 775 C 705 763 765 758 860 758 L 860 496 C 788 496 739 493 714 488 C 688 483 670 474 659 462 C 648 449 643 430 643 406 C 643 384 657 314 685 196 C 713 77 727 -3 727 -47 C 727 -143 697 -213 638 -257 C 578 -301 485 -324 358 -324 L 137 -324 L 137 -70 Z" unicode="}" />
<glyph horiz-adv-x="997" d="M 61 853 C 101 931 144 988 192 1024 C 239 1060 295 1078 360 1078 C 387 1078 412 1073 435 1064 C 458 1054 479 1044 499 1033 C 519 1022 537 1012 554 1003 C 571 994 587 990 602 990 C 623 990 643 997 663 1013 C 683 1028 705 1053 731 1089 L 928 974 C 888 896 844 838 798 802 C 751 765 695 747 631 747 C 603 747 577 751 554 760 C 530 769 509 779 489 790 C 469 800 451 810 435 819 C 418 828 403 833 389 833 C 367 833 347 826 327 812 C 307 798 284 773 260 738 L 61 853 Z" unicode="~" />
<glyph horiz-adv-x="1049" d="M 371 137 L 76 137 L 76 424 L 371 424 L 371 838 L 76 838 L 76 1124 L 371 1124 L 371 1575 L 678 1575 L 678 1124 L 973 1124 L 973 838 L 678 838 L 678 424 L 973 424 L 973 137 L 678 137 L 678 -324 L 371 -324 L 371 137 Z" unicode="‡" />
<glyph horiz-adv-x="997" d="M 356 1645 L 641 1645 L 866 1270 L 621 1270 L 496 1432 L 373 1270 L 133 1270 L 356 1645 Z" unicode="ˆ" />
<glyph horiz-adv-x="997" d="M 129 1526 L 866 1526 L 866 1270 L 129 1270 L 129 1526 Z" unicode="̄" />
<glyph horiz-adv-x="532" d="M 96 969 C 161 1004 202 1032 220 1052 C 237 1072 246 1103 246 1143 L 90 1143 L 90 1518 L 442 1518 L 442 1198 C 442 1116 434 1056 420 1016 C 406 976 381 942 346 912 C 311 882 256 849 182 813 L 96 969 Z" unicode="’" />
<glyph horiz-adv-x="1456" d="" unicode="∞" />
<glyph horiz-adv-x="532" d="M 96 -174 C 161 -138 202 -110 220 -90 C 237 -70 246 -40 246 0 L 90 0 L 90 375 L 442 375 L 442 55 C 442 -26 434 -86 420 -126 C 406 -166 381 -201 346 -231 C 311 -261 256 -294 182 -330 L 96 -174 Z" unicode="‚" />
<glyph horiz-adv-x="348" d="" unicode=" " />
<glyph horiz-adv-x="707" d="M 213 1044 L 496 1044 L 522 0 L 184 0 L 213 1044 Z M 178 1518 L 530 1518 L 530 1157 L 178 1157 L 178 1518 Z" unicode="¡" />
<glyph horiz-adv-x="977" d="M 82 584 C 82 766 108 901 160 989 C 212 1076 294 1132 406 1158 L 406 1321 L 705 1321 L 705 1170 C 781 1162 849 1143 907 1114 L 776 852 C 725 879 668 893 604 893 C 527 893 474 869 444 823 C 414 777 399 693 399 573 C 399 449 414 364 445 319 C 475 274 530 252 610 252 C 650 252 685 256 716 266 C 746 275 776 286 805 299 L 920 68 C 840 27 769 4 705 -1 L 705 -195 L 406 -195 L 406 7 C 291 34 208 91 158 179 C 107 266 82 401 82 584 Z" unicode="¢" />
<glyph horiz-adv-x="1161" d="M 37 889 L 183 889 C 161 994 150 1074 150 1130 C 150 1270 188 1373 265 1438 C 341 1503 458 1536 616 1536 C 786 1536 932 1505 1055 1444 L 924 1192 C 882 1212 833 1226 779 1236 C 724 1246 670 1251 618 1251 C 510 1251 457 1198 457 1094 C 457 1046 465 978 482 889 L 774 889 L 774 639 L 529 639 C 547 527 557 450 557 408 C 557 363 554 323 548 288 C 611 264 677 252 745 252 C 784 252 811 262 827 284 C 842 305 850 345 850 403 L 850 520 L 1120 520 L 1120 391 C 1120 241 1095 137 1045 78 C 995 19 908 -10 786 -10 C 663 -10 542 17 423 71 C 380 44 326 25 262 15 C 198 5 121 0 31 0 L 31 270 C 110 270 165 273 195 280 C 225 286 246 298 258 315 C 270 331 276 361 276 403 C 276 449 263 528 239 639 L 37 639 L 37 889 Z" unicode="£" />
<glyph horiz-adv-x="1152" d="M 1056 392 L 940 284 L 740 500 C 692 468 636 452 572 452 C 510 452 456 468 408 500 L 208 284 L 92 392 L 300 608 C 281 634 268 660 262 686 C 255 711 252 742 252 780 C 252 848 268 906 300 952 L 92 1168 L 208 1276 L 408 1060 C 456 1092 510 1108 572 1108 C 636 1108 692 1092 740 1060 L 944 1276 L 1060 1156 L 852 952 C 870 925 883 898 890 872 C 896 845 900 814 900 780 C 900 716 882 658 848 608 L 1056 392 Z M 748 780 C 748 833 731 876 698 910 C 664 943 622 960 572 960 C 521 960 480 943 448 910 C 416 876 400 833 400 780 C 400 726 416 684 450 652 C 483 620 524 604 572 604 C 625 604 668 620 700 652 C 732 684 748 726 748 780 Z" unicode="¤" />
<glyph horiz-adv-x="1188" d="M 125 334 L 442 334 L 442 442 L 125 442 L 125 662 L 429 662 L 14 1518 L 344 1518 L 594 936 L 846 1518 L 1171 1518 L 758 662 L 1063 662 L 1063 442 L 743 442 L 743 334 L 1063 334 L 1063 115 L 743 115 L 743 0 L 442 0 L 442 115 L 125 115 L 125 334 Z" unicode="¥" />
<glyph horiz-adv-x="674" d="M 180 461 L 496 461 L 496 -324 L 180 -324 L 180 461 Z M 180 1575 L 496 1575 L 496 791 L 180 791 L 180 1575 Z" unicode="¦" />
<glyph horiz-adv-x="1001" d="M 258 -10 L 143 -6 L 143 236 L 225 236 C 257 236 282 240 300 248 C 318 256 330 268 338 286 C 346 303 350 330 350 367 L 350 427 C 262 443 198 477 160 528 C 121 578 102 653 102 752 C 102 851 121 926 161 978 C 200 1030 263 1064 350 1082 L 350 1126 C 350 1231 362 1311 388 1365 C 414 1419 455 1459 511 1486 C 567 1512 642 1526 735 1526 L 850 1522 L 850 1268 L 768 1268 C 735 1268 710 1264 692 1256 C 674 1248 662 1235 654 1218 C 646 1200 643 1173 643 1135 L 643 1083 C 729 1069 794 1035 836 983 C 878 931 899 854 899 752 C 899 650 878 574 838 524 C 797 473 732 440 643 426 L 643 389 C 643 286 630 207 604 153 C 578 99 538 58 482 31 C 426 3 352 -10 258 -10 Z M 500 618 C 554 618 593 628 618 648 C 642 668 655 699 655 743 C 655 787 642 818 618 838 C 593 858 554 868 500 868 C 446 868 406 858 382 838 C 358 818 346 787 346 743 C 346 699 358 668 382 648 C 406 628 446 618 500 618 Z" unicode="§" />
<glyph horiz-adv-x="997" d="M 162 1544 L 436 1544 L 436 1270 L 162 1270 L 162 1544 Z M 563 1544 L 836 1544 L 836 1270 L 563 1270 L 563 1544 Z" unicode="¨" />
<glyph horiz-adv-x="1368" d="M 696 283 C 564 283 467 320 407 396 C 347 471 317 595 317 768 C 317 943 348 1068 411 1142 C 473 1216 573 1253 711 1253 C 811 1253 897 1230 969 1186 L 862 1022 C 820 1049 767 1063 705 1063 C 633 1063 584 1040 558 996 C 531 952 518 874 518 762 C 518 684 524 624 536 581 C 548 537 567 506 594 487 C 620 468 658 459 707 459 C 740 459 769 462 795 470 C 820 478 846 491 874 510 L 973 354 C 932 328 890 310 847 299 C 804 288 754 283 696 283 Z M 684 -18 C 544 -18 428 8 336 62 C 244 115 175 198 129 311 C 83 423 61 572 61 758 C 61 1028 111 1225 212 1350 C 312 1475 470 1538 684 1538 C 824 1538 940 1511 1032 1457 C 1124 1403 1193 1319 1239 1206 C 1285 1093 1309 944 1309 758 C 1309 572 1285 423 1239 311 C 1193 199 1124 116 1032 62 C 940 8 824 -18 684 -18 Z M 684 92 C 855 92 982 144 1065 248 C 1148 352 1190 522 1190 758 C 1190 918 1172 1044 1137 1138 C 1102 1232 1048 1303 974 1352 C 900 1400 803 1425 684 1425 C 566 1425 470 1401 396 1353 C 322 1305 267 1234 232 1140 C 197 1046 180 919 180 758 C 180 597 197 470 232 376 C 267 282 322 212 396 164 C 470 116 566 92 684 92 Z" unicode="©" />
<glyph horiz-adv-x="1016" d="M 375 565 C 281 565 212 588 166 636 C 120 684 98 758 98 858 C 98 941 113 1006 143 1053 C 173 1099 222 1133 290 1153 C 357 1173 454 1184 582 1184 L 612 1184 C 610 1220 606 1245 599 1261 C 591 1277 579 1288 562 1296 C 545 1303 521 1307 489 1307 C 403 1307 324 1290 250 1257 L 150 1462 C 247 1511 370 1536 518 1536 C 644 1536 731 1512 781 1465 C 831 1417 856 1334 856 1214 L 856 866 C 856 834 860 815 868 807 C 876 799 894 795 922 795 L 922 573 L 846 571 C 774 571 726 578 700 592 C 674 606 656 632 645 670 C 621 632 588 605 548 589 C 507 573 449 565 375 565 Z M 129 463 L 877 463 L 877 242 L 129 242 L 129 463 Z M 338 887 C 338 845 346 815 364 797 C 381 779 411 770 453 770 C 510 770 551 783 575 809 C 599 835 612 876 612 934 L 612 1008 L 582 1008 C 480 1008 414 999 384 983 C 353 966 338 934 338 887 Z" unicode="ª" />
<glyph horiz-adv-x="1339" d="M 129 580 L 385 1161 L 657 1161 L 424 580 L 657 0 L 385 0 L 129 580 Z M 635 580 L 891 1161 L 1161 1161 L 928 580 L 1161 0 L 891 0 L 635 580 Z" unicode="«" />
<glyph horiz-adv-x="1536" d="M 1116 352 L 1116 728 L 212 728 L 212 920 L 1296 920 L 1296 352 L 1116 352 Z" unicode="¬" />
<glyph horiz-adv-x="711" d="M 61 823 L 647 823 L 647 541 L 61 541 L 61 823 Z" unicode="­" />
<glyph horiz-adv-x="1368" d="M 684 -18 C 544 -18 428 8 336 62 C 244 115 175 198 129 311 C 83 423 61 572 61 758 C 61 1028 111 1225 212 1350 C 312 1475 470 1538 684 1538 C 824 1538 940 1511 1032 1457 C 1124 1403 1193 1319 1239 1206 C 1285 1093 1309 944 1309 758 C 1309 572 1285 423 1239 311 C 1193 199 1124 116 1032 62 C 940 8 824 -18 684 -18 Z M 684 92 C 855 92 982 144 1065 248 C 1148 352 1190 522 1190 758 C 1190 918 1172 1044 1137 1138 C 1102 1232 1048 1303 974 1352 C 900 1400 803 1425 684 1425 C 566 1425 470 1401 396 1353 C 322 1305 267 1234 232 1140 C 197 1046 180 919 180 758 C 180 597 197 470 232 376 C 267 282 322 212 396 164 C 470 116 566 92 684 92 Z M 373 1227 L 727 1227 C 834 1227 911 1204 958 1160 C 1004 1115 1028 1040 1028 934 C 1028 850 1015 786 990 742 C 964 698 925 666 872 648 L 868 646 L 1022 299 L 827 299 L 684 627 L 563 627 L 563 299 L 373 299 L 373 1227 Z M 719 780 C 765 780 797 790 815 812 C 833 833 842 869 842 920 C 842 970 833 1006 815 1028 C 797 1050 765 1061 719 1061 L 563 1061 L 563 780 L 719 780 Z" unicode="®" />
<glyph horiz-adv-x="997" d="M 129 1526 L 866 1526 L 866 1270 L 129 1270 L 129 1526 Z" unicode="¯" />
<glyph horiz-adv-x="971" d="M 485 545 C 345 545 241 584 173 663 C 104 742 70 868 70 1040 C 70 1212 104 1338 173 1417 C 242 1496 346 1536 485 1536 C 625 1536 730 1496 800 1417 C 870 1337 905 1212 905 1040 C 905 868 870 743 800 664 C 730 584 625 545 485 545 Z M 485 776 C 543 776 586 794 614 832 C 641 870 655 936 655 1032 C 655 1126 641 1192 614 1229 C 587 1265 544 1284 485 1284 C 426 1284 383 1265 357 1228 C 330 1190 317 1125 317 1032 C 317 936 330 870 358 832 C 385 794 427 776 485 776 Z" unicode="°" />
<glyph horiz-adv-x="1247" d="M 162 281 L 477 281 L 477 588 L 162 588 L 162 856 L 477 856 L 477 1225 L 770 1225 L 770 856 L 1085 856 L 1085 588 L 770 588 L 770 281 L 1085 281 L 1085 12 L 162 12 L 162 281 Z" unicode="±" />
<glyph horiz-adv-x="883" d="M 92 705 L 344 973 C 392 1024 427 1062 448 1087 C 468 1112 483 1133 491 1151 C 499 1168 504 1188 504 1212 C 504 1246 495 1270 479 1284 C 463 1298 432 1305 387 1305 C 321 1305 256 1289 190 1257 L 86 1460 C 181 1506 295 1530 428 1530 C 538 1530 618 1507 670 1461 C 722 1415 748 1347 748 1257 C 748 1199 742 1152 730 1116 C 718 1080 697 1042 668 1002 C 638 962 590 908 522 840 L 410 725 L 766 725 L 766 524 L 92 524 L 92 705 Z" unicode="²" />
<glyph horiz-adv-x="895" d="M 424 512 C 282 512 169 537 84 588 L 188 778 C 254 741 326 723 403 723 C 441 723 471 726 491 734 C 511 741 525 753 533 769 C 541 785 545 811 545 846 C 545 886 534 913 513 926 C 491 939 451 946 391 946 L 238 946 L 238 1143 L 391 1143 C 441 1143 475 1148 493 1160 C 511 1172 520 1195 520 1229 C 520 1260 512 1281 497 1293 C 482 1305 449 1311 399 1311 C 327 1311 259 1296 195 1266 L 96 1456 C 133 1477 183 1495 247 1509 C 310 1523 375 1530 442 1530 C 558 1530 641 1510 689 1472 C 737 1433 762 1372 762 1288 C 762 1220 754 1169 738 1137 C 722 1105 698 1082 666 1069 C 711 1054 742 1029 760 994 C 777 958 786 900 786 819 C 786 711 757 633 701 585 C 644 536 552 512 424 512 Z" unicode="³" />
<glyph horiz-adv-x="997" d="M 535 1645 L 877 1645 L 582 1270 L 317 1270 L 535 1645 Z" unicode="´" />
<glyph horiz-adv-x="1137" d="M 98 1161 L 410 1161 L 410 492 C 410 411 414 358 424 332 C 434 306 450 287 473 275 C 496 263 530 258 575 258 C 619 258 654 264 678 276 C 702 288 718 308 728 336 C 738 364 743 416 743 494 L 743 1161 L 1047 1161 L 1047 475 C 1047 342 1032 242 1004 176 C 976 109 929 60 864 30 C 799 0 707 -16 588 -16 C 551 -16 515 -11 481 -2 C 446 6 422 18 408 33 L 408 -324 L 98 -324 L 98 1161 Z" unicode="µ" />
<glyph horiz-adv-x="1174" d="M 770 510 L 647 510 L 647 0 L 346 0 L 346 541 L 332 546 C 236 578 165 630 121 703 C 77 775 55 880 55 1016 C 55 1142 73 1240 110 1310 C 147 1380 205 1432 285 1466 C 364 1500 469 1518 600 1518 L 1071 1518 L 1071 0 L 770 0 L 770 510 Z M 770 776 L 770 1239 L 594 1239 C 512 1239 454 1221 420 1187 C 386 1152 369 1092 369 1006 C 369 920 386 861 420 827 C 454 793 512 776 594 776 L 770 776 Z" unicode="¶" />
<glyph horiz-adv-x="532" d="M 90 944 L 442 944 L 442 569 L 90 569 L 90 944 Z" unicode="·" />
<glyph horiz-adv-x="997" d="M 512 -498 C 425 -498 344 -480 270 -444 L 336 -301 C 390 -321 441 -332 489 -332 C 529 -332 556 -326 570 -314 C 584 -302 592 -282 592 -254 C 592 -229 585 -211 573 -201 C 561 -190 540 -184 512 -184 L 444 -186 L 391 -147 L 424 14 L 592 14 L 573 -86 L 603 -85 C 669 -85 717 -100 747 -132 C 776 -164 791 -212 791 -276 C 791 -356 769 -413 726 -447 C 683 -481 612 -498 512 -498 Z" unicode="¸" />
<glyph horiz-adv-x="657" d="M 229 1292 L 90 1292 L 90 1518 L 487 1518 L 487 524 L 229 524 L 229 1292 Z" unicode="¹" />
<glyph horiz-adv-x="1016" d="M 508 561 C 364 561 259 598 193 673 C 127 748 94 873 94 1049 C 94 1224 127 1349 194 1424 C 260 1498 365 1536 508 1536 C 606 1536 686 1519 747 1485 C 807 1451 852 1400 881 1333 C 909 1265 924 1171 924 1049 C 924 925 910 830 882 763 C 854 695 809 645 749 611 C 688 577 608 561 508 561 Z M 508 782 C 548 782 580 789 603 805 C 626 821 643 845 653 878 C 663 911 668 966 668 1042 C 668 1119 663 1173 653 1205 C 643 1237 626 1260 603 1276 C 580 1292 548 1300 508 1300 C 468 1300 436 1292 413 1276 C 390 1260 373 1237 363 1205 C 353 1173 348 1118 348 1042 C 348 966 353 912 363 879 C 373 846 390 822 413 806 C 435 790 467 782 508 782 Z M 129 463 L 885 463 L 885 242 L 129 242 L 129 463 Z" unicode="º" />
<glyph horiz-adv-x="1339" d="M 412 582 L 176 1161 L 449 1161 L 705 582 L 449 0 L 176 0 L 412 582 Z M 915 582 L 682 1161 L 954 1161 L 1208 582 L 954 0 L 682 0 L 915 582 Z" unicode="»" />
<glyph horiz-adv-x="1845" d="M 1081 1518 L 1356 1518 L 659 0 L 383 0 L 1081 1518 Z M 1001 354 L 1348 993 L 1602 993 L 1260 367 L 1424 367 L 1466 580 L 1651 580 L 1651 367 L 1772 367 L 1772 168 L 1651 168 L 1651 0 L 1421 0 L 1421 168 L 1001 168 L 1001 354 Z M 236 1292 L 98 1292 L 98 1518 L 494 1518 L 494 524 L 236 524 L 236 1292 Z" unicode="¼" />
<glyph horiz-adv-x="1935" d="M 1081 1518 L 1356 1518 L 659 0 L 383 0 L 1081 1518 Z M 236 1292 L 98 1292 L 98 1518 L 494 1518 L 494 524 L 236 524 L 236 1292 Z M 1163 180 L 1415 449 C 1463 499 1498 538 1520 564 C 1541 590 1555 611 1563 627 C 1571 643 1575 663 1575 688 C 1575 720 1567 744 1552 758 C 1537 772 1506 780 1458 780 C 1390 780 1324 764 1262 733 L 1159 936 C 1255 984 1369 1008 1501 1008 C 1714 1008 1821 916 1821 733 C 1821 655 1806 589 1776 536 C 1746 482 1685 409 1593 315 L 1481 201 L 1837 201 L 1837 0 L 1163 0 L 1163 180 Z" unicode="½" />
<glyph horiz-adv-x="2028" d="M 424 512 C 282 512 169 537 84 588 L 188 778 C 254 741 326 723 403 723 C 441 723 471 726 491 734 C 511 741 525 753 533 769 C 541 785 545 811 545 846 C 545 886 534 913 513 926 C 491 939 451 946 391 946 L 238 946 L 238 1143 L 391 1143 C 441 1143 475 1148 493 1160 C 511 1172 520 1195 520 1229 C 520 1260 512 1281 497 1293 C 482 1305 449 1311 399 1311 C 327 1311 259 1296 195 1266 L 96 1456 C 133 1477 183 1495 247 1509 C 310 1523 375 1530 442 1530 C 558 1530 641 1510 689 1472 C 737 1433 762 1372 762 1288 C 762 1220 754 1169 738 1137 C 722 1105 698 1082 666 1069 C 711 1054 742 1029 760 994 C 777 958 786 900 786 819 C 786 711 757 633 701 585 C 644 536 552 512 424 512 Z M 1264 1518 L 1538 1518 L 842 0 L 565 0 L 1264 1518 Z M 1184 354 L 1532 993 L 1786 993 L 1444 367 L 1609 367 L 1651 580 L 1835 580 L 1835 367 L 1954 367 L 1954 168 L 1835 168 L 1835 0 L 1606 0 L 1606 168 L 1184 168 L 1184 354 Z" unicode="¾" />
<glyph horiz-adv-x="1186" d="M 582 -18 C 422 -18 305 11 231 69 C 156 127 119 220 119 348 C 119 406 124 456 136 498 C 148 540 165 577 189 610 C 212 643 256 687 322 741 C 380 789 419 824 437 846 C 455 868 467 891 475 915 C 483 939 487 981 487 1041 L 487 1073 L 791 1073 C 791 977 785 908 774 867 C 763 825 744 787 717 753 C 690 719 646 677 584 627 C 526 579 489 546 474 528 C 459 510 448 492 442 474 C 435 456 432 435 432 410 C 432 356 448 319 481 299 C 513 278 565 268 635 268 C 731 268 832 293 940 344 L 1075 84 C 940 16 776 -18 582 -18 Z M 463 1518 L 815 1518 L 815 1196 L 463 1196 L 463 1518 Z" unicode="¿" />
<glyph horiz-adv-x="1343" d="M 500 1528 L 844 1528 L 1317 0 L 987 0 L 918 236 L 416 236 L 348 0 L 27 0 L 500 1528 Z M 840 518 L 668 1094 L 492 518 L 840 518 Z M 291 1971 L 635 1971 L 852 1596 L 588 1596 L 291 1971 Z" unicode="À" />
<glyph horiz-adv-x="1343" d="M 500 1528 L 844 1528 L 1317 0 L 987 0 L 918 236 L 416 236 L 348 0 L 27 0 L 500 1528 Z M 840 518 L 668 1094 L 492 518 L 840 518 Z M 707 1971 L 1049 1971 L 754 1596 L 489 1596 L 707 1971 Z" unicode="Á" />
<glyph horiz-adv-x="1343" d="M 500 1528 L 844 1528 L 1317 0 L 987 0 L 918 236 L 416 236 L 348 0 L 27 0 L 500 1528 Z M 840 518 L 668 1094 L 492 518 L 840 518 Z M 528 1971 L 813 1971 L 1038 1596 L 793 1596 L 668 1758 L 545 1596 L 305 1596 L 528 1971 Z" unicode="Â" />
<glyph horiz-adv-x="1343" d="M 500 1528 L 844 1528 L 1317 0 L 987 0 L 918 236 L 416 236 L 348 0 L 27 0 L 500 1528 Z M 840 518 L 668 1094 L 492 518 L 840 518 Z M 233 1698 C 273 1776 316 1833 364 1869 C 411 1905 467 1923 532 1923 C 559 1923 584 1918 607 1909 C 630 1899 651 1889 671 1878 C 691 1867 709 1857 726 1848 C 743 1839 759 1835 774 1835 C 795 1835 815 1842 835 1858 C 855 1873 877 1898 903 1934 L 1100 1819 C 1060 1741 1016 1683 970 1647 C 923 1610 867 1592 803 1592 C 775 1592 749 1596 726 1605 C 702 1614 681 1624 661 1635 C 641 1645 623 1655 607 1664 C 590 1673 575 1678 561 1678 C 539 1678 519 1671 499 1657 C 479 1643 456 1618 432 1583 L 233 1698 Z" unicode="Ã" />
<glyph horiz-adv-x="1343" d="M 500 1528 L 844 1528 L 1317 0 L 987 0 L 918 236 L 416 236 L 348 0 L 27 0 L 500 1528 Z M 840 518 L 668 1094 L 492 518 L 840 518 Z M 334 1870 L 608 1870 L 608 1596 L 334 1596 L 334 1870 Z M 735 1870 L 1008 1870 L 1008 1596 L 735 1596 L 735 1870 Z" unicode="Ä" />
<glyph horiz-adv-x="1343" d="M 477 1456 C 437 1502 418 1569 418 1657 C 418 1749 439 1818 482 1865 C 524 1911 587 1935 670 1935 C 752 1935 815 1911 859 1863 C 902 1815 924 1746 924 1657 C 924 1573 904 1508 864 1460 L 1317 0 L 987 0 L 918 236 L 416 236 L 348 0 L 27 0 L 477 1456 Z M 840 518 L 668 1094 L 492 518 L 840 518 Z M 670 1530 C 705 1530 730 1540 746 1560 C 762 1580 770 1612 770 1657 C 770 1703 762 1736 746 1756 C 730 1776 704 1786 670 1786 C 602 1786 569 1743 569 1657 C 569 1614 577 1582 593 1561 C 609 1540 635 1530 670 1530 Z" unicode="Å" />
<glyph horiz-adv-x="1925" d="M 743 1518 L 1839 1518 L 1839 1225 L 1217 1225 L 1217 918 L 1810 918 L 1810 631 L 1217 631 L 1217 287 L 1841 287 L 1841 0 L 903 0 L 903 240 L 446 240 L 334 0 L 18 0 L 743 1518 Z M 903 514 L 903 1198 L 575 514 L 903 514 Z" unicode="Æ" />
<glyph horiz-adv-x="1155" d="M 664 -18 C 521 -18 405 9 316 64 C 226 119 160 202 118 313 C 76 423 55 572 55 758 C 55 951 77 1103 122 1214 C 167 1325 236 1406 329 1458 C 421 1510 541 1536 688 1536 C 850 1536 987 1499 1100 1425 L 928 1159 C 858 1201 775 1223 678 1223 C 599 1223 539 1207 498 1177 C 456 1146 426 1096 408 1028 C 390 960 381 867 381 750 C 381 627 390 532 409 464 C 428 396 458 347 500 316 C 542 285 602 270 680 270 C 734 270 783 276 825 289 C 867 302 908 322 948 348 L 1106 100 C 1036 56 968 26 900 8 C 832 -9 754 -18 664 -18 Z M 592 -498 C 505 -498 424 -480 350 -444 L 416 -301 C 470 -321 521 -332 569 -332 C 609 -332 636 -326 650 -314 C 664 -302 672 -282 672 -254 C 672 -229 665 -211 653 -201 C 641 -190 620 -184 592 -184 L 524 -186 L 471 -147 L 504 14 L 672 14 L 653 -86 L 683 -85 C 749 -85 797 -100 827 -132 C 856 -164 871 -212 871 -276 C 871 -356 849 -413 806 -447 C 763 -481 692 -498 592 -498 Z" unicode="Ç" />
<glyph horiz-adv-x="1141" d="M 119 1518 L 1055 1518 L 1055 1225 L 432 1225 L 432 922 L 1028 922 L 1028 631 L 432 631 L 432 287 L 1057 287 L 1057 0 L 119 0 L 119 1518 Z M 191 1971 L 535 1971 L 752 1596 L 488 1596 L 191 1971 Z" unicode="È" />
<glyph horiz-adv-x="1141" d="M 607 1971 L 949 1971 L 654 1596 L 389 1596 L 607 1971 Z M 119 1518 L 1055 1518 L 1055 1225 L 432 1225 L 432 922 L 1028 922 L 1028 631 L 432 631 L 432 287 L 1057 287 L 1057 0 L 119 0 L 119 1518 Z" unicode="É" />
<glyph horiz-adv-x="1141" d="M 428 1971 L 713 1971 L 938 1596 L 693 1596 L 568 1758 L 445 1596 L 205 1596 L 428 1971 Z M 119 1518 L 1055 1518 L 1055 1225 L 432 1225 L 432 922 L 1028 922 L 1028 631 L 432 631 L 432 287 L 1057 287 L 1057 0 L 119 0 L 119 1518 Z" unicode="Ê" />
<glyph horiz-adv-x="1141" d="M 234 1870 L 508 1870 L 508 1596 L 234 1596 L 234 1870 Z M 635 1870 L 908 1870 L 908 1596 L 635 1596 L 635 1870 Z M 119 1518 L 1055 1518 L 1055 1225 L 432 1225 L 432 922 L 1028 922 L 1028 631 L 432 631 L 432 287 L 1057 287 L 1057 0 L 119 0 L 119 1518 Z" unicode="Ë" />
<glyph horiz-adv-x="594" d="M -82 1972 L 260 1972 L 446 1597 L 182 1597 L -82 1972 Z M 137 1518 L 457 1518 L 457 0 L 137 0 L 137 1518 Z" unicode="Ì" />
<glyph horiz-adv-x="594" d="M 334 1972 L 674 1972 L 408 1597 L 145 1597 L 334 1972 Z M 137 1518 L 457 1518 L 457 0 L 137 0 L 137 1518 Z" unicode="Í" />
<glyph horiz-adv-x="594" d="M 154 1972 L 438 1972 L 662 1597 L 416 1597 L 293 1759 L 172 1597 L -68 1597 L 154 1972 Z M 137 1518 L 457 1518 L 457 0 L 137 0 L 137 1518 Z" unicode="Î" />
<glyph horiz-adv-x="594" d="M 137 1518 L 457 1518 L 457 0 L 137 0 L 137 1518 Z M -38 1870 L 236 1870 L 236 1596 L -38 1596 L -38 1870 Z M 363 1870 L 636 1870 L 636 1596 L 363 1596 L 363 1870 Z" unicode="Ï" />
<glyph horiz-adv-x="1315" d="M 0 895 L 119 895 L 119 1518 L 592 1518 C 764 1518 897 1493 991 1444 C 1085 1395 1153 1316 1196 1208 C 1238 1100 1260 950 1260 760 C 1260 565 1239 414 1197 306 C 1155 198 1088 120 996 72 C 903 24 768 0 592 0 L 119 0 L 119 635 L 0 635 L 0 895 Z M 621 279 C 707 279 772 294 814 324 C 856 354 886 404 905 472 C 924 540 934 636 934 758 C 934 880 924 975 905 1041 C 886 1107 855 1154 812 1182 C 769 1210 702 1225 612 1225 L 440 1225 L 440 895 L 655 895 L 655 635 L 440 635 L 440 279 L 621 279 Z" unicode="Ð" />
<glyph horiz-adv-x="1378" d="M 119 1518 L 459 1518 L 956 643 L 956 1518 L 1262 1518 L 1262 0 L 967 0 L 424 946 L 424 0 L 119 0 L 119 1518 Z M 249 1698 C 289 1776 332 1833 380 1869 C 427 1905 483 1923 548 1923 C 575 1923 600 1918 623 1909 C 646 1899 667 1889 687 1878 C 707 1867 725 1857 742 1848 C 759 1839 775 1835 790 1835 C 811 1835 831 1842 851 1858 C 871 1873 893 1898 919 1934 L 1116 1819 C 1076 1741 1032 1683 986 1647 C 939 1610 883 1592 819 1592 C 791 1592 765 1596 742 1605 C 718 1614 697 1624 677 1635 C 657 1645 639 1655 623 1664 C 606 1673 591 1678 577 1678 C 555 1678 535 1671 515 1657 C 495 1643 472 1618 448 1583 L 249 1698 Z" unicode="Ñ" />
<glyph horiz-adv-x="1368" d="M 684 -18 C 540 -18 422 8 329 60 C 236 112 167 192 122 302 C 77 411 55 563 55 758 C 55 954 77 1107 123 1217 C 168 1327 237 1407 330 1459 C 423 1510 541 1536 684 1536 C 826 1536 944 1510 1037 1459 C 1129 1407 1198 1327 1244 1218 C 1290 1109 1313 956 1313 758 C 1313 562 1290 410 1245 301 C 1200 191 1131 111 1038 59 C 945 7 827 -18 684 -18 Z M 684 266 C 759 266 818 281 862 312 C 906 343 937 390 957 452 C 977 514 987 613 987 748 C 987 881 977 979 957 1041 C 937 1103 906 1150 862 1181 C 818 1211 758 1227 684 1227 C 608 1227 549 1211 505 1180 C 461 1149 430 1103 410 1041 C 390 979 381 881 381 748 C 381 613 390 514 410 452 C 430 389 462 342 506 312 C 550 281 609 266 684 266 Z M 303 1971 L 647 1971 L 864 1596 L 600 1596 L 303 1971 Z" unicode="Ò" />
<glyph horiz-adv-x="1368" d="M 719 1971 L 1061 1971 L 766 1596 L 501 1596 L 719 1971 Z M 684 -18 C 540 -18 422 8 329 60 C 236 112 167 192 122 302 C 77 411 55 563 55 758 C 55 954 77 1107 123 1217 C 168 1327 237 1407 330 1459 C 423 1510 541 1536 684 1536 C 826 1536 944 1510 1037 1459 C 1129 1407 1198 1327 1244 1218 C 1290 1109 1313 956 1313 758 C 1313 562 1290 410 1245 301 C 1200 191 1131 111 1038 59 C 945 7 827 -18 684 -18 Z M 684 266 C 759 266 818 281 862 312 C 906 343 937 390 957 452 C 977 514 987 613 987 748 C 987 881 977 979 957 1041 C 937 1103 906 1150 862 1181 C 818 1211 758 1227 684 1227 C 608 1227 549 1211 505 1180 C 461 1149 430 1103 410 1041 C 390 979 381 881 381 748 C 381 613 390 514 410 452 C 430 389 462 342 506 312 C 550 281 609 266 684 266 Z" unicode="Ó" />
<glyph horiz-adv-x="1368" d="M 540 1971 L 825 1971 L 1050 1596 L 805 1596 L 680 1758 L 557 1596 L 317 1596 L 540 1971 Z M 684 -18 C 540 -18 422 8 329 60 C 236 112 167 192 122 302 C 77 411 55 563 55 758 C 55 954 77 1107 123 1217 C 168 1327 237 1407 330 1459 C 423 1510 541 1536 684 1536 C 826 1536 944 1510 1037 1459 C 1129 1407 1198 1327 1244 1218 C 1290 1109 1313 956 1313 758 C 1313 562 1290 410 1245 301 C 1200 191 1131 111 1038 59 C 945 7 827 -18 684 -18 Z M 684 266 C 759 266 818 281 862 312 C 906 343 937 390 957 452 C 977 514 987 613 987 748 C 987 881 977 979 957 1041 C 937 1103 906 1150 862 1181 C 818 1211 758 1227 684 1227 C 608 1227 549 1211 505 1180 C 461 1149 430 1103 410 1041 C 390 979 381 881 381 748 C 381 613 390 514 410 452 C 430 389 462 342 506 312 C 550 281 609 266 684 266 Z" unicode="Ô" />
<glyph horiz-adv-x="1368" d="M 684 -18 C 540 -18 422 8 329 60 C 236 112 167 192 122 302 C 77 411 55 563 55 758 C 55 954 77 1107 123 1217 C 168 1327 237 1407 330 1459 C 423 1510 541 1536 684 1536 C 826 1536 944 1510 1037 1459 C 1129 1407 1198 1327 1244 1218 C 1290 1109 1313 956 1313 758 C 1313 562 1290 410 1245 301 C 1200 191 1131 111 1038 59 C 945 7 827 -18 684 -18 Z M 684 266 C 759 266 818 281 862 312 C 906 343 937 390 957 452 C 977 514 987 613 987 748 C 987 881 977 979 957 1041 C 937 1103 906 1150 862 1181 C 818 1211 758 1227 684 1227 C 608 1227 549 1211 505 1180 C 461 1149 430 1103 410 1041 C 390 979 381 881 381 748 C 381 613 390 514 410 452 C 430 389 462 342 506 312 C 550 281 609 266 684 266 Z M 245 1698 C 285 1776 328 1833 376 1869 C 423 1905 479 1923 544 1923 C 571 1923 596 1918 619 1909 C 642 1899 663 1889 683 1878 C 703 1867 721 1857 738 1848 C 755 1839 771 1835 786 1835 C 807 1835 827 1842 847 1858 C 867 1873 889 1898 915 1934 L 1112 1819 C 1072 1741 1028 1683 982 1647 C 935 1610 879 1592 815 1592 C 787 1592 761 1596 738 1605 C 714 1614 693 1624 673 1635 C 653 1645 635 1655 619 1664 C 602 1673 587 1678 573 1678 C 551 1678 531 1671 511 1657 C 491 1643 468 1618 444 1583 L 245 1698 Z" unicode="Õ" />
<glyph horiz-adv-x="1368" d="M 346 1870 L 620 1870 L 620 1596 L 346 1596 L 346 1870 Z M 747 1870 L 1020 1870 L 1020 1596 L 747 1596 L 747 1870 Z M 684 -18 C 540 -18 422 8 329 60 C 236 112 167 192 122 302 C 77 411 55 563 55 758 C 55 954 77 1107 123 1217 C 168 1327 237 1407 330 1459 C 423 1510 541 1536 684 1536 C 826 1536 944 1510 1037 1459 C 1129 1407 1198 1327 1244 1218 C 1290 1109 1313 956 1313 758 C 1313 562 1290 410 1245 301 C 1200 191 1131 111 1038 59 C 945 7 827 -18 684 -18 Z M 684 266 C 759 266 818 281 862 312 C 906 343 937 390 957 452 C 977 514 987 613 987 748 C 987 881 977 979 957 1041 C 937 1103 906 1150 862 1181 C 818 1211 758 1227 684 1227 C 608 1227 549 1211 505 1180 C 461 1149 430 1103 410 1041 C 390 979 381 881 381 748 C 381 613 390 514 410 452 C 430 389 462 342 506 312 C 550 281 609 266 684 266 Z" unicode="Ö" />
<glyph horiz-adv-x="1247" d="M 180 467 L 434 721 L 182 973 L 371 1165 L 623 913 L 877 1165 L 1065 973 L 811 721 L 1063 471 L 877 276 L 623 528 L 369 274 L 180 467 Z" unicode="×" />
<glyph horiz-adv-x="1368" d="M 684 -18 C 604 -18 534 -10 474 4 L 432 -84 L 160 -84 L 253 113 C 185 171 135 252 103 355 C 71 458 55 592 55 758 C 55 954 77 1107 123 1217 C 168 1327 237 1407 330 1459 C 423 1510 541 1536 684 1536 C 762 1536 832 1528 893 1514 L 936 1604 L 1210 1604 L 1114 1405 C 1182 1345 1233 1264 1265 1162 C 1297 1059 1313 924 1313 758 C 1313 562 1290 410 1245 301 C 1200 191 1131 111 1038 59 C 945 7 827 -18 684 -18 Z M 684 252 C 762 252 823 267 868 298 C 913 329 946 376 966 440 C 986 504 997 606 997 748 C 997 904 982 1016 954 1084 L 582 262 C 612 255 646 252 684 252 Z M 684 1241 C 606 1241 545 1225 500 1193 C 454 1161 421 1114 401 1050 C 381 986 371 886 371 748 C 371 597 383 488 408 422 L 774 1233 C 747 1238 717 1241 684 1241 Z" unicode="Ø" />
<glyph horiz-adv-x="1368" d="M 684 -23 C 484 -23 338 20 246 107 C 154 194 109 336 109 532 L 109 1518 L 430 1518 L 430 563 C 430 448 449 370 487 328 C 525 286 592 266 688 266 C 754 266 806 275 843 294 C 880 312 907 342 923 383 C 939 424 948 484 948 563 L 948 1518 L 1260 1518 L 1260 532 C 1260 334 1214 192 1123 106 C 1031 20 885 -23 684 -23 Z M 301 1971 L 645 1971 L 862 1596 L 598 1596 L 301 1971 Z" unicode="Ù" />
<glyph horiz-adv-x="1368" d="M 717 1971 L 1059 1971 L 764 1596 L 499 1596 L 717 1971 Z M 684 -23 C 484 -23 338 20 246 107 C 154 194 109 336 109 532 L 109 1518 L 430 1518 L 430 563 C 430 448 449 370 487 328 C 525 286 592 266 688 266 C 754 266 806 275 843 294 C 880 312 907 342 923 383 C 939 424 948 484 948 563 L 948 1518 L 1260 1518 L 1260 532 C 1260 334 1214 192 1123 106 C 1031 20 885 -23 684 -23 Z" unicode="Ú" />
<glyph horiz-adv-x="1368" d="M 538 1971 L 823 1971 L 1048 1596 L 803 1596 L 678 1758 L 555 1596 L 315 1596 L 538 1971 Z M 684 -23 C 484 -23 338 20 246 107 C 154 194 109 336 109 532 L 109 1518 L 430 1518 L 430 563 C 430 448 449 370 487 328 C 525 286 592 266 688 266 C 754 266 806 275 843 294 C 880 312 907 342 923 383 C 939 424 948 484 948 563 L 948 1518 L 1260 1518 L 1260 532 C 1260 334 1214 192 1123 106 C 1031 20 885 -23 684 -23 Z" unicode="Û" />
<glyph horiz-adv-x="1368" d="M 344 1870 L 618 1870 L 618 1596 L 344 1596 L 344 1870 Z M 745 1870 L 1018 1870 L 1018 1596 L 745 1596 L 745 1870 Z M 684 -23 C 484 -23 338 20 246 107 C 154 194 109 336 109 532 L 109 1518 L 430 1518 L 430 563 C 430 448 449 370 487 328 C 525 286 592 266 688 266 C 754 266 806 275 843 294 C 880 312 907 342 923 383 C 939 424 948 484 948 563 L 948 1518 L 1260 1518 L 1260 532 C 1260 334 1214 192 1123 106 C 1031 20 885 -23 684 -23 Z" unicode="Ü" />
<glyph horiz-adv-x="1282" d="M -4 1518 L 338 1518 L 645 856 L 954 1518 L 1284 1518 L 799 510 L 799 0 L 479 0 L 479 514 L -4 1518 Z M 676 1971 L 1018 1971 L 723 1596 L 458 1596 L 676 1971 Z" unicode="Ý" />
<glyph horiz-adv-x="1245" d="M 119 1518 L 434 1518 L 434 1294 L 702 1294 C 822 1294 918 1277 991 1243 C 1063 1209 1117 1158 1151 1089 C 1185 1020 1202 923 1202 797 C 1202 669 1184 570 1150 498 C 1116 426 1062 373 988 337 C 914 301 817 283 696 283 L 434 283 L 434 0 L 119 0 L 119 1518 Z M 692 553 C 764 553 814 570 844 605 C 874 639 889 698 889 782 C 889 868 874 929 844 964 C 814 998 764 1016 692 1016 L 434 1016 L 434 553 L 692 553 Z" unicode="Þ" />
<glyph horiz-adv-x="1182" d="M 98 1151 C 98 1301 138 1413 220 1486 C 301 1558 421 1595 580 1595 C 744 1595 863 1563 937 1501 C 1011 1439 1049 1337 1049 1196 C 1049 1083 1038 999 1017 945 C 995 890 959 852 909 831 C 989 813 1046 775 1079 718 C 1111 660 1128 566 1128 434 C 1128 318 1111 230 1078 170 C 1044 110 990 66 915 40 C 840 13 731 0 588 0 L 518 0 L 518 276 L 588 276 C 676 276 736 290 770 319 C 804 347 821 401 821 479 C 821 553 805 603 773 629 C 741 655 678 668 584 668 L 543 668 L 543 911 L 584 911 C 642 911 685 926 712 956 C 738 986 752 1036 752 1108 C 752 1177 738 1226 712 1255 C 686 1283 642 1298 580 1298 C 517 1298 472 1283 444 1255 C 416 1226 403 1180 403 1118 L 403 0 L 98 0 L 98 1151 Z" unicode="ß" />
<glyph horiz-adv-x="1116" d="M 414 -14 C 327 -14 257 -1 203 24 C 149 50 110 87 85 137 C 59 187 47 258 47 350 C 47 454 66 537 105 597 C 143 657 204 700 288 727 C 371 754 489 768 643 768 L 683 768 C 681 820 668 855 645 875 C 622 895 584 905 530 905 C 416 905 318 884 236 844 L 111 1094 C 227 1155 379 1186 565 1186 C 670 1186 752 1173 812 1148 C 871 1123 914 1083 942 1028 C 969 972 983 893 983 791 L 983 358 C 983 318 988 293 998 283 C 1008 273 1030 268 1063 268 L 1063 0 C 1041 -2 1010 -4 971 -4 C 889 -4 833 2 802 16 C 771 30 748 55 733 92 C 702 55 662 28 613 11 C 563 -5 497 -14 414 -14 Z M 342 385 C 342 332 353 295 375 273 C 397 251 434 240 485 240 C 556 240 607 256 638 289 C 668 321 684 372 684 442 L 684 549 L 645 549 C 560 549 497 544 456 534 C 415 524 386 507 368 485 C 350 463 342 429 342 385 Z M 178 1645 L 522 1645 L 739 1270 L 475 1270 L 178 1645 Z" unicode="à" />
<glyph horiz-adv-x="1116" d="M 414 -14 C 327 -14 257 -1 203 24 C 149 50 110 87 85 137 C 59 187 47 258 47 350 C 47 454 66 537 105 597 C 143 657 204 700 288 727 C 371 754 489 768 643 768 L 683 768 C 681 820 668 855 645 875 C 622 895 584 905 530 905 C 416 905 318 884 236 844 L 111 1094 C 227 1155 379 1186 565 1186 C 670 1186 752 1173 812 1148 C 871 1123 914 1083 942 1028 C 969 972 983 893 983 791 L 983 358 C 983 318 988 293 998 283 C 1008 273 1030 268 1063 268 L 1063 0 C 1041 -2 1010 -4 971 -4 C 889 -4 833 2 802 16 C 771 30 748 55 733 92 C 702 55 662 28 613 11 C 563 -5 497 -14 414 -14 Z M 342 385 C 342 332 353 295 375 273 C 397 251 434 240 485 240 C 556 240 607 256 638 289 C 668 321 684 372 684 442 L 684 549 L 645 549 C 560 549 497 544 456 534 C 415 524 386 507 368 485 C 350 463 342 429 342 385 Z M 594 1645 L 936 1645 L 641 1270 L 376 1270 L 594 1645 Z" unicode="á" />
<glyph horiz-adv-x="1116" d="M 414 -14 C 327 -14 257 -1 203 24 C 149 50 110 87 85 137 C 59 187 47 258 47 350 C 47 454 66 537 105 597 C 143 657 204 700 288 727 C 371 754 489 768 643 768 L 683 768 C 681 820 668 855 645 875 C 622 895 584 905 530 905 C 416 905 318 884 236 844 L 111 1094 C 227 1155 379 1186 565 1186 C 670 1186 752 1173 812 1148 C 871 1123 914 1083 942 1028 C 969 972 983 893 983 791 L 983 358 C 983 318 988 293 998 283 C 1008 273 1030 268 1063 268 L 1063 0 C 1041 -2 1010 -4 971 -4 C 889 -4 833 2 802 16 C 771 30 748 55 733 92 C 702 55 662 28 613 11 C 563 -5 497 -14 414 -14 Z M 342 385 C 342 332 353 295 375 273 C 397 251 434 240 485 240 C 556 240 607 256 638 289 C 668 321 684 372 684 442 L 684 549 L 645 549 C 560 549 497 544 456 534 C 415 524 386 507 368 485 C 350 463 342 429 342 385 Z M 415 1645 L 700 1645 L 925 1270 L 680 1270 L 555 1432 L 432 1270 L 192 1270 L 415 1645 Z" unicode="â" />
<glyph horiz-adv-x="1116" d="M 414 -14 C 327 -14 257 -1 203 24 C 149 50 110 87 85 137 C 59 187 47 258 47 350 C 47 454 66 537 105 597 C 143 657 204 700 288 727 C 371 754 489 768 643 768 L 683 768 C 681 820 668 855 645 875 C 622 895 584 905 530 905 C 416 905 318 884 236 844 L 111 1094 C 227 1155 379 1186 565 1186 C 670 1186 752 1173 812 1148 C 871 1123 914 1083 942 1028 C 969 972 983 893 983 791 L 983 358 C 983 318 988 293 998 283 C 1008 273 1030 268 1063 268 L 1063 0 C 1041 -2 1010 -4 971 -4 C 889 -4 833 2 802 16 C 771 30 748 55 733 92 C 702 55 662 28 613 11 C 563 -5 497 -14 414 -14 Z M 342 385 C 342 332 353 295 375 273 C 397 251 434 240 485 240 C 556 240 607 256 638 289 C 668 321 684 372 684 442 L 684 549 L 645 549 C 560 549 497 544 456 534 C 415 524 386 507 368 485 C 350 463 342 429 342 385 Z M 120 1372 C 160 1450 203 1507 251 1543 C 298 1579 354 1597 419 1597 C 446 1597 471 1592 494 1583 C 517 1573 538 1563 558 1552 C 578 1541 596 1531 613 1522 C 630 1513 646 1509 661 1509 C 682 1509 702 1516 722 1532 C 742 1547 764 1572 790 1608 L 987 1493 C 947 1415 903 1357 857 1321 C 810 1284 754 1266 690 1266 C 662 1266 636 1270 613 1279 C 589 1288 568 1298 548 1309 C 528 1319 510 1329 494 1338 C 477 1347 462 1352 448 1352 C 426 1352 406 1345 386 1331 C 366 1317 343 1292 319 1257 L 120 1372 Z" unicode="ã" />
<glyph horiz-adv-x="1116" d="M 414 -14 C 327 -14 257 -1 203 24 C 149 50 110 87 85 137 C 59 187 47 258 47 350 C 47 454 66 537 105 597 C 143 657 204 700 288 727 C 371 754 489 768 643 768 L 683 768 C 681 820 668 855 645 875 C 622 895 584 905 530 905 C 416 905 318 884 236 844 L 111 1094 C 227 1155 379 1186 565 1186 C 670 1186 752 1173 812 1148 C 871 1123 914 1083 942 1028 C 969 972 983 893 983 791 L 983 358 C 983 318 988 293 998 283 C 1008 273 1030 268 1063 268 L 1063 0 C 1041 -2 1010 -4 971 -4 C 889 -4 833 2 802 16 C 771 30 748 55 733 92 C 702 55 662 28 613 11 C 563 -5 497 -14 414 -14 Z M 342 385 C 342 332 353 295 375 273 C 397 251 434 240 485 240 C 556 240 607 256 638 289 C 668 321 684 372 684 442 L 684 549 L 645 549 C 560 549 497 544 456 534 C 415 524 386 507 368 485 C 350 463 342 429 342 385 Z M 221 1544 L 495 1544 L 495 1270 L 221 1270 L 221 1544 Z M 622 1544 L 895 1544 L 895 1270 L 622 1270 L 622 1544 Z" unicode="ä" />
<glyph horiz-adv-x="1116" d="M 414 -14 C 327 -14 257 -1 203 24 C 149 50 110 87 85 137 C 59 187 47 258 47 350 C 47 454 66 537 105 597 C 143 657 204 700 288 727 C 371 754 489 768 643 768 L 683 768 C 681 820 668 855 645 875 C 622 895 584 905 530 905 C 416 905 318 884 236 844 L 111 1094 C 227 1155 379 1186 565 1186 C 670 1186 752 1173 812 1148 C 871 1123 914 1083 942 1028 C 969 972 983 893 983 791 L 983 358 C 983 318 988 293 998 283 C 1008 273 1030 268 1063 268 L 1063 0 C 1041 -2 1010 -4 971 -4 C 889 -4 833 2 802 16 C 771 30 748 55 733 92 C 702 55 662 28 613 11 C 563 -5 497 -14 414 -14 Z M 342 385 C 342 332 353 295 375 273 C 397 251 434 240 485 240 C 556 240 607 256 638 289 C 668 321 684 372 684 442 L 684 549 L 645 549 C 560 549 497 544 456 534 C 415 524 386 507 368 485 C 350 463 342 429 342 385 Z M 557 1251 C 475 1251 412 1274 369 1320 C 326 1366 305 1435 305 1526 C 305 1618 326 1687 370 1734 C 413 1780 475 1804 557 1804 C 638 1804 701 1780 745 1732 C 789 1684 811 1616 811 1526 C 811 1437 789 1369 745 1322 C 701 1274 639 1251 557 1251 Z M 557 1399 C 592 1399 617 1409 633 1429 C 649 1449 657 1481 657 1526 C 657 1572 649 1605 633 1625 C 617 1645 591 1655 557 1655 C 489 1655 456 1612 456 1526 C 456 1483 464 1451 480 1430 C 496 1409 522 1399 557 1399 Z" unicode="å" />
<glyph horiz-adv-x="1681" d="M 1174 -14 C 1002 -14 878 33 804 127 L 785 103 C 721 25 598 -14 414 -14 C 327 -14 257 -1 203 24 C 149 50 110 87 85 137 C 59 187 47 258 47 350 C 47 454 66 537 105 597 C 143 657 204 700 288 727 C 371 754 489 768 643 768 L 683 768 C 681 820 668 855 645 875 C 622 895 584 905 530 905 C 416 905 318 884 236 844 L 111 1094 C 227 1155 379 1186 565 1186 C 642 1186 705 1178 755 1164 C 804 1150 844 1126 875 1094 C 949 1152 1050 1182 1180 1182 C 1337 1182 1450 1143 1518 1065 C 1586 987 1621 847 1621 645 L 1620 442 L 979 442 C 985 386 995 345 1011 320 C 1026 295 1048 277 1077 266 C 1106 255 1144 250 1190 250 C 1243 250 1291 254 1335 262 C 1378 270 1431 289 1495 317 L 1612 82 C 1491 18 1345 -14 1174 -14 Z M 342 385 C 342 332 353 295 375 273 C 397 251 434 240 485 240 C 556 240 607 256 638 289 C 668 321 684 372 684 442 L 684 549 L 645 549 C 560 549 497 544 456 534 C 415 524 386 507 368 485 C 350 463 342 429 342 385 Z M 1346 682 C 1344 758 1338 810 1328 836 C 1317 862 1300 881 1276 893 C 1252 905 1218 911 1174 911 C 1110 911 1063 896 1033 867 C 1003 838 986 790 980 722 L 977 682 L 1346 682 Z" unicode="æ" />
<glyph horiz-adv-x="918" d="M 541 -16 C 423 -16 329 4 258 45 C 187 85 135 148 102 233 C 69 317 53 434 53 584 C 53 738 70 856 104 938 C 138 1020 191 1081 265 1121 C 339 1161 437 1182 559 1182 C 688 1182 795 1161 881 1120 L 745 852 C 694 879 637 893 575 893 C 499 893 445 870 415 824 C 384 778 369 694 369 573 C 369 448 384 363 416 319 C 448 274 503 252 582 252 C 640 252 705 267 776 299 L 893 63 C 834 35 778 14 726 2 C 674 -9 612 -16 541 -16 Z M 473 -498 C 386 -498 305 -480 231 -444 L 297 -301 C 351 -321 402 -332 450 -332 C 490 -332 517 -326 531 -314 C 545 -302 553 -282 553 -254 C 553 -229 546 -211 534 -201 C 522 -190 501 -184 473 -184 L 405 -186 L 352 -147 L 385 14 L 553 14 L 534 -86 L 564 -85 C 630 -85 678 -100 708 -132 C 737 -164 752 -212 752 -276 C 752 -356 730 -413 687 -447 C 644 -481 573 -498 473 -498 Z" unicode="ç" />
<glyph horiz-adv-x="1055" d="M 547 -14 C 426 -14 330 5 258 45 C 186 84 133 144 101 226 C 69 307 53 426 53 584 C 53 730 70 846 105 930 C 140 1014 194 1077 268 1119 C 342 1161 437 1182 555 1182 C 663 1182 750 1164 815 1128 C 880 1092 926 1035 953 959 C 980 882 994 778 995 646 L 993 442 L 352 442 C 358 390 368 350 383 324 C 397 298 419 279 447 267 C 475 255 514 250 563 250 C 621 250 674 254 720 264 C 766 274 816 291 868 317 L 985 82 C 864 18 718 -14 547 -14 Z M 721 682 C 718 762 711 814 701 839 C 690 863 673 881 650 893 C 626 905 592 911 547 911 C 483 911 437 896 407 868 C 377 839 359 790 353 722 L 350 682 L 721 682 Z M 146 1645 L 490 1645 L 707 1270 L 443 1270 L 146 1645 Z" unicode="è" />
<glyph horiz-adv-x="1055" d="M 562 1645 L 904 1645 L 609 1270 L 344 1270 L 562 1645 Z M 547 -14 C 426 -14 330 5 258 45 C 186 84 133 144 101 226 C 69 307 53 426 53 584 C 53 730 70 846 105 930 C 140 1014 194 1077 268 1119 C 342 1161 437 1182 555 1182 C 663 1182 750 1164 815 1128 C 880 1092 926 1035 953 959 C 980 882 994 778 995 646 L 993 442 L 352 442 C 358 390 368 350 383 324 C 397 298 419 279 447 267 C 475 255 514 250 563 250 C 621 250 674 254 720 264 C 766 274 816 291 868 317 L 985 82 C 864 18 718 -14 547 -14 Z M 721 682 C 718 762 711 814 701 839 C 690 863 673 881 650 893 C 626 905 592 911 547 911 C 483 911 437 896 407 868 C 377 839 359 790 353 722 L 350 682 L 721 682 Z" unicode="é" />
<glyph horiz-adv-x="1055" d="M 383 1645 L 668 1645 L 893 1270 L 648 1270 L 523 1432 L 400 1270 L 160 1270 L 383 1645 Z M 547 -14 C 426 -14 330 5 258 45 C 186 84 133 144 101 226 C 69 307 53 426 53 584 C 53 730 70 846 105 930 C 140 1014 194 1077 268 1119 C 342 1161 437 1182 555 1182 C 663 1182 750 1164 815 1128 C 880 1092 926 1035 953 959 C 980 882 994 778 995 646 L 993 442 L 352 442 C 358 390 368 350 383 324 C 397 298 419 279 447 267 C 475 255 514 250 563 250 C 621 250 674 254 720 264 C 766 274 816 291 868 317 L 985 82 C 864 18 718 -14 547 -14 Z M 721 682 C 718 762 711 814 701 839 C 690 863 673 881 650 893 C 626 905 592 911 547 911 C 483 911 437 896 407 868 C 377 839 359 790 353 722 L 350 682 L 721 682 Z" unicode="ê" />
<glyph horiz-adv-x="1055" d="M 189 1544 L 463 1544 L 463 1270 L 189 1270 L 189 1544 Z M 590 1544 L 863 1544 L 863 1270 L 590 1270 L 590 1544 Z M 547 -14 C 426 -14 330 5 258 45 C 186 84 133 144 101 226 C 69 307 53 426 53 584 C 53 730 70 846 105 930 C 140 1014 194 1077 268 1119 C 342 1161 437 1182 555 1182 C 663 1182 750 1164 815 1128 C 880 1092 926 1035 953 959 C 980 882 994 778 995 646 L 993 442 L 352 442 C 358 390 368 350 383 324 C 397 298 419 279 447 267 C 475 255 514 250 563 250 C 621 250 674 254 720 264 C 766 274 816 291 868 317 L 985 82 C 864 18 718 -14 547 -14 Z M 721 682 C 718 762 711 814 701 839 C 690 863 673 881 650 893 C 626 905 592 911 547 911 C 483 911 437 896 407 868 C 377 839 359 790 353 722 L 350 682 L 721 682 Z" unicode="ë" />
<glyph horiz-adv-x="524" d="M -76 1645 L 264 1645 L 416 1270 L 152 1270 L -76 1645 Z M 106 1161 L 416 1161 L 416 0 L 106 0 L 106 1161 Z" unicode="ì" />
<glyph horiz-adv-x="524" d="M 256 1645 L 598 1645 L 371 1270 L 109 1270 L 256 1645 Z M 106 1161 L 416 1161 L 416 0 L 106 0 L 106 1161 Z" unicode="í" />
<glyph horiz-adv-x="524" d="M 119 1645 L 403 1645 L 602 1270 L 356 1270 L 258 1432 L 160 1270 L -80 1270 L 119 1645 Z M 106 1161 L 416 1161 L 416 0 L 106 0 L 106 1161 Z" unicode="î" />
<glyph horiz-adv-x="524" d="M -33 1544 L 211 1544 L 211 1270 L -33 1270 L -33 1544 Z M 311 1544 L 555 1544 L 555 1270 L 311 1270 L 311 1544 Z M 106 1161 L 416 1161 L 416 0 L 106 0 L 106 1161 Z" unicode="ï" />
<glyph horiz-adv-x="1133" d="M 481 1335 L 589 1357 C 553 1411 523 1449 500 1473 L 739 1610 C 793 1569 844 1506 892 1421 L 1087 1462 L 1087 1276 L 969 1251 C 1041 1049 1077 845 1077 639 C 1077 461 1059 327 1025 238 C 990 149 935 84 861 43 C 786 2 687 -18 565 -18 C 391 -18 263 27 179 119 C 95 210 53 354 53 551 C 53 732 88 866 160 953 C 232 1039 339 1083 483 1083 C 603 1083 689 1055 743 999 C 726 1060 704 1124 676 1190 L 481 1149 L 481 1335 Z M 565 252 C 614 252 653 261 682 281 C 710 300 731 329 744 367 C 757 405 764 464 764 545 C 764 625 757 683 745 720 C 732 757 711 785 683 805 C 654 824 615 834 565 834 C 515 834 476 824 448 805 C 419 785 398 757 386 720 C 373 682 367 624 367 545 C 367 465 373 406 386 368 C 398 330 419 301 447 281 C 475 261 515 252 565 252 Z" unicode="ð" />
<glyph horiz-adv-x="1151" d="M 98 1143 L 346 1163 L 369 1071 C 399 1109 442 1137 498 1155 C 553 1173 627 1182 721 1182 C 802 1182 867 1167 917 1137 C 967 1107 1003 1063 1026 1005 C 1049 947 1061 865 1061 760 L 1061 0 L 750 0 L 750 682 C 750 744 745 787 736 812 C 726 837 711 856 690 868 C 668 880 638 887 600 887 C 551 887 513 879 485 865 C 457 851 438 828 426 796 C 414 764 408 711 408 639 L 408 0 L 98 0 L 98 1143 Z M 135 1372 C 175 1450 218 1507 266 1543 C 313 1579 369 1597 434 1597 C 461 1597 486 1592 509 1583 C 532 1573 553 1563 573 1552 C 593 1541 611 1531 628 1522 C 645 1513 661 1509 676 1509 C 697 1509 717 1516 737 1532 C 757 1547 779 1572 805 1608 L 1002 1493 C 962 1415 918 1357 872 1321 C 825 1284 769 1266 705 1266 C 677 1266 651 1270 628 1279 C 604 1288 583 1298 563 1309 C 543 1319 525 1329 509 1338 C 492 1347 477 1352 463 1352 C 441 1352 421 1345 401 1331 C 381 1317 358 1292 334 1257 L 135 1372 Z" unicode="ñ" />
<glyph horiz-adv-x="1128" d="M 565 -18 C 443 -18 345 3 270 45 C 195 87 140 151 105 237 C 70 323 53 438 53 584 C 53 732 70 848 105 932 C 140 1016 195 1078 271 1120 C 347 1161 445 1182 565 1182 C 685 1182 783 1161 858 1120 C 932 1078 987 1016 1022 933 C 1057 850 1075 734 1075 584 C 1075 431 1057 313 1023 229 C 988 145 933 83 859 43 C 785 2 687 -18 565 -18 Z M 565 252 C 615 252 654 261 683 281 C 711 300 732 330 745 371 C 757 411 764 479 764 573 C 764 667 757 734 745 774 C 732 814 711 844 683 864 C 655 883 615 893 565 893 C 514 893 475 883 447 864 C 419 844 398 814 386 774 C 373 734 367 667 367 573 C 367 480 373 413 385 372 C 397 331 418 301 446 281 C 474 261 514 252 565 252 Z M 182 1645 L 526 1645 L 743 1270 L 479 1270 L 182 1645 Z" unicode="ò" />
<glyph horiz-adv-x="1128" d="M 598 1645 L 940 1645 L 645 1270 L 380 1270 L 598 1645 Z M 565 -18 C 443 -18 345 3 270 45 C 195 87 140 151 105 237 C 70 323 53 438 53 584 C 53 732 70 848 105 932 C 140 1016 195 1078 271 1120 C 347 1161 445 1182 565 1182 C 685 1182 783 1161 858 1120 C 932 1078 987 1016 1022 933 C 1057 850 1075 734 1075 584 C 1075 431 1057 313 1023 229 C 988 145 933 83 859 43 C 785 2 687 -18 565 -18 Z M 565 252 C 615 252 654 261 683 281 C 711 300 732 330 745 371 C 757 411 764 479 764 573 C 764 667 757 734 745 774 C 732 814 711 844 683 864 C 655 883 615 893 565 893 C 514 893 475 883 447 864 C 419 844 398 814 386 774 C 373 734 367 667 367 573 C 367 480 373 413 385 372 C 397 331 418 301 446 281 C 474 261 514 252 565 252 Z" unicode="ó" />
<glyph horiz-adv-x="1128" d="M 419 1645 L 704 1645 L 929 1270 L 684 1270 L 559 1432 L 436 1270 L 196 1270 L 419 1645 Z M 565 -18 C 443 -18 345 3 270 45 C 195 87 140 151 105 237 C 70 323 53 438 53 584 C 53 732 70 848 105 932 C 140 1016 195 1078 271 1120 C 347 1161 445 1182 565 1182 C 685 1182 783 1161 858 1120 C 932 1078 987 1016 1022 933 C 1057 850 1075 734 1075 584 C 1075 431 1057 313 1023 229 C 988 145 933 83 859 43 C 785 2 687 -18 565 -18 Z M 565 252 C 615 252 654 261 683 281 C 711 300 732 330 745 371 C 757 411 764 479 764 573 C 764 667 757 734 745 774 C 732 814 711 844 683 864 C 655 883 615 893 565 893 C 514 893 475 883 447 864 C 419 844 398 814 386 774 C 373 734 367 667 367 573 C 367 480 373 413 385 372 C 397 331 418 301 446 281 C 474 261 514 252 565 252 Z" unicode="ô" />
<glyph horiz-adv-x="1128" d="M 565 -18 C 443 -18 345 3 270 45 C 195 87 140 151 105 237 C 70 323 53 438 53 584 C 53 732 70 848 105 932 C 140 1016 195 1078 271 1120 C 347 1161 445 1182 565 1182 C 685 1182 783 1161 858 1120 C 932 1078 987 1016 1022 933 C 1057 850 1075 734 1075 584 C 1075 431 1057 313 1023 229 C 988 145 933 83 859 43 C 785 2 687 -18 565 -18 Z M 565 252 C 615 252 654 261 683 281 C 711 300 732 330 745 371 C 757 411 764 479 764 573 C 764 667 757 734 745 774 C 732 814 711 844 683 864 C 655 883 615 893 565 893 C 514 893 475 883 447 864 C 419 844 398 814 386 774 C 373 734 367 667 367 573 C 367 480 373 413 385 372 C 397 331 418 301 446 281 C 474 261 514 252 565 252 Z M 124 1372 C 164 1450 207 1507 255 1543 C 302 1579 358 1597 423 1597 C 450 1597 475 1592 498 1583 C 521 1573 542 1563 562 1552 C 582 1541 600 1531 617 1522 C 634 1513 650 1509 665 1509 C 686 1509 706 1516 726 1532 C 746 1547 768 1572 794 1608 L 991 1493 C 951 1415 907 1357 861 1321 C 814 1284 758 1266 694 1266 C 666 1266 640 1270 617 1279 C 593 1288 572 1298 552 1309 C 532 1319 514 1329 498 1338 C 481 1347 466 1352 452 1352 C 430 1352 410 1345 390 1331 C 370 1317 347 1292 323 1257 L 124 1372 Z" unicode="õ" />
<glyph horiz-adv-x="1128" d="M 225 1544 L 499 1544 L 499 1270 L 225 1270 L 225 1544 Z M 626 1544 L 899 1544 L 899 1270 L 626 1270 L 626 1544 Z M 565 -18 C 443 -18 345 3 270 45 C 195 87 140 151 105 237 C 70 323 53 438 53 584 C 53 732 70 848 105 932 C 140 1016 195 1078 271 1120 C 347 1161 445 1182 565 1182 C 685 1182 783 1161 858 1120 C 932 1078 987 1016 1022 933 C 1057 850 1075 734 1075 584 C 1075 431 1057 313 1023 229 C 988 145 933 83 859 43 C 785 2 687 -18 565 -18 Z M 565 252 C 615 252 654 261 683 281 C 711 300 732 330 745 371 C 757 411 764 479 764 573 C 764 667 757 734 745 774 C 732 814 711 844 683 864 C 655 883 615 893 565 893 C 514 893 475 883 447 864 C 419 844 398 814 386 774 C 373 734 367 667 367 573 C 367 480 373 413 385 372 C 397 331 418 301 446 281 C 474 261 514 252 565 252 Z" unicode="ö" />
<glyph horiz-adv-x="1247" d="M 469 459 L 776 459 L 776 193 L 469 193 L 469 459 Z M 154 864 L 1094 864 L 1094 580 L 154 580 L 154 864 Z M 469 1249 L 776 1249 L 776 983 L 469 983 L 469 1249 Z" unicode="÷" />
<glyph horiz-adv-x="1128" d="M 565 -18 C 497 -18 438 -12 386 0 L 338 -90 L 94 -90 L 196 100 C 146 147 109 210 87 290 C 64 370 53 468 53 584 C 53 732 70 848 105 932 C 140 1016 195 1078 271 1120 C 347 1161 445 1182 565 1182 C 636 1182 699 1175 753 1161 L 801 1249 L 1049 1249 L 942 1056 C 989 1008 1023 946 1044 869 C 1064 791 1075 696 1075 584 C 1075 431 1057 313 1023 229 C 988 145 933 83 859 43 C 785 2 687 -18 565 -18 Z M 565 903 C 512 903 470 892 440 872 C 410 851 388 819 374 775 C 360 731 354 663 354 573 C 354 499 358 439 368 395 L 627 897 C 608 901 587 903 565 903 Z M 565 244 C 617 244 659 254 690 275 C 720 295 742 327 756 371 C 769 415 776 482 776 573 C 776 653 771 711 763 746 L 506 249 C 523 245 543 244 565 244 Z" unicode="ø" />
<glyph horiz-adv-x="1130" d="M 565 -16 C 443 -16 349 0 281 30 C 213 61 164 110 134 178 C 104 245 90 344 90 475 L 90 1161 L 401 1161 L 401 492 C 401 410 406 357 416 331 C 426 305 442 287 466 275 C 490 263 524 258 569 258 C 613 258 646 264 670 277 C 694 289 710 309 720 337 C 730 365 735 417 735 494 L 735 1161 L 1040 1161 L 1040 475 C 1040 341 1025 240 995 174 C 965 107 916 59 848 29 C 780 -1 685 -16 565 -16 Z M 185 1645 L 529 1645 L 746 1270 L 482 1270 L 185 1645 Z" unicode="ù" />
<glyph horiz-adv-x="1130" d="M 601 1645 L 943 1645 L 648 1270 L 383 1270 L 601 1645 Z M 565 -16 C 443 -16 349 0 281 30 C 213 61 164 110 134 178 C 104 245 90 344 90 475 L 90 1161 L 401 1161 L 401 492 C 401 410 406 357 416 331 C 426 305 442 287 466 275 C 490 263 524 258 569 258 C 613 258 646 264 670 277 C 694 289 710 309 720 337 C 730 365 735 417 735 494 L 735 1161 L 1040 1161 L 1040 475 C 1040 341 1025 240 995 174 C 965 107 916 59 848 29 C 780 -1 685 -16 565 -16 Z" unicode="ú" />
<glyph horiz-adv-x="1130" d="M 422 1645 L 707 1645 L 932 1270 L 687 1270 L 562 1432 L 439 1270 L 199 1270 L 422 1645 Z M 565 -16 C 443 -16 349 0 281 30 C 213 61 164 110 134 178 C 104 245 90 344 90 475 L 90 1161 L 401 1161 L 401 492 C 401 410 406 357 416 331 C 426 305 442 287 466 275 C 490 263 524 258 569 258 C 613 258 646 264 670 277 C 694 289 710 309 720 337 C 730 365 735 417 735 494 L 735 1161 L 1040 1161 L 1040 475 C 1040 341 1025 240 995 174 C 965 107 916 59 848 29 C 780 -1 685 -16 565 -16 Z" unicode="û" />
<glyph horiz-adv-x="1130" d="M 228 1544 L 502 1544 L 502 1270 L 228 1270 L 228 1544 Z M 629 1544 L 902 1544 L 902 1270 L 629 1270 L 629 1544 Z M 565 -16 C 443 -16 349 0 281 30 C 213 61 164 110 134 178 C 104 245 90 344 90 475 L 90 1161 L 401 1161 L 401 492 C 401 410 406 357 416 331 C 426 305 442 287 466 275 C 490 263 524 258 569 258 C 613 258 646 264 670 277 C 694 289 710 309 720 337 C 730 365 735 417 735 494 L 735 1161 L 1040 1161 L 1040 475 C 1040 341 1025 240 995 174 C 965 107 916 59 848 29 C 780 -1 685 -16 565 -16 Z" unicode="ü" />
<glyph horiz-adv-x="1020" d="M 2 1161 L 319 1161 L 517 448 L 711 1161 L 1016 1161 L 633 -90 C 615 -150 591 -196 563 -230 C 534 -264 498 -288 454 -302 C 410 -316 348 -324 268 -324 L 139 -324 L 139 -76 L 270 -76 C 288 -76 302 -74 313 -70 C 324 -66 332 -61 338 -53 C 343 -45 349 -28 357 0 L 2 1161 Z M 545 1645 L 887 1645 L 592 1270 L 327 1270 L 545 1645 Z" unicode="ý" />
<glyph horiz-adv-x="1163" d="M 98 1575 L 406 1575 L 406 1071 C 432 1110 469 1138 518 1156 C 566 1173 634 1182 721 1182 C 809 1182 883 1162 941 1124 C 999 1085 1041 1024 1069 942 C 1096 860 1110 740 1110 584 C 1110 429 1095 310 1065 226 C 1035 142 991 81 932 43 C 872 5 798 -14 709 -14 C 631 -14 569 -7 523 6 C 476 20 438 43 408 76 L 408 -324 L 98 -324 L 98 1575 Z M 614 254 C 660 254 697 264 723 284 C 749 304 768 335 780 377 C 791 419 797 483 797 569 C 797 663 791 731 779 773 C 767 814 748 844 722 864 C 696 883 660 893 614 893 C 561 893 520 883 491 863 C 461 843 440 812 427 770 C 414 727 408 660 408 569 C 408 476 414 409 427 369 C 440 328 461 299 491 281 C 521 263 562 254 614 254 Z" unicode="þ" />
<glyph horiz-adv-x="1020" d="M 2 1161 L 319 1161 L 517 448 L 711 1161 L 1016 1161 L 633 -90 C 615 -150 591 -196 563 -230 C 534 -264 498 -288 454 -302 C 410 -316 348 -324 268 -324 L 139 -324 L 139 -76 L 270 -76 C 288 -76 302 -74 313 -70 C 324 -66 332 -61 338 -53 C 343 -45 349 -28 357 0 L 2 1161 Z M 172 1544 L 446 1544 L 446 1270 L 172 1270 L 172 1544 Z M 573 1544 L 846 1544 L 846 1270 L 573 1270 L 573 1544 Z" unicode="ÿ" />
<glyph horiz-adv-x="1343" d="M 500 1528 L 844 1528 L 1317 0 L 987 0 L 918 236 L 416 236 L 348 0 L 27 0 L 500 1528 Z M 840 518 L 668 1094 L 492 518 L 840 518 Z M 301 1852 L 1038 1852 L 1038 1596 L 301 1596 L 301 1852 Z" unicode="Ā" />
<glyph horiz-adv-x="1116" d="M 414 -14 C 327 -14 257 -1 203 24 C 149 50 110 87 85 137 C 59 187 47 258 47 350 C 47 454 66 537 105 597 C 143 657 204 700 288 727 C 371 754 489 768 643 768 L 683 768 C 681 820 668 855 645 875 C 622 895 584 905 530 905 C 416 905 318 884 236 844 L 111 1094 C 227 1155 379 1186 565 1186 C 670 1186 752 1173 812 1148 C 871 1123 914 1083 942 1028 C 969 972 983 893 983 791 L 983 358 C 983 318 988 293 998 283 C 1008 273 1030 268 1063 268 L 1063 0 C 1041 -2 1010 -4 971 -4 C 889 -4 833 2 802 16 C 771 30 748 55 733 92 C 702 55 662 28 613 11 C 563 -5 497 -14 414 -14 Z M 342 385 C 342 332 353 295 375 273 C 397 251 434 240 485 240 C 556 240 607 256 638 289 C 668 321 684 372 684 442 L 684 549 L 645 549 C 560 549 497 544 456 534 C 415 524 386 507 368 485 C 350 463 342 429 342 385 Z M 188 1526 L 925 1526 L 925 1270 L 188 1270 L 188 1526 Z" unicode="ā" />
<glyph horiz-adv-x="1343" d="M 500 1528 L 844 1528 L 1317 0 L 987 0 L 918 236 L 416 236 L 348 0 L 27 0 L 500 1528 Z M 840 518 L 668 1094 L 492 518 L 840 518 Z M 670 1583 C 586 1583 519 1594 469 1617 C 419 1640 380 1676 353 1725 C 325 1774 305 1848 293 1946 L 514 1979 C 523 1918 538 1876 560 1852 C 581 1828 618 1817 670 1817 C 720 1817 756 1828 778 1851 C 800 1873 815 1916 825 1979 L 1049 1948 C 1035 1848 1014 1773 986 1724 C 958 1674 920 1638 870 1616 C 820 1594 754 1583 670 1583 Z" unicode="Ă" />
<glyph horiz-adv-x="1116" d="M 414 -14 C 327 -14 257 -1 203 24 C 149 50 110 87 85 137 C 59 187 47 258 47 350 C 47 454 66 537 105 597 C 143 657 204 700 288 727 C 371 754 489 768 643 768 L 683 768 C 681 820 668 855 645 875 C 622 895 584 905 530 905 C 416 905 318 884 236 844 L 111 1094 C 227 1155 379 1186 565 1186 C 670 1186 752 1173 812 1148 C 871 1123 914 1083 942 1028 C 969 972 983 893 983 791 L 983 358 C 983 318 988 293 998 283 C 1008 273 1030 268 1063 268 L 1063 0 C 1041 -2 1010 -4 971 -4 C 889 -4 833 2 802 16 C 771 30 748 55 733 92 C 702 55 662 28 613 11 C 563 -5 497 -14 414 -14 Z M 342 385 C 342 332 353 295 375 273 C 397 251 434 240 485 240 C 556 240 607 256 638 289 C 668 321 684 372 684 442 L 684 549 L 645 549 C 560 549 497 544 456 534 C 415 524 386 507 368 485 C 350 463 342 429 342 385 Z M 557 1257 C 473 1257 406 1268 356 1291 C 306 1314 267 1350 240 1399 C 212 1448 192 1522 180 1620 L 401 1653 C 410 1592 425 1550 447 1526 C 468 1502 505 1491 557 1491 C 607 1491 643 1502 665 1525 C 687 1547 702 1590 712 1653 L 936 1622 C 922 1522 901 1447 873 1398 C 845 1348 807 1312 757 1290 C 707 1268 641 1257 557 1257 Z" unicode="ă" />
<glyph horiz-adv-x="1343" d="M 500 1528 L 844 1528 L 1317 0 L 1178 0 C 1136 -38 1103 -76 1079 -116 C 1054 -155 1042 -189 1042 -219 C 1042 -249 1049 -270 1065 -284 C 1081 -298 1107 -305 1143 -305 L 1204 -305 L 1204 -479 L 1116 -479 C 1009 -479 936 -463 896 -432 C 856 -401 836 -346 836 -268 C 836 -170 885 -79 985 4 L 918 236 L 416 236 L 348 0 L 27 0 L 500 1528 Z M 840 518 L 668 1094 L 492 518 L 840 518 Z" unicode="Ą" />
<glyph horiz-adv-x="1116" d="M 414 -14 C 327 -14 257 -1 203 24 C 149 50 110 87 85 137 C 59 187 47 258 47 350 C 47 454 66 537 105 597 C 143 657 204 700 288 727 C 371 754 489 768 643 768 L 684 768 C 681 819 668 855 644 875 C 620 895 582 905 530 905 C 416 905 318 884 236 844 L 111 1094 C 227 1155 379 1186 565 1186 C 670 1186 752 1173 812 1148 C 871 1123 914 1083 942 1028 C 969 972 983 893 983 791 L 983 358 C 983 318 988 293 998 283 C 1008 273 1030 268 1063 268 L 1063 0 C 1003 -44 963 -77 942 -98 C 921 -118 905 -138 895 -158 C 884 -177 879 -197 879 -219 C 879 -249 886 -270 902 -284 C 917 -298 943 -305 981 -305 L 1040 -305 L 1040 -479 L 952 -479 C 845 -479 772 -463 732 -432 C 692 -401 672 -346 672 -268 C 672 -216 687 -167 718 -119 C 749 -71 794 -31 852 2 C 820 7 795 16 777 30 C 759 43 744 64 733 92 C 702 55 662 28 613 11 C 563 -5 497 -14 414 -14 Z M 485 240 C 556 240 607 256 638 289 C 668 321 684 372 684 442 L 684 549 L 645 549 C 560 549 497 544 456 534 C 415 524 386 507 368 485 C 350 463 342 429 342 385 C 342 332 353 295 375 273 C 397 251 434 240 485 240 Z" unicode="ą" />
<glyph horiz-adv-x="1155" d="M 613 1971 L 955 1971 L 660 1596 L 395 1596 L 613 1971 Z M 664 -18 C 521 -18 405 9 316 64 C 226 119 160 202 118 313 C 76 423 55 572 55 758 C 55 951 77 1103 122 1214 C 167 1325 236 1406 329 1458 C 421 1510 541 1536 688 1536 C 850 1536 987 1499 1100 1425 L 928 1159 C 858 1201 775 1223 678 1223 C 599 1223 539 1207 498 1177 C 456 1146 426 1096 408 1028 C 390 960 381 867 381 750 C 381 627 390 532 409 464 C 428 396 458 347 500 316 C 542 285 602 270 680 270 C 734 270 783 276 825 289 C 867 302 908 322 948 348 L 1106 100 C 1036 56 968 26 900 8 C 832 -9 754 -18 664 -18 Z" unicode="Ć" />
<glyph horiz-adv-x="918" d="M 495 1645 L 837 1645 L 542 1270 L 277 1270 L 495 1645 Z M 541 -16 C 423 -16 329 4 258 45 C 187 85 135 148 102 233 C 69 317 53 434 53 584 C 53 738 70 856 104 938 C 138 1020 191 1081 265 1121 C 339 1161 437 1182 559 1182 C 688 1182 795 1161 881 1120 L 745 852 C 694 879 637 893 575 893 C 499 893 445 870 415 824 C 384 778 369 694 369 573 C 369 448 384 363 416 319 C 448 274 503 252 582 252 C 640 252 705 267 776 299 L 893 63 C 834 35 778 14 726 2 C 674 -9 612 -16 541 -16 Z" unicode="ć" />
<glyph horiz-adv-x="1876" d="M 840 1518 L 1098 1518 L 1282 911 L 1464 1518 L 1724 1518 L 1724 547 L 1503 547 L 1503 1090 L 1350 547 L 1204 547 L 1049 1090 L 1049 547 L 840 547 L 840 1518 Z M 307 1311 L 63 1311 L 63 1518 L 782 1518 L 782 1311 L 537 1311 L 537 547 L 307 547 L 307 1311 Z" unicode="™" />
<glyph horiz-adv-x="1155" d="M 211 1971 L 457 1971 L 580 1809 L 703 1971 L 944 1971 L 719 1596 L 434 1596 L 211 1971 Z M 664 -18 C 521 -18 405 9 316 64 C 226 119 160 202 118 313 C 76 423 55 572 55 758 C 55 951 77 1103 122 1214 C 167 1325 236 1406 329 1458 C 421 1510 541 1536 688 1536 C 850 1536 987 1499 1100 1425 L 928 1159 C 858 1201 775 1223 678 1223 C 599 1223 539 1207 498 1177 C 456 1146 426 1096 408 1028 C 390 960 381 867 381 750 C 381 627 390 532 409 464 C 428 396 458 347 500 316 C 542 285 602 270 680 270 C 734 270 783 276 825 289 C 867 302 908 322 948 348 L 1106 100 C 1036 56 968 26 900 8 C 832 -9 754 -18 664 -18 Z" unicode="Č" />
<glyph horiz-adv-x="918" d="M 93 1645 L 339 1645 L 462 1483 L 585 1645 L 826 1645 L 601 1270 L 316 1270 L 93 1645 Z M 541 -16 C 423 -16 329 4 258 45 C 187 85 135 148 102 233 C 69 317 53 434 53 584 C 53 738 70 856 104 938 C 138 1020 191 1081 265 1121 C 339 1161 437 1182 559 1182 C 688 1182 795 1161 881 1120 L 745 852 C 694 879 637 893 575 893 C 499 893 445 870 415 824 C 384 778 369 694 369 573 C 369 448 384 363 416 319 C 448 274 503 252 582 252 C 640 252 705 267 776 299 L 893 63 C 834 35 778 14 726 2 C 674 -9 612 -16 541 -16 Z" unicode="č" />
<glyph horiz-adv-x="1315" d="M 291 1971 L 537 1971 L 660 1809 L 783 1971 L 1024 1971 L 799 1596 L 514 1596 L 291 1971 Z M 119 1518 L 592 1518 C 764 1518 897 1493 991 1444 C 1085 1395 1153 1316 1196 1208 C 1238 1100 1260 950 1260 760 C 1260 565 1239 414 1197 306 C 1155 198 1088 120 996 72 C 903 24 768 0 592 0 L 119 0 L 119 1518 Z M 621 279 C 707 279 772 294 814 324 C 856 354 886 404 905 472 C 924 540 934 636 934 758 C 934 880 924 975 905 1041 C 886 1107 855 1154 812 1182 C 769 1210 702 1225 612 1225 L 440 1225 L 440 279 L 621 279 Z" unicode="Ď" />
<glyph horiz-adv-x="1419" d="M 1163 1176 C 1217 1206 1251 1229 1263 1243 C 1275 1257 1282 1279 1282 1309 L 1163 1309 L 1163 1575 L 1436 1575 L 1436 1333 C 1436 1277 1429 1236 1417 1209 C 1405 1181 1384 1156 1354 1133 C 1324 1109 1281 1085 1227 1061 L 1163 1176 Z M 442 -14 C 352 -14 278 5 221 44 C 164 82 122 143 95 227 C 68 310 55 430 55 586 C 55 738 69 857 98 941 C 127 1025 171 1086 230 1124 C 289 1162 365 1182 457 1182 C 539 1182 602 1175 647 1161 C 691 1147 728 1124 756 1094 L 756 1575 L 1067 1575 L 1067 10 L 819 -10 L 795 96 C 763 58 718 30 662 12 C 605 -5 532 -14 442 -14 Z M 549 254 C 601 254 642 264 672 284 C 702 304 723 335 736 377 C 749 419 756 486 756 580 C 756 672 749 738 736 778 C 723 818 702 848 672 867 C 642 885 601 895 549 895 C 502 895 466 885 440 866 C 414 847 396 817 384 777 C 372 736 367 670 367 580 C 367 486 372 417 384 375 C 395 333 414 302 440 283 C 466 263 503 254 549 254 Z" unicode="ď" />
<glyph horiz-adv-x="1315" d="M 0 895 L 119 895 L 119 1518 L 592 1518 C 764 1518 897 1493 991 1444 C 1085 1395 1153 1316 1196 1208 C 1238 1100 1260 950 1260 760 C 1260 565 1239 414 1197 306 C 1155 198 1088 120 996 72 C 903 24 768 0 592 0 L 119 0 L 119 635 L 0 635 L 0 895 Z M 621 279 C 707 279 772 294 814 324 C 856 354 886 404 905 472 C 924 540 934 636 934 758 C 934 880 924 975 905 1041 C 886 1107 855 1154 812 1182 C 769 1210 702 1225 612 1225 L 440 1225 L 440 895 L 655 895 L 655 635 L 440 635 L 440 279 L 621 279 Z" unicode="Đ" />
<glyph horiz-adv-x="1163" d="M 442 -14 C 352 -14 278 5 221 44 C 164 82 122 143 95 227 C 68 310 55 430 55 586 C 55 738 69 857 98 941 C 127 1025 171 1086 230 1124 C 289 1162 365 1182 457 1182 C 539 1182 602 1175 647 1161 C 691 1147 728 1124 756 1094 L 756 1235 L 551 1235 L 551 1473 L 756 1473 L 756 1575 L 1067 1575 L 1067 1473 L 1163 1473 L 1163 1235 L 1067 1235 L 1067 10 L 819 -10 L 795 96 C 763 58 718 30 662 12 C 605 -5 532 -14 442 -14 Z M 549 254 C 601 254 642 264 672 284 C 702 304 723 335 736 377 C 749 419 756 486 756 580 C 756 672 749 738 736 778 C 723 818 702 848 672 867 C 642 885 601 895 549 895 C 502 895 466 885 440 866 C 414 847 396 817 384 777 C 372 736 367 670 367 580 C 367 486 372 417 384 375 C 395 333 414 302 440 283 C 466 263 503 254 549 254 Z" unicode="đ" />
<glyph horiz-adv-x="1141" d="M 119 1518 L 1055 1518 L 1055 1225 L 432 1225 L 432 922 L 1028 922 L 1028 631 L 432 631 L 432 287 L 1057 287 L 1057 0 L 119 0 L 119 1518 Z M 201 1852 L 938 1852 L 938 1596 L 201 1596 L 201 1852 Z" unicode="Ē" />
<glyph horiz-adv-x="1055" d="M 547 -14 C 426 -14 330 5 258 45 C 186 84 133 144 101 226 C 69 307 53 426 53 584 C 53 730 70 846 105 930 C 140 1014 194 1077 268 1119 C 342 1161 437 1182 555 1182 C 663 1182 750 1164 815 1128 C 880 1092 926 1035 953 959 C 980 882 994 778 995 646 L 993 442 L 352 442 C 358 390 368 350 383 324 C 397 298 419 279 447 267 C 475 255 514 250 563 250 C 621 250 674 254 720 264 C 766 274 816 291 868 317 L 985 82 C 864 18 718 -14 547 -14 Z M 721 682 C 718 762 711 814 701 839 C 690 863 673 881 650 893 C 626 905 592 911 547 911 C 483 911 437 896 407 868 C 377 839 359 790 353 722 L 350 682 L 721 682 Z M 156 1526 L 893 1526 L 893 1270 L 156 1270 L 156 1526 Z" unicode="ē" />
<glyph horiz-adv-x="1141" d="M 119 1518 L 1055 1518 L 1055 1225 L 432 1225 L 432 922 L 1028 922 L 1028 631 L 432 631 L 432 287 L 1057 287 L 1057 0 L 119 0 L 119 1518 Z M 416 1876 L 727 1876 L 727 1596 L 416 1596 L 416 1876 Z" unicode="Ė" />
<glyph horiz-adv-x="1055" d="M 547 -14 C 426 -14 330 5 258 45 C 186 84 133 144 101 226 C 69 307 53 426 53 584 C 53 730 70 846 105 930 C 140 1014 194 1077 268 1119 C 342 1161 437 1182 555 1182 C 663 1182 750 1164 815 1128 C 880 1092 926 1035 953 959 C 980 882 994 778 995 646 L 993 442 L 352 442 C 358 390 368 350 383 324 C 397 298 419 279 447 267 C 475 255 514 250 563 250 C 621 250 674 254 720 264 C 766 274 816 291 868 317 L 985 82 C 864 18 718 -14 547 -14 Z M 721 682 C 718 762 711 814 701 839 C 690 863 673 881 650 893 C 626 905 592 911 547 911 C 483 911 437 896 407 868 C 377 839 359 790 353 722 L 350 682 L 721 682 Z M 371 1550 L 682 1550 L 682 1270 L 371 1270 L 371 1550 Z" unicode="ė" />
<glyph horiz-adv-x="1141" d="M 119 1518 L 1055 1518 L 1055 1225 L 432 1225 L 432 922 L 1028 922 L 1028 631 L 432 631 L 432 287 L 1057 287 L 1057 0 L 997 0 C 907 -86 862 -159 862 -219 C 862 -249 869 -270 885 -284 C 901 -298 927 -305 965 -305 L 1024 -305 L 1024 -479 L 936 -479 C 828 -479 755 -463 715 -431 C 675 -399 655 -344 655 -268 C 655 -220 667 -173 692 -127 C 716 -81 753 -38 801 0 L 119 0 L 119 1518 Z" unicode="Ę" />
<glyph horiz-adv-x="1055" d="M 547 -14 C 426 -14 330 5 258 45 C 186 84 133 144 101 226 C 69 307 53 426 53 584 C 53 730 70 846 105 930 C 140 1014 194 1077 268 1119 C 342 1161 437 1182 555 1182 C 663 1182 750 1164 815 1128 C 880 1092 926 1035 953 959 C 980 882 994 778 995 646 L 993 442 L 352 442 C 359 369 378 319 408 291 C 438 263 490 250 563 250 C 621 250 674 254 720 264 C 766 274 816 291 868 317 L 985 82 C 952 64 908 45 854 27 C 805 -13 765 -55 734 -100 C 703 -145 688 -185 688 -219 C 688 -249 695 -270 711 -284 C 727 -298 753 -305 791 -305 L 850 -305 L 850 -479 L 762 -479 C 654 -479 581 -463 541 -431 C 501 -399 481 -344 481 -268 C 481 -177 524 -92 612 -12 L 579 -14 L 547 -14 Z M 547 911 C 478 911 429 894 400 862 C 370 829 354 769 350 682 L 721 682 C 718 762 711 814 701 839 C 690 863 673 881 650 893 C 626 905 592 911 547 911 Z" unicode="ę" />
<glyph horiz-adv-x="1141" d="M 205 1971 L 451 1971 L 574 1809 L 697 1971 L 938 1971 L 713 1596 L 428 1596 L 205 1971 Z M 119 1518 L 1055 1518 L 1055 1225 L 432 1225 L 432 922 L 1028 922 L 1028 631 L 432 631 L 432 287 L 1057 287 L 1057 0 L 119 0 L 119 1518 Z" unicode="Ě" />
<glyph horiz-adv-x="1055" d="M 160 1645 L 406 1645 L 529 1483 L 652 1645 L 893 1645 L 668 1270 L 383 1270 L 160 1645 Z M 547 -14 C 426 -14 330 5 258 45 C 186 84 133 144 101 226 C 69 307 53 426 53 584 C 53 730 70 846 105 930 C 140 1014 194 1077 268 1119 C 342 1161 437 1182 555 1182 C 663 1182 750 1164 815 1128 C 880 1092 926 1035 953 959 C 980 882 994 778 995 646 L 993 442 L 352 442 C 358 390 368 350 383 324 C 397 298 419 279 447 267 C 475 255 514 250 563 250 C 621 250 674 254 720 264 C 766 274 816 291 868 317 L 985 82 C 864 18 718 -14 547 -14 Z M 721 682 C 718 762 711 814 701 839 C 690 863 673 881 650 893 C 626 905 592 911 547 911 C 483 911 437 896 407 868 C 377 839 359 790 353 722 L 350 682 L 721 682 Z" unicode="ě" />
<glyph horiz-adv-x="997" d="M 498 1251 C 416 1251 353 1274 310 1320 C 267 1366 246 1435 246 1526 C 246 1618 267 1687 311 1734 C 354 1780 416 1804 498 1804 C 579 1804 642 1780 686 1732 C 730 1684 752 1616 752 1526 C 752 1437 730 1369 686 1322 C 642 1274 580 1251 498 1251 Z M 498 1399 C 533 1399 558 1409 574 1429 C 590 1449 598 1481 598 1526 C 598 1572 590 1605 574 1625 C 558 1645 532 1655 498 1655 C 430 1655 397 1612 397 1526 C 397 1483 405 1451 421 1430 C 437 1409 463 1399 498 1399 Z" unicode="˚" />
<glyph horiz-adv-x="1262" d="M 645 -18 C 504 -18 390 9 304 63 C 218 117 155 198 115 307 C 75 415 55 566 55 758 C 55 951 76 1103 119 1214 C 162 1324 230 1406 323 1458 C 416 1510 542 1536 700 1536 C 870 1536 1017 1497 1141 1419 L 971 1153 C 885 1202 790 1227 686 1227 C 602 1227 539 1211 498 1181 C 457 1150 427 1100 407 1032 C 387 963 377 869 377 750 C 377 619 386 519 404 450 C 422 380 452 330 494 300 C 535 269 595 254 674 254 C 733 254 779 264 812 284 C 844 304 868 337 882 381 C 896 425 903 494 903 588 L 903 625 L 608 625 L 608 901 L 1208 901 L 1208 645 C 1208 461 1190 325 1156 235 C 1122 145 1065 81 985 41 C 905 1 792 -18 645 -18 Z M 629 1583 C 545 1583 478 1594 428 1617 C 378 1640 339 1676 312 1725 C 284 1774 264 1848 252 1946 L 473 1979 C 482 1918 497 1876 519 1852 C 540 1828 577 1817 629 1817 C 679 1817 715 1828 737 1851 C 759 1873 774 1916 784 1979 L 1008 1948 C 994 1848 973 1773 945 1724 C 917 1674 879 1638 829 1616 C 779 1594 713 1583 629 1583 Z" unicode="Ğ" />
<glyph horiz-adv-x="1120" d="M 541 410 C 497 410 455 412 417 417 L 414 385 C 414 365 418 352 428 344 C 437 336 453 331 475 328 C 497 325 527 324 563 324 C 698 324 801 315 871 297 C 941 279 991 249 1021 208 C 1051 167 1067 104 1067 20 C 1067 -107 1027 -199 947 -257 C 867 -315 732 -344 543 -344 C 405 -344 299 -335 227 -317 C 154 -299 101 -270 69 -231 C 36 -191 20 -137 20 -68 C 20 77 85 165 217 197 C 176 231 156 284 156 356 C 156 409 169 455 197 493 C 116 554 76 652 76 786 C 76 920 114 1020 190 1086 C 266 1151 383 1184 541 1184 L 602 1182 L 1057 1276 L 1057 1036 L 899 1036 C 937 1009 965 975 982 934 C 999 892 1008 843 1008 786 C 1008 658 970 564 894 502 C 818 440 701 410 541 410 Z M 539 -129 C 594 -129 637 -125 668 -117 C 698 -109 720 -96 734 -80 C 747 -63 754 -36 754 0 C 754 30 747 52 734 66 C 721 79 699 88 668 94 C 636 99 594 102 541 102 C 463 102 408 93 376 76 C 344 59 328 30 328 -12 C 328 -54 344 -84 377 -102 C 409 -120 463 -129 539 -129 Z M 541 631 C 601 631 644 643 668 669 C 692 695 705 732 705 780 C 705 828 692 865 668 890 C 644 915 601 928 541 928 C 482 928 440 915 416 890 C 391 865 379 828 379 780 C 379 732 391 695 416 669 C 440 643 482 631 541 631 Z M 557 1257 C 473 1257 406 1268 356 1291 C 306 1314 267 1350 240 1399 C 212 1448 192 1522 180 1620 L 401 1653 C 410 1592 425 1550 447 1526 C 468 1502 505 1491 557 1491 C 607 1491 643 1502 665 1525 C 687 1547 702 1590 712 1653 L 936 1622 C 922 1522 901 1447 873 1398 C 845 1348 807 1312 757 1290 C 707 1268 641 1257 557 1257 Z" unicode="ğ" />
<glyph horiz-adv-x="3076" d="M 465 528 C 321 528 216 568 151 648 C 85 728 53 855 53 1030 C 53 1204 85 1332 151 1412 C 216 1492 321 1532 465 1532 C 610 1532 716 1491 782 1411 C 848 1331 881 1204 881 1030 C 881 856 848 728 782 648 C 716 568 610 528 465 528 Z M 467 758 C 519 758 556 777 576 816 C 596 855 606 924 606 1022 C 606 1119 596 1187 576 1227 C 556 1266 520 1286 467 1286 C 414 1286 378 1266 358 1227 C 338 1188 328 1120 328 1022 C 328 923 338 854 358 816 C 378 777 414 758 467 758 Z M 1716 -14 C 1573 -14 1469 25 1403 104 C 1337 183 1305 311 1305 489 C 1305 664 1337 791 1403 871 C 1468 951 1572 991 1716 991 C 1861 991 1967 951 2033 871 C 2099 791 2132 664 2132 489 C 2132 313 2099 185 2033 105 C 1967 25 1861 -14 1716 -14 Z M 1718 215 C 1771 215 1808 234 1829 272 C 1849 310 1860 379 1860 479 C 1860 579 1849 648 1829 686 C 1808 724 1771 743 1718 743 C 1665 743 1629 723 1609 684 C 1589 645 1579 577 1579 479 C 1579 381 1588 313 1608 274 C 1628 234 1664 215 1718 215 Z M 1300 1518 L 1587 1518 L 887 0 L 602 0 L 1300 1518 Z M 2609 -14 C 2466 -14 2362 25 2296 104 C 2230 183 2198 311 2198 489 C 2198 664 2230 791 2296 871 C 2361 951 2465 991 2609 991 C 2754 991 2860 950 2926 870 C 2992 789 3025 662 3025 489 C 3025 315 2992 187 2926 107 C 2860 26 2754 -14 2609 -14 Z M 2611 215 C 2663 215 2700 234 2720 272 C 2740 310 2750 379 2750 479 C 2750 581 2740 650 2720 687 C 2700 724 2663 743 2611 743 C 2558 743 2522 723 2502 684 C 2482 645 2472 577 2472 479 C 2472 381 2481 313 2501 274 C 2521 234 2557 215 2611 215 Z" unicode="‰" />
<glyph horiz-adv-x="1262" d="M 491 -471 C 545 -441 578 -419 592 -404 C 605 -389 612 -367 612 -338 L 493 -338 L 493 -72 L 763 -72 L 763 -313 C 763 -368 757 -410 745 -438 C 733 -466 712 -491 684 -514 C 656 -536 613 -561 557 -588 L 491 -471 Z M 645 -18 C 504 -18 390 9 304 63 C 218 117 155 198 115 307 C 75 415 55 566 55 758 C 55 951 76 1103 119 1214 C 162 1324 230 1406 323 1458 C 416 1510 542 1536 700 1536 C 870 1536 1017 1497 1141 1419 L 971 1153 C 885 1202 790 1227 686 1227 C 602 1227 539 1211 498 1181 C 457 1150 427 1100 407 1032 C 387 963 377 869 377 750 C 377 619 386 519 404 450 C 422 380 452 330 494 300 C 535 269 595 254 674 254 C 733 254 779 264 812 284 C 844 304 868 337 882 381 C 896 425 903 494 903 588 L 903 625 L 608 625 L 608 901 L 1208 901 L 1208 645 C 1208 461 1190 325 1156 235 C 1122 145 1065 81 985 41 C 905 1 792 -18 645 -18 Z" unicode="Ģ" />
<glyph horiz-adv-x="1120" d="M 424 1509 C 424 1564 430 1605 442 1633 C 454 1660 474 1685 502 1708 C 530 1730 574 1756 633 1784 L 696 1669 C 640 1637 607 1614 595 1600 C 583 1586 578 1565 578 1536 L 694 1536 L 694 1270 L 424 1270 L 424 1509 Z M 541 410 C 497 410 455 412 417 417 L 414 385 C 414 365 418 352 428 344 C 437 336 453 331 475 328 C 497 325 527 324 563 324 C 698 324 801 315 871 297 C 941 279 991 249 1021 208 C 1051 167 1067 104 1067 20 C 1067 -107 1027 -199 947 -257 C 867 -315 732 -344 543 -344 C 405 -344 299 -335 227 -317 C 154 -299 101 -270 69 -231 C 36 -191 20 -137 20 -68 C 20 77 85 165 217 197 C 176 231 156 284 156 356 C 156 409 169 455 197 493 C 116 554 76 652 76 786 C 76 920 114 1020 190 1086 C 266 1151 383 1184 541 1184 L 602 1182 L 1057 1276 L 1057 1036 L 899 1036 C 937 1009 965 975 982 934 C 999 892 1008 843 1008 786 C 1008 658 970 564 894 502 C 818 440 701 410 541 410 Z M 539 -129 C 594 -129 637 -125 668 -117 C 698 -109 720 -96 734 -80 C 747 -63 754 -36 754 0 C 754 30 747 52 734 66 C 721 79 699 88 668 94 C 636 99 594 102 541 102 C 463 102 408 93 376 76 C 344 59 328 30 328 -12 C 328 -54 344 -84 377 -102 C 409 -120 463 -129 539 -129 Z M 541 631 C 601 631 644 643 668 669 C 692 695 705 732 705 780 C 705 828 692 865 668 890 C 644 915 601 928 541 928 C 482 928 440 915 416 890 C 391 865 379 828 379 780 C 379 732 391 695 416 669 C 440 643 482 631 541 631 Z" unicode="ģ" />
<glyph horiz-adv-x="532" d="M 129 -471 C 183 -441 216 -419 230 -404 C 243 -389 250 -367 250 -338 L 131 -338 L 131 -72 L 401 -72 L 401 -313 C 401 -368 395 -410 383 -438 C 371 -466 350 -491 322 -514 C 294 -536 251 -561 195 -588 L 129 -471 Z" unicode="̦" />
<glyph horiz-adv-x="997" d="M 133 1645 L 379 1645 L 502 1483 L 625 1645 L 866 1645 L 641 1270 L 356 1270 L 133 1645 Z" unicode="ˇ" />
<glyph horiz-adv-x="997" d="M 61 1372 C 101 1450 144 1507 192 1543 C 239 1579 295 1597 360 1597 C 387 1597 412 1592 435 1583 C 458 1573 479 1563 499 1552 C 519 1541 537 1531 554 1522 C 571 1513 587 1509 602 1509 C 623 1509 643 1516 663 1532 C 683 1547 705 1572 731 1608 L 928 1493 C 888 1415 844 1357 798 1321 C 751 1284 695 1266 631 1266 C 603 1266 577 1270 554 1279 C 530 1288 509 1298 489 1309 C 469 1319 451 1329 435 1338 C 418 1347 403 1352 389 1352 C 367 1352 347 1345 327 1331 C 307 1317 284 1292 260 1257 L 61 1372 Z" unicode="˜" />
<glyph horiz-adv-x="594" d="M 137 1518 L 457 1518 L 457 0 L 137 0 L 137 1518 Z M -71 1852 L 666 1852 L 666 1596 L -71 1596 L -71 1852 Z" unicode="Ī" />
<glyph horiz-adv-x="524" d="M 106 1161 L 416 1161 L 416 0 L 106 0 L 106 1161 Z M -108 1526 L 629 1526 L 629 1270 L -108 1270 L -108 1526 Z" unicode="ī" />
<glyph horiz-adv-x="594" d="M 137 1518 L 457 1518 L 457 0 C 384 -53 335 -95 311 -127 C 286 -158 274 -189 274 -219 C 274 -249 281 -270 297 -284 C 313 -298 339 -305 377 -305 L 436 -305 L 436 -479 L 348 -479 C 241 -479 168 -463 128 -432 C 88 -401 68 -346 68 -268 C 68 -214 83 -164 115 -117 C 147 -70 192 -31 250 0 L 137 0 L 137 1518 Z" unicode="Į" />
<glyph horiz-adv-x="524" d="M 106 1161 L 416 1161 L 416 0 C 342 -54 294 -97 271 -128 C 247 -159 236 -189 236 -219 C 236 -249 243 -270 259 -284 C 274 -298 300 -305 336 -305 L 397 -305 L 397 -479 L 309 -479 C 202 -479 129 -463 89 -432 C 49 -401 29 -346 29 -268 C 29 -214 45 -164 77 -117 C 109 -69 153 -30 209 0 L 106 0 L 106 1161 Z M 106 1546 L 418 1546 L 418 1266 L 106 1266 L 106 1546 Z" unicode="į" />
<glyph horiz-adv-x="594" d="M 137 1518 L 457 1518 L 457 0 L 137 0 L 137 1518 Z M 144 1876 L 455 1876 L 455 1596 L 144 1596 L 144 1876 Z" unicode="İ" />
<glyph horiz-adv-x="524" d="M 106 1161 L 416 1161 L 416 0 L 106 0 L 106 1161 Z" unicode="ı" />
<glyph horiz-adv-x="1309" d="M 516 -471 C 570 -441 603 -419 617 -404 C 630 -389 637 -367 637 -338 L 518 -338 L 518 -72 L 788 -72 L 788 -313 C 788 -368 782 -410 770 -438 C 758 -466 737 -491 709 -514 C 681 -536 638 -561 582 -588 L 516 -471 Z M 119 1518 L 436 1518 L 436 894 L 899 1518 L 1268 1518 L 812 929 L 1276 0 L 922 0 L 596 658 L 436 439 L 436 0 L 119 0 L 119 1518 Z" unicode="Ķ" />
<glyph horiz-adv-x="1071" d="M 397 -471 C 451 -441 484 -419 498 -404 C 511 -389 518 -367 518 -338 L 399 -338 L 399 -72 L 669 -72 L 669 -313 C 669 -368 663 -410 651 -438 C 639 -466 618 -491 590 -514 C 562 -536 519 -561 463 -588 L 397 -471 Z M 98 1575 L 401 1575 L 401 694 L 717 1161 L 1042 1161 L 700 675 L 1063 0 L 733 0 L 498 425 L 401 281 L 401 0 L 98 0 L 98 1575 Z" unicode="ķ" />
<glyph horiz-adv-x="1051" d="M 372 1971 L 714 1971 L 419 1596 L 154 1596 L 372 1971 Z M 119 1518 L 440 1518 L 440 287 L 1030 287 L 1030 0 L 119 0 L 119 1518 Z" unicode="Ĺ" />
<glyph horiz-adv-x="600" d="M 339 2044 L 681 2044 L 386 1669 L 121 1669 L 339 2044 Z M 537 0 C 523 -2 486 -4 424 -4 C 340 -4 276 7 232 29 C 188 51 156 87 136 135 C 116 183 106 248 106 330 L 106 1575 L 416 1575 L 416 373 C 416 335 419 311 425 299 C 431 287 441 279 457 275 C 472 270 499 268 537 268 L 537 0 Z" unicode="ĺ" />
<glyph horiz-adv-x="1051" d="M 387 -471 C 441 -441 474 -419 488 -404 C 501 -389 508 -367 508 -338 L 389 -338 L 389 -72 L 659 -72 L 659 -313 C 659 -368 653 -410 641 -438 C 629 -466 608 -491 580 -514 C 552 -536 509 -561 453 -588 L 387 -471 Z M 119 1518 L 440 1518 L 440 287 L 1030 287 L 1030 0 L 119 0 L 119 1518 Z" unicode="Ļ" />
<glyph horiz-adv-x="600" d="M 162 -471 C 216 -441 249 -419 263 -404 C 276 -389 283 -367 283 -338 L 164 -338 L 164 -72 L 434 -72 L 434 -313 C 434 -368 428 -410 416 -438 C 404 -466 383 -491 355 -514 C 327 -536 284 -561 228 -588 L 162 -471 Z M 537 0 C 523 -2 486 -4 424 -4 C 340 -4 276 7 232 29 C 188 51 156 87 136 135 C 116 183 106 248 106 330 L 106 1575 L 416 1575 L 416 373 C 416 335 419 311 425 299 C 431 287 441 279 457 275 C 472 270 499 268 537 268 L 537 0 Z" unicode="ļ" />
<glyph horiz-adv-x="1051" d="M 553 1176 C 602 1204 632 1224 643 1234 C 654 1244 662 1254 666 1265 C 670 1276 672 1291 672 1309 L 553 1309 L 553 1575 L 825 1575 L 825 1333 C 825 1277 818 1236 806 1208 C 793 1180 772 1155 742 1132 C 712 1109 670 1085 616 1061 L 553 1176 Z M 119 1518 L 440 1518 L 440 287 L 1030 287 L 1030 0 L 119 0 L 119 1518 Z" unicode="Ľ" />
<glyph horiz-adv-x="772" d="M 514 1176 C 563 1204 593 1224 604 1234 C 615 1244 623 1254 627 1265 C 631 1276 633 1291 633 1309 L 514 1309 L 514 1575 L 786 1575 L 786 1333 C 786 1278 779 1237 767 1210 C 755 1182 734 1157 705 1134 C 675 1110 633 1086 578 1061 L 514 1176 Z M 537 0 C 523 -2 486 -4 424 -4 C 340 -4 276 7 232 29 C 188 51 156 87 136 135 C 116 183 106 248 106 330 L 106 1575 L 416 1575 L 416 373 C 416 335 419 311 425 299 C 431 287 441 279 457 275 C 472 270 499 268 537 268 L 537 0 Z" unicode="ľ" />
<glyph horiz-adv-x="1051" d="M 0 815 L 119 883 L 119 1518 L 440 1518 L 440 1066 L 653 1188 L 653 930 L 440 807 L 440 287 L 1030 287 L 1030 0 L 119 0 L 119 623 L 0 555 L 0 815 Z" unicode="Ł" />
<glyph horiz-adv-x="723" d="M 618 0 C 606 -2 568 -4 506 -4 C 422 -4 358 7 314 29 C 270 51 238 87 218 135 C 198 183 188 248 188 330 L 188 781 L 41 696 L 41 967 L 188 1052 L 188 1575 L 498 1575 L 498 1231 L 659 1325 L 659 1055 L 498 961 L 498 373 C 498 335 501 311 507 299 C 513 287 523 279 539 275 C 554 270 580 268 618 268 L 618 0 Z" unicode="ł" />
<glyph horiz-adv-x="1378" d="M 723 1971 L 1065 1971 L 770 1596 L 505 1596 L 723 1971 Z M 119 1518 L 459 1518 L 956 643 L 956 1518 L 1262 1518 L 1262 0 L 967 0 L 424 946 L 424 0 L 119 0 L 119 1518 Z" unicode="Ń" />
<glyph horiz-adv-x="1151" d="M 609 1645 L 951 1645 L 656 1270 L 391 1270 L 609 1645 Z M 98 1143 L 346 1163 L 369 1071 C 399 1109 442 1137 498 1155 C 553 1173 627 1182 721 1182 C 802 1182 867 1167 917 1137 C 967 1107 1003 1063 1026 1005 C 1049 947 1061 865 1061 760 L 1061 0 L 750 0 L 750 682 C 750 744 745 787 736 812 C 726 837 711 856 690 868 C 668 880 638 887 600 887 C 551 887 513 879 485 865 C 457 851 438 828 426 796 C 414 764 408 711 408 639 L 408 0 L 98 0 L 98 1143 Z" unicode="ń" />
<glyph horiz-adv-x="1378" d="M 551 -471 C 605 -441 638 -419 652 -404 C 665 -389 672 -367 672 -338 L 553 -338 L 553 -72 L 823 -72 L 823 -313 C 823 -368 817 -410 805 -438 C 793 -466 772 -491 744 -514 C 716 -536 673 -561 617 -588 L 551 -471 Z M 119 1518 L 459 1518 L 956 643 L 956 1518 L 1262 1518 L 1262 0 L 967 0 L 424 946 L 424 0 L 119 0 L 119 1518 Z" unicode="Ņ" />
<glyph horiz-adv-x="1151" d="M 436 -471 C 490 -441 523 -419 537 -404 C 550 -389 557 -367 557 -338 L 438 -338 L 438 -72 L 708 -72 L 708 -313 C 708 -368 702 -410 690 -438 C 678 -466 657 -491 629 -514 C 601 -536 558 -561 502 -588 L 436 -471 Z M 98 1143 L 346 1163 L 369 1071 C 399 1109 442 1137 498 1155 C 553 1173 627 1182 721 1182 C 802 1182 867 1167 917 1137 C 967 1107 1003 1063 1026 1005 C 1049 947 1061 865 1061 760 L 1061 0 L 750 0 L 750 682 C 750 744 745 787 736 812 C 726 837 711 856 690 868 C 668 880 638 887 600 887 C 551 887 513 879 485 865 C 457 851 438 828 426 796 C 414 764 408 711 408 639 L 408 0 L 98 0 L 98 1143 Z" unicode="ņ" />
<glyph horiz-adv-x="1378" d="M 321 1971 L 567 1971 L 690 1809 L 813 1971 L 1054 1971 L 829 1596 L 544 1596 L 321 1971 Z M 119 1518 L 459 1518 L 956 643 L 956 1518 L 1262 1518 L 1262 0 L 967 0 L 424 946 L 424 0 L 119 0 L 119 1518 Z" unicode="Ň" />
<glyph horiz-adv-x="1151" d="M 207 1645 L 453 1645 L 576 1483 L 699 1645 L 940 1645 L 715 1270 L 430 1270 L 207 1645 Z M 98 1143 L 346 1163 L 369 1071 C 399 1109 442 1137 498 1155 C 553 1173 627 1182 721 1182 C 802 1182 867 1167 917 1137 C 967 1107 1003 1063 1026 1005 C 1049 947 1061 865 1061 760 L 1061 0 L 750 0 L 750 682 C 750 744 745 787 736 812 C 726 837 711 856 690 868 C 668 880 638 887 600 887 C 551 887 513 879 485 865 C 457 851 438 828 426 796 C 414 764 408 711 408 639 L 408 0 L 98 0 L 98 1143 Z" unicode="ň" />
<glyph horiz-adv-x="1368" d="M 313 1852 L 1050 1852 L 1050 1596 L 313 1596 L 313 1852 Z M 684 -18 C 540 -18 422 8 329 60 C 236 112 167 192 122 302 C 77 411 55 563 55 758 C 55 954 77 1107 123 1217 C 168 1327 237 1407 330 1459 C 423 1510 541 1536 684 1536 C 826 1536 944 1510 1037 1459 C 1129 1407 1198 1327 1244 1218 C 1290 1109 1313 956 1313 758 C 1313 562 1290 410 1245 301 C 1200 191 1131 111 1038 59 C 945 7 827 -18 684 -18 Z M 684 266 C 759 266 818 281 862 312 C 906 343 937 390 957 452 C 977 514 987 613 987 748 C 987 881 977 979 957 1041 C 937 1103 906 1150 862 1181 C 818 1211 758 1227 684 1227 C 608 1227 549 1211 505 1180 C 461 1149 430 1103 410 1041 C 390 979 381 881 381 748 C 381 613 390 514 410 452 C 430 389 462 342 506 312 C 550 281 609 266 684 266 Z" unicode="Ō" />
<glyph horiz-adv-x="1128" d="M 192 1526 L 929 1526 L 929 1270 L 192 1270 L 192 1526 Z M 565 -18 C 443 -18 345 3 270 45 C 195 87 140 151 105 237 C 70 323 53 438 53 584 C 53 732 70 848 105 932 C 140 1016 195 1078 271 1120 C 347 1161 445 1182 565 1182 C 685 1182 783 1161 858 1120 C 932 1078 987 1016 1022 933 C 1057 850 1075 734 1075 584 C 1075 431 1057 313 1023 229 C 988 145 933 83 859 43 C 785 2 687 -18 565 -18 Z M 565 252 C 615 252 654 261 683 281 C 711 300 732 330 745 371 C 757 411 764 479 764 573 C 764 667 757 734 745 774 C 732 814 711 844 683 864 C 655 883 615 893 565 893 C 514 893 475 883 447 864 C 419 844 398 814 386 774 C 373 734 367 667 367 573 C 367 480 373 413 385 372 C 397 331 418 301 446 281 C 474 261 514 252 565 252 Z" unicode="ō" />
<glyph horiz-adv-x="1368" d="M 532 1971 L 850 1971 L 563 1596 L 325 1596 L 532 1971 Z M 956 1971 L 1271 1971 L 985 1596 L 749 1596 L 956 1971 Z M 684 -18 C 540 -18 422 8 329 60 C 236 112 167 192 122 302 C 77 411 55 563 55 758 C 55 954 77 1107 123 1217 C 168 1327 237 1407 330 1459 C 423 1510 541 1536 684 1536 C 826 1536 944 1510 1037 1459 C 1129 1407 1198 1327 1244 1218 C 1290 1109 1313 956 1313 758 C 1313 562 1290 410 1245 301 C 1200 191 1131 111 1038 59 C 945 7 827 -18 684 -18 Z M 684 266 C 759 266 818 281 862 312 C 906 343 937 390 957 452 C 977 514 987 613 987 748 C 987 881 977 979 957 1041 C 937 1103 906 1150 862 1181 C 818 1211 758 1227 684 1227 C 608 1227 549 1211 505 1180 C 461 1149 430 1103 410 1041 C 390 979 381 881 381 748 C 381 613 390 514 410 452 C 430 389 462 342 506 312 C 550 281 609 266 684 266 Z" unicode="Ő" />
<glyph horiz-adv-x="1128" d="M 411 1645 L 729 1645 L 442 1270 L 204 1270 L 411 1645 Z M 835 1645 L 1150 1645 L 864 1270 L 628 1270 L 835 1645 Z M 565 -18 C 443 -18 345 3 270 45 C 195 87 140 151 105 237 C 70 323 53 438 53 584 C 53 732 70 848 105 932 C 140 1016 195 1078 271 1120 C 347 1161 445 1182 565 1182 C 685 1182 783 1161 858 1120 C 932 1078 987 1016 1022 933 C 1057 850 1075 734 1075 584 C 1075 431 1057 313 1023 229 C 988 145 933 83 859 43 C 785 2 687 -18 565 -18 Z M 565 252 C 615 252 654 261 683 281 C 711 300 732 330 745 371 C 757 411 764 479 764 573 C 764 667 757 734 745 774 C 732 814 711 844 683 864 C 655 883 615 893 565 893 C 514 893 475 883 447 864 C 419 844 398 814 386 774 C 373 734 367 667 367 573 C 367 480 373 413 385 372 C 397 331 418 301 446 281 C 474 261 514 252 565 252 Z" unicode="ő" />
<glyph horiz-adv-x="2013" d="M 1022 1518 L 1927 1518 L 1927 1225 L 1305 1225 L 1305 918 L 1898 918 L 1898 631 L 1305 631 L 1305 287 L 1927 287 L 1927 0 L 1022 0 L 1022 65 C 933 9 820 -18 684 -18 C 540 -18 422 8 329 60 C 236 112 167 192 122 302 C 77 411 55 563 55 758 C 55 954 77 1107 123 1217 C 168 1327 237 1407 330 1459 C 423 1510 541 1536 684 1536 C 818 1536 930 1508 1022 1453 L 1022 1518 Z M 684 266 C 759 266 818 281 862 312 C 906 343 937 390 957 452 C 977 514 987 613 987 748 C 987 881 977 979 957 1041 C 937 1103 906 1150 862 1181 C 818 1211 758 1227 684 1227 C 608 1227 549 1211 505 1180 C 461 1149 430 1103 410 1041 C 390 979 381 881 381 748 C 381 613 390 514 410 452 C 430 389 462 342 506 312 C 550 281 609 266 684 266 Z" unicode="Œ" />
<glyph horiz-adv-x="1776" d="M 565 -18 C 443 -18 345 3 270 45 C 195 87 140 151 105 237 C 70 323 53 438 53 584 C 53 732 70 848 105 932 C 140 1016 195 1078 271 1120 C 347 1161 445 1182 565 1182 C 725 1182 845 1140 925 1058 C 1005 1140 1122 1182 1276 1182 C 1383 1182 1469 1163 1535 1126 C 1601 1089 1647 1032 1674 954 C 1701 876 1715 772 1716 642 L 1714 442 L 1075 442 C 1081 386 1091 345 1106 320 C 1121 295 1143 277 1171 266 C 1199 255 1237 250 1284 250 C 1342 250 1395 254 1441 264 C 1487 274 1537 291 1589 317 L 1706 82 C 1642 48 1575 23 1505 8 C 1434 -6 1355 -14 1268 -14 C 1115 -14 999 23 921 98 C 839 20 721 -18 565 -18 Z M 565 252 C 615 252 654 261 683 281 C 711 300 732 330 745 371 C 757 411 764 479 764 573 C 764 667 757 734 745 774 C 732 814 711 844 683 864 C 655 883 615 893 565 893 C 514 893 475 883 447 864 C 419 844 398 814 386 774 C 373 734 367 667 367 573 C 367 480 373 413 385 372 C 397 331 418 301 446 281 C 474 261 514 252 565 252 Z M 1442 682 C 1439 762 1432 814 1422 839 C 1411 863 1394 881 1371 893 C 1347 905 1314 911 1270 911 C 1202 911 1153 894 1123 862 C 1093 829 1077 769 1073 682 L 1442 682 Z" unicode="œ" />
<glyph horiz-adv-x="1278" d="M 674 1971 L 1016 1971 L 721 1596 L 456 1596 L 674 1971 Z M 119 1518 L 698 1518 C 868 1518 993 1478 1075 1400 C 1157 1321 1198 1199 1198 1034 C 1198 791 1113 631 945 554 L 1188 0 L 852 0 L 634 508 L 434 508 L 434 0 L 119 0 L 119 1518 Z M 690 788 C 761 788 811 805 841 840 C 870 875 885 932 885 1012 C 885 1093 870 1150 840 1184 C 810 1218 760 1235 690 1235 L 434 1235 L 434 788 L 690 788 Z" unicode="Ŕ" />
<glyph horiz-adv-x="707" d="M 391 1645 L 733 1645 L 438 1270 L 173 1270 L 391 1645 Z M 98 1143 L 344 1163 L 371 1055 C 403 1097 445 1126 497 1144 C 549 1162 614 1171 694 1171 L 694 879 C 621 878 564 868 524 849 C 484 830 455 802 437 765 C 419 728 410 667 410 582 L 410 0 L 98 0 L 98 1143 Z" unicode="ŕ" />
<glyph horiz-adv-x="1278" d="M 502 -471 C 556 -441 589 -419 603 -404 C 616 -389 623 -367 623 -338 L 504 -338 L 504 -72 L 774 -72 L 774 -313 C 774 -368 768 -410 756 -438 C 744 -466 723 -491 695 -514 C 667 -536 624 -561 568 -588 L 502 -471 Z M 119 1518 L 698 1518 C 868 1518 993 1478 1075 1400 C 1157 1321 1198 1199 1198 1034 C 1198 791 1113 631 945 554 L 1188 0 L 852 0 L 634 508 L 434 508 L 434 0 L 119 0 L 119 1518 Z M 690 788 C 761 788 811 805 841 840 C 870 875 885 932 885 1012 C 885 1093 870 1150 840 1184 C 810 1218 760 1235 690 1235 L 434 1235 L 434 788 L 690 788 Z" unicode="Ŗ" />
<glyph horiz-adv-x="707" d="M 118 -471 C 172 -441 205 -419 219 -404 C 232 -389 239 -367 239 -338 L 120 -338 L 120 -72 L 390 -72 L 390 -313 C 390 -368 384 -410 372 -438 C 360 -466 339 -491 311 -514 C 283 -536 240 -561 184 -588 L 118 -471 Z M 98 1143 L 344 1163 L 371 1055 C 403 1097 445 1126 497 1144 C 549 1162 614 1171 694 1171 L 694 879 C 621 878 564 868 524 849 C 484 830 455 802 437 765 C 419 728 410 667 410 582 L 410 0 L 98 0 L 98 1143 Z" unicode="ŗ" />
<glyph horiz-adv-x="1278" d="M 272 1971 L 518 1971 L 641 1809 L 764 1971 L 1005 1971 L 780 1596 L 495 1596 L 272 1971 Z M 119 1518 L 698 1518 C 868 1518 993 1478 1075 1400 C 1157 1321 1198 1199 1198 1034 C 1198 791 1113 631 945 554 L 1188 0 L 852 0 L 634 508 L 434 508 L 434 0 L 119 0 L 119 1518 Z M 690 788 C 761 788 811 805 841 840 C 870 875 885 932 885 1012 C 885 1093 870 1150 840 1184 C 810 1218 760 1235 690 1235 L 434 1235 L 434 788 L 690 788 Z" unicode="Ř" />
<glyph horiz-adv-x="707" d="M -11 1645 L 235 1645 L 358 1483 L 481 1645 L 722 1645 L 497 1270 L 212 1270 L -11 1645 Z M 98 1143 L 344 1163 L 371 1055 C 403 1097 445 1126 497 1144 C 549 1162 614 1171 694 1171 L 694 879 C 621 878 564 868 524 849 C 484 830 455 802 437 765 C 419 728 410 667 410 582 L 410 0 L 98 0 L 98 1143 Z" unicode="ř" />
<glyph horiz-adv-x="1194" d="M 631 1971 L 973 1971 L 678 1596 L 413 1596 L 631 1971 Z M 600 -18 C 356 -18 165 27 27 119 L 188 365 C 239 332 300 306 370 286 C 440 266 514 256 592 256 C 673 256 732 268 768 292 C 804 316 823 356 823 412 C 823 445 818 472 808 493 C 798 514 781 532 757 548 C 733 564 700 579 660 593 C 619 607 568 623 506 643 C 354 689 248 746 186 814 C 124 882 94 974 94 1090 C 94 1234 138 1344 227 1421 C 315 1497 446 1536 618 1536 C 711 1536 794 1528 867 1514 C 939 1499 1011 1475 1083 1442 L 944 1167 C 850 1212 744 1235 627 1235 C 549 1235 493 1224 459 1203 C 425 1182 408 1148 408 1100 C 408 1068 413 1043 425 1024 C 437 1005 457 988 485 973 C 513 957 568 937 649 911 C 798 863 904 820 966 780 C 1028 740 1071 692 1097 636 C 1122 580 1135 507 1135 418 C 1135 274 1089 166 998 92 C 906 18 774 -18 600 -18 Z" unicode="Ś" />
<glyph horiz-adv-x="930" d="M 503 1645 L 845 1645 L 550 1270 L 285 1270 L 503 1645 Z M 473 -14 C 277 -14 124 14 16 72 L 135 311 C 185 287 239 268 298 255 C 357 242 415 236 473 236 C 517 236 549 243 570 257 C 591 271 602 294 602 326 C 602 348 596 366 585 380 C 573 393 553 406 524 420 C 494 433 445 451 377 473 C 285 504 218 534 177 564 C 135 594 105 629 87 671 C 68 712 59 763 59 825 C 59 1063 204 1182 494 1182 C 570 1182 634 1177 686 1169 C 738 1161 794 1144 854 1120 L 735 864 C 657 896 573 913 481 913 C 435 913 402 907 383 895 C 363 883 354 861 354 831 C 354 803 367 781 393 765 C 419 748 473 726 555 700 C 653 668 723 637 767 607 C 811 577 842 540 862 497 C 881 453 891 398 891 330 C 891 100 751 -14 473 -14 Z" unicode="ś" />
<glyph horiz-adv-x="842" d="M 410 582 L 176 1161 L 457 1161 L 713 582 L 457 0 L 176 0 L 410 582 Z" unicode="›" />
<glyph horiz-adv-x="1194" d="M 600 -18 C 356 -18 165 27 27 119 L 188 365 C 239 332 300 306 370 286 C 440 266 514 256 592 256 C 673 256 732 268 768 292 C 804 316 823 356 823 412 C 823 445 818 472 808 493 C 798 514 781 532 757 548 C 733 564 700 579 660 593 C 619 607 568 623 506 643 C 354 689 248 746 186 814 C 124 882 94 974 94 1090 C 94 1234 138 1344 227 1421 C 315 1497 446 1536 618 1536 C 711 1536 794 1528 867 1514 C 939 1499 1011 1475 1083 1442 L 944 1167 C 850 1212 744 1235 627 1235 C 549 1235 493 1224 459 1203 C 425 1182 408 1148 408 1100 C 408 1068 413 1043 425 1024 C 437 1005 457 988 485 973 C 513 957 568 937 649 911 C 798 863 904 820 966 780 C 1028 740 1071 692 1097 636 C 1122 580 1135 507 1135 418 C 1135 274 1089 166 998 92 C 906 18 774 -18 600 -18 Z M 608 -498 C 521 -498 440 -480 366 -444 L 432 -301 C 486 -321 537 -332 585 -332 C 625 -332 652 -326 666 -314 C 680 -302 688 -282 688 -254 C 688 -229 681 -211 669 -201 C 657 -190 636 -184 608 -184 L 540 -186 L 487 -147 L 520 14 L 688 14 L 669 -86 L 699 -85 C 765 -85 813 -100 843 -132 C 872 -164 887 -212 887 -276 C 887 -356 865 -413 822 -447 C 779 -481 708 -498 608 -498 Z" unicode="Ş" />
<glyph horiz-adv-x="930" d="M 473 -14 C 277 -14 124 14 16 72 L 135 311 C 185 287 239 268 298 255 C 357 242 415 236 473 236 C 517 236 549 243 570 257 C 591 271 602 294 602 326 C 602 348 596 366 585 380 C 573 393 553 406 524 420 C 494 433 445 451 377 473 C 285 504 218 534 177 564 C 135 594 105 629 87 671 C 68 712 59 763 59 825 C 59 1063 204 1182 494 1182 C 570 1182 634 1177 686 1169 C 738 1161 794 1144 854 1120 L 735 864 C 657 896 573 913 481 913 C 435 913 402 907 383 895 C 363 883 354 861 354 831 C 354 803 367 781 393 765 C 419 748 473 726 555 700 C 653 668 723 637 767 607 C 811 577 842 540 862 497 C 881 453 891 398 891 330 C 891 100 751 -14 473 -14 Z M 480 -498 C 393 -498 312 -480 238 -444 L 304 -301 C 358 -321 409 -332 457 -332 C 497 -332 524 -326 538 -314 C 552 -302 560 -282 560 -254 C 560 -229 553 -211 541 -201 C 529 -190 508 -184 480 -184 L 412 -186 L 359 -147 L 392 14 L 560 14 L 541 -86 L 571 -85 C 637 -85 685 -100 715 -132 C 744 -164 759 -212 759 -276 C 759 -356 737 -413 694 -447 C 651 -481 580 -498 480 -498 Z" unicode="ş" />
<glyph horiz-adv-x="1194" d="M 229 1971 L 475 1971 L 598 1809 L 721 1971 L 962 1971 L 737 1596 L 452 1596 L 229 1971 Z M 600 -18 C 356 -18 165 27 27 119 L 188 365 C 239 332 300 306 370 286 C 440 266 514 256 592 256 C 673 256 732 268 768 292 C 804 316 823 356 823 412 C 823 445 818 472 808 493 C 798 514 781 532 757 548 C 733 564 700 579 660 593 C 619 607 568 623 506 643 C 354 689 248 746 186 814 C 124 882 94 974 94 1090 C 94 1234 138 1344 227 1421 C 315 1497 446 1536 618 1536 C 711 1536 794 1528 867 1514 C 939 1499 1011 1475 1083 1442 L 944 1167 C 850 1212 744 1235 627 1235 C 549 1235 493 1224 459 1203 C 425 1182 408 1148 408 1100 C 408 1068 413 1043 425 1024 C 437 1005 457 988 485 973 C 513 957 568 937 649 911 C 798 863 904 820 966 780 C 1028 740 1071 692 1097 636 C 1122 580 1135 507 1135 418 C 1135 274 1089 166 998 92 C 906 18 774 -18 600 -18 Z" unicode="Š" />
<glyph horiz-adv-x="930" d="M 101 1645 L 347 1645 L 470 1483 L 593 1645 L 834 1645 L 609 1270 L 324 1270 L 101 1645 Z M 473 -14 C 277 -14 124 14 16 72 L 135 311 C 185 287 239 268 298 255 C 357 242 415 236 473 236 C 517 236 549 243 570 257 C 591 271 602 294 602 326 C 602 348 596 366 585 380 C 573 393 553 406 524 420 C 494 433 445 451 377 473 C 285 504 218 534 177 564 C 135 594 105 629 87 671 C 68 712 59 763 59 825 C 59 1063 204 1182 494 1182 C 570 1182 634 1177 686 1169 C 738 1161 794 1144 854 1120 L 735 864 C 657 896 573 913 481 913 C 435 913 402 907 383 895 C 363 883 354 861 354 831 C 354 803 367 781 393 765 C 419 748 473 726 555 700 C 653 668 723 637 767 607 C 811 577 842 540 862 497 C 881 453 891 398 891 330 C 891 100 751 -14 473 -14 Z" unicode="š" />
<glyph horiz-adv-x="1186" d="M 455 -471 C 509 -441 542 -419 556 -404 C 569 -389 576 -367 576 -338 L 457 -338 L 457 -72 L 727 -72 L 727 -313 C 727 -368 721 -410 709 -438 C 697 -466 676 -491 648 -514 C 620 -536 577 -561 521 -588 L 455 -471 Z M 430 1225 L 23 1225 L 23 1518 L 1163 1518 L 1163 1225 L 754 1225 L 754 0 L 430 0 L 430 1225 Z" unicode="Ţ" />
<glyph horiz-adv-x="850" d="M 244 -471 C 298 -441 331 -419 345 -404 C 358 -389 365 -367 365 -338 L 246 -338 L 246 -72 L 516 -72 L 516 -313 C 516 -368 510 -410 498 -438 C 486 -466 465 -491 437 -514 C 409 -536 366 -561 310 -588 L 244 -471 Z M 25 1161 L 221 1161 L 268 1421 L 514 1477 L 514 1161 L 778 1161 L 778 891 L 514 891 L 514 391 C 514 351 518 324 526 310 C 534 295 548 284 567 278 C 585 271 611 268 645 268 L 778 268 L 778 0 L 689 -6 L 606 -10 C 504 -10 424 1 368 24 C 311 47 270 84 245 134 C 219 184 207 258 207 354 L 207 891 L 25 891 L 25 1161 Z" unicode="ţ" />
<glyph horiz-adv-x="1186" d="M 225 1971 L 471 1971 L 594 1809 L 717 1971 L 958 1971 L 733 1596 L 448 1596 L 225 1971 Z M 430 1225 L 23 1225 L 23 1518 L 1163 1518 L 1163 1225 L 754 1225 L 754 0 L 430 0 L 430 1225 Z" unicode="Ť" />
<glyph horiz-adv-x="850" d="M 606 1386 C 642 1406 668 1422 684 1435 C 700 1447 711 1459 717 1470 C 722 1481 725 1498 725 1520 L 606 1520 L 606 1786 L 879 1786 L 879 1546 C 879 1492 872 1451 860 1423 C 848 1395 827 1369 799 1347 C 770 1324 727 1299 670 1272 L 606 1386 Z M 25 1161 L 221 1161 L 268 1421 L 514 1477 L 514 1161 L 778 1161 L 778 891 L 514 891 L 514 391 C 514 351 518 324 526 310 C 534 295 548 284 567 278 C 585 271 611 268 645 268 L 778 268 L 778 0 L 689 -6 L 606 -10 C 504 -10 424 1 368 24 C 311 47 270 84 245 134 C 219 184 207 258 207 354 L 207 891 L 25 891 L 25 1161 Z" unicode="ť" />
<glyph horiz-adv-x="1152" d="" unicode="∫" />
<glyph horiz-adv-x="1368" d="M 684 -23 C 484 -23 338 20 246 107 C 154 194 109 336 109 532 L 109 1518 L 430 1518 L 430 563 C 430 448 449 370 487 328 C 525 286 592 266 688 266 C 754 266 806 275 843 294 C 880 312 907 342 923 383 C 939 424 948 484 948 563 L 948 1518 L 1260 1518 L 1260 532 C 1260 334 1214 192 1123 106 C 1031 20 885 -23 684 -23 Z M 311 1852 L 1048 1852 L 1048 1596 L 311 1596 L 311 1852 Z" unicode="Ū" />
<glyph horiz-adv-x="1130" d="M 565 -16 C 443 -16 349 0 281 30 C 213 61 164 110 134 178 C 104 245 90 344 90 475 L 90 1161 L 401 1161 L 401 492 C 401 410 406 357 416 331 C 426 305 442 287 466 275 C 490 263 524 258 569 258 C 613 258 646 264 670 277 C 694 289 710 309 720 337 C 730 365 735 417 735 494 L 735 1161 L 1040 1161 L 1040 475 C 1040 341 1025 240 995 174 C 965 107 916 59 848 29 C 780 -1 685 -16 565 -16 Z M 195 1526 L 932 1526 L 932 1270 L 195 1270 L 195 1526 Z" unicode="ū" />
<glyph horiz-adv-x="997" d="M 498 1257 C 414 1257 347 1268 297 1291 C 247 1314 208 1350 181 1399 C 153 1448 133 1522 121 1620 L 342 1653 C 351 1592 366 1550 388 1526 C 409 1502 446 1491 498 1491 C 548 1491 584 1502 606 1525 C 628 1547 643 1590 653 1653 L 877 1622 C 863 1522 842 1447 814 1398 C 786 1348 748 1312 698 1290 C 648 1268 582 1257 498 1257 Z" unicode="˘" />
<glyph horiz-adv-x="1368" d="M 680 1577 C 598 1577 535 1600 492 1646 C 449 1692 428 1761 428 1852 C 428 1944 449 2013 493 2060 C 536 2106 598 2130 680 2130 C 761 2130 824 2106 868 2058 C 912 2010 934 1942 934 1852 C 934 1763 912 1695 868 1648 C 824 1600 762 1577 680 1577 Z M 680 1725 C 715 1725 740 1735 756 1755 C 772 1775 780 1807 780 1852 C 780 1898 772 1931 756 1951 C 740 1971 714 1981 680 1981 C 612 1981 579 1938 579 1852 C 579 1809 587 1777 603 1756 C 619 1735 645 1725 680 1725 Z M 684 -23 C 484 -23 338 20 246 107 C 154 194 109 336 109 532 L 109 1518 L 430 1518 L 430 563 C 430 448 449 370 487 328 C 525 286 592 266 688 266 C 754 266 806 275 843 294 C 880 312 907 342 923 383 C 939 424 948 484 948 563 L 948 1518 L 1260 1518 L 1260 532 C 1260 334 1214 192 1123 106 C 1031 20 885 -23 684 -23 Z" unicode="Ů" />
<glyph horiz-adv-x="1130" d="M 564 1251 C 482 1251 419 1274 376 1320 C 333 1366 312 1435 312 1526 C 312 1618 333 1687 377 1734 C 420 1780 482 1804 564 1804 C 645 1804 708 1780 752 1732 C 796 1684 818 1616 818 1526 C 818 1437 796 1369 752 1322 C 708 1274 646 1251 564 1251 Z M 564 1399 C 599 1399 624 1409 640 1429 C 656 1449 664 1481 664 1526 C 664 1572 656 1605 640 1625 C 624 1645 598 1655 564 1655 C 496 1655 463 1612 463 1526 C 463 1483 471 1451 487 1430 C 503 1409 529 1399 564 1399 Z M 565 -16 C 443 -16 349 0 281 30 C 213 61 164 110 134 178 C 104 245 90 344 90 475 L 90 1161 L 401 1161 L 401 492 C 401 410 406 357 416 331 C 426 305 442 287 466 275 C 490 263 524 258 569 258 C 613 258 646 264 670 277 C 694 289 710 309 720 337 C 730 365 735 417 735 494 L 735 1161 L 1040 1161 L 1040 475 C 1040 341 1025 240 995 174 C 965 107 916 59 848 29 C 780 -1 685 -16 565 -16 Z" unicode="ů" />
<glyph horiz-adv-x="1368" d="M 684 -23 C 484 -23 338 20 246 107 C 154 194 109 336 109 532 L 109 1518 L 430 1518 L 430 563 C 430 448 449 370 487 328 C 525 286 592 266 688 266 C 754 266 806 275 843 294 C 880 312 907 342 923 383 C 939 424 948 484 948 563 L 948 1518 L 1260 1518 L 1260 532 C 1260 334 1214 192 1123 106 C 1031 20 885 -23 684 -23 Z M 530 1971 L 848 1971 L 561 1596 L 323 1596 L 530 1971 Z M 954 1971 L 1269 1971 L 983 1596 L 747 1596 L 954 1971 Z" unicode="Ű" />
<glyph horiz-adv-x="1130" d="M 565 -16 C 443 -16 349 0 281 30 C 213 61 164 110 134 178 C 104 245 90 344 90 475 L 90 1161 L 401 1161 L 401 492 C 401 410 406 357 416 331 C 426 305 442 287 466 275 C 490 263 524 258 569 258 C 613 258 646 264 670 277 C 694 289 710 309 720 337 C 730 365 735 417 735 494 L 735 1161 L 1040 1161 L 1040 475 C 1040 341 1025 240 995 174 C 965 107 916 59 848 29 C 780 -1 685 -16 565 -16 Z M 414 1645 L 732 1645 L 445 1270 L 207 1270 L 414 1645 Z M 838 1645 L 1153 1645 L 867 1270 L 631 1270 L 838 1645 Z" unicode="ű" />
<glyph horiz-adv-x="1368" d="M 743 -479 C 636 -479 563 -463 523 -432 C 483 -401 463 -346 463 -268 C 463 -178 504 -94 588 -18 C 422 -6 300 43 224 130 C 147 216 109 350 109 532 L 109 1518 L 430 1518 L 430 563 C 430 448 449 370 487 328 C 525 286 592 266 688 266 C 754 266 806 275 843 294 C 880 312 907 342 923 383 C 939 424 948 484 948 563 L 948 1518 L 1260 1518 L 1260 532 C 1260 350 1221 216 1145 130 C 1068 43 948 -6 786 -18 C 708 -94 670 -161 670 -219 C 670 -249 677 -270 693 -284 C 708 -298 734 -305 772 -305 L 831 -305 L 831 -479 L 743 -479 Z" unicode="Ų" />
<glyph horiz-adv-x="1130" d="M 625 -479 C 517 -479 444 -463 404 -431 C 364 -399 344 -344 344 -268 C 344 -177 387 -92 475 -12 C 379 -6 303 13 247 47 C 191 81 151 130 127 196 C 102 262 90 355 90 475 L 90 1161 L 401 1161 L 401 492 C 401 410 406 357 416 331 C 426 305 442 287 466 275 C 490 263 524 258 569 258 C 613 258 646 264 670 277 C 694 289 710 309 720 337 C 730 365 735 417 735 494 L 735 1161 L 1040 1161 L 1040 475 C 1040 355 1028 262 1005 198 C 981 133 943 84 891 51 C 839 17 766 -3 674 -12 C 592 -92 551 -161 551 -219 C 551 -249 558 -270 574 -284 C 590 -298 616 -305 653 -305 L 713 -305 L 713 -479 L 625 -479 Z" unicode="ų" />
<glyph horiz-adv-x="1282" d="M -4 1518 L 338 1518 L 645 856 L 954 1518 L 1284 1518 L 799 510 L 799 0 L 479 0 L 479 514 L -4 1518 Z M 303 1870 L 577 1870 L 577 1596 L 303 1596 L 303 1870 Z M 704 1870 L 977 1870 L 977 1596 L 704 1596 L 704 1870 Z" unicode="Ÿ" />
<glyph horiz-adv-x="1155" d="M 613 1971 L 955 1971 L 660 1596 L 395 1596 L 613 1971 Z M 47 242 L 702 1225 L 76 1225 L 76 1518 L 1085 1518 L 1085 1253 L 436 287 L 1104 287 L 1104 0 L 47 0 L 47 242 Z" unicode="Ź" />
<glyph horiz-adv-x="915" d="M 495 1645 L 837 1645 L 542 1270 L 277 1270 L 495 1645 Z M 25 205 L 487 891 L 53 891 L 53 1161 L 877 1161 L 877 952 L 410 252 L 895 252 L 895 0 L 25 0 L 25 205 Z" unicode="ź" />
<glyph horiz-adv-x="1155" d="M 47 242 L 702 1225 L 76 1225 L 76 1518 L 1085 1518 L 1085 1253 L 436 287 L 1104 287 L 1104 0 L 47 0 L 47 242 Z M 422 1876 L 733 1876 L 733 1596 L 422 1596 L 422 1876 Z" unicode="Ż" />
<glyph horiz-adv-x="915" d="M 25 205 L 487 891 L 53 891 L 53 1161 L 877 1161 L 877 952 L 410 252 L 895 252 L 895 0 L 25 0 L 25 205 Z M 304 1550 L 615 1550 L 615 1270 L 304 1270 L 304 1550 Z" unicode="ż" />
<glyph horiz-adv-x="1155" d="M 211 1971 L 457 1971 L 580 1809 L 703 1971 L 944 1971 L 719 1596 L 434 1596 L 211 1971 Z M 47 242 L 702 1225 L 76 1225 L 76 1518 L 1085 1518 L 1085 1253 L 436 287 L 1104 287 L 1104 0 L 47 0 L 47 242 Z" unicode="Ž" />
<glyph horiz-adv-x="915" d="M 93 1645 L 339 1645 L 462 1483 L 585 1645 L 826 1645 L 601 1270 L 316 1270 L 93 1645 Z M 25 205 L 487 891 L 53 891 L 53 1161 L 877 1161 L 877 952 L 410 252 L 895 252 L 895 0 L 25 0 L 25 205 Z" unicode="ž" />
<glyph horiz-adv-x="1196" d="" unicode="√" />
<glyph horiz-adv-x="692" d="M 147 860 L 545 860 L 545 385 L 147 385 L 147 860 Z" unicode="•" />
<glyph horiz-adv-x="1247" d="" unicode="≥" />
<glyph horiz-adv-x="997" d="M 344 1550 L 655 1550 L 655 1270 L 344 1270 L 344 1550 Z" unicode="˙" />
<glyph horiz-adv-x="1038" d="M 133 942 L 336 942 L 369 1161 C 384 1260 407 1333 437 1380 C 467 1427 509 1462 563 1484 C 617 1506 688 1518 776 1518 C 820 1518 863 1516 907 1513 L 907 1245 L 805 1245 C 764 1245 734 1237 716 1221 C 698 1205 686 1173 680 1126 L 651 942 L 907 942 L 907 674 L 610 674 L 455 -324 L 145 -324 L 295 674 L 133 674 L 133 942 Z" unicode="ƒ" />
<glyph horiz-adv-x="1536" d="" unicode="Δ" />
<glyph horiz-adv-x="1664" d="" unicode="Ω" />
<glyph horiz-adv-x="977" d="" unicode="⁄" />
<glyph horiz-adv-x="1664" d="" unicode="Ω" />
<glyph horiz-adv-x="1536" d="" unicode="≈" />
<glyph horiz-adv-x="1855" d="M 825 891 L 522 891 L 522 0 L 213 0 L 213 891 L 25 891 L 25 1161 L 213 1161 L 213 1255 C 213 1493 348 1612 618 1612 L 682 1612 L 725 1610 L 725 1341 L 649 1341 C 601 1341 568 1332 550 1316 C 531 1300 522 1268 522 1221 L 522 1161 L 825 1161 L 825 1255 C 825 1493 961 1612 1233 1612 L 1295 1612 L 1337 1610 L 1337 1341 L 1262 1341 C 1213 1341 1180 1332 1162 1315 C 1144 1297 1135 1266 1135 1221 L 1135 1161 L 1337 1161 L 1337 891 L 1135 891 L 1135 0 L 825 0 L 825 891 Z M 1440 1161 L 1749 1161 L 1749 0 L 1440 0 L 1440 1161 Z M 1438 1546 L 1751 1546 L 1751 1266 L 1438 1266 L 1438 1546 Z" unicode="ﬃ" />
<glyph horiz-adv-x="842" d="M 129 580 L 385 1161 L 666 1161 L 432 580 L 666 0 L 385 0 L 129 580 Z" unicode="‹" />
<glyph horiz-adv-x="1137" d="M 98 1161 L 410 1161 L 410 492 C 410 411 414 358 424 332 C 434 306 450 287 473 275 C 496 263 530 258 575 258 C 619 258 654 264 678 276 C 702 288 718 308 728 336 C 738 364 743 416 743 494 L 743 1161 L 1047 1161 L 1047 475 C 1047 342 1032 242 1004 176 C 976 109 929 60 864 30 C 799 0 707 -16 588 -16 C 551 -16 515 -11 481 -2 C 446 6 422 18 408 33 L 408 -324 L 98 -324 L 98 1161 Z" unicode="μ" />
<glyph horiz-adv-x="1408" d="" unicode="π" />
<glyph horiz-adv-x="997" d="M 555 -479 C 447 -479 374 -463 334 -431 C 294 -399 274 -344 274 -268 C 274 -208 293 -150 333 -93 C 372 -36 424 10 489 47 L 672 47 C 610 -4 562 -52 530 -98 C 497 -144 481 -184 481 -219 C 481 -249 488 -270 504 -284 C 520 -298 546 -305 584 -305 L 643 -305 L 643 -479 L 555 -479 Z" unicode="˛" />
<glyph horiz-adv-x="1319" d="M 25 1161 L 213 1161 L 213 1255 C 213 1493 348 1612 618 1612 L 682 1612 L 725 1610 L 725 1341 L 649 1341 C 601 1341 568 1332 550 1316 C 531 1300 522 1268 522 1221 L 522 1161 L 725 1161 L 725 891 L 522 891 L 522 0 L 213 0 L 213 891 L 25 891 L 25 1161 Z M 1255 0 C 1243 -2 1205 -4 1143 -4 C 1059 -4 995 7 951 29 C 907 51 875 87 855 135 C 835 183 825 248 825 330 L 825 1575 L 1135 1575 L 1135 373 C 1135 335 1138 311 1144 299 C 1150 287 1160 279 1176 275 C 1191 270 1217 268 1255 268 L 1255 0 Z" unicode="ﬂ" />
<glyph horiz-adv-x="997" d="" unicode="◊" />
<glyph horiz-adv-x="1247" d="" unicode="≠" />
<glyph horiz-adv-x="532" d="M 90 1137 C 90 1214 97 1272 111 1312 C 125 1352 149 1387 183 1417 C 217 1447 274 1481 352 1520 L 436 1364 C 370 1328 329 1301 312 1281 C 295 1261 287 1230 287 1190 L 442 1190 L 442 815 L 90 815 L 90 1137 Z" unicode="‘" />
<glyph horiz-adv-x="1247" d="" unicode="≤" />
<glyph horiz-adv-x="1049" d="M 371 836 L 76 836 L 76 1122 L 371 1122 L 371 1575 L 678 1575 L 678 1122 L 973 1122 L 973 836 L 678 836 L 678 -324 L 371 -324 L 371 836 Z" unicode="†" />
<glyph horiz-adv-x="1933" d="M 825 891 L 522 891 L 522 0 L 213 0 L 213 891 L 25 891 L 25 1161 L 213 1161 L 213 1255 C 213 1493 348 1612 618 1612 L 682 1612 L 725 1610 L 725 1341 L 649 1341 C 601 1341 568 1332 550 1316 C 531 1300 522 1268 522 1221 L 522 1161 L 825 1161 L 825 1255 C 825 1493 961 1612 1233 1612 L 1295 1612 L 1337 1610 L 1337 1341 L 1262 1341 C 1213 1341 1180 1332 1162 1315 C 1144 1297 1135 1266 1135 1221 L 1135 1161 L 1337 1161 L 1337 891 L 1135 891 L 1135 0 L 825 0 L 825 891 Z M 1870 0 C 1858 -2 1819 -4 1755 -4 C 1673 -4 1610 7 1566 29 C 1522 51 1490 85 1470 133 C 1450 181 1440 246 1440 330 L 1440 1575 L 1749 1575 L 1749 373 C 1749 333 1752 308 1758 297 C 1764 286 1775 278 1791 274 C 1806 270 1832 268 1870 268 L 1870 0 Z" unicode="ﬄ" />
<glyph horiz-adv-x="1532" d="M 90 367 L 442 367 L 442 0 L 90 0 L 90 367 Z M 590 367 L 942 367 L 942 0 L 590 0 L 590 367 Z M 1092 367 L 1442 367 L 1442 0 L 1092 0 L 1092 367 Z" unicode="…" />
<glyph horiz-adv-x="1704" d="" unicode="" />
</font>
</defs>
</svg>
