<?xml version="1.0" standalone="yes"?><svg version="1.1" xmlns = 'http://www.w3.org/2000/svg'><defs><font id='web' horiz-adv-x="1000">
<font-face font-family="web" descent="-367" cap-height="1518" units-per-em="2048" bbox="-172,-676,3533,2165" x-height="1159" ascent="1626" />
<missing-glyph horiz-adv-x="1024" d="" /><glyph horiz-adv-x="1530" d="M 78 815 L 1452 815 L 1452 528 L 78 528 L 78 815 Z" unicode="–" />
<glyph horiz-adv-x="1970" d="M 78 815 L 1892 815 L 1892 528 L 78 528 L 78 815 Z" unicode="—" />
<glyph horiz-adv-x="600" d="M 113 1071 C 113 1169 120 1242 136 1290 C 151 1338 178 1379 216 1413 C 254 1447 315 1483 399 1522 L 477 1364 C 405 1328 359 1300 340 1278 C 320 1256 311 1222 311 1178 L 485 1178 L 485 809 L 113 809 L 113 1071 Z" unicode="‘" />
<glyph horiz-adv-x="600" d="M 123 963 C 170 984 205 1003 228 1019 C 250 1035 266 1052 275 1070 C 284 1088 289 1113 289 1147 L 113 1147 L 113 1518 L 485 1518 L 485 1255 C 485 1149 477 1073 461 1027 C 445 980 418 940 379 906 C 340 872 281 839 201 805 L 123 963 Z" unicode="’" />
<glyph horiz-adv-x="600" d="M 123 -174 C 171 -152 207 -133 229 -117 C 251 -101 266 -83 275 -65 C 284 -47 289 -21 289 12 L 113 12 L 113 381 L 485 381 L 485 117 C 485 17 476 -57 459 -105 C 442 -153 414 -194 374 -230 C 334 -265 276 -299 201 -332 L 123 -174 Z" unicode="‚" />
<glyph horiz-adv-x="1087" d="M 113 1079 C 113 1177 120 1250 136 1296 C 152 1342 179 1382 217 1416 C 255 1449 314 1483 393 1518 L 467 1364 C 398 1332 354 1305 334 1283 C 314 1261 305 1228 305 1184 L 477 1184 L 477 823 L 113 823 L 113 1079 Z M 612 1079 C 612 1177 619 1250 635 1297 C 651 1344 677 1384 713 1416 C 749 1448 808 1482 889 1518 L 965 1364 C 917 1342 883 1323 861 1308 C 839 1292 824 1276 816 1259 C 807 1241 803 1216 803 1184 L 973 1184 L 973 823 L 612 823 L 612 1079 Z" unicode="“" />
<glyph horiz-adv-x="1087" d="M 123 975 C 191 1008 235 1036 255 1058 C 275 1080 285 1113 285 1159 L 113 1159 L 113 1518 L 477 1518 L 477 1262 C 477 1162 469 1089 453 1043 C 437 996 409 956 371 923 C 332 889 274 856 197 823 L 123 975 Z M 618 975 C 667 999 703 1019 725 1035 C 747 1051 762 1067 770 1085 C 778 1102 782 1127 782 1159 L 612 1159 L 612 1518 L 973 1518 L 973 1262 C 973 1164 965 1092 950 1045 C 934 998 908 958 871 925 C 834 892 776 858 696 823 L 618 975 Z" unicode="”" />
<glyph horiz-adv-x="1087" d="M 123 -170 C 191 -138 235 -111 255 -89 C 275 -67 285 -33 285 12 L 113 12 L 113 371 L 477 371 L 477 117 C 477 21 468 -49 452 -97 C 435 -145 407 -186 368 -221 C 329 -256 272 -290 197 -322 L 123 -170 Z M 618 -170 C 667 -147 703 -128 725 -112 C 747 -96 762 -79 770 -61 C 778 -43 782 -19 782 12 L 612 12 L 612 371 L 973 371 L 973 117 C 973 21 964 -50 948 -98 C 931 -146 903 -187 864 -222 C 825 -257 769 -290 696 -322 L 618 -170 Z" unicode="„" />
<glyph horiz-adv-x="440" d="" unicode=" " />
<glyph horiz-adv-x="823" d="M 223 360 L 596 360 L 596 0 L 223 0 L 223 360 Z M 236 1518 L 588 1518 L 553 477 L 266 477 L 236 1518 Z" unicode="!" />
<glyph horiz-adv-x="1184" d="M 174 1518 L 508 1518 L 489 815 L 195 815 L 174 1518 Z M 674 1518 L 1010 1518 L 989 815 L 694 815 L 674 1518 Z" unicode="&#x22;" />
<glyph horiz-adv-x="1642" d="M 338 365 L 115 365 L 115 643 L 391 643 L 424 823 L 115 823 L 115 1104 L 479 1104 L 559 1518 L 866 1518 L 784 1104 L 987 1104 L 1067 1518 L 1372 1518 L 1294 1104 L 1530 1104 L 1530 823 L 1241 823 L 1208 643 L 1530 643 L 1530 365 L 1153 365 L 1083 0 L 776 0 L 846 365 L 645 365 L 575 0 L 268 0 L 338 365 Z M 922 627 L 963 842 L 711 842 L 670 627 L 922 627 Z" unicode="#" />
<glyph horiz-adv-x="1405" d="M 559 1663 L 854 1663 L 854 1513 C 914 1509 978 1497 1047 1477 C 1115 1457 1177 1431 1231 1399 L 1094 1161 C 1051 1188 993 1210 920 1227 C 846 1244 775 1253 707 1253 C 614 1253 547 1240 507 1216 C 466 1192 446 1150 446 1092 C 446 1054 454 1025 471 1003 C 487 981 513 963 549 949 C 584 935 665 917 791 897 C 935 875 1041 847 1107 813 C 1173 779 1222 733 1253 676 C 1284 618 1300 549 1300 467 C 1300 330 1262 224 1187 149 C 1112 74 1001 27 854 9 L 854 -193 L 559 -193 L 559 5 C 352 25 188 77 68 162 L 203 385 C 275 340 349 307 427 286 C 505 264 590 254 684 254 C 790 254 869 268 919 296 C 969 324 995 373 995 442 C 995 482 986 515 969 539 C 951 563 922 583 882 598 C 841 612 770 627 668 641 C 560 657 483 672 437 686 C 391 700 349 717 312 737 C 275 757 244 783 218 814 C 192 844 172 881 158 923 C 144 965 137 1015 137 1073 C 137 1205 171 1307 239 1379 C 307 1451 413 1495 559 1512 L 559 1663 Z" unicode="$" />
<glyph horiz-adv-x="2554" d="M 553 539 C 396 539 276 582 192 668 C 108 754 66 878 66 1040 C 66 1200 108 1323 193 1411 C 277 1498 397 1542 553 1542 C 705 1542 823 1498 907 1411 C 991 1324 1034 1200 1034 1040 C 1034 878 992 754 908 668 C 824 582 705 539 553 539 Z M 553 778 C 619 778 668 799 700 842 C 732 885 748 951 748 1040 C 748 1209 683 1294 553 1294 C 419 1294 352 1209 352 1040 C 352 865 419 778 553 778 Z M 2003 -18 C 1847 -18 1727 25 1644 113 C 1561 200 1520 324 1520 485 C 1520 644 1562 767 1646 855 C 1730 943 1849 987 2003 987 C 2155 987 2273 943 2358 856 C 2443 769 2486 645 2486 485 C 2486 323 2444 199 2361 112 C 2277 25 2158 -18 2003 -18 Z M 2003 221 C 2069 221 2118 242 2151 284 C 2183 326 2200 393 2200 485 C 2200 569 2184 632 2152 674 C 2120 716 2070 737 2003 737 C 1937 737 1888 716 1855 676 C 1822 635 1806 571 1806 485 C 1806 396 1822 330 1854 286 C 1886 242 1935 221 2003 221 Z M 1550 1520 L 1849 1520 L 999 0 L 702 0 L 1550 1520 Z" unicode="%" />
<glyph horiz-adv-x="1737" d="M 662 -18 C 451 -18 300 17 210 87 C 119 157 74 270 74 426 C 74 519 98 601 148 672 C 197 743 275 805 383 857 C 337 963 315 1060 315 1147 C 315 1273 351 1370 425 1439 C 498 1507 604 1542 743 1542 C 873 1542 973 1510 1041 1448 C 1109 1385 1143 1285 1143 1147 C 1143 985 1049 859 861 768 L 807 742 C 894 635 989 542 1091 462 C 1147 552 1205 705 1266 922 L 1536 858 C 1470 615 1401 436 1327 320 L 1333 318 C 1373 302 1411 291 1449 284 C 1487 277 1531 274 1583 274 L 1597 274 L 1597 0 L 1571 0 C 1467 0 1380 7 1311 22 C 1241 37 1175 61 1112 93 L 1085 77 C 974 13 833 -18 662 -18 Z M 516 629 C 469 598 436 566 416 534 C 396 502 387 467 387 430 C 387 376 396 336 414 311 C 432 285 460 266 499 253 C 537 239 592 233 662 233 C 739 233 806 243 864 264 C 719 384 603 505 516 629 Z M 864 1147 C 864 1190 855 1223 838 1245 C 821 1267 789 1278 743 1278 C 695 1278 663 1267 645 1245 C 627 1223 618 1190 618 1147 C 618 1091 635 1028 671 956 L 674 949 C 744 982 794 1014 822 1045 C 850 1076 864 1110 864 1147 Z" unicode="&#x26;" />
<glyph horiz-adv-x="686" d="M 174 1520 L 508 1520 L 489 815 L 195 815 L 174 1520 Z" unicode="'" />
<glyph horiz-adv-x="1067" d="M 631 -393 C 547 -322 473 -235 409 -131 C 345 -27 295 88 259 216 C 223 344 205 479 205 621 C 205 749 222 877 258 1005 C 294 1133 345 1253 412 1367 C 479 1480 552 1570 631 1638 L 864 1489 C 746 1359 662 1224 611 1084 C 560 943 535 789 535 623 C 535 453 563 294 619 144 C 675 -5 756 -134 864 -244 L 631 -393 Z" unicode="(" />
<glyph horiz-adv-x="1067" d="M 205 -244 C 287 -152 349 -64 393 18 C 437 101 471 192 495 292 C 519 391 532 501 532 621 C 532 741 518 855 491 961 C 463 1067 425 1166 376 1256 C 326 1346 269 1424 205 1489 L 434 1638 C 565 1525 669 1379 746 1199 C 823 1019 862 827 862 623 C 862 497 844 371 809 243 C 773 115 722 -5 654 -119 C 586 -233 513 -325 434 -393 L 205 -244 Z" unicode=")" />
<glyph horiz-adv-x="1247" d="M 526 817 L 242 627 L 115 856 L 426 999 L 115 1147 L 240 1374 L 526 1182 L 498 1520 L 748 1520 L 719 1178 L 1006 1374 L 1133 1149 L 819 999 L 1133 854 L 1008 629 L 719 821 L 745 483 L 498 483 L 526 817 Z" unicode="*" />
<glyph horiz-adv-x="1479" d="M 580 578 L 190 578 L 190 866 L 580 866 L 580 1253 L 899 1253 L 899 866 L 1288 866 L 1288 578 L 899 578 L 899 188 L 580 188 L 580 578 Z" unicode="+" />
<glyph horiz-adv-x="600" d="M 123 -164 C 197 -128 244 -100 262 -82 C 280 -63 289 -36 289 0 L 113 0 L 113 369 L 485 369 L 485 106 C 485 8 477 -62 461 -106 C 445 -150 418 -188 380 -220 C 341 -252 281 -285 201 -319 L 123 -164 Z" unicode="," />
<glyph horiz-adv-x="870" d="M 78 815 L 788 815 L 788 528 L 78 528 L 78 815 Z" unicode="-" />
<glyph horiz-adv-x="600" d="M 113 369 L 485 369 L 485 0 L 113 0 L 113 369 Z" unicode="." />
<glyph horiz-adv-x="1176" d="M 848 1518 L 1176 1518 L 328 0 L 0 0 L 848 1518 Z" unicode="/" />
<glyph horiz-adv-x="1581" d="M 793 -23 C 563 -23 394 39 287 164 C 180 288 127 487 127 760 C 127 1032 180 1230 287 1355 C 393 1479 562 1542 793 1542 C 1021 1542 1188 1479 1294 1353 C 1400 1227 1454 1030 1454 760 C 1454 490 1400 292 1294 166 C 1187 40 1020 -23 793 -23 Z M 793 256 C 910 256 994 294 1045 370 C 1096 446 1122 576 1122 760 C 1122 941 1096 1068 1046 1140 C 995 1212 911 1249 793 1249 C 712 1249 647 1233 599 1201 C 550 1169 514 1119 492 1052 C 470 985 459 888 459 760 C 459 574 485 443 537 368 C 589 293 675 256 793 256 Z" unicode="0" />
<glyph horiz-adv-x="850" d="M 322 1229 L 63 1229 L 63 1518 L 637 1518 L 637 0 L 322 0 L 322 1229 Z" unicode="1" />
<glyph horiz-adv-x="1321" d="M 68 252 L 563 680 C 675 778 748 845 781 882 C 813 918 837 952 851 983 C 865 1013 872 1047 872 1085 C 872 1151 852 1197 813 1223 C 774 1249 707 1262 612 1262 C 542 1262 468 1253 390 1235 C 312 1217 249 1194 201 1167 L 55 1415 C 153 1465 246 1498 332 1516 C 418 1533 523 1542 645 1542 C 834 1542 972 1507 1060 1439 C 1148 1371 1192 1263 1192 1116 C 1192 1046 1181 982 1159 924 C 1137 866 1103 809 1057 752 C 1011 695 937 623 836 537 L 522 266 L 1208 266 L 1208 0 L 68 0 L 68 252 Z" unicode="2" />
<glyph horiz-adv-x="1331" d="M 643 -25 C 511 -25 396 -12 299 12 C 202 36 105 79 8 139 L 158 381 C 242 333 321 298 396 276 C 470 254 547 244 627 244 C 737 244 813 260 855 292 C 897 324 918 382 918 465 C 918 521 908 564 888 593 C 868 621 836 642 792 655 C 747 667 685 674 606 674 L 340 674 L 340 944 L 602 944 C 704 944 775 955 815 979 C 854 1002 874 1046 874 1112 C 874 1172 856 1213 821 1235 C 785 1257 719 1268 621 1268 C 547 1268 473 1258 398 1239 C 323 1219 260 1194 209 1163 L 45 1399 C 120 1445 210 1480 315 1505 C 420 1529 532 1542 651 1542 C 841 1542 978 1512 1063 1454 C 1147 1396 1190 1304 1190 1178 C 1190 1076 1176 999 1149 945 C 1121 891 1075 853 1010 829 C 1090 807 1147 767 1181 708 C 1214 649 1231 560 1231 440 C 1231 282 1185 165 1093 89 C 1001 13 851 -25 643 -25 Z" unicode="3" />
<glyph horiz-adv-x="1434" d="M 70 551 L 735 1518 L 1079 1518 L 422 569 L 848 569 L 913 1001 L 1139 1001 L 1139 569 L 1380 569 L 1380 311 L 1139 311 L 1139 0 L 844 0 L 844 311 L 70 311 L 70 551 Z" unicode="4" />
<glyph horiz-adv-x="1376" d="M 682 -23 C 567 -23 460 -10 360 15 C 260 41 164 83 72 141 L 221 383 C 309 333 389 297 461 276 C 532 254 603 244 674 244 C 757 244 820 252 862 269 C 904 286 935 313 956 350 C 976 386 987 435 987 496 C 987 557 976 606 955 643 C 934 679 903 706 862 724 C 821 741 762 750 684 750 C 571 750 477 732 403 696 L 135 776 L 174 1518 L 1190 1518 L 1190 1243 L 446 1243 L 430 958 C 506 995 617 1014 764 1014 C 904 1014 1012 995 1088 959 C 1164 923 1219 867 1255 791 C 1291 715 1309 620 1309 506 C 1309 381 1288 280 1248 203 C 1207 125 1143 68 1057 32 C 970 -4 845 -23 682 -23 Z" unicode="5" />
<glyph horiz-adv-x="1493" d="M 784 -23 C 554 -23 386 31 279 140 C 172 249 119 421 119 655 C 119 835 135 978 167 1083 C 199 1188 249 1272 318 1335 C 386 1397 480 1443 598 1473 C 716 1503 867 1518 1053 1518 L 1194 1518 L 1194 1243 L 1042 1243 C 947 1243 866 1238 800 1228 C 734 1218 678 1205 634 1188 C 590 1171 554 1150 528 1126 C 502 1101 482 1073 468 1041 C 454 1009 444 958 438 889 C 472 936 527 971 601 994 C 675 1016 771 1028 891 1028 C 1067 1028 1196 988 1278 909 C 1360 829 1401 699 1401 518 C 1401 332 1351 195 1251 108 C 1151 20 995 -23 784 -23 Z M 786 240 C 858 240 917 249 961 267 C 1005 285 1037 312 1057 348 C 1077 384 1087 437 1087 506 C 1087 603 1062 672 1013 713 C 964 753 889 774 788 774 C 564 774 453 690 453 522 C 453 424 479 352 531 307 C 583 262 668 240 786 240 Z" unicode="6" />
<glyph horiz-adv-x="1206" d="M 803 1243 L 23 1243 L 23 1518 L 1155 1518 L 1155 1284 L 604 0 L 266 0 L 803 1243 Z" unicode="7" />
<glyph horiz-adv-x="1513" d="M 756 -33 C 542 -33 379 5 268 83 C 157 161 102 276 102 428 C 102 644 183 778 346 831 C 281 857 233 894 201 944 C 169 994 154 1063 154 1153 C 154 1287 204 1386 306 1448 C 408 1510 558 1542 756 1542 C 956 1542 1107 1510 1208 1448 C 1309 1385 1360 1287 1360 1153 C 1360 1066 1344 997 1312 945 C 1280 893 1231 855 1165 831 C 1330 778 1413 644 1413 428 C 1413 276 1357 162 1245 84 C 1133 6 970 -33 756 -33 Z M 756 225 C 867 225 950 243 1005 281 C 1059 319 1087 377 1087 455 C 1087 533 1060 591 1006 629 C 952 667 868 686 756 686 C 642 686 559 667 507 629 C 454 591 428 533 428 455 C 428 376 454 318 508 281 C 562 243 644 225 756 225 Z M 756 930 C 856 930 929 944 976 972 C 1023 1000 1047 1046 1047 1110 C 1047 1171 1023 1216 977 1244 C 931 1272 857 1286 756 1286 C 655 1286 582 1272 536 1245 C 490 1217 467 1172 467 1110 C 467 1046 490 1000 537 972 C 583 944 656 930 756 930 Z" unicode="8" />
<glyph horiz-adv-x="1493" d="M 315 266 L 469 266 C 565 266 646 270 713 280 C 779 290 835 303 879 320 C 923 337 959 358 985 382 C 1011 406 1030 434 1043 464 C 1056 494 1066 547 1073 623 C 1038 575 984 540 911 518 C 838 496 741 485 621 485 C 447 485 319 525 236 607 C 152 689 111 818 111 995 C 111 1182 161 1320 261 1409 C 361 1497 517 1542 727 1542 C 957 1542 1125 1487 1232 1379 C 1339 1270 1393 1098 1393 864 C 1393 628 1363 451 1305 333 C 1247 215 1151 130 1018 78 C 885 26 699 0 459 0 L 315 0 L 315 266 Z M 723 733 C 947 733 1059 816 1059 983 C 1059 1081 1032 1153 979 1198 C 925 1243 841 1266 727 1266 C 653 1266 595 1257 551 1240 C 507 1222 475 1196 455 1160 C 434 1124 424 1070 424 999 C 424 905 447 837 495 795 C 543 753 619 733 723 733 Z" unicode="9" />
<glyph horiz-adv-x="641" d="M 133 356 L 506 356 L 506 0 L 133 0 L 133 356 Z M 133 1159 L 506 1159 L 506 803 L 133 803 L 133 1159 Z" unicode=":" />
<glyph horiz-adv-x="641" d="M 143 -164 C 217 -128 264 -100 282 -82 C 300 -63 309 -36 309 0 L 133 0 L 133 356 L 506 356 L 506 106 C 506 14 497 -55 480 -101 C 462 -147 433 -187 393 -221 C 353 -255 295 -287 221 -319 L 143 -164 Z M 133 1159 L 506 1159 L 506 803 L 133 803 L 133 1159 Z" unicode=";" />
<glyph horiz-adv-x="1479" d="M 227 600 L 227 819 L 1171 1286 L 1171 997 L 563 711 L 1171 422 L 1171 129 L 227 600 Z" unicode="&#x3C;" />
<glyph horiz-adv-x="1479" d="M 203 616 L 1278 616 L 1278 330 L 203 330 L 203 616 Z M 203 1112 L 1278 1112 L 1278 827 L 203 827 L 203 1112 Z" unicode="=" />
<glyph horiz-adv-x="1479" d="M 307 422 L 918 707 L 307 995 L 307 1286 L 1253 817 L 1253 596 L 307 129 L 307 422 Z" unicode="&#x3E;" />
<glyph horiz-adv-x="1438" d="M 520 440 C 512 494 508 541 508 582 C 508 659 525 721 561 767 C 597 813 666 859 770 905 C 831 932 875 955 903 973 C 930 991 949 1009 960 1029 C 971 1048 977 1075 977 1110 C 977 1150 968 1179 952 1199 C 935 1218 908 1232 872 1241 C 835 1250 783 1255 717 1255 C 562 1255 417 1221 283 1155 L 147 1421 C 215 1455 304 1484 412 1507 C 520 1530 629 1542 741 1542 C 941 1542 1085 1510 1175 1446 C 1264 1382 1309 1279 1309 1139 C 1309 1073 1300 1016 1282 969 C 1264 922 1236 882 1198 848 C 1160 814 1103 779 1026 745 C 941 707 887 675 864 649 C 841 623 830 584 830 533 L 834 440 L 520 440 Z M 489 322 L 862 322 L 862 0 L 489 0 L 489 322 Z" unicode="?" />
<glyph horiz-adv-x="2177" d="M 1122 -338 C 782 -338 533 -262 376 -111 C 219 40 141 276 141 596 C 141 908 220 1144 378 1304 C 536 1464 771 1544 1085 1544 C 1720 1544 2038 1228 2038 596 C 2038 449 2026 339 2002 265 C 1978 191 1938 139 1882 107 C 1826 75 1745 59 1638 59 C 1550 59 1481 71 1430 95 C 1379 119 1346 159 1331 215 C 1295 163 1248 126 1192 105 C 1136 84 1061 74 967 74 C 820 74 710 117 636 203 C 562 289 526 424 526 608 C 526 962 678 1139 983 1139 C 1078 1139 1149 1129 1197 1111 C 1245 1093 1283 1060 1313 1014 L 1384 1122 L 1573 1106 L 1573 369 C 1574 326 1579 295 1588 276 C 1597 257 1611 243 1630 233 C 1649 223 1674 219 1706 219 C 1749 219 1781 228 1803 246 C 1825 264 1840 296 1849 340 C 1857 384 1862 469 1862 596 C 1862 861 1799 1057 1675 1185 C 1550 1312 1353 1376 1085 1376 C 824 1376 631 1311 505 1182 C 379 1052 317 857 317 596 C 317 336 381 144 511 18 C 640 -107 843 -170 1120 -170 C 1219 -170 1318 -159 1416 -138 C 1514 -116 1595 -89 1659 -57 L 1733 -207 C 1558 -294 1354 -338 1122 -338 Z M 1038 313 C 1126 313 1190 336 1230 384 C 1270 431 1290 506 1290 608 C 1290 710 1270 782 1232 822 C 1194 862 1129 883 1038 883 C 961 883 904 861 868 818 C 831 774 813 704 813 608 C 813 507 831 433 868 385 C 905 337 962 313 1038 313 Z" unicode="@" />
<glyph horiz-adv-x="1618" d="M 637 1528 L 977 1528 L 1589 0 L 1241 0 L 1143 250 L 455 250 L 356 0 L 29 0 L 637 1528 Z M 1036 526 L 799 1130 L 561 526 L 1036 526 Z" unicode="A" />
<glyph horiz-adv-x="1546" d="M 152 1518 L 856 1518 C 1059 1518 1206 1487 1296 1425 C 1386 1363 1432 1264 1432 1126 C 1432 1037 1415 965 1383 910 C 1350 855 1299 815 1229 791 C 1315 770 1378 730 1416 672 C 1454 614 1473 529 1473 418 C 1473 316 1452 234 1411 174 C 1369 114 1305 70 1218 42 C 1131 14 1009 0 852 0 L 152 0 L 152 1518 Z M 891 279 C 977 279 1038 292 1076 318 C 1114 344 1133 389 1133 451 C 1133 511 1115 554 1079 581 C 1043 607 980 621 891 621 L 481 621 L 481 279 L 891 279 Z M 868 911 C 947 911 1004 923 1039 948 C 1074 972 1092 1015 1092 1077 C 1092 1135 1074 1175 1039 1198 C 1003 1221 946 1233 868 1233 L 481 1233 L 481 911 L 868 911 Z" unicode="B" />
<glyph horiz-adv-x="1554" d="M 850 -23 C 582 -23 385 40 259 167 C 133 293 70 491 70 760 C 70 1018 136 1212 270 1344 C 403 1476 603 1542 870 1542 C 999 1542 1111 1524 1207 1490 C 1302 1456 1388 1400 1466 1323 L 1235 1092 C 1183 1142 1127 1179 1069 1201 C 1010 1223 943 1235 868 1235 C 712 1235 596 1195 521 1117 C 445 1039 408 918 408 756 C 408 587 445 465 519 389 C 593 313 710 276 870 276 C 949 276 1018 287 1076 309 C 1134 331 1193 372 1255 430 L 1477 213 C 1395 128 1304 67 1204 31 C 1103 -4 985 -23 850 -23 Z" unicode="C" />
<glyph horiz-adv-x="1610" d="M 152 1518 L 696 1518 C 919 1518 1089 1493 1207 1445 C 1324 1397 1409 1318 1462 1210 C 1515 1102 1542 952 1542 760 C 1542 570 1514 420 1459 311 C 1403 201 1316 122 1196 73 C 1076 24 907 0 688 0 L 152 0 L 152 1518 Z M 707 293 C 838 293 939 306 1009 334 C 1079 361 1129 405 1159 467 C 1189 529 1204 626 1204 760 C 1204 867 1196 947 1180 1001 C 1164 1055 1138 1097 1102 1128 C 1066 1158 1017 1181 954 1195 C 891 1209 806 1217 700 1217 L 487 1217 L 487 293 L 707 293 Z" unicode="D" />
<glyph horiz-adv-x="1407" d="M 152 1518 L 1292 1518 L 1292 1214 L 487 1214 L 487 920 L 1272 920 L 1272 627 L 487 627 L 487 291 L 1300 291 L 1300 0 L 152 0 L 152 1518 Z" unicode="E" />
<glyph horiz-adv-x="1335" d="M 152 1518 L 1255 1518 L 1255 1214 L 487 1214 L 487 889 L 1235 889 L 1235 590 L 487 590 L 487 0 L 152 0 L 152 1518 Z" unicode="F" />
<glyph horiz-adv-x="1636" d="M 846 -23 C 661 -23 512 3 399 57 C 285 110 202 192 149 302 C 96 412 70 564 70 760 C 70 1024 136 1220 268 1349 C 400 1477 600 1542 868 1542 C 1140 1542 1345 1470 1483 1327 L 1253 1096 C 1196 1148 1137 1185 1076 1205 C 1014 1225 944 1235 866 1235 C 707 1235 591 1196 517 1119 C 443 1041 406 920 406 756 C 406 626 421 527 451 459 C 481 390 529 340 595 308 C 661 276 750 260 862 260 C 1000 260 1098 283 1156 329 C 1214 375 1243 456 1243 571 L 1243 604 L 819 604 L 819 883 L 1575 883 L 1575 635 C 1575 473 1550 346 1500 252 C 1450 158 1372 89 1266 44 C 1160 0 1020 -23 846 -23 Z" unicode="G" />
<glyph horiz-adv-x="1669" d="M 152 1518 L 487 1518 L 487 936 L 1182 936 L 1182 1518 L 1518 1518 L 1518 0 L 1182 0 L 1182 623 L 487 623 L 487 0 L 152 0 L 152 1518 Z" unicode="H" />
<glyph horiz-adv-x="682" d="M 174 1518 L 508 1518 L 508 0 L 174 0 L 174 1518 Z" unicode="I" />
<glyph horiz-adv-x="932" d="M 268 -4 L 188 -4 C 127 -4 79 -2 45 0 L 45 291 L 227 291 C 311 291 370 305 404 335 C 438 365 455 417 455 492 L 455 1518 L 788 1518 L 788 479 C 788 315 747 194 665 115 C 583 35 451 -4 268 -4 Z" unicode="J" />
<glyph horiz-adv-x="1556" d="M 152 1518 L 483 1518 L 483 832 L 1059 1518 L 1430 1518 L 917 917 L 1503 0 L 1124 0 L 699 661 L 483 408 L 483 0 L 152 0 L 152 1518 Z" unicode="K" />
<glyph horiz-adv-x="1264" d="M 152 1518 L 487 1518 L 487 291 L 1233 291 L 1233 0 L 152 0 L 152 1518 Z" unicode="L" />
<glyph horiz-adv-x="2003" d="M 152 1518 L 590 1518 L 1001 481 L 1413 1518 L 1849 1518 L 1849 0 L 1522 0 L 1522 1014 L 1114 0 L 860 0 L 455 1008 L 455 0 L 152 0 L 152 1518 Z" unicode="M" />
<glyph horiz-adv-x="1686" d="M 152 1518 L 514 1518 L 1212 561 L 1212 1518 L 1532 1518 L 1532 0 L 1225 0 L 473 1024 L 473 0 L 152 0 L 152 1518 Z" unicode="N" />
<glyph horiz-adv-x="1747" d="M 872 -25 C 337 -25 70 236 70 760 C 70 1281 337 1542 872 1542 C 1408 1542 1677 1281 1677 760 C 1677 236 1408 -25 872 -25 Z M 872 270 C 1029 270 1146 309 1222 387 C 1298 465 1337 587 1337 754 C 1337 921 1298 1043 1222 1120 C 1146 1196 1029 1235 872 1235 C 715 1235 598 1196 522 1120 C 446 1043 408 921 408 754 C 408 587 446 465 522 387 C 598 309 714 270 872 270 Z" unicode="O" />
<glyph horiz-adv-x="1556" d="M 152 1518 L 881 1518 C 1088 1518 1241 1478 1339 1398 C 1437 1318 1487 1188 1487 1010 C 1487 820 1435 682 1333 595 C 1230 508 1074 465 864 465 L 479 465 L 479 0 L 152 0 L 152 1518 Z M 879 752 C 977 752 1046 770 1088 808 C 1130 846 1151 907 1151 993 C 1151 1079 1131 1141 1091 1177 C 1051 1213 978 1231 874 1231 L 479 1231 L 479 752 L 879 752 Z" unicode="P" />
<glyph horiz-adv-x="1747" d="M 1122 -406 C 1030 -406 954 -400 893 -388 C 831 -376 782 -356 744 -330 C 706 -303 678 -268 660 -224 C 642 -180 633 -117 633 -36 L 634 12 L 540 33 C 226 115 70 358 70 760 C 70 1020 136 1216 268 1346 C 400 1476 602 1542 872 1542 C 1143 1542 1345 1476 1478 1345 C 1610 1214 1677 1019 1677 760 C 1677 594 1650 457 1598 347 C 1545 237 1467 154 1364 96 C 1260 38 1123 5 953 -4 L 953 -21 C 953 -53 957 -77 966 -92 C 975 -106 990 -117 1011 -123 C 1031 -129 1068 -133 1120 -133 L 1315 -133 L 1315 -401 C 1263 -404 1199 -406 1122 -406 Z M 872 270 C 1030 270 1147 308 1223 384 C 1299 460 1337 584 1337 754 C 1337 924 1298 1047 1222 1122 C 1146 1197 1029 1235 872 1235 C 714 1235 597 1197 521 1121 C 445 1045 408 923 408 754 C 408 584 446 461 522 385 C 598 308 714 270 872 270 Z" unicode="Q" />
<glyph horiz-adv-x="1581" d="M 152 1518 L 885 1518 C 1024 1518 1137 1500 1223 1465 C 1309 1430 1373 1378 1415 1308 C 1456 1238 1477 1142 1477 1022 C 1477 890 1450 785 1396 707 C 1342 629 1262 574 1157 542 L 1458 0 L 1100 0 L 820 504 L 479 504 L 479 0 L 152 0 L 152 1518 Z M 874 793 C 974 793 1044 809 1082 842 C 1120 875 1139 931 1139 1010 C 1139 1094 1119 1151 1080 1183 C 1040 1215 970 1231 870 1231 L 479 1231 L 479 793 L 874 793 Z" unicode="R" />
<glyph horiz-adv-x="1518" d="M 768 -23 C 616 -23 480 -5 358 28 C 236 62 131 112 45 176 L 213 418 C 373 310 555 256 758 256 C 848 256 918 261 968 273 C 1018 284 1055 302 1077 326 C 1099 350 1110 388 1110 440 C 1110 475 1099 503 1078 525 C 1057 547 1024 565 978 579 C 932 593 856 608 750 623 C 572 647 444 677 364 712 C 284 746 225 793 188 852 C 151 911 133 988 133 1083 C 133 1245 182 1362 281 1434 C 380 1506 542 1542 766 1542 C 1024 1542 1229 1492 1380 1393 L 1200 1133 C 1149 1167 1082 1194 1000 1216 C 917 1238 838 1249 762 1249 C 686 1249 627 1244 585 1234 C 543 1224 512 1208 494 1187 C 476 1165 467 1134 467 1092 C 467 1058 476 1031 496 1010 C 515 989 545 972 585 958 C 625 944 708 929 834 911 C 976 891 1082 869 1152 846 C 1222 823 1277 795 1319 761 C 1360 727 1391 684 1411 634 C 1431 583 1442 524 1442 457 C 1442 287 1387 165 1278 90 C 1169 14 999 -23 768 -23 Z" unicode="S" />
<glyph horiz-adv-x="1446" d="M 555 1214 L 29 1214 L 29 1518 L 1417 1518 L 1417 1214 L 893 1214 L 893 0 L 555 0 L 555 1214 Z" unicode="T" />
<glyph horiz-adv-x="1671" d="M 836 -29 C 714 -29 609 -17 521 6 C 433 29 362 63 306 108 C 250 152 209 211 182 284 C 154 356 141 455 141 580 L 141 1518 L 477 1518 L 477 623 C 477 527 488 455 512 407 C 535 359 573 324 625 302 C 677 279 748 268 840 268 C 931 268 1003 279 1055 301 C 1107 323 1145 358 1169 406 C 1192 454 1204 526 1204 623 L 1204 1518 L 1530 1518 L 1530 580 C 1530 454 1516 355 1488 283 C 1460 211 1419 152 1364 108 C 1308 63 1237 29 1150 6 C 1062 -17 958 -29 836 -29 Z" unicode="U" />
<glyph horiz-adv-x="1604" d="M 31 1518 L 383 1518 L 807 408 L 1229 1518 L 1575 1518 L 971 -10 L 631 -10 L 31 1518 Z" unicode="V" />
<glyph horiz-adv-x="2216" d="M 39 1518 L 389 1518 L 672 543 L 967 1518 L 1270 1518 L 1567 543 L 1849 1518 L 2177 1518 L 1716 -10 L 1419 -10 L 1108 1010 L 797 -10 L 502 -10 L 39 1518 Z" unicode="W" />
<glyph horiz-adv-x="1599" d="M 111 1518 L 487 1518 L 813 1050 L 1120 1518 L 1491 1518 L 986 802 L 1546 0 L 1165 0 L 785 547 L 424 0 L 53 0 L 611 797 L 111 1518 Z" unicode="X" />
<glyph horiz-adv-x="1556" d="M 6 1518 L 367 1518 L 784 834 L 1202 1518 L 1548 1518 L 944 532 L 944 0 L 610 0 L 610 532 L 6 1518 Z" unicode="Y" />
<glyph horiz-adv-x="1417" d="M 66 250 L 899 1214 L 100 1214 L 100 1518 L 1323 1518 L 1323 1243 L 502 291 L 1346 291 L 1346 0 L 66 0 L 66 250 Z" unicode="Z" />
<glyph horiz-adv-x="1057" d="M 223 1589 L 879 1589 L 879 1313 L 549 1313 L 549 -70 L 885 -70 L 885 -338 L 223 -338 L 223 1589 Z" unicode="[" />
<glyph horiz-adv-x="1176" d="M 0 1518 L 328 1518 L 1176 0 L 848 0 L 0 1518 Z" unicode="\" />
<glyph horiz-adv-x="1057" d="M 172 -70 L 506 -70 L 506 1313 L 176 1313 L 176 1589 L 831 1589 L 831 -338 L 172 -338 L 172 -70 Z" unicode="]" />
<glyph horiz-adv-x="1208" d="M 438 1507 L 770 1507 L 1087 1132 L 786 1132 L 600 1308 L 416 1132 L 121 1132 L 438 1507 Z" unicode="^" />
<glyph horiz-adv-x="928" d="M -76 -82 L 1004 -82 L 1004 -322 L -76 -322 L -76 -82 Z" unicode="_" />
<glyph horiz-adv-x="1208" d="M 139 1645 L 526 1645 L 815 1270 L 530 1270 L 139 1645 Z" unicode="`" />
<glyph horiz-adv-x="1321" d="M 487 -18 C 339 -18 229 9 158 65 C 86 120 51 212 51 340 C 51 442 74 522 121 580 C 168 638 242 680 343 706 C 444 732 595 745 795 745 L 842 745 L 836 803 C 830 837 811 863 777 879 C 743 895 688 903 612 903 C 554 903 496 894 436 878 C 376 861 323 838 276 809 L 117 1044 C 179 1086 259 1120 358 1146 C 456 1172 553 1186 647 1186 C 778 1186 879 1172 951 1144 C 1023 1116 1074 1071 1105 1009 C 1135 947 1151 853 1151 725 L 1151 373 C 1151 335 1153 310 1158 298 C 1162 286 1171 278 1183 273 C 1195 268 1217 266 1251 266 L 1251 4 C 1233 -1 1188 -4 1116 -4 C 1051 -4 1003 4 973 20 C 943 36 917 67 895 111 C 830 25 694 -18 487 -18 Z M 356 367 C 356 321 370 289 400 269 C 430 249 480 240 551 240 C 654 240 728 259 774 297 C 819 335 842 397 842 481 L 842 524 L 815 524 C 713 524 634 521 576 517 C 518 513 474 506 443 496 C 411 486 389 472 376 454 C 362 436 356 407 356 367 Z" unicode="a" />
<glyph horiz-adv-x="1395" d="M 807 -18 C 703 -18 618 -8 553 11 C 488 31 439 60 406 100 L 342 -12 L 127 10 L 127 1589 L 446 1589 L 446 1075 C 509 1149 635 1186 825 1186 C 991 1186 1115 1138 1198 1042 C 1281 946 1323 793 1323 582 C 1323 377 1280 226 1196 128 C 1112 30 982 -18 807 -18 Z M 745 252 C 833 252 897 276 937 326 C 977 375 997 456 997 569 C 997 651 988 715 971 759 C 954 803 927 836 890 859 C 853 881 805 893 745 893 C 640 893 564 868 518 818 C 472 768 449 685 449 569 C 449 449 471 366 515 320 C 559 274 636 252 745 252 Z" unicode="b" />
<glyph horiz-adv-x="1202" d="M 666 -18 C 527 -18 414 3 327 47 C 239 90 175 154 134 240 C 92 325 72 439 72 582 C 72 728 93 844 137 931 C 181 1017 248 1081 338 1123 C 428 1165 542 1186 680 1186 C 880 1186 1037 1123 1151 997 L 926 784 C 888 824 849 851 810 867 C 770 883 727 891 680 891 C 581 891 509 866 463 818 C 417 769 395 687 395 573 C 395 491 404 428 424 384 C 444 340 474 307 516 285 C 558 263 613 252 682 252 C 734 252 780 260 820 277 C 859 294 900 323 944 365 L 1149 168 C 1070 95 995 46 924 20 C 853 -5 767 -18 666 -18 Z" unicode="c" />
<glyph horiz-adv-x="1395" d="M 575 -23 C 407 -23 282 26 198 125 C 114 223 72 377 72 586 C 72 793 115 945 201 1041 C 287 1137 416 1186 586 1186 C 769 1186 889 1149 946 1077 L 946 1589 L 1268 1589 L 1268 12 L 1022 -10 L 989 106 C 949 60 895 27 827 7 C 759 -12 675 -23 575 -23 Z M 651 254 C 755 254 830 279 876 330 C 922 380 946 466 946 586 C 946 668 936 731 918 773 C 899 815 868 847 826 867 C 784 887 725 897 651 897 C 562 897 497 873 457 827 C 417 780 397 700 397 586 C 397 466 417 381 458 330 C 499 279 563 254 651 254 Z" unicode="d" />
<glyph horiz-adv-x="1268" d="M 676 -23 C 540 -23 428 -2 338 38 C 248 79 182 143 138 230 C 94 316 72 434 72 582 C 72 728 94 844 140 932 C 185 1019 252 1083 342 1124 C 431 1165 542 1186 674 1186 C 850 1186 979 1144 1061 1061 C 1143 977 1187 840 1191 648 L 1191 568 L 1190 459 L 383 459 C 390 405 404 363 426 332 C 447 301 477 278 517 262 C 556 246 609 238 676 238 C 754 238 821 246 878 262 C 935 278 989 306 1040 344 L 1202 135 C 1125 77 1046 37 964 13 C 882 -11 786 -23 676 -23 Z M 897 688 C 893 752 883 799 867 829 C 851 859 826 881 794 896 C 762 910 718 918 664 918 C 601 918 551 909 513 893 C 475 876 445 852 425 821 C 405 789 391 745 383 688 L 897 688 Z" unicode="e" />
<glyph horiz-adv-x="909" d="M 51 1159 L 270 1159 L 270 1214 C 270 1363 304 1469 374 1532 C 443 1594 555 1626 709 1626 L 862 1622 L 862 1360 L 752 1360 C 694 1360 653 1349 628 1328 C 602 1307 590 1270 590 1217 L 590 1159 L 862 1159 L 862 885 L 590 885 L 590 0 L 270 0 L 270 885 L 51 885 L 51 1159 Z" unicode="f" />
<glyph horiz-adv-x="1335" d="M 641 426 C 585 426 534 428 488 433 L 488 432 C 480 419 477 405 477 391 C 477 366 487 349 508 341 C 529 332 582 328 668 328 C 832 328 955 318 1037 300 C 1119 281 1178 250 1214 208 C 1250 165 1268 99 1268 10 C 1268 -122 1219 -218 1121 -278 C 1023 -337 861 -367 637 -367 C 467 -367 342 -358 262 -341 C 181 -323 123 -295 88 -255 C 52 -215 35 -158 35 -84 C 35 56 110 142 262 176 C 239 192 222 212 210 237 C 198 262 193 296 193 340 C 193 406 212 460 250 502 C 150 562 100 659 100 793 C 100 926 144 1025 233 1089 C 321 1153 457 1186 641 1186 L 706 1184 L 1221 1286 L 1221 1042 L 1056 1042 C 1102 1014 1135 981 1155 941 C 1174 901 1184 852 1184 793 C 1184 665 1140 571 1053 513 C 966 455 829 426 641 426 Z M 649 -145 C 755 -145 830 -135 874 -115 C 918 -95 940 -61 940 -12 C 940 28 920 56 880 71 C 840 86 763 94 649 94 C 575 94 517 90 475 83 C 433 75 403 64 385 48 C 367 32 358 7 358 -27 C 358 -59 367 -83 385 -99 C 403 -115 432 -126 472 -134 C 512 -141 571 -145 649 -145 Z M 641 639 C 719 639 777 650 813 672 C 849 694 868 732 868 788 C 868 841 850 879 815 903 C 780 926 722 938 641 938 C 558 938 499 926 465 903 C 431 880 414 842 414 788 C 414 734 431 695 467 673 C 503 650 561 639 641 639 Z" unicode="g" />
<glyph horiz-adv-x="1360" d="M 127 1589 L 446 1589 L 446 1081 C 512 1151 637 1186 823 1186 C 923 1186 1004 1169 1064 1137 C 1124 1105 1169 1056 1197 991 C 1225 926 1239 830 1239 702 L 1239 0 L 920 0 L 920 639 C 920 710 913 761 900 791 C 886 821 865 843 835 859 C 805 875 763 883 709 883 C 645 883 595 874 557 857 C 519 839 491 813 474 779 C 457 745 449 693 449 625 L 449 0 L 127 0 L 127 1589 Z" unicode="h" />
<glyph horiz-adv-x="600" d="M 139 1159 L 459 1159 L 459 0 L 139 0 L 139 1159 Z M 137 1559 L 461 1559 L 461 1266 L 137 1266 L 137 1559 Z" unicode="i" />
<glyph horiz-adv-x="600" d="M 6 -102 L 31 -102 C 62 -102 85 -98 100 -91 C 114 -84 124 -72 130 -55 C 136 -37 139 -3 139 47 L 139 1159 L 459 1159 L 459 49 C 459 -61 447 -143 425 -197 C 402 -251 364 -289 311 -312 C 258 -334 176 -346 66 -346 L 6 -346 L 6 -102 Z M 137 1559 L 461 1559 L 461 1266 L 137 1266 L 137 1559 Z" unicode="j" />
<glyph horiz-adv-x="1239" d="M 127 1589 L 444 1589 L 444 680 L 840 1159 L 1190 1159 L 801 686 L 1225 0 L 868 0 L 585 446 L 444 281 L 444 0 L 127 0 L 127 1589 Z" unicode="k" />
<glyph horiz-adv-x="698" d="M 457 -4 C 341 -4 259 23 211 79 C 163 135 139 225 139 350 L 139 1589 L 459 1589 L 459 389 C 459 341 466 308 480 292 C 494 276 525 268 573 268 L 612 268 L 612 4 C 576 -1 525 -4 457 -4 Z" unicode="l" />
<glyph horiz-adv-x="2103" d="M 127 1141 L 377 1159 L 403 1059 C 432 1099 481 1131 551 1153 C 621 1175 707 1186 811 1186 C 879 1186 934 1182 977 1174 C 1019 1166 1054 1153 1080 1137 C 1106 1121 1129 1093 1149 1055 C 1217 1142 1361 1186 1579 1186 C 1678 1186 1757 1170 1816 1138 C 1875 1106 1918 1058 1945 994 C 1971 930 1985 832 1985 702 L 1985 0 L 1661 0 L 1661 639 C 1661 717 1655 770 1643 798 C 1631 826 1611 847 1584 861 C 1556 875 1516 883 1464 883 C 1402 883 1353 874 1318 858 C 1282 842 1257 818 1241 786 C 1225 754 1217 700 1217 625 L 1217 0 L 895 0 L 895 639 C 895 717 888 770 876 798 C 864 826 843 847 815 861 C 787 875 747 883 696 883 C 634 883 585 874 550 858 C 514 842 489 818 473 786 C 457 754 449 700 449 625 L 449 0 L 127 0 L 127 1141 Z" unicode="m" />
<glyph horiz-adv-x="1360" d="M 127 1141 L 377 1159 L 403 1059 C 481 1143 621 1186 823 1186 C 923 1186 1004 1169 1064 1137 C 1124 1105 1169 1056 1197 991 C 1225 926 1239 830 1239 702 L 1239 0 L 920 0 L 920 639 C 920 710 913 761 900 791 C 886 821 865 843 835 859 C 805 875 763 883 709 883 C 645 883 595 874 557 857 C 519 839 491 813 474 779 C 457 745 449 693 449 625 L 449 0 L 127 0 L 127 1141 Z" unicode="n" />
<glyph horiz-adv-x="1354" d="M 678 -23 C 472 -23 319 26 220 124 C 121 222 72 375 72 582 C 72 787 121 939 219 1038 C 317 1136 470 1186 678 1186 C 884 1186 1036 1137 1134 1039 C 1232 941 1282 788 1282 582 C 1282 374 1232 221 1133 123 C 1033 25 882 -23 678 -23 Z M 678 252 C 775 252 846 277 892 327 C 938 377 961 459 961 573 C 961 687 938 768 892 818 C 846 868 775 893 678 893 C 580 893 508 868 463 818 C 417 768 395 686 395 573 C 395 459 417 377 463 327 C 508 277 580 252 678 252 Z" unicode="o" />
<glyph horiz-adv-x="1395" d="M 127 1141 L 377 1159 L 403 1057 C 441 1102 496 1135 566 1155 C 636 1175 723 1186 827 1186 C 993 1186 1117 1138 1199 1042 C 1281 946 1323 792 1323 582 C 1323 372 1280 220 1194 125 C 1108 29 979 -18 809 -18 C 715 -18 639 -9 581 7 C 523 24 479 52 449 90 L 449 -338 L 127 -338 L 127 1141 Z M 745 254 C 831 254 895 278 936 326 C 976 374 997 455 997 569 C 997 651 988 715 971 759 C 954 803 927 836 890 859 C 853 881 805 893 745 893 C 639 893 564 868 518 819 C 472 770 449 687 449 569 C 449 451 470 369 514 323 C 558 277 635 254 745 254 Z" unicode="p" />
<glyph horiz-adv-x="1395" d="M 946 82 C 911 46 865 19 808 2 C 751 -14 673 -23 575 -23 C 407 -23 282 26 198 124 C 114 222 72 375 72 584 C 72 788 114 940 198 1038 C 282 1136 412 1186 586 1186 C 690 1186 774 1176 839 1157 C 904 1137 954 1107 989 1067 L 1053 1165 L 1268 1147 L 1268 -338 L 946 -338 L 946 82 Z M 651 254 C 755 254 830 279 876 330 C 922 380 946 465 946 584 C 946 667 936 730 918 773 C 899 815 869 847 827 867 C 785 887 727 897 651 897 C 563 897 499 873 458 827 C 417 780 397 699 397 584 C 397 464 417 379 459 329 C 501 279 565 254 651 254 Z" unicode="q" />
<glyph horiz-adv-x="827" d="M 127 1141 L 377 1159 L 410 1032 C 433 1068 478 1100 545 1127 C 612 1153 690 1168 780 1171 L 780 864 C 698 863 634 853 587 834 C 539 815 504 786 482 746 C 460 706 449 649 449 573 L 449 0 L 127 0 L 127 1141 Z" unicode="r" />
<glyph horiz-adv-x="1174" d="M 573 -18 C 348 -18 164 30 20 127 L 184 362 C 242 324 307 295 381 274 C 455 252 526 242 594 242 C 681 242 738 248 764 262 C 790 275 803 300 803 338 C 803 358 798 373 788 385 C 778 397 763 406 741 414 C 719 421 671 430 598 440 C 490 454 414 468 369 480 C 323 492 283 508 249 526 C 214 544 185 566 163 593 C 140 619 122 651 110 688 C 98 724 92 769 92 823 C 92 948 133 1040 215 1098 C 297 1156 424 1186 598 1186 C 693 1186 783 1176 869 1158 C 955 1139 1027 1113 1087 1079 L 934 829 C 886 853 833 872 773 885 C 713 898 658 905 608 905 C 559 905 520 902 492 897 C 463 891 442 883 430 872 C 418 860 412 843 412 821 C 412 790 424 768 449 755 C 473 742 524 731 602 721 C 676 711 744 699 807 687 C 869 675 923 656 969 631 C 1015 606 1051 572 1077 529 C 1103 485 1116 428 1116 356 C 1116 263 1098 190 1062 137 C 1026 84 970 45 892 20 C 814 -5 707 -18 573 -18 Z" unicode="s" />
<glyph horiz-adv-x="928" d="M 51 1159 L 257 1159 L 311 1442 L 561 1493 L 561 1159 L 836 1159 L 836 885 L 561 885 L 561 408 C 561 364 565 334 575 317 C 584 300 599 288 620 280 C 640 272 671 268 711 268 L 836 268 L 836 0 C 812 -2 764 -4 692 -4 L 645 -4 C 544 -4 465 7 407 30 C 349 53 307 90 281 140 C 255 190 242 264 242 360 L 242 885 L 51 885 L 51 1159 Z" unicode="t" />
<glyph horiz-adv-x="1343" d="M 674 -18 C 532 -18 422 0 344 34 C 265 68 208 124 173 200 C 138 276 121 389 121 541 L 121 1159 L 442 1159 L 442 535 C 442 494 443 457 446 423 C 448 389 457 360 472 336 C 487 312 510 293 542 280 C 574 266 618 260 676 260 C 736 260 782 268 815 284 C 848 300 872 323 886 355 C 900 386 907 447 907 537 L 907 1159 L 1223 1159 L 1223 543 C 1223 391 1205 276 1171 200 C 1136 123 1079 67 1001 33 C 923 0 814 -18 674 -18 Z" unicode="u" />
<glyph horiz-adv-x="1255" d="M -2 1159 L 344 1159 L 637 373 L 930 1159 L 1255 1159 L 795 -12 L 459 -12 L -2 1159 Z" unicode="v" />
<glyph horiz-adv-x="1884" d="M 18 1159 L 356 1159 L 569 453 L 791 1159 L 1108 1159 L 1329 455 L 1542 1159 L 1866 1159 L 1489 -12 L 1182 -12 L 942 733 L 702 -12 L 397 -12 L 18 1159 Z" unicode="w" />
<glyph horiz-adv-x="1227" d="M 49 1159 L 408 1159 L 632 838 L 842 1159 L 1180 1159 L 795 604 L 1217 0 L 856 0 L 596 374 L 348 0 L 10 0 L 434 606 L 49 1159 Z" unicode="x" />
<glyph horiz-adv-x="1196" d="M -2 1159 L 344 1159 L 612 421 L 872 1159 L 1198 1159 L 733 -51 C 703 -132 669 -193 632 -234 C 595 -274 549 -303 493 -321 C 437 -339 364 -348 274 -348 L 160 -344 L 160 -102 L 246 -102 C 288 -102 321 -99 344 -95 C 366 -90 384 -82 396 -72 C 408 -61 418 -42 426 -16 L 441 26 L -2 1159 Z" unicode="y" />
<glyph horiz-adv-x="1106" d="M 41 215 L 616 885 L 74 885 L 74 1159 L 1049 1159 L 1049 940 L 469 258 L 1071 258 L 1071 0 L 41 0 L 41 215 Z" unicode="z" />
<glyph horiz-adv-x="1133" d="M 700 -338 C 560 -338 458 -314 394 -266 C 330 -218 299 -145 299 -49 C 299 -3 316 75 350 188 C 372 262 386 312 392 338 C 398 364 401 384 401 399 C 401 436 385 461 355 474 C 324 487 252 494 139 494 L 139 756 C 227 756 287 758 317 764 C 347 770 369 779 382 792 C 394 805 401 825 401 852 C 401 868 398 888 392 913 C 386 937 372 987 350 1063 C 316 1175 299 1254 299 1300 C 299 1396 330 1469 394 1517 C 458 1565 560 1589 700 1589 L 961 1589 L 961 1313 L 778 1313 C 722 1313 684 1305 663 1291 C 641 1277 631 1250 631 1210 C 631 1190 646 1128 677 1025 C 707 921 723 844 723 795 C 723 708 677 652 586 627 C 677 599 723 542 723 457 C 723 409 707 331 677 224 C 646 116 631 53 631 33 C 631 -7 641 -34 662 -48 C 683 -62 722 -70 778 -70 L 961 -70 L 961 -338 L 700 -338 Z" unicode="{" />
<glyph horiz-adv-x="774" d="M 223 1589 L 549 1589 L 549 -338 L 223 -338 L 223 1589 Z" unicode="|" />
<glyph horiz-adv-x="1133" d="M 172 -70 L 356 -70 C 411 -70 449 -62 471 -48 C 493 -34 504 -7 504 33 C 504 51 496 88 480 146 C 449 251 430 323 422 362 C 414 401 410 433 410 457 C 410 542 455 599 547 627 C 455 651 410 707 410 795 C 410 842 425 919 457 1025 C 488 1130 504 1192 504 1210 C 504 1250 493 1277 472 1291 C 451 1305 412 1313 356 1313 L 172 1313 L 172 1589 L 432 1589 C 573 1589 676 1565 740 1517 C 804 1469 836 1396 836 1300 C 836 1253 818 1174 784 1063 C 748 951 731 881 731 852 C 731 814 746 789 776 777 C 806 764 879 758 993 758 L 993 496 C 880 496 808 489 777 476 C 746 463 731 437 731 399 C 731 369 748 299 784 188 C 818 76 836 -2 836 -49 C 836 -145 804 -218 740 -266 C 676 -314 573 -338 432 -338 L 172 -338 L 172 -70 Z" unicode="}" />
<glyph horiz-adv-x="1208" d="M 113 900 C 231 1047 346 1121 457 1121 C 493 1121 523 1115 548 1104 C 573 1092 596 1080 616 1066 C 636 1052 656 1039 675 1028 C 694 1016 715 1011 739 1011 C 787 1011 845 1051 911 1131 L 1090 986 C 968 836 853 761 745 761 C 711 761 681 766 657 778 C 632 789 609 802 589 816 C 568 830 548 842 528 854 C 508 865 487 871 463 871 C 411 871 353 832 291 755 L 113 900 Z" unicode="~" />
<glyph horiz-adv-x="440" d="" unicode=" " />
<glyph horiz-adv-x="823" d="M 268 1040 L 555 1040 L 588 0 L 236 0 L 268 1040 Z M 225 1518 L 598 1518 L 598 1157 L 225 1157 L 225 1518 Z" unicode="¡" />
<glyph horiz-adv-x="1208" d="M 78 582 C 78 703 93 803 123 882 C 153 961 200 1024 264 1071 C 328 1118 410 1150 510 1166 L 510 1307 L 815 1307 L 815 1168 C 949 1146 1058 1089 1141 997 L 926 793 C 891 829 854 855 815 872 C 775 888 730 897 680 897 C 581 897 508 872 460 822 C 412 772 389 689 389 573 C 389 458 412 375 460 323 C 508 271 582 246 682 246 C 734 246 781 254 821 271 C 861 287 902 315 944 354 L 1139 168 C 1083 116 1030 77 980 52 C 930 27 876 10 818 0 L 815 -1 L 815 -193 L 510 -193 L 510 -1 L 457 8 C 327 38 231 99 170 191 C 108 282 78 412 78 582 Z" unicode="¢" />
<glyph horiz-adv-x="1376" d="M 51 897 L 232 897 C 210 990 199 1064 199 1118 C 199 1264 243 1372 331 1441 C 419 1509 553 1544 731 1544 C 903 1544 1056 1516 1192 1462 L 1069 1196 C 1028 1214 977 1228 915 1240 C 853 1251 789 1257 723 1257 C 651 1257 598 1243 565 1216 C 532 1189 516 1141 516 1073 C 516 1035 525 977 543 897 L 924 897 L 924 651 L 603 651 C 621 570 631 503 631 451 C 631 399 626 351 617 308 C 644 296 681 284 729 272 C 777 260 824 254 870 254 C 914 254 947 259 971 269 C 994 279 1011 296 1021 319 C 1031 341 1036 380 1036 436 L 1036 496 L 1315 496 L 1315 424 C 1315 264 1282 151 1216 85 C 1150 19 1037 -14 879 -14 C 750 -14 617 21 480 92 C 388 30 247 0 57 0 L 57 260 C 134 260 193 264 233 273 C 273 282 301 297 317 318 C 333 338 342 380 342 442 C 342 470 337 506 327 550 C 317 594 309 627 301 651 L 51 651 L 51 897 Z" unicode="£" />
<glyph horiz-adv-x="1152" d="M 1056 392 L 940 284 L 740 500 C 692 468 636 452 572 452 C 510 452 456 468 408 500 L 208 284 L 92 392 L 300 608 C 281 634 268 660 262 686 C 255 711 252 742 252 780 C 252 848 268 906 300 952 L 92 1168 L 208 1276 L 408 1060 C 456 1092 510 1108 572 1108 C 636 1108 692 1092 740 1060 L 944 1276 L 1060 1156 L 852 952 C 870 925 883 898 890 872 C 896 845 900 814 900 780 C 900 716 882 658 848 608 L 1056 392 Z M 748 780 C 748 833 731 876 698 910 C 664 943 622 960 572 960 C 521 960 480 943 448 910 C 416 876 400 833 400 780 C 400 726 416 684 450 652 C 483 620 524 604 572 604 C 625 604 668 620 700 652 C 732 684 748 726 748 780 Z" unicode="¤" />
<glyph horiz-adv-x="1399" d="M 152 350 L 539 350 L 539 469 L 152 469 L 152 694 L 526 694 L 18 1518 L 360 1518 L 698 940 L 1038 1518 L 1378 1518 L 870 694 L 1243 694 L 1243 469 L 856 469 L 856 350 L 1243 350 L 1243 125 L 856 125 L 856 0 L 539 0 L 539 125 L 152 125 L 152 350 Z" unicode="¥" />
<glyph horiz-adv-x="774" d="M 223 465 L 549 465 L 549 -338 L 223 -338 L 223 465 Z M 223 1589 L 549 1589 L 549 786 L 223 786 L 223 1589 Z" unicode="¦" />
<glyph horiz-adv-x="1241" d="M 449 1114 C 449 1222 463 1304 493 1359 C 523 1414 569 1456 633 1484 C 697 1512 782 1526 889 1526 L 1042 1522 L 1042 1260 L 930 1260 C 888 1260 855 1255 832 1247 C 808 1238 792 1224 782 1205 C 772 1185 768 1156 768 1116 L 768 1085 C 885 1069 972 1033 1029 978 C 1085 923 1114 848 1114 752 C 1114 658 1087 585 1034 531 C 980 477 896 442 780 426 L 780 401 C 780 293 764 210 733 153 C 701 96 653 55 588 29 C 522 3 440 -10 340 -10 L 186 -6 L 186 244 L 299 244 C 339 244 371 248 395 257 C 418 265 434 278 444 296 C 454 314 459 344 459 387 L 459 426 C 345 441 261 476 207 530 C 153 584 127 658 127 752 C 127 938 234 1048 449 1082 L 449 1114 Z M 618 618 C 702 618 762 627 800 647 C 837 666 856 698 856 743 C 856 787 838 818 802 838 C 766 858 705 868 618 868 C 533 868 473 858 438 839 C 402 819 385 787 385 743 C 385 698 403 666 440 647 C 476 627 536 618 618 618 Z" unicode="§" />
<glyph horiz-adv-x="1208" d="M 227 1559 L 518 1559 L 518 1280 L 227 1280 L 227 1559 Z M 692 1559 L 981 1559 L 981 1280 L 692 1280 L 692 1559 Z" unicode="¨" />
<glyph horiz-adv-x="1657" d="M 844 272 C 513 272 348 438 348 770 C 348 931 391 1054 478 1140 C 565 1225 691 1268 856 1268 C 940 1268 1013 1256 1074 1233 C 1134 1209 1187 1174 1233 1128 L 1087 983 C 1027 1043 949 1073 854 1073 C 658 1073 561 971 561 768 C 561 563 659 461 856 461 C 901 461 943 467 981 481 C 1019 494 1058 519 1100 557 L 1239 422 C 1188 369 1131 331 1068 307 C 1005 283 930 272 844 272 Z M 827 -25 C 670 -25 534 7 420 72 C 305 136 218 228 158 346 C 98 464 68 602 68 760 C 68 917 98 1055 158 1173 C 218 1291 305 1382 419 1447 C 533 1511 669 1544 827 1544 C 983 1544 1118 1511 1234 1447 C 1350 1382 1438 1290 1498 1172 C 1558 1053 1589 916 1589 760 C 1589 603 1558 465 1498 347 C 1438 228 1350 136 1235 72 C 1119 7 983 -25 827 -25 Z M 827 92 C 963 92 1079 118 1175 171 C 1271 224 1343 301 1391 401 C 1439 501 1464 620 1464 760 C 1464 972 1408 1137 1298 1253 C 1188 1369 1031 1427 827 1427 C 623 1427 465 1369 355 1254 C 245 1138 190 974 190 760 C 190 545 245 380 355 265 C 465 149 623 92 827 92 Z" unicode="©" />
<glyph horiz-adv-x="1264" d="M 453 565 C 341 565 257 588 202 635 C 146 681 119 755 119 856 C 119 939 138 1005 178 1053 C 217 1101 279 1136 364 1158 C 449 1179 569 1190 723 1190 L 757 1190 C 755 1228 749 1254 737 1268 C 725 1282 707 1293 683 1300 C 658 1307 622 1311 575 1311 C 529 1311 481 1304 432 1290 C 383 1276 341 1257 305 1235 L 174 1427 C 221 1459 285 1486 365 1508 C 445 1529 524 1540 604 1540 C 710 1540 792 1529 850 1507 C 907 1485 948 1449 973 1399 C 997 1349 1010 1271 1010 1167 L 1010 887 C 1010 848 1014 824 1023 814 C 1032 804 1056 799 1094 799 L 1094 582 C 1056 577 1020 575 985 575 C 921 575 875 583 846 601 C 817 619 798 646 788 684 C 760 638 721 606 671 590 C 621 573 548 565 453 565 Z M 209 465 L 1010 465 L 1010 238 L 209 238 L 209 465 Z M 369 879 C 369 843 380 817 402 801 C 424 784 464 776 522 776 C 601 776 660 791 699 822 C 738 852 758 902 758 971 L 758 1010 L 739 1010 C 648 1010 575 1006 520 1000 C 464 994 425 982 403 966 C 380 949 369 920 369 879 Z" unicode="ª" />
<glyph horiz-adv-x="1571" d="M 205 578 L 514 1159 L 795 1159 L 510 578 L 795 0 L 514 0 L 205 578 Z M 717 578 L 1026 1159 L 1309 1159 L 1024 578 L 1309 0 L 1026 0 L 717 578 Z" unicode="«" />
<glyph horiz-adv-x="1536" d="M 1116 352 L 1116 728 L 212 728 L 212 920 L 1296 920 L 1296 352 L 1116 352 Z" unicode="¬" />
<glyph horiz-adv-x="870" d="M 78 815 L 788 815 L 788 528 L 78 528 L 78 815 Z" unicode="­" />
<glyph horiz-adv-x="1657" d="M 827 -25 C 670 -25 534 7 420 72 C 305 136 218 228 158 346 C 98 464 68 602 68 760 C 68 917 98 1055 158 1173 C 218 1291 305 1382 419 1447 C 533 1511 669 1544 827 1544 C 983 1544 1118 1511 1234 1447 C 1350 1382 1438 1290 1498 1172 C 1558 1053 1589 916 1589 760 C 1589 603 1558 465 1498 347 C 1438 228 1350 136 1235 72 C 1119 7 983 -25 827 -25 Z M 827 92 C 963 92 1079 118 1175 171 C 1271 224 1343 301 1391 401 C 1439 501 1464 620 1464 760 C 1464 972 1408 1137 1298 1253 C 1188 1369 1031 1427 827 1427 C 623 1427 465 1369 355 1254 C 245 1138 190 974 190 760 C 190 545 245 380 355 265 C 465 149 623 92 827 92 Z M 451 1223 L 895 1223 C 981 1223 1051 1213 1103 1193 C 1155 1173 1193 1142 1217 1101 C 1241 1060 1253 1000 1253 922 C 1253 874 1248 832 1238 795 C 1228 758 1209 726 1182 699 C 1155 672 1114 649 1059 631 L 1247 291 L 1036 291 L 860 612 L 645 612 L 645 291 L 451 291 L 451 1223 Z M 889 780 C 953 780 997 790 1019 810 C 1041 830 1053 865 1053 915 C 1053 967 1041 1002 1018 1022 C 995 1041 951 1051 887 1051 L 645 1051 L 645 780 L 889 780 Z" unicode="®" />
<glyph horiz-adv-x="1208" d="M 174 1505 L 1034 1505 L 1034 1249 L 174 1249 L 174 1505 Z" unicode="¯" />
<glyph horiz-adv-x="1165" d="M 582 547 C 478 547 390 567 316 607 C 242 647 186 705 148 779 C 109 853 90 942 90 1044 C 90 1144 109 1232 147 1307 C 185 1382 241 1440 315 1481 C 389 1521 478 1542 582 1542 C 735 1542 855 1498 943 1410 C 1031 1322 1075 1200 1075 1044 C 1075 888 1031 767 944 679 C 856 591 736 547 582 547 Z M 582 780 C 658 780 717 801 758 844 C 798 886 819 950 819 1036 C 819 1120 798 1184 758 1227 C 718 1270 659 1292 582 1292 C 424 1292 346 1206 346 1036 C 346 865 424 780 582 780 Z" unicode="°" />
<glyph horiz-adv-x="1479" d="M 190 299 L 580 299 L 580 578 L 190 578 L 190 866 L 580 866 L 580 1253 L 899 1253 L 899 866 L 1288 866 L 1288 578 L 899 578 L 899 299 L 1288 299 L 1288 12 L 190 12 L 190 299 Z" unicode="±" />
<glyph horiz-adv-x="1051" d="M 127 692 L 444 965 C 520 1031 568 1074 588 1095 C 608 1116 622 1135 630 1153 C 638 1171 643 1193 643 1221 C 643 1259 630 1285 604 1301 C 578 1317 536 1325 477 1325 C 433 1325 388 1319 341 1307 C 293 1295 253 1281 221 1264 L 111 1450 C 169 1480 229 1502 290 1515 C 350 1527 424 1534 510 1534 C 639 1534 734 1510 795 1464 C 856 1418 887 1346 887 1249 C 887 1204 880 1163 866 1127 C 852 1091 829 1054 799 1018 C 769 981 715 930 639 864 L 477 719 L 895 719 L 895 520 L 127 520 L 127 692 Z" unicode="²" />
<glyph horiz-adv-x="1075" d="M 522 508 C 430 508 351 516 285 533 C 218 550 152 579 88 621 L 211 797 C 261 767 308 745 352 733 C 395 721 444 715 498 715 C 572 715 622 724 647 742 C 671 760 684 794 684 842 C 684 887 670 917 643 933 C 615 948 562 956 483 956 L 307 956 L 307 1151 L 479 1151 C 554 1151 602 1156 623 1168 C 644 1180 655 1203 655 1237 C 655 1271 643 1293 621 1305 C 599 1317 556 1323 492 1323 C 386 1323 295 1300 219 1255 L 104 1440 C 154 1470 215 1494 289 1511 C 363 1527 442 1536 528 1536 C 657 1536 752 1516 813 1478 C 874 1440 905 1378 905 1294 C 905 1233 894 1185 874 1150 C 853 1115 821 1089 778 1073 C 829 1057 867 1030 893 990 C 919 950 932 891 932 813 C 932 705 898 628 830 580 C 762 532 659 508 522 508 Z" unicode="³" />
<glyph horiz-adv-x="1208" d="M 682 1645 L 1069 1645 L 678 1270 L 393 1270 L 682 1645 Z" unicode="´" />
<glyph horiz-adv-x="1352" d="M 127 1159 L 449 1159 L 449 535 C 449 494 450 457 453 423 C 455 389 464 360 479 336 C 494 312 517 293 549 280 C 580 266 624 260 682 260 C 742 260 789 268 822 284 C 855 300 878 323 892 355 C 906 386 913 447 913 537 L 913 1159 L 1231 1159 L 1231 543 C 1231 393 1214 280 1180 203 C 1146 125 1092 69 1017 34 C 942 0 838 -18 705 -18 C 634 -18 579 -13 540 -4 C 501 5 471 20 449 41 L 449 -338 L 127 -338 L 127 1159 Z" unicode="µ" />
<glyph horiz-adv-x="1391" d="M 930 489 L 762 489 L 762 0 L 461 0 L 461 510 C 333 536 240 586 180 662 C 120 738 90 854 90 1010 C 90 1138 110 1238 151 1308 C 191 1378 255 1430 343 1465 C 431 1500 548 1518 696 1518 L 1231 1518 L 1231 0 L 930 0 L 930 489 Z M 930 745 L 930 1239 L 690 1239 C 584 1239 512 1221 473 1186 C 433 1150 414 1086 414 993 C 414 901 434 836 474 800 C 514 763 585 745 686 745 L 930 745 Z" unicode="¶" />
<glyph horiz-adv-x="600" d="M 113 938 L 485 938 L 485 561 L 113 561 L 113 938 Z" unicode="·" />
<glyph horiz-adv-x="1208" d="M 604 -510 C 502 -510 410 -487 330 -442 L 410 -293 C 475 -325 536 -342 592 -342 C 640 -342 674 -335 693 -322 C 711 -308 721 -287 721 -258 C 721 -232 711 -214 692 -202 C 672 -190 641 -184 597 -184 L 541 -186 L 479 -147 L 514 14 L 694 14 L 676 -86 L 697 -86 C 763 -86 811 -92 840 -105 C 868 -118 891 -138 907 -166 C 923 -194 932 -232 932 -281 C 932 -358 905 -415 852 -453 C 799 -491 716 -510 604 -510 Z" unicode="¸" />
<glyph horiz-adv-x="768" d="M 295 1303 L 123 1303 L 123 1518 L 547 1518 L 547 520 L 295 520 L 295 1303 Z" unicode="¹" />
<glyph horiz-adv-x="1251" d="M 627 565 C 459 565 335 605 255 686 C 175 767 135 890 135 1055 C 135 1220 175 1342 256 1422 C 337 1502 461 1542 627 1542 C 790 1542 912 1502 994 1423 C 1075 1343 1116 1221 1116 1055 C 1116 889 1075 766 995 686 C 914 605 791 565 627 565 Z M 627 791 C 702 791 758 811 796 852 C 833 893 852 958 852 1047 C 852 1135 833 1200 796 1241 C 758 1282 702 1303 627 1303 C 552 1303 496 1282 458 1242 C 420 1201 401 1136 401 1047 C 401 957 420 892 458 852 C 496 811 552 791 627 791 Z M 195 463 L 1057 463 L 1057 233 L 195 233 L 195 463 Z" unicode="º" />
<glyph horiz-adv-x="1571" d="M 549 580 L 264 1159 L 545 1159 L 854 580 L 545 0 L 264 0 L 549 580 Z M 1059 580 L 774 1159 L 1057 1159 L 1366 580 L 1057 0 L 774 0 L 1059 580 Z" unicode="»" />
<glyph horiz-adv-x="2136" d="M 1686 184 L 1184 184 L 1184 362 L 1628 995 L 1901 995 L 1468 381 L 1690 381 L 1737 590 L 1923 590 L 1923 381 L 2075 381 L 2075 184 L 1923 184 L 1923 0 L 1686 0 L 1686 184 Z M 250 1303 L 78 1303 L 78 1518 L 510 1518 L 510 522 L 250 522 L 250 1303 Z M 1282 1518 L 1563 1518 L 715 0 L 432 0 L 1282 1518 Z" unicode="¼" />
<glyph horiz-adv-x="2241" d="M 1352 174 L 1667 444 C 1755 519 1807 566 1824 585 C 1840 604 1852 622 1858 638 C 1864 654 1868 672 1868 694 C 1868 732 1855 759 1829 775 C 1803 791 1760 799 1702 799 C 1659 799 1614 793 1568 782 C 1522 771 1481 756 1446 737 L 1333 924 C 1393 954 1453 976 1513 989 C 1573 1001 1647 1008 1735 1008 C 1864 1008 1959 984 2019 938 C 2079 892 2109 820 2109 723 C 2109 677 2102 637 2088 601 C 2074 565 2052 530 2022 494 C 1992 458 1938 408 1862 344 L 1700 199 L 2116 199 L 2116 0 L 1352 0 L 1352 174 Z M 250 1303 L 78 1303 L 78 1518 L 510 1518 L 510 522 L 250 522 L 250 1303 Z M 1282 1518 L 1563 1518 L 715 0 L 432 0 L 1282 1518 Z" unicode="½" />
<glyph horiz-adv-x="2410" d="M 510 514 C 417 514 337 522 269 540 C 201 557 136 585 74 625 L 199 803 C 244 776 289 756 333 742 C 377 728 427 721 483 721 C 557 721 607 729 632 747 C 657 765 670 798 670 846 C 670 892 655 923 627 939 C 599 955 547 963 471 963 L 295 963 L 295 1157 L 467 1157 C 539 1157 587 1162 609 1174 C 631 1186 643 1209 643 1245 C 643 1276 632 1298 612 1310 C 592 1322 547 1329 479 1329 C 375 1329 284 1306 205 1262 L 92 1446 C 141 1476 202 1500 276 1517 C 349 1533 429 1542 516 1542 C 646 1542 741 1522 801 1483 C 861 1444 891 1383 891 1300 C 891 1188 845 1114 754 1079 C 864 1046 920 959 920 819 C 920 711 885 634 817 586 C 749 538 646 514 510 514 Z M 1960 184 L 1458 184 L 1458 362 L 1903 995 L 2177 995 L 1743 381 L 1966 381 L 2013 590 L 2200 590 L 2200 381 L 2349 381 L 2349 184 L 2200 184 L 2200 0 L 1960 0 L 1960 184 Z M 1559 1518 L 1839 1518 L 991 0 L 711 0 L 1559 1518 Z" unicode="¾" />
<glyph horiz-adv-x="1438" d="M 696 -25 C 496 -25 351 6 262 70 C 173 134 129 237 129 379 C 129 476 149 554 189 613 C 229 671 303 724 412 772 C 495 808 548 839 572 866 C 595 893 607 933 607 985 L 602 1077 L 915 1077 C 922 1025 926 979 926 939 C 926 861 908 798 873 752 C 838 705 769 659 666 614 C 601 585 555 562 529 544 C 503 526 484 507 474 487 C 464 467 459 441 459 408 C 459 368 467 338 484 318 C 500 298 527 284 565 274 C 602 264 654 260 721 260 C 877 262 1022 296 1155 362 L 1290 96 C 1211 58 1119 28 1014 7 C 908 -14 802 -25 696 -25 Z M 573 1518 L 948 1518 L 948 1196 L 573 1196 L 573 1518 Z" unicode="¿" />
<glyph horiz-adv-x="1616" d="M 637 1528 L 977 1528 L 1589 0 L 1241 0 L 1143 250 L 455 250 L 356 0 L 29 0 L 637 1528 Z M 1036 526 L 799 1130 L 561 526 L 1036 526 Z M 340 1975 L 727 1975 L 1016 1600 L 731 1600 L 340 1975 Z" unicode="À" />
<glyph horiz-adv-x="1616" d="M 637 1528 L 977 1528 L 1589 0 L 1241 0 L 1143 250 L 455 250 L 356 0 L 29 0 L 637 1528 Z M 1036 526 L 799 1130 L 561 526 L 1036 526 Z M 883 1975 L 1270 1975 L 879 1600 L 594 1600 L 883 1975 Z" unicode="Á" />
<glyph horiz-adv-x="1616" d="M 637 1528 L 977 1528 L 1589 0 L 1241 0 L 1143 250 L 455 250 L 356 0 L 29 0 L 637 1528 Z M 1036 526 L 799 1130 L 561 526 L 1036 526 Z M 639 1975 L 971 1975 L 1288 1600 L 987 1600 L 801 1776 L 617 1600 L 322 1600 L 639 1975 Z" unicode="Â" />
<glyph horiz-adv-x="1616" d="M 637 1528 L 977 1528 L 1589 0 L 1241 0 L 1143 250 L 455 250 L 356 0 L 29 0 L 637 1528 Z M 1036 526 L 799 1130 L 561 526 L 1036 526 Z M 314 1737 C 432 1884 547 1958 658 1958 C 694 1958 724 1952 749 1941 C 774 1929 797 1917 817 1903 C 837 1889 857 1876 876 1865 C 895 1853 916 1848 940 1848 C 988 1848 1046 1888 1112 1968 L 1291 1823 C 1169 1673 1054 1598 946 1598 C 912 1598 882 1603 858 1615 C 833 1626 810 1639 790 1653 C 769 1667 749 1679 729 1691 C 709 1702 688 1708 664 1708 C 612 1708 554 1669 492 1592 L 314 1737 Z" unicode="Ã" />
<glyph horiz-adv-x="1616" d="M 637 1528 L 977 1528 L 1589 0 L 1241 0 L 1143 250 L 455 250 L 356 0 L 29 0 L 637 1528 Z M 1036 526 L 799 1130 L 561 526 L 1036 526 Z M 428 1889 L 719 1889 L 719 1610 L 428 1610 L 428 1889 Z M 893 1889 L 1182 1889 L 1182 1610 L 893 1610 L 893 1889 Z" unicode="Ä" />
<glyph horiz-adv-x="1616" d="M 596 1425 C 541 1477 514 1552 514 1651 C 514 1746 539 1820 590 1873 C 640 1925 713 1952 807 1952 C 897 1952 968 1925 1020 1872 C 1072 1818 1098 1745 1098 1651 C 1098 1556 1070 1481 1016 1427 L 1589 0 L 1241 0 L 1143 250 L 455 250 L 356 0 L 29 0 L 596 1425 Z M 1036 526 L 799 1130 L 561 526 L 1036 526 Z M 807 1511 C 849 1511 881 1523 904 1547 C 926 1571 938 1605 938 1651 C 938 1698 926 1733 903 1757 C 880 1780 848 1792 807 1792 C 718 1792 674 1745 674 1651 C 674 1605 685 1571 707 1547 C 729 1523 763 1511 807 1511 Z" unicode="Å" />
<glyph horiz-adv-x="2351" d="M 958 1518 L 2236 1518 L 2236 1214 L 1432 1214 L 1432 920 L 2216 920 L 2216 627 L 1432 627 L 1432 291 L 2245 291 L 2245 0 L 1110 0 L 1110 260 L 506 260 L 332 0 L 6 0 L 958 1518 Z M 1110 532 L 1110 1225 L 666 532 L 1110 532 Z" unicode="Æ" />
<glyph horiz-adv-x="1554" d="M 850 -23 C 582 -23 385 40 259 167 C 133 293 70 491 70 760 C 70 1018 136 1212 270 1344 C 403 1476 603 1542 870 1542 C 999 1542 1111 1524 1207 1490 C 1302 1456 1388 1400 1466 1323 L 1235 1092 C 1183 1142 1127 1179 1069 1201 C 1010 1223 943 1235 868 1235 C 712 1235 596 1195 521 1117 C 445 1039 408 918 408 756 C 408 587 445 465 519 389 C 593 313 710 276 870 276 C 949 276 1018 287 1076 309 C 1134 331 1193 372 1255 430 L 1477 213 C 1395 128 1304 67 1204 31 C 1103 -4 985 -23 850 -23 Z M 774 -510 C 672 -510 580 -487 500 -442 L 580 -293 C 645 -325 706 -342 762 -342 C 810 -342 844 -335 863 -322 C 881 -308 891 -287 891 -258 C 891 -232 881 -214 862 -202 C 842 -190 811 -184 767 -184 L 711 -186 L 649 -147 L 684 14 L 864 14 L 846 -86 L 867 -86 C 933 -86 981 -92 1010 -105 C 1038 -118 1061 -138 1077 -166 C 1093 -194 1102 -232 1102 -281 C 1102 -358 1075 -415 1022 -453 C 969 -491 886 -510 774 -510 Z" unicode="Ç" />
<glyph horiz-adv-x="1407" d="M 152 1518 L 1292 1518 L 1292 1214 L 487 1214 L 487 920 L 1272 920 L 1272 627 L 487 627 L 487 291 L 1300 291 L 1300 0 L 152 0 L 152 1518 Z M 237 1975 L 624 1975 L 913 1600 L 628 1600 L 237 1975 Z" unicode="È" />
<glyph horiz-adv-x="1407" d="M 780 1975 L 1167 1975 L 776 1600 L 491 1600 L 780 1975 Z M 152 1518 L 1292 1518 L 1292 1214 L 487 1214 L 487 920 L 1272 920 L 1272 627 L 487 627 L 487 291 L 1300 291 L 1300 0 L 152 0 L 152 1518 Z" unicode="É" />
<glyph horiz-adv-x="1407" d="M 536 1975 L 868 1975 L 1185 1600 L 884 1600 L 698 1776 L 514 1600 L 219 1600 L 536 1975 Z M 152 1518 L 1292 1518 L 1292 1214 L 487 1214 L 487 920 L 1272 920 L 1272 627 L 487 627 L 487 291 L 1300 291 L 1300 0 L 152 0 L 152 1518 Z" unicode="Ê" />
<glyph horiz-adv-x="1407" d="M 325 1889 L 616 1889 L 616 1610 L 325 1610 L 325 1889 Z M 790 1889 L 1079 1889 L 1079 1610 L 790 1610 L 790 1889 Z M 152 1518 L 1292 1518 L 1292 1214 L 487 1214 L 487 920 L 1272 920 L 1272 627 L 487 627 L 487 291 L 1300 291 L 1300 0 L 152 0 L 152 1518 Z" unicode="Ë" />
<glyph horiz-adv-x="682" d="M -172 1976 L 229 1976 L 508 1599 L 209 1599 L -172 1976 Z M 174 1518 L 508 1518 L 508 0 L 174 0 L 174 1518 Z" unicode="Ì" />
<glyph horiz-adv-x="682" d="M 451 1976 L 852 1976 L 473 1599 L 174 1599 L 451 1976 Z M 174 1518 L 508 1518 L 508 0 L 174 0 L 174 1518 Z" unicode="Í" />
<glyph horiz-adv-x="682" d="M 174 1976 L 506 1976 L 793 1599 L 492 1599 L 336 1776 L 182 1599 L -113 1599 L 174 1976 Z M 174 1518 L 508 1518 L 508 0 L 174 0 L 174 1518 Z" unicode="Î" />
<glyph horiz-adv-x="682" d="M 174 1518 L 508 1518 L 508 0 L 174 0 L 174 1518 Z M -34 1889 L 257 1889 L 257 1610 L -34 1610 L -34 1889 Z M 431 1889 L 720 1889 L 720 1610 L 431 1610 L 431 1889 Z" unicode="Ï" />
<glyph horiz-adv-x="1610" d="M 0 899 L 152 899 L 152 1518 L 696 1518 C 919 1518 1089 1493 1207 1445 C 1324 1397 1409 1318 1462 1210 C 1515 1102 1542 952 1542 760 C 1542 574 1513 426 1457 316 C 1401 206 1313 126 1194 76 C 1074 25 906 0 688 0 L 152 0 L 152 635 L 0 635 L 0 899 Z M 707 293 C 838 293 939 306 1009 334 C 1079 361 1129 405 1159 467 C 1189 529 1204 626 1204 760 C 1204 867 1196 947 1180 1001 C 1164 1055 1138 1097 1102 1128 C 1066 1158 1017 1181 954 1195 C 891 1209 806 1217 700 1217 L 487 1217 L 487 899 L 770 899 L 770 635 L 487 635 L 487 293 L 707 293 Z" unicode="Ð" />
<glyph horiz-adv-x="1686" d="M 152 1518 L 514 1518 L 1212 561 L 1212 1518 L 1532 1518 L 1532 0 L 1225 0 L 473 1024 L 473 0 L 152 0 L 152 1518 Z M 349 1737 C 467 1884 582 1958 693 1958 C 729 1958 759 1952 784 1941 C 809 1929 832 1917 852 1903 C 872 1889 892 1876 911 1865 C 930 1853 951 1848 975 1848 C 1023 1848 1081 1888 1147 1968 L 1326 1823 C 1204 1673 1089 1598 981 1598 C 947 1598 917 1603 893 1615 C 868 1626 845 1639 825 1653 C 804 1667 784 1679 764 1691 C 744 1702 723 1708 699 1708 C 647 1708 589 1669 527 1592 L 349 1737 Z" unicode="Ñ" />
<glyph horiz-adv-x="1747" d="M 872 -25 C 337 -25 70 236 70 760 C 70 1281 337 1542 872 1542 C 1408 1542 1677 1281 1677 760 C 1677 236 1408 -25 872 -25 Z M 872 270 C 1029 270 1146 309 1222 387 C 1298 465 1337 587 1337 754 C 1337 921 1298 1043 1222 1120 C 1146 1196 1029 1235 872 1235 C 715 1235 598 1196 522 1120 C 446 1043 408 921 408 754 C 408 587 446 465 522 387 C 598 309 714 270 872 270 Z M 407 1975 L 794 1975 L 1083 1600 L 798 1600 L 407 1975 Z" unicode="Ò" />
<glyph horiz-adv-x="1747" d="M 950 1975 L 1337 1975 L 946 1600 L 661 1600 L 950 1975 Z M 872 -25 C 337 -25 70 236 70 760 C 70 1281 337 1542 872 1542 C 1408 1542 1677 1281 1677 760 C 1677 236 1408 -25 872 -25 Z M 872 270 C 1029 270 1146 309 1222 387 C 1298 465 1337 587 1337 754 C 1337 921 1298 1043 1222 1120 C 1146 1196 1029 1235 872 1235 C 715 1235 598 1196 522 1120 C 446 1043 408 921 408 754 C 408 587 446 465 522 387 C 598 309 714 270 872 270 Z" unicode="Ó" />
<glyph horiz-adv-x="1747" d="M 706 1975 L 1038 1975 L 1355 1600 L 1054 1600 L 868 1776 L 684 1600 L 389 1600 L 706 1975 Z M 872 -25 C 337 -25 70 236 70 760 C 70 1281 337 1542 872 1542 C 1408 1542 1677 1281 1677 760 C 1677 236 1408 -25 872 -25 Z M 872 270 C 1029 270 1146 309 1222 387 C 1298 465 1337 587 1337 754 C 1337 921 1298 1043 1222 1120 C 1146 1196 1029 1235 872 1235 C 715 1235 598 1196 522 1120 C 446 1043 408 921 408 754 C 408 587 446 465 522 387 C 598 309 714 270 872 270 Z" unicode="Ô" />
<glyph horiz-adv-x="1747" d="M 872 -25 C 337 -25 70 236 70 760 C 70 1281 337 1542 872 1542 C 1408 1542 1677 1281 1677 760 C 1677 236 1408 -25 872 -25 Z M 872 270 C 1029 270 1146 309 1222 387 C 1298 465 1337 587 1337 754 C 1337 921 1298 1043 1222 1120 C 1146 1196 1029 1235 872 1235 C 715 1235 598 1196 522 1120 C 446 1043 408 921 408 754 C 408 587 446 465 522 387 C 598 309 714 270 872 270 Z M 381 1737 C 499 1884 614 1958 725 1958 C 761 1958 791 1952 816 1941 C 841 1929 864 1917 884 1903 C 904 1889 924 1876 943 1865 C 962 1853 983 1848 1007 1848 C 1055 1848 1113 1888 1179 1968 L 1358 1823 C 1236 1673 1121 1598 1013 1598 C 979 1598 949 1603 925 1615 C 900 1626 877 1639 857 1653 C 836 1667 816 1679 796 1691 C 776 1702 755 1708 731 1708 C 679 1708 621 1669 559 1592 L 381 1737 Z" unicode="Õ" />
<glyph horiz-adv-x="1747" d="M 495 1889 L 786 1889 L 786 1610 L 495 1610 L 495 1889 Z M 960 1889 L 1249 1889 L 1249 1610 L 960 1610 L 960 1889 Z M 872 -25 C 337 -25 70 236 70 760 C 70 1281 337 1542 872 1542 C 1408 1542 1677 1281 1677 760 C 1677 236 1408 -25 872 -25 Z M 872 270 C 1029 270 1146 309 1222 387 C 1298 465 1337 587 1337 754 C 1337 921 1298 1043 1222 1120 C 1146 1196 1029 1235 872 1235 C 715 1235 598 1196 522 1120 C 446 1043 408 921 408 754 C 408 587 446 465 522 387 C 598 309 714 270 872 270 Z" unicode="Ö" />
<glyph horiz-adv-x="1479" d="M 238 416 L 543 721 L 238 1026 L 436 1229 L 741 924 L 1044 1229 L 1241 1026 L 936 721 L 1241 418 L 1044 215 L 741 520 L 432 213 L 238 416 Z" unicode="×" />
<glyph horiz-adv-x="1747" d="M 872 -25 C 766 -25 670 -14 582 6 L 528 -84 L 215 -84 L 333 115 C 157 246 70 461 70 760 C 70 1020 136 1216 268 1346 C 400 1476 602 1542 872 1542 C 974 1542 1069 1532 1155 1512 L 1210 1604 L 1522 1604 L 1404 1407 C 1586 1277 1677 1061 1677 760 C 1677 499 1610 303 1478 172 C 1345 40 1143 -25 872 -25 Z M 872 258 C 1034 258 1155 297 1233 376 C 1311 455 1350 581 1350 754 C 1350 838 1340 911 1322 973 C 1304 1035 1272 1089 1228 1134 L 724 270 C 768 262 817 258 872 258 Z M 872 1247 C 708 1247 588 1207 511 1129 C 433 1050 395 925 395 754 C 395 580 432 455 507 381 L 1007 1237 C 966 1243 921 1247 872 1247 Z" unicode="Ø" />
<glyph horiz-adv-x="1671" d="M 836 -29 C 714 -29 609 -17 521 6 C 433 29 362 63 306 108 C 250 152 209 211 182 284 C 154 356 141 455 141 580 L 141 1518 L 477 1518 L 477 623 C 477 527 488 455 512 407 C 535 359 573 324 625 302 C 677 279 748 268 840 268 C 931 268 1003 279 1055 301 C 1107 323 1145 358 1169 406 C 1192 454 1204 526 1204 623 L 1204 1518 L 1530 1518 L 1530 580 C 1530 454 1516 355 1488 283 C 1460 211 1419 152 1364 108 C 1308 63 1237 29 1150 6 C 1062 -17 958 -29 836 -29 Z M 368 1975 L 755 1975 L 1044 1600 L 759 1600 L 368 1975 Z" unicode="Ù" />
<glyph horiz-adv-x="1671" d="M 911 1975 L 1298 1975 L 907 1600 L 622 1600 L 911 1975 Z M 836 -29 C 714 -29 609 -17 521 6 C 433 29 362 63 306 108 C 250 152 209 211 182 284 C 154 356 141 455 141 580 L 141 1518 L 477 1518 L 477 623 C 477 527 488 455 512 407 C 535 359 573 324 625 302 C 677 279 748 268 840 268 C 931 268 1003 279 1055 301 C 1107 323 1145 358 1169 406 C 1192 454 1204 526 1204 623 L 1204 1518 L 1530 1518 L 1530 580 C 1530 454 1516 355 1488 283 C 1460 211 1419 152 1364 108 C 1308 63 1237 29 1150 6 C 1062 -17 958 -29 836 -29 Z" unicode="Ú" />
<glyph horiz-adv-x="1671" d="M 667 1975 L 999 1975 L 1316 1600 L 1015 1600 L 829 1776 L 645 1600 L 350 1600 L 667 1975 Z M 836 -29 C 714 -29 609 -17 521 6 C 433 29 362 63 306 108 C 250 152 209 211 182 284 C 154 356 141 455 141 580 L 141 1518 L 477 1518 L 477 623 C 477 527 488 455 512 407 C 535 359 573 324 625 302 C 677 279 748 268 840 268 C 931 268 1003 279 1055 301 C 1107 323 1145 358 1169 406 C 1192 454 1204 526 1204 623 L 1204 1518 L 1530 1518 L 1530 580 C 1530 454 1516 355 1488 283 C 1460 211 1419 152 1364 108 C 1308 63 1237 29 1150 6 C 1062 -17 958 -29 836 -29 Z" unicode="Û" />
<glyph horiz-adv-x="1671" d="M 456 1889 L 747 1889 L 747 1610 L 456 1610 L 456 1889 Z M 921 1889 L 1210 1889 L 1210 1610 L 921 1610 L 921 1889 Z M 836 -29 C 714 -29 609 -17 521 6 C 433 29 362 63 306 108 C 250 152 209 211 182 284 C 154 356 141 455 141 580 L 141 1518 L 477 1518 L 477 623 C 477 527 488 455 512 407 C 535 359 573 324 625 302 C 677 279 748 268 840 268 C 931 268 1003 279 1055 301 C 1107 323 1145 358 1169 406 C 1192 454 1204 526 1204 623 L 1204 1518 L 1530 1518 L 1530 580 C 1530 454 1516 355 1488 283 C 1460 211 1419 152 1364 108 C 1308 63 1237 29 1150 6 C 1062 -17 958 -29 836 -29 Z" unicode="Ü" />
<glyph horiz-adv-x="1556" d="M 6 1518 L 367 1518 L 784 834 L 1202 1518 L 1548 1518 L 944 532 L 944 0 L 610 0 L 610 532 L 6 1518 Z M 854 1975 L 1241 1975 L 850 1600 L 565 1600 L 854 1975 Z" unicode="Ý" />
<glyph horiz-adv-x="1556" d="M 152 1518 L 479 1518 L 479 1315 L 881 1315 C 1023 1315 1138 1298 1227 1264 C 1316 1230 1382 1177 1424 1105 C 1466 1033 1487 932 1487 803 C 1487 665 1464 558 1420 482 C 1375 405 1307 349 1215 313 C 1123 277 1006 260 864 260 L 479 260 L 479 0 L 152 0 L 152 1518 Z M 879 549 C 979 549 1050 566 1090 602 C 1130 638 1151 701 1151 791 C 1151 881 1131 943 1092 977 C 1053 1011 980 1028 874 1028 L 479 1028 L 479 549 L 879 549 Z" unicode="Þ" />
<glyph horiz-adv-x="1423" d="M 127 1063 C 127 1250 174 1387 269 1475 C 364 1562 510 1606 707 1606 C 880 1606 1012 1571 1102 1502 C 1192 1433 1237 1330 1237 1192 C 1237 1089 1224 1010 1198 955 C 1172 900 1127 859 1061 831 C 1136 815 1194 793 1235 764 C 1275 734 1306 694 1327 643 C 1347 592 1358 527 1358 449 C 1358 324 1338 231 1298 171 C 1258 111 1192 67 1100 40 C 1008 13 881 0 717 0 L 594 0 L 594 272 L 707 272 C 790 272 856 278 904 291 C 952 304 987 324 1008 350 C 1029 376 1040 417 1040 471 C 1040 525 1028 564 1004 589 C 980 613 941 631 885 641 C 829 651 748 657 641 657 L 641 909 C 745 909 818 923 859 951 C 899 979 920 1030 920 1106 C 920 1172 902 1220 866 1250 C 830 1279 775 1294 700 1294 C 608 1294 542 1273 503 1233 C 463 1193 444 1132 444 1051 L 444 0 L 127 0 L 127 1063 Z" unicode="ß" />
<glyph horiz-adv-x="1321" d="M 487 -18 C 339 -18 229 9 158 65 C 86 120 51 212 51 340 C 51 442 74 522 121 580 C 168 638 242 680 343 706 C 444 732 595 745 795 745 L 842 745 L 836 803 C 830 837 811 863 777 879 C 743 895 688 903 612 903 C 554 903 496 894 436 878 C 376 861 323 838 276 809 L 117 1044 C 179 1086 259 1120 358 1146 C 456 1172 553 1186 647 1186 C 778 1186 879 1172 951 1144 C 1023 1116 1074 1071 1105 1009 C 1135 947 1151 853 1151 725 L 1151 373 C 1151 335 1153 310 1158 298 C 1162 286 1171 278 1183 273 C 1195 268 1217 266 1251 266 L 1251 4 C 1233 -1 1188 -4 1116 -4 C 1051 -4 1003 4 973 20 C 943 36 917 67 895 111 C 830 25 694 -18 487 -18 Z M 356 367 C 356 321 370 289 400 269 C 430 249 480 240 551 240 C 654 240 728 259 774 297 C 819 335 842 397 842 481 L 842 524 L 815 524 C 713 524 634 521 576 517 C 518 513 474 506 443 496 C 411 486 389 472 376 454 C 362 436 356 407 356 367 Z M 196 1645 L 583 1645 L 872 1270 L 587 1270 L 196 1645 Z" unicode="à" />
<glyph horiz-adv-x="1321" d="M 487 -18 C 339 -18 229 9 158 65 C 86 120 51 212 51 340 C 51 442 74 522 121 580 C 168 638 242 680 343 706 C 444 732 595 745 795 745 L 842 745 L 836 803 C 830 837 811 863 777 879 C 743 895 688 903 612 903 C 554 903 496 894 436 878 C 376 861 323 838 276 809 L 117 1044 C 179 1086 259 1120 358 1146 C 456 1172 553 1186 647 1186 C 778 1186 879 1172 951 1144 C 1023 1116 1074 1071 1105 1009 C 1135 947 1151 853 1151 725 L 1151 373 C 1151 335 1153 310 1158 298 C 1162 286 1171 278 1183 273 C 1195 268 1217 266 1251 266 L 1251 4 C 1233 -1 1188 -4 1116 -4 C 1051 -4 1003 4 973 20 C 943 36 917 67 895 111 C 830 25 694 -18 487 -18 Z M 356 367 C 356 321 370 289 400 269 C 430 249 480 240 551 240 C 654 240 728 259 774 297 C 819 335 842 397 842 481 L 842 524 L 815 524 C 713 524 634 521 576 517 C 518 513 474 506 443 496 C 411 486 389 472 376 454 C 362 436 356 407 356 367 Z M 739 1645 L 1126 1645 L 735 1270 L 450 1270 L 739 1645 Z" unicode="á" />
<glyph horiz-adv-x="1321" d="M 487 -18 C 339 -18 229 9 158 65 C 86 120 51 212 51 340 C 51 442 74 522 121 580 C 168 638 242 680 343 706 C 444 732 595 745 795 745 L 842 745 L 836 803 C 830 837 811 863 777 879 C 743 895 688 903 612 903 C 554 903 496 894 436 878 C 376 861 323 838 276 809 L 117 1044 C 179 1086 259 1120 358 1146 C 456 1172 553 1186 647 1186 C 778 1186 879 1172 951 1144 C 1023 1116 1074 1071 1105 1009 C 1135 947 1151 853 1151 725 L 1151 373 C 1151 335 1153 310 1158 298 C 1162 286 1171 278 1183 273 C 1195 268 1217 266 1251 266 L 1251 4 C 1233 -1 1188 -4 1116 -4 C 1051 -4 1003 4 973 20 C 943 36 917 67 895 111 C 830 25 694 -18 487 -18 Z M 356 367 C 356 321 370 289 400 269 C 430 249 480 240 551 240 C 654 240 728 259 774 297 C 819 335 842 397 842 481 L 842 524 L 815 524 C 713 524 634 521 576 517 C 518 513 474 506 443 496 C 411 486 389 472 376 454 C 362 436 356 407 356 367 Z M 495 1645 L 827 1645 L 1144 1270 L 843 1270 L 657 1446 L 473 1270 L 178 1270 L 495 1645 Z" unicode="â" />
<glyph horiz-adv-x="1321" d="M 487 -18 C 339 -18 229 9 158 65 C 86 120 51 212 51 340 C 51 442 74 522 121 580 C 168 638 242 680 343 706 C 444 732 595 745 795 745 L 842 745 L 836 803 C 830 837 811 863 777 879 C 743 895 688 903 612 903 C 554 903 496 894 436 878 C 376 861 323 838 276 809 L 117 1044 C 179 1086 259 1120 358 1146 C 456 1172 553 1186 647 1186 C 778 1186 879 1172 951 1144 C 1023 1116 1074 1071 1105 1009 C 1135 947 1151 853 1151 725 L 1151 373 C 1151 335 1153 310 1158 298 C 1162 286 1171 278 1183 273 C 1195 268 1217 266 1251 266 L 1251 4 C 1233 -1 1188 -4 1116 -4 C 1051 -4 1003 4 973 20 C 943 36 917 67 895 111 C 830 25 694 -18 487 -18 Z M 356 367 C 356 321 370 289 400 269 C 430 249 480 240 551 240 C 654 240 728 259 774 297 C 819 335 842 397 842 481 L 842 524 L 815 524 C 713 524 634 521 576 517 C 518 513 474 506 443 496 C 411 486 389 472 376 454 C 362 436 356 407 356 367 Z M 170 1407 C 288 1554 403 1628 514 1628 C 550 1628 580 1622 605 1611 C 630 1599 653 1587 673 1573 C 693 1559 713 1546 732 1535 C 751 1523 772 1518 796 1518 C 844 1518 902 1558 968 1638 L 1147 1493 C 1025 1343 910 1268 802 1268 C 768 1268 738 1273 714 1285 C 689 1296 666 1309 646 1323 C 625 1337 605 1349 585 1361 C 565 1372 544 1378 520 1378 C 468 1378 410 1339 348 1262 L 170 1407 Z" unicode="ã" />
<glyph horiz-adv-x="1321" d="M 487 -18 C 339 -18 229 9 158 65 C 86 120 51 212 51 340 C 51 442 74 522 121 580 C 168 638 242 680 343 706 C 444 732 595 745 795 745 L 842 745 L 836 803 C 830 837 811 863 777 879 C 743 895 688 903 612 903 C 554 903 496 894 436 878 C 376 861 323 838 276 809 L 117 1044 C 179 1086 259 1120 358 1146 C 456 1172 553 1186 647 1186 C 778 1186 879 1172 951 1144 C 1023 1116 1074 1071 1105 1009 C 1135 947 1151 853 1151 725 L 1151 373 C 1151 335 1153 310 1158 298 C 1162 286 1171 278 1183 273 C 1195 268 1217 266 1251 266 L 1251 4 C 1233 -1 1188 -4 1116 -4 C 1051 -4 1003 4 973 20 C 943 36 917 67 895 111 C 830 25 694 -18 487 -18 Z M 356 367 C 356 321 370 289 400 269 C 430 249 480 240 551 240 C 654 240 728 259 774 297 C 819 335 842 397 842 481 L 842 524 L 815 524 C 713 524 634 521 576 517 C 518 513 474 506 443 496 C 411 486 389 472 376 454 C 362 436 356 407 356 367 Z M 284 1559 L 575 1559 L 575 1280 L 284 1280 L 284 1559 Z M 749 1559 L 1038 1559 L 1038 1280 L 749 1280 L 749 1559 Z" unicode="ä" />
<glyph horiz-adv-x="1321" d="M 487 -18 C 339 -18 229 9 158 65 C 86 120 51 212 51 340 C 51 442 74 522 121 580 C 168 638 242 680 343 706 C 444 732 595 745 795 745 L 842 745 L 836 803 C 830 837 811 863 777 879 C 743 895 688 903 612 903 C 554 903 496 894 436 878 C 376 861 323 838 276 809 L 117 1044 C 179 1086 259 1120 358 1146 C 456 1172 553 1186 647 1186 C 778 1186 879 1172 951 1144 C 1023 1116 1074 1071 1105 1009 C 1135 947 1151 853 1151 725 L 1151 373 C 1151 335 1153 310 1158 298 C 1162 286 1171 278 1183 273 C 1195 268 1217 266 1251 266 L 1251 4 C 1233 -1 1188 -4 1116 -4 C 1051 -4 1003 4 973 20 C 943 36 917 67 895 111 C 830 25 694 -18 487 -18 Z M 356 367 C 356 321 370 289 400 269 C 430 249 480 240 551 240 C 654 240 728 259 774 297 C 819 335 842 397 842 481 L 842 524 L 815 524 C 713 524 634 521 576 517 C 518 513 474 506 443 496 C 411 486 389 472 376 454 C 362 436 356 407 356 367 Z M 661 1237 C 567 1237 494 1262 444 1314 C 393 1365 368 1438 368 1534 C 368 1629 393 1703 444 1756 C 494 1808 567 1835 661 1835 C 751 1835 822 1808 874 1755 C 926 1701 952 1628 952 1534 C 952 1440 926 1367 874 1315 C 822 1263 751 1237 661 1237 Z M 661 1395 C 705 1395 737 1407 759 1431 C 781 1455 792 1490 792 1534 C 792 1581 780 1616 757 1640 C 734 1663 702 1675 661 1675 C 572 1675 528 1628 528 1534 C 528 1441 572 1395 661 1395 Z" unicode="å" />
<glyph horiz-adv-x="2025" d="M 1434 -23 C 1203 -23 1046 34 962 148 C 934 106 901 74 865 50 C 829 26 786 8 737 -2 C 687 -12 604 -18 487 -18 C 383 -18 300 -5 236 19 C 172 44 126 81 96 131 C 66 181 51 250 51 340 C 51 443 74 523 120 581 C 166 639 239 680 339 706 C 439 732 591 745 795 745 L 842 745 L 836 803 C 830 837 811 863 777 879 C 743 895 688 903 612 903 C 554 903 496 894 436 878 C 376 861 323 838 276 809 L 117 1044 C 179 1086 259 1120 358 1146 C 456 1172 553 1186 647 1186 C 739 1186 816 1177 877 1159 C 937 1141 985 1112 1020 1074 C 1112 1148 1249 1186 1432 1186 C 1608 1186 1737 1144 1820 1061 C 1902 977 1946 840 1950 648 L 1950 586 L 1948 459 L 1141 459 C 1148 405 1162 363 1184 332 C 1205 301 1235 278 1275 262 C 1314 246 1367 238 1434 238 C 1512 238 1579 246 1636 262 C 1693 278 1747 306 1798 344 L 1960 135 C 1881 75 1802 34 1722 11 C 1642 -11 1546 -23 1434 -23 Z M 356 367 C 356 319 370 285 399 267 C 428 249 478 240 549 240 C 653 240 728 258 774 296 C 819 334 842 395 842 481 L 842 524 L 815 524 C 682 524 584 520 522 512 C 459 504 416 490 392 471 C 368 451 356 417 356 367 Z M 1655 688 C 1652 758 1643 807 1628 835 C 1613 862 1590 883 1558 897 C 1526 911 1481 918 1423 918 C 1338 918 1273 901 1228 868 C 1183 835 1155 784 1145 715 L 1141 688 L 1655 688 Z" unicode="æ" />
<glyph horiz-adv-x="1202" d="M 666 -18 C 527 -18 414 3 327 47 C 239 90 175 154 134 240 C 92 325 72 439 72 582 C 72 728 93 844 137 931 C 181 1017 248 1081 338 1123 C 428 1165 542 1186 680 1186 C 880 1186 1037 1123 1151 997 L 926 784 C 888 824 849 851 810 867 C 770 883 727 891 680 891 C 581 891 509 866 463 818 C 417 769 395 687 395 573 C 395 491 404 428 424 384 C 444 340 474 307 516 285 C 558 263 613 252 682 252 C 734 252 780 260 820 277 C 859 294 900 323 944 365 L 1149 168 C 1070 95 995 46 924 20 C 853 -5 767 -18 666 -18 Z M 595 -510 C 493 -510 401 -487 321 -442 L 401 -293 C 466 -325 527 -342 583 -342 C 631 -342 665 -335 684 -322 C 702 -308 712 -287 712 -258 C 712 -232 702 -214 683 -202 C 663 -190 632 -184 588 -184 L 532 -186 L 470 -147 L 505 14 L 685 14 L 667 -86 L 688 -86 C 754 -86 802 -92 831 -105 C 859 -118 882 -138 898 -166 C 914 -194 923 -232 923 -281 C 923 -358 896 -415 843 -453 C 790 -491 707 -510 595 -510 Z" unicode="ç" />
<glyph horiz-adv-x="1268" d="M 676 -23 C 540 -23 428 -2 338 38 C 248 79 182 143 138 230 C 94 316 72 434 72 582 C 72 728 94 844 140 932 C 185 1019 252 1083 342 1124 C 431 1165 542 1186 674 1186 C 850 1186 979 1144 1061 1061 C 1143 977 1187 840 1191 648 L 1191 568 L 1190 459 L 383 459 C 390 405 404 363 426 332 C 447 301 477 278 517 262 C 556 246 609 238 676 238 C 754 238 821 246 878 262 C 935 278 989 306 1040 344 L 1202 135 C 1125 77 1046 37 964 13 C 882 -11 786 -23 676 -23 Z M 897 688 C 893 752 883 799 867 829 C 851 859 826 881 794 896 C 762 910 718 918 664 918 C 601 918 551 909 513 893 C 475 876 445 852 425 821 C 405 789 391 745 383 688 L 897 688 Z M 168 1645 L 555 1645 L 844 1270 L 559 1270 L 168 1645 Z" unicode="è" />
<glyph horiz-adv-x="1268" d="M 711 1645 L 1098 1645 L 707 1270 L 422 1270 L 711 1645 Z M 676 -23 C 540 -23 428 -2 338 38 C 248 79 182 143 138 230 C 94 316 72 434 72 582 C 72 728 94 844 140 932 C 185 1019 252 1083 342 1124 C 431 1165 542 1186 674 1186 C 850 1186 979 1144 1061 1061 C 1143 977 1187 840 1191 648 L 1191 568 L 1190 459 L 383 459 C 390 405 404 363 426 332 C 447 301 477 278 517 262 C 556 246 609 238 676 238 C 754 238 821 246 878 262 C 935 278 989 306 1040 344 L 1202 135 C 1125 77 1046 37 964 13 C 882 -11 786 -23 676 -23 Z M 897 688 C 893 752 883 799 867 829 C 851 859 826 881 794 896 C 762 910 718 918 664 918 C 601 918 551 909 513 893 C 475 876 445 852 425 821 C 405 789 391 745 383 688 L 897 688 Z" unicode="é" />
<glyph horiz-adv-x="1268" d="M 467 1645 L 799 1645 L 1116 1270 L 815 1270 L 629 1446 L 445 1270 L 150 1270 L 467 1645 Z M 676 -23 C 540 -23 428 -2 338 38 C 248 79 182 143 138 230 C 94 316 72 434 72 582 C 72 728 94 844 140 932 C 185 1019 252 1083 342 1124 C 431 1165 542 1186 674 1186 C 850 1186 979 1144 1061 1061 C 1143 977 1187 840 1191 648 L 1191 568 L 1190 459 L 383 459 C 390 405 404 363 426 332 C 447 301 477 278 517 262 C 556 246 609 238 676 238 C 754 238 821 246 878 262 C 935 278 989 306 1040 344 L 1202 135 C 1125 77 1046 37 964 13 C 882 -11 786 -23 676 -23 Z M 897 688 C 893 752 883 799 867 829 C 851 859 826 881 794 896 C 762 910 718 918 664 918 C 601 918 551 909 513 893 C 475 876 445 852 425 821 C 405 789 391 745 383 688 L 897 688 Z" unicode="ê" />
<glyph horiz-adv-x="1268" d="M 256 1559 L 547 1559 L 547 1280 L 256 1280 L 256 1559 Z M 721 1559 L 1010 1559 L 1010 1280 L 721 1280 L 721 1559 Z M 676 -23 C 540 -23 428 -2 338 38 C 248 79 182 143 138 230 C 94 316 72 434 72 582 C 72 728 94 844 140 932 C 185 1019 252 1083 342 1124 C 431 1165 542 1186 674 1186 C 850 1186 979 1144 1061 1061 C 1143 977 1187 840 1191 648 L 1191 568 L 1190 459 L 383 459 C 390 405 404 363 426 332 C 447 301 477 278 517 262 C 556 246 609 238 676 238 C 754 238 821 246 878 262 C 935 278 989 306 1040 344 L 1202 135 C 1125 77 1046 37 964 13 C 882 -11 786 -23 676 -23 Z M 897 688 C 893 752 883 799 867 829 C 851 859 826 881 794 896 C 762 910 718 918 664 918 C 601 918 551 909 513 893 C 475 876 445 852 425 821 C 405 789 391 745 383 688 L 897 688 Z" unicode="ë" />
<glyph horiz-adv-x="600" d="M -125 1645 L 266 1645 L 457 1270 L 166 1270 L -125 1645 Z M 139 1159 L 459 1159 L 459 0 L 139 0 L 139 1159 Z" unicode="ì" />
<glyph horiz-adv-x="600" d="M 332 1645 L 725 1645 L 434 1270 L 143 1270 L 332 1645 Z M 139 1159 L 459 1159 L 459 0 L 139 0 L 139 1159 Z" unicode="í" />
<glyph horiz-adv-x="600" d="M 141 1645 L 457 1645 L 723 1270 L 430 1270 L 295 1446 L 160 1270 L -125 1270 L 141 1645 Z M 139 1159 L 459 1159 L 459 0 L 139 0 L 139 1159 Z" unicode="î" />
<glyph horiz-adv-x="600" d="M -33 1559 L 225 1559 L 225 1280 L -33 1280 L -33 1559 Z M 375 1559 L 633 1559 L 633 1280 L 375 1280 L 375 1559 Z M 139 1159 L 459 1159 L 459 0 L 139 0 L 139 1159 Z" unicode="ï" />
<glyph horiz-adv-x="1358" d="M 569 1382 L 696 1408 C 666 1447 632 1488 596 1532 L 905 1632 C 952 1587 996 1535 1036 1477 L 1303 1532 L 1303 1323 L 1142 1290 C 1236 1086 1284 865 1284 627 C 1284 402 1235 237 1138 133 C 1040 29 886 -23 676 -23 C 477 -23 327 24 225 118 C 123 212 72 353 72 541 C 72 728 115 868 201 960 C 287 1052 414 1098 580 1098 C 658 1098 725 1092 779 1081 C 833 1069 875 1048 905 1016 C 891 1076 863 1145 819 1224 L 569 1174 L 569 1382 Z M 676 252 C 772 252 844 275 891 323 C 937 371 961 446 961 549 C 961 650 938 723 892 769 C 846 815 774 838 676 838 C 580 838 510 815 464 770 C 418 724 395 651 395 549 C 395 447 418 372 465 324 C 511 276 582 252 676 252 Z" unicode="ð" />
<glyph horiz-adv-x="1360" d="M 127 1141 L 377 1159 L 403 1059 C 481 1143 621 1186 823 1186 C 923 1186 1004 1169 1064 1137 C 1124 1105 1169 1056 1197 991 C 1225 926 1239 830 1239 702 L 1239 0 L 920 0 L 920 639 C 920 710 913 761 900 791 C 886 821 865 843 835 859 C 805 875 763 883 709 883 C 645 883 595 874 557 857 C 519 839 491 813 474 779 C 457 745 449 693 449 625 L 449 0 L 127 0 L 127 1141 Z M 187 1407 C 305 1554 420 1628 531 1628 C 567 1628 597 1622 622 1611 C 647 1599 670 1587 690 1573 C 710 1559 730 1546 749 1535 C 768 1523 789 1518 813 1518 C 861 1518 919 1558 985 1638 L 1164 1493 C 1042 1343 927 1268 819 1268 C 785 1268 755 1273 731 1285 C 706 1296 683 1309 663 1323 C 642 1337 622 1349 602 1361 C 582 1372 561 1378 537 1378 C 485 1378 427 1339 365 1262 L 187 1407 Z" unicode="ñ" />
<glyph horiz-adv-x="1354" d="M 678 -23 C 472 -23 319 26 220 124 C 121 222 72 375 72 582 C 72 787 121 939 219 1038 C 317 1136 470 1186 678 1186 C 884 1186 1036 1137 1134 1039 C 1232 941 1282 788 1282 582 C 1282 374 1232 221 1133 123 C 1033 25 882 -23 678 -23 Z M 678 252 C 775 252 846 277 892 327 C 938 377 961 459 961 573 C 961 687 938 768 892 818 C 846 868 775 893 678 893 C 580 893 508 868 463 818 C 417 768 395 686 395 573 C 395 459 417 377 463 327 C 508 277 580 252 678 252 Z M 211 1645 L 598 1645 L 887 1270 L 602 1270 L 211 1645 Z" unicode="ò" />
<glyph horiz-adv-x="1354" d="M 754 1645 L 1141 1645 L 750 1270 L 465 1270 L 754 1645 Z M 678 -23 C 472 -23 319 26 220 124 C 121 222 72 375 72 582 C 72 787 121 939 219 1038 C 317 1136 470 1186 678 1186 C 884 1186 1036 1137 1134 1039 C 1232 941 1282 788 1282 582 C 1282 374 1232 221 1133 123 C 1033 25 882 -23 678 -23 Z M 678 252 C 775 252 846 277 892 327 C 938 377 961 459 961 573 C 961 687 938 768 892 818 C 846 868 775 893 678 893 C 580 893 508 868 463 818 C 417 768 395 686 395 573 C 395 459 417 377 463 327 C 508 277 580 252 678 252 Z" unicode="ó" />
<glyph horiz-adv-x="1354" d="M 510 1645 L 842 1645 L 1159 1270 L 858 1270 L 672 1446 L 488 1270 L 193 1270 L 510 1645 Z M 678 -23 C 472 -23 319 26 220 124 C 121 222 72 375 72 582 C 72 787 121 939 219 1038 C 317 1136 470 1186 678 1186 C 884 1186 1036 1137 1134 1039 C 1232 941 1282 788 1282 582 C 1282 374 1232 221 1133 123 C 1033 25 882 -23 678 -23 Z M 678 252 C 775 252 846 277 892 327 C 938 377 961 459 961 573 C 961 687 938 768 892 818 C 846 868 775 893 678 893 C 580 893 508 868 463 818 C 417 768 395 686 395 573 C 395 459 417 377 463 327 C 508 277 580 252 678 252 Z" unicode="ô" />
<glyph horiz-adv-x="1354" d="M 678 -23 C 472 -23 319 26 220 124 C 121 222 72 375 72 582 C 72 787 121 939 219 1038 C 317 1136 470 1186 678 1186 C 884 1186 1036 1137 1134 1039 C 1232 941 1282 788 1282 582 C 1282 374 1232 221 1133 123 C 1033 25 882 -23 678 -23 Z M 678 252 C 775 252 846 277 892 327 C 938 377 961 459 961 573 C 961 687 938 768 892 818 C 846 868 775 893 678 893 C 580 893 508 868 463 818 C 417 768 395 686 395 573 C 395 459 417 377 463 327 C 508 277 580 252 678 252 Z M 185 1407 C 303 1554 418 1628 529 1628 C 565 1628 595 1622 620 1611 C 645 1599 668 1587 688 1573 C 708 1559 728 1546 747 1535 C 766 1523 787 1518 811 1518 C 859 1518 917 1558 983 1638 L 1162 1493 C 1040 1343 925 1268 817 1268 C 783 1268 753 1273 729 1285 C 704 1296 681 1309 661 1323 C 640 1337 620 1349 600 1361 C 580 1372 559 1378 535 1378 C 483 1378 425 1339 363 1262 L 185 1407 Z" unicode="õ" />
<glyph horiz-adv-x="1354" d="M 299 1559 L 590 1559 L 590 1280 L 299 1280 L 299 1559 Z M 764 1559 L 1053 1559 L 1053 1280 L 764 1280 L 764 1559 Z M 678 -23 C 472 -23 319 26 220 124 C 121 222 72 375 72 582 C 72 787 121 939 219 1038 C 317 1136 470 1186 678 1186 C 884 1186 1036 1137 1134 1039 C 1232 941 1282 788 1282 582 C 1282 374 1232 221 1133 123 C 1033 25 882 -23 678 -23 Z M 678 252 C 775 252 846 277 892 327 C 938 377 961 459 961 573 C 961 687 938 768 892 818 C 846 868 775 893 678 893 C 580 893 508 868 463 818 C 417 768 395 686 395 573 C 395 459 417 377 463 327 C 508 277 580 252 678 252 Z" unicode="ö" />
<glyph horiz-adv-x="1479" d="M 578 438 L 901 438 L 901 162 L 578 162 L 578 438 Z M 190 866 L 1288 866 L 1288 578 L 190 578 L 190 866 Z M 578 1282 L 901 1282 L 901 1006 L 578 1006 L 578 1282 Z" unicode="÷" />
<glyph horiz-adv-x="1354" d="M 678 -23 C 592 -23 517 -15 453 0 L 397 -88 L 111 -88 L 234 105 C 126 199 72 358 72 582 C 72 793 120 946 217 1042 C 314 1138 468 1186 678 1186 C 762 1186 836 1178 900 1163 L 956 1251 L 1245 1251 L 1121 1057 C 1228 963 1282 805 1282 582 C 1282 370 1233 216 1136 120 C 1039 24 886 -23 678 -23 Z M 678 244 C 777 244 850 269 897 320 C 943 370 967 455 967 573 C 967 661 954 729 929 779 L 598 249 C 622 245 648 244 678 244 Z M 678 901 C 579 901 506 876 459 827 C 412 777 389 693 389 573 C 389 485 400 419 422 374 L 745 896 C 724 899 702 901 678 901 Z" unicode="ø" />
<glyph horiz-adv-x="1343" d="M 674 -18 C 532 -18 422 0 344 34 C 265 68 208 124 173 200 C 138 276 121 389 121 541 L 121 1159 L 442 1159 L 442 535 C 442 494 443 457 446 423 C 448 389 457 360 472 336 C 487 312 510 293 542 280 C 574 266 618 260 676 260 C 736 260 782 268 815 284 C 848 300 872 323 886 355 C 900 386 907 447 907 537 L 907 1159 L 1223 1159 L 1223 543 C 1223 391 1205 276 1171 200 C 1136 123 1079 67 1001 33 C 923 0 814 -18 674 -18 Z M 207 1645 L 594 1645 L 883 1270 L 598 1270 L 207 1645 Z" unicode="ù" />
<glyph horiz-adv-x="1343" d="M 750 1645 L 1137 1645 L 746 1270 L 461 1270 L 750 1645 Z M 674 -18 C 532 -18 422 0 344 34 C 265 68 208 124 173 200 C 138 276 121 389 121 541 L 121 1159 L 442 1159 L 442 535 C 442 494 443 457 446 423 C 448 389 457 360 472 336 C 487 312 510 293 542 280 C 574 266 618 260 676 260 C 736 260 782 268 815 284 C 848 300 872 323 886 355 C 900 386 907 447 907 537 L 907 1159 L 1223 1159 L 1223 543 C 1223 391 1205 276 1171 200 C 1136 123 1079 67 1001 33 C 923 0 814 -18 674 -18 Z" unicode="ú" />
<glyph horiz-adv-x="1343" d="M 506 1645 L 838 1645 L 1155 1270 L 854 1270 L 668 1446 L 484 1270 L 189 1270 L 506 1645 Z M 674 -18 C 532 -18 422 0 344 34 C 265 68 208 124 173 200 C 138 276 121 389 121 541 L 121 1159 L 442 1159 L 442 535 C 442 494 443 457 446 423 C 448 389 457 360 472 336 C 487 312 510 293 542 280 C 574 266 618 260 676 260 C 736 260 782 268 815 284 C 848 300 872 323 886 355 C 900 386 907 447 907 537 L 907 1159 L 1223 1159 L 1223 543 C 1223 391 1205 276 1171 200 C 1136 123 1079 67 1001 33 C 923 0 814 -18 674 -18 Z" unicode="û" />
<glyph horiz-adv-x="1343" d="M 295 1559 L 586 1559 L 586 1280 L 295 1280 L 295 1559 Z M 760 1559 L 1049 1559 L 1049 1280 L 760 1280 L 760 1559 Z M 674 -18 C 532 -18 422 0 344 34 C 265 68 208 124 173 200 C 138 276 121 389 121 541 L 121 1159 L 442 1159 L 442 535 C 442 494 443 457 446 423 C 448 389 457 360 472 336 C 487 312 510 293 542 280 C 574 266 618 260 676 260 C 736 260 782 268 815 284 C 848 300 872 323 886 355 C 900 386 907 447 907 537 L 907 1159 L 1223 1159 L 1223 543 C 1223 391 1205 276 1171 200 C 1136 123 1079 67 1001 33 C 923 0 814 -18 674 -18 Z" unicode="ü" />
<glyph horiz-adv-x="1196" d="M -2 1159 L 344 1159 L 612 421 L 872 1159 L 1198 1159 L 733 -51 C 703 -132 669 -193 632 -234 C 595 -274 549 -303 493 -321 C 437 -339 364 -348 274 -348 L 160 -344 L 160 -102 L 246 -102 C 288 -102 321 -99 344 -95 C 366 -90 384 -82 396 -72 C 408 -61 418 -42 426 -16 L 441 26 L -2 1159 Z M 679 1645 L 1066 1645 L 675 1270 L 390 1270 L 679 1645 Z" unicode="ý" />
<glyph horiz-adv-x="1395" d="M 127 1589 L 446 1589 L 446 1075 C 478 1112 524 1140 586 1158 C 647 1176 727 1186 827 1186 C 993 1186 1117 1138 1199 1042 C 1281 946 1323 792 1323 582 C 1323 372 1280 220 1195 124 C 1109 28 981 -20 809 -20 C 715 -20 639 -11 581 5 C 522 21 478 49 449 88 L 449 -338 L 127 -338 L 127 1589 Z M 745 254 C 831 254 895 278 936 326 C 976 374 997 455 997 569 C 997 651 988 715 971 759 C 954 803 927 836 890 859 C 853 881 805 893 745 893 C 639 893 564 868 518 819 C 472 770 449 687 449 569 C 449 451 470 369 514 323 C 558 277 635 254 745 254 Z" unicode="þ" />
<glyph horiz-adv-x="1196" d="M -2 1159 L 344 1159 L 612 421 L 872 1159 L 1198 1159 L 733 -51 C 703 -132 669 -193 632 -234 C 595 -274 549 -303 493 -321 C 437 -339 364 -348 274 -348 L 160 -344 L 160 -102 L 246 -102 C 288 -102 321 -99 344 -95 C 366 -90 384 -82 396 -72 C 408 -61 418 -42 426 -16 L 441 26 L -2 1159 Z M 224 1559 L 515 1559 L 515 1280 L 224 1280 L 224 1559 Z M 689 1559 L 978 1559 L 978 1280 L 689 1280 L 689 1559 Z" unicode="ÿ" />
<glyph horiz-adv-x="1616" d="M 637 1528 L 977 1528 L 1589 0 L 1241 0 L 1143 250 L 455 250 L 356 0 L 29 0 L 637 1528 Z M 1036 526 L 799 1130 L 561 526 L 1036 526 Z M 375 1835 L 1235 1835 L 1235 1579 L 375 1579 L 375 1835 Z" unicode="Ā" />
<glyph horiz-adv-x="1321" d="M 487 -18 C 339 -18 229 9 158 65 C 86 120 51 212 51 340 C 51 442 74 522 121 580 C 168 638 242 680 343 706 C 444 732 595 745 795 745 L 842 745 L 836 803 C 830 837 811 863 777 879 C 743 895 688 903 612 903 C 554 903 496 894 436 878 C 376 861 323 838 276 809 L 117 1044 C 179 1086 259 1120 358 1146 C 456 1172 553 1186 647 1186 C 778 1186 879 1172 951 1144 C 1023 1116 1074 1071 1105 1009 C 1135 947 1151 853 1151 725 L 1151 373 C 1151 335 1153 310 1158 298 C 1162 286 1171 278 1183 273 C 1195 268 1217 266 1251 266 L 1251 4 C 1233 -1 1188 -4 1116 -4 C 1051 -4 1003 4 973 20 C 943 36 917 67 895 111 C 830 25 694 -18 487 -18 Z M 356 367 C 356 321 370 289 400 269 C 430 249 480 240 551 240 C 654 240 728 259 774 297 C 819 335 842 397 842 481 L 842 524 L 815 524 C 713 524 634 521 576 517 C 518 513 474 506 443 496 C 411 486 389 472 376 454 C 362 436 356 407 356 367 Z M 231 1505 L 1091 1505 L 1091 1249 L 231 1249 L 231 1505 Z" unicode="ā" />
<glyph horiz-adv-x="1616" d="M 637 1528 L 977 1528 L 1589 0 L 1241 0 L 1143 250 L 455 250 L 356 0 L 29 0 L 637 1528 Z M 1036 526 L 799 1130 L 561 526 L 1036 526 Z M 805 1569 C 717 1569 645 1582 587 1609 C 529 1636 483 1676 449 1729 C 414 1782 386 1862 365 1970 L 596 2013 C 614 1932 639 1879 669 1853 C 699 1827 744 1815 805 1815 C 866 1815 912 1828 942 1854 C 972 1880 996 1933 1014 2013 L 1248 1972 C 1224 1864 1194 1783 1159 1730 C 1124 1676 1078 1636 1021 1609 C 963 1582 891 1569 805 1569 Z" unicode="Ă" />
<glyph horiz-adv-x="1321" d="M 487 -18 C 339 -18 229 9 158 65 C 86 120 51 212 51 340 C 51 442 74 522 121 580 C 168 638 242 680 343 706 C 444 732 595 745 795 745 L 842 745 L 836 803 C 830 837 811 863 777 879 C 743 895 688 903 612 903 C 554 903 496 894 436 878 C 376 861 323 838 276 809 L 117 1044 C 179 1086 259 1120 358 1146 C 456 1172 553 1186 647 1186 C 778 1186 879 1172 951 1144 C 1023 1116 1074 1071 1105 1009 C 1135 947 1151 853 1151 725 L 1151 373 C 1151 335 1153 310 1158 298 C 1162 286 1171 278 1183 273 C 1195 268 1217 266 1251 266 L 1251 4 C 1233 -1 1188 -4 1116 -4 C 1051 -4 1003 4 973 20 C 943 36 917 67 895 111 C 830 25 694 -18 487 -18 Z M 356 367 C 356 321 370 289 400 269 C 430 249 480 240 551 240 C 654 240 728 259 774 297 C 819 335 842 397 842 481 L 842 524 L 815 524 C 713 524 634 521 576 517 C 518 513 474 506 443 496 C 411 486 389 472 376 454 C 362 436 356 407 356 367 Z M 661 1239 C 573 1239 501 1252 443 1279 C 385 1306 339 1346 305 1399 C 270 1452 242 1532 221 1640 L 452 1683 C 470 1602 495 1549 525 1523 C 555 1497 600 1485 661 1485 C 722 1485 768 1498 798 1524 C 828 1550 852 1603 870 1683 L 1104 1642 C 1080 1534 1050 1453 1015 1400 C 980 1346 934 1306 877 1279 C 819 1252 747 1239 661 1239 Z" unicode="ă" />
<glyph horiz-adv-x="1616" d="M 637 1528 L 977 1528 L 1589 0 L 1491 0 C 1425 -41 1379 -79 1351 -115 C 1323 -151 1309 -181 1309 -207 C 1309 -237 1317 -257 1334 -268 C 1350 -279 1377 -285 1413 -285 C 1463 -285 1516 -275 1571 -256 L 1630 -430 C 1546 -468 1460 -487 1370 -487 C 1265 -487 1188 -469 1138 -435 C 1088 -400 1063 -345 1063 -270 C 1063 -216 1079 -164 1111 -114 C 1143 -63 1185 -22 1235 10 L 1143 250 L 455 250 L 356 0 L 29 0 L 637 1528 Z M 1036 526 L 799 1130 L 561 526 L 1036 526 Z" unicode="Ą" />
<glyph horiz-adv-x="1321" d="M 487 -18 C 339 -18 229 9 158 65 C 86 120 51 212 51 340 C 51 442 74 522 121 580 C 168 638 242 680 343 706 C 444 732 595 745 795 745 L 842 745 C 840 793 832 826 818 846 C 804 865 780 879 747 889 C 714 898 669 903 612 903 C 554 903 496 894 436 878 C 376 861 323 838 276 809 L 117 1044 C 179 1086 259 1120 358 1146 C 456 1172 553 1186 647 1186 C 778 1186 879 1172 951 1144 C 1023 1116 1074 1071 1105 1009 C 1135 947 1151 853 1151 725 L 1151 373 C 1151 335 1153 310 1158 298 C 1162 286 1171 278 1183 273 C 1195 268 1217 266 1251 266 L 1251 4 C 1116 -77 1049 -147 1049 -207 C 1049 -237 1057 -257 1074 -268 C 1090 -279 1117 -285 1153 -285 C 1203 -285 1256 -275 1311 -256 L 1370 -430 C 1286 -468 1200 -487 1110 -487 C 1005 -487 928 -469 878 -435 C 828 -400 803 -345 803 -270 C 803 -216 819 -164 852 -114 C 884 -64 931 -22 993 12 C 949 29 916 62 895 111 C 830 25 694 -18 487 -18 Z M 551 240 C 654 240 728 259 774 297 C 819 335 842 397 842 481 L 842 524 L 815 524 C 713 524 634 521 576 517 C 518 513 474 506 443 496 C 411 486 389 472 376 454 C 362 436 356 407 356 367 C 356 321 370 289 400 269 C 430 249 480 240 551 240 Z" unicode="ą" />
<glyph horiz-adv-x="1554" d="M 854 1975 L 1241 1975 L 850 1600 L 565 1600 L 854 1975 Z M 850 -23 C 582 -23 385 40 259 167 C 133 293 70 491 70 760 C 70 1018 136 1212 270 1344 C 403 1476 603 1542 870 1542 C 999 1542 1111 1524 1207 1490 C 1302 1456 1388 1400 1466 1323 L 1235 1092 C 1183 1142 1127 1179 1069 1201 C 1010 1223 943 1235 868 1235 C 712 1235 596 1195 521 1117 C 445 1039 408 918 408 756 C 408 587 445 465 519 389 C 593 313 710 276 870 276 C 949 276 1018 287 1076 309 C 1134 331 1193 372 1255 430 L 1477 213 C 1395 128 1304 67 1204 31 C 1103 -4 985 -23 850 -23 Z" unicode="Ć" />
<glyph horiz-adv-x="1202" d="M 679 1645 L 1066 1645 L 675 1270 L 390 1270 L 679 1645 Z M 666 -18 C 527 -18 414 3 327 47 C 239 90 175 154 134 240 C 92 325 72 439 72 582 C 72 728 93 844 137 931 C 181 1017 248 1081 338 1123 C 428 1165 542 1186 680 1186 C 880 1186 1037 1123 1151 997 L 926 784 C 888 824 849 851 810 867 C 770 883 727 891 680 891 C 581 891 509 866 463 818 C 417 769 395 687 395 573 C 395 491 404 428 424 384 C 444 340 474 307 516 285 C 558 263 613 252 682 252 C 734 252 780 260 820 277 C 859 294 900 323 944 365 L 1149 168 C 1070 95 995 46 924 20 C 853 -5 767 -18 666 -18 Z" unicode="ć" />
<glyph horiz-adv-x="1554" d="M 293 1975 L 594 1975 L 780 1798 L 965 1975 L 1259 1975 L 942 1600 L 610 1600 L 293 1975 Z M 850 -23 C 582 -23 385 40 259 167 C 133 293 70 491 70 760 C 70 1018 136 1212 270 1344 C 403 1476 603 1542 870 1542 C 999 1542 1111 1524 1207 1490 C 1302 1456 1388 1400 1466 1323 L 1235 1092 C 1183 1142 1127 1179 1069 1201 C 1010 1223 943 1235 868 1235 C 712 1235 596 1195 521 1117 C 445 1039 408 918 408 756 C 408 587 445 465 519 389 C 593 313 710 276 870 276 C 949 276 1018 287 1076 309 C 1134 331 1193 372 1255 430 L 1477 213 C 1395 128 1304 67 1204 31 C 1103 -4 985 -23 850 -23 Z" unicode="Č" />
<glyph horiz-adv-x="1202" d="M 118 1645 L 419 1645 L 605 1468 L 790 1645 L 1084 1645 L 767 1270 L 435 1270 L 118 1645 Z M 666 -18 C 527 -18 414 3 327 47 C 239 90 175 154 134 240 C 92 325 72 439 72 582 C 72 728 93 844 137 931 C 181 1017 248 1081 338 1123 C 428 1165 542 1186 680 1186 C 880 1186 1037 1123 1151 997 L 926 784 C 888 824 849 851 810 867 C 770 883 727 891 680 891 C 581 891 509 866 463 818 C 417 769 395 687 395 573 C 395 491 404 428 424 384 C 444 340 474 307 516 285 C 558 263 613 252 682 252 C 734 252 780 260 820 277 C 859 294 900 323 944 365 L 1149 168 C 1070 95 995 46 924 20 C 853 -5 767 -18 666 -18 Z" unicode="č" />
<glyph horiz-adv-x="1610" d="M 320 1975 L 621 1975 L 807 1798 L 992 1975 L 1286 1975 L 969 1600 L 637 1600 L 320 1975 Z M 152 1518 L 696 1518 C 919 1518 1089 1493 1207 1445 C 1324 1397 1409 1318 1462 1210 C 1515 1102 1542 952 1542 760 C 1542 570 1514 420 1459 311 C 1403 201 1316 122 1196 73 C 1076 24 907 0 688 0 L 152 0 L 152 1518 Z M 707 293 C 838 293 939 306 1009 334 C 1079 361 1129 405 1159 467 C 1189 529 1204 626 1204 760 C 1204 867 1196 947 1180 1001 C 1164 1055 1138 1097 1102 1128 C 1066 1158 1017 1181 954 1195 C 891 1209 806 1217 700 1217 L 487 1217 L 487 293 L 707 293 Z" unicode="Ď" />
<glyph horiz-adv-x="1714" d="M 1395 1128 C 1459 1158 1498 1182 1514 1198 C 1530 1214 1538 1238 1538 1272 L 1403 1272 L 1403 1589 L 1710 1589 L 1710 1364 C 1710 1278 1703 1215 1689 1177 C 1675 1138 1652 1105 1619 1077 C 1585 1049 1534 1021 1464 991 L 1395 1128 Z M 575 -23 C 407 -23 282 26 198 125 C 114 223 72 377 72 586 C 72 793 115 945 201 1041 C 287 1137 416 1186 586 1186 C 769 1186 889 1149 946 1077 L 946 1589 L 1268 1589 L 1268 12 L 1022 -10 L 989 106 C 949 60 895 27 827 7 C 759 -12 675 -23 575 -23 Z M 651 254 C 755 254 830 279 876 330 C 922 380 946 466 946 586 C 946 668 936 731 918 773 C 899 815 868 847 826 867 C 784 887 725 897 651 897 C 562 897 497 873 457 827 C 417 780 397 700 397 586 C 397 466 417 381 458 330 C 499 279 563 254 651 254 Z" unicode="ď" />
<glyph horiz-adv-x="1610" d="M 0 899 L 152 899 L 152 1518 L 696 1518 C 919 1518 1089 1493 1207 1445 C 1324 1397 1409 1318 1462 1210 C 1515 1102 1542 952 1542 760 C 1542 574 1513 426 1457 316 C 1401 206 1313 126 1194 76 C 1074 25 906 0 688 0 L 152 0 L 152 635 L 0 635 L 0 899 Z M 707 293 C 838 293 939 306 1009 334 C 1079 361 1129 405 1159 467 C 1189 529 1204 626 1204 760 C 1204 867 1196 947 1180 1001 C 1164 1055 1138 1097 1102 1128 C 1066 1158 1017 1181 954 1195 C 891 1209 806 1217 700 1217 L 487 1217 L 487 899 L 770 899 L 770 635 L 487 635 L 487 293 L 707 293 Z" unicode="Đ" />
<glyph horiz-adv-x="1395" d="M 575 -23 C 407 -23 282 26 198 125 C 114 223 72 377 72 586 C 72 793 115 945 201 1041 C 287 1137 416 1186 586 1186 C 769 1186 889 1149 946 1077 L 946 1235 L 711 1235 L 711 1487 L 946 1487 L 946 1589 L 1268 1589 L 1268 1487 L 1395 1487 L 1395 1235 L 1268 1235 L 1268 12 L 1022 -10 L 989 106 C 949 60 895 27 827 7 C 759 -12 675 -23 575 -23 Z M 651 254 C 755 254 830 279 876 330 C 922 380 946 466 946 586 C 946 668 936 731 918 773 C 899 815 868 847 826 867 C 784 887 725 897 651 897 C 562 897 497 873 457 827 C 417 780 397 700 397 586 C 397 466 417 381 458 330 C 499 279 563 254 651 254 Z" unicode="đ" />
<glyph horiz-adv-x="1407" d="M 152 1518 L 1292 1518 L 1292 1214 L 487 1214 L 487 920 L 1272 920 L 1272 627 L 487 627 L 487 291 L 1300 291 L 1300 0 L 152 0 L 152 1518 Z M 272 1835 L 1132 1835 L 1132 1579 L 272 1579 L 272 1835 Z" unicode="Ē" />
<glyph horiz-adv-x="1268" d="M 676 -23 C 540 -23 428 -2 338 38 C 248 79 182 143 138 230 C 94 316 72 434 72 582 C 72 728 94 844 140 932 C 185 1019 252 1083 342 1124 C 431 1165 542 1186 674 1186 C 850 1186 979 1144 1061 1061 C 1143 977 1187 840 1191 648 L 1191 568 L 1190 459 L 383 459 C 390 405 404 363 426 332 C 447 301 477 278 517 262 C 556 246 609 238 676 238 C 754 238 821 246 878 262 C 935 278 989 306 1040 344 L 1202 135 C 1125 77 1046 37 964 13 C 882 -11 786 -23 676 -23 Z M 897 688 C 893 752 883 799 867 829 C 851 859 826 881 794 896 C 762 910 718 918 664 918 C 601 918 551 909 513 893 C 475 876 445 852 425 821 C 405 789 391 745 383 688 L 897 688 Z M 203 1505 L 1063 1505 L 1063 1249 L 203 1249 L 203 1505 Z" unicode="ē" />
<glyph horiz-adv-x="1407" d="M 152 1518 L 1292 1518 L 1292 1214 L 487 1214 L 487 920 L 1272 920 L 1272 627 L 487 627 L 487 291 L 1300 291 L 1300 0 L 152 0 L 152 1518 Z M 538 1880 L 864 1880 L 864 1596 L 538 1596 L 538 1880 Z" unicode="Ė" />
<glyph horiz-adv-x="1268" d="M 676 -23 C 540 -23 428 -2 338 38 C 248 79 182 143 138 230 C 94 316 72 434 72 582 C 72 728 94 844 140 932 C 185 1019 252 1083 342 1124 C 431 1165 542 1186 674 1186 C 850 1186 979 1144 1061 1061 C 1143 977 1187 840 1191 648 L 1191 568 L 1190 459 L 383 459 C 390 405 404 363 426 332 C 447 301 477 278 517 262 C 556 246 609 238 676 238 C 754 238 821 246 878 262 C 935 278 989 306 1040 344 L 1202 135 C 1125 77 1046 37 964 13 C 882 -11 786 -23 676 -23 Z M 897 688 C 893 752 883 799 867 829 C 851 859 826 881 794 896 C 762 910 718 918 664 918 C 601 918 551 909 513 893 C 475 876 445 852 425 821 C 405 789 391 745 383 688 L 897 688 Z M 469 1550 L 795 1550 L 795 1266 L 469 1266 L 469 1550 Z" unicode="ė" />
<glyph horiz-adv-x="1407" d="M 152 1518 L 1292 1518 L 1292 1214 L 487 1214 L 487 920 L 1272 920 L 1272 627 L 487 627 L 487 291 L 1300 291 L 1300 0 L 1133 0 C 1071 -40 1027 -78 1001 -115 C 974 -151 961 -182 961 -207 C 961 -237 969 -257 986 -268 C 1002 -279 1029 -285 1065 -285 C 1089 -285 1119 -281 1155 -275 C 1191 -269 1220 -262 1243 -254 L 1303 -428 C 1260 -447 1213 -462 1161 -472 C 1109 -482 1063 -487 1022 -487 C 916 -487 838 -469 789 -434 C 739 -399 715 -344 715 -270 C 715 -216 729 -166 758 -120 C 786 -74 826 -34 877 0 L 152 0 L 152 1518 Z" unicode="Ę" />
<glyph horiz-adv-x="1268" d="M 842 -487 C 736 -487 658 -469 609 -434 C 559 -399 535 -344 535 -270 C 535 -221 546 -175 570 -132 C 594 -89 626 -53 666 -23 C 534 -21 424 0 336 39 C 248 79 182 143 138 229 C 94 315 72 432 72 582 C 72 728 94 844 140 932 C 185 1019 252 1083 342 1124 C 431 1165 542 1186 674 1186 C 850 1186 979 1144 1061 1061 C 1143 977 1187 840 1191 648 L 1191 568 L 1190 459 L 383 459 C 393 378 422 321 469 288 C 515 254 584 238 676 238 C 754 238 821 246 878 262 C 935 278 989 306 1040 344 L 1202 135 C 1128 80 1054 41 981 18 L 983 18 C 920 -20 870 -60 834 -100 C 798 -140 780 -175 780 -207 C 780 -237 788 -257 806 -268 C 823 -279 849 -285 885 -285 C 909 -285 939 -281 975 -275 C 1011 -269 1040 -262 1063 -254 L 1122 -428 C 1082 -446 1036 -461 984 -471 C 932 -481 885 -487 842 -487 Z M 664 918 C 576 918 509 900 464 864 C 419 828 392 770 383 688 L 897 688 C 893 752 883 799 867 829 C 851 859 826 881 794 896 C 762 910 718 918 664 918 Z" unicode="ę" />
<glyph horiz-adv-x="1407" d="M 219 1975 L 520 1975 L 706 1798 L 891 1975 L 1185 1975 L 868 1600 L 536 1600 L 219 1975 Z M 152 1518 L 1292 1518 L 1292 1214 L 487 1214 L 487 920 L 1272 920 L 1272 627 L 487 627 L 487 291 L 1300 291 L 1300 0 L 152 0 L 152 1518 Z" unicode="Ě" />
<glyph horiz-adv-x="1268" d="M 150 1645 L 451 1645 L 637 1468 L 822 1645 L 1116 1645 L 799 1270 L 467 1270 L 150 1645 Z M 676 -23 C 540 -23 428 -2 338 38 C 248 79 182 143 138 230 C 94 316 72 434 72 582 C 72 728 94 844 140 932 C 185 1019 252 1083 342 1124 C 431 1165 542 1186 674 1186 C 850 1186 979 1144 1061 1061 C 1143 977 1187 840 1191 648 L 1191 568 L 1190 459 L 383 459 C 390 405 404 363 426 332 C 447 301 477 278 517 262 C 556 246 609 238 676 238 C 754 238 821 246 878 262 C 935 278 989 306 1040 344 L 1202 135 C 1125 77 1046 37 964 13 C 882 -11 786 -23 676 -23 Z M 897 688 C 893 752 883 799 867 829 C 851 859 826 881 794 896 C 762 910 718 918 664 918 C 601 918 551 909 513 893 C 475 876 445 852 425 821 C 405 789 391 745 383 688 L 897 688 Z" unicode="ě" />
<glyph horiz-adv-x="1636" d="" unicode="Ğ" />
<glyph horiz-adv-x="1335" d="" unicode="ğ" />
<glyph horiz-adv-x="3598" d="M 553 539 C 396 539 276 582 192 668 C 108 754 66 878 66 1040 C 66 1200 108 1323 193 1411 C 277 1498 397 1542 553 1542 C 705 1542 823 1498 907 1411 C 991 1324 1034 1200 1034 1040 C 1034 878 992 754 908 668 C 824 582 705 539 553 539 Z M 553 778 C 619 778 668 799 700 842 C 732 885 748 951 748 1040 C 748 1209 683 1294 553 1294 C 419 1294 352 1209 352 1040 C 352 865 419 778 553 778 Z M 2003 -18 C 1847 -18 1727 25 1644 113 C 1561 200 1520 324 1520 485 C 1520 644 1562 767 1646 855 C 1730 943 1849 987 2003 987 C 2155 987 2273 943 2358 856 C 2443 769 2486 645 2486 485 C 2486 323 2444 199 2361 112 C 2277 25 2158 -18 2003 -18 Z M 2003 221 C 2069 221 2118 242 2151 284 C 2183 326 2200 393 2200 485 C 2200 569 2184 632 2152 674 C 2120 716 2070 737 2003 737 C 1937 737 1888 716 1855 676 C 1822 635 1806 571 1806 485 C 1806 396 1822 330 1854 286 C 1886 242 1935 221 2003 221 Z M 3049 -18 C 2893 -18 2773 25 2690 113 C 2607 200 2566 324 2566 485 C 2566 644 2608 767 2692 855 C 2776 943 2895 987 3049 987 C 3202 987 3321 943 3406 855 C 3490 767 3533 643 3533 485 C 3533 325 3491 201 3407 113 C 3323 25 3204 -18 3049 -18 Z M 3049 221 C 3116 221 3166 242 3198 286 C 3230 330 3246 396 3246 485 C 3246 653 3180 737 3049 737 C 2918 737 2853 653 2853 485 C 2853 394 2869 327 2902 285 C 2934 242 2983 221 3049 221 Z M 1550 1520 L 1849 1520 L 999 0 L 702 0 L 1550 1520 Z" unicode="‰" />
<glyph horiz-adv-x="1636" d="M 663 -541 C 706 -520 737 -503 757 -490 C 776 -477 789 -464 796 -452 C 803 -439 807 -420 807 -395 L 655 -395 L 655 -78 L 979 -78 L 979 -303 C 979 -384 972 -445 960 -485 C 948 -525 925 -559 891 -587 C 857 -615 805 -645 733 -676 L 663 -541 Z M 846 -23 C 661 -23 512 3 399 57 C 285 110 202 192 149 302 C 96 412 70 564 70 760 C 70 1024 136 1220 268 1349 C 400 1477 600 1542 868 1542 C 1140 1542 1345 1470 1483 1327 L 1253 1096 C 1196 1148 1137 1185 1076 1205 C 1014 1225 944 1235 866 1235 C 707 1235 591 1196 517 1119 C 443 1041 406 920 406 756 C 406 626 421 527 451 459 C 481 390 529 340 595 308 C 661 276 750 260 862 260 C 1000 260 1098 283 1156 329 C 1214 375 1243 456 1243 571 L 1243 604 L 819 604 L 819 883 L 1575 883 L 1575 635 C 1575 473 1550 346 1500 252 C 1450 158 1372 89 1266 44 C 1160 0 1020 -23 846 -23 Z" unicode="Ģ" />
<glyph horiz-adv-x="1335" d="M 504 1464 C 504 1548 510 1609 524 1648 C 538 1687 561 1720 595 1748 C 629 1776 682 1805 754 1837 L 820 1702 C 753 1668 713 1643 699 1627 C 685 1611 678 1587 678 1556 L 828 1556 L 828 1268 L 504 1268 L 504 1464 Z M 641 426 C 585 426 534 428 488 433 L 488 432 C 480 419 477 405 477 391 C 477 366 487 349 508 341 C 529 332 582 328 668 328 C 832 328 955 318 1037 300 C 1119 281 1178 250 1214 208 C 1250 165 1268 99 1268 10 C 1268 -122 1219 -218 1121 -278 C 1023 -337 861 -367 637 -367 C 467 -367 342 -358 262 -341 C 181 -323 123 -295 88 -255 C 52 -215 35 -158 35 -84 C 35 56 110 142 262 176 C 239 192 222 212 210 237 C 198 262 193 296 193 340 C 193 406 212 460 250 502 C 150 562 100 659 100 793 C 100 926 144 1025 233 1089 C 321 1153 457 1186 641 1186 L 706 1184 L 1221 1286 L 1221 1042 L 1056 1042 C 1102 1014 1135 981 1155 941 C 1174 901 1184 852 1184 793 C 1184 665 1140 571 1053 513 C 966 455 829 426 641 426 Z M 649 -145 C 755 -145 830 -135 874 -115 C 918 -95 940 -61 940 -12 C 940 28 920 56 880 71 C 840 86 763 94 649 94 C 575 94 517 90 475 83 C 433 75 403 64 385 48 C 367 32 358 7 358 -27 C 358 -59 367 -83 385 -99 C 403 -115 432 -126 472 -134 C 512 -141 571 -145 649 -145 Z M 641 639 C 719 639 777 650 813 672 C 849 694 868 732 868 788 C 868 841 850 879 815 903 C 780 926 722 938 641 938 C 558 938 499 926 465 903 C 431 880 414 842 414 788 C 414 734 431 695 467 673 C 503 650 561 639 641 639 Z" unicode="ģ" />
<glyph horiz-adv-x="1664" d="" unicode="Ω" />
<glyph horiz-adv-x="682" d="M 174 1518 L 508 1518 L 508 0 L 174 0 L 174 1518 Z M -87 1835 L 773 1835 L 773 1579 L -87 1579 L -87 1835 Z" unicode="Ī" />
<glyph horiz-adv-x="600" d="M 139 1159 L 459 1159 L 459 0 L 139 0 L 139 1159 Z M -128 1505 L 732 1505 L 732 1249 L -128 1249 L -128 1505 Z" unicode="ī" />
<glyph horiz-adv-x="682" d="M 174 1518 L 508 1518 L 508 0 C 372 -81 305 -150 305 -207 C 305 -237 313 -257 331 -268 C 348 -279 374 -285 410 -285 C 460 -285 512 -275 567 -256 L 627 -430 C 543 -468 457 -487 367 -487 C 261 -487 183 -469 133 -435 C 83 -400 59 -345 59 -270 C 59 -218 73 -169 102 -123 C 130 -76 173 -35 229 0 L 174 0 L 174 1518 Z" unicode="Į" />
<glyph horiz-adv-x="600" d="M 139 1159 L 459 1159 L 459 0 C 323 -81 256 -150 256 -207 C 256 -237 264 -257 281 -268 C 297 -279 324 -285 360 -285 C 410 -285 463 -275 518 -256 L 578 -430 C 494 -468 407 -487 317 -487 C 212 -487 135 -469 85 -435 C 35 -400 10 -345 10 -270 C 10 -217 24 -167 53 -121 C 81 -74 124 -34 180 0 L 139 0 L 139 1159 Z M 137 1559 L 461 1559 L 461 1266 L 137 1266 L 137 1559 Z" unicode="į" />
<glyph horiz-adv-x="682" d="" unicode="İ" />
<glyph horiz-adv-x="600" d="M 139 1159 L 459 1159 L 459 0 L 139 0 L 139 1159 Z" unicode="ı" />
<glyph horiz-adv-x="1556" d="M 622 -541 C 665 -520 696 -503 716 -490 C 735 -477 748 -464 755 -452 C 762 -439 766 -420 766 -395 L 614 -395 L 614 -78 L 938 -78 L 938 -303 C 938 -384 931 -445 919 -485 C 907 -525 884 -559 850 -587 C 816 -615 764 -645 692 -676 L 622 -541 Z M 152 1518 L 483 1518 L 483 832 L 1059 1518 L 1430 1518 L 917 917 L 1503 0 L 1124 0 L 699 661 L 483 408 L 483 0 L 152 0 L 152 1518 Z" unicode="Ķ" />
<glyph horiz-adv-x="1239" d="M 462 -541 C 505 -520 536 -503 556 -490 C 575 -477 588 -464 595 -452 C 602 -439 606 -420 606 -395 L 454 -395 L 454 -78 L 778 -78 L 778 -303 C 778 -384 771 -445 759 -485 C 747 -525 724 -559 690 -587 C 656 -615 604 -645 532 -676 L 462 -541 Z M 127 1589 L 444 1589 L 444 680 L 840 1159 L 1190 1159 L 801 686 L 1225 0 L 868 0 L 585 446 L 444 281 L 444 0 L 127 0 L 127 1589 Z" unicode="ķ" />
<glyph horiz-adv-x="1264" d="M 468 1975 L 855 1975 L 464 1600 L 179 1600 L 468 1975 Z M 152 1518 L 487 1518 L 487 291 L 1233 291 L 1233 0 L 152 0 L 152 1518 Z" unicode="Ĺ" />
<glyph horiz-adv-x="698" d="M 437 2046 L 824 2046 L 433 1671 L 148 1671 L 437 2046 Z M 457 -4 C 341 -4 259 23 211 79 C 163 135 139 225 139 350 L 139 1589 L 459 1589 L 459 389 C 459 341 466 308 480 292 C 494 276 525 268 573 268 L 612 268 L 612 4 C 576 -1 525 -4 457 -4 Z" unicode="ĺ" />
<glyph horiz-adv-x="1264" d="M 477 -541 C 520 -520 551 -503 571 -490 C 590 -477 603 -464 610 -452 C 617 -439 621 -420 621 -395 L 469 -395 L 469 -78 L 793 -78 L 793 -303 C 793 -384 786 -445 774 -485 C 762 -525 739 -559 705 -587 C 671 -615 619 -645 547 -676 L 477 -541 Z M 152 1518 L 487 1518 L 487 291 L 1233 291 L 1233 0 L 152 0 L 152 1518 Z" unicode="Ļ" />
<glyph horiz-adv-x="698" d="M 194 -541 C 237 -520 268 -503 288 -490 C 307 -477 320 -464 327 -452 C 334 -439 338 -420 338 -395 L 186 -395 L 186 -78 L 510 -78 L 510 -303 C 510 -384 503 -445 491 -485 C 479 -525 456 -559 422 -587 C 388 -615 336 -645 264 -676 L 194 -541 Z M 457 -4 C 341 -4 259 23 211 79 C 163 135 139 225 139 350 L 139 1589 L 459 1589 L 459 389 C 459 341 466 308 480 292 C 494 276 525 268 573 268 L 612 268 L 612 4 C 576 -1 525 -4 457 -4 Z" unicode="ļ" />
<glyph horiz-adv-x="1264" d="M 629 1128 C 693 1158 732 1182 748 1198 C 764 1214 772 1238 772 1272 L 637 1272 L 637 1589 L 944 1589 L 944 1364 C 944 1278 937 1215 923 1177 C 909 1138 886 1105 853 1077 C 819 1049 768 1021 698 991 L 629 1128 Z M 152 1518 L 487 1518 L 487 291 L 1233 291 L 1233 0 L 152 0 L 152 1518 Z" unicode="Ľ" />
<glyph horiz-adv-x="907" d="M 590 1128 C 654 1158 693 1182 709 1198 C 725 1214 733 1238 733 1272 L 598 1272 L 598 1589 L 905 1589 L 905 1364 C 905 1278 898 1215 884 1177 C 870 1138 847 1105 814 1077 C 780 1049 729 1021 659 991 L 590 1128 Z M 457 -4 C 341 -4 259 23 211 79 C 163 135 139 225 139 350 L 139 1589 L 459 1589 L 459 389 C 459 341 466 308 480 292 C 494 276 525 268 573 268 L 612 268 L 612 4 C 576 -1 525 -4 457 -4 Z" unicode="ľ" />
<glyph horiz-adv-x="1264" d="M 0 801 L 152 884 L 152 1518 L 487 1518 L 487 1068 L 768 1223 L 768 952 L 487 797 L 487 291 L 1233 291 L 1233 0 L 152 0 L 152 613 L 0 530 L 0 801 Z" unicode="Ł" />
<glyph horiz-adv-x="829" d="M 49 932 L 229 1035 L 229 1589 L 549 1589 L 549 1219 L 737 1327 L 737 1057 L 549 949 L 549 389 C 549 341 556 308 570 292 C 584 276 614 268 662 268 L 702 268 L 702 4 C 666 -1 615 -4 547 -4 C 431 -4 349 23 301 78 C 253 133 229 224 229 350 L 229 765 L 49 662 L 49 932 Z" unicode="ł" />
<glyph horiz-adv-x="1686" d="M 918 1975 L 1305 1975 L 914 1600 L 629 1600 L 918 1975 Z M 152 1518 L 514 1518 L 1212 561 L 1212 1518 L 1532 1518 L 1532 0 L 1225 0 L 473 1024 L 473 0 L 152 0 L 152 1518 Z" unicode="Ń" />
<glyph horiz-adv-x="1360" d="M 756 1645 L 1143 1645 L 752 1270 L 467 1270 L 756 1645 Z M 127 1141 L 377 1159 L 403 1059 C 481 1143 621 1186 823 1186 C 923 1186 1004 1169 1064 1137 C 1124 1105 1169 1056 1197 991 C 1225 926 1239 830 1239 702 L 1239 0 L 920 0 L 920 639 C 920 710 913 761 900 791 C 886 821 865 843 835 859 C 805 875 763 883 709 883 C 645 883 595 874 557 857 C 519 839 491 813 474 779 C 457 745 449 693 449 625 L 449 0 L 127 0 L 127 1141 Z" unicode="ń" />
<glyph horiz-adv-x="1686" d="M 686 -541 C 729 -520 760 -503 780 -490 C 799 -477 812 -464 819 -452 C 826 -439 830 -420 830 -395 L 678 -395 L 678 -78 L 1002 -78 L 1002 -303 C 1002 -384 995 -445 983 -485 C 971 -525 948 -559 914 -587 C 880 -615 828 -645 756 -676 L 686 -541 Z M 152 1518 L 514 1518 L 1212 561 L 1212 1518 L 1532 1518 L 1532 0 L 1225 0 L 473 1024 L 473 0 L 152 0 L 152 1518 Z" unicode="Ņ" />
<glyph horiz-adv-x="1360" d="M 524 -541 C 567 -520 598 -503 618 -490 C 637 -477 650 -464 657 -452 C 664 -439 668 -420 668 -395 L 516 -395 L 516 -78 L 840 -78 L 840 -303 C 840 -384 833 -445 821 -485 C 809 -525 786 -559 752 -587 C 718 -615 666 -645 594 -676 L 524 -541 Z M 127 1141 L 377 1159 L 403 1059 C 481 1143 621 1186 823 1186 C 923 1186 1004 1169 1064 1137 C 1124 1105 1169 1056 1197 991 C 1225 926 1239 830 1239 702 L 1239 0 L 920 0 L 920 639 C 920 710 913 761 900 791 C 886 821 865 843 835 859 C 805 875 763 883 709 883 C 645 883 595 874 557 857 C 519 839 491 813 474 779 C 457 745 449 693 449 625 L 449 0 L 127 0 L 127 1141 Z" unicode="ņ" />
<glyph horiz-adv-x="1686" d="M 357 1975 L 658 1975 L 844 1798 L 1029 1975 L 1323 1975 L 1006 1600 L 674 1600 L 357 1975 Z M 152 1518 L 514 1518 L 1212 561 L 1212 1518 L 1532 1518 L 1532 0 L 1225 0 L 473 1024 L 473 0 L 152 0 L 152 1518 Z" unicode="Ň" />
<glyph horiz-adv-x="1360" d="M 195 1645 L 496 1645 L 682 1468 L 867 1645 L 1161 1645 L 844 1270 L 512 1270 L 195 1645 Z M 127 1141 L 377 1159 L 403 1059 C 481 1143 621 1186 823 1186 C 923 1186 1004 1169 1064 1137 C 1124 1105 1169 1056 1197 991 C 1225 926 1239 830 1239 702 L 1239 0 L 920 0 L 920 639 C 920 710 913 761 900 791 C 886 821 865 843 835 859 C 805 875 763 883 709 883 C 645 883 595 874 557 857 C 519 839 491 813 474 779 C 457 745 449 693 449 625 L 449 0 L 127 0 L 127 1141 Z" unicode="ň" />
<glyph horiz-adv-x="1747" d="M 442 1835 L 1302 1835 L 1302 1579 L 442 1579 L 442 1835 Z M 872 -25 C 337 -25 70 236 70 760 C 70 1281 337 1542 872 1542 C 1408 1542 1677 1281 1677 760 C 1677 236 1408 -25 872 -25 Z M 872 270 C 1029 270 1146 309 1222 387 C 1298 465 1337 587 1337 754 C 1337 921 1298 1043 1222 1120 C 1146 1196 1029 1235 872 1235 C 715 1235 598 1196 522 1120 C 446 1043 408 921 408 754 C 408 587 446 465 522 387 C 598 309 714 270 872 270 Z" unicode="Ō" />
<glyph horiz-adv-x="1354" d="M 246 1505 L 1106 1505 L 1106 1249 L 246 1249 L 246 1505 Z M 678 -23 C 472 -23 319 26 220 124 C 121 222 72 375 72 582 C 72 787 121 939 219 1038 C 317 1136 470 1186 678 1186 C 884 1186 1036 1137 1134 1039 C 1232 941 1282 788 1282 582 C 1282 374 1232 221 1133 123 C 1033 25 882 -23 678 -23 Z M 678 252 C 775 252 846 277 892 327 C 938 377 961 459 961 573 C 961 687 938 768 892 818 C 846 868 775 893 678 893 C 580 893 508 868 463 818 C 417 768 395 686 395 573 C 395 459 417 377 463 327 C 508 277 580 252 678 252 Z" unicode="ō" />
<glyph horiz-adv-x="1747" d="M 639 1975 L 1009 1975 L 649 1600 L 381 1600 L 639 1975 Z M 1192 1975 L 1562 1975 L 1202 1600 L 934 1600 L 1192 1975 Z M 872 -25 C 337 -25 70 236 70 760 C 70 1281 337 1542 872 1542 C 1408 1542 1677 1281 1677 760 C 1677 236 1408 -25 872 -25 Z M 872 270 C 1029 270 1146 309 1222 387 C 1298 465 1337 587 1337 754 C 1337 921 1298 1043 1222 1120 C 1146 1196 1029 1235 872 1235 C 715 1235 598 1196 522 1120 C 446 1043 408 921 408 754 C 408 587 446 465 522 387 C 598 309 714 270 872 270 Z" unicode="Ő" />
<glyph horiz-adv-x="1354" d="M 443 1645 L 813 1645 L 453 1270 L 185 1270 L 443 1645 Z M 996 1645 L 1366 1645 L 1006 1270 L 738 1270 L 996 1645 Z M 678 -23 C 472 -23 319 26 220 124 C 121 222 72 375 72 582 C 72 787 121 939 219 1038 C 317 1136 470 1186 678 1186 C 884 1186 1036 1137 1134 1039 C 1232 941 1282 788 1282 582 C 1282 374 1232 221 1133 123 C 1033 25 882 -23 678 -23 Z M 678 252 C 775 252 846 277 892 327 C 938 377 961 459 961 573 C 961 687 938 768 892 818 C 846 868 775 893 678 893 C 580 893 508 868 463 818 C 417 768 395 686 395 573 C 395 459 417 377 463 327 C 508 277 580 252 678 252 Z" unicode="ő" />
<glyph horiz-adv-x="2585" d="M 1362 1518 L 2468 1518 L 2468 1214 L 1665 1214 L 1665 920 L 2447 920 L 2447 627 L 1665 627 L 1665 291 L 2476 291 L 2476 0 L 1362 0 L 1362 117 C 1244 22 1080 -25 872 -25 C 601 -25 400 40 268 171 C 136 302 70 498 70 760 C 70 1020 136 1216 268 1346 C 400 1476 602 1542 872 1542 C 1080 1542 1244 1494 1362 1400 L 1362 1518 Z M 872 270 C 1030 270 1147 308 1223 384 C 1299 460 1337 584 1337 754 C 1337 924 1298 1047 1222 1122 C 1146 1197 1029 1235 872 1235 C 714 1235 597 1197 521 1121 C 445 1045 408 923 408 754 C 408 584 446 461 522 385 C 598 308 714 270 872 270 Z" unicode="Œ" />
<glyph horiz-adv-x="2157" d="M 1567 -23 C 1356 -23 1206 24 1117 120 C 1026 24 880 -23 678 -23 C 468 -23 315 24 218 120 C 120 216 72 370 72 582 C 72 793 120 946 217 1042 C 314 1138 468 1186 678 1186 C 782 1186 870 1173 942 1149 C 1013 1125 1072 1089 1119 1041 C 1209 1137 1358 1186 1565 1186 C 1741 1186 1870 1144 1952 1061 C 2034 977 2078 840 2082 648 L 2082 568 L 2081 459 L 1272 459 C 1279 405 1293 363 1315 332 C 1336 301 1366 278 1406 262 C 1446 246 1499 238 1567 238 C 1645 238 1712 246 1769 262 C 1826 278 1880 306 1931 344 L 2093 135 C 2015 76 1936 35 1856 12 C 1776 -11 1680 -23 1567 -23 Z M 678 252 C 775 252 846 277 892 327 C 938 377 961 459 961 573 C 961 687 938 768 892 818 C 846 868 775 893 678 893 C 580 893 508 868 463 818 C 417 768 395 686 395 573 C 395 459 417 377 463 327 C 508 277 580 252 678 252 Z M 1788 688 C 1784 760 1774 809 1759 837 C 1743 864 1720 884 1688 898 C 1656 911 1611 918 1554 918 C 1491 918 1440 909 1402 892 C 1364 875 1334 851 1314 819 C 1294 787 1280 744 1272 688 L 1788 688 Z" unicode="œ" />
<glyph horiz-adv-x="1581" d="M 866 1975 L 1253 1975 L 862 1600 L 577 1600 L 866 1975 Z M 152 1518 L 885 1518 C 1024 1518 1137 1500 1223 1465 C 1309 1430 1373 1378 1415 1308 C 1456 1238 1477 1142 1477 1022 C 1477 890 1450 785 1396 707 C 1342 629 1262 574 1157 542 L 1458 0 L 1100 0 L 820 504 L 479 504 L 479 0 L 152 0 L 152 1518 Z M 874 793 C 974 793 1044 809 1082 842 C 1120 875 1139 931 1139 1010 C 1139 1094 1119 1151 1080 1183 C 1040 1215 970 1231 870 1231 L 479 1231 L 479 793 L 874 793 Z" unicode="Ŕ" />
<glyph horiz-adv-x="827" d="M 497 1645 L 884 1645 L 493 1270 L 208 1270 L 497 1645 Z M 127 1141 L 377 1159 L 410 1032 C 433 1068 478 1100 545 1127 C 612 1153 690 1168 780 1171 L 780 864 C 698 863 634 853 587 834 C 539 815 504 786 482 746 C 460 706 449 649 449 573 L 449 0 L 127 0 L 127 1141 Z" unicode="ŕ" />
<glyph horiz-adv-x="1581" d="M 634 -541 C 677 -520 708 -503 728 -490 C 747 -477 760 -464 767 -452 C 774 -439 778 -420 778 -395 L 626 -395 L 626 -78 L 950 -78 L 950 -303 C 950 -384 943 -445 931 -485 C 919 -525 896 -559 862 -587 C 828 -615 776 -645 704 -676 L 634 -541 Z M 152 1518 L 885 1518 C 1024 1518 1137 1500 1223 1465 C 1309 1430 1373 1378 1415 1308 C 1456 1238 1477 1142 1477 1022 C 1477 890 1450 785 1396 707 C 1342 629 1262 574 1157 542 L 1458 0 L 1100 0 L 820 504 L 479 504 L 479 0 L 152 0 L 152 1518 Z M 874 793 C 974 793 1044 809 1082 842 C 1120 875 1139 931 1139 1010 C 1139 1094 1119 1151 1080 1183 C 1040 1215 970 1231 870 1231 L 479 1231 L 479 793 L 874 793 Z" unicode="Ŗ" />
<glyph horiz-adv-x="827" d="M 134 -541 C 177 -520 208 -503 228 -490 C 247 -477 260 -464 267 -452 C 274 -439 278 -420 278 -395 L 126 -395 L 126 -78 L 450 -78 L 450 -303 C 450 -384 443 -445 431 -485 C 419 -525 396 -559 362 -587 C 328 -615 276 -645 204 -676 L 134 -541 Z M 127 1141 L 377 1159 L 410 1032 C 433 1068 478 1100 545 1127 C 612 1153 690 1168 780 1171 L 780 864 C 698 863 634 853 587 834 C 539 815 504 786 482 746 C 460 706 449 649 449 573 L 449 0 L 127 0 L 127 1141 Z" unicode="ŗ" />
<glyph horiz-adv-x="1581" d="M 305 1975 L 606 1975 L 792 1798 L 977 1975 L 1271 1975 L 954 1600 L 622 1600 L 305 1975 Z M 152 1518 L 885 1518 C 1024 1518 1137 1500 1223 1465 C 1309 1430 1373 1378 1415 1308 C 1456 1238 1477 1142 1477 1022 C 1477 890 1450 785 1396 707 C 1342 629 1262 574 1157 542 L 1458 0 L 1100 0 L 820 504 L 479 504 L 479 0 L 152 0 L 152 1518 Z M 874 793 C 974 793 1044 809 1082 842 C 1120 875 1139 931 1139 1010 C 1139 1094 1119 1151 1080 1183 C 1040 1215 970 1231 870 1231 L 479 1231 L 479 793 L 874 793 Z" unicode="Ř" />
<glyph horiz-adv-x="813" d="M -75 1645 L 226 1645 L 412 1468 L 597 1645 L 891 1645 L 574 1270 L 242 1270 L -75 1645 Z M 127 1141 L 377 1159 L 410 1032 C 433 1068 478 1100 545 1127 C 612 1153 690 1168 780 1171 L 780 864 C 698 863 634 853 587 834 C 539 815 504 786 482 746 C 460 706 449 649 449 573 L 449 0 L 127 0 L 127 1141 Z" unicode="ř" />
<glyph horiz-adv-x="1518" d="M 836 1975 L 1223 1975 L 832 1600 L 547 1600 L 836 1975 Z M 768 -23 C 616 -23 480 -5 358 28 C 236 62 131 112 45 176 L 213 418 C 373 310 555 256 758 256 C 848 256 918 261 968 273 C 1018 284 1055 302 1077 326 C 1099 350 1110 388 1110 440 C 1110 475 1099 503 1078 525 C 1057 547 1024 565 978 579 C 932 593 856 608 750 623 C 572 647 444 677 364 712 C 284 746 225 793 188 852 C 151 911 133 988 133 1083 C 133 1245 182 1362 281 1434 C 380 1506 542 1542 766 1542 C 1024 1542 1229 1492 1380 1393 L 1200 1133 C 1149 1167 1082 1194 1000 1216 C 917 1238 838 1249 762 1249 C 686 1249 627 1244 585 1234 C 543 1224 512 1208 494 1187 C 476 1165 467 1134 467 1092 C 467 1058 476 1031 496 1010 C 515 989 545 972 585 958 C 625 944 708 929 834 911 C 976 891 1082 869 1152 846 C 1222 823 1277 795 1319 761 C 1360 727 1391 684 1411 634 C 1431 583 1442 524 1442 457 C 1442 287 1387 165 1278 90 C 1169 14 999 -23 768 -23 Z" unicode="Ś" />
<glyph horiz-adv-x="1174" d="M 667 1645 L 1054 1645 L 663 1270 L 378 1270 L 667 1645 Z M 573 -18 C 348 -18 164 30 20 127 L 184 362 C 242 324 307 295 381 274 C 455 252 526 242 594 242 C 681 242 738 248 764 262 C 790 275 803 300 803 338 C 803 358 798 373 788 385 C 778 397 763 406 741 414 C 719 421 671 430 598 440 C 490 454 414 468 369 480 C 323 492 283 508 249 526 C 214 544 185 566 163 593 C 140 619 122 651 110 688 C 98 724 92 769 92 823 C 92 948 133 1040 215 1098 C 297 1156 424 1186 598 1186 C 693 1186 783 1176 869 1158 C 955 1139 1027 1113 1087 1079 L 934 829 C 886 853 833 872 773 885 C 713 898 658 905 608 905 C 559 905 520 902 492 897 C 463 891 442 883 430 872 C 418 860 412 843 412 821 C 412 790 424 768 449 755 C 473 742 524 731 602 721 C 676 711 744 699 807 687 C 869 675 923 656 969 631 C 1015 606 1051 572 1077 529 C 1103 485 1116 428 1116 356 C 1116 263 1098 190 1062 137 C 1026 84 970 45 892 20 C 814 -5 707 -18 573 -18 Z" unicode="ś" />
<glyph horiz-adv-x="995" d="M 512 580 L 227 1159 L 516 1159 L 825 580 L 516 0 L 227 0 L 512 580 Z" unicode="›" />
<glyph horiz-adv-x="1518" d="M 768 -23 C 616 -23 480 -5 358 28 C 236 62 131 112 45 176 L 213 418 C 373 310 555 256 758 256 C 848 256 918 261 968 273 C 1018 284 1055 302 1077 326 C 1099 350 1110 388 1110 440 C 1110 475 1099 503 1078 525 C 1057 547 1024 565 978 579 C 932 593 856 608 750 623 C 572 647 444 677 364 712 C 284 746 225 793 188 852 C 151 911 133 988 133 1083 C 133 1245 182 1362 281 1434 C 380 1506 542 1542 766 1542 C 1024 1542 1229 1492 1380 1393 L 1200 1133 C 1149 1167 1082 1194 1000 1216 C 917 1238 838 1249 762 1249 C 686 1249 627 1244 585 1234 C 543 1224 512 1208 494 1187 C 476 1165 467 1134 467 1092 C 467 1058 476 1031 496 1010 C 515 989 545 972 585 958 C 625 944 708 929 834 911 C 976 891 1082 869 1152 846 C 1222 823 1277 795 1319 761 C 1360 727 1391 684 1411 634 C 1431 583 1442 524 1442 457 C 1442 287 1387 165 1278 90 C 1169 14 999 -23 768 -23 Z M 758 -510 C 656 -510 564 -487 484 -442 L 564 -293 C 629 -325 690 -342 746 -342 C 794 -342 828 -335 847 -322 C 865 -308 875 -287 875 -258 C 875 -232 865 -214 846 -202 C 826 -190 795 -184 751 -184 L 695 -186 L 633 -147 L 668 14 L 848 14 L 830 -86 L 851 -86 C 917 -86 965 -92 994 -105 C 1022 -118 1045 -138 1061 -166 C 1077 -194 1086 -232 1086 -281 C 1086 -358 1059 -415 1006 -453 C 953 -491 870 -510 758 -510 Z" unicode="Ş" />
<glyph horiz-adv-x="1174" d="M 573 -18 C 348 -18 164 30 20 127 L 184 362 C 242 324 307 295 381 274 C 455 252 526 242 594 242 C 681 242 738 248 764 262 C 790 275 803 300 803 338 C 803 358 798 373 788 385 C 778 397 763 406 741 414 C 719 421 671 430 598 440 C 490 454 414 468 369 480 C 323 492 283 508 249 526 C 214 544 185 566 163 593 C 140 619 122 651 110 688 C 98 724 92 769 92 823 C 92 948 133 1040 215 1098 C 297 1156 424 1186 598 1186 C 693 1186 783 1176 869 1158 C 955 1139 1027 1113 1087 1079 L 934 829 C 886 853 833 872 773 885 C 713 898 658 905 608 905 C 559 905 520 902 492 897 C 463 891 442 883 430 872 C 418 860 412 843 412 821 C 412 790 424 768 449 755 C 473 742 524 731 602 721 C 676 711 744 699 807 687 C 869 675 923 656 969 631 C 1015 606 1051 572 1077 529 C 1103 485 1116 428 1116 356 C 1116 263 1098 190 1062 137 C 1026 84 970 45 892 20 C 814 -5 707 -18 573 -18 Z M 589 -510 C 487 -510 395 -487 315 -442 L 395 -293 C 460 -325 521 -342 577 -342 C 625 -342 659 -335 678 -322 C 696 -308 706 -287 706 -258 C 706 -232 696 -214 677 -202 C 657 -190 626 -184 582 -184 L 526 -186 L 464 -147 L 499 14 L 679 14 L 661 -86 L 682 -86 C 748 -86 796 -92 825 -105 C 853 -118 876 -138 892 -166 C 908 -194 917 -232 917 -281 C 917 -358 890 -415 837 -453 C 784 -491 701 -510 589 -510 Z" unicode="ş" />
<glyph horiz-adv-x="1518" d="M 275 1975 L 576 1975 L 762 1798 L 947 1975 L 1241 1975 L 924 1600 L 592 1600 L 275 1975 Z M 768 -23 C 616 -23 480 -5 358 28 C 236 62 131 112 45 176 L 213 418 C 373 310 555 256 758 256 C 848 256 918 261 968 273 C 1018 284 1055 302 1077 326 C 1099 350 1110 388 1110 440 C 1110 475 1099 503 1078 525 C 1057 547 1024 565 978 579 C 932 593 856 608 750 623 C 572 647 444 677 364 712 C 284 746 225 793 188 852 C 151 911 133 988 133 1083 C 133 1245 182 1362 281 1434 C 380 1506 542 1542 766 1542 C 1024 1542 1229 1492 1380 1393 L 1200 1133 C 1149 1167 1082 1194 1000 1216 C 917 1238 838 1249 762 1249 C 686 1249 627 1244 585 1234 C 543 1224 512 1208 494 1187 C 476 1165 467 1134 467 1092 C 467 1058 476 1031 496 1010 C 515 989 545 972 585 958 C 625 944 708 929 834 911 C 976 891 1082 869 1152 846 C 1222 823 1277 795 1319 761 C 1360 727 1391 684 1411 634 C 1431 583 1442 524 1442 457 C 1442 287 1387 165 1278 90 C 1169 14 999 -23 768 -23 Z" unicode="Š" />
<glyph horiz-adv-x="1174" d="M 106 1645 L 407 1645 L 593 1468 L 778 1645 L 1072 1645 L 755 1270 L 423 1270 L 106 1645 Z M 573 -18 C 348 -18 164 30 20 127 L 184 362 C 242 324 307 295 381 274 C 455 252 526 242 594 242 C 681 242 738 248 764 262 C 790 275 803 300 803 338 C 803 358 798 373 788 385 C 778 397 763 406 741 414 C 719 421 671 430 598 440 C 490 454 414 468 369 480 C 323 492 283 508 249 526 C 214 544 185 566 163 593 C 140 619 122 651 110 688 C 98 724 92 769 92 823 C 92 948 133 1040 215 1098 C 297 1156 424 1186 598 1186 C 693 1186 783 1176 869 1158 C 955 1139 1027 1113 1087 1079 L 934 829 C 886 853 833 872 773 885 C 713 898 658 905 608 905 C 559 905 520 902 492 897 C 463 891 442 883 430 872 C 418 860 412 843 412 821 C 412 790 424 768 449 755 C 473 742 524 731 602 721 C 676 711 744 699 807 687 C 869 675 923 656 969 631 C 1015 606 1051 572 1077 529 C 1103 485 1116 428 1116 356 C 1116 263 1098 190 1062 137 C 1026 84 970 45 892 20 C 814 -5 707 -18 573 -18 Z" unicode="š" />
<glyph horiz-adv-x="1446" d="M 567 -541 C 610 -520 641 -503 661 -490 C 680 -477 693 -464 700 -452 C 707 -439 711 -420 711 -395 L 559 -395 L 559 -78 L 883 -78 L 883 -303 C 883 -384 876 -445 864 -485 C 852 -525 829 -559 795 -587 C 761 -615 709 -645 637 -676 L 567 -541 Z M 555 1214 L 29 1214 L 29 1518 L 1417 1518 L 1417 1214 L 893 1214 L 893 0 L 555 0 L 555 1214 Z" unicode="Ţ" />
<glyph horiz-adv-x="928" d="M 258 -541 C 301 -520 332 -503 352 -490 C 371 -477 384 -464 391 -452 C 398 -439 402 -420 402 -395 L 250 -395 L 250 -78 L 574 -78 L 574 -303 C 574 -384 567 -445 555 -485 C 543 -525 520 -559 486 -587 C 452 -615 400 -645 328 -676 L 258 -541 Z M 51 1159 L 257 1159 L 311 1442 L 561 1493 L 561 1159 L 836 1159 L 836 885 L 561 885 L 561 408 C 561 364 565 334 575 317 C 584 300 599 288 620 280 C 640 272 671 268 711 268 L 836 268 L 836 0 C 812 -2 764 -4 692 -4 L 645 -4 C 544 -4 465 7 407 30 C 349 53 307 90 281 140 C 255 190 242 264 242 360 L 242 885 L 51 885 L 51 1159 Z" unicode="ţ" />
<glyph horiz-adv-x="1446" d="M 238 1975 L 539 1975 L 725 1798 L 910 1975 L 1204 1975 L 887 1600 L 555 1600 L 238 1975 Z M 555 1214 L 29 1214 L 29 1518 L 1417 1518 L 1417 1214 L 893 1214 L 893 0 L 555 0 L 555 1214 Z" unicode="Ť" />
<glyph horiz-adv-x="928" d="M 672 1427 C 723 1453 756 1471 770 1482 C 784 1493 794 1505 800 1517 C 806 1529 809 1546 809 1569 L 680 1569 L 680 1870 L 971 1870 L 971 1655 C 971 1573 964 1514 952 1478 C 940 1442 918 1410 888 1384 C 857 1358 807 1329 737 1298 L 672 1427 Z M 51 1159 L 257 1159 L 311 1442 L 561 1493 L 561 1159 L 836 1159 L 836 885 L 561 885 L 561 408 C 561 364 565 334 575 317 C 584 300 599 288 620 280 C 640 272 671 268 711 268 L 836 268 L 836 0 C 812 -2 764 -4 692 -4 L 645 -4 C 544 -4 465 7 407 30 C 349 53 307 90 281 140 C 255 190 242 264 242 360 L 242 885 L 51 885 L 51 1159 Z" unicode="ť" />
<glyph horiz-adv-x="1671" d="M 836 -29 C 714 -29 609 -17 521 6 C 433 29 362 63 306 108 C 250 152 209 211 182 284 C 154 356 141 455 141 580 L 141 1518 L 477 1518 L 477 623 C 477 527 488 455 512 407 C 535 359 573 324 625 302 C 677 279 748 268 840 268 C 931 268 1003 279 1055 301 C 1107 323 1145 358 1169 406 C 1192 454 1204 526 1204 623 L 1204 1518 L 1530 1518 L 1530 580 C 1530 454 1516 355 1488 283 C 1460 211 1419 152 1364 108 C 1308 63 1237 29 1150 6 C 1062 -17 958 -29 836 -29 Z M 403 1835 L 1263 1835 L 1263 1579 L 403 1579 L 403 1835 Z" unicode="Ū" />
<glyph horiz-adv-x="1343" d="M 674 -18 C 532 -18 422 0 344 34 C 265 68 208 124 173 200 C 138 276 121 389 121 541 L 121 1159 L 442 1159 L 442 535 C 442 494 443 457 446 423 C 448 389 457 360 472 336 C 487 312 510 293 542 280 C 574 266 618 260 676 260 C 736 260 782 268 815 284 C 848 300 872 323 886 355 C 900 386 907 447 907 537 L 907 1159 L 1223 1159 L 1223 543 C 1223 391 1205 276 1171 200 C 1136 123 1079 67 1001 33 C 923 0 814 -18 674 -18 Z M 242 1505 L 1102 1505 L 1102 1249 L 242 1249 L 242 1505 Z" unicode="ū" />
<glyph horiz-adv-x="1671" d="M 833 1567 C 739 1567 666 1592 616 1644 C 565 1695 540 1768 540 1864 C 540 1959 565 2033 616 2086 C 666 2138 739 2165 833 2165 C 923 2165 994 2138 1046 2085 C 1098 2031 1124 1958 1124 1864 C 1124 1770 1098 1697 1046 1645 C 994 1593 923 1567 833 1567 Z M 833 1725 C 877 1725 909 1737 931 1761 C 953 1785 964 1820 964 1864 C 964 1911 952 1946 929 1970 C 906 1993 874 2005 833 2005 C 744 2005 700 1958 700 1864 C 700 1771 744 1725 833 1725 Z M 836 -29 C 714 -29 609 -17 521 6 C 433 29 362 63 306 108 C 250 152 209 211 182 284 C 154 356 141 455 141 580 L 141 1518 L 477 1518 L 477 623 C 477 527 488 455 512 407 C 535 359 573 324 625 302 C 677 279 748 268 840 268 C 931 268 1003 279 1055 301 C 1107 323 1145 358 1169 406 C 1192 454 1204 526 1204 623 L 1204 1518 L 1530 1518 L 1530 580 C 1530 454 1516 355 1488 283 C 1460 211 1419 152 1364 108 C 1308 63 1237 29 1150 6 C 1062 -17 958 -29 836 -29 Z" unicode="Ů" />
<glyph horiz-adv-x="1343" d="M 672 1237 C 578 1237 505 1262 455 1314 C 404 1365 379 1438 379 1534 C 379 1629 404 1703 455 1756 C 505 1808 578 1835 672 1835 C 762 1835 833 1808 885 1755 C 937 1701 963 1628 963 1534 C 963 1440 937 1367 885 1315 C 833 1263 762 1237 672 1237 Z M 672 1395 C 716 1395 748 1407 770 1431 C 792 1455 803 1490 803 1534 C 803 1581 791 1616 768 1640 C 745 1663 713 1675 672 1675 C 583 1675 539 1628 539 1534 C 539 1441 583 1395 672 1395 Z M 674 -18 C 532 -18 422 0 344 34 C 265 68 208 124 173 200 C 138 276 121 389 121 541 L 121 1159 L 442 1159 L 442 535 C 442 494 443 457 446 423 C 448 389 457 360 472 336 C 487 312 510 293 542 280 C 574 266 618 260 676 260 C 736 260 782 268 815 284 C 848 300 872 323 886 355 C 900 386 907 447 907 537 L 907 1159 L 1223 1159 L 1223 543 C 1223 391 1205 276 1171 200 C 1136 123 1079 67 1001 33 C 923 0 814 -18 674 -18 Z" unicode="ů" />
<glyph horiz-adv-x="1671" d="M 836 -29 C 714 -29 609 -17 521 6 C 433 29 362 63 306 108 C 250 152 209 211 182 284 C 154 356 141 455 141 580 L 141 1518 L 477 1518 L 477 623 C 477 527 488 455 512 407 C 535 359 573 324 625 302 C 677 279 748 268 840 268 C 931 268 1003 279 1055 301 C 1107 323 1145 358 1169 406 C 1192 454 1204 526 1204 623 L 1204 1518 L 1530 1518 L 1530 580 C 1530 454 1516 355 1488 283 C 1460 211 1419 152 1364 108 C 1308 63 1237 29 1150 6 C 1062 -17 958 -29 836 -29 Z M 600 1975 L 970 1975 L 610 1600 L 342 1600 L 600 1975 Z M 1153 1975 L 1523 1975 L 1163 1600 L 895 1600 L 1153 1975 Z" unicode="Ű" />
<glyph horiz-adv-x="1343" d="M 674 -18 C 532 -18 422 0 344 34 C 265 68 208 124 173 200 C 138 276 121 389 121 541 L 121 1159 L 442 1159 L 442 535 C 442 494 443 457 446 423 C 448 389 457 360 472 336 C 487 312 510 293 542 280 C 574 266 618 260 676 260 C 736 260 782 268 815 284 C 848 300 872 323 886 355 C 900 386 907 447 907 537 L 907 1159 L 1223 1159 L 1223 543 C 1223 391 1205 276 1171 200 C 1136 123 1079 67 1001 33 C 923 0 814 -18 674 -18 Z M 439 1645 L 809 1645 L 449 1270 L 181 1270 L 439 1645 Z M 992 1645 L 1362 1645 L 1002 1270 L 734 1270 L 992 1645 Z" unicode="ű" />
<glyph horiz-adv-x="1671" d="M 887 -487 C 781 -487 703 -469 654 -434 C 604 -399 580 -344 580 -270 C 580 -222 591 -177 615 -135 C 638 -93 669 -56 709 -25 C 608 -17 522 0 451 26 C 380 52 322 87 276 132 C 230 177 196 234 174 303 C 152 372 141 464 141 580 L 141 1518 L 477 1518 L 477 623 C 477 527 488 455 512 407 C 535 359 573 324 625 302 C 677 279 748 268 840 268 C 931 268 1003 279 1055 301 C 1107 323 1145 358 1169 406 C 1192 454 1204 526 1204 623 L 1204 1518 L 1530 1518 L 1530 580 C 1530 466 1518 375 1496 306 C 1473 236 1439 179 1395 135 C 1350 91 1292 55 1222 29 C 1151 2 1065 -15 965 -23 C 915 -59 879 -93 857 -125 C 835 -157 825 -184 825 -207 C 825 -237 833 -257 851 -268 C 868 -279 894 -285 930 -285 C 954 -285 984 -281 1020 -275 C 1056 -269 1085 -262 1108 -254 L 1167 -428 C 1127 -446 1081 -461 1029 -471 C 977 -481 930 -487 887 -487 Z" unicode="Ų" />
<glyph horiz-adv-x="1343" d="M 725 -487 C 620 -487 543 -469 493 -435 C 443 -400 418 -345 418 -270 C 418 -174 465 -89 559 -14 C 448 -5 361 18 299 56 C 236 94 191 150 163 225 C 135 300 121 405 121 541 L 121 1159 L 442 1159 L 442 535 C 442 494 443 457 446 423 C 448 389 457 360 472 336 C 487 312 510 293 542 280 C 574 266 618 260 676 260 C 736 260 782 268 815 284 C 848 300 872 323 886 355 C 900 386 907 447 907 537 L 907 1159 L 1223 1159 L 1223 543 C 1223 410 1210 307 1184 233 C 1158 159 1116 103 1058 64 C 1000 25 921 0 821 -10 C 765 -48 724 -84 700 -119 C 676 -154 664 -183 664 -207 C 664 -237 672 -257 689 -268 C 705 -279 732 -285 768 -285 C 792 -285 822 -281 858 -275 C 894 -269 923 -262 946 -254 L 1006 -428 C 963 -447 916 -462 864 -472 C 812 -482 766 -487 725 -487 Z" unicode="ų" />
<glyph horiz-adv-x="1556" d="M 6 1518 L 367 1518 L 784 834 L 1202 1518 L 1548 1518 L 944 532 L 944 0 L 610 0 L 610 532 L 6 1518 Z M 399 1889 L 690 1889 L 690 1610 L 399 1610 L 399 1889 Z M 864 1889 L 1153 1889 L 1153 1610 L 864 1610 L 864 1889 Z" unicode="Ÿ" />
<glyph horiz-adv-x="1417" d="M 786 1975 L 1173 1975 L 782 1600 L 497 1600 L 786 1975 Z M 66 250 L 899 1214 L 100 1214 L 100 1518 L 1323 1518 L 1323 1243 L 502 291 L 1346 291 L 1346 0 L 66 0 L 66 250 Z" unicode="Ź" />
<glyph horiz-adv-x="1106" d="M 634 1645 L 1021 1645 L 630 1270 L 345 1270 L 634 1645 Z M 41 215 L 616 885 L 74 885 L 74 1159 L 1049 1159 L 1049 940 L 469 258 L 1071 258 L 1071 0 L 41 0 L 41 215 Z" unicode="ź" />
<glyph horiz-adv-x="1417" d="M 66 250 L 899 1214 L 100 1214 L 100 1518 L 1323 1518 L 1323 1243 L 502 291 L 1346 291 L 1346 0 L 66 0 L 66 250 Z M 544 1880 L 870 1880 L 870 1596 L 544 1596 L 544 1880 Z" unicode="Ż" />
<glyph horiz-adv-x="1106" d="M 41 215 L 616 885 L 74 885 L 74 1159 L 1049 1159 L 1049 940 L 469 258 L 1071 258 L 1071 0 L 41 0 L 41 215 Z M 392 1550 L 718 1550 L 718 1266 L 392 1266 L 392 1550 Z" unicode="ż" />
<glyph horiz-adv-x="1417" d="M 225 1975 L 526 1975 L 712 1798 L 897 1975 L 1191 1975 L 874 1600 L 542 1600 L 225 1975 Z M 66 250 L 899 1214 L 100 1214 L 100 1518 L 1323 1518 L 1323 1243 L 502 291 L 1346 291 L 1346 0 L 66 0 L 66 250 Z" unicode="Ž" />
<glyph horiz-adv-x="1106" d="M 73 1645 L 374 1645 L 560 1468 L 745 1645 L 1039 1645 L 722 1270 L 390 1270 L 73 1645 Z M 41 215 L 616 885 L 74 885 L 74 1159 L 1049 1159 L 1049 940 L 469 258 L 1071 258 L 1071 0 L 41 0 L 41 215 Z" unicode="ž" />
<glyph horiz-adv-x="1260" d="M 172 946 L 451 946 L 500 1171 C 519 1268 547 1340 583 1386 C 619 1432 669 1465 733 1486 C 797 1507 877 1518 973 1518 L 1087 1518 L 1087 1231 L 991 1231 C 950 1231 917 1226 892 1216 C 867 1206 848 1191 834 1171 C 820 1151 809 1119 801 1075 L 773 946 L 1087 946 L 1087 670 L 714 670 L 498 -340 L 176 -340 L 392 670 L 172 670 L 172 946 Z" unicode="ƒ" />
<glyph horiz-adv-x="1133" d="" unicode="⁄" />
<glyph horiz-adv-x="1280" d="" unicode="∂" />
<glyph horiz-adv-x="1536" d="" unicode="∆" />
<glyph horiz-adv-x="1536" d="" unicode="∏" />
<glyph horiz-adv-x="1152" d="" unicode="∑" />
<glyph horiz-adv-x="1479" d="" unicode="−" />
<glyph horiz-adv-x="1133" d="" unicode="∕" />
<glyph horiz-adv-x="1518" d="" unicode="Ș" />
<glyph horiz-adv-x="1174" d="" unicode="ș" />
<glyph horiz-adv-x="1446" d="M 567 -541 C 610 -520 641 -503 661 -490 C 680 -477 693 -464 700 -452 C 707 -439 711 -420 711 -395 L 559 -395 L 559 -78 L 883 -78 L 883 -303 C 883 -384 876 -445 864 -485 C 852 -525 829 -559 795 -587 C 761 -615 709 -645 637 -676 L 567 -541 Z M 555 1214 L 29 1214 L 29 1518 L 1417 1518 L 1417 1214 L 893 1214 L 893 0 L 555 0 L 555 1214 Z" unicode="Ț" />
<glyph horiz-adv-x="928" d="M 258 -541 C 301 -520 332 -503 352 -490 C 371 -477 384 -464 391 -452 C 398 -439 402 -420 402 -395 L 250 -395 L 250 -78 L 574 -78 L 574 -303 C 574 -384 567 -445 555 -485 C 543 -525 520 -559 486 -587 C 452 -615 400 -645 328 -676 L 258 -541 Z M 51 1159 L 257 1159 L 311 1442 L 561 1493 L 561 1159 L 836 1159 L 836 885 L 561 885 L 561 408 C 561 364 565 334 575 317 C 584 300 599 288 620 280 C 640 272 671 268 711 268 L 836 268 L 836 0 C 812 -2 764 -4 692 -4 L 645 -4 C 544 -4 465 7 407 30 C 349 53 307 90 281 140 C 255 190 242 264 242 360 L 242 885 L 51 885 L 51 1159 Z" unicode="ț" />
<glyph horiz-adv-x="1835" d="" unicode="∞" />
<glyph horiz-adv-x="1152" d="" unicode="∫" />
<glyph horiz-adv-x="1536" d="" unicode="≈" />
<glyph horiz-adv-x="2304" d="M 1008 885 L 590 885 L 590 0 L 270 0 L 270 885 L 51 885 L 51 1159 L 270 1159 L 270 1214 C 270 1363 304 1469 374 1532 C 443 1594 555 1626 709 1626 L 862 1622 L 862 1360 L 752 1360 C 694 1360 653 1349 628 1328 C 602 1307 590 1270 590 1217 L 590 1159 L 1008 1159 L 1008 1214 C 1008 1362 1042 1468 1111 1531 C 1179 1594 1291 1626 1446 1626 C 1512 1626 1563 1624 1599 1622 L 1599 1360 L 1489 1360 C 1433 1360 1392 1349 1367 1329 C 1341 1309 1329 1271 1329 1217 L 1329 1159 L 1599 1159 L 1599 885 L 1329 885 L 1329 0 L 1008 0 L 1008 885 Z M 2062 -4 C 1948 -4 1866 23 1818 78 C 1769 132 1745 223 1745 350 L 1745 1589 L 2066 1589 L 2066 389 C 2066 338 2073 305 2088 290 C 2103 275 2133 268 2179 268 L 2218 268 L 2218 4 C 2184 -1 2132 -4 2062 -4 Z" unicode="ﬄ" />
<glyph horiz-adv-x="1479" d="" unicode="≠" />
<glyph horiz-adv-x="1479" d="" unicode="≤" />
<glyph horiz-adv-x="1479" d="" unicode="≥" />
<glyph horiz-adv-x="1208" d="M 438 1645 L 770 1645 L 1087 1270 L 786 1270 L 600 1446 L 416 1270 L 121 1270 L 438 1645 Z" unicode="ˆ" />
<glyph horiz-adv-x="1208" d="M 121 1645 L 422 1645 L 608 1468 L 793 1645 L 1087 1645 L 770 1270 L 438 1270 L 121 1645 Z" unicode="ˇ" />
<glyph horiz-adv-x="1208" d="M 604 1239 C 516 1239 444 1252 386 1279 C 328 1306 282 1346 248 1399 C 213 1452 185 1532 164 1640 L 395 1683 C 413 1602 438 1549 468 1523 C 498 1497 543 1485 604 1485 C 665 1485 711 1498 741 1524 C 771 1550 795 1603 813 1683 L 1047 1642 C 1023 1534 993 1453 958 1400 C 923 1346 877 1306 820 1279 C 762 1252 690 1239 604 1239 Z" unicode="˘" />
<glyph horiz-adv-x="1208" d="M 440 1550 L 766 1550 L 766 1266 L 440 1266 L 440 1550 Z" unicode="˙" />
<glyph horiz-adv-x="1208" d="M 604 1237 C 510 1237 437 1262 387 1314 C 336 1365 311 1438 311 1534 C 311 1629 336 1703 387 1756 C 437 1808 510 1835 604 1835 C 694 1835 765 1808 817 1755 C 869 1701 895 1628 895 1534 C 895 1440 869 1367 817 1315 C 765 1263 694 1237 604 1237 Z M 604 1395 C 648 1395 680 1407 702 1431 C 724 1455 735 1490 735 1534 C 735 1581 723 1616 700 1640 C 677 1663 645 1675 604 1675 C 515 1675 471 1628 471 1534 C 471 1441 515 1395 604 1395 Z" unicode="˚" />
<glyph horiz-adv-x="1208" d="M 643 -487 C 538 -487 461 -469 411 -435 C 361 -400 336 -345 336 -270 C 336 -213 353 -159 387 -108 C 421 -56 468 -14 528 18 L 784 18 C 721 -20 672 -59 636 -99 C 600 -139 582 -175 582 -207 C 582 -237 590 -257 607 -268 C 623 -279 650 -285 686 -285 C 710 -285 740 -281 776 -275 C 812 -269 841 -262 864 -254 L 924 -428 C 881 -447 834 -462 782 -472 C 730 -482 684 -487 643 -487 Z" unicode="˛" />
<glyph horiz-adv-x="1208" d="M 113 1407 C 231 1554 346 1628 457 1628 C 493 1628 523 1622 548 1611 C 573 1599 596 1587 616 1573 C 636 1559 656 1546 675 1535 C 694 1523 715 1518 739 1518 C 787 1518 845 1558 911 1638 L 1090 1493 C 968 1343 853 1268 745 1268 C 711 1268 681 1273 657 1285 C 632 1296 609 1309 589 1323 C 568 1337 548 1349 528 1361 C 508 1372 487 1378 463 1378 C 411 1378 353 1339 291 1262 L 113 1407 Z" unicode="˜" />
<glyph horiz-adv-x="1208" d="M 371 1645 L 741 1645 L 381 1270 L 113 1270 L 371 1645 Z M 924 1645 L 1294 1645 L 934 1270 L 666 1270 L 924 1645 Z" unicode="˝" />
<glyph horiz-adv-x="1647" d="M 1008 885 L 590 885 L 590 0 L 270 0 L 270 885 L 51 885 L 51 1159 L 270 1159 L 270 1214 C 270 1363 304 1469 374 1532 C 443 1594 555 1626 709 1626 L 862 1622 L 862 1360 L 752 1360 C 694 1360 653 1349 628 1328 C 602 1307 590 1270 590 1217 L 590 1159 L 1008 1159 L 1008 1214 C 1008 1362 1042 1468 1111 1531 C 1179 1594 1291 1626 1446 1626 C 1512 1626 1563 1624 1599 1622 L 1599 1360 L 1489 1360 C 1433 1360 1392 1349 1367 1329 C 1341 1309 1329 1271 1329 1217 L 1329 1159 L 1599 1159 L 1599 885 L 1329 885 L 1329 0 L 1008 0 L 1008 885 Z" unicode="ﬀ" />
<glyph horiz-adv-x="1468" d="M 51 1159 L 270 1159 L 270 1214 C 270 1363 304 1469 374 1532 C 443 1594 555 1626 709 1626 L 862 1622 L 862 1360 L 752 1360 C 694 1360 653 1349 628 1328 C 602 1307 590 1270 590 1217 L 590 1159 L 862 1159 L 862 885 L 590 885 L 590 0 L 270 0 L 270 885 L 51 885 L 51 1159 Z M 1008 1159 L 1329 1159 L 1329 0 L 1008 0 L 1008 1159 Z M 1006 1559 L 1331 1559 L 1331 1266 L 1006 1266 L 1006 1559 Z" unicode="ﬁ" />
<glyph horiz-adv-x="1565" d="M 51 1159 L 270 1159 L 270 1214 C 270 1363 304 1469 374 1532 C 443 1594 555 1626 709 1626 L 862 1622 L 862 1360 L 752 1360 C 694 1360 653 1349 628 1328 C 602 1307 590 1270 590 1217 L 590 1159 L 862 1159 L 862 885 L 590 885 L 590 0 L 270 0 L 270 885 L 51 885 L 51 1159 Z M 1325 -4 C 1211 -4 1129 23 1081 78 C 1032 132 1008 223 1008 350 L 1008 1589 L 1329 1589 L 1329 389 C 1329 338 1336 305 1351 290 C 1366 275 1396 268 1442 268 L 1481 268 L 1481 4 C 1445 -1 1393 -4 1325 -4 Z" unicode="ﬂ" />
<glyph horiz-adv-x="2206" d="M 1008 885 L 590 885 L 590 0 L 270 0 L 270 885 L 51 885 L 51 1159 L 270 1159 L 270 1214 C 270 1363 304 1469 374 1532 C 443 1594 555 1626 709 1626 L 862 1622 L 862 1360 L 752 1360 C 694 1360 653 1349 628 1328 C 602 1307 590 1270 590 1217 L 590 1159 L 1008 1159 L 1008 1214 C 1008 1362 1042 1468 1111 1531 C 1179 1594 1291 1626 1446 1626 C 1512 1626 1563 1624 1599 1622 L 1599 1360 L 1489 1360 C 1433 1360 1392 1349 1367 1329 C 1341 1309 1329 1271 1329 1217 L 1329 1159 L 1599 1159 L 1599 885 L 1329 885 L 1329 0 L 1008 0 L 1008 885 Z M 1745 1159 L 2066 1159 L 2066 0 L 1745 0 L 1745 1159 Z M 1743 1559 L 2068 1559 L 2068 1266 L 1743 1266 L 1743 1559 Z" unicode="ﬃ" />
<glyph horiz-adv-x="1208" d="M 174 1505 L 1034 1505 L 1034 1249 L 174 1249 L 174 1505 Z" unicode="̄" />
<glyph horiz-adv-x="600" d="M 145 -541 C 188 -520 219 -503 239 -490 C 258 -477 271 -464 278 -452 C 285 -439 289 -420 289 -395 L 137 -395 L 137 -78 L 461 -78 L 461 -303 C 461 -384 454 -445 442 -485 C 430 -525 407 -559 373 -587 C 339 -615 287 -645 215 -676 L 145 -541 Z" unicode="̦" />
<glyph horiz-adv-x="1536" d="" unicode="Δ" />
<glyph horiz-adv-x="1664" d="" unicode="Ω" />
<glyph horiz-adv-x="1352" d="M 127 1159 L 449 1159 L 449 535 C 449 494 450 457 453 423 C 455 389 464 360 479 336 C 494 312 517 293 549 280 C 580 266 624 260 682 260 C 742 260 789 268 822 284 C 855 300 878 323 892 355 C 906 386 913 447 913 537 L 913 1159 L 1231 1159 L 1231 543 C 1231 393 1214 280 1180 203 C 1146 125 1092 69 1017 34 C 942 0 838 -18 705 -18 C 634 -18 579 -13 540 -4 C 501 5 471 20 449 41 L 449 -338 L 127 -338 L 127 1159 Z" unicode="μ" />
<glyph horiz-adv-x="1408" d="" unicode="π" />
<glyph horiz-adv-x="1407" d="M 325 1889 L 616 1889 L 616 1610 L 325 1610 L 325 1889 Z M 790 1889 L 1079 1889 L 1079 1610 L 790 1610 L 790 1889 Z M 152 1518 L 1292 1518 L 1292 1214 L 487 1214 L 487 920 L 1272 920 L 1272 627 L 487 627 L 487 291 L 1300 291 L 1300 0 L 152 0 L 152 1518 Z" unicode="Ё" />
<glyph horiz-adv-x="1815" d="M 1212 -102 L 1239 -102 C 1270 -102 1293 -98 1307 -91 C 1321 -83 1331 -71 1337 -54 C 1343 -36 1346 -3 1346 47 L 1346 483 C 1346 557 1339 609 1327 639 C 1314 668 1293 690 1265 705 C 1236 719 1195 727 1143 727 C 1081 727 1032 718 996 702 C 960 686 933 661 917 629 C 901 597 893 545 893 473 L 893 0 L 555 0 L 555 1214 L 29 1214 L 29 1518 L 1417 1518 L 1417 1214 L 893 1214 L 893 926 C 959 995 1080 1030 1257 1030 C 1359 1030 1441 1013 1503 980 C 1565 946 1611 896 1640 830 C 1668 764 1683 669 1683 547 L 1683 49 C 1683 -57 1670 -137 1646 -192 C 1622 -246 1582 -286 1527 -310 C 1471 -334 1386 -346 1272 -346 L 1212 -346 L 1212 -102 Z" unicode="Ђ" />
<glyph horiz-adv-x="1266" d="M 709 1975 L 1096 1975 L 705 1600 L 420 1600 L 709 1975 Z M 152 1518 L 1235 1518 L 1235 1214 L 487 1214 L 487 0 L 152 0 L 152 1518 Z" unicode="Ѓ" />
<glyph horiz-adv-x="1550" d="M 846 -23 C 581 -23 385 40 259 168 C 133 295 70 492 70 760 C 70 1017 135 1212 267 1344 C 399 1476 592 1542 846 1542 C 982 1542 1100 1524 1201 1488 C 1302 1452 1389 1397 1462 1323 L 1233 1092 C 1181 1142 1126 1178 1067 1201 C 1007 1223 940 1235 864 1235 C 610 1235 460 1129 413 918 L 1157 918 L 1157 627 L 406 627 C 424 507 470 419 543 362 C 615 304 716 276 846 276 C 933 276 1007 287 1069 309 C 1130 331 1191 372 1253 430 L 1473 213 C 1391 128 1300 67 1199 31 C 1098 -4 980 -23 846 -23 Z" unicode="Є" />
<glyph horiz-adv-x="1518" d="M 768 -23 C 616 -23 480 -5 358 28 C 236 62 131 112 45 176 L 213 418 C 373 310 555 256 758 256 C 848 256 918 261 968 273 C 1018 284 1055 302 1077 326 C 1099 350 1110 388 1110 440 C 1110 475 1099 503 1078 525 C 1057 547 1024 565 978 579 C 932 593 856 608 750 623 C 572 647 444 677 364 712 C 284 746 225 793 188 852 C 151 911 133 988 133 1083 C 133 1245 182 1362 281 1434 C 380 1506 542 1542 766 1542 C 1024 1542 1229 1492 1380 1393 L 1200 1133 C 1149 1167 1082 1194 1000 1216 C 917 1238 838 1249 762 1249 C 686 1249 627 1244 585 1234 C 543 1224 512 1208 494 1187 C 476 1165 467 1134 467 1092 C 467 1058 476 1031 496 1010 C 515 989 545 972 585 958 C 625 944 708 929 834 911 C 976 891 1082 869 1152 846 C 1222 823 1277 795 1319 761 C 1360 727 1391 684 1411 634 C 1431 583 1442 524 1442 457 C 1442 287 1387 165 1278 90 C 1169 14 999 -23 768 -23 Z" unicode="Ѕ" />
<glyph horiz-adv-x="682" d="M 174 1518 L 508 1518 L 508 0 L 174 0 L 174 1518 Z" unicode="І" />
<glyph horiz-adv-x="682" d="M 174 1518 L 508 1518 L 508 0 L 174 0 L 174 1518 Z M -34 1889 L 257 1889 L 257 1610 L -34 1610 L -34 1889 Z M 431 1889 L 720 1889 L 720 1610 L 431 1610 L 431 1889 Z" unicode="Ї" />
<glyph horiz-adv-x="932" d="M 268 -4 L 188 -4 C 127 -4 79 -2 45 0 L 45 291 L 227 291 C 311 291 370 305 404 335 C 438 365 455 417 455 492 L 455 1518 L 788 1518 L 788 479 C 788 315 747 194 665 115 C 583 35 451 -4 268 -4 Z" unicode="Ј" />
<glyph horiz-adv-x="2664" d="M 84 291 L 123 291 C 167 291 197 298 213 313 C 228 327 236 360 236 410 L 236 1518 L 1587 1518 L 1587 1036 L 1989 1036 C 2130 1036 2245 1018 2335 982 C 2424 946 2490 892 2532 820 C 2574 748 2595 652 2595 532 C 2595 346 2544 211 2443 127 C 2341 42 2184 0 1972 0 L 1262 0 L 1262 1219 L 571 1219 L 571 350 C 571 227 545 137 494 81 C 442 24 358 -4 240 -4 C 202 -4 172 -3 148 -1 C 124 0 103 2 84 4 L 84 291 Z M 1987 279 C 2085 279 2154 297 2196 333 C 2238 369 2259 430 2259 516 C 2259 602 2238 662 2198 698 C 2157 734 2085 752 1982 752 L 1587 752 L 1587 279 L 1987 279 Z" unicode="Љ" />
<glyph horiz-adv-x="2585" d="M 152 1518 L 487 1518 L 487 936 L 1182 936 L 1182 1518 L 1507 1518 L 1507 1036 L 1909 1036 C 2050 1036 2165 1018 2255 982 C 2344 946 2410 892 2452 820 C 2494 748 2515 652 2515 532 C 2515 346 2464 211 2363 127 C 2261 42 2104 0 1892 0 L 1182 0 L 1182 623 L 487 623 L 487 0 L 152 0 L 152 1518 Z M 1907 279 C 2005 279 2074 297 2116 333 C 2158 369 2179 430 2179 516 C 2179 602 2158 662 2118 698 C 2077 734 2005 752 1903 752 L 1507 752 L 1507 279 L 1907 279 Z" unicode="Њ" />
<glyph horiz-adv-x="1815" d="M 555 1214 L 29 1214 L 29 1518 L 1417 1518 L 1417 1214 L 893 1214 L 893 926 C 959 995 1080 1030 1257 1030 C 1359 1030 1441 1013 1503 980 C 1565 946 1611 896 1640 830 C 1668 764 1683 669 1683 547 L 1683 0 L 1346 0 L 1346 483 C 1346 557 1339 609 1327 639 C 1314 668 1293 690 1265 705 C 1236 719 1195 727 1143 727 C 1081 727 1032 718 996 702 C 960 686 933 661 917 629 C 901 597 893 545 893 473 L 893 0 L 555 0 L 555 1214 Z" unicode="Ћ" />
<glyph horiz-adv-x="1556" d="M 854 1975 L 1241 1975 L 850 1600 L 565 1600 L 854 1975 Z M 152 1518 L 483 1518 L 483 832 L 1059 1518 L 1430 1518 L 917 917 L 1503 0 L 1124 0 L 699 661 L 483 408 L 483 0 L 152 0 L 152 1518 Z" unicode="Ќ" />
<glyph horiz-adv-x="1473" d="M 23 1518 L 383 1518 L 777 714 L 1130 1518 L 1470 1518 L 899 293 C 855 200 815 135 780 98 C 744 60 702 34 652 19 C 602 3 535 -4 453 -4 L 276 0 L 276 281 L 395 281 C 445 281 480 283 499 287 C 517 291 532 299 543 310 C 554 320 568 348 585 393 L 23 1518 Z M 735 1569 C 647 1569 575 1582 517 1609 C 459 1636 413 1676 379 1729 C 344 1782 316 1862 295 1970 L 526 2013 C 544 1932 569 1879 599 1853 C 629 1827 674 1815 735 1815 C 796 1815 842 1828 872 1854 C 902 1880 926 1933 944 2013 L 1178 1972 C 1154 1864 1124 1783 1089 1730 C 1054 1676 1008 1636 951 1609 C 893 1582 821 1569 735 1569 Z" unicode="Ў" />
<glyph horiz-adv-x="1663" d="M 664 0 L 152 0 L 152 1518 L 487 1518 L 487 285 L 1178 285 L 1178 1518 L 1509 1518 L 1509 0 L 999 0 L 999 -340 L 664 -340 L 664 0 Z" unicode="Џ" />
<glyph horiz-adv-x="1616" d="M 637 1528 L 977 1528 L 1589 0 L 1241 0 L 1143 250 L 455 250 L 356 0 L 29 0 L 637 1528 Z M 1036 526 L 799 1130 L 561 526 L 1036 526 Z" unicode="А" />
<glyph horiz-adv-x="1559" d="M 152 1518 L 1298 1518 L 1298 1214 L 471 1214 L 471 987 L 881 987 C 1025 987 1142 970 1231 937 C 1319 904 1384 854 1425 787 C 1466 719 1487 627 1487 510 C 1487 385 1465 287 1422 215 C 1378 143 1311 89 1220 53 C 1128 17 1010 0 864 0 L 152 0 L 152 1518 Z M 879 276 C 984 276 1056 292 1094 324 C 1132 356 1151 412 1151 492 C 1151 547 1143 590 1127 620 C 1111 650 1086 672 1051 685 C 1015 698 956 705 874 705 L 471 705 L 471 276 L 879 276 Z" unicode="Б" />
<glyph horiz-adv-x="1546" d="M 152 1518 L 856 1518 C 1059 1518 1206 1487 1296 1425 C 1386 1363 1432 1264 1432 1126 C 1432 1037 1415 965 1383 910 C 1350 855 1299 815 1229 791 C 1315 770 1378 730 1416 672 C 1454 614 1473 529 1473 418 C 1473 316 1452 234 1411 174 C 1369 114 1305 70 1218 42 C 1131 14 1009 0 852 0 L 152 0 L 152 1518 Z M 891 279 C 977 279 1038 292 1076 318 C 1114 344 1133 389 1133 451 C 1133 511 1115 554 1079 581 C 1043 607 980 621 891 621 L 481 621 L 481 279 L 891 279 Z M 868 911 C 947 911 1004 923 1039 948 C 1074 972 1092 1015 1092 1077 C 1092 1135 1074 1175 1039 1198 C 1003 1221 946 1233 868 1233 L 481 1233 L 481 911 L 868 911 Z" unicode="В" />
<glyph horiz-adv-x="1266" d="M 152 1518 L 1235 1518 L 1235 1214 L 487 1214 L 487 0 L 152 0 L 152 1518 Z" unicode="Г" />
<glyph horiz-adv-x="1837" d="M 86 291 L 131 291 C 178 291 209 299 225 315 C 240 331 248 362 248 410 L 248 1518 L 1602 1518 L 1602 291 L 1751 291 L 1751 -340 L 1413 -340 L 1413 0 L 422 0 L 422 -340 L 86 -340 L 86 291 Z M 1264 283 L 1264 1219 L 578 1219 L 578 397 C 578 373 576 351 574 331 C 571 311 561 295 545 283 L 1264 283 Z" unicode="Д" />
<glyph horiz-adv-x="1407" d="M 152 1518 L 1292 1518 L 1292 1214 L 487 1214 L 487 920 L 1272 920 L 1272 627 L 487 627 L 487 291 L 1300 291 L 1300 0 L 152 0 L 152 1518 Z" unicode="Е" />
<glyph horiz-adv-x="2468" d="M 432 0 L 51 0 L 639 917 L 125 1518 L 498 1518 L 1073 831 L 1073 1518 L 1395 1518 L 1395 833 L 1970 1518 L 2341 1518 L 1828 917 L 2415 0 L 2036 0 L 1610 661 L 1395 409 L 1395 0 L 1073 0 L 1073 409 L 858 661 L 432 0 Z" unicode="Ж" />
<glyph horiz-adv-x="1460" d="M 719 -25 C 433 -25 202 29 27 139 L 188 401 C 351 309 523 264 705 264 C 815 264 891 269 933 281 C 974 293 1004 312 1023 340 C 1041 368 1051 408 1051 461 C 1051 511 1040 548 1018 573 C 996 598 960 616 910 628 C 859 639 783 645 682 645 L 317 645 L 317 930 L 678 930 C 804 930 890 943 937 969 C 984 995 1008 1038 1008 1100 C 1008 1155 986 1194 944 1216 C 902 1238 819 1249 696 1249 C 614 1249 528 1238 439 1218 C 349 1197 282 1173 238 1145 L 63 1399 C 137 1443 234 1477 356 1503 C 477 1529 601 1542 727 1542 C 937 1542 1093 1511 1194 1451 C 1295 1390 1346 1299 1346 1178 C 1346 1072 1331 994 1303 943 C 1275 892 1227 854 1161 829 C 1221 807 1267 781 1298 751 C 1328 721 1351 681 1365 633 C 1379 584 1386 520 1386 440 C 1386 286 1332 170 1224 92 C 1116 14 948 -25 719 -25 Z" unicode="З" />
<glyph horiz-adv-x="1686" d="M 152 1518 L 473 1518 L 473 561 L 1171 1518 L 1532 1518 L 1532 0 L 1212 0 L 1212 1024 L 461 0 L 152 0 L 152 1518 Z" unicode="И" />
<glyph horiz-adv-x="1686" d="M 152 1518 L 473 1518 L 473 561 L 1171 1518 L 1532 1518 L 1532 0 L 1212 0 L 1212 1024 L 461 0 L 152 0 L 152 1518 Z M 840 1569 C 752 1569 680 1582 622 1609 C 564 1636 518 1676 484 1729 C 449 1782 421 1862 400 1970 L 631 2013 C 649 1932 674 1879 704 1853 C 734 1827 779 1815 840 1815 C 901 1815 947 1828 977 1854 C 1007 1880 1031 1933 1049 2013 L 1283 1972 C 1259 1864 1229 1783 1194 1730 C 1159 1676 1113 1636 1056 1609 C 998 1582 926 1569 840 1569 Z" unicode="Й" />
<glyph horiz-adv-x="1556" d="M 152 1518 L 483 1518 L 483 832 L 1059 1518 L 1430 1518 L 917 917 L 1503 0 L 1124 0 L 699 661 L 483 408 L 483 0 L 152 0 L 152 1518 Z" unicode="К" />
<glyph horiz-adv-x="1753" d="M 86 291 L 127 291 C 171 291 201 298 217 314 C 232 329 240 361 240 410 L 240 1518 L 1602 1518 L 1602 0 L 1264 0 L 1264 1219 L 573 1219 L 573 350 C 573 227 547 137 496 81 C 444 24 360 -4 242 -4 C 205 -4 175 -3 151 -1 C 127 0 106 2 86 4 L 86 291 Z" unicode="Л" />
<glyph horiz-adv-x="2003" d="M 152 1518 L 590 1518 L 1001 481 L 1413 1518 L 1849 1518 L 1849 0 L 1522 0 L 1522 1014 L 1114 0 L 860 0 L 455 1008 L 455 0 L 152 0 L 152 1518 Z" unicode="М" />
<glyph horiz-adv-x="1669" d="M 152 1518 L 487 1518 L 487 936 L 1182 936 L 1182 1518 L 1518 1518 L 1518 0 L 1182 0 L 1182 623 L 487 623 L 487 0 L 152 0 L 152 1518 Z" unicode="Н" />
<glyph horiz-adv-x="1747" d="M 872 -25 C 337 -25 70 236 70 760 C 70 1281 337 1542 872 1542 C 1408 1542 1677 1281 1677 760 C 1677 236 1408 -25 872 -25 Z M 872 270 C 1029 270 1146 309 1222 387 C 1298 465 1337 587 1337 754 C 1337 921 1298 1043 1222 1120 C 1146 1196 1029 1235 872 1235 C 715 1235 598 1196 522 1120 C 446 1043 408 921 408 754 C 408 587 446 465 522 387 C 598 309 714 270 872 270 Z" unicode="О" />
<glyph horiz-adv-x="1663" d="M 152 1518 L 1509 1518 L 1509 0 L 1174 0 L 1174 1219 L 483 1219 L 483 0 L 152 0 L 152 1518 Z" unicode="П" />
<glyph horiz-adv-x="1556" d="M 152 1518 L 881 1518 C 1088 1518 1241 1478 1339 1398 C 1437 1318 1487 1188 1487 1010 C 1487 820 1435 682 1333 595 C 1230 508 1074 465 864 465 L 479 465 L 479 0 L 152 0 L 152 1518 Z M 879 752 C 977 752 1046 770 1088 808 C 1130 846 1151 907 1151 993 C 1151 1079 1131 1141 1091 1177 C 1051 1213 978 1231 874 1231 L 479 1231 L 479 752 L 879 752 Z" unicode="Р" />
<glyph horiz-adv-x="1554" d="M 850 -23 C 582 -23 385 40 259 167 C 133 293 70 491 70 760 C 70 1018 136 1212 270 1344 C 403 1476 603 1542 870 1542 C 999 1542 1111 1524 1207 1490 C 1302 1456 1388 1400 1466 1323 L 1235 1092 C 1183 1142 1127 1179 1069 1201 C 1010 1223 943 1235 868 1235 C 712 1235 596 1195 521 1117 C 445 1039 408 918 408 756 C 408 587 445 465 519 389 C 593 313 710 276 870 276 C 949 276 1018 287 1076 309 C 1134 331 1193 372 1255 430 L 1477 213 C 1395 128 1304 67 1204 31 C 1103 -4 985 -23 850 -23 Z" unicode="С" />
<glyph horiz-adv-x="1446" d="M 555 1214 L 29 1214 L 29 1518 L 1417 1518 L 1417 1214 L 893 1214 L 893 0 L 555 0 L 555 1214 Z" unicode="Т" />
<glyph horiz-adv-x="1473" d="M 23 1518 L 383 1518 L 777 714 L 1130 1518 L 1470 1518 L 899 293 C 855 200 815 135 780 98 C 744 60 702 34 652 19 C 602 3 535 -4 453 -4 L 276 0 L 276 281 L 395 281 C 445 281 480 283 499 287 C 517 291 532 299 543 310 C 554 320 568 348 585 393 L 23 1518 Z" unicode="У" />
<glyph horiz-adv-x="2257" d="M 969 207 L 692 207 C 551 207 434 226 342 266 C 250 306 181 366 137 448 C 92 529 70 640 70 780 C 70 916 92 1023 137 1103 C 182 1183 250 1241 340 1279 C 430 1316 542 1335 678 1335 L 969 1335 L 969 1518 L 1288 1518 L 1288 1335 L 1583 1335 C 1725 1335 1841 1315 1930 1276 C 2018 1237 2084 1179 2126 1102 C 2168 1025 2189 920 2189 788 C 2189 646 2165 534 2119 450 C 2073 366 2003 304 1911 265 C 1818 226 1703 207 1567 207 L 1288 207 L 1288 0 L 969 0 L 969 207 Z M 969 494 L 969 1049 L 684 1049 C 584 1049 513 1027 470 984 C 427 940 406 870 406 772 C 406 674 427 604 471 560 C 514 516 583 494 678 494 L 969 494 Z M 1581 494 C 1675 494 1743 516 1787 561 C 1831 606 1853 676 1853 772 C 1853 871 1831 942 1788 985 C 1744 1027 1674 1049 1577 1049 L 1288 1049 L 1288 494 L 1581 494 Z" unicode="Ф" />
<glyph horiz-adv-x="1599" d="M 111 1518 L 487 1518 L 813 1050 L 1120 1518 L 1491 1518 L 986 802 L 1546 0 L 1165 0 L 785 547 L 424 0 L 53 0 L 611 797 L 111 1518 Z" unicode="Х" />
<glyph horiz-adv-x="1751" d="M 1327 0 L 152 0 L 152 1518 L 487 1518 L 487 285 L 1178 285 L 1178 1518 L 1509 1518 L 1509 291 L 1665 291 L 1665 -340 L 1327 -340 L 1327 0 Z" unicode="Ц" />
<glyph horiz-adv-x="1602" d="M 1114 514 C 1082 480 1024 453 942 434 C 859 415 758 406 639 406 C 458 406 325 444 240 522 C 155 600 113 727 113 905 L 113 1518 L 446 1518 L 446 975 C 446 903 456 850 476 816 C 496 781 528 755 572 738 C 616 721 677 713 754 713 C 840 713 909 722 962 742 C 1014 761 1053 789 1077 827 C 1101 864 1114 918 1114 989 L 1114 1518 L 1448 1518 L 1448 0 L 1114 0 L 1114 514 Z" unicode="Ч" />
<glyph horiz-adv-x="2478" d="M 152 1536 L 487 1536 L 487 285 L 1071 285 L 1071 1536 L 1409 1536 L 1409 285 L 1993 285 L 1993 1536 L 2324 1536 L 2324 0 L 152 0 L 152 1536 Z" unicode="Ш" />
<glyph horiz-adv-x="2564" d="M 2142 0 L 152 0 L 152 1536 L 487 1536 L 487 285 L 1071 285 L 1071 1536 L 1409 1536 L 1409 285 L 1993 285 L 1993 1536 L 2324 1536 L 2324 291 L 2478 291 L 2478 -340 L 2142 -340 L 2142 0 Z" unicode="Щ" />
<glyph horiz-adv-x="1636" d="M 231 1214 L 80 1214 L 80 1518 L 559 1518 L 559 1036 L 961 1036 C 1102 1036 1217 1018 1307 982 C 1396 946 1462 892 1504 820 C 1546 748 1567 652 1567 532 C 1567 346 1516 211 1415 127 C 1313 42 1156 0 944 0 L 231 0 L 231 1214 Z M 958 279 C 1056 279 1126 297 1168 333 C 1210 369 1231 430 1231 516 C 1231 602 1210 662 1170 698 C 1129 734 1057 752 954 752 L 559 752 L 559 279 L 958 279 Z" unicode="Ъ" />
<glyph horiz-adv-x="2097" d="M 152 1518 L 479 1518 L 479 1036 L 881 1036 C 1022 1036 1137 1018 1227 982 C 1316 946 1382 892 1424 820 C 1466 748 1487 652 1487 532 C 1487 346 1436 211 1335 127 C 1233 42 1076 0 864 0 L 152 0 L 152 1518 Z M 879 279 C 977 279 1046 297 1088 333 C 1130 369 1151 430 1151 516 C 1151 602 1130 662 1090 698 C 1049 734 977 752 874 752 L 479 752 L 479 279 L 879 279 Z M 1610 1518 L 1946 1518 L 1946 0 L 1610 0 L 1610 1518 Z" unicode="Ы" />
<glyph horiz-adv-x="1556" d="M 152 1518 L 479 1518 L 479 1036 L 881 1036 C 1022 1036 1137 1018 1227 982 C 1316 946 1382 892 1424 820 C 1466 748 1487 652 1487 532 C 1487 346 1436 211 1335 127 C 1233 42 1076 0 864 0 L 152 0 L 152 1518 Z M 879 279 C 977 279 1046 297 1088 333 C 1130 369 1151 430 1151 516 C 1151 602 1130 662 1090 698 C 1049 734 977 752 874 752 L 479 752 L 479 279 L 879 279 Z" unicode="Ь" />
<glyph horiz-adv-x="1550" d="M 393 627 L 393 918 L 1136 918 C 1088 1129 938 1235 686 1235 C 610 1235 543 1223 485 1201 C 426 1178 371 1142 319 1092 L 88 1323 C 159 1395 244 1450 344 1487 C 443 1523 563 1542 705 1542 C 960 1542 1153 1475 1284 1343 C 1415 1211 1481 1016 1481 760 C 1481 490 1417 292 1291 166 C 1164 40 969 -23 705 -23 C 570 -23 452 -5 351 31 C 250 67 159 127 78 213 L 299 430 C 361 370 423 330 485 308 C 546 286 619 276 705 276 C 833 276 934 304 1007 362 C 1079 419 1125 507 1144 627 L 393 627 Z" unicode="Э" />
<glyph horiz-adv-x="2398" d="M 152 1518 L 487 1518 L 487 926 L 746 926 C 772 1132 849 1286 977 1388 C 1104 1490 1286 1542 1524 1542 C 1794 1542 1995 1476 2129 1344 C 2262 1212 2329 1018 2329 760 C 2329 501 2262 305 2129 173 C 1996 41 1794 -25 1524 -25 C 1280 -25 1094 29 966 138 C 838 246 763 409 742 627 L 487 627 L 487 0 L 152 0 L 152 1518 Z M 1524 270 C 1680 270 1796 308 1873 386 C 1950 464 1989 586 1989 754 C 1989 922 1950 1044 1873 1120 C 1796 1196 1680 1235 1524 1235 C 1368 1235 1251 1196 1174 1120 C 1097 1043 1059 921 1059 754 C 1059 586 1097 464 1174 386 C 1250 308 1367 270 1524 270 Z" unicode="Ю" />
<glyph horiz-adv-x="1581" d="M 1100 504 L 759 504 L 481 0 L 121 0 L 423 542 C 209 607 102 767 102 1022 C 102 1142 122 1238 164 1308 C 205 1378 269 1430 356 1465 C 442 1500 556 1518 696 1518 L 1427 1518 L 1427 0 L 1100 0 L 1100 504 Z M 1100 793 L 1100 1231 L 709 1231 C 607 1231 536 1214 498 1181 C 459 1148 440 1091 440 1010 C 440 932 458 877 496 843 C 534 809 603 793 705 793 L 1100 793 Z" unicode="Я" />
<glyph horiz-adv-x="1321" d="M 487 -18 C 339 -18 229 9 158 65 C 86 120 51 212 51 340 C 51 442 74 522 121 580 C 168 638 242 680 343 706 C 444 732 595 745 795 745 L 842 745 L 836 803 C 830 837 811 863 777 879 C 743 895 688 903 612 903 C 554 903 496 894 436 878 C 376 861 323 838 276 809 L 117 1044 C 179 1086 259 1120 358 1146 C 456 1172 553 1186 647 1186 C 778 1186 879 1172 951 1144 C 1023 1116 1074 1071 1105 1009 C 1135 947 1151 853 1151 725 L 1151 373 C 1151 335 1153 310 1158 298 C 1162 286 1171 278 1183 273 C 1195 268 1217 266 1251 266 L 1251 4 C 1233 -1 1188 -4 1116 -4 C 1051 -4 1003 4 973 20 C 943 36 917 67 895 111 C 830 25 694 -18 487 -18 Z M 356 367 C 356 321 370 289 400 269 C 430 249 480 240 551 240 C 654 240 728 259 774 297 C 819 335 842 397 842 481 L 842 524 L 815 524 C 713 524 634 521 576 517 C 518 513 474 506 443 496 C 411 486 389 472 376 454 C 362 436 356 407 356 367 Z" unicode="а" />
<glyph horiz-adv-x="1356" d="M 680 -23 C 469 -23 315 29 218 133 C 120 237 72 401 72 627 L 72 807 C 72 1003 93 1157 137 1269 C 180 1380 249 1461 345 1512 C 440 1563 576 1589 752 1589 L 961 1589 L 961 1305 L 768 1305 C 634 1305 538 1279 481 1229 C 423 1178 395 1098 395 989 C 453 1077 580 1122 776 1122 C 890 1122 984 1103 1059 1065 C 1134 1027 1190 966 1228 884 C 1265 801 1284 687 1284 541 C 1284 352 1233 211 1131 117 C 1029 23 878 -23 680 -23 Z M 680 252 C 774 252 845 276 891 324 C 937 372 961 447 961 549 C 961 650 938 723 892 769 C 846 815 775 838 680 838 C 583 838 511 815 465 770 C 418 725 395 651 395 549 C 395 446 418 371 466 323 C 513 275 584 252 680 252 Z" unicode="б" />
<glyph horiz-adv-x="1333" d="M 127 1159 L 721 1159 C 901 1159 1027 1137 1101 1093 C 1175 1049 1212 976 1212 874 C 1212 729 1161 639 1059 604 C 1124 588 1171 559 1200 515 C 1228 471 1243 406 1243 319 C 1243 239 1226 176 1193 130 C 1159 84 1106 51 1033 31 C 960 10 855 0 717 0 L 127 0 L 127 1159 Z M 750 242 C 820 242 867 250 892 268 C 917 285 930 315 930 358 C 930 401 916 431 888 447 C 860 463 814 471 748 471 L 430 471 L 430 242 L 750 242 Z M 729 700 C 791 700 835 707 861 723 C 887 738 901 766 901 807 C 901 845 888 872 864 886 C 840 900 795 907 729 907 L 430 907 L 430 700 L 729 700 Z" unicode="в" />
<glyph horiz-adv-x="1110" d="M 127 1159 L 1065 1159 L 1065 885 L 449 885 L 449 0 L 127 0 L 127 1159 Z" unicode="г" />
<glyph horiz-adv-x="1587" d="M 84 268 L 123 268 C 167 268 197 275 213 290 C 228 305 236 338 236 389 L 236 1159 L 1352 1159 L 1352 268 L 1503 268 L 1503 -340 L 1204 -340 L 1204 0 L 385 0 L 385 -340 L 84 -340 L 84 268 Z M 1036 252 L 1036 891 L 557 891 L 557 367 C 557 335 554 311 550 294 C 545 277 536 263 524 252 L 1036 252 Z" unicode="д" />
<glyph horiz-adv-x="1268" d="M 676 -23 C 540 -23 428 -2 338 38 C 248 79 182 143 138 230 C 94 316 72 434 72 582 C 72 728 94 844 140 932 C 185 1019 252 1083 342 1124 C 431 1165 542 1186 674 1186 C 850 1186 979 1144 1061 1061 C 1143 977 1187 840 1191 648 L 1191 568 L 1190 459 L 383 459 C 390 405 404 363 426 332 C 447 301 477 278 517 262 C 556 246 609 238 676 238 C 754 238 821 246 878 262 C 935 278 989 306 1040 344 L 1202 135 C 1125 77 1046 37 964 13 C 882 -11 786 -23 676 -23 Z M 897 688 C 893 752 883 799 867 829 C 851 859 826 881 794 896 C 762 910 718 918 664 918 C 601 918 551 909 513 893 C 475 876 445 852 425 821 C 405 789 391 745 383 688 L 897 688 Z" unicode="е" />
<glyph horiz-adv-x="1888" d="M 793 1159 L 1094 1159 L 1094 681 L 1489 1159 L 1839 1159 L 1449 685 L 1874 0 L 1518 0 L 1234 445 L 1094 282 L 1094 0 L 793 0 L 793 283 L 654 446 L 371 0 L 12 0 L 438 686 L 47 1159 L 399 1159 L 793 683 L 793 1159 Z" unicode="ж" />
<glyph horiz-adv-x="1245" d="M 598 -25 C 352 -25 161 17 25 102 L 162 334 C 283 266 414 233 555 233 C 645 233 707 236 739 243 C 771 250 793 262 807 280 C 820 298 827 325 827 362 C 827 398 819 424 804 439 C 788 454 762 464 724 470 C 686 476 625 479 539 479 L 276 479 L 276 727 L 535 727 C 630 727 691 729 718 735 C 745 741 764 750 776 764 C 787 778 793 799 793 829 C 793 855 786 875 774 889 C 761 903 740 912 712 918 C 684 923 629 926 549 926 C 491 926 429 918 363 904 C 296 890 243 872 205 850 L 51 1073 C 105 1105 186 1132 292 1154 C 398 1175 502 1186 604 1186 C 787 1186 919 1163 1000 1118 C 1081 1072 1122 1001 1122 903 C 1122 829 1110 771 1088 729 C 1066 687 1027 655 971 635 C 1034 619 1080 588 1109 544 C 1138 499 1153 429 1153 334 C 1153 210 1110 120 1026 62 C 942 4 799 -25 598 -25 Z" unicode="з" />
<glyph horiz-adv-x="1380" d="M 127 1159 L 440 1159 L 440 508 L 909 1159 L 1253 1159 L 1253 0 L 940 0 L 940 723 L 418 0 L 127 0 L 127 1159 Z" unicode="и" />
<glyph horiz-adv-x="1380" d="M 127 1159 L 440 1159 L 440 508 L 909 1159 L 1253 1159 L 1253 0 L 940 0 L 940 723 L 418 0 L 127 0 L 127 1159 Z M 688 1239 C 600 1239 528 1252 470 1279 C 412 1306 366 1346 332 1399 C 297 1452 269 1532 248 1640 L 479 1683 C 497 1602 522 1549 552 1523 C 582 1497 627 1485 688 1485 C 749 1485 795 1498 825 1524 C 855 1550 879 1603 897 1683 L 1131 1642 C 1107 1534 1077 1453 1042 1400 C 1007 1346 961 1306 904 1279 C 846 1252 774 1239 688 1239 Z" unicode="й" />
<glyph horiz-adv-x="1239" d="M 127 1159 L 444 1159 L 444 680 L 840 1159 L 1190 1159 L 801 686 L 1225 0 L 868 0 L 585 446 L 444 281 L 444 0 L 127 0 L 127 1159 Z" unicode="к" />
<glyph horiz-adv-x="1483" d="M 84 268 L 123 268 C 170 268 202 276 218 292 C 234 308 242 341 242 389 L 242 1159 L 1356 1159 L 1356 0 L 1036 0 L 1036 891 L 557 891 L 557 350 C 557 224 532 133 484 78 C 436 23 354 -4 240 -4 C 202 -4 172 -3 148 -1 C 124 0 103 2 84 4 L 84 268 Z" unicode="л" />
<glyph horiz-adv-x="1683" d="M 127 1159 L 532 1159 L 848 403 L 1163 1159 L 1565 1159 L 1565 0 L 1245 0 L 1245 692 L 967 0 L 705 0 L 428 694 L 428 0 L 127 0 L 127 1159 Z" unicode="м" />
<glyph horiz-adv-x="1374" d="M 127 1159 L 449 1159 L 449 743 L 926 743 L 926 1159 L 1247 1159 L 1247 0 L 926 0 L 926 455 L 449 455 L 449 0 L 127 0 L 127 1159 Z" unicode="н" />
<glyph horiz-adv-x="1354" d="M 678 -23 C 472 -23 319 26 220 124 C 121 222 72 375 72 582 C 72 787 121 939 219 1038 C 317 1136 470 1186 678 1186 C 884 1186 1036 1137 1134 1039 C 1232 941 1282 788 1282 582 C 1282 374 1232 221 1133 123 C 1033 25 882 -23 678 -23 Z M 678 252 C 775 252 846 277 892 327 C 938 377 961 459 961 573 C 961 687 938 768 892 818 C 846 868 775 893 678 893 C 580 893 508 868 463 818 C 417 768 395 686 395 573 C 395 459 417 377 463 327 C 508 277 580 252 678 252 Z" unicode="о" />
<glyph horiz-adv-x="1370" d="M 127 1159 L 1243 1159 L 1243 0 L 922 0 L 922 891 L 444 891 L 444 0 L 127 0 L 127 1159 Z" unicode="п" />
<glyph horiz-adv-x="1395" d="M 127 1141 L 377 1159 L 403 1057 C 441 1102 496 1135 566 1155 C 636 1175 723 1186 827 1186 C 993 1186 1117 1138 1199 1042 C 1281 946 1323 792 1323 582 C 1323 372 1280 220 1194 125 C 1108 29 979 -18 809 -18 C 715 -18 639 -9 581 7 C 523 24 479 52 449 90 L 449 -338 L 127 -338 L 127 1141 Z M 745 254 C 831 254 895 278 936 326 C 976 374 997 455 997 569 C 997 651 988 715 971 759 C 954 803 927 836 890 859 C 853 881 805 893 745 893 C 639 893 564 868 518 819 C 472 770 449 687 449 569 C 449 451 470 369 514 323 C 558 277 635 254 745 254 Z" unicode="р" />
<glyph horiz-adv-x="1202" d="M 666 -18 C 527 -18 414 3 327 47 C 239 90 175 154 134 240 C 92 325 72 439 72 582 C 72 728 93 844 137 931 C 181 1017 248 1081 338 1123 C 428 1165 542 1186 680 1186 C 880 1186 1037 1123 1151 997 L 926 784 C 888 824 849 851 810 867 C 770 883 727 891 680 891 C 581 891 509 866 463 818 C 417 769 395 687 395 573 C 395 491 404 428 424 384 C 444 340 474 307 516 285 C 558 263 613 252 682 252 C 734 252 780 260 820 277 C 859 294 900 323 944 365 L 1149 168 C 1070 95 995 46 924 20 C 853 -5 767 -18 666 -18 Z" unicode="с" />
<glyph horiz-adv-x="1219" d="M 449 885 L 47 885 L 47 1159 L 1171 1159 L 1171 885 L 770 885 L 770 0 L 449 0 L 449 885 Z" unicode="т" />
<glyph horiz-adv-x="1196" d="M -2 1159 L 344 1159 L 612 421 L 872 1159 L 1198 1159 L 733 -51 C 703 -132 669 -193 632 -234 C 595 -274 549 -303 493 -321 C 437 -339 364 -348 274 -348 L 160 -344 L 160 -102 L 246 -102 C 288 -102 321 -99 344 -95 C 366 -90 384 -82 396 -72 C 408 -61 418 -42 426 -16 L 441 26 L -2 1159 Z" unicode="у" />
<glyph horiz-adv-x="2198" d="M 946 92 C 910 54 862 26 803 8 C 744 -10 668 -20 575 -20 C 407 -20 282 28 198 126 C 114 224 72 377 72 586 C 72 793 115 945 201 1041 C 287 1137 416 1186 586 1186 C 769 1186 889 1149 946 1077 L 946 1589 L 1249 1589 L 1249 1075 C 1281 1112 1327 1140 1389 1158 C 1450 1176 1530 1186 1630 1186 C 1796 1186 1920 1138 2002 1042 C 2084 946 2126 792 2126 582 C 2126 376 2083 224 1999 127 C 1915 30 1786 -18 1612 -18 C 1517 -18 1440 -9 1382 8 C 1324 25 1280 52 1251 90 L 1251 -338 L 946 -338 L 946 92 Z M 651 254 C 755 254 830 279 876 330 C 922 380 946 466 946 586 C 946 668 936 731 918 773 C 899 815 868 847 826 867 C 784 887 725 897 651 897 C 562 897 497 873 457 827 C 417 780 397 700 397 586 C 397 466 417 381 458 330 C 499 279 563 254 651 254 Z M 1548 254 C 1634 254 1698 278 1739 326 C 1779 374 1800 455 1800 569 C 1800 651 1791 715 1774 759 C 1757 803 1730 836 1693 859 C 1656 881 1608 893 1548 893 C 1441 893 1365 867 1319 817 C 1273 767 1251 684 1251 569 C 1251 486 1260 423 1280 379 C 1299 335 1330 304 1372 284 C 1414 264 1473 254 1548 254 Z" unicode="ф" />
<glyph horiz-adv-x="1227" d="M 49 1159 L 408 1159 L 632 838 L 842 1159 L 1180 1159 L 795 604 L 1217 0 L 856 0 L 596 374 L 348 0 L 10 0 L 434 606 L 49 1159 Z" unicode="х" />
<glyph horiz-adv-x="1479" d="M 1094 0 L 127 0 L 127 1159 L 449 1159 L 449 260 L 926 260 L 926 1159 L 1243 1159 L 1243 268 L 1395 268 L 1395 -340 L 1094 -340 L 1094 0 Z" unicode="ц" />
<glyph horiz-adv-x="1343" d="M 897 383 C 866 343 818 313 752 292 C 686 270 606 260 514 260 C 412 260 331 276 270 310 C 209 343 164 393 136 459 C 108 525 94 619 94 743 L 94 1159 L 416 1159 L 416 807 C 416 737 423 686 437 656 C 451 625 473 602 504 586 C 535 570 577 563 631 563 C 695 563 746 571 784 589 C 822 607 850 633 868 668 C 886 703 895 754 895 821 L 895 1159 L 1217 1159 L 1217 0 L 897 0 L 897 383 Z" unicode="ч" />
<glyph horiz-adv-x="2105" d="M 127 1159 L 449 1159 L 449 260 L 895 260 L 895 1159 L 1217 1159 L 1217 260 L 1661 260 L 1661 1159 L 1976 1159 L 1976 0 L 127 0 L 127 1159 Z" unicode="ш" />
<glyph horiz-adv-x="2214" d="M 1829 0 L 127 0 L 127 1159 L 449 1159 L 449 260 L 895 260 L 895 1159 L 1217 1159 L 1217 260 L 1661 260 L 1661 1159 L 1976 1159 L 1976 268 L 2130 268 L 2130 -340 L 1829 -340 L 1829 0 Z" unicode="щ" />
<glyph horiz-adv-x="1430" d="M 236 885 L 84 885 L 84 1159 L 555 1159 L 555 877 L 881 877 C 1037 877 1153 842 1231 773 C 1309 704 1348 597 1348 451 C 1348 150 1187 0 866 0 L 236 0 L 236 885 Z M 815 248 C 887 248 940 262 973 292 C 1005 322 1022 370 1022 438 C 1022 506 1006 555 975 584 C 944 612 891 627 815 627 L 555 627 L 555 248 L 815 248 Z" unicode="ъ" />
<glyph horiz-adv-x="1774" d="M 127 1159 L 444 1159 L 444 877 L 772 877 C 928 877 1044 842 1122 773 C 1200 704 1239 597 1239 451 C 1239 150 1078 0 758 0 L 127 0 L 127 1159 Z M 707 248 C 779 248 832 262 864 292 C 896 322 913 370 913 438 C 913 508 897 557 865 585 C 833 613 779 627 705 627 L 444 627 L 444 248 L 707 248 Z M 1325 1159 L 1647 1159 L 1647 0 L 1325 0 L 1325 1159 Z" unicode="ы" />
<glyph horiz-adv-x="1321" d="M 127 1159 L 444 1159 L 444 877 L 772 877 C 928 877 1044 842 1122 773 C 1200 704 1239 597 1239 451 C 1239 150 1078 0 758 0 L 127 0 L 127 1159 Z M 707 248 C 779 248 832 262 864 292 C 896 322 913 370 913 438 C 913 508 897 557 865 585 C 833 613 779 627 705 627 L 444 627 L 444 248 L 707 248 Z" unicode="ь" />
<glyph horiz-adv-x="1202" d="M 303 453 L 303 696 L 804 696 C 792 772 764 826 720 858 C 676 890 610 907 522 907 C 426 907 342 866 270 786 L 53 997 C 163 1123 322 1186 528 1186 C 736 1186 888 1138 985 1044 C 1081 949 1130 795 1130 582 C 1130 435 1108 318 1064 232 C 1020 146 955 82 867 42 C 779 2 669 -18 537 -18 C 434 -18 347 -5 275 21 C 203 47 127 96 49 168 L 248 358 C 288 319 330 292 374 276 C 418 260 468 252 524 252 C 614 252 681 267 724 298 C 767 329 794 381 805 453 L 303 453 Z" unicode="э" />
<glyph horiz-adv-x="1853" d="M 127 1159 L 449 1159 L 449 735 L 595 735 C 610 844 641 930 687 994 C 733 1058 797 1106 877 1138 C 957 1170 1057 1186 1176 1186 C 1382 1186 1535 1137 1634 1039 C 1732 941 1782 788 1782 582 C 1782 374 1732 221 1633 123 C 1534 25 1382 -23 1176 -23 C 1052 -23 950 -5 868 28 C 786 62 722 114 677 183 C 631 251 603 344 591 461 L 449 461 L 449 0 L 127 0 L 127 1159 Z M 1176 252 C 1274 252 1346 276 1391 325 C 1435 374 1458 457 1458 573 C 1458 689 1435 771 1391 820 C 1347 868 1275 893 1176 893 C 1077 893 1005 868 961 819 C 917 770 895 688 895 573 C 895 457 917 374 962 325 C 1006 276 1078 252 1176 252 Z" unicode="ю" />
<glyph horiz-adv-x="1366" d="M 920 334 L 641 334 L 457 0 L 113 0 L 322 377 C 172 436 98 560 98 750 C 98 889 138 992 218 1059 C 298 1125 420 1159 586 1159 L 1239 1159 L 1239 0 L 920 0 L 920 334 Z M 920 592 L 920 893 L 602 893 C 536 893 490 881 464 857 C 438 833 426 794 426 741 C 426 687 438 649 463 626 C 488 603 533 592 598 592 L 920 592 Z" unicode="я" />
<glyph horiz-adv-x="1268" d="M 256 1559 L 547 1559 L 547 1280 L 256 1280 L 256 1559 Z M 721 1559 L 1010 1559 L 1010 1280 L 721 1280 L 721 1559 Z M 676 -23 C 540 -23 428 -2 338 38 C 248 79 182 143 138 230 C 94 316 72 434 72 582 C 72 728 94 844 140 932 C 185 1019 252 1083 342 1124 C 431 1165 542 1186 674 1186 C 850 1186 979 1144 1061 1061 C 1143 977 1187 840 1191 648 L 1191 568 L 1190 459 L 383 459 C 390 405 404 363 426 332 C 447 301 477 278 517 262 C 556 246 609 238 676 238 C 754 238 821 246 878 262 C 935 278 989 306 1040 344 L 1202 135 C 1125 77 1046 37 964 13 C 882 -11 786 -23 676 -23 Z M 897 688 C 893 752 883 799 867 829 C 851 859 826 881 794 896 C 762 910 718 918 664 918 C 601 918 551 909 513 893 C 475 876 445 852 425 821 C 405 789 391 745 383 688 L 897 688 Z" unicode="ё" />
<glyph horiz-adv-x="1366" d="M 791 -102 L 817 -102 C 859 -102 887 -94 901 -79 C 915 -63 922 -32 924 16 L 924 592 C 924 664 917 715 903 745 C 889 775 868 798 838 814 C 808 830 767 838 713 838 C 649 838 599 829 561 812 C 523 794 496 768 479 734 C 461 699 453 647 453 578 L 453 0 L 133 0 L 133 1198 L -4 1198 L -4 1473 L 133 1473 L 133 1589 L 453 1589 L 453 1473 L 694 1473 L 694 1198 L 453 1198 L 453 1034 C 519 1104 644 1139 829 1139 C 929 1139 1010 1122 1071 1089 C 1131 1056 1175 1006 1203 940 C 1231 874 1245 779 1245 655 L 1245 -23 C 1245 -105 1233 -169 1209 -215 C 1185 -261 1146 -294 1092 -315 C 1038 -335 958 -346 852 -346 L 791 -346 L 791 -102 Z" unicode="ђ" />
<glyph horiz-adv-x="1110" d="M 636 1645 L 1023 1645 L 632 1270 L 347 1270 L 636 1645 Z M 127 1159 L 1065 1159 L 1065 885 L 449 885 L 449 0 L 127 0 L 127 1159 Z" unicode="ѓ" />
<glyph horiz-adv-x="1202" d="M 666 -18 C 464 -18 314 28 217 122 C 120 216 72 369 72 582 C 72 729 93 846 137 932 C 180 1018 246 1081 336 1123 C 426 1165 540 1186 680 1186 C 884 1186 1041 1123 1151 997 L 932 786 C 892 830 851 862 811 880 C 770 898 726 907 680 907 C 596 907 533 892 489 862 C 445 832 416 786 402 722 L 397 696 L 899 696 L 899 453 L 397 453 C 407 381 433 329 477 298 C 521 267 589 252 682 252 C 740 252 789 260 830 277 C 870 294 910 321 950 358 L 1149 168 C 1070 95 995 46 924 20 C 853 -5 767 -18 666 -18 Z" unicode="є" />
<glyph horiz-adv-x="1174" d="M 573 -18 C 348 -18 164 30 20 127 L 184 362 C 242 324 307 295 381 274 C 455 252 526 242 594 242 C 681 242 738 248 764 262 C 790 275 803 300 803 338 C 803 358 798 373 788 385 C 778 397 763 406 741 414 C 719 421 671 430 598 440 C 490 454 414 468 369 480 C 323 492 283 508 249 526 C 214 544 185 566 163 593 C 140 619 122 651 110 688 C 98 724 92 769 92 823 C 92 948 133 1040 215 1098 C 297 1156 424 1186 598 1186 C 693 1186 783 1176 869 1158 C 955 1139 1027 1113 1087 1079 L 934 829 C 886 853 833 872 773 885 C 713 898 658 905 608 905 C 559 905 520 902 492 897 C 463 891 442 883 430 872 C 418 860 412 843 412 821 C 412 790 424 768 449 755 C 473 742 524 731 602 721 C 676 711 744 699 807 687 C 869 675 923 656 969 631 C 1015 606 1051 572 1077 529 C 1103 485 1116 428 1116 356 C 1116 263 1098 190 1062 137 C 1026 84 970 45 892 20 C 814 -5 707 -18 573 -18 Z" unicode="ѕ" />
<glyph horiz-adv-x="600" d="M 139 1159 L 459 1159 L 459 0 L 139 0 L 139 1159 Z M 137 1559 L 461 1559 L 461 1266 L 137 1266 L 137 1559 Z" unicode="і" />
<glyph horiz-adv-x="600" d="M -33 1559 L 225 1559 L 225 1280 L -33 1280 L -33 1559 Z M 375 1559 L 633 1559 L 633 1280 L 375 1280 L 375 1559 Z M 139 1159 L 459 1159 L 459 0 L 139 0 L 139 1159 Z" unicode="ї" />
<glyph horiz-adv-x="600" d="M 6 -102 L 31 -102 C 62 -102 85 -98 100 -91 C 114 -84 124 -72 130 -55 C 136 -37 139 -3 139 47 L 139 1159 L 459 1159 L 459 49 C 459 -61 447 -143 425 -197 C 402 -251 364 -289 311 -312 C 258 -334 176 -346 66 -346 L 6 -346 L 6 -102 Z M 137 1559 L 461 1559 L 461 1266 L 137 1266 L 137 1559 Z" unicode="ј" />
<glyph horiz-adv-x="2218" d="M 84 268 L 123 268 C 170 268 202 276 218 292 C 234 308 242 341 242 389 L 242 1159 L 1343 1159 L 1343 877 L 1669 877 C 1825 877 1941 842 2019 772 C 2097 702 2136 595 2136 451 C 2136 150 1975 0 1655 0 L 1032 0 L 1032 891 L 557 891 L 557 350 C 557 224 532 133 484 78 C 436 23 354 -4 240 -4 C 202 -4 172 -3 148 -1 C 124 0 103 2 84 4 L 84 268 Z M 1604 248 C 1676 248 1728 262 1761 292 C 1793 321 1810 370 1810 438 C 1810 508 1794 557 1762 585 C 1730 613 1676 627 1602 627 L 1343 627 L 1343 248 L 1604 248 Z" unicode="љ" />
<glyph horiz-adv-x="2109" d="M 127 1159 L 449 1159 L 449 743 L 924 743 L 924 1159 L 1235 1159 L 1235 877 L 1561 877 C 1716 877 1832 842 1909 772 C 1986 702 2025 595 2025 451 C 2025 150 1865 0 1546 0 L 924 0 L 924 455 L 449 455 L 449 0 L 127 0 L 127 1159 Z M 1495 248 C 1567 248 1619 262 1651 292 C 1683 321 1700 370 1700 438 C 1700 506 1684 555 1653 584 C 1622 612 1569 627 1493 627 L 1235 627 L 1235 248 L 1495 248 Z" unicode="њ" />
<glyph horiz-adv-x="1366" d="M -4 1473 L 133 1473 L 133 1589 L 453 1589 L 453 1473 L 694 1473 L 694 1198 L 453 1198 L 453 1034 C 519 1104 644 1139 829 1139 C 929 1139 1010 1122 1071 1089 C 1131 1056 1175 1006 1203 940 C 1231 874 1245 779 1245 655 L 1245 0 L 924 0 L 924 592 C 924 664 917 715 903 745 C 889 775 868 798 838 814 C 808 830 767 838 713 838 C 649 838 599 829 561 812 C 523 794 496 768 479 734 C 461 699 453 647 453 578 L 453 0 L 133 0 L 133 1198 L -4 1198 L -4 1473 Z" unicode="ћ" />
<glyph horiz-adv-x="1239" d="M 694 1645 L 1081 1645 L 690 1270 L 405 1270 L 694 1645 Z M 127 1159 L 444 1159 L 444 680 L 840 1159 L 1190 1159 L 801 686 L 1225 0 L 868 0 L 585 446 L 444 281 L 444 0 L 127 0 L 127 1159 Z" unicode="ќ" />
<glyph horiz-adv-x="1196" d="M -2 1159 L 344 1159 L 612 421 L 872 1159 L 1198 1159 L 733 -51 C 703 -132 669 -193 632 -234 C 595 -274 549 -303 493 -321 C 437 -339 364 -348 274 -348 L 160 -344 L 160 -102 L 246 -102 C 288 -102 321 -99 344 -95 C 366 -90 384 -82 396 -72 C 408 -61 418 -42 426 -16 L 441 26 L -2 1159 Z M 601 1239 C 513 1239 441 1252 383 1279 C 325 1306 279 1346 245 1399 C 210 1452 182 1532 161 1640 L 392 1683 C 410 1602 435 1549 465 1523 C 495 1497 540 1485 601 1485 C 662 1485 708 1498 738 1524 C 768 1550 792 1603 810 1683 L 1044 1642 C 1020 1534 990 1453 955 1400 C 920 1346 874 1306 817 1279 C 759 1252 687 1239 601 1239 Z" unicode="ў" />
<glyph horiz-adv-x="1370" d="M 535 0 L 127 0 L 127 1159 L 449 1159 L 449 260 L 926 260 L 926 1159 L 1243 1159 L 1243 0 L 836 0 L 836 -340 L 535 -340 L 535 0 Z" unicode="џ" />
<glyph horiz-adv-x="1266" d="M 152 1518 L 899 1518 L 899 1858 L 1235 1858 L 1235 1214 L 487 1214 L 487 0 L 152 0 L 152 1518 Z" unicode="Ґ" />
<glyph horiz-adv-x="1110" d="M 127 1159 L 764 1159 L 764 1501 L 1065 1501 L 1065 885 L 449 885 L 449 0 L 127 0 L 127 1159 Z" unicode="ґ" />
<glyph horiz-adv-x="600" d="M 113 938 L 485 938 L 485 561 L 113 561 L 113 938 Z" unicode="∙" />
<glyph horiz-adv-x="1415" d="" unicode="√" />
<glyph horiz-adv-x="1225" d="M 453 834 L 96 834 L 96 1122 L 453 1122 L 453 1589 L 770 1589 L 770 1122 L 1128 1122 L 1128 834 L 770 834 L 770 -340 L 453 -340 L 453 834 Z" unicode="†" />
<glyph horiz-adv-x="1225" d="M 453 145 L 96 145 L 96 434 L 453 434 L 453 834 L 96 834 L 96 1122 L 453 1122 L 453 1589 L 770 1589 L 770 1122 L 1128 1122 L 1128 834 L 770 834 L 770 434 L 1128 434 L 1128 145 L 770 145 L 770 -340 L 453 -340 L 453 145 Z" unicode="‡" />
<glyph horiz-adv-x="795" d="M 182 856 L 614 856 L 614 389 L 182 389 L 182 856 Z" unicode="•" />
<glyph horiz-adv-x="1470" d="M 59 688 L 294 688 L 293 762 L 293 807 L 59 807 L 59 1030 L 314 1030 C 340 1198 404 1325 505 1412 C 605 1498 745 1542 924 1542 C 1020 1542 1101 1535 1166 1523 C 1231 1511 1298 1488 1366 1454 L 1225 1190 C 1141 1233 1043 1255 932 1255 C 845 1255 777 1236 728 1200 C 678 1164 644 1107 625 1030 L 1059 1030 L 1059 807 L 602 807 L 602 768 L 603 688 L 1059 688 L 1059 463 L 636 463 C 678 321 776 250 928 250 C 1042 250 1142 276 1227 328 L 1376 86 C 1314 48 1247 20 1173 2 C 1099 -16 1012 -25 911 -25 C 749 -25 619 14 521 94 C 422 174 355 297 320 463 L 59 463 L 59 688 Z" unicode="€" />
<glyph horiz-adv-x="1726" d="M 113 369 L 485 369 L 485 0 L 113 0 L 113 369 Z M 676 369 L 1049 369 L 1049 0 L 676 0 L 676 369 Z M 1239 369 L 1612 369 L 1612 0 L 1239 0 L 1239 369 Z" unicode="…" />
<glyph horiz-adv-x="1313" d="" unicode="◊" />
<glyph horiz-adv-x="1704" d="" unicode="" />
<glyph horiz-adv-x="2933" d="M 152 1518 L 514 1518 L 1212 561 L 1212 1518 L 1532 1518 L 1532 0 L 1225 0 L 473 1024 L 473 0 L 152 0 L 152 1518 Z M 2206 565 C 2040 565 1916 605 1836 685 C 1756 765 1716 889 1716 1055 C 1716 1221 1756 1344 1837 1423 C 1918 1502 2041 1542 2206 1542 C 2370 1542 2493 1502 2574 1422 C 2654 1342 2695 1220 2695 1055 C 2695 890 2655 767 2575 686 C 2495 605 2372 565 2206 565 Z M 2206 791 C 2281 791 2337 811 2375 852 C 2412 893 2431 958 2431 1047 C 2431 1135 2412 1200 2375 1241 C 2337 1282 2281 1303 2206 1303 C 2131 1303 2075 1282 2037 1242 C 1999 1201 1980 1136 1980 1047 C 1980 957 1999 892 2037 852 C 2075 811 2131 791 2206 791 Z M 1776 463 L 2636 463 L 2636 233 L 1776 233 L 1776 463 Z" unicode="№" />
<glyph horiz-adv-x="2279" d="M 1026 1518 L 1298 1518 L 1544 883 L 1792 1518 L 2064 1518 L 2064 575 L 1829 575 L 1829 1122 L 1620 575 L 1462 575 L 1253 1122 L 1253 575 L 1026 575 L 1026 1518 Z M 403 1305 L 98 1305 L 98 1518 L 948 1518 L 948 1305 L 643 1305 L 643 575 L 403 575 L 403 1305 Z" unicode="™" />
<glyph horiz-adv-x="995" d="M 170 578 L 479 1159 L 768 1159 L 483 578 L 768 0 L 479 0 L 170 578 Z" unicode="‹" />
</font>
</defs>
</svg>
