<?xml version="1.0" encoding="UTF-8"?><svg xmlns="http://www.w3.org/2000/svg" width="100%" height="100%"><defs><font id="web" horiz-adv-x="999"><!--



NOTICE: This font software is the valuable property 
of Webtype LLC, The Font Bureau, Webtype and/or its 
suppliers and its use by you is covered under the terms 
of the Web Font license agreement between you and Webtype 
LLC. You may ONLY use this font software with the licensed 
web site. Except as specifically permitted by the license, 
you may not copy this font software. If you have any 
questions, please contact Webtype.com. 

For more information, please visit http://www.webtype.com/store/license/?id=23

Licensed to: http://www.ford.com/

Serial number: SH-531
--><font-face font-family="" units-per-em="2048" panose-1="2 0 5 6 0 0 0 2 0 4" ascent="2220" descent="-766" alphabetic="0"/><missing-glyph horiz-adv-x="1024" d="M0 1434H1024V0H0V1434ZM102 102H922V1331H102V102Z"/><glyph unicode=" " horiz-adv-x="375"/><glyph unicode="!" horiz-adv-x="598" d="M205 217H393V0H205V217ZM219 1518H383L367 418H233L219 1518Z"/><glyph unicode="&quot;" horiz-adv-x="807" d="M158 1518H309L301 934H164L158 1518ZM498 1518H651L643 934H508L498 1518Z"/><glyph unicode="#" horiz-adv-x="1174" d="M281 477H102V616H301L342 891H102V1028H365L438 1518H580L506 1028H750L821 1518H963L889 1028H1071V891H868L827 616H1071V477H807L733 0H594L666 477H422L350 0H209L281 477ZM692 606L739 899H477L432 606H692Z"/><glyph unicode="$" horiz-adv-x="1081" d="M104 117L176 229Q321 142 481 128V746Q340 811 281 861T190 977T158 1141Q158 1318 237 1409T475 1516V1694H618V1518Q779 1507 911 1436L844 1315Q735 1372 610 1380V836L724 779Q848 715 908 622T969 399Q969 213 882 116T618 2V-186H475V0Q267 10 104 117ZM821 391Q821 487 776 554T610 684V131Q717 147 769 210T821 391ZM305 1145Q305 1064 345 1007T481 898V1376Q305 1350 305 1145Z"/><glyph unicode="%" horiz-adv-x="1817" d="M395 580Q222 580 147 693T72 1055Q72 1307 147 1419T395 1532Q568 1532 645 1422T723 1055Q723 803 646 692T395 580ZM397 696Q503 696 545 778T588 1053Q588 1244 546 1326T397 1409Q292 1409 250 1328T207 1053Q207 858 249 777T397 696ZM1421 -14Q1248 -14 1172 97T1096 463Q1096 717 1172 828T1421 940Q1595 940 1671 827T1747 463Q1747 211 1671 99T1421 -14ZM1421 104Q1524 104 1568 185T1612 459Q1612 653 1568 735T1421 817Q1317 817 1274 736T1231 459Q1231 263 1274 184T1421 104ZM1167 1518H1309L651 0H512L1167 1518Z"/><glyph unicode="&amp;" horiz-adv-x="1313" d="M508 -12Q296 -12 190 89T84 406Q84 628 286 792L372 860Q242 1051 242 1233Q242 1381 311 1461T535 1542Q827 1542 827 1233Q827 1128 769 1031T570 827Q574 821 920 400Q941 454 957 514T985 641T1028 944L1165 928Q1131 649 1099 517T1017 283L1251 0H1067L935 160Q871 81 763 35T508 -12ZM448 756L381 697Q233 560 233 412Q233 252 300 185T508 117Q732 117 847 267L448 756ZM684 1233Q684 1328 648 1369T535 1411Q459 1411 423 1370T387 1233Q387 1159 414 1086T495 930Q597 1014 640 1086T684 1233Z"/><glyph unicode="'" horiz-adv-x="467" d="M158 1518H311L301 934H164L158 1518Z"/><glyph unicode="(" horiz-adv-x="782" d="M524 -350Q422 -250 346 -102T226 232T182 621Q182 820 226 1005T348 1341T524 1591L635 1516Q489 1356 412 1125T334 621Q334 354 413 115T635 -276L524 -350Z"/><glyph unicode=")" horiz-adv-x="782" d="M150 -276Q296 -112 372 119T449 623Q449 890 371 1126T150 1516L256 1591Q359 1492 436 1344T556 1013T600 623Q600 421 556 235T433 -104T256 -350L150 -276Z"/><glyph unicode="*" horiz-adv-x="948" d="M426 995L160 819L94 930L379 1085L94 1243L160 1352L426 1178L412 1520H535L522 1176L791 1354L856 1245L567 1085L856 930L791 819L522 995L535 655H412L426 995Z"/><glyph unicode="+" horiz-adv-x="1128" d="M494 653H174V786H494V1171H635V786H956V653H635V268H494V653Z"/><glyph unicode="," horiz-adv-x="410" d="M102 -139Q157 -107 171 -93T192 -61T199 0H111V219H299V12Q299 -61 287 -96T243 -159T147 -219L102 -139Z"/><glyph unicode="-" horiz-adv-x="727" d="M82 700H643V561H82V700Z"/><glyph unicode="." horiz-adv-x="410" d="M111 219H299V0H111V219Z"/><glyph unicode="/" horiz-adv-x="821" d="M672 1518H821L150 0H0L672 1518Z"/><glyph unicode="0" horiz-adv-x="1169" d="M586 -16Q409 -16 310 55T167 280T123 758Q123 1085 166 1239T309 1463T586 1534Q761 1534 859 1463T1002 1235T1047 758Q1047 433 1004 279T861 54T586 -16ZM586 123Q707 123 772 180T866 366T895 758Q895 1012 866 1142T771 1331T586 1389Q464 1389 399 1332T305 1146T276 758Q276 495 304 367T399 181T586 123Z"/><glyph unicode="1" horiz-adv-x="604" d="M274 1380H47V1518H422V0H274V1380Z"/><glyph unicode="2" horiz-adv-x="979" d="M78 123L395 543Q516 703 586 807T682 982T709 1153Q709 1279 657 1335T475 1391Q308 1391 166 1321L102 1448Q199 1496 293 1515T496 1534Q685 1534 772 1450T860 1171Q860 1064 834 980T741 789T508 461L260 133H874V0H78V123Z"/><glyph unicode="3" horiz-adv-x="973" d="M442 -16Q324 -16 237 5T68 74L137 197Q201 162 270 142T434 121Q593 121 657 195T721 446Q721 576 692 634T597 720T422 748H254V883H434Q562 883 624 942T686 1139Q686 1234 664 1288T592 1366T440 1391Q302 1391 154 1323L92 1444Q254 1534 461 1534Q605 1534 682 1498T797 1382T834 1169Q834 1028 795 945T668 829Q781 795 824 709T868 434Q868 194 770 89T442 -16Z"/><glyph unicode="4" horiz-adv-x="1083" d="M80 483L610 1518H768L240 489H679L709 969H819V489H1028V360H819V0H678V360H80V483Z"/><glyph unicode="5" horiz-adv-x="1012" d="M479 -16Q244 -16 78 76L145 199Q227 155 305 138T471 121Q594 121 655 155T745 269T774 492Q774 629 748 706T665 817T494 850Q337 850 240 760L123 795L160 1518H852V1380H289L266 920Q368 987 537 987Q690 987 770 940T888 786T926 496Q926 304 884 194T750 34T479 -16Z"/><glyph unicode="6" horiz-adv-x="1102" d="M578 -16Q403 -16 304 37T161 211T117 602Q117 914 134 1046T192 1266T304 1410T485 1491T752 1518H848V1380H743Q612 1380 525 1356T384 1280T305 1141T270 881Q368 1014 618 1014Q762 1014 847 966T971 819T1010 526Q1010 316 968 204T832 38T578 -16ZM580 119Q684 119 744 157T832 278T860 524Q860 669 833 743T745 851T584 885Q432 885 351 796T270 537Q270 362 299 279T395 158T580 119Z"/><glyph unicode="7" horiz-adv-x="862" d="M674 1380H41V1518H836V1399L383 0H223L674 1380Z"/><glyph unicode="8" horiz-adv-x="1112" d="M557 -16Q403 -16 302 28T153 165T104 430Q104 571 125 643T192 764T319 836Q230 869 189 941T147 1167Q147 1301 190 1377T323 1494T557 1534Q763 1534 864 1449T965 1167Q965 1013 924 940T795 836Q875 812 920 765T987 646T1008 430Q1008 260 960 166T811 28T557 -16ZM557 117Q711 117 783 190T856 444Q856 619 786 689T557 760Q448 760 383 728T287 631T256 444Q256 320 287 253T384 152T557 117ZM557 895Q694 895 756 952T819 1147Q819 1284 756 1342T557 1401Q420 1401 358 1341T295 1147Q295 1011 357 953T557 895Z"/><glyph unicode="9" horiz-adv-x="1102" d="M252 133H358Q485 133 571 157T712 231T792 365T829 633Q738 500 483 500Q339 500 254 549T131 697T92 987Q92 1199 135 1313T273 1480T526 1534Q702 1534 800 1479T942 1306T985 918Q985 615 968 479T910 254T798 110T617 27T352 0H252V133ZM518 629Q668 629 749 718T831 977Q831 1151 802 1234T707 1357T522 1397Q417 1397 357 1358T269 1234T242 987Q242 844 269 771T356 664T518 629Z"/><glyph unicode=":" horiz-adv-x="442" d="M127 215H313V0H127V215ZM127 1128H313V913H127V1128Z"/><glyph unicode=";" horiz-adv-x="442" d="M127 1128H313V913H127V1128ZM119 -139Q185 -101 200 -79T215 0H127V215H313V12Q313 -87 284 -130T164 -219L119 -139Z"/><glyph unicode="&lt;" horiz-adv-x="1124" d="M170 653V764L891 1180V1034L317 711L891 385V238L170 653Z"/><glyph unicode="=" horiz-adv-x="1130" d="M180 584H952V444H180V584ZM180 967H952V829H180V967Z"/><glyph unicode="&gt;" horiz-adv-x="1128" d="M233 385L807 707L233 1034V1180L956 764V653L233 238V385Z"/><glyph unicode="?" horiz-adv-x="1020" d="M395 408V452Q395 558 408 613T457 723T588 881Q682 982 711 1040T741 1176Q741 1294 682 1344T504 1395Q342 1395 195 1319L129 1446Q305 1534 524 1534Q709 1534 800 1455T891 1198Q891 1128 876 1072T830 965T713 819Q627 727 595 681T552 589T541 456V408H395ZM373 203H559V0H373V203Z"/><glyph unicode="@" horiz-adv-x="1714" d="M858 -338Q586 -338 429 -243T197 55T121 596Q121 931 196 1136T429 1436T858 1532Q1130 1532 1287 1436T1520 1135T1595 596Q1595 382 1571 274T1490 118T1327 70Q1216 70 1166 102T1104 211Q1064 134 987 103T786 72Q669 72 594 122T482 279T446 598Q446 805 480 910T588 1071T788 1126Q910 1126 978 1099T1083 1004L1106 1122L1210 1114V406Q1212 275 1223 239T1261 186T1339 170Q1406 170 1436 207T1480 333T1493 596Q1493 900 1429 1083T1231 1352T858 1438Q620 1438 486 1352T287 1082T223 596Q223 293 286 111T484 -157T858 -244Q975 -244 1103 -219T1339 -150L1374 -233Q1260 -284 1122 -311T858 -338ZM819 190Q917 190 971 227T1050 337T1075 598Q1075 778 1051 853T973 963T819 999Q731 999 681 960T607 843T584 596Q584 428 607 349T680 230T819 190Z"/><glyph unicode="A" horiz-adv-x="1182" d="M512 1528H670L1137 0H981L877 348H299L197 0H47L512 1528ZM836 487L590 1307L340 487H836Z"/><glyph unicode="B" horiz-adv-x="1135" d="M139 1518H596Q821 1518 922 1426T1024 1139Q1024 863 834 797Q950 764 1002 670T1055 416Q1055 202 948 101T608 0H139V1518ZM606 133Q763 133 832 204T901 426Q901 574 833 645T606 717H291V133H606ZM590 856Q742 856 806 919T870 1120Q870 1258 806 1320T590 1382H291V856H590Z"/><glyph unicode="C" horiz-adv-x="1034" d="M606 -16Q413 -16 296 63T126 300T72 758Q72 1062 126 1220T298 1456T614 1534Q832 1534 971 1444L889 1317Q776 1384 612 1384Q471 1384 388 1324T266 1136T227 756Q227 507 264 377T385 185T612 123Q700 123 766 139T915 205L991 86Q903 30 815 7T606 -16Z"/><glyph unicode="D" horiz-adv-x="1198" d="M139 1518H553Q765 1518 889 1445T1069 1219T1126 760Q1126 450 1069 297T886 72T541 0H139V1518ZM551 135Q709 135 800 193T931 373T971 758Q971 1016 932 1139T803 1319T559 1376H293V135H551Z"/><glyph unicode="E" horiz-adv-x="1034" d="M139 1518H936V1376H289V858H901V717H289V139H942V0H139V1518Z"/><glyph unicode="F" horiz-adv-x="989" d="M139 1518H938V1376H293V848H901V709H293V0H139V1518Z"/><glyph unicode="G" horiz-adv-x="1153" d="M602 -16Q407 -16 292 61T125 301T72 758Q72 1051 126 1217T297 1458T623 1534Q735 1534 826 1511T1006 1434L926 1307Q794 1386 616 1386Q463 1386 382 1326T263 1130T225 756Q225 510 262 376T381 180T612 119Q749 119 813 163T906 315T934 645V702H551V838H1081V666Q1081 381 1039 242T898 44T602 -16Z"/><glyph unicode="H" horiz-adv-x="1257" d="M160 1518H313V866H983V1518H1137V0H983V715H313V0H160V1518Z"/><glyph unicode="I" horiz-adv-x="455" d="M152 1518H305V0H152V1518Z"/><glyph unicode="J" horiz-adv-x="698" d="M51 139H193Q309 139 361 190T414 358V1518H567V350Q567 167 482 84T213 0H51V139Z"/><glyph unicode="K" horiz-adv-x="1157" d="M139 1518H291V765L905 1518H1083L619 949L1100 0H932L515 825L291 545V0H139V1518Z"/><glyph unicode="L" horiz-adv-x="963" d="M139 1518H293V139H924V0H139V1518Z"/><glyph unicode="M" horiz-adv-x="1473" d="M139 1518H332L735 260L1143 1518H1333V0H1182V1219L788 0H674L276 1219V0H139V1518Z"/><glyph unicode="N" horiz-adv-x="1251" d="M139 1518H307L967 305V1518H1114V0H971L285 1255V0H139V1518Z"/><glyph unicode="O" horiz-adv-x="1257" d="M631 -16Q480 -16 373 27T201 154T104 378T72 758Q72 1001 104 1140T201 1364T373 1491T631 1534Q781 1534 886 1491T1058 1363T1155 1137T1186 758Q1186 515 1155 377T1058 154T886 27T631 -16ZM631 123Q781 123 867 184T993 368T1032 754Q1032 959 1010 1070T941 1250T817 1352T631 1386Q487 1386 398 1329T268 1146T227 754Q227 489 267 363T398 180T631 123Z"/><glyph unicode="P" horiz-adv-x="1135" d="M139 1518H629Q856 1518 959 1408T1063 1069Q1063 839 958 723T625 606H291V0H139V1518ZM623 745Q778 745 844 820T911 1063Q911 1230 845 1304T623 1378H291V745H623Z"/><glyph unicode="Q" horiz-adv-x="1257" d="M831 -338Q672 -338 597 -272T522 -64V-57V-20L523 -4Q408 8 319 57T176 193T98 407T72 758Q72 1001 104 1140T201 1364T373 1491T631 1534Q781 1534 886 1491T1058 1363T1155 1137T1186 758Q1186 523 1157 390T1068 173T911 43T672 -9V-37Q672 -129 713 -167T846 -205H967V-338H831ZM631 123Q781 123 867 184T993 368T1032 754Q1032 959 1010 1070T941 1250T817 1352T631 1386Q487 1386 398 1329T268 1146T227 754Q227 489 267 363T398 180T631 123Z"/><glyph unicode="R" horiz-adv-x="1153" d="M139 1518H625Q849 1518 953 1410T1057 1075Q1057 686 751 625L1038 0H877L597 614H291V0H139V1518ZM621 754Q775 754 840 828T905 1069Q905 1232 840 1305T621 1378H291V754H621Z"/><glyph unicode="S" horiz-adv-x="1071" d="M537 -16Q267 -16 70 102L147 221Q247 165 342 142T535 119Q689 119 766 186T844 375Q844 452 820 503T741 597T502 725Q336 800 264 857T159 985T125 1155Q125 1335 237 1434T555 1534Q769 1534 936 1456L870 1323Q733 1389 557 1389Q422 1389 349 1329T276 1159Q276 1090 297 1047T367 966T571 854Q786 753 858 695T962 562T995 377Q995 188 876 86T537 -16Z"/><glyph unicode="T" horiz-adv-x="1100" d="M471 1376H41V1518H1059V1376H627V0H471V1376Z"/><glyph unicode="U" horiz-adv-x="1249" d="M627 -18Q364 -18 247 101T129 496V1518H283V506Q283 359 317 280T426 162T627 123Q813 123 893 209T973 506V1518H1120V496Q1120 305 1070 197T912 35T627 -18Z"/><glyph unicode="V" horiz-adv-x="1176" d="M47 1518H201L592 221L977 1518H1130L668 -10H510L47 1518Z"/><glyph unicode="W" horiz-adv-x="1735" d="M59 1518H215L510 291L807 1518H940L1239 291L1532 1518H1677L1311 -10H1165L868 1204L573 -10H426L59 1518Z"/><glyph unicode="X" horiz-adv-x="1149" d="M96 1518H264L581 934L887 1518H1051L658 794L1090 0H922L565 655L221 0H57L489 794L96 1518Z"/><glyph unicode="Y" horiz-adv-x="1126" d="M18 1518H184L565 729L948 1518H1106L639 559V0H487V561L18 1518Z"/><glyph unicode="Z" horiz-adv-x="1065" d="M70 123L788 1376H98V1518H971V1389L252 139H989V0H70V123Z"/><glyph unicode="[" horiz-adv-x="770" d="M197 1575H608V1444H348V-197H614V-324H197V1575Z"/><glyph unicode="\" horiz-adv-x="821" d="M0 1518H150L821 0H672L0 1518Z"/><glyph unicode="]" horiz-adv-x="770" d="M162 -197H426V1444H164V1575H578V-324H162V-197Z"/><glyph unicode="^" horiz-adv-x="952" d="M406 1812H551L780 1494H651L475 1705L299 1494H174L406 1812Z"/><glyph unicode="_" horiz-adv-x="731" d="M-61 -119H793V-238H-61V-119Z"/><glyph unicode="`" horiz-adv-x="952" d="M193 1567H365L596 1249H461L193 1567Z"/><glyph unicode="a" horiz-adv-x="1018" d="M401 -12Q235 -12 155 73T74 338Q74 490 131 580T311 711T655 752H705L698 849Q687 934 637 973T487 1012Q333 1012 211 950L147 1073Q297 1149 500 1149Q635 1149 710 1112T819 993T852 745V250Q852 192 859 171T884 142T944 133V0L925 -2H905Q814 -2 776 22T725 115Q680 51 604 20T401 -12ZM217 350Q217 226 267 171T430 115Q705 115 705 438V623H657Q470 623 383 598T256 515T217 350Z"/><glyph unicode="b" horiz-adv-x="1053" d="M121 1575H270V1012Q308 1082 386 1114T602 1147Q731 1147 813 1092T935 917T975 567Q975 336 935 216T811 41T598 -14Q504 -14 441 -1T337 37T256 121L233 -6L121 4V1575ZM561 119Q659 119 716 163T799 294T825 561Q825 745 799 832T716 963T561 1008Q452 1008 390 966T299 841T270 561Q270 362 298 282T389 160T561 119Z"/><glyph unicode="c" horiz-adv-x="840" d="M502 -16Q349 -16 256 43T121 221T78 567Q78 792 121 911T258 1089T508 1147Q662 1147 772 1094L709 963Q617 1008 514 1008Q361 1008 295 910T229 563Q229 385 257 296T347 162T516 117Q624 117 731 172L791 55Q713 16 646 0T502 -16Z"/><glyph unicode="d" horiz-adv-x="1053" d="M451 -14Q322 -14 240 41T118 216T78 569Q78 751 101 855T168 1020T285 1114T457 1147Q589 1147 665 1118T782 1020V1575H932V6L813 -4L799 129Q756 52 673 19T451 -14ZM492 119Q602 119 664 162T754 289T782 565Q782 762 754 843T664 966T492 1008Q394 1008 337 964T253 831T227 565Q227 380 255 290T341 160T492 119Z"/><glyph unicode="e" horiz-adv-x="952" d="M504 -14Q351 -14 258 41T121 214T78 567Q78 788 121 907T257 1087T504 1147Q599 1147 664 1127T771 1067T836 967T869 823T879 504H221L230 376Q246 241 313 179T510 117Q583 117 645 129T793 182L852 66Q702 -14 504 -14ZM739 641Q737 725 733 793T706 911T637 987T502 1014Q403 1014 344 976T256 861T222 641H739Z"/><glyph unicode="f" horiz-adv-x="649" d="M43 1128H215V1278Q215 1579 510 1579H574L627 1577V1446H522Q439 1446 402 1406T365 1266V1128H627V997H365V0H215V997H43V1128Z"/><glyph unicode="g" horiz-adv-x="981" d="M475 406Q394 406 328 422Q309 388 309 348Q309 301 346 285T485 268Q646 268 737 242T870 157T911 -12Q911 -181 807 -260T477 -340Q235 -340 138 -280T41 -66Q41 161 238 205Q174 247 174 340Q174 412 218 471Q96 556 96 774Q96 964 188 1057T475 1151Q523 1151 575 1145L901 1186V1065H733Q852 983 852 774Q852 589 762 498T475 406ZM475 537Q594 537 649 594T705 772Q705 901 646 957T475 1014Q244 1014 244 772Q244 653 300 595T475 537ZM475 -217Q634 -217 697 -174T760 -18Q760 50 735 82T649 129T475 143Q318 143 253 101T188 -43Q188 -146 248 -181T475 -217Z"/><glyph unicode="h" horiz-adv-x="1032" d="M121 1575H270V1018Q306 1086 387 1116T596 1147Q718 1147 787 1108T887 991T918 733V0H770V702Q770 840 749 897T680 980T547 1006Q440 1006 381 968T296 846T270 584V0H121V1575Z"/><glyph unicode="i" horiz-adv-x="406" d="M127 1128H276V0H127V1128ZM127 1493H279V1280H127V1493Z"/><glyph unicode="j" horiz-adv-x="406" d="M6 -199H23Q85 -199 106 -173T127 -63V1128H276V-68Q276 -174 253 -225T178 -300T31 -324H6V-199ZM127 1493H279V1280H127V1493Z"/><glyph unicode="k" horiz-adv-x="911" d="M121 1575H268V536L690 1128H852L508 649L883 0H723L410 527L268 322V0H121V1575Z"/><glyph unicode="l" horiz-adv-x="492" d="M416 0L399 -2H367Q273 -2 222 20T149 93T127 244V1575H276V260Q276 193 288 172T330 142T416 133V0Z"/><glyph unicode="m" horiz-adv-x="1616" d="M121 1120L240 1128L254 1008Q290 1083 369 1115T586 1147Q668 1147 722 1133T807 1090T860 1004Q901 1081 987 1114T1212 1147Q1332 1147 1399 1111T1495 1001T1524 733V0H1376V702Q1376 853 1357 905T1293 981T1163 1006Q1059 1006 1003 970T922 851T897 584V0H750V702Q750 854 731 906T665 982T537 1006Q433 1006 376 970T294 851T268 584V0H121V1120Z"/><glyph unicode="n" horiz-adv-x="1032" d="M121 1120L240 1128L254 1010Q295 1083 376 1115T594 1147Q716 1147 786 1108T887 990T918 733V0H770V702Q770 840 749 897T680 980T547 1006Q441 1006 382 968T296 847T270 584V0H121V1120Z"/><glyph unicode="o" horiz-adv-x="1024" d="M512 -16Q356 -16 261 44T122 222T78 567Q78 796 124 916T266 1091T512 1147Q662 1147 758 1092T901 916T948 567Q948 337 904 220T765 44T512 -16ZM512 117Q618 117 680 161T769 293T797 561Q797 745 769 832T680 964T512 1008Q406 1008 345 964T255 832T227 561Q227 379 255 293T345 162T512 117Z"/><glyph unicode="p" horiz-adv-x="1053" d="M121 1120L240 1128L252 1004Q296 1080 380 1113T602 1147Q731 1147 813 1092T935 917T975 567Q975 384 952 281T885 114T770 19T598 -14Q469 -14 391 15T270 115V-324H121V1120ZM561 119Q658 119 715 163T798 293T825 561Q825 740 799 828T716 962T561 1008Q452 1008 390 966T299 841T270 561Q270 368 298 285T389 161T561 119Z"/><glyph unicode="q" horiz-adv-x="1053" d="M782 121Q740 49 660 18T451 -14Q322 -14 240 41T118 216T78 569Q78 751 101 855T168 1020T285 1114T457 1147Q598 1147 676 1118T797 1016L819 1143L932 1135V-324H782V121ZM492 119Q602 119 664 162T754 289T782 565Q782 762 754 843T664 966T492 1008Q394 1008 337 964T253 831T227 565Q227 380 255 290T341 160T492 119Z"/><glyph unicode="r" horiz-adv-x="588" d="M121 1120L238 1128L254 993Q327 1139 567 1139V997Q487 996 430 971T338 900T287 779T270 559V0H121V1120Z"/><glyph unicode="s" horiz-adv-x="793" d="M387 -14Q181 -14 39 57L98 178Q227 111 387 111Q598 111 598 285Q598 335 579 371T517 439T360 526Q236 584 181 629T99 727T72 856Q72 1147 408 1147Q487 1147 557 1136T696 1094L639 969Q521 1016 403 1016Q215 1016 215 858Q215 793 260 748T444 639Q578 577 632 531T713 426T739 285Q739 138 649 62T387 -14Z"/><glyph unicode="t" horiz-adv-x="711" d="M43 1128H216L240 1444L362 1470V1128H631V997H362V297Q362 225 375 194T419 148T506 133H631V0L492 -4Q386 -4 326 22T240 107T213 283V997H43V1128Z"/><glyph unicode="u" horiz-adv-x="1008" d="M506 -16Q359 -16 274 24T152 147T115 401V1128H264V410Q264 280 287 225T362 144T508 119Q601 119 652 144T725 225T748 410V1128H893V401Q893 225 856 143T735 23T506 -16Z"/><glyph unicode="v" horiz-adv-x="903" d="M23 1128H176L455 195L733 1128H881L530 -8H373L23 1128Z"/><glyph unicode="w" horiz-adv-x="1427" d="M29 1128H178L414 231L649 1128H786L1020 236L1257 1128H1399L1092 -8H950L715 874L481 -8H336L29 1128Z"/><glyph unicode="x" horiz-adv-x="895" d="M61 1128H221L456 715L684 1128H836L530 585L864 0H705L439 466L182 0H31L365 594L61 1128Z"/><glyph unicode="y" horiz-adv-x="879" d="M23 1128H172L442 213L711 1128H856L469 -147Q439 -245 386 -284T221 -324H131V-199H225Q273 -199 296 -181T334 -117L366 -5L23 1128Z"/><glyph unicode="z" horiz-adv-x="811" d="M47 109L565 997H78V1128H748V1022L227 125H764V0H47V109Z"/><glyph unicode="{" horiz-adv-x="827" d="M545 -324Q390 -324 319 -266T248 -76Q248 -16 292 200L313 303Q336 416 336 459Q336 518 297 539T133 561V690Q257 690 296 711T336 791Q336 838 313 951Q262 1200 255 1246T248 1327Q248 1457 318 1516T543 1575H674V1444H582Q491 1444 446 1410T401 1288Q401 1230 443 1038Q485 845 485 772Q485 659 391 627Q485 589 485 481Q485 407 443 210Q401 13 401 -37Q401 -126 446 -161T582 -197H674V-324H545Z"/><glyph unicode="|" horiz-adv-x="543" d="M197 1575H348V-324H197V1575Z"/><glyph unicode="}" horiz-adv-x="827" d="M156 -197H248Q339 -197 383 -162T428 -37Q428 12 385 210Q342 407 342 481Q342 588 436 627Q342 663 342 772Q342 840 385 1038Q428 1235 428 1288Q428 1376 384 1410T248 1444H156V1575H287Q442 1575 511 1516T580 1327Q580 1268 536 1054Q506 906 499 862T492 791Q492 734 531 713T696 692V561Q570 561 531 540T492 459Q492 416 515 303Q563 69 571 15T580 -76Q580 -209 510 -266T285 -324H156V-197Z"/><glyph unicode="~" horiz-adv-x="952" d="M152 910Q223 1062 350 1062Q389 1062 421 1049T481 1020T536 991T588 978Q625 978 649 1004T700 1072L801 1015Q727 859 600 859Q562 859 530 871T469 899T414 926T362 939Q327 939 302 917T252 855L152 910Z"/><glyph unicode=" " horiz-adv-x="375"/><glyph unicode="¡" horiz-adv-x="600" d="M233 1102H369L383 0H217L233 1102ZM207 1518H395V1300H207V1518Z"/><glyph unicode="¢" horiz-adv-x="862" d="M426 -5Q308 9 233 72T123 250T88 567Q88 769 122 882T231 1059T426 1137V1315H571V1141Q693 1134 782 1090L719 963Q645 1001 563 1006V118Q644 123 743 172L801 59Q745 29 694 13T571 -8V-197H426V-5ZM434 127V998Q332 973 286 876T240 563Q240 346 285 251T434 127Z"/><glyph unicode="£" horiz-adv-x="977" d="M39 836H190Q145 1061 145 1165Q145 1354 235 1444T518 1534Q729 1534 891 1452L825 1331Q695 1395 518 1395Q402 1395 348 1337T293 1151Q293 1098 308 996T336 836H684V711H361Q418 417 418 322Q418 249 407 195Q548 121 672 121Q738 121 765 154T793 272V393H926V268Q926 114 873 52T688 -10Q609 -10 519 14T354 82Q313 37 238 19T37 0V133Q151 133 197 148T262 202T281 319Q281 414 216 711H39V836Z"/><glyph unicode="¤" horiz-adv-x="1152" d="M1056 392L940 284L740 500Q668 452 572 452Q480 452 408 500L208 284L92 392L300 608Q272 648 262 686T252 780Q252 883 300 952L92 1168L208 1276L408 1060Q480 1108 572 1108Q668 1108 740 1060L944 1276L1060 1156L852 952Q880 912 890 872T900 780Q900 684 848 608L1056 392ZM748 780Q748 860 698 910T572 960Q496 960 448 910T400 780Q400 700 450 652T572 604Q652 604 700 652T748 780Z"/><glyph unicode="¥" horiz-adv-x="1022" d="M109 293H438V465H109V590H438V629L33 1518H190L512 788L834 1518H987L584 632V590H915V465H584V293H915V168H584V0H438V168H109V293Z"/><glyph unicode="¦" horiz-adv-x="543" d="M197 463H348V-324H197V463ZM197 1575H348V788H197V1575Z"/><glyph unicode="§" horiz-adv-x="903" d="M231 -18L143 -16V106H219Q301 106 338 146T375 291V472Q234 485 168 555T102 764Q102 854 129 913T213 1007T375 1054V1219Q375 1391 445 1462T662 1534H752V1407H674Q591 1407 554 1367T516 1221V1054Q665 1041 733 972T801 764Q801 625 733 555T518 471V299Q518 128 449 55T231 -18ZM449 578Q559 578 617 620T676 760Q676 858 618 900T449 942Q339 942 283 900T227 760Q227 662 283 620T449 578Z"/><glyph unicode="¨" horiz-adv-x="952" d="M236 1444H371V1249H236V1444ZM584 1444H721V1249H584V1444Z"/><glyph unicode="©" horiz-adv-x="1366" d="M694 242Q563 242 485 294T370 453T334 768Q334 973 370 1079T485 1237T698 1290Q849 1290 942 1229L883 1143Q806 1190 696 1190Q557 1190 499 1098T440 764Q440 595 465 508T546 380T698 338Q767 338 812 352T903 395L956 311Q891 270 831 256T694 242ZM682 -20Q475 -20 345 63T151 311T88 758Q88 1038 150 1205T344 1456T682 1540Q888 1540 1019 1456T1214 1205T1278 758Q1278 481 1215 315T1021 65T682 -20ZM682 51Q948 51 1075 217T1202 758Q1202 1135 1075 1301T682 1468Q417 1468 291 1301T164 758Q164 384 291 218T682 51Z"/><glyph unicode="ª" horiz-adv-x="893" d="M360 592Q100 592 100 877Q100 999 146 1070T290 1174T573 1206H610Q608 1297 591 1338T538 1398T436 1417Q321 1417 213 1368L162 1475Q288 1534 449 1534Q558 1534 618 1504T706 1407T733 1204V807Q733 745 748 729T811 713V600H772Q697 600 664 627T623 727Q552 592 360 592ZM223 887Q223 790 261 744T391 698Q610 698 610 956V1102H573Q424 1102 356 1083T255 1018T223 887ZM125 426H754V311H125V426Z"/><glyph unicode="«" horiz-adv-x="1118" d="M141 563L385 1128H520L285 563L520 0H385L141 563ZM561 563L805 1128H938L702 563L938 0H805L561 563Z"/><glyph unicode="¬" horiz-adv-x="1536" d="M1116 352V728H212V920H1296V352H1116Z"/><glyph unicode="­" horiz-adv-x="727" d="M82 700H643V561H82V700Z"/><glyph unicode="®" horiz-adv-x="1366" d="M682 -20Q475 -20 345 63T151 311T88 758Q88 1038 150 1205T344 1456T682 1540Q888 1540 1019 1456T1214 1205T1278 758Q1278 481 1215 315T1021 65T682 -20ZM682 51Q948 51 1075 217T1202 758Q1202 1135 1075 1301T682 1468Q417 1468 291 1301T164 758Q164 384 291 218T682 51ZM401 1272H725Q879 1272 945 1203T1012 977Q1012 834 962 766T807 682L1001 256H897L703 676H506V256H401V1272ZM721 764Q826 764 868 812T911 973Q911 1083 869 1131T721 1180H506V764H721Z"/><glyph unicode="¯" horiz-adv-x="952" d="M180 1374H772V1249H180V1374Z"/><glyph unicode="°" horiz-adv-x="924" d="M463 575Q280 575 193 686T106 1055Q106 1311 193 1422T463 1534Q645 1534 732 1424T819 1055Q819 877 783 778T669 627T463 575ZM463 694Q545 694 595 731T669 840T692 1053Q692 1193 669 1263T596 1370T463 1407Q344 1407 289 1328T233 1053Q233 915 256 842T330 732T463 694Z"/><glyph unicode="±" horiz-adv-x="1128" d="M494 666H174V797H494V1171H635V797H956V666H635V291H494V666ZM174 166H956V33H174V166Z"/><glyph unicode="²" horiz-adv-x="735" d="M109 680L303 936Q443 1124 467 1171T492 1278Q492 1353 460 1384T354 1415Q248 1415 166 1372L113 1475Q226 1528 371 1528Q501 1528 556 1470T612 1294Q612 1231 599 1187T550 1086T266 698H625V596H109V680Z"/><glyph unicode="³" horiz-adv-x="739" d="M342 586Q194 586 96 645L150 739Q232 692 334 692Q431 692 467 733T504 877Q504 947 487 977T432 1021T326 1036H217V1143H330Q409 1143 446 1174T483 1280Q483 1332 471 1361T431 1404T338 1417Q240 1417 158 1376L109 1473Q159 1498 224 1513T352 1528Q452 1528 502 1506T577 1435T602 1303Q602 1232 584 1180T508 1102Q551 1087 575 1062T611 997T623 866Q623 715 558 651T342 586Z"/><glyph unicode="´" horiz-adv-x="952" d="M590 1567H758L492 1249H356L590 1567Z"/><glyph unicode="µ" horiz-adv-x="1014" d="M121 1128H270V410Q270 280 293 225T367 145T514 119Q607 119 658 144T731 225T754 410V1128H899V401Q899 223 863 142T744 22T518 -16Q326 -16 270 78V-324H121V1128Z"/><glyph unicode="¶" horiz-adv-x="1018" d="M733 614H561V0H416V621Q243 641 162 746T80 1067Q80 1314 185 1416T530 1518H879V0H733V614ZM733 745V1382H528Q366 1382 298 1310T229 1063Q229 892 296 819T528 745H733Z"/><glyph unicode="·" horiz-adv-x="410" d="M111 795H299V571H111V795Z"/><glyph unicode="¸" horiz-adv-x="952" d="M512 -434Q414 -434 319 -393L356 -313Q434 -342 504 -342Q570 -342 599 -320T629 -242Q629 -194 605 -176T514 -157L475 -158L432 -127L461 14H555L537 -92L568 -91Q657 -91 697 -131T737 -250Q737 -346 684 -390T512 -434Z"/><glyph unicode="¹" horiz-adv-x="522" d="M227 1405H88V1518H352V596H227V1405Z"/><glyph unicode="º" horiz-adv-x="893" d="M446 588Q318 588 242 637T130 781T94 1061Q94 1243 129 1339T242 1484T446 1534Q575 1534 652 1484T765 1338T801 1061Q801 876 765 781T653 637T446 588ZM446 700Q530 700 578 735T649 839T672 1059Q672 1206 650 1275T580 1379T446 1415Q362 1415 314 1379T243 1274T221 1059Q221 910 243 841T313 736T446 700ZM119 426H774V311H119V426Z"/><glyph unicode="»" horiz-adv-x="1118" d="M416 565L178 1128H313L557 565L313 0H178L416 565ZM834 565L598 1128H733L975 565L733 0H598L834 565Z"/><glyph unicode="¼" horiz-adv-x="1450" d="M954 1518H1094L438 0H301L954 1518ZM770 297L1092 922H1221L899 301H1138L1161 565H1253V301H1378V199H1253V0H1137V199H770V297ZM248 1405H109V1518H373V596H248V1405Z"/><glyph unicode="½" horiz-adv-x="1554" d="M954 1518H1094L438 0H301L954 1518ZM248 1405H109V1518H373V596H248V1405ZM915 86L1112 338Q1238 509 1260 547T1291 613T1300 684Q1300 759 1269 789T1163 819Q1057 819 975 778L922 879Q1030 934 1178 934Q1308 934 1364 876T1421 700Q1421 611 1386 540T1202 274L1075 102H1432V0H915V86Z"/><glyph unicode="¾" horiz-adv-x="1589" d="M1094 1518H1231L575 0H438L1094 1518ZM342 586Q194 586 96 645L150 739Q232 692 334 692Q431 692 467 733T504 877Q504 947 487 977T432 1021T326 1036H217V1143H330Q409 1143 446 1174T483 1280Q483 1332 471 1361T431 1404T338 1417Q240 1417 158 1376L109 1473Q159 1498 224 1513T352 1528Q452 1528 502 1506T577 1435T602 1303Q602 1232 584 1180T508 1102Q551 1087 575 1062T611 997T623 866Q623 715 558 651T342 586ZM909 297L1233 922H1362L1038 301H1279L1303 565H1393V301H1520V199H1393V0H1278V199H909V297Z"/><glyph unicode="¿" horiz-adv-x="1063" d="M539 -16Q355 -16 264 62T172 319Q172 422 206 501T350 698Q452 810 478 852T513 938T523 1062L522 1110H668V1066Q668 956 653 900T598 785T473 637Q376 531 349 474T322 342Q322 224 379 174T559 123Q639 123 719 143T866 199L934 72Q850 29 747 7T539 -16ZM502 1518H688V1315H502V1518Z"/><glyph unicode="À" horiz-adv-x="1182" d="M512 1528H670L1137 0H981L877 348H299L197 0H47L512 1528ZM836 487L590 1307L340 487H836ZM306 1925H478L709 1607H574L306 1925Z"/><glyph unicode="Á" horiz-adv-x="1182" d="M512 1528H670L1137 0H981L877 348H299L197 0H47L512 1528ZM836 487L590 1307L340 487H836ZM703 1925H871L605 1607H469L703 1925Z"/><glyph unicode="Â" horiz-adv-x="1182" d="M512 1528H670L1137 0H981L877 348H299L197 0H47L512 1528ZM836 487L590 1307L340 487H836ZM519 1925H664L893 1607H764L588 1818L412 1607H287L519 1925Z"/><glyph unicode="Ã" horiz-adv-x="1182" d="M512 1528H670L1137 0H981L877 348H299L197 0H47L512 1528ZM836 487L590 1307L340 487H836ZM265 1656Q336 1808 463 1808Q502 1808 534 1795T594 1766T649 1737T701 1724Q738 1724 762 1750T813 1818L914 1761Q840 1605 713 1605Q675 1605 643 1617T582 1645T527 1672T475 1685Q440 1685 415 1663T365 1601L265 1656Z"/><glyph unicode="Ä" horiz-adv-x="1182" d="M512 1528H670L1137 0H981L877 348H299L197 0H47L512 1528ZM836 487L590 1307L340 487H836ZM349 1802H484V1607H349V1802ZM697 1802H834V1607H697V1802Z"/><glyph unicode="Å" horiz-adv-x="1182" d="M492 1460Q389 1508 389 1669Q389 1782 440 1840T590 1898Q688 1898 739 1839T791 1669Q791 1515 688 1462L1137 0H981L877 348H299L197 0H47L492 1460ZM836 487L590 1307L340 487H836ZM590 1528Q700 1528 700 1669Q700 1812 590 1812Q477 1812 477 1669Q477 1528 590 1528Z"/><glyph unicode="Æ" horiz-adv-x="1741" d="M768 1518H1642V1376H995V856H1608V717H995V139H1649V0H846V354H356L186 0H35L768 1518ZM846 485V1366L420 485H846Z"/><glyph unicode="Ç" horiz-adv-x="1034" d="M606 -16Q413 -16 296 63T126 300T72 758Q72 1062 126 1220T298 1456T614 1534Q832 1534 971 1444L889 1317Q776 1384 612 1384Q471 1384 388 1324T266 1136T227 756Q227 507 264 377T385 185T612 123Q700 123 766 139T915 205L991 86Q903 30 815 7T606 -16ZM552 -434Q454 -434 359 -393L396 -313Q474 -342 544 -342Q610 -342 639 -320T669 -242Q669 -194 645 -176T554 -157L515 -158L472 -127L501 14H595L577 -92L608 -91Q697 -91 737 -131T777 -250Q777 -346 724 -390T552 -434Z"/><glyph unicode="È" horiz-adv-x="1034" d="M139 1518H936V1376H289V858H901V717H289V139H942V0H139V1518ZM232 1925H404L635 1607H500L232 1925Z"/><glyph unicode="É" horiz-adv-x="1034" d="M629 1925H797L531 1607H395L629 1925ZM139 1518H936V1376H289V858H901V717H289V139H942V0H139V1518Z"/><glyph unicode="Ê" horiz-adv-x="1034" d="M445 1925H590L819 1607H690L514 1818L338 1607H213L445 1925ZM139 1518H936V1376H289V858H901V717H289V139H942V0H139V1518Z"/><glyph unicode="Ë" horiz-adv-x="1034" d="M275 1802H410V1607H275V1802ZM623 1802H760V1607H623V1802ZM139 1518H936V1376H289V858H901V717H289V139H942V0H139V1518Z"/><glyph unicode="Ì" horiz-adv-x="455" d="M-53 1925H113L297 1608H166L-53 1925ZM152 1518H305V0H152V1518Z"/><glyph unicode="Í" horiz-adv-x="455" d="M340 1925H506L289 1608H158L340 1925ZM152 1518H305V0H152V1518Z"/><glyph unicode="Î" horiz-adv-x="455" d="M154 1925H299L522 1608H395L225 1819L57 1608H-68L154 1925ZM152 1518H305V0H152V1518Z"/><glyph unicode="Ï" horiz-adv-x="455" d="M152 1518H305V0H152V1518ZM-11 1802H124V1607H-11V1802ZM337 1802H474V1607H337V1802Z"/><glyph unicode="Ð" horiz-adv-x="1198" d="M2 850H139V1518H553Q765 1518 889 1445T1069 1219T1126 760Q1126 450 1069 297T886 72T541 0H139V721H2V850ZM551 135Q709 135 800 193T931 373T971 758Q971 1016 932 1139T803 1319T559 1376H293V850H557V721H293V135H551Z"/><glyph unicode="Ñ" horiz-adv-x="1251" d="M139 1518H307L967 305V1518H1114V0H971L285 1255V0H139V1518ZM299 1656Q370 1808 497 1808Q536 1808 568 1795T628 1766T683 1737T735 1724Q772 1724 796 1750T847 1818L948 1761Q874 1605 747 1605Q709 1605 677 1617T616 1645T561 1672T509 1685Q474 1685 449 1663T399 1601L299 1656Z"/><glyph unicode="Ò" horiz-adv-x="1257" d="M631 -16Q480 -16 373 27T201 154T104 378T72 758Q72 1001 104 1140T201 1364T373 1491T631 1534Q781 1534 886 1491T1058 1363T1155 1137T1186 758Q1186 515 1155 377T1058 154T886 27T631 -16ZM631 123Q781 123 867 184T993 368T1032 754Q1032 959 1010 1070T941 1250T817 1352T631 1386Q487 1386 398 1329T268 1146T227 754Q227 489 267 363T398 180T631 123ZM345 1925H517L748 1607H613L345 1925Z"/><glyph unicode="Ó" horiz-adv-x="1257" d="M742 1925H910L644 1607H508L742 1925ZM631 -16Q480 -16 373 27T201 154T104 378T72 758Q72 1001 104 1140T201 1364T373 1491T631 1534Q781 1534 886 1491T1058 1363T1155 1137T1186 758Q1186 515 1155 377T1058 154T886 27T631 -16ZM631 123Q781 123 867 184T993 368T1032 754Q1032 959 1010 1070T941 1250T817 1352T631 1386Q487 1386 398 1329T268 1146T227 754Q227 489 267 363T398 180T631 123Z"/><glyph unicode="Ô" horiz-adv-x="1257" d="M558 1925H703L932 1607H803L627 1818L451 1607H326L558 1925ZM631 -16Q480 -16 373 27T201 154T104 378T72 758Q72 1001 104 1140T201 1364T373 1491T631 1534Q781 1534 886 1491T1058 1363T1155 1137T1186 758Q1186 515 1155 377T1058 154T886 27T631 -16ZM631 123Q781 123 867 184T993 368T1032 754Q1032 959 1010 1070T941 1250T817 1352T631 1386Q487 1386 398 1329T268 1146T227 754Q227 489 267 363T398 180T631 123Z"/><glyph unicode="Õ" horiz-adv-x="1257" d="M631 -16Q480 -16 373 27T201 154T104 378T72 758Q72 1001 104 1140T201 1364T373 1491T631 1534Q781 1534 886 1491T1058 1363T1155 1137T1186 758Q1186 515 1155 377T1058 154T886 27T631 -16ZM631 123Q781 123 867 184T993 368T1032 754Q1032 959 1010 1070T941 1250T817 1352T631 1386Q487 1386 398 1329T268 1146T227 754Q227 489 267 363T398 180T631 123ZM304 1656Q375 1808 502 1808Q541 1808 573 1795T633 1766T688 1737T740 1724Q777 1724 801 1750T852 1818L953 1761Q879 1605 752 1605Q714 1605 682 1617T621 1645T566 1672T514 1685Q479 1685 454 1663T404 1601L304 1656Z"/><glyph unicode="Ö" horiz-adv-x="1257" d="M388 1802H523V1607H388V1802ZM736 1802H873V1607H736V1802ZM631 -16Q480 -16 373 27T201 154T104 378T72 758Q72 1001 104 1140T201 1364T373 1491T631 1534Q781 1534 886 1491T1058 1363T1155 1137T1186 758Q1186 515 1155 377T1058 154T886 27T631 -16ZM631 123Q781 123 867 184T993 368T1032 754Q1032 959 1010 1070T941 1250T817 1352T631 1386Q487 1386 398 1329T268 1146T227 754Q227 489 267 363T398 180T631 123Z"/><glyph unicode="×" horiz-adv-x="1128" d="M217 463L471 721L217 977L307 1071L565 813L823 1071L913 977L655 721L911 465L823 371L565 627L307 369L217 463Z"/><glyph unicode="Ø" horiz-adv-x="1257" d="M631 -16Q498 -16 402 16L358 -84H213L283 75Q214 119 166 208T95 420T72 758Q72 1001 104 1140T201 1364T373 1491T631 1534Q755 1534 844 1506L860 1501L909 1604H1047L975 1443L995 1427Q1093 1347 1139 1196T1186 758Q1186 515 1155 377T1058 154T886 27T631 -16ZM631 117Q743 117 820 151T944 253T1012 434T1034 754Q1034 990 1004 1110T909 1295L450 146Q523 117 631 117ZM631 1391Q484 1391 394 1333T264 1147T223 754Q223 516 253 397T347 213L804 1363Q725 1391 631 1391Z"/><glyph unicode="Ù" horiz-adv-x="1249" d="M627 -18Q364 -18 247 101T129 496V1518H283V506Q283 359 317 280T426 162T627 123Q813 123 893 209T973 506V1518H1120V496Q1120 305 1070 197T912 35T627 -18ZM338 1925H510L741 1607H606L338 1925Z"/><glyph unicode="Ú" horiz-adv-x="1249" d="M735 1925H903L637 1607H501L735 1925ZM627 -18Q364 -18 247 101T129 496V1518H283V506Q283 359 317 280T426 162T627 123Q813 123 893 209T973 506V1518H1120V496Q1120 305 1070 197T912 35T627 -18Z"/><glyph unicode="Û" horiz-adv-x="1249" d="M551 1925H696L925 1607H796L620 1818L444 1607H319L551 1925ZM627 -18Q364 -18 247 101T129 496V1518H283V506Q283 359 317 280T426 162T627 123Q813 123 893 209T973 506V1518H1120V496Q1120 305 1070 197T912 35T627 -18Z"/><glyph unicode="Ü" horiz-adv-x="1249" d="M381 1802H516V1607H381V1802ZM729 1802H866V1607H729V1802ZM627 -18Q364 -18 247 101T129 496V1518H283V506Q283 359 317 280T426 162T627 123Q813 123 893 209T973 506V1518H1120V496Q1120 305 1070 197T912 35T627 -18Z"/><glyph unicode="Ý" horiz-adv-x="1126" d="M18 1518H184L565 729L948 1518H1106L639 559V0H487V561L18 1518ZM674 1925H842L576 1607H440L674 1925Z"/><glyph unicode="Þ" horiz-adv-x="1106" d="M139 1518H291V1255H629Q858 1255 960 1149T1063 805Q1063 566 958 458T625 350H291V0H139V1518ZM623 483Q778 483 844 557T911 801Q911 969 846 1043T623 1118H291V483H623Z"/><glyph unicode="ß" horiz-adv-x="1061" d="M121 1196Q121 1396 220 1489T522 1583Q730 1583 819 1491T909 1190Q909 1029 875 945T754 825Q882 797 935 707T989 424Q989 260 944 171T800 41T526 0H416V135H526Q701 135 771 203T842 442Q842 611 772 678T535 745H489V874H532Q656 874 711 939T766 1157Q766 1310 710 1376T522 1442Q388 1442 328 1379T268 1184V0H121V1196Z"/><glyph unicode="à" horiz-adv-x="1018" d="M401 -12Q235 -12 155 73T74 338Q74 490 131 580T311 711T655 752H705L698 849Q687 934 637 973T487 1012Q333 1012 211 950L147 1073Q297 1149 500 1149Q635 1149 710 1112T819 993T852 745V250Q852 192 859 171T884 142T944 133V0L925 -2H905Q814 -2 776 22T725 115Q680 51 604 20T401 -12ZM217 350Q217 226 267 171T430 115Q705 115 705 438V623H657Q470 623 383 598T256 515T217 350ZM224 1567H396L627 1249H492L224 1567Z"/><glyph unicode="á" horiz-adv-x="1018" d="M401 -12Q235 -12 155 73T74 338Q74 490 131 580T311 711T655 752H705L698 849Q687 934 637 973T487 1012Q333 1012 211 950L147 1073Q297 1149 500 1149Q635 1149 710 1112T819 993T852 745V250Q852 192 859 171T884 142T944 133V0L925 -2H905Q814 -2 776 22T725 115Q680 51 604 20T401 -12ZM217 350Q217 226 267 171T430 115Q705 115 705 438V623H657Q470 623 383 598T256 515T217 350ZM621 1567H789L523 1249H387L621 1567Z"/><glyph unicode="â" horiz-adv-x="1018" d="M401 -12Q235 -12 155 73T74 338Q74 490 131 580T311 711T655 752H705L698 849Q687 934 637 973T487 1012Q333 1012 211 950L147 1073Q297 1149 500 1149Q635 1149 710 1112T819 993T852 745V250Q852 192 859 171T884 142T944 133V0L925 -2H905Q814 -2 776 22T725 115Q680 51 604 20T401 -12ZM217 350Q217 226 267 171T430 115Q705 115 705 438V623H657Q470 623 383 598T256 515T217 350ZM437 1567H582L811 1249H682L506 1460L330 1249H205L437 1567Z"/><glyph unicode="ã" horiz-adv-x="1018" d="M401 -12Q235 -12 155 73T74 338Q74 490 131 580T311 711T655 752H705L698 849Q687 934 637 973T487 1012Q333 1012 211 950L147 1073Q297 1149 500 1149Q635 1149 710 1112T819 993T852 745V250Q852 192 859 171T884 142T944 133V0L925 -2H905Q814 -2 776 22T725 115Q680 51 604 20T401 -12ZM217 350Q217 226 267 171T430 115Q705 115 705 438V623H657Q470 623 383 598T256 515T217 350ZM183 1298Q254 1450 381 1450Q420 1450 452 1437T512 1408T567 1379T619 1366Q656 1366 680 1392T731 1460L832 1403Q758 1247 631 1247Q593 1247 561 1259T500 1287T445 1314T393 1327Q358 1327 333 1305T283 1243L183 1298Z"/><glyph unicode="ä" horiz-adv-x="1018" d="M401 -12Q235 -12 155 73T74 338Q74 490 131 580T311 711T655 752H705L698 849Q687 934 637 973T487 1012Q333 1012 211 950L147 1073Q297 1149 500 1149Q635 1149 710 1112T819 993T852 745V250Q852 192 859 171T884 142T944 133V0L925 -2H905Q814 -2 776 22T725 115Q680 51 604 20T401 -12ZM217 350Q217 226 267 171T430 115Q705 115 705 438V623H657Q470 623 383 598T256 515T217 350ZM267 1444H402V1249H267V1444ZM615 1444H752V1249H615V1444Z"/><glyph unicode="å" horiz-adv-x="1018" d="M401 -12Q235 -12 155 73T74 338Q74 490 131 580T311 711T655 752H705L698 849Q687 934 637 973T487 1012Q333 1012 211 950L147 1073Q297 1149 500 1149Q635 1149 710 1112T819 993T852 745V250Q852 192 859 171T884 142T944 133V0L925 -2H905Q814 -2 776 22T725 115Q680 51 604 20T401 -12ZM217 350Q217 226 267 171T430 115Q705 115 705 438V623H657Q470 623 383 598T256 515T217 350ZM508 1237Q410 1237 359 1295T307 1464Q307 1577 359 1635T508 1694Q605 1694 657 1635T709 1464Q709 1356 658 1297T508 1237ZM508 1323Q619 1323 619 1464Q619 1608 508 1608Q396 1608 396 1464Q396 1323 508 1323Z"/><glyph unicode="æ" horiz-adv-x="1579" d="M1128 -14Q992 -14 903 34T765 189Q719 85 631 37T391 -12Q224 -12 149 78T74 338Q74 489 131 578T307 709T655 750H705L698 849Q687 934 637 973T487 1012Q333 1012 211 950L147 1073Q297 1149 500 1149Q627 1149 698 1115T802 1004Q852 1076 930 1111T1128 1147Q1327 1147 1415 1041T1503 674V504H848Q853 344 882 268T971 155T1137 117Q1208 117 1268 129T1417 182L1477 66Q1327 -14 1128 -14ZM217 350Q217 226 267 171T430 115Q705 115 705 438V623H657Q470 623 383 598T256 515T217 350ZM1366 639Q1364 723 1359 792T1332 910T1262 987T1126 1014Q1027 1014 969 976T882 861T849 639H1366Z"/><glyph unicode="ç" horiz-adv-x="840" d="M502 -16Q349 -16 256 43T121 221T78 567Q78 792 121 911T258 1089T508 1147Q662 1147 772 1094L709 963Q617 1008 514 1008Q361 1008 295 910T229 563Q229 385 257 296T347 162T516 117Q624 117 731 172L791 55Q713 16 646 0T502 -16ZM719 -434Q621 -434 526 -393L563 -313Q641 -342 711 -342Q777 -342 806 -320T836 -242Q836 -194 812 -176T721 -157L682 -158L639 -127L668 14H762L744 -92L775 -91Q864 -91 904 -131T944 -250Q944 -346 891 -390T719 -434Z"/><glyph unicode="è" horiz-adv-x="952" d="M504 -14Q351 -14 258 41T121 214T78 567Q78 788 121 907T257 1087T504 1147Q599 1147 664 1127T771 1067T836 967T869 823T879 504H221L230 376Q246 241 313 179T510 117Q583 117 645 129T793 182L852 66Q702 -14 504 -14ZM739 641Q737 725 733 793T706 911T637 987T502 1014Q403 1014 344 976T256 861T222 641H739ZM193 1567H365L596 1249H461L193 1567Z"/><glyph unicode="é" horiz-adv-x="952" d="M590 1567H758L492 1249H356L590 1567ZM504 -14Q351 -14 258 41T121 214T78 567Q78 788 121 907T257 1087T504 1147Q599 1147 664 1127T771 1067T836 967T869 823T879 504H221L230 376Q246 241 313 179T510 117Q583 117 645 129T793 182L852 66Q702 -14 504 -14ZM739 641Q737 725 733 793T706 911T637 987T502 1014Q403 1014 344 976T256 861T222 641H739Z"/><glyph unicode="ê" horiz-adv-x="952" d="M406 1567H551L780 1249H651L475 1460L299 1249H174L406 1567ZM504 -14Q351 -14 258 41T121 214T78 567Q78 788 121 907T257 1087T504 1147Q599 1147 664 1127T771 1067T836 967T869 823T879 504H221L230 376Q246 241 313 179T510 117Q583 117 645 129T793 182L852 66Q702 -14 504 -14ZM739 641Q737 725 733 793T706 911T637 987T502 1014Q403 1014 344 976T256 861T222 641H739Z"/><glyph unicode="ë" horiz-adv-x="952" d="M236 1444H371V1249H236V1444ZM584 1444H721V1249H584V1444ZM504 -14Q351 -14 258 41T121 214T78 567Q78 788 121 907T257 1087T504 1147Q599 1147 664 1127T771 1067T836 967T869 823T879 504H221L230 376Q246 241 313 179T510 117Q583 117 645 129T793 182L852 66Q702 -14 504 -14ZM739 641Q737 725 733 793T706 911T637 987T502 1014Q403 1014 344 976T256 861T222 641H739Z"/><glyph unicode="ì" horiz-adv-x="406" d="M-37 1567H129L272 1249H141L-37 1567ZM127 1128H276V0H127V1128Z"/><glyph unicode="í" horiz-adv-x="406" d="M274 1567H440L262 1249H131L274 1567ZM127 1128H276V0H127V1128Z"/><glyph unicode="î" horiz-adv-x="406" d="M131 1567H276L471 1249H340L201 1460L61 1249H-63L131 1567ZM127 1128H276V0H127V1128Z"/><glyph unicode="ï" horiz-adv-x="406" d="M-12 1444H113V1249H-12V1444ZM293 1444H416V1249H293V1444ZM127 1128H276V0H127V1128Z"/><glyph unicode="ð" horiz-adv-x="1026" d="M455 1339L607 1382Q560 1447 487 1509L596 1589Q686 1515 752 1424L952 1481V1358L815 1319Q885 1182 916 1005T948 586Q948 343 903 220T760 40T512 -16Q357 -16 262 44T123 223T78 553Q78 765 122 884T254 1060T481 1116Q687 1116 774 1012Q740 1161 678 1273L675 1279L455 1217V1339ZM512 117Q618 117 679 161T769 291T797 551Q797 726 769 811T679 941T512 985Q407 985 346 941T256 813T227 551Q227 376 255 291T345 162T512 117Z"/><glyph unicode="ñ" horiz-adv-x="1032" d="M121 1120L240 1128L254 1010Q295 1083 376 1115T594 1147Q716 1147 786 1108T887 990T918 733V0H770V702Q770 840 749 897T680 980T547 1006Q441 1006 382 968T296 847T270 584V0H121V1120ZM189 1298Q260 1450 387 1450Q426 1450 458 1437T518 1408T573 1379T625 1366Q662 1366 686 1392T737 1460L838 1403Q764 1247 637 1247Q599 1247 567 1259T506 1287T451 1314T399 1327Q364 1327 339 1305T289 1243L189 1298Z"/><glyph unicode="ò" horiz-adv-x="1024" d="M512 -16Q356 -16 261 44T122 222T78 567Q78 796 124 916T266 1091T512 1147Q662 1147 758 1092T901 916T948 567Q948 337 904 220T765 44T512 -16ZM512 117Q618 117 680 161T769 293T797 561Q797 745 769 832T680 964T512 1008Q406 1008 345 964T255 832T227 561Q227 379 255 293T345 162T512 117ZM226 1567H398L629 1249H494L226 1567Z"/><glyph unicode="ó" horiz-adv-x="1024" d="M623 1567H791L525 1249H389L623 1567ZM512 -16Q356 -16 261 44T122 222T78 567Q78 796 124 916T266 1091T512 1147Q662 1147 758 1092T901 916T948 567Q948 337 904 220T765 44T512 -16ZM512 117Q618 117 680 161T769 293T797 561Q797 745 769 832T680 964T512 1008Q406 1008 345 964T255 832T227 561Q227 379 255 293T345 162T512 117Z"/><glyph unicode="ô" horiz-adv-x="1024" d="M439 1567H584L813 1249H684L508 1460L332 1249H207L439 1567ZM512 -16Q356 -16 261 44T122 222T78 567Q78 796 124 916T266 1091T512 1147Q662 1147 758 1092T901 916T948 567Q948 337 904 220T765 44T512 -16ZM512 117Q618 117 680 161T769 293T797 561Q797 745 769 832T680 964T512 1008Q406 1008 345 964T255 832T227 561Q227 379 255 293T345 162T512 117Z"/><glyph unicode="õ" horiz-adv-x="1024" d="M512 -16Q356 -16 261 44T122 222T78 567Q78 796 124 916T266 1091T512 1147Q662 1147 758 1092T901 916T948 567Q948 337 904 220T765 44T512 -16ZM512 117Q618 117 680 161T769 293T797 561Q797 745 769 832T680 964T512 1008Q406 1008 345 964T255 832T227 561Q227 379 255 293T345 162T512 117ZM185 1298Q256 1450 383 1450Q422 1450 454 1437T514 1408T569 1379T621 1366Q658 1366 682 1392T733 1460L834 1403Q760 1247 633 1247Q595 1247 563 1259T502 1287T447 1314T395 1327Q360 1327 335 1305T285 1243L185 1298Z"/><glyph unicode="ö" horiz-adv-x="1024" d="M269 1444H404V1249H269V1444ZM617 1444H754V1249H617V1444ZM512 -16Q356 -16 261 44T122 222T78 567Q78 796 124 916T266 1091T512 1147Q662 1147 758 1092T901 916T948 567Q948 337 904 220T765 44T512 -16ZM512 117Q618 117 680 161T769 293T797 561Q797 745 769 832T680 964T512 1008Q406 1008 345 964T255 832T227 561Q227 379 255 293T345 162T512 117Z"/><glyph unicode="÷" horiz-adv-x="1128" d="M481 455H649V279H481V455ZM170 791H958V653H170V791ZM481 1161H649V985H481V1161Z"/><glyph unicode="ø" horiz-adv-x="1024" d="M512 -16Q401 -16 325 12L276 -88H143L222 73Q147 137 113 252T78 567Q78 796 124 916T266 1091T512 1147Q624 1147 702 1117L750 1214H885L807 1056Q879 994 913 881T948 567Q948 337 904 220T765 44T512 -16ZM512 1012Q405 1012 343 967T252 832T223 561Q223 421 239 342T294 207L647 987Q593 1012 512 1012ZM512 115Q618 115 681 159T772 289T801 561Q801 709 785 788T733 915L379 138Q432 115 512 115Z"/><glyph unicode="ù" horiz-adv-x="1008" d="M506 -16Q359 -16 274 24T152 147T115 401V1128H264V410Q264 280 287 225T362 144T508 119Q601 119 652 144T725 225T748 410V1128H893V401Q893 225 856 143T735 23T506 -16ZM218 1567H390L621 1249H486L218 1567Z"/><glyph unicode="ú" horiz-adv-x="1008" d="M615 1567H783L517 1249H381L615 1567ZM506 -16Q359 -16 274 24T152 147T115 401V1128H264V410Q264 280 287 225T362 144T508 119Q601 119 652 144T725 225T748 410V1128H893V401Q893 225 856 143T735 23T506 -16Z"/><glyph unicode="û" horiz-adv-x="1008" d="M431 1567H576L805 1249H676L500 1460L324 1249H199L431 1567ZM506 -16Q359 -16 274 24T152 147T115 401V1128H264V410Q264 280 287 225T362 144T508 119Q601 119 652 144T725 225T748 410V1128H893V401Q893 225 856 143T735 23T506 -16Z"/><glyph unicode="ü" horiz-adv-x="1008" d="M261 1444H396V1249H261V1444ZM609 1444H746V1249H609V1444ZM506 -16Q359 -16 274 24T152 147T115 401V1128H264V410Q264 280 287 225T362 144T508 119Q601 119 652 144T725 225T748 410V1128H893V401Q893 225 856 143T735 23T506 -16Z"/><glyph unicode="ý" horiz-adv-x="879" d="M23 1128H172L442 213L711 1128H856L469 -147Q439 -245 386 -284T221 -324H131V-199H225Q273 -199 296 -181T334 -117L366 -5L23 1128ZM810 1567H978L712 1249H576L810 1567Z"/><glyph unicode="þ" horiz-adv-x="1053" d="M121 1575H270V1012Q306 1084 388 1115T602 1147Q731 1147 813 1092T935 917T975 567Q975 384 952 281T885 114T770 19T598 -14Q469 -14 391 15T270 115V-324H121V1575ZM561 119Q658 119 715 163T798 293T825 561Q825 740 799 828T716 962T561 1008Q452 1008 390 966T299 841T270 561Q270 368 298 285T389 161T561 119Z"/><glyph unicode="ÿ" horiz-adv-x="879" d="M23 1128H172L442 213L711 1128H856L469 -147Q439 -245 386 -284T221 -324H131V-199H225Q273 -199 296 -181T334 -117L366 -5L23 1128ZM456 1444H591V1249H456V1444ZM804 1444H941V1249H804V1444Z"/><glyph unicode="Ā" horiz-adv-x="1182" d="M512 1528H670L1137 0H981L877 348H299L197 0H47L512 1528ZM836 487L590 1307L340 487H836ZM293 1732H885V1607H293V1732Z"/><glyph unicode="ā" horiz-adv-x="1018" d="M401 -12Q235 -12 155 73T74 338Q74 490 131 580T311 711T655 752H705L698 849Q687 934 637 973T487 1012Q333 1012 211 950L147 1073Q297 1149 500 1149Q635 1149 710 1112T819 993T852 745V250Q852 192 859 171T884 142T944 133V0L925 -2H905Q814 -2 776 22T725 115Q680 51 604 20T401 -12ZM217 350Q217 226 267 171T430 115Q705 115 705 438V623H657Q470 623 383 598T256 515T217 350ZM211 1374H803V1249H211V1374Z"/><glyph unicode="Ă" horiz-adv-x="1182" d="M512 1528H670L1137 0H981L877 348H299L197 0H47L512 1528ZM836 487L590 1307L340 487H836ZM590 1599Q451 1599 379 1659T283 1863L398 1882Q413 1790 459 1753T590 1716Q674 1716 720 1754T781 1882L895 1865Q872 1717 798 1658T590 1599Z"/><glyph unicode="ă" horiz-adv-x="1018" d="M401 -12Q235 -12 155 73T74 338Q74 490 131 580T311 711T655 752H705L698 849Q687 934 637 973T487 1012Q333 1012 211 950L147 1073Q297 1149 500 1149Q635 1149 710 1112T819 993T852 745V250Q852 192 859 171T884 142T944 133V0L925 -2H905Q814 -2 776 22T725 115Q680 51 604 20T401 -12ZM217 350Q217 226 267 171T430 115Q705 115 705 438V623H657Q470 623 383 598T256 515T217 350ZM508 1241Q369 1241 297 1301T201 1505L316 1524Q331 1432 377 1395T508 1358Q592 1358 638 1396T699 1524L813 1507Q790 1359 716 1300T508 1241Z"/><glyph unicode="Ą" horiz-adv-x="1182" d="M512 1528H670L1137 0Q1051 -66 1020 -98T972 -162T956 -231Q956 -276 979 -300T1069 -324H1137V-430H1053Q938 -430 882 -390T825 -252Q825 -106 977 8L877 348H299L197 0H47L512 1528ZM836 487L590 1307L340 487H836Z"/><glyph unicode="ą" horiz-adv-x="1018" d="M401 -12Q235 -12 155 73T74 338Q74 490 131 580T311 711T655 752H705Q702 862 680 914T612 989T487 1012Q333 1012 211 950L147 1073Q297 1149 500 1149Q635 1149 710 1112T819 993T852 745V250Q852 192 859 171T884 142T944 133V0Q827 -89 795 -135T762 -231Q762 -276 785 -300T874 -324H942V-430H858Q744 -430 688 -390T631 -252Q631 -173 669 -109T797 12Q765 25 749 49T725 115Q680 51 604 20T401 -12ZM430 115Q705 115 705 438V623H657Q470 623 383 598T256 515T217 350Q217 226 267 171T430 115Z"/><glyph unicode="Ć" horiz-adv-x="1034" d="M629 1925H797L531 1607H395L629 1925ZM606 -16Q413 -16 296 63T126 300T72 758Q72 1062 126 1220T298 1456T614 1534Q832 1534 971 1444L889 1317Q776 1384 612 1384Q471 1384 388 1324T266 1136T227 756Q227 507 264 377T385 185T612 123Q700 123 766 139T915 205L991 86Q903 30 815 7T606 -16Z"/><glyph unicode="ć" horiz-adv-x="840" d="M790 1567H958L692 1249H556L790 1567ZM502 -16Q349 -16 256 43T121 221T78 567Q78 792 121 911T258 1089T508 1147Q662 1147 772 1094L709 963Q617 1008 514 1008Q361 1008 295 910T229 563Q229 385 257 296T347 162T516 117Q624 117 731 172L791 55Q713 16 646 0T502 -16Z"/><glyph unicode="Č" horiz-adv-x="1034" d="M213 1925H344L518 1714L692 1925H819L590 1607H445L213 1925ZM606 -16Q413 -16 296 63T126 300T72 758Q72 1062 126 1220T298 1456T614 1534Q832 1534 971 1444L889 1317Q776 1384 612 1384Q471 1384 388 1324T266 1136T227 756Q227 507 264 377T385 185T612 123Q700 123 766 139T915 205L991 86Q903 30 815 7T606 -16Z"/><glyph unicode="č" horiz-adv-x="840" d="M374 1567H505L679 1356L853 1567H980L751 1249H606L374 1567ZM502 -16Q349 -16 256 43T121 221T78 567Q78 792 121 911T258 1089T508 1147Q662 1147 772 1094L709 963Q617 1008 514 1008Q361 1008 295 910T229 563Q229 385 257 296T347 162T516 117Q624 117 731 172L791 55Q713 16 646 0T502 -16Z"/><glyph unicode="Ď" horiz-adv-x="1198" d="M295 1925H426L600 1714L774 1925H901L672 1607H527L295 1925ZM139 1518H553Q765 1518 889 1445T1069 1219T1126 760Q1126 450 1069 297T886 72T541 0H139V1518ZM551 135Q709 135 800 193T931 373T971 758Q971 1016 932 1139T803 1319T559 1376H293V135H551Z"/><glyph unicode="ď" horiz-adv-x="1200" d="M1042 1266Q1096 1296 1111 1318T1126 1395H1053V1575H1210V1403Q1210 1315 1184 1276T1079 1200L1042 1266ZM451 -14Q322 -14 240 41T118 216T78 569Q78 751 101 855T168 1020T285 1114T457 1147Q589 1147 665 1118T782 1020V1575H932V6L813 -4L799 129Q756 52 673 19T451 -14ZM492 119Q602 119 664 162T754 289T782 565Q782 762 754 843T664 966T492 1008Q394 1008 337 964T253 831T227 565Q227 380 255 290T341 160T492 119Z"/><glyph unicode="Đ" horiz-adv-x="1198" d="M2 850H139V1518H553Q765 1518 889 1445T1069 1219T1126 760Q1126 450 1069 297T886 72T541 0H139V721H2V850ZM551 135Q709 135 800 193T931 373T971 758Q971 1016 932 1139T803 1319T559 1376H293V850H557V721H293V135H551Z"/><glyph unicode="đ" horiz-adv-x="1053" d="M451 -14Q322 -14 240 41T118 216T78 569Q78 751 101 855T168 1020T285 1114T457 1147Q589 1147 665 1118T782 1020V1288H535V1413H782V1575H932V1413H1053V1288H932V6L813 -4L799 129Q756 52 673 19T451 -14ZM492 119Q602 119 664 162T754 289T782 565Q782 762 754 843T664 966T492 1008Q394 1008 337 964T253 831T227 565Q227 380 255 290T341 160T492 119Z"/><glyph unicode="Ē" horiz-adv-x="1034" d="M139 1518H936V1376H289V858H901V717H289V139H942V0H139V1518ZM219 1732H811V1607H219V1732Z"/><glyph unicode="ē" horiz-adv-x="952" d="M504 -14Q351 -14 258 41T121 214T78 567Q78 788 121 907T257 1087T504 1147Q599 1147 664 1127T771 1067T836 967T869 823T879 504H221L230 376Q246 241 313 179T510 117Q583 117 645 129T793 182L852 66Q702 -14 504 -14ZM739 641Q737 725 733 793T706 911T637 987T502 1014Q403 1014 344 976T256 861T222 641H739ZM180 1374H772V1249H180V1374Z"/><glyph unicode="Ė" horiz-adv-x="1034" d="M139 1518H936V1376H289V858H901V717H289V139H942V0H139V1518ZM440 1818H592V1607H440V1818Z"/><glyph unicode="ė" horiz-adv-x="952" d="M504 -14Q351 -14 258 41T121 214T78 567Q78 788 121 907T257 1087T504 1147Q599 1147 664 1127T771 1067T836 967T869 823T879 504H221L230 376Q246 241 313 179T510 117Q583 117 645 129T793 182L852 66Q702 -14 504 -14ZM739 641Q737 725 733 793T706 911T637 987T502 1014Q403 1014 344 976T256 861T222 641H739ZM401 1460H553V1249H401V1460Z"/><glyph unicode="Ę" horiz-adv-x="1034" d="M139 1518H936V1376H289V858H901V717H289V139H942V0H903Q756 -121 756 -231Q756 -276 779 -300T868 -324H936V-430H852Q737 -430 681 -390T625 -252Q625 -185 662 -118T768 0H139V1518Z"/><glyph unicode="ę" horiz-adv-x="952" d="M504 -14Q351 -14 258 41T121 214T78 567Q78 788 121 907T257 1087T504 1147Q599 1147 664 1127T771 1067T836 967T869 823T879 504H221Q224 351 253 272T344 155T510 117Q583 117 645 129T793 182L852 66Q798 36 741 18Q571 -115 571 -231Q571 -276 594 -300T684 -324H752V-430H668Q553 -430 497 -390T440 -252Q440 -187 473 -125T569 -12L504 -14ZM502 1014Q405 1014 345 976T256 862T221 641H739Q737 725 733 793T706 911T637 987T502 1014Z"/><glyph unicode="Ě" horiz-adv-x="1034" d="M213 1925H344L518 1714L692 1925H819L590 1607H445L213 1925ZM139 1518H936V1376H289V858H901V717H289V139H942V0H139V1518Z"/><glyph unicode="ě" horiz-adv-x="952" d="M174 1567H305L479 1356L653 1567H780L551 1249H406L174 1567ZM504 -14Q351 -14 258 41T121 214T78 567Q78 788 121 907T257 1087T504 1147Q599 1147 664 1127T771 1067T836 967T869 823T879 504H221L230 376Q246 241 313 179T510 117Q583 117 645 129T793 182L852 66Q702 -14 504 -14ZM739 641Q737 725 733 793T706 911T637 987T502 1014Q403 1014 344 976T256 861T222 641H739Z"/><glyph unicode="Ğ" horiz-adv-x="1153" d="M602 -16Q407 -16 292 61T125 301T72 758Q72 1051 126 1217T297 1458T623 1534Q735 1534 826 1511T1006 1434L926 1307Q794 1386 616 1386Q463 1386 382 1326T263 1130T225 756Q225 510 262 376T381 180T612 119Q749 119 813 163T906 315T934 645V702H551V838H1081V666Q1081 381 1039 242T898 44T602 -16ZM575 1599Q436 1599 364 1659T268 1863L383 1882Q398 1790 444 1753T575 1716Q659 1716 705 1754T766 1882L880 1865Q857 1717 783 1658T575 1599Z"/><glyph unicode="ğ" horiz-adv-x="981" d="M475 406Q394 406 328 422Q309 388 309 348Q309 301 346 285T485 268Q646 268 737 242T870 157T911 -12Q911 -181 807 -260T477 -340Q235 -340 138 -280T41 -66Q41 161 238 205Q174 247 174 340Q174 412 218 471Q96 556 96 774Q96 964 188 1057T475 1151Q523 1151 575 1145L901 1186V1065H733Q852 983 852 774Q852 589 762 498T475 406ZM475 537Q594 537 649 594T705 772Q705 901 646 957T475 1014Q244 1014 244 772Q244 653 300 595T475 537ZM475 -217Q634 -217 697 -174T760 -18Q760 50 735 82T649 129T475 143Q318 143 253 101T188 -43Q188 -146 248 -181T475 -217ZM489 1241Q350 1241 278 1301T182 1505L297 1524Q312 1432 358 1395T489 1358Q573 1358 619 1396T680 1524L794 1507Q771 1359 697 1300T489 1241Z"/><glyph unicode="Ģ" horiz-adv-x="1153" d="M486 -397Q540 -367 556 -344T572 -266H498V-86H654V-258Q654 -344 628 -384T525 -461L486 -397ZM602 -16Q407 -16 292 61T125 301T72 758Q72 1051 126 1217T297 1458T623 1534Q735 1534 826 1511T1006 1434L926 1307Q794 1386 616 1386Q463 1386 382 1326T263 1130T225 756Q225 510 262 376T381 180T612 119Q749 119 813 163T906 315T934 645V702H551V838H1081V666Q1081 381 1039 242T898 44T602 -16Z"/><glyph unicode="ģ" horiz-adv-x="981" d="M412 1419Q412 1505 437 1544T543 1624L578 1559Q528 1530 512 1507T496 1430H568V1249H412V1419ZM475 406Q394 406 328 422Q309 388 309 348Q309 301 346 285T485 268Q646 268 737 242T870 157T911 -12Q911 -181 807 -260T477 -340Q235 -340 138 -280T41 -66Q41 161 238 205Q174 247 174 340Q174 412 218 471Q96 556 96 774Q96 964 188 1057T475 1151Q523 1151 575 1145L901 1186V1065H733Q852 983 852 774Q852 589 762 498T475 406ZM475 537Q594 537 649 594T705 772Q705 901 646 957T475 1014Q244 1014 244 772Q244 653 300 595T475 537ZM475 -217Q634 -217 697 -174T760 -18Q760 50 735 82T649 129T475 143Q318 143 253 101T188 -43Q188 -146 248 -181T475 -217Z"/><glyph unicode="Ī" horiz-adv-x="455" d="M152 1518H305V0H152V1518ZM-67 1732H525V1607H-67V1732Z"/><glyph unicode="ī" horiz-adv-x="406" d="M127 1128H276V0H127V1128ZM-91 1374H501V1249H-91V1374Z"/><glyph unicode="Į" horiz-adv-x="455" d="M219 -430Q105 -430 49 -390T-8 -252Q-8 -178 28 -117T152 0V1518H305V0Q193 -86 158 -132T123 -231Q123 -282 149 -303T236 -324H303V-430H219Z"/><glyph unicode="į" horiz-adv-x="406" d="M127 1128H276V0Q164 -86 129 -132T94 -231Q94 -276 117 -300T207 -324H274V-430H190Q76 -430 20 -390T-37 -252Q-37 -179 -1 -119T127 0V1128ZM127 1493H279V1280H127V1493Z"/><glyph unicode="İ" horiz-adv-x="455" d="M152 1518H305V0H152V1518ZM154 1818H306V1607H154V1818Z"/><glyph unicode="ı" horiz-adv-x="406" d="M127 1128H276V0H127V1128Z"/><glyph unicode="Ķ" horiz-adv-x="1157" d="M488 -397Q542 -367 558 -344T574 -266H500V-86H656V-258Q656 -344 630 -384T527 -461L488 -397ZM139 1518H291V765L905 1518H1083L619 949L1100 0H932L515 825L291 545V0H139V1518Z"/><glyph unicode="ķ" horiz-adv-x="911" d="M365 -397Q419 -367 435 -344T451 -266H377V-86H533V-258Q533 -344 507 -384T404 -461L365 -397ZM121 1575H268V536L690 1128H852L508 649L883 0H723L410 527L268 322V0H121V1575Z"/><glyph unicode="Ĺ" horiz-adv-x="963" d="M390 1925H558L292 1607H156L390 1925ZM139 1518H293V139H924V0H139V1518Z"/><glyph unicode="ĺ" horiz-adv-x="492" d="M366 1993H534L268 1675H132L366 1993ZM416 0L399 -2H367Q273 -2 222 20T149 93T127 244V1575H276V260Q276 193 288 172T330 142T416 133V0Z"/><glyph unicode="Ļ" horiz-adv-x="963" d="M389 -397Q443 -367 459 -344T475 -266H401V-86H557V-258Q557 -344 531 -384T428 -461L389 -397ZM139 1518H293V139H924V0H139V1518Z"/><glyph unicode="ļ" horiz-adv-x="492" d="M156 -397Q210 -367 226 -344T242 -266H168V-86H324V-258Q324 -344 298 -384T195 -461L156 -397ZM416 0L399 -2H367Q273 -2 222 20T149 93T127 244V1575H276V260Q276 193 288 172T330 142T416 133V0Z"/><glyph unicode="Ľ" horiz-adv-x="963" d="M453 1266Q507 1296 522 1318T537 1395H463V1575H621V1403Q621 1339 610 1308T572 1252T489 1200L453 1266ZM139 1518H293V139H924V0H139V1518Z"/><glyph unicode="ľ" horiz-adv-x="557" d="M387 1266Q441 1296 456 1318T471 1395H397V1575H555V1403Q555 1315 529 1276T424 1200L387 1266ZM416 0L399 -2H367Q273 -2 222 20T149 93T127 244V1575H276V260Q276 193 288 172T330 142T416 133V0Z"/><glyph unicode="Ł" horiz-adv-x="963" d="M2 770L139 843V1518H293V926L555 1067V940L293 798V139H924V0H139V715L2 641V770Z"/><glyph unicode="ł" horiz-adv-x="614" d="M498 0L480 -2H449Q355 -2 304 20T231 93T209 244V932L41 836V967L209 1063V1575H358V1149L545 1257V1124L358 1017V260Q358 191 369 171T409 142T498 133V0Z"/><glyph unicode="Ń" horiz-adv-x="1251" d="M737 1925H905L639 1607H503L737 1925ZM139 1518H307L967 305V1518H1114V0H971L285 1255V0H139V1518Z"/><glyph unicode="ń" horiz-adv-x="1032" d="M627 1567H795L529 1249H393L627 1567ZM121 1120L240 1128L254 1010Q295 1083 376 1115T594 1147Q716 1147 786 1108T887 990T918 733V0H770V702Q770 840 749 897T680 980T547 1006Q441 1006 382 968T296 847T270 584V0H121V1120Z"/><glyph unicode="Ņ" horiz-adv-x="1251" d="M535 -397Q589 -367 605 -344T621 -266H547V-86H703V-258Q703 -344 677 -384T574 -461L535 -397ZM139 1518H307L967 305V1518H1114V0H971L285 1255V0H139V1518Z"/><glyph unicode="ņ" horiz-adv-x="1032" d="M424 -397Q478 -367 494 -344T510 -266H436V-86H592V-258Q592 -344 566 -384T463 -461L424 -397ZM121 1120L240 1128L254 1010Q295 1083 376 1115T594 1147Q716 1147 786 1108T887 990T918 733V0H770V702Q770 840 749 897T680 980T547 1006Q441 1006 382 968T296 847T270 584V0H121V1120Z"/><glyph unicode="Ň" horiz-adv-x="1251" d="M321 1925H452L626 1714L800 1925H927L698 1607H553L321 1925ZM139 1518H307L967 305V1518H1114V0H971L285 1255V0H139V1518Z"/><glyph unicode="ň" horiz-adv-x="1032" d="M211 1567H342L516 1356L690 1567H817L588 1249H443L211 1567ZM121 1120L240 1128L254 1010Q295 1083 376 1115T594 1147Q716 1147 786 1108T887 990T918 733V0H770V702Q770 840 749 897T680 980T547 1006Q441 1006 382 968T296 847T270 584V0H121V1120Z"/><glyph unicode="Ō" horiz-adv-x="1257" d="M332 1732H924V1607H332V1732ZM631 -16Q480 -16 373 27T201 154T104 378T72 758Q72 1001 104 1140T201 1364T373 1491T631 1534Q781 1534 886 1491T1058 1363T1155 1137T1186 758Q1186 515 1155 377T1058 154T886 27T631 -16ZM631 123Q781 123 867 184T993 368T1032 754Q1032 959 1010 1070T941 1250T817 1352T631 1386Q487 1386 398 1329T268 1146T227 754Q227 489 267 363T398 180T631 123Z"/><glyph unicode="ō" horiz-adv-x="1024" d="M213 1374H805V1249H213V1374ZM512 -16Q356 -16 261 44T122 222T78 567Q78 796 124 916T266 1091T512 1147Q662 1147 758 1092T901 916T948 567Q948 337 904 220T765 44T512 -16ZM512 117Q618 117 680 161T769 293T797 561Q797 745 769 832T680 964T512 1008Q406 1008 345 964T255 832T227 561Q227 379 255 293T345 162T512 117Z"/><glyph unicode="Ő" horiz-adv-x="1257" d="M582 1925H744L478 1607H355L582 1925ZM945 1925H1102L838 1607H715L945 1925ZM631 -16Q480 -16 373 27T201 154T104 378T72 758Q72 1001 104 1140T201 1364T373 1491T631 1534Q781 1534 886 1491T1058 1363T1155 1137T1186 758Q1186 515 1155 377T1058 154T886 27T631 -16ZM631 123Q781 123 867 184T993 368T1032 754Q1032 959 1010 1070T941 1250T817 1352T631 1386Q487 1386 398 1329T268 1146T227 754Q227 489 267 363T398 180T631 123Z"/><glyph unicode="ő" horiz-adv-x="1024" d="M463 1567H625L359 1249H236L463 1567ZM826 1567H983L719 1249H596L826 1567ZM512 -16Q356 -16 261 44T122 222T78 567Q78 796 124 916T266 1091T512 1147Q662 1147 758 1092T901 916T948 567Q948 337 904 220T765 44T512 -16ZM512 117Q618 117 680 161T769 293T797 561Q797 745 769 832T680 964T512 1008Q406 1008 345 964T255 832T227 561Q227 379 255 293T345 162T512 117Z"/><glyph unicode="Œ" horiz-adv-x="1927" d="M1047 1518H1829V1376H1182V856H1792V717H1182V139H1833V0H1047V157Q920 -16 631 -16Q480 -16 373 27T201 154T104 378T72 758Q72 1001 104 1140T201 1364T373 1491T631 1534Q918 1534 1047 1359V1518ZM631 123Q781 123 867 184T993 368T1032 754Q1032 959 1010 1070T941 1250T817 1352T631 1386Q487 1386 398 1329T268 1146T227 754Q227 489 267 363T398 180T631 123Z"/><glyph unicode="œ" horiz-adv-x="1675" d="M512 -16Q356 -16 261 44T122 222T78 567Q78 796 124 916T266 1091T512 1147Q780 1147 873 960Q925 1055 1008 1101T1227 1147Q1420 1147 1509 1045T1600 673L1599 504H944L953 376Q969 241 1035 179T1231 117Q1364 117 1464 160L1516 182L1575 66Q1425 -14 1227 -14Q1089 -14 1006 30T871 166L866 155Q772 -16 512 -16ZM512 117Q618 117 680 161T769 293T797 561Q797 745 769 832T680 964T512 1008Q406 1008 345 964T255 832T227 561Q227 379 255 293T345 162T512 117ZM1462 639Q1460 723 1455 792T1428 910T1359 987T1225 1014Q1126 1014 1067 976T979 861T945 639H1462Z"/><glyph unicode="Ŕ" horiz-adv-x="1153" d="M688 1925H856L590 1607H454L688 1925ZM139 1518H625Q849 1518 953 1410T1057 1075Q1057 686 751 625L1038 0H877L597 614H291V0H139V1518ZM621 754Q775 754 840 828T905 1069Q905 1232 840 1305T621 1378H291V754H621Z"/><glyph unicode="ŕ" horiz-adv-x="588" d="M411 1567H579L313 1249H177L411 1567ZM121 1120L238 1128L254 993Q327 1139 567 1139V997Q487 996 430 971T338 900T287 779T270 559V0H121V1120Z"/><glyph unicode="Ŗ" horiz-adv-x="1153" d="M488 -397Q542 -367 558 -344T574 -266H500V-86H656V-258Q656 -344 630 -384T527 -461L488 -397ZM139 1518H625Q849 1518 953 1410T1057 1075Q1057 686 751 625L1038 0H877L597 614H291V0H139V1518ZM621 754Q775 754 840 828T905 1069Q905 1232 840 1305T621 1378H291V754H621Z"/><glyph unicode="ŗ" horiz-adv-x="588" d="M368 -397Q422 -367 438 -344T454 -266H380V-86H536V-258Q536 -344 510 -384T407 -461L368 -397ZM121 1120L238 1128L254 993Q327 1139 567 1139V997Q487 996 430 971T338 900T287 779T270 559V0H121V1120Z"/><glyph unicode="Ř" horiz-adv-x="1153" d="M272 1925H403L577 1714L751 1925H878L649 1607H504L272 1925ZM139 1518H625Q849 1518 953 1410T1057 1075Q1057 686 751 625L1038 0H877L597 614H291V0H139V1518ZM621 754Q775 754 840 828T905 1069Q905 1232 840 1305T621 1378H291V754H621Z"/><glyph unicode="ř" horiz-adv-x="588" d="M-5 1567H126L300 1356L474 1567H601L372 1249H227L-5 1567ZM121 1120L238 1128L254 993Q327 1139 567 1139V997Q487 996 430 971T338 900T287 779T270 559V0H121V1120Z"/><glyph unicode="Ś" horiz-adv-x="1071" d="M647 1925H815L549 1607H413L647 1925ZM537 -16Q267 -16 70 102L147 221Q247 165 342 142T535 119Q689 119 766 186T844 375Q844 452 820 503T741 597T502 725Q336 800 264 857T159 985T125 1155Q125 1335 237 1434T555 1534Q769 1534 936 1456L870 1323Q733 1389 557 1389Q422 1389 349 1329T276 1159Q276 1090 297 1047T367 966T571 854Q786 753 858 695T962 562T995 377Q995 188 876 86T537 -16Z"/><glyph unicode="ś" horiz-adv-x="793" d="M769 1567H937L671 1249H535L769 1567ZM387 -14Q181 -14 39 57L98 178Q227 111 387 111Q598 111 598 285Q598 335 579 371T517 439T360 526Q236 584 181 629T99 727T72 856Q72 1147 408 1147Q487 1147 557 1136T696 1094L639 969Q521 1016 403 1016Q215 1016 215 858Q215 793 260 748T444 639Q578 577 632 531T713 426T739 285Q739 138 649 62T387 -14Z"/><glyph unicode="Ş" horiz-adv-x="1071" d="M537 -16Q267 -16 70 102L147 221Q247 165 342 142T535 119Q689 119 766 186T844 375Q844 452 820 503T741 597T502 725Q336 800 264 857T159 985T125 1155Q125 1335 237 1434T555 1534Q769 1534 936 1456L870 1323Q733 1389 557 1389Q422 1389 349 1329T276 1159Q276 1090 297 1047T367 966T571 854Q786 753 858 695T962 562T995 377Q995 188 876 86T537 -16ZM569 -434Q471 -434 376 -393L413 -313Q491 -342 561 -342Q627 -342 656 -320T686 -242Q686 -194 662 -176T571 -157L532 -158L489 -127L518 14H612L594 -92L625 -91Q714 -91 754 -131T794 -250Q794 -346 741 -390T569 -434Z"/><glyph unicode="ş" horiz-adv-x="793" d="M387 -14Q181 -14 39 57L98 178Q227 111 387 111Q598 111 598 285Q598 335 579 371T517 439T360 526Q236 584 181 629T99 727T72 856Q72 1147 408 1147Q487 1147 557 1136T696 1094L639 969Q521 1016 403 1016Q215 1016 215 858Q215 793 260 748T444 639Q578 577 632 531T713 426T739 285Q739 138 649 62T387 -14ZM691 -434Q593 -434 498 -393L535 -313Q613 -342 683 -342Q749 -342 778 -320T808 -242Q808 -194 784 -176T693 -157L654 -158L611 -127L640 14H734L716 -92L747 -91Q836 -91 876 -131T916 -250Q916 -346 863 -390T691 -434Z"/><glyph unicode="Š" horiz-adv-x="1071" d="M231 1925H362L536 1714L710 1925H837L608 1607H463L231 1925ZM537 -16Q267 -16 70 102L147 221Q247 165 342 142T535 119Q689 119 766 186T844 375Q844 452 820 503T741 597T502 725Q336 800 264 857T159 985T125 1155Q125 1335 237 1434T555 1534Q769 1534 936 1456L870 1323Q733 1389 557 1389Q422 1389 349 1329T276 1159Q276 1090 297 1047T367 966T571 854Q786 753 858 695T962 562T995 377Q995 188 876 86T537 -16Z"/><glyph unicode="š" horiz-adv-x="793" d="M353 1567H484L658 1356L832 1567H959L730 1249H585L353 1567ZM387 -14Q181 -14 39 57L98 178Q227 111 387 111Q598 111 598 285Q598 335 579 371T517 439T360 526Q236 584 181 629T99 727T72 856Q72 1147 408 1147Q487 1147 557 1136T696 1094L639 969Q521 1016 403 1016Q215 1016 215 858Q215 793 260 748T444 639Q578 577 632 531T713 426T739 285Q739 138 649 62T387 -14Z"/><glyph unicode="Ţ" horiz-adv-x="1100" d="M457 -397Q511 -367 527 -344T543 -266H469V-86H625V-258Q625 -344 599 -384T496 -461L457 -397ZM471 1376H41V1518H1059V1376H627V0H471V1376Z"/><glyph unicode="ţ" horiz-adv-x="711" d="M219 -397Q273 -367 289 -344T305 -266H231V-86H387V-258Q387 -344 361 -384T258 -461L219 -397ZM43 1128H216L240 1444L362 1470V1128H631V997H362V297Q362 225 375 194T419 148T506 133H631V0L492 -4Q386 -4 326 22T240 107T213 283V997H43V1128Z"/><glyph unicode="Ť" horiz-adv-x="1100" d="M246 1925H377L551 1714L725 1925H852L623 1607H478L246 1925ZM471 1376H41V1518H1059V1376H627V0H471V1376Z"/><glyph unicode="ť" horiz-adv-x="711" d="M500 1346Q556 1377 571 1400T586 1475H512V1655H670V1485Q670 1396 642 1357T539 1280L500 1346ZM43 1128H216L240 1444L362 1470V1128H631V997H362V297Q362 225 375 194T419 148T506 133H631V0L492 -4Q386 -4 326 22T240 107T213 283V997H43V1128Z"/><glyph unicode="Ū" horiz-adv-x="1249" d="M627 -18Q364 -18 247 101T129 496V1518H283V506Q283 359 317 280T426 162T627 123Q813 123 893 209T973 506V1518H1120V496Q1120 305 1070 197T912 35T627 -18ZM325 1732H917V1607H325V1732Z"/><glyph unicode="ū" horiz-adv-x="1008" d="M506 -16Q359 -16 274 24T152 147T115 401V1128H264V410Q264 280 287 225T362 144T508 119Q601 119 652 144T725 225T748 410V1128H893V401Q893 225 856 143T735 23T506 -16ZM205 1374H797V1249H205V1374Z"/><glyph unicode="Ů" horiz-adv-x="1249" d="M622 1595Q524 1595 473 1653T421 1822Q421 1935 473 1993T622 2052Q719 2052 771 1993T823 1822Q823 1714 772 1655T622 1595ZM622 1681Q733 1681 733 1822Q733 1966 622 1966Q510 1966 510 1822Q510 1681 622 1681ZM627 -18Q364 -18 247 101T129 496V1518H283V506Q283 359 317 280T426 162T627 123Q813 123 893 209T973 506V1518H1120V496Q1120 305 1070 197T912 35T627 -18Z"/><glyph unicode="ů" horiz-adv-x="1008" d="M502 1237Q404 1237 353 1295T301 1464Q301 1577 353 1635T502 1694Q599 1694 651 1635T703 1464Q703 1356 652 1297T502 1237ZM502 1323Q613 1323 613 1464Q613 1608 502 1608Q390 1608 390 1464Q390 1323 502 1323ZM506 -16Q359 -16 274 24T152 147T115 401V1128H264V410Q264 280 287 225T362 144T508 119Q601 119 652 144T725 225T748 410V1128H893V401Q893 225 856 143T735 23T506 -16Z"/><glyph unicode="Ű" horiz-adv-x="1249" d="M627 -18Q364 -18 247 101T129 496V1518H283V506Q283 359 317 280T426 162T627 123Q813 123 893 209T973 506V1518H1120V496Q1120 305 1070 197T912 35T627 -18ZM575 1925H737L471 1607H348L575 1925ZM938 1925H1095L831 1607H708L938 1925Z"/><glyph unicode="ű" horiz-adv-x="1008" d="M506 -16Q359 -16 274 24T152 147T115 401V1128H264V410Q264 280 287 225T362 144T508 119Q601 119 652 144T725 225T748 410V1128H893V401Q893 225 856 143T735 23T506 -16ZM455 1567H617L351 1249H228L455 1567ZM818 1567H975L711 1249H588L818 1567Z"/><glyph unicode="Ų" horiz-adv-x="1249" d="M659 -430Q545 -430 489 -390T432 -252Q432 -125 557 -16Q405 -7 311 50T173 214T129 496V1518H283V506Q283 359 317 280T426 162T627 123Q813 123 893 209T973 506V1518H1120V496Q1120 315 1077 210T939 49T692 -16Q563 -130 563 -231Q563 -276 586 -300T676 -324H743V-430H659Z"/><glyph unicode="ų" horiz-adv-x="1008" d="M539 -430Q424 -430 368 -390T311 -252Q311 -120 438 -14Q317 -6 247 36T146 162T115 401V1128H264V410Q264 280 287 225T362 144T508 119Q601 119 652 144T725 225T748 410V1128H893V401Q893 240 863 159T763 36T573 -14Q442 -130 442 -231Q442 -276 465 -300T555 -324H623V-430H539Z"/><glyph unicode="Ÿ" horiz-adv-x="1126" d="M18 1518H184L565 729L948 1518H1106L639 559V0H487V561L18 1518ZM320 1802H455V1607H320V1802ZM668 1802H805V1607H668V1802Z"/><glyph unicode="Ź" horiz-adv-x="1065" d="M643 1925H811L545 1607H409L643 1925ZM70 123L788 1376H98V1518H971V1389L252 139H989V0H70V123Z"/><glyph unicode="ź" horiz-adv-x="811" d="M777 1567H945L679 1249H543L777 1567ZM47 109L565 997H78V1128H748V1022L227 125H764V0H47V109Z"/><glyph unicode="Ż" horiz-adv-x="1065" d="M70 123L788 1376H98V1518H971V1389L252 139H989V0H70V123ZM454 1818H606V1607H454V1818Z"/><glyph unicode="ż" horiz-adv-x="811" d="M47 109L565 997H78V1128H748V1022L227 125H764V0H47V109ZM588 1460H740V1249H588V1460Z"/><glyph unicode="Ž" horiz-adv-x="1065" d="M227 1925H358L532 1714L706 1925H833L604 1607H459L227 1925ZM70 123L788 1376H98V1518H971V1389L252 139H989V0H70V123Z"/><glyph unicode="ž" horiz-adv-x="811" d="M361 1567H492L666 1356L840 1567H967L738 1249H593L361 1567ZM47 109L565 997H78V1128H748V1022L227 125H764V0H47V109Z"/><glyph unicode="ƒ" horiz-adv-x="872" d="M133 922H326L371 1219Q390 1347 422 1404T512 1490T666 1518L756 1516V1384H678Q627 1384 597 1368T550 1321T520 1204L477 922H756V788H457L289 -324H139L306 788H133V922Z"/><glyph unicode="Ș" horiz-adv-x="0"/><glyph unicode="ș" horiz-adv-x="0"/><glyph unicode="Ț" horiz-adv-x="1100" d="M457 -397Q511 -367 527 -344T543 -266H469V-86H625V-258Q625 -344 599 -384T496 -461L457 -397ZM471 1376H41V1518H1059V1376H627V0H471V1376Z"/><glyph unicode="ț" horiz-adv-x="711" d="M219 -397Q273 -367 289 -344T305 -266H231V-86H387V-258Q387 -344 361 -384T258 -461L219 -397ZM43 1128H216L240 1444L362 1470V1128H631V997H362V297Q362 225 375 194T419 148T506 133H631V0L492 -4Q386 -4 326 22T240 107T213 283V997H43V1128Z"/><glyph unicode="ˆ" horiz-adv-x="952" d="M406 1567H551L780 1249H651L475 1460L299 1249H174L406 1567Z"/><glyph unicode="ˇ" horiz-adv-x="952" d="M174 1567H305L479 1356L653 1567H780L551 1249H406L174 1567Z"/><glyph unicode="˘" horiz-adv-x="952" d="M477 1241Q338 1241 266 1301T170 1505L285 1524Q300 1432 346 1395T477 1358Q561 1358 607 1396T668 1524L782 1507Q759 1359 685 1300T477 1241Z"/><glyph unicode="˙" horiz-adv-x="952" d="M401 1460H553V1249H401V1460Z"/><glyph unicode="˚" horiz-adv-x="952" d="M477 1237Q379 1237 328 1295T276 1464Q276 1577 328 1635T477 1694Q574 1694 626 1635T678 1464Q678 1356 627 1297T477 1237ZM477 1323Q588 1323 588 1464Q588 1608 477 1608Q365 1608 365 1464Q365 1323 477 1323Z"/><glyph unicode="˛" horiz-adv-x="956" d="M500 -430Q385 -430 329 -390T272 -252Q272 -174 321 -101T459 29H588Q403 -112 403 -231Q403 -276 426 -300T516 -324H584V-430H500Z"/><glyph unicode="˜" horiz-adv-x="952" d="M152 1298Q223 1450 350 1450Q389 1450 421 1437T481 1408T536 1379T588 1366Q625 1366 649 1392T700 1460L801 1403Q727 1247 600 1247Q562 1247 530 1259T469 1287T414 1314T362 1327Q327 1327 302 1305T252 1243L152 1298Z"/><glyph unicode="˝" horiz-adv-x="952" d="M430 1567H592L326 1249H203L430 1567ZM793 1567H950L686 1249H563L793 1567Z"/><glyph unicode="̄" horiz-adv-x="952" d="M180 1374H772V1249H180V1374Z"/><glyph unicode="̦" horiz-adv-x="410" d="M115 -397Q169 -367 185 -344T201 -266H127V-86H283V-258Q283 -344 257 -384T154 -461L115 -397Z"/><glyph unicode="Δ" horiz-adv-x="0"/><glyph unicode="Ω" horiz-adv-x="0"/><glyph unicode="μ" horiz-adv-x="1014" d="M121 1128H270V410Q270 280 293 225T367 145T514 119Q607 119 658 144T731 225T754 410V1128H899V401Q899 223 863 142T744 22T518 -16Q326 -16 270 78V-324H121V1128Z"/><glyph unicode="π" horiz-adv-x="0"/><glyph unicode="–" horiz-adv-x="1137" d="M82 700H1057V563H82V700Z"/><glyph unicode="—" horiz-adv-x="1493" d="M82 700H1413V563H82V700Z"/><glyph unicode="‘" horiz-adv-x="410" d="M111 1276Q111 1376 140 1425T262 1522L307 1442Q246 1406 229 1378T211 1296H299V1065H111V1276Z"/><glyph unicode="’" horiz-adv-x="410" d="M102 1141Q163 1177 181 1205T199 1288H111V1518H299V1309Q299 1205 267 1156T147 1061L102 1141Z"/><glyph unicode="‚" horiz-adv-x="410" d="M102 -145Q159 -114 179 -86T199 0H111V229H299V20Q299 -85 267 -134T147 -227L102 -145Z"/><glyph unicode="“" horiz-adv-x="721" d="M111 1282Q111 1382 141 1429T260 1522L303 1446Q245 1412 226 1382T207 1298H295V1073H111V1282ZM426 1282Q426 1379 454 1427T573 1522L618 1446Q563 1413 543 1384T522 1298H608V1073H426V1282Z"/><glyph unicode="”" horiz-adv-x="719" d="M102 1147Q159 1178 179 1206T199 1290H111V1518H295V1309Q295 1209 266 1160T145 1069L102 1147ZM418 1147Q474 1179 493 1207T512 1290H424V1518H608V1309Q608 1206 578 1158T461 1069L418 1147Z"/><glyph unicode="„" horiz-adv-x="719" d="M102 -143Q163 -107 181 -79T199 2H111V229H295V20Q295 -80 266 -128T145 -221L102 -143ZM418 -143Q478 -106 495 -78T512 2H424V229H608V20Q608 -84 577 -131T461 -221L418 -143Z"/><glyph unicode="†" horiz-adv-x="897" d="M375 975H92V1114H375V1575H522V1114H805V975H522V-324H375V975Z"/><glyph unicode="‡" horiz-adv-x="897" d="M375 166H92V305H375V981H92V1120H375V1575H522V1120H805V981H522V305H805V166H522V-324H375V166Z"/><glyph unicode="•" horiz-adv-x="578" d="M162 782H416V463H162V782Z"/><glyph unicode="…" horiz-adv-x="1165" d="M111 219H299V0H111V219ZM489 219H676V0H489V219ZM868 219H1055V0H868V219Z"/><glyph unicode="‰" horiz-adv-x="2548" d="M395 580Q222 580 147 693T72 1055Q72 1307 147 1419T395 1532Q568 1532 645 1422T723 1055Q723 803 646 692T395 580ZM397 696Q503 696 545 778T588 1053Q588 1244 546 1326T397 1409Q292 1409 250 1328T207 1053Q207 858 249 777T397 696ZM1421 -14Q1248 -14 1172 97T1096 463Q1096 717 1172 828T1421 940Q1595 940 1671 827T1747 463Q1747 211 1671 99T1421 -14ZM1421 104Q1524 104 1568 185T1612 459Q1612 653 1568 735T1421 817Q1317 817 1274 736T1231 459Q1231 263 1274 184T1421 104ZM1167 1518H1309L651 0H512L1167 1518ZM2150 -14Q1977 -14 1901 98T1825 463Q1825 715 1901 827T2150 940Q2324 940 2400 827T2476 463Q2476 211 2400 99T2150 -14ZM2152 104Q2254 104 2297 183T2341 459Q2341 656 2298 736T2152 817Q2049 817 2005 736T1960 459Q1960 265 2004 185T2152 104Z"/><glyph unicode="‹" horiz-adv-x="702" d="M141 563L385 1128H522L289 563L522 0H385L141 563Z"/><glyph unicode="›" horiz-adv-x="702" d="M414 565L178 1128H317L561 565L317 0H178L414 565Z"/><glyph unicode="⁄" horiz-adv-x="0"/><glyph unicode="€" horiz-adv-x="1104" d="M61 684H242V758L243 856H61V981H249Q262 1187 311 1304T454 1477T700 1534Q895 1534 1032 1454L961 1329Q850 1391 698 1391Q550 1391 480 1298T395 981H848V856H390L389 760V684H848V559H394L400 479Q419 290 489 206T700 121Q761 121 821 136T961 193L1030 74Q943 25 863 5T692 -16Q542 -16 450 41T310 217T247 559H61V684Z"/><glyph unicode="™" horiz-adv-x="1724" d="M774 1518H901L1143 768L1382 1518H1511V578H1399V1274L1180 578H1102L881 1274V578H774V1518ZM338 1411H82V1518H713V1411H455V578H338V1411Z"/><glyph unicode="Ω" horiz-adv-x="0"/><glyph unicode="∂" horiz-adv-x="0"/><glyph unicode="∆" horiz-adv-x="0"/><glyph unicode="∏" horiz-adv-x="0"/><glyph unicode="∑" horiz-adv-x="0"/><glyph unicode="−" horiz-adv-x="0"/><glyph unicode="∕" horiz-adv-x="0"/><glyph unicode="∙" horiz-adv-x="410" d="M111 795H299V571H111V795Z"/><glyph unicode="√" horiz-adv-x="0"/><glyph unicode="∞" horiz-adv-x="0"/><glyph unicode="∫" horiz-adv-x="0"/><glyph unicode="≈" horiz-adv-x="0"/><glyph unicode="≠" horiz-adv-x="0"/><glyph unicode="≤" horiz-adv-x="0"/><glyph unicode="≥" horiz-adv-x="0"/><glyph unicode="◊" horiz-adv-x="0"/><glyph unicode="" horiz-adv-x="0"/><glyph unicode="ﬀ" horiz-adv-x="1180" d="M748 997H365V0H215V997H43V1128H215V1278Q215 1579 510 1579H602V1446H522Q439 1446 402 1406T365 1266V1128H748V1278Q748 1430 820 1504T1042 1579H1107L1159 1577V1446H1053Q971 1446 934 1406T897 1266V1128H1159V997H897V0H748V997Z"/><glyph unicode="ﬁ" horiz-adv-x="1024" d="M43 1128H215V1278Q215 1579 510 1579H602V1446H522Q439 1446 402 1406T365 1266V1128H602V997H365V0H215V997H43V1128ZM748 1128H897V0H748V1128ZM748 1491H897V1280H748V1491Z"/><glyph unicode="ﬂ" horiz-adv-x="1110" d="M43 1128H215V1278Q215 1579 510 1579H602V1446H522Q439 1446 402 1406T365 1266V1128H602V997H365V0H215V997H43V1128ZM1034 0L1017 -2H985Q892 -2 842 20T770 91T748 244V1575H897V260Q897 191 908 171T947 142T1034 133V0Z"/><glyph unicode="ﬃ" horiz-adv-x="1556" d="M748 997H365V0H215V997H43V1128H215V1278Q215 1579 510 1579H602V1446H522Q439 1446 402 1406T365 1266V1128H748V1278Q748 1430 820 1504T1042 1579H1135V1446H1053Q971 1446 934 1406T897 1266V1128H1135V997H897V0H748V997ZM1278 1128H1427V0H1278V1128ZM1278 1491H1427V1280H1278V1491Z"/><glyph unicode="ﬄ" horiz-adv-x="1642" d="M748 997H365V0H215V997H43V1128H215V1278Q215 1579 510 1579H602V1446H522Q439 1446 402 1406T365 1266V1128H748V1278Q748 1430 820 1504T1042 1579H1135V1446H1053Q971 1446 934 1406T897 1266V1128H1135V997H897V0H748V997ZM1567 0L1550 -2H1518Q1424 -2 1373 20T1300 93T1278 244V1575H1427V260Q1427 193 1439 172T1481 142T1567 133V0Z"/></font>
</defs>
</svg>
