<?xml version="1.0" encoding="UTF-8"?><svg xmlns="http://www.w3.org/2000/svg" width="100%" height="100%"><defs><font id="web" horiz-adv-x="1044"><!--



NOTICE: This font software is the valuable property 
of Webtype LLC, The Font Bureau, Webtype and/or its 
suppliers and its use by you is covered under the terms 
of the Web Font license agreement between you and Webtype 
LLC. You may ONLY use this font software with the licensed 
web site. Except as specifically permitted by the license, 
you may not copy this font software. If you have any 
questions, please contact Webtype.com. 

For more information, please visit http://www.webtype.com/store/license/?id=23

Licensed to: http://www.ford.com/

Serial number: SH-534
--><font-face font-family="" units-per-em="2048" panose-1="2 0 6 6 0 0 0 2 0 4" ascent="2220" descent="-766" alphabetic="0"/><missing-glyph horiz-adv-x="1024" d="M0 1434H1024V0H0V1434ZM102 102H922V1331H102V102Z"/><glyph unicode=" " horiz-adv-x="362"/><glyph unicode="!" horiz-adv-x="653" d="M109 289H377L326 0H57L109 289ZM336 1518H588L375 444H166L336 1518Z"/><glyph unicode="&quot;" horiz-adv-x="926" d="M283 1518H520L391 868H178L283 1518ZM676 1518H911L784 868H571L676 1518Z"/><glyph unicode="#" horiz-adv-x="1249" d="M244 424H59L94 635H281L317 850H131L168 1059H354L438 1518H655L573 1059H772L852 1518H1073L989 1059H1192L1155 850H952L915 635H1118L1081 424H879L805 0H584L659 424H463L387 0H170L244 424ZM715 616L760 870H518L475 616H715Z"/><glyph unicode="$" horiz-adv-x="1094" d="M600 1686H831L800 1509Q871 1499 929 1480T1055 1423L932 1237Q860 1277 787 1294T631 1311Q412 1311 412 1081Q412 1018 456 972T614 870Q760 799 823 745T919 622T952 461Q952 250 846 134T534 1L500 -188H268L304 6L293 8Q81 37 -39 137L100 307Q170 249 266 220T469 190Q596 190 658 256T721 440Q721 511 682 561T518 678Q366 752 306 802T214 916T182 1065Q182 1263 279 1379T570 1516L600 1686Z"/><glyph unicode="%" horiz-adv-x="1952" d="M416 553Q253 553 173 631T92 877Q92 938 111 1073Q153 1311 248 1421T522 1532Q685 1532 766 1453T848 1204Q848 1105 818 962T737 729T610 596T416 553ZM416 727Q500 727 542 783T612 975T639 1194Q639 1276 610 1312T512 1348Q439 1348 398 1294T327 1106T297 877Q297 796 325 762T416 727ZM1430 -16Q1266 -16 1186 62T1106 309Q1106 415 1136 556T1219 789T1348 923T1538 965Q1699 965 1780 885T1862 635Q1862 536 1832 394T1750 160T1622 27T1430 -16ZM1430 158Q1515 158 1558 216T1628 412T1655 625Q1655 706 1625 742T1528 778Q1451 778 1411 723T1342 531T1313 309Q1313 229 1341 194T1430 158ZM1343 1518H1556L610 0H397L1343 1518Z"/><glyph unicode="&amp;" horiz-adv-x="1393" d="M489 -14Q242 -14 121 74T0 340Q0 428 17 498T72 631T172 750T365 874Q311 1007 311 1126Q311 1257 357 1351T486 1494T680 1544Q852 1544 935 1469T1018 1262Q1018 1119 950 1012T748 827L672 784Q734 690 902 446Q948 534 987 640T1079 948L1282 922Q1230 710 1169 543T1029 262L1210 0H928L864 93Q712 -14 489 -14ZM454 704Q358 644 315 598T252 495T231 367Q231 269 297 223T494 176Q644 176 751 260Q482 659 456 701L454 704ZM799 1237Q799 1346 680 1346Q537 1346 537 1133Q537 1043 581 945Q671 998 713 1038T777 1127T799 1237Z"/><glyph unicode="'" horiz-adv-x="535" d="M283 1518H520L393 868H178L283 1518Z"/><glyph unicode="(" horiz-adv-x="848" d="M324 -358Q226 -219 175 -35T123 348Q123 576 192 816T386 1262T670 1602L821 1493Q690 1374 583 1185T416 773T356 338Q356 166 395 15T512 -252L324 -358Z"/><glyph unicode=")" horiz-adv-x="848" d="M-23 -248Q181 -63 311 259T442 907Q442 1076 403 1229T289 1497L475 1602Q678 1303 678 895Q678 661 607 421T409 -25T129 -358L-23 -248Z"/><glyph unicode="*" horiz-adv-x="1018" d="M373 606L451 926L176 795L109 975L408 1073L158 1274L285 1419L500 1200L535 1528L717 1495L641 1174L918 1309L989 1130L682 1026L934 827L809 684L592 903L555 575L373 606Z"/><glyph unicode="+" horiz-adv-x="1188" d="M459 621H143L178 821H496L561 1198H780L713 821H1030L995 621H678L610 242H393L459 621Z"/><glyph unicode="," horiz-adv-x="471" d="M-59 -147Q26 -105 52 -81T88 0H-33L16 293H287L242 20Q223 -74 196 -118T121 -197T-16 -266L-59 -147Z"/><glyph unicode="-" horiz-adv-x="719" d="M72 762H645L608 551H33L72 762Z"/><glyph unicode="." horiz-adv-x="471" d="M16 293H287L238 0H-33L16 293Z"/><glyph unicode="/" horiz-adv-x="918" d="M815 1518H1057L102 0H-139L815 1518Z"/><glyph unicode="0" horiz-adv-x="1217" d="M518 -16Q282 -16 175 88T68 424Q68 583 122 862T246 1276T423 1472T700 1534Q927 1534 1036 1431T1145 1090Q1145 923 1092 647T971 238T797 45T518 -16ZM535 197Q630 197 687 243T786 397T866 725T905 1063Q905 1198 854 1255T690 1313Q590 1313 530 1267T429 1116T349 783T309 451Q309 320 360 259T535 197Z"/><glyph unicode="1" horiz-adv-x="668" d="M360 1307H143L180 1518H627L358 0H131L360 1307Z"/><glyph unicode="2" horiz-adv-x="1018" d="M737 1157Q737 1243 687 1280T526 1317Q398 1317 270 1262L180 1456Q351 1534 575 1534Q780 1534 876 1451T973 1182Q973 1059 936 960T811 751T543 469L266 203H817L782 0H-70L-39 184L385 598Q543 752 612 837T709 990T737 1157Z"/><glyph unicode="3" horiz-adv-x="1022" d="M385 -16Q256 -16 150 12T-55 106L68 291Q158 236 232 215T393 193Q473 193 519 214T594 283T638 415T655 545Q655 635 594 671T399 707H252L287 907H504Q610 907 657 947T723 1098Q729 1123 729 1174Q729 1251 684 1284T526 1317Q397 1317 268 1260L178 1446Q256 1486 361 1510T582 1534Q787 1534 879 1465T971 1245Q971 1168 945 1052T875 881T760 803Q826 777 855 723T885 553Q885 451 853 329T762 130T614 19T385 -16Z"/><glyph unicode="4" horiz-adv-x="1122" d="M733 1518H973L270 522H621L748 975H915L834 522H1032L997 330H800L741 0H528L585 330H-10L23 510L733 1518Z"/><glyph unicode="5" horiz-adv-x="1061" d="M438 -16Q288 -16 170 11T-51 106L74 291Q169 233 250 213T432 193Q525 193 573 218T651 299T700 452T719 606Q719 707 669 752T492 797Q387 797 291 737L121 791L289 1518H1044L1006 1307H453L379 969Q458 1004 594 1004Q783 1004 868 918T954 643Q954 517 920 376T829 148T684 23T438 -16Z"/><glyph unicode="6" horiz-adv-x="1153" d="M526 -16Q284 -16 168 77T51 385Q51 519 97 760T182 1114T276 1303T408 1426T594 1495T852 1518H1026L987 1307H844Q690 1307 601 1277T460 1179T362 936Q410 984 485 1007T680 1030Q867 1030 958 951T1049 692Q1049 577 1012 416T915 162T761 27T526 -16ZM516 186Q624 186 685 238T779 421T813 649Q813 740 767 787T612 834Q519 834 460 807T363 724T306 577T287 397Q287 286 341 236T516 186Z"/><glyph unicode="7" horiz-adv-x="920" d="M729 1307H135L174 1518H1020L987 1335L317 0H61L729 1307Z"/><glyph unicode="8" horiz-adv-x="1157" d="M498 -16Q261 -16 143 65T25 326Q25 552 97 676T313 846Q253 877 226 934T199 1090Q199 1315 315 1424T662 1534Q1100 1534 1100 1227Q1100 1059 1048 962T883 825Q934 805 963 771T1006 689T1020 541Q1020 256 889 120T498 -16ZM502 182Q788 182 788 543Q788 638 733 681T555 725Q408 725 336 639T264 373Q264 272 321 227T502 182ZM627 915Q752 915 808 983T864 1184Q864 1263 815 1299T659 1335Q422 1335 422 1067Q422 986 471 951T627 915Z"/><glyph unicode="9" horiz-adv-x="1153" d="M162 203H305Q459 203 549 234T693 336T788 578Q730 521 648 502T469 483Q284 483 194 563T102 825Q102 937 137 1099T233 1353T387 1489T625 1534Q869 1534 985 1439T1102 1133Q1102 1005 1069 840Q1013 517 958 375T823 154T617 38T299 0H127L162 203ZM539 676Q633 676 693 704T791 792T846 948T864 1114Q864 1224 811 1274T635 1325Q525 1325 465 1273T371 1090T338 860Q338 766 385 721T539 676Z"/><glyph unicode=":" horiz-adv-x="504" d="M33 287H303L252 0H-16L33 287ZM184 1145H455L403 858H133L184 1145Z"/><glyph unicode=";" horiz-adv-x="504" d="M184 1145H455L403 858H133L184 1145ZM-43 -147Q48 -102 71 -78T104 0H-16L33 287H303L256 20Q239 -73 212 -119T135 -199T0 -266L-43 -147Z"/><glyph unicode="&lt;" horiz-adv-x="1186" d="M154 627L180 791L1020 1219L983 997L406 709L879 420L840 199L154 627Z"/><glyph unicode="=" horiz-adv-x="1188" d="M143 604H991L952 391H106L143 604ZM217 1030H1065L1028 819H180L217 1030Z"/><glyph unicode="&gt;" horiz-adv-x="1188" d="M760 709L285 997L326 1219L1012 791L983 627L145 199L182 422L760 709Z"/><glyph unicode="?" horiz-adv-x="1096" d="M336 426Q358 587 385 650T465 768T618 889Q742 968 781 1030T821 1180Q821 1254 767 1287T608 1321Q538 1321 460 1302T330 1257L236 1448Q313 1488 430 1511T653 1534Q1063 1534 1063 1239Q1063 1140 1037 1064T958 926T793 786Q700 722 659 682T599 598T561 426H336ZM285 262H555L508 0H238L285 262Z"/><glyph unicode="@" horiz-adv-x="1739" d="M768 -338Q391 -338 214 -180T37 319Q37 519 95 782T257 1212T517 1455T905 1532Q1291 1532 1470 1375T1649 879Q1649 727 1616 540T1542 253T1444 111T1278 68Q1173 68 1114 102T1040 211Q977 134 897 102T698 70Q537 70 460 146T383 393Q383 522 419 691T503 947T624 1080T803 1126Q923 1126 992 1097T1100 1001L1153 1114L1300 1100L1178 408Q1169 361 1169 325Q1169 278 1190 243T1284 207Q1340 207 1367 231T1416 314T1461 490T1495 703T1505 877Q1505 1153 1364 1277T905 1401Q705 1401 578 1333T366 1119T232 733T182 328Q182 53 316 -77T743 -207Q969 -207 1194 -135L1233 -262Q1136 -298 1009 -318T768 -338ZM756 248Q827 248 872 273T946 351T1000 533T1026 745Q1026 849 983 892T840 936Q777 936 737 909T671 823T619 632T594 428Q594 332 633 290T756 248Z"/><glyph unicode="A" horiz-adv-x="1239" d="M641 1528H868L1067 0H821L788 289H281L143 0H-100L641 1528ZM766 504L690 1163L375 504H766Z"/><glyph unicode="B" horiz-adv-x="1174" d="M264 1518H674Q917 1518 1031 1445T1145 1212Q1145 1130 1119 1030T1043 872T909 782Q989 748 1021 690T1053 522Q1053 420 1021 312T925 135T763 33T514 0H-4L264 1518ZM547 203Q651 203 705 239T785 351T811 506Q811 599 757 636T563 674H348L264 203H547ZM668 883Q737 883 776 899T842 952T883 1047T899 1157Q899 1238 844 1273T651 1309H459L383 883H668Z"/><glyph unicode="C" horiz-adv-x="1071" d="M526 -16Q278 -16 154 108T29 487Q29 600 58 779T137 1101T266 1339T459 1484T733 1534Q967 1534 1114 1432L979 1227Q900 1272 838 1287T698 1303Q546 1303 461 1208T324 888T272 500Q272 345 339 271T557 197Q704 197 813 262L918 82Q755 -16 526 -16Z"/><glyph unicode="D" horiz-adv-x="1231" d="M264 1518H647Q939 1518 1070 1402T1202 1028Q1202 871 1153 629T1023 254T817 61T483 0H-4L264 1518ZM516 207Q681 207 766 297T904 611T956 999Q956 1160 882 1230T635 1300H461L268 207H516Z"/><glyph unicode="E" horiz-adv-x="1063" d="M264 1518H1106L1067 1300H457L385 891H963L924 674H346L264 213H877L840 0H-4L264 1518Z"/><glyph unicode="F" horiz-adv-x="1026" d="M264 1518H1106L1067 1300H461L385 872H958L922 657H348L231 0H-4L264 1518Z"/><glyph unicode="G" horiz-adv-x="1184" d="M518 -16Q271 -16 151 105T31 485Q31 666 81 898T213 1268T419 1470T733 1534Q863 1534 968 1507T1163 1415L1008 1225Q943 1270 867 1288T702 1307Q586 1307 515 1257T393 1097T306 800T270 485Q270 323 335 253T547 182Q649 182 707 221T802 350T872 664H551L590 870H1143L1102 637Q1054 367 990 233T819 41T518 -16Z"/><glyph unicode="H" horiz-adv-x="1296" d="M264 1518H500L391 903H952L1063 1518H1303L1034 0H795L911 670H350L231 0H-4L264 1518Z"/><glyph unicode="I" horiz-adv-x="524" d="M276 1518H514L246 0H8L276 1518Z"/><glyph unicode="J" horiz-adv-x="750" d="M-45 213H98Q206 213 259 255T326 397L524 1518H764L557 356Q525 170 426 85T125 0H-84L-45 213Z"/><glyph unicode="K" horiz-adv-x="1208" d="M264 1518H500L380 845L1001 1518H1278L727 938L1030 0H782L543 742L316 484L231 0H-4L264 1518Z"/><glyph unicode="L" horiz-adv-x="983" d="M264 1518H500L268 213H854L817 0H-4L264 1518Z"/><glyph unicode="M" horiz-adv-x="1536" d="M264 1518H567L707 420L1235 1518H1540L1272 0H1042L1225 1042L719 0H541L397 1053L217 0H-4L264 1518Z"/><glyph unicode="N" horiz-adv-x="1290" d="M264 1518H516L883 473L1069 1518H1296L1028 0H809L414 1100L219 0H-4L264 1518Z"/><glyph unicode="O" horiz-adv-x="1288" d="M553 -16Q288 -16 159 111T29 496Q29 645 78 883T211 1262T423 1468T725 1534Q990 1534 1122 1409T1255 1016Q1255 791 1184 516T959 112T553 -16ZM563 195Q683 195 761 243T889 390T977 688T1014 995Q1014 1155 945 1231T725 1307Q605 1307 527 1259T398 1113T309 816T270 502Q270 343 341 269T563 195Z"/><glyph unicode="P" horiz-adv-x="1171" d="M264 1518H686Q936 1518 1056 1429T1176 1155Q1176 1054 1141 925T1042 714T884 590T659 549H324L229 0H-4L264 1518ZM664 762Q735 762 783 784T864 854T916 981T936 1114Q936 1213 874 1258T678 1303H459L365 762H664Z"/><glyph unicode="Q" horiz-adv-x="1288" d="M711 -356Q505 -356 425 -289T344 -111L346 -74Q346 -60 359 11Q196 51 113 168T29 496Q29 645 78 883T211 1262T423 1468T725 1534Q990 1534 1122 1409T1255 1016Q1255 825 1204 600T1075 252T878 64T584 -7L583 -16L582 -27L578 -61Q578 -156 721 -156H842L805 -356H711ZM563 195Q683 195 761 243T889 390T977 688T1014 995Q1014 1155 945 1231T725 1307Q605 1307 527 1259T398 1113T309 816T270 502Q270 343 341 269T563 195Z"/><glyph unicode="R" horiz-adv-x="1192" d="M264 1518H688Q929 1518 1049 1430T1169 1151Q1169 1057 1143 947T1069 760T952 637T799 573L954 0H719L571 559H328L229 0H-4L264 1518ZM666 772Q763 772 818 811T901 931T930 1110Q930 1214 869 1259T678 1305H459L365 772H666Z"/><glyph unicode="S" horiz-adv-x="1108" d="M471 -16Q311 -16 172 21T-63 127L68 309Q242 182 473 182Q604 182 673 245T743 428Q743 482 722 521T655 594T471 696Q302 777 231 865T160 1075Q160 1296 292 1415T664 1534Q930 1534 1092 1436L977 1237Q917 1273 830 1295T653 1317Q528 1317 462 1261T395 1098Q395 1029 438 982T610 874Q769 797 841 740T947 617T981 461Q981 231 848 108T471 -16Z"/><glyph unicode="T" horiz-adv-x="1118" d="M535 1300H125L164 1518H1221L1182 1300H774L545 0H305L535 1300Z"/><glyph unicode="U" horiz-adv-x="1284" d="M571 -20Q315 -20 191 74T66 371Q66 451 82 541L256 1518H494L319 545Q307 471 307 412Q307 295 372 245T580 195Q675 195 736 227T835 327T895 528L1071 1518H1300L1120 492Q1074 217 945 99T571 -20Z"/><glyph unicode="V" horiz-adv-x="1227" d="M170 1518H414L547 375L1075 1518H1325L592 -10H362L170 1518Z"/><glyph unicode="W" horiz-adv-x="1763" d="M186 1518H432L473 489L905 1518H1135L1198 485L1608 1518H1847L1225 -10H1004L934 1057L489 -10H266L186 1518Z"/><glyph unicode="X" horiz-adv-x="1214" d="M223 1518H471L657 1012L999 1518H1262L742 782L1030 0H782L567 582L168 0H-88L483 810L223 1518Z"/><glyph unicode="Y" horiz-adv-x="1180" d="M145 1518H395L594 807L1049 1518H1300L669 545L573 0H336L433 541L145 1518Z"/><glyph unicode="Z" horiz-adv-x="1085" d="M809 1300H182L221 1518H1139L1104 1321L256 213H926L889 0H-76L-45 182L809 1300Z"/><glyph unicode="[" horiz-adv-x="840" d="M334 1575H831L797 1376H530L262 -133H537L502 -324H-2L334 1575Z"/><glyph unicode="\" horiz-adv-x="918" d="M137 1518H360L778 0H557L137 1518Z"/><glyph unicode="]" horiz-adv-x="840" d="M-6 -133H264L530 1376H262L297 1575H799L463 -324H-41L-6 -133Z"/><glyph unicode="^" horiz-adv-x="975" d="M528 1806H743L907 1460H727L608 1646L426 1460H240L528 1806Z"/><glyph unicode="_" horiz-adv-x="750" d="M-215 -98H659L629 -272H-246L-215 -98Z"/><glyph unicode="`" horiz-adv-x="975" d="M299 1606H547L711 1260H520L299 1606Z"/><glyph unicode="a" horiz-adv-x="1042" d="M307 -12Q138 -12 58 56T-23 268Q-23 530 104 647T522 764H669Q677 821 677 837Q677 902 635 930T506 958Q347 958 250 918L184 1110Q327 1167 539 1167Q730 1167 817 1108T906 919Q906 838 887 733L813 305L806 245Q806 219 822 210T881 201L846 0L808 -2H774Q693 -2 657 20T614 92Q566 44 485 16T307 -12ZM203 317Q203 243 244 211T373 178Q566 178 608 410L637 580H535Q401 580 334 557T235 477T203 317Z"/><glyph unicode="b" horiz-adv-x="1083" d="M-25 6L254 1575H481L393 1071Q489 1165 684 1165Q850 1165 932 1078T1014 807Q1014 673 974 480T880 188T744 38T545 -14Q407 -14 322 14T203 106L143 -8L-25 6ZM498 186Q569 186 616 218T692 318T750 547Q774 661 774 752Q774 856 730 903T594 950Q512 950 460 921T375 830T313 631T285 397Q285 283 337 235T498 186Z"/><glyph unicode="c" horiz-adv-x="854" d="M414 -16Q208 -16 108 78T8 373Q8 453 29 588T88 835T186 1019T332 1128T543 1165Q635 1165 709 1150T858 1094L729 903Q661 950 541 950Q439 950 380 889T284 675T246 395Q246 285 294 235T453 184Q536 184 635 219L694 37Q565 -16 414 -16Z"/><glyph unicode="d" horiz-adv-x="1083" d="M334 -16Q169 -16 88 71T6 346Q6 470 43 662T135 957T271 1112T475 1165Q599 1165 679 1137T795 1044L889 1575H1118L842 8L655 -6L662 90Q554 -16 334 -16ZM424 186Q505 186 556 216T641 306T703 498T731 741Q731 853 680 902T520 952Q448 952 401 920T324 817T268 602T242 385Q242 282 286 234T424 186Z"/><glyph unicode="e" horiz-adv-x="981" d="M430 -14Q212 -14 110 78T8 369Q8 507 46 682T149 961T308 1115T539 1165Q733 1165 823 1092T913 854Q913 754 860 465H233L229 385Q229 276 282 229T453 182Q576 182 715 229L774 49Q626 -14 430 -14ZM676 666Q694 763 694 815Q694 898 656 930T526 963Q418 963 360 900T267 666H676Z"/><glyph unicode="f" horiz-adv-x="711" d="M102 1145H280L305 1284Q334 1446 423 1512T705 1579H780L838 1577L801 1378H692Q614 1378 578 1348T526 1227L511 1145H762L725 944H476L252 -324H23L245 944H66L102 1145Z"/><glyph unicode="g" horiz-adv-x="1026" d="M479 408Q381 408 306 426Q287 398 287 369Q287 330 311 315T408 297Q574 294 667 269T803 191T846 39Q846 -157 729 -249T348 -342Q100 -342 -11 -283T-123 -90Q-123 29 -53 108T143 213Q114 233 100 268T86 342Q86 431 160 499Q80 572 80 711Q80 933 189 1049T516 1165Q569 1165 618 1161L1034 1231L1004 1040H833Q915 974 915 819Q915 408 479 408ZM362 -170Q495 -170 550 -131T606 2Q606 70 552 94T352 119Q115 119 115 -53Q115 -115 173 -142T362 -170ZM475 590Q588 590 639 648T690 823Q690 965 520 965Q408 965 357 906T305 729Q305 658 345 624T475 590Z"/><glyph unicode="h" horiz-adv-x="1067" d="M252 1575H479L387 1065Q430 1107 501 1136T672 1165Q826 1165 900 1101T974 898Q974 835 954 723L827 0H598L719 690Q735 775 735 819Q735 887 695 916T565 946Q491 946 444 918T367 829T311 629L203 0H-27L252 1575Z"/><glyph unicode="i" horiz-adv-x="465" d="M186 1145H416L213 0H-16L186 1145ZM252 1520H483L438 1272H207L252 1520Z"/><glyph unicode="j" horiz-adv-x="465" d="M-154 -137H-135Q-74 -137 -52 -113T-18 -8L186 1145H416L205 -41Q184 -160 149 -217T49 -299T-145 -324H-186L-154 -137ZM252 1520H483L438 1272H207L252 1520Z"/><glyph unicode="k" horiz-adv-x="961" d="M254 1575H479L319 669L725 1145H981L577 667L811 0H578L401 489L257 319L201 0H-25L254 1575Z"/><glyph unicode="l" horiz-adv-x="547" d="M317 -2H264Q136 -2 81 43T26 189Q26 243 39 315L262 1575H492L268 315L260 254Q260 224 284 213T377 201L342 0L317 -2Z"/><glyph unicode="m" horiz-adv-x="1636" d="M360 1147L356 1059Q460 1165 664 1165Q778 1165 837 1138T922 1044Q1030 1165 1268 1165Q1416 1165 1487 1103T1560 901Q1560 836 1540 723L1413 0H1184L1307 690Q1323 789 1323 825Q1323 891 1284 918T1161 946Q1056 946 1002 878T918 629L809 0H580L700 690Q717 779 717 823Q717 891 679 918T557 946Q485 946 440 918T366 827T313 629L203 0H-25L174 1130L360 1147Z"/><glyph unicode="n" horiz-adv-x="1067" d="M360 1147L356 1059Q401 1105 481 1135T674 1165Q828 1165 902 1101T976 898Q976 835 956 723L829 0H600L721 690Q737 775 737 819Q737 887 697 916T567 946Q493 946 446 918T369 829T313 629L205 0H-25L174 1130L360 1147Z"/><glyph unicode="o" horiz-adv-x="1053" d="M426 -16Q216 -16 113 82T10 387Q10 474 33 612Q83 907 210 1036T563 1165Q773 1165 876 1068T979 766Q979 638 940 457T837 178T674 32T426 -16ZM442 184Q521 184 572 215T656 311T716 525T745 745Q745 852 697 901T545 950Q463 950 410 915T323 810T264 586Q244 490 244 397Q244 286 293 235T442 184Z"/><glyph unicode="p" horiz-adv-x="1083" d="M360 1147L358 1061Q466 1165 684 1165Q850 1165 932 1078T1014 807Q1014 673 974 480T880 188T744 38T545 -14Q418 -14 338 14T223 106L147 -324H-80L174 1130L360 1147ZM498 186Q569 186 615 218T692 318T748 534T774 752Q774 856 730 903T594 950Q513 950 462 922T378 834T315 637T285 397Q285 283 337 235T498 186Z"/><glyph unicode="q" horiz-adv-x="1083" d="M625 80Q565 28 497 6T334 -16Q169 -16 88 71T6 346Q6 470 43 662T135 957T271 1112T475 1165Q616 1165 695 1137T813 1044L874 1157L1042 1143L782 -324H555L625 80ZM424 186Q506 186 559 217T645 311T705 506T731 741Q731 853 680 902T520 952Q448 952 401 920T324 817T268 602T242 385Q242 282 286 234T424 186Z"/><glyph unicode="r" horiz-adv-x="635" d="M360 1147L356 1042Q456 1155 686 1155L647 938Q540 938 476 908T375 820T313 610L205 0H-25L174 1130L360 1147Z"/><glyph unicode="s" horiz-adv-x="838" d="M334 -14Q213 -14 111 10T-90 92L29 268Q173 176 340 176Q498 176 498 319Q498 353 486 378T444 426T311 506Q181 574 127 646T72 813Q72 980 174 1072T465 1165Q681 1165 815 1085L696 905Q586 965 449 965Q297 965 297 825Q297 787 329 753T471 659Q611 583 664 510T717 334Q717 165 618 76T334 -14Z"/><glyph unicode="t" horiz-adv-x="768" d="M102 1145H284L373 1434L563 1473L505 1145H760L723 944H470L365 344Q358 303 358 278Q358 237 386 219T477 201H594L557 0Q515 -6 418 -6Q264 -6 194 45T124 212Q124 271 137 348L240 944H66L102 1145Z"/><glyph unicode="u" d="M428 -16Q221 -16 127 54T32 282Q32 367 51 475L170 1145H399L281 471Q264 376 264 331Q264 255 305 222T436 188Q507 188 548 207T612 270T659 440L782 1145H1010L883 418Q851 238 801 151T664 24T428 -16Z"/><glyph unicode="v" horiz-adv-x="958" d="M80 1145H315L403 334L774 1145H1014L465 -8H219L80 1145Z"/><glyph unicode="w" horiz-adv-x="1468" d="M92 1145H332L379 391L707 1145H922L979 414L1286 1145H1513L1022 -8H795L733 713L420 -8H174L92 1145Z"/><glyph unicode="x" horiz-adv-x="942" d="M115 1145H352L483 799L723 1145H967L566 582L788 0H551L401 394L127 0H-121L318 612L115 1145Z"/><glyph unicode="y" horiz-adv-x="926" d="M78 1145H317L398 357L748 1145H981L373 -127Q335 -204 296 -246T209 -306T74 -324H-57L-25 -137H76Q117 -137 140 -125T182 -72L218 7L78 1145Z"/><glyph unicode="z" horiz-adv-x="840" d="M532 944H98L135 1145H854L827 987L217 188H702L670 0H-98L-72 156L532 944Z"/><glyph unicode="{" horiz-adv-x="899" d="M418 -324Q256 -324 176 -275T96 -119Q96 -19 186 199Q244 339 260 385T276 457Q276 499 238 513T80 528L115 723Q231 723 272 736T329 785T346 909L341 1052L336 1206Q336 1405 424 1490T717 1575H899L862 1376H754Q645 1376 604 1329T563 1151L571 895Q571 766 540 710T434 627Q514 592 514 510Q514 430 430 230Q346 29 346 -33Q346 -88 382 -110T487 -133H598L563 -324H418Z"/><glyph unicode="|" horiz-adv-x="608" d="M186 1575H420V-324H186V1575Z"/><glyph unicode="}" horiz-adv-x="899" d="M-10 -133H100Q206 -133 247 -83T289 94L281 356Q281 483 313 541T420 625Q338 659 338 741Q338 823 422 1018Q506 1213 506 1276Q506 1332 470 1354T365 1376H254L289 1575H436Q598 1575 678 1526T758 1370Q758 1269 667 1053Q605 907 590 863T575 795Q575 752 614 738T772 723L737 528Q620 528 579 514T522 465T506 342L511 200L516 45Q516 -155 429 -239T137 -324H-47L-10 -133Z"/><glyph unicode="~" horiz-adv-x="975" d="M203 892Q315 1070 453 1070Q495 1070 531 1057T600 1029T660 1001T715 988Q778 988 846 1082L987 988Q928 888 865 845T743 801Q700 801 663 814T593 843T530 872T471 885Q437 885 409 865T346 797L203 892Z"/><glyph unicode=" " horiz-adv-x="362"/><glyph unicode="¡" horiz-adv-x="653" d="M276 1073H485L319 0H66L276 1073ZM326 1518H596L545 1229H274L326 1518Z"/><glyph unicode="¢" horiz-adv-x="895" d="M504 1317H723L693 1150Q741 1143 780 1131T877 1090L750 903Q682 950 561 950Q456 950 397 885T301 655T264 395Q264 283 314 234T473 184Q557 184 653 223L711 49Q611 3 490 -7L457 -197H236L271 7Q151 37 90 125T29 373Q29 545 81 743T227 1037T474 1153L504 1317Z"/><glyph unicode="£" d="M55 862H204L203 965Q203 1256 308 1395T637 1534Q900 1534 1065 1436L940 1257Q821 1323 639 1323Q559 1323 513 1288T447 1179T426 944V862H748L715 674H429V629L430 510Q430 342 394 234L413 225Q502 186 602 186Q655 186 681 216T723 342L741 457H944L920 307Q891 135 827 63T629 -10Q427 -10 276 73Q167 -1 -44 -1L-98 0L-61 203Q78 203 129 225T199 306T217 520L213 674H23L55 862Z"/><glyph unicode="¤" horiz-adv-x="1152" d="M1056 392L940 284L740 500Q668 452 572 452Q480 452 408 500L208 284L92 392L300 608Q272 648 262 686T252 780Q252 883 300 952L92 1168L208 1276L408 1060Q480 1108 572 1108Q668 1108 740 1060L944 1276L1060 1156L852 952Q880 912 890 872T900 780Q900 684 848 608L1056 392ZM748 780Q748 860 698 910T572 960Q496 960 448 910T400 780Q400 700 450 652T572 604Q652 604 700 652T748 780Z"/><glyph unicode="¥" horiz-adv-x="1079" d="M37 330H352L374 455H63L94 643H405L158 1518H399L557 862L946 1518H1192L635 643H942L909 455H597L575 330H887L856 141H542L518 0H295L319 141H8L37 330Z"/><glyph unicode="¦" horiz-adv-x="608" d="M186 463H420V-324H186V463ZM186 1575H420V788H186V1575Z"/><glyph unicode="§" horiz-adv-x="952" d="M829 1530L936 1528L901 1337H821Q767 1337 735 1323T684 1277T653 1178L634 1062Q748 1039 803 978T858 813Q858 636 780 544T525 443L502 311Q478 178 434 113T313 16T115 -16Q36 -16 8 -10L39 170H119Q172 170 204 183T254 225T287 328L310 457L304 458Q197 482 146 540T94 696Q94 873 173 966T417 1072L440 1204Q467 1340 511 1404T631 1499T829 1530ZM475 590Q670 590 670 784Q670 913 473 913Q281 913 281 717Q281 654 327 622T475 590Z"/><glyph unicode="¨" horiz-adv-x="975" d="M326 1495H530L489 1260H285L326 1495ZM702 1495H907L864 1260H659L702 1495Z"/><glyph unicode="©" horiz-adv-x="1366" d="M696 262Q504 262 417 376T330 768Q330 960 368 1064T488 1220T709 1272Q853 1272 956 1208L874 1081Q810 1126 705 1126Q581 1126 531 1047T481 764Q481 556 532 478T705 399Q766 399 808 412T891 453L969 332Q900 292 840 277T696 262ZM686 -20Q482 -20 347 60T145 310T78 758Q78 1166 225 1353T686 1540Q893 1540 1027 1458T1227 1208T1294 758Q1294 478 1227 310T1025 61T686 -20ZM686 72Q866 72 979 145T1146 364T1200 758Q1200 1006 1147 1152T980 1373T686 1448Q507 1448 395 1374T229 1153T176 758Q176 509 229 364T395 145T686 72Z"/><glyph unicode="ª" horiz-adv-x="930" d="M362 580Q227 580 167 637T106 805Q106 945 151 1029T287 1153T547 1192H662Q671 1249 671 1268Q671 1319 639 1340T539 1362Q412 1362 330 1329L272 1489Q389 1534 561 1534Q717 1534 788 1486T861 1333Q861 1267 846 1182L784 836L778 789Q778 769 789 762T840 754L811 588L754 586Q679 586 647 607T608 682Q565 623 502 602T362 580ZM70 444H733L705 276H43L70 444ZM295 844Q295 785 326 760T428 735Q583 735 612 920L636 1053H559Q448 1053 395 1034T319 971T295 844Z"/><glyph unicode="«" horiz-adv-x="1229" d="M102 571L455 1145H655L322 571L455 0H252L102 571ZM565 571L915 1145H1118L782 571L915 0H713L565 571Z"/><glyph unicode="¬" horiz-adv-x="1536" d="M1116 352V728H212V920H1296V352H1116Z"/><glyph unicode="­" horiz-adv-x="719" d="M72 762H645L608 551H33L72 762Z"/><glyph unicode="®" horiz-adv-x="1366" d="M686 -20Q482 -20 347 60T145 310T78 758Q78 1166 225 1353T686 1540Q893 1540 1027 1458T1227 1208T1294 758Q1294 478 1227 310T1025 61T686 -20ZM686 72Q866 72 979 145T1146 364T1200 758Q1200 1006 1147 1152T980 1373T686 1448Q507 1448 395 1374T229 1153T176 758Q176 509 229 364T395 145T686 72ZM391 1249H727Q884 1249 954 1182T1024 956Q1024 826 982 758T840 662L1016 276H864L696 651H537V276H391V1249ZM723 772Q807 772 843 810T879 946Q879 1041 844 1080T723 1120H537V772H723Z"/><glyph unicode="¯" horiz-adv-x="975" d="M276 1450H940L907 1260H242L276 1450Z"/><glyph unicode="°" horiz-adv-x="936" d="M465 559Q293 559 207 640T121 889Q121 1043 170 1211T319 1457T575 1534Q920 1534 920 1198Q920 1081 887 942T801 723T665 601T465 559ZM477 735Q565 735 616 784T697 953T727 1169Q727 1260 686 1303T559 1346Q494 1346 451 1320T381 1242T331 1078T309 907Q309 817 351 776T477 735Z"/><glyph unicode="±" horiz-adv-x="1188" d="M459 621H143L178 821H496L561 1198H780L713 821H1030L995 621H678L610 242H393L459 621ZM72 223H926L891 23H37L72 223Z"/><glyph unicode="²" horiz-adv-x="809" d="M588 1280Q588 1325 556 1342T455 1360Q413 1360 364 1351T283 1327L231 1479Q345 1528 502 1528Q778 1528 778 1327Q778 1232 757 1175T679 1050T494 860L336 711H682L655 559H72L96 700L365 956Q480 1068 519 1113T573 1192T588 1280Z"/><glyph unicode="³" horiz-adv-x="809" d="M387 549Q197 549 72 629L174 772Q264 709 381 709Q469 709 508 752T547 893Q547 952 514 972T393 993H272L299 1141H434H444Q526 1141 560 1174T594 1284Q594 1332 564 1348T463 1364Q365 1364 283 1335L231 1483Q336 1528 508 1528Q653 1528 716 1483T780 1339Q780 1238 745 1166T645 1073Q688 1055 709 1018T731 911Q731 549 387 549Z"/><glyph unicode="´" horiz-adv-x="975" d="M711 1606H967L623 1260H422L711 1606Z"/><glyph unicode="µ" horiz-adv-x="1051" d="M176 1145H408L289 471Q271 375 271 329Q271 254 312 221T442 188Q513 188 554 207T619 268T666 440L791 1145H1016L889 418Q857 237 808 150T672 24T436 -16Q272 -16 217 66L147 -324H-80L176 1145Z"/><glyph unicode="¶" horiz-adv-x="1096" d="M717 573H572L471 0H248L353 600Q224 637 164 717T104 931Q104 983 119 1083Q159 1317 277 1417T635 1518H1110L842 0H616L717 573ZM752 762L850 1311H621Q543 1311 492 1289T408 1219T357 1092T338 952Q338 853 400 808T602 762H752Z"/><glyph unicode="·" horiz-adv-x="471" d="M119 868H389L338 571H68L119 868Z"/><glyph unicode="¸" horiz-adv-x="975" d="M338 -467Q200 -467 94 -420L152 -297Q243 -336 322 -336Q377 -336 405 -315T434 -236Q434 -203 410 -188T320 -172H295L252 -137L309 14H440L406 -88H415Q586 -88 586 -236Q586 -355 529 -411T338 -467Z"/><glyph unicode="¹" horiz-adv-x="592" d="M336 1350H199L229 1518H557L387 559H197L336 1350Z"/><glyph unicode="º" horiz-adv-x="930" d="M461 575Q293 575 209 653T125 901Q125 1068 176 1228T323 1461T571 1534Q741 1534 825 1455T909 1210Q909 1106 878 961T795 735T661 615T461 575ZM473 741Q534 741 573 764T638 832T682 962T709 1111T715 1194Q715 1281 676 1318T557 1356Q496 1356 455 1330T387 1251T339 1088T317 911Q317 823 355 782T473 741ZM70 444H748L719 276H39L70 444Z"/><glyph unicode="»" horiz-adv-x="1229" d="M381 573L246 1145H451L598 573L248 0H43L381 573ZM842 573L709 1145H909L1059 573L709 0H506L842 573Z"/><glyph unicode="¼" horiz-adv-x="1649" d="M1153 1518H1360L416 0H209L1153 1518ZM1268 958H1456L1014 334H1209L1284 573H1421L1378 334H1501L1475 182H1351L1319 0H1149L1180 182H793L819 326L1268 958ZM346 1350H209L240 1518H569L399 559H209L346 1350Z"/><glyph unicode="½" horiz-adv-x="1745" d="M1153 1518H1360L416 0H209L1153 1518ZM346 1350H209L240 1518H569L399 559H209L346 1350ZM1432 721Q1432 766 1400 783T1298 801Q1255 801 1205 791T1126 768L1075 920Q1189 969 1346 969Q1622 969 1622 768Q1622 693 1610 646T1569 554T1485 449T1180 152H1526L1499 0H915L940 141L1208 397Q1317 501 1358 549T1416 631T1432 721Z"/><glyph unicode="¾" horiz-adv-x="1808" d="M391 549Q199 549 74 629L178 772Q268 709 385 709Q473 709 512 752T551 893Q551 952 518 972T397 993H276L303 1141H438H448Q528 1141 562 1174T596 1284Q596 1332 567 1348T467 1364Q369 1364 287 1335L236 1483Q337 1528 512 1528Q657 1528 720 1483T784 1339Q784 1235 749 1165T649 1073Q693 1055 714 1018T735 911Q735 549 391 549ZM1313 1518H1520L575 0H369L1313 1518ZM1427 958H1618L1176 334H1371L1444 573H1583L1540 334H1663L1636 182H1513L1481 0H1309L1341 182H954L981 326L1427 958Z"/><glyph unicode="¿" horiz-adv-x="1124" d="M471 -16Q59 -16 59 279Q59 423 118 527T330 731Q455 818 495 869T551 1010L565 1092H788Q771 960 754 906T706 806T627 719T506 629Q414 568 376 529T321 444T303 338Q303 264 357 231T516 197Q579 197 655 213T795 260L889 70Q822 34 703 9T471 -16ZM616 1518H887L840 1255H571L616 1518Z"/><glyph unicode="À" horiz-adv-x="1239" d="M641 1528H868L1067 0H821L788 289H281L143 0H-100L641 1528ZM766 504L690 1163L375 504H766ZM489 1948H737L901 1602H710L489 1948Z"/><glyph unicode="Á" horiz-adv-x="1239" d="M641 1528H868L1067 0H821L788 289H281L143 0H-100L641 1528ZM766 504L690 1163L375 504H766ZM901 1948H1157L813 1602H612L901 1948Z"/><glyph unicode="Â" horiz-adv-x="1239" d="M641 1528H868L1067 0H821L788 289H281L143 0H-100L641 1528ZM766 504L690 1163L375 504H766ZM718 1948H933L1097 1602H917L798 1788L616 1602H430L718 1948Z"/><glyph unicode="Ã" horiz-adv-x="1239" d="M641 1528H868L1067 0H821L788 289H281L143 0H-100L641 1528ZM766 504L690 1163L375 504H766ZM393 1688Q505 1866 643 1866Q685 1866 721 1853T790 1825T850 1797T905 1784Q968 1784 1036 1878L1177 1784Q1118 1684 1055 1641T933 1597Q890 1597 853 1610T783 1639T720 1668T661 1681Q627 1681 599 1661T536 1593L393 1688Z"/><glyph unicode="Ä" horiz-adv-x="1239" d="M641 1528H868L1067 0H821L788 289H281L143 0H-100L641 1528ZM766 504L690 1163L375 504H766ZM516 1837H720L679 1602H475L516 1837ZM892 1837H1097L1054 1602H849L892 1837Z"/><glyph unicode="Å" horiz-adv-x="1239" d="M604 1450Q539 1502 539 1608Q539 1753 607 1834T797 1915Q897 1915 950 1863T1004 1712Q1004 1619 972 1550T879 1446L1067 0H821L788 289H281L143 0H-100L604 1450ZM766 504L690 1163L375 504H766ZM659 1622Q659 1539 729 1528H778Q831 1537 857 1583T883 1702Q883 1798 788 1798Q727 1798 693 1751T659 1622Z"/><glyph unicode="Æ" horiz-adv-x="1808" d="M887 1518H1851L1810 1300H1202L1130 887H1708L1669 674H1092L1010 213H1622L1587 0H741L793 297H330L135 0H-111L887 1518ZM827 500L963 1266L461 500H827Z"/><glyph unicode="Ç" horiz-adv-x="1071" d="M526 -16Q278 -16 154 108T29 487Q29 600 58 779T137 1101T266 1339T459 1484T733 1534Q967 1534 1114 1432L979 1227Q900 1272 838 1287T698 1303Q546 1303 461 1208T324 888T272 500Q272 345 339 271T557 197Q704 197 813 262L918 82Q755 -16 526 -16ZM378 -467Q240 -467 134 -420L192 -297Q283 -336 362 -336Q417 -336 445 -315T474 -236Q474 -203 450 -188T360 -172H335L292 -137L349 14H480L446 -88H455Q626 -88 626 -236Q626 -355 569 -411T378 -467Z"/><glyph unicode="È" horiz-adv-x="1063" d="M264 1518H1106L1067 1300H457L385 891H963L924 674H346L264 213H877L840 0H-4L264 1518ZM401 1948H649L813 1602H622L401 1948Z"/><glyph unicode="É" horiz-adv-x="1063" d="M813 1948H1069L725 1602H524L813 1948ZM264 1518H1106L1067 1300H457L385 891H963L924 674H346L264 213H877L840 0H-4L264 1518Z"/><glyph unicode="Ê" horiz-adv-x="1063" d="M630 1948H845L1009 1602H829L710 1788L528 1602H342L630 1948ZM264 1518H1106L1067 1300H457L385 891H963L924 674H346L264 213H877L840 0H-4L264 1518Z"/><glyph unicode="Ë" horiz-adv-x="1063" d="M428 1837H632L591 1602H387L428 1837ZM804 1837H1009L966 1602H761L804 1837ZM264 1518H1106L1067 1300H457L385 891H963L924 674H346L264 213H877L840 0H-4L264 1518Z"/><glyph unicode="Ì" horiz-adv-x="524" d="M113 1950H360L492 1602H301L113 1950ZM276 1518H514L246 0H8L276 1518Z"/><glyph unicode="Í" horiz-adv-x="524" d="M545 1950H803L506 1602H305L545 1950ZM276 1518H514L246 0H8L276 1518Z"/><glyph unicode="Î" horiz-adv-x="524" d="M276 1518H514L246 0H8L276 1518ZM363 1948H578L742 1602H562L443 1788L261 1602H75L363 1948Z"/><glyph unicode="Ï" horiz-adv-x="524" d="M276 1518H514L246 0H8L276 1518ZM161 1837H365L324 1602H120L161 1837ZM537 1837H742L699 1602H494L537 1837Z"/><glyph unicode="Ð" horiz-adv-x="1231" d="M20 872H150L264 1518H647Q939 1518 1070 1402T1202 1028Q1202 871 1153 629T1023 254T817 61T483 0H-4L115 678H-12L20 872ZM516 207Q681 207 766 297T904 611T956 999Q956 1160 882 1230T635 1300H461L385 872H612L578 678H351L268 207H516Z"/><glyph unicode="Ñ" horiz-adv-x="1290" d="M264 1518H516L883 473L1069 1518H1296L1028 0H809L414 1100L219 0H-4L264 1518ZM420 1688Q532 1866 670 1866Q712 1866 748 1853T817 1825T877 1797T932 1784Q995 1784 1063 1878L1204 1784Q1145 1684 1082 1641T960 1597Q917 1597 880 1610T810 1639T747 1668T688 1681Q654 1681 626 1661T563 1593L420 1688Z"/><glyph unicode="Ò" horiz-adv-x="1288" d="M553 -16Q288 -16 159 111T29 496Q29 645 78 883T211 1262T423 1468T725 1534Q990 1534 1122 1409T1255 1016Q1255 791 1184 516T959 112T553 -16ZM563 195Q683 195 761 243T889 390T977 688T1014 995Q1014 1155 945 1231T725 1307Q605 1307 527 1259T398 1113T309 816T270 502Q270 343 341 269T563 195ZM514 1948H762L926 1602H735L514 1948Z"/><glyph unicode="Ó" horiz-adv-x="1288" d="M926 1948H1182L838 1602H637L926 1948ZM553 -16Q288 -16 159 111T29 496Q29 645 78 883T211 1262T423 1468T725 1534Q990 1534 1122 1409T1255 1016Q1255 791 1184 516T959 112T553 -16ZM563 195Q683 195 761 243T889 390T977 688T1014 995Q1014 1155 945 1231T725 1307Q605 1307 527 1259T398 1113T309 816T270 502Q270 343 341 269T563 195Z"/><glyph unicode="Ô" horiz-adv-x="1288" d="M743 1948H958L1122 1602H942L823 1788L641 1602H455L743 1948ZM553 -16Q288 -16 159 111T29 496Q29 645 78 883T211 1262T423 1468T725 1534Q990 1534 1122 1409T1255 1016Q1255 791 1184 516T959 112T553 -16ZM563 195Q683 195 761 243T889 390T977 688T1014 995Q1014 1155 945 1231T725 1307Q605 1307 527 1259T398 1113T309 816T270 502Q270 343 341 269T563 195Z"/><glyph unicode="Õ" horiz-adv-x="1288" d="M553 -16Q288 -16 159 111T29 496Q29 645 78 883T211 1262T423 1468T725 1534Q990 1534 1122 1409T1255 1016Q1255 791 1184 516T959 112T553 -16ZM563 195Q683 195 761 243T889 390T977 688T1014 995Q1014 1155 945 1231T725 1307Q605 1307 527 1259T398 1113T309 816T270 502Q270 343 341 269T563 195ZM418 1688Q530 1866 668 1866Q710 1866 746 1853T815 1825T875 1797T930 1784Q993 1784 1061 1878L1202 1784Q1143 1684 1080 1641T958 1597Q915 1597 878 1610T808 1639T745 1668T686 1681Q652 1681 624 1661T561 1593L418 1688Z"/><glyph unicode="Ö" horiz-adv-x="1288" d="M541 1837H745L704 1602H500L541 1837ZM917 1837H1122L1079 1602H874L917 1837ZM553 -16Q288 -16 159 111T29 496Q29 645 78 883T211 1262T423 1468T725 1534Q990 1534 1122 1409T1255 1016Q1255 791 1184 516T959 112T553 -16ZM563 195Q683 195 761 243T889 390T977 688T1014 995Q1014 1155 945 1231T725 1307Q605 1307 527 1259T398 1113T309 816T270 502Q270 343 341 269T563 195Z"/><glyph unicode="×" horiz-adv-x="1188" d="M145 465L444 721L236 975L397 1118L608 864L907 1118L1026 975L725 721L936 467L776 324L565 578L264 322L145 465Z"/><glyph unicode="Ø" horiz-adv-x="1288" d="M553 -16Q419 -16 307 20L244 -84H16L146 123Q29 253 29 496Q29 645 78 883T211 1262T423 1468T725 1534Q877 1534 978 1496L1047 1604H1274L1138 1393L1147 1383Q1255 1257 1255 1016Q1255 791 1184 516T959 112T553 -16ZM561 184Q681 184 759 230T888 369T978 661T1018 1001Q1018 1098 992 1169L414 207Q483 184 561 184ZM725 1317Q603 1317 523 1268T392 1118T302 814T264 496Q264 406 287 337L862 1296Q807 1317 725 1317Z"/><glyph unicode="Ù" horiz-adv-x="1284" d="M571 -20Q315 -20 191 74T66 371Q66 451 82 541L256 1518H494L319 545Q307 471 307 412Q307 295 372 245T580 195Q675 195 736 227T835 327T895 528L1071 1518H1300L1120 492Q1074 217 945 99T571 -20ZM512 1948H760L924 1602H733L512 1948Z"/><glyph unicode="Ú" horiz-adv-x="1284" d="M924 1948H1180L836 1602H635L924 1948ZM571 -20Q315 -20 191 74T66 371Q66 451 82 541L256 1518H494L319 545Q307 471 307 412Q307 295 372 245T580 195Q675 195 736 227T835 327T895 528L1071 1518H1300L1120 492Q1074 217 945 99T571 -20Z"/><glyph unicode="Û" horiz-adv-x="1284" d="M741 1948H956L1120 1602H940L821 1788L639 1602H453L741 1948ZM571 -20Q315 -20 191 74T66 371Q66 451 82 541L256 1518H494L319 545Q307 471 307 412Q307 295 372 245T580 195Q675 195 736 227T835 327T895 528L1071 1518H1300L1120 492Q1074 217 945 99T571 -20Z"/><glyph unicode="Ü" horiz-adv-x="1284" d="M539 1837H743L702 1602H498L539 1837ZM915 1837H1120L1077 1602H872L915 1837ZM571 -20Q315 -20 191 74T66 371Q66 451 82 541L256 1518H494L319 545Q307 471 307 412Q307 295 372 245T580 195Q675 195 736 227T835 327T895 528L1071 1518H1300L1120 492Q1074 217 945 99T571 -20Z"/><glyph unicode="Ý" horiz-adv-x="1180" d="M145 1518H395L594 807L1049 1518H1300L669 545L573 0H336L433 541L145 1518ZM873 1948H1129L785 1602H584L873 1948Z"/><glyph unicode="Þ" horiz-adv-x="1151" d="M264 1518H498L453 1274H641Q897 1274 1015 1191T1133 918Q1133 819 1101 687T1008 476T854 360T623 322H285L229 0H-4L264 1518ZM621 518Q700 518 747 540T826 612T875 744T893 877Q893 978 831 1022T635 1067H418L319 518H621Z"/><glyph unicode="ß" horiz-adv-x="1092" d="M641 1589Q845 1589 943 1514T1042 1278Q1042 1206 1015 1080T952 900T852 821Q927 796 958 733T989 543Q989 381 941 248T793 57T489 0H334L371 207H485H495Q573 207 620 225T698 286T746 405T764 532Q764 625 708 666T524 707H500L535 901H596Q678 901 719 934T783 1048T807 1210Q807 1293 766 1331T627 1370Q532 1370 479 1319T406 1151L145 -324H-80L184 1196Q219 1398 331 1493T641 1589Z"/><glyph unicode="à" horiz-adv-x="1042" d="M307 -12Q138 -12 58 56T-23 268Q-23 530 104 647T522 764H669Q677 821 677 837Q677 902 635 930T506 958Q347 958 250 918L184 1110Q327 1167 539 1167Q730 1167 817 1108T906 919Q906 838 887 733L813 305L806 245Q806 219 822 210T881 201L846 0L808 -2H774Q693 -2 657 20T614 92Q566 44 485 16T307 -12ZM203 317Q203 243 244 211T373 178Q566 178 608 410L637 580H535Q401 580 334 557T235 477T203 317ZM332 1606H580L744 1260H553L332 1606Z"/><glyph unicode="á" horiz-adv-x="1042" d="M307 -12Q138 -12 58 56T-23 268Q-23 530 104 647T522 764H669Q677 821 677 837Q677 902 635 930T506 958Q347 958 250 918L184 1110Q327 1167 539 1167Q730 1167 817 1108T906 919Q906 838 887 733L813 305L806 245Q806 219 822 210T881 201L846 0L808 -2H774Q693 -2 657 20T614 92Q566 44 485 16T307 -12ZM203 317Q203 243 244 211T373 178Q566 178 608 410L637 580H535Q401 580 334 557T235 477T203 317ZM744 1606H1000L656 1260H455L744 1606Z"/><glyph unicode="â" horiz-adv-x="1042" d="M307 -12Q138 -12 58 56T-23 268Q-23 530 104 647T522 764H669Q677 821 677 837Q677 902 635 930T506 958Q347 958 250 918L184 1110Q327 1167 539 1167Q730 1167 817 1108T906 919Q906 838 887 733L813 305L806 245Q806 219 822 210T881 201L846 0L808 -2H774Q693 -2 657 20T614 92Q566 44 485 16T307 -12ZM203 317Q203 243 244 211T373 178Q566 178 608 410L637 580H535Q401 580 334 557T235 477T203 317ZM561 1606H776L940 1260H760L641 1446L459 1260H273L561 1606Z"/><glyph unicode="ã" horiz-adv-x="1042" d="M307 -12Q138 -12 58 56T-23 268Q-23 530 104 647T522 764H669Q677 821 677 837Q677 902 635 930T506 958Q347 958 250 918L184 1110Q327 1167 539 1167Q730 1167 817 1108T906 919Q906 838 887 733L813 305L806 245Q806 219 822 210T881 201L846 0L808 -2H774Q693 -2 657 20T614 92Q566 44 485 16T307 -12ZM203 317Q203 243 244 211T373 178Q566 178 608 410L637 580H535Q401 580 334 557T235 477T203 317ZM236 1346Q348 1524 486 1524Q528 1524 564 1511T633 1483T693 1455T748 1442Q811 1442 879 1536L1020 1442Q961 1342 898 1299T776 1255Q733 1255 696 1268T626 1297T563 1326T504 1339Q470 1339 442 1319T379 1251L236 1346Z"/><glyph unicode="ä" horiz-adv-x="1042" d="M307 -12Q138 -12 58 56T-23 268Q-23 530 104 647T522 764H669Q677 821 677 837Q677 902 635 930T506 958Q347 958 250 918L184 1110Q327 1167 539 1167Q730 1167 817 1108T906 919Q906 838 887 733L813 305L806 245Q806 219 822 210T881 201L846 0L808 -2H774Q693 -2 657 20T614 92Q566 44 485 16T307 -12ZM203 317Q203 243 244 211T373 178Q566 178 608 410L637 580H535Q401 580 334 557T235 477T203 317ZM359 1495H563L522 1260H318L359 1495ZM735 1495H940L897 1260H692L735 1495Z"/><glyph unicode="å" horiz-adv-x="1042" d="M307 -12Q138 -12 58 56T-23 268Q-23 530 104 647T522 764H669Q677 821 677 837Q677 902 635 930T506 958Q347 958 250 918L184 1110Q327 1167 539 1167Q730 1167 817 1108T906 919Q906 838 887 733L813 305L806 245Q806 219 822 210T881 201L846 0L808 -2H774Q693 -2 657 20T614 92Q566 44 485 16T307 -12ZM203 317Q203 243 244 211T373 178Q566 178 608 410L637 580H535Q401 580 334 557T235 477T203 317ZM633 1360Q698 1360 730 1408T762 1536Q762 1632 668 1632Q606 1632 573 1585T539 1456Q539 1360 633 1360ZM625 1245Q525 1245 472 1295T418 1442Q418 1587 486 1668T676 1749Q778 1749 830 1697T883 1546Q883 1410 815 1328T625 1245Z"/><glyph unicode="æ" horiz-adv-x="1581" d="M1028 -14Q892 -14 808 21T677 133V132Q606 54 525 21T307 -12Q138 -12 58 56T-23 268Q-23 526 103 645T520 764H669Q677 821 677 837Q677 902 635 930T506 958Q347 958 250 918L184 1110Q327 1167 539 1167Q778 1167 849 1068Q959 1165 1141 1165Q1334 1165 1423 1092T1513 854Q1513 802 1503 718T1462 465H833L829 385Q829 277 883 230T1055 182Q1192 182 1313 231L1376 53Q1235 -14 1028 -14ZM203 317Q203 243 244 211T373 178Q475 178 531 236T608 410L637 580H535Q403 580 335 557T235 477T203 317ZM1286 666Q1305 768 1305 815Q1305 896 1263 929T1126 963Q1051 963 1004 935T926 850T867 666H1286Z"/><glyph unicode="ç" horiz-adv-x="854" d="M414 -16Q208 -16 108 78T8 373Q8 453 29 588T88 835T186 1019T332 1128T543 1165Q635 1165 709 1150T858 1094L729 903Q661 950 541 950Q439 950 380 889T284 675T246 395Q246 285 294 235T453 184Q536 184 635 219L694 37Q565 -16 414 -16ZM535 -467Q397 -467 291 -420L349 -297Q440 -336 519 -336Q574 -336 602 -315T631 -236Q631 -203 607 -188T517 -172H492L449 -137L506 14H637L603 -88H612Q783 -88 783 -236Q783 -355 726 -411T535 -467Z"/><glyph unicode="è" horiz-adv-x="981" d="M430 -14Q212 -14 110 78T8 369Q8 507 46 682T149 961T308 1115T539 1165Q733 1165 823 1092T913 854Q913 754 860 465H233L229 385Q229 276 282 229T453 182Q576 182 715 229L774 49Q626 -14 430 -14ZM676 666Q694 763 694 815Q694 898 656 930T526 963Q418 963 360 900T267 666H676ZM299 1606H547L711 1260H520L299 1606Z"/><glyph unicode="é" horiz-adv-x="981" d="M711 1606H967L623 1260H422L711 1606ZM430 -14Q212 -14 110 78T8 369Q8 507 46 682T149 961T308 1115T539 1165Q733 1165 823 1092T913 854Q913 754 860 465H233L229 385Q229 276 282 229T453 182Q576 182 715 229L774 49Q626 -14 430 -14ZM676 666Q694 763 694 815Q694 898 656 930T526 963Q418 963 360 900T267 666H676Z"/><glyph unicode="ê" horiz-adv-x="981" d="M528 1606H743L907 1260H727L608 1446L426 1260H240L528 1606ZM430 -14Q212 -14 110 78T8 369Q8 507 46 682T149 961T308 1115T539 1165Q733 1165 823 1092T913 854Q913 754 860 465H233L229 385Q229 276 282 229T453 182Q576 182 715 229L774 49Q626 -14 430 -14ZM676 666Q694 763 694 815Q694 898 656 930T526 963Q418 963 360 900T267 666H676Z"/><glyph unicode="ë" horiz-adv-x="981" d="M326 1495H530L489 1260H285L326 1495ZM702 1495H907L864 1260H659L702 1495ZM430 -14Q212 -14 110 78T8 369Q8 507 46 682T149 961T308 1115T539 1165Q733 1165 823 1092T913 854Q913 754 860 465H233L229 385Q229 276 282 229T453 182Q576 182 715 229L774 49Q626 -14 430 -14ZM676 666Q694 763 694 815Q694 898 656 930T526 963Q418 963 360 900T267 666H676Z"/><glyph unicode="ì" horiz-adv-x="465" d="M66 1606H313L399 1260H207L66 1606ZM186 1145H416L213 0H-16L186 1145Z"/><glyph unicode="í" horiz-adv-x="465" d="M434 1606H690L414 1260H215L434 1606ZM186 1145H416L213 0H-16L186 1145Z"/><glyph unicode="î" horiz-adv-x="465" d="M274 1606H487L621 1260H451L354 1446L193 1260H16L274 1606ZM186 1145H416L213 0H-16L186 1145Z"/><glyph unicode="ï" horiz-adv-x="465" d="M98 1495H281L240 1260H55L98 1495ZM442 1495H625L584 1260H399L442 1495ZM186 1145H416L213 0H-16L186 1145Z"/><glyph unicode="ð" horiz-adv-x="1055" d="M671 1394Q639 1449 598 1491L791 1597Q841 1544 894 1446L1124 1499L1094 1327L951 1293Q997 1127 997 936Q997 758 955 536T852 203T692 38T444 -16Q227 -16 118 82T8 383Q8 472 27 600Q113 1106 498 1106Q707 1106 772 1008Q772 1125 735 1243L518 1192L549 1366L671 1394ZM453 184Q528 184 577 215T657 307T713 498T739 702Q739 812 688 860T535 909Q458 909 407 878T324 787T267 601T242 393Q242 282 294 233T453 184Z"/><glyph unicode="ñ" horiz-adv-x="1067" d="M360 1147L356 1059Q401 1105 481 1135T674 1165Q828 1165 902 1101T976 898Q976 835 956 723L829 0H600L721 690Q737 775 737 819Q737 887 697 916T567 946Q493 946 446 918T369 829T313 629L205 0H-25L174 1130L360 1147ZM248 1346Q360 1524 498 1524Q540 1524 576 1511T645 1483T705 1455T760 1442Q823 1442 891 1536L1032 1442Q973 1342 910 1299T788 1255Q745 1255 708 1268T638 1297T575 1326T516 1339Q482 1339 454 1319T391 1251L248 1346Z"/><glyph unicode="ò" horiz-adv-x="1053" d="M426 -16Q216 -16 113 82T10 387Q10 474 33 612Q83 907 210 1036T563 1165Q773 1165 876 1068T979 766Q979 638 940 457T837 178T674 32T426 -16ZM442 184Q521 184 572 215T656 311T716 525T745 745Q745 852 697 901T545 950Q463 950 410 915T323 810T264 586Q244 490 244 397Q244 286 293 235T442 184ZM334 1606H582L746 1260H555L334 1606Z"/><glyph unicode="ó" horiz-adv-x="1053" d="M746 1606H1002L658 1260H457L746 1606ZM426 -16Q216 -16 113 82T10 387Q10 474 33 612Q83 907 210 1036T563 1165Q773 1165 876 1068T979 766Q979 638 940 457T837 178T674 32T426 -16ZM442 184Q521 184 572 215T656 311T716 525T745 745Q745 852 697 901T545 950Q463 950 410 915T323 810T264 586Q244 490 244 397Q244 286 293 235T442 184Z"/><glyph unicode="ô" horiz-adv-x="1053" d="M563 1606H778L942 1260H762L643 1446L461 1260H275L563 1606ZM426 -16Q216 -16 113 82T10 387Q10 474 33 612Q83 907 210 1036T563 1165Q773 1165 876 1068T979 766Q979 638 940 457T837 178T674 32T426 -16ZM442 184Q521 184 572 215T656 311T716 525T745 745Q745 852 697 901T545 950Q463 950 410 915T323 810T264 586Q244 490 244 397Q244 286 293 235T442 184Z"/><glyph unicode="õ" horiz-adv-x="1053" d="M426 -16Q216 -16 113 82T10 387Q10 474 33 612Q83 907 210 1036T563 1165Q773 1165 876 1068T979 766Q979 638 940 457T837 178T674 32T426 -16ZM442 184Q521 184 572 215T656 311T716 525T745 745Q745 852 697 901T545 950Q463 950 410 915T323 810T264 586Q244 490 244 397Q244 286 293 235T442 184ZM238 1346Q350 1524 488 1524Q530 1524 566 1511T635 1483T695 1455T750 1442Q813 1442 881 1536L1022 1442Q963 1342 900 1299T778 1255Q735 1255 698 1268T628 1297T565 1326T506 1339Q472 1339 444 1319T381 1251L238 1346Z"/><glyph unicode="ö" horiz-adv-x="1053" d="M361 1495H565L524 1260H320L361 1495ZM737 1495H942L899 1260H694L737 1495ZM426 -16Q216 -16 113 82T10 387Q10 474 33 612Q83 907 210 1036T563 1165Q773 1165 876 1068T979 766Q979 638 940 457T837 178T674 32T426 -16ZM442 184Q521 184 572 215T656 311T716 525T745 745Q745 852 697 901T545 950Q463 950 410 915T323 810T264 586Q244 490 244 397Q244 286 293 235T442 184Z"/><glyph unicode="÷" horiz-adv-x="1188" d="M422 457H659L618 236H381L422 457ZM174 827H1038L999 616H137L174 827ZM553 1206H788L752 985H516L553 1206Z"/><glyph unicode="ø" horiz-adv-x="1053" d="M426 -16Q308 -16 228 13L224 15L154 -88H-53L86 112Q10 208 10 387Q10 474 33 612Q83 907 210 1036T563 1165Q618 1165 664 1159T768 1133L836 1233H1044L907 1033Q979 936 979 766Q979 638 940 457T837 178T674 32T426 -16ZM442 178Q526 178 579 212T665 318T727 551Q752 678 752 752Q752 784 747 812L339 196Q366 178 442 178ZM547 956Q464 956 411 922T323 816T260 586Q240 451 240 393Q240 360 244 331L648 941H646Q607 956 547 956Z"/><glyph unicode="ù" d="M428 -16Q221 -16 127 54T32 282Q32 367 51 475L170 1145H399L281 471Q264 376 264 331Q264 255 305 222T436 188Q507 188 548 207T612 270T659 440L782 1145H1010L883 418Q851 238 801 151T664 24T428 -16ZM332 1606H580L744 1260H553L332 1606Z"/><glyph unicode="ú" d="M744 1606H1000L656 1260H455L744 1606ZM428 -16Q221 -16 127 54T32 282Q32 367 51 475L170 1145H399L281 471Q264 376 264 331Q264 255 305 222T436 188Q507 188 548 207T612 270T659 440L782 1145H1010L883 418Q851 238 801 151T664 24T428 -16Z"/><glyph unicode="û" d="M561 1606H776L940 1260H760L641 1446L459 1260H273L561 1606ZM428 -16Q221 -16 127 54T32 282Q32 367 51 475L170 1145H399L281 471Q264 376 264 331Q264 255 305 222T436 188Q507 188 548 207T612 270T659 440L782 1145H1010L883 418Q851 238 801 151T664 24T428 -16Z"/><glyph unicode="ü" d="M359 1495H563L522 1260H318L359 1495ZM735 1495H940L897 1260H692L735 1495ZM428 -16Q221 -16 127 54T32 282Q32 367 51 475L170 1145H399L281 471Q264 376 264 331Q264 255 305 222T436 188Q507 188 548 207T612 270T659 440L782 1145H1010L883 418Q851 238 801 151T664 24T428 -16Z"/><glyph unicode="ý" horiz-adv-x="926" d="M78 1145H317L398 357L748 1145H981L373 -127Q335 -204 296 -246T209 -306T74 -324H-57L-25 -137H76Q117 -137 140 -125T182 -72L218 7L78 1145ZM943 1606H1199L855 1260H654L943 1606Z"/><glyph unicode="þ" horiz-adv-x="1083" d="M254 1575H481L393 1071Q452 1122 519 1143T684 1165Q850 1165 932 1078T1014 807Q1014 673 974 480T880 188T744 38T545 -14Q418 -14 338 14T223 106L147 -324H-80L254 1575ZM498 186Q569 186 616 218T692 318T750 547Q774 661 774 752Q774 856 730 903T594 950Q512 950 460 921T375 830T313 631T285 397Q285 283 337 235T498 186Z"/><glyph unicode="ÿ" horiz-adv-x="926" d="M78 1145H317L398 357L748 1145H981L373 -127Q335 -204 296 -246T209 -306T74 -324H-57L-25 -137H76Q117 -137 140 -125T182 -72L218 7L78 1145ZM558 1495H762L721 1260H517L558 1495ZM934 1495H1139L1096 1260H891L934 1495Z"/><glyph unicode="Ā" horiz-adv-x="1239" d="M641 1528H868L1067 0H821L788 289H281L143 0H-100L641 1528ZM766 504L690 1163L375 504H766ZM466 1792H1130L1097 1602H432L466 1792Z"/><glyph unicode="ā" horiz-adv-x="1042" d="M307 -12Q138 -12 58 56T-23 268Q-23 530 104 647T522 764H669Q677 821 677 837Q677 902 635 930T506 958Q347 958 250 918L184 1110Q327 1167 539 1167Q730 1167 817 1108T906 919Q906 838 887 733L813 305L806 245Q806 219 822 210T881 201L846 0L808 -2H774Q693 -2 657 20T614 92Q566 44 485 16T307 -12ZM203 317Q203 243 244 211T373 178Q566 178 608 410L637 580H535Q401 580 334 557T235 477T203 317ZM309 1450H973L940 1260H275L309 1450Z"/><glyph unicode="Ă" horiz-adv-x="1239" d="M641 1528H868L1067 0H821L788 289H281L143 0H-100L641 1528ZM766 504L690 1163L375 504H766ZM811 1591Q690 1591 619 1621T516 1711T479 1905L649 1929Q651 1842 689 1805T815 1767Q887 1767 929 1805T995 1933L1163 1907Q1122 1744 1034 1668T811 1591Z"/><glyph unicode="ă" horiz-adv-x="1042" d="M307 -12Q138 -12 58 56T-23 268Q-23 530 104 647T522 764H669Q677 821 677 837Q677 902 635 930T506 958Q347 958 250 918L184 1110Q327 1167 539 1167Q730 1167 817 1108T906 919Q906 838 887 733L813 305L806 245Q806 219 822 210T881 201L846 0L808 -2H774Q693 -2 657 20T614 92Q566 44 485 16T307 -12ZM203 317Q203 243 244 211T373 178Q566 178 608 410L637 580H535Q401 580 334 557T235 477T203 317ZM654 1249Q533 1249 462 1279T359 1369T322 1563L492 1587Q494 1500 532 1463T658 1425Q730 1425 772 1463T838 1591L1006 1565Q965 1402 877 1326T654 1249Z"/><glyph unicode="Ą" horiz-adv-x="1239" d="M641 1528H868L1067 0H1004Q881 -79 834 -135T786 -248Q786 -315 893 -315H940L915 -453H864Q618 -453 618 -293Q618 -207 674 -125T819 12L788 289H281L143 0H-100L641 1528ZM766 504L690 1163L375 504H766Z"/><glyph unicode="ą" horiz-adv-x="1042" d="M307 -12Q138 -12 58 56T-23 268Q-23 530 104 647T522 764H670Q677 809 677 845Q676 903 636 930T506 958Q347 958 250 918L184 1110Q327 1167 539 1167Q730 1167 817 1108T906 919Q906 838 887 733L813 305L806 245Q806 219 822 210T881 201L846 0Q726 -79 680 -135T633 -248Q633 -315 737 -315H786L760 -453H711Q465 -453 465 -293Q465 -211 517 -131T668 12Q620 34 614 92Q566 44 485 16T307 -12ZM373 178Q566 178 608 410L637 580H535Q398 580 331 556T234 476T203 317Q203 243 244 211T373 178Z"/><glyph unicode="Ć" horiz-adv-x="1071" d="M817 1948H1073L729 1602H528L817 1948ZM526 -16Q278 -16 154 108T29 487Q29 600 58 779T137 1101T266 1339T459 1484T733 1534Q967 1534 1114 1432L979 1227Q900 1272 838 1287T698 1303Q546 1303 461 1208T324 888T272 500Q272 345 339 271T557 197Q704 197 813 262L918 82Q755 -16 526 -16Z"/><glyph unicode="ć" horiz-adv-x="854" d="M907 1606H1163L819 1260H618L907 1606ZM414 -16Q208 -16 108 78T8 373Q8 453 29 588T88 835T186 1019T332 1128T543 1165Q635 1165 709 1150T858 1094L729 903Q661 950 541 950Q439 950 380 889T284 675T246 395Q246 285 294 235T453 184Q536 184 635 219L694 37Q565 -16 414 -16Z"/><glyph unicode="Č" horiz-adv-x="1071" d="M409 1948H591L708 1761L890 1948H1077L788 1602H575L409 1948ZM526 -16Q278 -16 154 108T29 487Q29 600 58 779T137 1101T266 1339T459 1484T733 1534Q967 1534 1114 1432L979 1227Q900 1272 838 1287T698 1303Q546 1303 461 1208T324 888T272 500Q272 345 339 271T557 197Q704 197 813 262L918 82Q755 -16 526 -16Z"/><glyph unicode="č" horiz-adv-x="854" d="M499 1606H681L798 1419L980 1606H1167L878 1260H665L499 1606ZM414 -16Q208 -16 108 78T8 373Q8 453 29 588T88 835T186 1019T332 1128T543 1165Q635 1165 709 1150T858 1094L729 903Q661 950 541 950Q439 950 380 889T284 675T246 395Q246 285 294 235T453 184Q536 184 635 219L694 37Q565 -16 414 -16Z"/><glyph unicode="Ď" horiz-adv-x="1231" d="M489 1948H671L788 1761L970 1948H1157L868 1602H655L489 1948ZM264 1518H647Q939 1518 1070 1402T1202 1028Q1202 871 1153 629T1023 254T817 61T483 0H-4L264 1518ZM516 207Q681 207 766 297T904 611T956 999Q956 1160 882 1230T635 1300H461L268 207H516Z"/><glyph unicode="ď" horiz-adv-x="1284" d="M1161 1221Q1234 1258 1255 1280T1286 1352H1190L1229 1575H1444L1407 1368Q1390 1285 1369 1251T1309 1188T1200 1130L1161 1221ZM334 -16Q169 -16 88 71T6 346Q6 470 43 662T135 957T271 1112T475 1165Q599 1165 679 1137T795 1044L889 1575H1118L842 8L655 -6L662 90Q554 -16 334 -16ZM424 186Q505 186 556 216T641 306T703 498T731 741Q731 853 680 902T520 952Q448 952 401 920T324 817T268 602T242 385Q242 282 286 234T424 186Z"/><glyph unicode="Đ" horiz-adv-x="1231" d="M23 872H150L264 1518H647Q939 1518 1070 1403T1202 1028Q1202 871 1153 629T1023 254T817 61T483 0H-4L115 678H-12L23 872ZM516 207Q639 207 713 253T837 403T922 697T958 999Q958 1161 882 1230T635 1300H463L387 872H612L580 678H353L270 207H516Z"/><glyph unicode="đ" horiz-adv-x="1083" d="M334 -16Q169 -16 88 71T6 346Q6 470 43 662T135 957T271 1112T475 1165Q599 1165 679 1137T795 1044L832 1253H610L643 1442H865L889 1575H1118L1094 1442H1208L1176 1253H1061L842 8L655 -6L662 90Q554 -16 334 -16ZM424 186Q505 186 556 216T641 306T703 498T731 741Q731 853 680 902T520 952Q448 952 401 920T324 817T268 602T242 385Q242 282 286 234T424 186Z"/><glyph unicode="Ē" horiz-adv-x="1063" d="M264 1518H1106L1067 1300H457L385 891H963L924 674H346L264 213H877L840 0H-4L264 1518ZM378 1792H1042L1009 1602H344L378 1792Z"/><glyph unicode="ē" horiz-adv-x="981" d="M430 -14Q212 -14 110 78T8 369Q8 507 46 682T149 961T308 1115T539 1165Q733 1165 823 1092T913 854Q913 754 860 465H233L229 385Q229 276 282 229T453 182Q576 182 715 229L774 49Q626 -14 430 -14ZM676 666Q694 763 694 815Q694 898 656 930T526 963Q418 963 360 900T267 666H676ZM276 1450H940L907 1260H242L276 1450Z"/><glyph unicode="Ė" horiz-adv-x="1063" d="M264 1518H1106L1067 1300H457L385 891H963L924 674H346L264 213H877L840 0H-4L264 1518ZM606 1847H837L794 1602H561L606 1847Z"/><glyph unicode="ė" horiz-adv-x="981" d="M430 -14Q212 -14 110 78T8 369Q8 507 46 682T149 961T308 1115T539 1165Q733 1165 823 1092T913 854Q913 754 860 465H233L229 385Q229 276 282 229T453 182Q576 182 715 229L774 49Q626 -14 430 -14ZM676 666Q694 763 694 815Q694 898 656 930T526 963Q418 963 360 900T267 666H676ZM504 1505H735L692 1260H459L504 1505Z"/><glyph unicode="Ę" horiz-adv-x="1063" d="M264 1518H1106L1067 1300H457L385 891H963L924 674H346L264 213H877L840 0H772Q590 -134 590 -248Q590 -315 696 -315H745L719 -453H670Q422 -453 422 -293Q422 -212 470 -134T604 0H-4L264 1518Z"/><glyph unicode="ę" horiz-adv-x="981" d="M510 -453Q262 -453 262 -293Q262 -138 424 -14Q210 -12 109 78T8 369Q8 507 46 682T149 961T308 1115T539 1165Q733 1165 823 1092T913 854Q913 754 860 465H233Q229 434 229 385Q229 276 282 229T453 182Q576 182 715 229L774 49Q710 20 614 2Q430 -134 430 -248Q430 -315 537 -315H586L559 -453H510ZM526 963Q452 963 404 935T324 849T266 666H676Q694 763 694 815Q694 898 656 930T526 963Z"/><glyph unicode="Ě" horiz-adv-x="1063" d="M405 1948H587L704 1761L886 1948H1073L784 1602H571L405 1948ZM264 1518H1106L1067 1300H457L385 891H963L924 674H346L264 213H877L840 0H-4L264 1518Z"/><glyph unicode="ě" horiz-adv-x="981" d="M303 1606H485L602 1419L784 1606H971L682 1260H469L303 1606ZM430 -14Q212 -14 110 78T8 369Q8 507 46 682T149 961T308 1115T539 1165Q733 1165 823 1092T913 854Q913 754 860 465H233L229 385Q229 276 282 229T453 182Q576 182 715 229L774 49Q626 -14 430 -14ZM676 666Q694 763 694 815Q694 898 656 930T526 963Q418 963 360 900T267 666H676Z"/><glyph unicode="Ğ" horiz-adv-x="1184" d="M518 -16Q271 -16 151 105T31 485Q31 666 81 898T213 1268T419 1470T733 1534Q863 1534 968 1507T1163 1415L1008 1225Q943 1270 867 1288T702 1307Q586 1307 515 1257T393 1097T306 800T270 485Q270 323 335 253T547 182Q649 182 707 221T802 350T872 664H551L590 870H1143L1102 637Q1054 367 990 233T819 41T518 -16ZM783 1591Q662 1591 591 1621T488 1711T451 1905L621 1929Q623 1842 661 1805T787 1767Q859 1767 901 1805T967 1933L1135 1907Q1094 1744 1006 1668T783 1591Z"/><glyph unicode="ğ" horiz-adv-x="1026" d="M479 408Q381 408 306 426Q287 398 287 369Q287 330 311 315T408 297Q574 294 667 269T803 191T846 39Q846 -157 729 -249T348 -342Q100 -342 -11 -283T-123 -90Q-123 29 -53 108T143 213Q114 233 100 268T86 342Q86 431 160 499Q80 572 80 711Q80 933 189 1049T516 1165Q569 1165 618 1161L1034 1231L1004 1040H833Q915 974 915 819Q915 408 479 408ZM362 -170Q495 -170 550 -131T606 2Q606 70 552 94T352 119Q115 119 115 -53Q115 -115 173 -142T362 -170ZM475 590Q588 590 639 648T690 823Q690 965 520 965Q408 965 357 906T305 729Q305 658 345 624T475 590ZM644 1249Q523 1249 452 1279T349 1369T312 1563L482 1587Q484 1500 522 1463T648 1425Q720 1425 762 1463T828 1591L996 1565Q955 1402 867 1326T644 1249Z"/><glyph unicode="Ģ" horiz-adv-x="1184" d="M270 -434Q344 -396 365 -374T395 -303H299L336 -78H553L516 -285Q501 -367 481 -401T421 -464T311 -524L270 -434ZM518 -16Q271 -16 151 105T31 485Q31 666 81 898T213 1268T419 1470T733 1534Q863 1534 968 1507T1163 1415L1008 1225Q943 1270 867 1288T702 1307Q586 1307 515 1257T393 1097T306 800T270 485Q270 323 335 253T547 182Q649 182 707 221T802 350T872 664H551L590 870H1143L1102 637Q1054 367 990 233T819 41T518 -16Z"/><glyph unicode="ģ" horiz-adv-x="1026" d="M737 1704L778 1614Q702 1574 681 1551T653 1483H749L710 1260H495L532 1464Q544 1538 564 1574T623 1641T737 1704ZM479 408Q381 408 306 426Q287 398 287 369Q287 330 311 315T408 297Q574 294 667 269T803 191T846 39Q846 -157 729 -249T348 -342Q100 -342 -11 -283T-123 -90Q-123 29 -53 108T143 213Q114 233 100 268T86 342Q86 431 160 499Q80 572 80 711Q80 933 189 1049T516 1165Q569 1165 618 1161L1034 1231L1004 1040H833Q915 974 915 819Q915 408 479 408ZM362 -170Q495 -170 550 -131T606 2Q606 70 552 94T352 119Q115 119 115 -53Q115 -115 173 -142T362 -170ZM475 590Q588 590 639 648T690 823Q690 965 520 965Q408 965 357 906T305 729Q305 658 345 624T475 590Z"/><glyph unicode="Ī" horiz-adv-x="524" d="M276 1518H514L246 0H8L276 1518ZM113 1792H777L744 1602H79L113 1792Z"/><glyph unicode="ī" horiz-adv-x="465" d="M186 1145H416L213 0H-16L186 1145ZM23 1450H687L654 1260H-11L23 1450Z"/><glyph unicode="Į" horiz-adv-x="524" d="M276 1518H514L246 0H248Q129 -77 81 -133T33 -248Q33 -315 137 -315H186L162 -453H111Q-135 -453 -135 -293Q-135 -212 -87 -135T47 0H8L276 1518Z"/><glyph unicode="į" horiz-adv-x="465" d="M186 1145H416L213 0Q90 -81 44 -136T-2 -248Q-2 -315 104 -315H154L127 -453H78Q-168 -453 -168 -293Q-168 -212 -120 -135T14 0H-16L186 1145ZM252 1520H483L438 1272H207L252 1520Z"/><glyph unicode="İ" horiz-adv-x="524" d="M276 1518H514L246 0H8L276 1518ZM341 1847H572L529 1602H296L341 1847Z"/><glyph unicode="ı" horiz-adv-x="465" d="M186 1145H416L213 0H-16L186 1145Z"/><glyph unicode="Ķ" horiz-adv-x="1208" d="M283 -434Q357 -396 378 -374T408 -303H312L349 -78H566L529 -285Q514 -367 494 -401T434 -464T324 -524L283 -434ZM264 1518H500L380 845L1001 1518H1278L727 938L1030 0H782L543 742L316 484L231 0H-4L264 1518Z"/><glyph unicode="ķ" horiz-adv-x="961" d="M160 -434Q234 -396 255 -374T285 -303H189L226 -78H443L406 -285Q391 -367 371 -401T311 -464T201 -524L160 -434ZM254 1575H479L319 669L725 1145H981L577 667L811 0H578L401 489L257 319L201 0H-25L254 1575Z"/><glyph unicode="Ĺ" horiz-adv-x="983" d="M581 1948H837L493 1602H292L581 1948ZM264 1518H500L268 213H854L817 0H-4L264 1518Z"/><glyph unicode="ĺ" horiz-adv-x="547" d="M583 2020H839L495 1674H294L583 2020ZM317 -2H264Q136 -2 81 43T26 189Q26 243 39 315L262 1575H492L268 315L260 254Q260 224 284 213T377 201L342 0L317 -2Z"/><glyph unicode="Ļ" horiz-adv-x="983" d="M170 -434Q244 -396 265 -374T295 -303H199L236 -78H453L416 -285Q401 -367 381 -401T321 -464T211 -524L170 -434ZM264 1518H500L268 213H854L817 0H-4L264 1518Z"/><glyph unicode="ļ" horiz-adv-x="547" d="M-47 -434Q27 -396 48 -374T78 -303H-18L19 -78H236L199 -285Q184 -367 164 -401T104 -464T-6 -524L-47 -434ZM317 -2H264Q136 -2 81 43T26 189Q26 243 39 315L262 1575H492L268 315L260 254Q260 224 284 213T377 201L342 0L317 -2Z"/><glyph unicode="Ľ" horiz-adv-x="983" d="M582 1221Q649 1255 673 1277T707 1352H610L649 1575H864L827 1368Q812 1285 791 1251T729 1187T621 1130L582 1221ZM264 1518H500L268 213H854L817 0H-4L264 1518Z"/><glyph unicode="ľ" horiz-adv-x="666" d="M532 1221Q606 1258 627 1279T659 1352H563L602 1575H817L780 1368Q766 1289 746 1254T686 1190T573 1130L532 1221ZM317 -2H264Q136 -2 81 43T26 189Q26 243 39 315L262 1575H492L268 315L260 254Q260 224 284 213T377 201L342 0L317 -2Z"/><glyph unicode="Ł" horiz-adv-x="983" d="M264 1518H500L407 995L670 1128L635 934L372 800L268 213H854L817 0H-4L114 669L-27 598L6 793L148 865L264 1518Z"/><glyph unicode="ł" horiz-adv-x="670" d="M399 -2H346Q214 -2 159 41T104 183Q104 231 115 293L215 856L43 766L78 967L251 1058L344 1575H573L505 1192L696 1292L662 1090L469 989L350 315L342 254Q342 224 366 213T459 201L424 0L399 -2Z"/><glyph unicode="Ń" horiz-adv-x="1290" d="M928 1948H1184L840 1602H639L928 1948ZM264 1518H516L883 473L1069 1518H1296L1028 0H809L414 1100L219 0H-4L264 1518Z"/><glyph unicode="ń" horiz-adv-x="1067" d="M756 1606H1012L668 1260H467L756 1606ZM360 1147L356 1059Q401 1105 481 1135T674 1165Q828 1165 902 1101T976 898Q976 835 956 723L829 0H600L721 690Q737 775 737 819Q737 887 697 916T567 946Q493 946 446 918T369 829T313 629L205 0H-25L174 1130L360 1147Z"/><glyph unicode="Ņ" horiz-adv-x="1290" d="M324 -434Q398 -396 419 -374T449 -303H353L390 -78H607L570 -285Q555 -367 535 -401T475 -464T365 -524L324 -434ZM264 1518H516L883 473L1069 1518H1296L1028 0H809L414 1100L219 0H-4L264 1518Z"/><glyph unicode="ņ" horiz-adv-x="1067" d="M213 -434Q287 -396 308 -374T338 -303H242L279 -78H496L459 -285Q444 -367 424 -401T364 -464T254 -524L213 -434ZM360 1147L356 1059Q401 1105 481 1135T674 1165Q828 1165 902 1101T976 898Q976 835 956 723L829 0H600L721 690Q737 775 737 819Q737 887 697 916T567 946Q493 946 446 918T369 829T313 629L205 0H-25L174 1130L360 1147Z"/><glyph unicode="Ň" horiz-adv-x="1290" d="M520 1948H702L819 1761L1001 1948H1188L899 1602H686L520 1948ZM264 1518H516L883 473L1069 1518H1296L1028 0H809L414 1100L219 0H-4L264 1518Z"/><glyph unicode="ň" horiz-adv-x="1067" d="M348 1606H530L647 1419L829 1606H1016L727 1260H514L348 1606ZM360 1147L356 1059Q401 1105 481 1135T674 1165Q828 1165 902 1101T976 898Q976 835 956 723L829 0H600L721 690Q737 775 737 819Q737 887 697 916T567 946Q493 946 446 918T369 829T313 629L205 0H-25L174 1130L360 1147Z"/><glyph unicode="Ō" horiz-adv-x="1288" d="M491 1792H1155L1122 1602H457L491 1792ZM553 -16Q288 -16 159 111T29 496Q29 645 78 883T211 1262T423 1468T725 1534Q990 1534 1122 1409T1255 1016Q1255 791 1184 516T959 112T553 -16ZM563 195Q683 195 761 243T889 390T977 688T1014 995Q1014 1155 945 1231T725 1307Q605 1307 527 1259T398 1113T309 816T270 502Q270 343 341 269T563 195Z"/><glyph unicode="ō" horiz-adv-x="1053" d="M311 1450H975L942 1260H277L311 1450ZM426 -16Q216 -16 113 82T10 387Q10 474 33 612Q83 907 210 1036T563 1165Q773 1165 876 1068T979 766Q979 638 940 457T837 178T674 32T426 -16ZM442 184Q521 184 572 215T656 311T716 525T745 745Q745 852 697 901T545 950Q463 950 410 915T323 810T264 586Q244 490 244 397Q244 286 293 235T442 184Z"/><glyph unicode="Ő" horiz-adv-x="1288" d="M747 1948H983L647 1602H467L747 1948ZM1137 1948H1374L1038 1602H858L1137 1948ZM553 -16Q288 -16 159 111T29 496Q29 645 78 883T211 1262T423 1468T725 1534Q990 1534 1122 1409T1255 1016Q1255 791 1184 516T959 112T553 -16ZM563 195Q683 195 761 243T889 390T977 688T1014 995Q1014 1155 945 1231T725 1307Q605 1307 527 1259T398 1113T309 816T270 502Q270 343 341 269T563 195Z"/><glyph unicode="ő" horiz-adv-x="1053" d="M567 1606H803L467 1260H287L567 1606ZM957 1606H1194L858 1260H678L957 1606ZM426 -16Q216 -16 113 82T10 387Q10 474 33 612Q83 907 210 1036T563 1165Q773 1165 876 1068T979 766Q979 638 940 457T837 178T674 32T426 -16ZM442 184Q521 184 572 215T656 311T716 525T745 745Q745 852 697 901T545 950Q463 950 410 915T323 810T264 586Q244 490 244 397Q244 286 293 235T442 184Z"/><glyph unicode="Œ" horiz-adv-x="1933" d="M524 -12Q280 -12 156 113T31 496Q31 661 79 891T212 1261T423 1465T727 1530Q993 1530 1108 1406L1128 1518H1948L1909 1300H1298L1227 887H1804L1765 674H1188L1106 213H1720L1681 0H860L876 90Q730 -12 524 -12ZM563 195Q683 195 761 242T889 387T976 685T1014 995Q1014 1157 944 1232T725 1307Q605 1307 527 1259T398 1112T309 806T270 502Q270 343 341 269T563 195Z"/><glyph unicode="œ" horiz-adv-x="1671" d="M1118 -14Q859 -14 775 121Q667 -16 426 -16Q216 -16 113 82T10 387Q10 474 33 612Q83 907 210 1036T563 1165Q692 1165 772 1129T894 1021L896 1024Q1011 1165 1229 1165Q1422 1165 1513 1092T1604 854Q1604 801 1595 723T1552 465H924L920 385Q920 276 973 229T1145 182Q1282 182 1403 231L1464 53Q1325 -14 1118 -14ZM442 184Q521 184 572 215T656 311T716 525T745 745Q745 852 697 901T545 950Q463 950 410 915T323 810T264 586Q244 490 244 397Q244 286 293 235T442 184ZM1372 666Q1391 768 1391 815Q1391 895 1351 929T1217 963Q1143 963 1096 936T1017 852T957 666H1372Z"/><glyph unicode="Ŕ" horiz-adv-x="1192" d="M877 1948H1133L789 1602H588L877 1948ZM264 1518H688Q929 1518 1049 1430T1169 1151Q1169 1057 1143 947T1069 760T952 637T799 573L954 0H719L571 559H328L229 0H-4L264 1518ZM666 772Q763 772 818 811T901 931T930 1110Q930 1214 869 1259T678 1305H459L365 772H666Z"/><glyph unicode="ŕ" horiz-adv-x="635" d="M544 1606H800L456 1260H255L544 1606ZM360 1147L356 1042Q456 1155 686 1155L647 938Q540 938 476 908T375 820T313 610L205 0H-25L174 1130L360 1147Z"/><glyph unicode="Ŗ" horiz-adv-x="1192" d="M276 -434Q350 -396 371 -374T401 -303H305L342 -78H559L522 -285Q507 -367 487 -401T427 -464T317 -524L276 -434ZM264 1518H688Q929 1518 1049 1430T1169 1151Q1169 1057 1143 947T1069 760T952 637T799 573L954 0H719L571 559H328L229 0H-4L264 1518ZM666 772Q763 772 818 811T901 931T930 1110Q930 1214 869 1259T678 1305H459L365 772H666Z"/><glyph unicode="ŗ" horiz-adv-x="635" d="M167 -434Q241 -396 262 -374T292 -303H196L233 -78H450L413 -285Q398 -367 378 -401T318 -464T208 -524L167 -434ZM360 1147L356 1042Q456 1155 686 1155L647 938Q540 938 476 908T375 820T313 610L205 0H-25L174 1130L360 1147Z"/><glyph unicode="Ř" horiz-adv-x="1192" d="M469 1948H651L768 1761L950 1948H1137L848 1602H635L469 1948ZM264 1518H688Q929 1518 1049 1430T1169 1151Q1169 1057 1143 947T1069 760T952 637T799 573L954 0H719L571 559H328L229 0H-4L264 1518ZM666 772Q763 772 818 811T901 931T930 1110Q930 1214 869 1259T678 1305H459L365 772H666Z"/><glyph unicode="ř" horiz-adv-x="635" d="M136 1606H318L435 1419L617 1606H804L515 1260H302L136 1606ZM360 1147L356 1042Q456 1155 686 1155L647 938Q540 938 476 908T375 820T313 610L205 0H-25L174 1130L360 1147Z"/><glyph unicode="Ś" horiz-adv-x="1108" d="M836 1948H1092L748 1602H547L836 1948ZM471 -16Q311 -16 172 21T-63 127L68 309Q242 182 473 182Q604 182 673 245T743 428Q743 482 722 521T655 594T471 696Q302 777 231 865T160 1075Q160 1296 292 1415T664 1534Q930 1534 1092 1436L977 1237Q917 1273 830 1295T653 1317Q528 1317 462 1261T395 1098Q395 1029 438 982T610 874Q769 797 841 740T947 617T981 461Q981 231 848 108T471 -16Z"/><glyph unicode="ś" horiz-adv-x="838" d="M900 1606H1156L812 1260H611L900 1606ZM334 -14Q213 -14 111 10T-90 92L29 268Q173 176 340 176Q498 176 498 319Q498 353 486 378T444 426T311 506Q181 574 127 646T72 813Q72 980 174 1072T465 1165Q681 1165 815 1085L696 905Q586 965 449 965Q297 965 297 825Q297 787 329 753T471 659Q611 583 664 510T717 334Q717 165 618 76T334 -14Z"/><glyph unicode="Ş" horiz-adv-x="1108" d="M471 -16Q311 -16 172 21T-63 127L68 309Q242 182 473 182Q604 182 673 245T743 428Q743 482 722 521T655 594T471 696Q302 777 231 865T160 1075Q160 1296 292 1415T664 1534Q930 1534 1092 1436L977 1237Q917 1273 830 1295T653 1317Q528 1317 462 1261T395 1098Q395 1029 438 982T610 874Q769 797 841 740T947 617T981 461Q981 231 848 108T471 -16ZM401 -467Q263 -467 157 -420L215 -297Q306 -336 385 -336Q440 -336 468 -315T497 -236Q497 -203 473 -188T383 -172H358L315 -137L372 14H503L469 -88H478Q649 -88 649 -236Q649 -355 592 -411T401 -467Z"/><glyph unicode="ş" horiz-adv-x="838" d="M334 -14Q213 -14 111 10T-90 92L29 268Q173 176 340 176Q498 176 498 319Q498 353 486 378T444 426T311 506Q181 574 127 646T72 813Q72 980 174 1072T465 1165Q681 1165 815 1085L696 905Q586 965 449 965Q297 965 297 825Q297 787 329 753T471 659Q611 583 664 510T717 334Q717 165 618 76T334 -14ZM527 -467Q389 -467 283 -420L341 -297Q432 -336 511 -336Q566 -336 594 -315T623 -236Q623 -203 599 -188T509 -172H484L441 -137L498 14H629L595 -88H604Q775 -88 775 -236Q775 -355 718 -411T527 -467Z"/><glyph unicode="Š" horiz-adv-x="1108" d="M428 1948H610L727 1761L909 1948H1096L807 1602H594L428 1948ZM471 -16Q311 -16 172 21T-63 127L68 309Q242 182 473 182Q604 182 673 245T743 428Q743 482 722 521T655 594T471 696Q302 777 231 865T160 1075Q160 1296 292 1415T664 1534Q930 1534 1092 1436L977 1237Q917 1273 830 1295T653 1317Q528 1317 462 1261T395 1098Q395 1029 438 982T610 874Q769 797 841 740T947 617T981 461Q981 231 848 108T471 -16Z"/><glyph unicode="š" horiz-adv-x="838" d="M492 1606H674L791 1419L973 1606H1160L871 1260H658L492 1606ZM334 -14Q213 -14 111 10T-90 92L29 268Q173 176 340 176Q498 176 498 319Q498 353 486 378T444 426T311 506Q181 574 127 646T72 813Q72 980 174 1072T465 1165Q681 1165 815 1085L696 905Q586 965 449 965Q297 965 297 825Q297 787 329 753T471 659Q611 583 664 510T717 334Q717 165 618 76T334 -14Z"/><glyph unicode="Ţ" horiz-adv-x="1118" d="M238 -434Q312 -396 333 -374T363 -303H267L304 -78H521L484 -285Q469 -367 449 -401T389 -464T279 -524L238 -434ZM535 1300H125L164 1518H1221L1182 1300H774L545 0H305L535 1300Z"/><glyph unicode="ţ" horiz-adv-x="768" d="M37 -434Q111 -396 132 -374T162 -303H66L103 -78H320L283 -285Q268 -367 248 -401T188 -464T78 -524L37 -434ZM102 1145H284L373 1434L563 1473L505 1145H760L723 944H470L365 344Q358 303 358 278Q358 237 386 219T477 201H594L557 0Q515 -6 418 -6Q264 -6 194 45T124 212Q124 271 137 348L240 944H66L102 1145Z"/><glyph unicode="Ť" horiz-adv-x="1118" d="M434 1948H616L733 1761L915 1948H1102L813 1602H600L434 1948ZM535 1300H125L164 1518H1221L1182 1300H774L545 0H305L535 1300Z"/><glyph unicode="ť" horiz-adv-x="768" d="M645 1366Q711 1399 736 1422T772 1497H676L715 1720H930L893 1516Q876 1432 855 1397T794 1334T686 1276L645 1366ZM102 1145H284L373 1434L563 1473L505 1145H760L723 944H470L365 344Q358 303 358 278Q358 237 386 219T477 201H594L557 0Q515 -6 418 -6Q264 -6 194 45T124 212Q124 271 137 348L240 944H66L102 1145Z"/><glyph unicode="Ū" horiz-adv-x="1284" d="M571 -20Q315 -20 191 74T66 371Q66 451 82 541L256 1518H494L319 545Q307 471 307 412Q307 295 372 245T580 195Q675 195 736 227T835 327T895 528L1071 1518H1300L1120 492Q1074 217 945 99T571 -20ZM489 1792H1153L1120 1602H455L489 1792Z"/><glyph unicode="ū" d="M428 -16Q221 -16 127 54T32 282Q32 367 51 475L170 1145H399L281 471Q264 376 264 331Q264 255 305 222T436 188Q507 188 548 207T612 270T659 440L782 1145H1010L883 418Q851 238 801 151T664 24T428 -16ZM309 1450H973L940 1260H275L309 1450Z"/><glyph unicode="Ů" horiz-adv-x="1284" d="M813 1702Q878 1702 910 1750T942 1878Q942 1974 848 1974Q786 1974 753 1927T719 1798Q719 1702 813 1702ZM805 1587Q705 1587 652 1637T598 1784Q598 1929 666 2010T856 2091Q958 2091 1010 2039T1063 1888Q1063 1752 995 1670T805 1587ZM571 -20Q315 -20 191 74T66 371Q66 451 82 541L256 1518H494L319 545Q307 471 307 412Q307 295 372 245T580 195Q675 195 736 227T835 327T895 528L1071 1518H1300L1120 492Q1074 217 945 99T571 -20Z"/><glyph unicode="ů" d="M633 1360Q698 1360 730 1408T762 1536Q762 1632 668 1632Q606 1632 573 1585T539 1456Q539 1360 633 1360ZM625 1245Q525 1245 472 1295T418 1442Q418 1587 486 1668T676 1749Q778 1749 830 1697T883 1546Q883 1410 815 1328T625 1245ZM428 -16Q221 -16 127 54T32 282Q32 367 51 475L170 1145H399L281 471Q264 376 264 331Q264 255 305 222T436 188Q507 188 548 207T612 270T659 440L782 1145H1010L883 418Q851 238 801 151T664 24T428 -16Z"/><glyph unicode="Ű" horiz-adv-x="1284" d="M571 -20Q315 -20 191 74T66 371Q66 451 82 541L256 1518H494L319 545Q307 471 307 412Q307 295 372 245T580 195Q675 195 736 227T835 327T895 528L1071 1518H1300L1120 492Q1074 217 945 99T571 -20ZM745 1948H981L645 1602H465L745 1948ZM1135 1948H1372L1036 1602H856L1135 1948Z"/><glyph unicode="ű" d="M428 -16Q221 -16 127 54T32 282Q32 367 51 475L170 1145H399L281 471Q264 376 264 331Q264 255 305 222T436 188Q507 188 548 207T612 270T659 440L782 1145H1010L883 418Q851 238 801 151T664 24T428 -16ZM565 1606H801L465 1260H285L565 1606ZM955 1606H1192L856 1260H676L955 1606Z"/><glyph unicode="Ų" horiz-adv-x="1284" d="M496 -453Q248 -453 248 -293Q248 -135 416 -10Q240 16 153 107T66 371Q66 451 82 541L256 1518H494L319 545Q307 471 307 412Q307 295 372 245T580 195Q675 195 736 227T835 327T895 528L1071 1518H1300L1120 492Q1074 217 945 99T571 -20Q416 -142 416 -248Q416 -315 522 -315H571L545 -453H496Z"/><glyph unicode="ų" d="M385 -453Q137 -453 137 -293Q137 -134 307 -8Q165 10 98 80T31 278Q31 361 51 475L170 1145H399L281 471Q264 376 264 331Q264 255 305 222T436 188Q507 188 548 207T612 270T659 440L782 1145H1010L883 418Q853 248 805 160T678 32T467 -14Q305 -143 305 -248Q305 -315 412 -315H461L434 -453H385Z"/><glyph unicode="Ÿ" horiz-adv-x="1180" d="M145 1518H395L594 807L1049 1518H1300L669 545L573 0H336L433 541L145 1518ZM488 1837H692L651 1602H447L488 1837ZM864 1837H1069L1026 1602H821L864 1837Z"/><glyph unicode="Ź" horiz-adv-x="1085" d="M824 1948H1080L736 1602H535L824 1948ZM809 1300H182L221 1518H1139L1104 1321L256 213H926L889 0H-76L-45 182L809 1300Z"/><glyph unicode="ź" horiz-adv-x="840" d="M900 1606H1156L812 1260H611L900 1606ZM532 944H98L135 1145H854L827 987L217 188H702L670 0H-98L-72 156L532 944Z"/><glyph unicode="Ż" horiz-adv-x="1085" d="M809 1300H182L221 1518H1139L1104 1321L256 213H926L889 0H-76L-45 182L809 1300ZM617 1847H848L805 1602H572L617 1847Z"/><glyph unicode="ż" horiz-adv-x="840" d="M532 944H98L135 1145H854L827 987L217 188H702L670 0H-98L-72 156L532 944ZM693 1505H924L881 1260H648L693 1505Z"/><glyph unicode="Ž" horiz-adv-x="1085" d="M416 1948H598L715 1761L897 1948H1084L795 1602H582L416 1948ZM809 1300H182L221 1518H1139L1104 1321L256 213H926L889 0H-76L-45 182L809 1300Z"/><glyph unicode="ž" horiz-adv-x="840" d="M492 1606H674L791 1419L973 1606H1160L871 1260H658L492 1606ZM532 944H98L135 1145H854L827 987L217 188H702L670 0H-98L-72 156L532 944Z"/><glyph unicode="ƒ" horiz-adv-x="954" d="M156 932H343L389 1188Q413 1333 450 1394T552 1486T725 1518L858 1516L821 1315H745Q704 1315 679 1302T640 1262T612 1159L572 932H854L817 731H536L350 -324H121L308 731H119L156 932Z"/><glyph unicode="Ș" horiz-adv-x="0"/><glyph unicode="ș" horiz-adv-x="0"/><glyph unicode="Ț" horiz-adv-x="1118" d="M238 -434Q312 -396 333 -374T363 -303H267L304 -78H521L484 -285Q469 -367 449 -401T389 -464T279 -524L238 -434ZM535 1300H125L164 1518H1221L1182 1300H774L545 0H305L535 1300Z"/><glyph unicode="ț" horiz-adv-x="768" d="M37 -434Q111 -396 132 -374T162 -303H66L103 -78H320L283 -285Q268 -367 248 -401T188 -464T78 -524L37 -434ZM102 1145H284L373 1434L563 1473L505 1145H760L723 944H470L365 344Q358 303 358 278Q358 237 386 219T477 201H594L557 0Q515 -6 418 -6Q264 -6 194 45T124 212Q124 271 137 348L240 944H66L102 1145Z"/><glyph unicode="ˆ" horiz-adv-x="975" d="M528 1606H743L907 1260H727L608 1446L426 1260H240L528 1606Z"/><glyph unicode="ˇ" horiz-adv-x="975" d="M303 1606H485L602 1419L784 1606H971L682 1260H469L303 1606Z"/><glyph unicode="˘" horiz-adv-x="975" d="M621 1249Q500 1249 429 1279T326 1369T289 1563L459 1587Q461 1500 499 1463T625 1425Q697 1425 739 1463T805 1591L973 1565Q932 1402 844 1326T621 1249Z"/><glyph unicode="˙" horiz-adv-x="975" d="M504 1505H735L692 1260H459L504 1505Z"/><glyph unicode="˚" horiz-adv-x="975" d="M600 1360Q665 1360 697 1408T729 1536Q729 1632 635 1632Q573 1632 540 1585T506 1456Q506 1360 600 1360ZM592 1245Q492 1245 439 1295T385 1442Q385 1587 453 1668T643 1749Q745 1749 797 1697T850 1546Q850 1410 782 1328T592 1245Z"/><glyph unicode="˛" horiz-adv-x="975" d="M344 -453Q96 -453 96 -293Q96 -198 162 -109T338 35H498Q264 -121 264 -248Q264 -315 371 -315H420L393 -453H344Z"/><glyph unicode="˜" horiz-adv-x="975" d="M203 1346Q315 1524 453 1524Q495 1524 531 1511T600 1483T660 1455T715 1442Q778 1442 846 1536L987 1442Q928 1342 865 1299T743 1255Q700 1255 663 1268T593 1297T530 1326T471 1339Q437 1339 409 1319T346 1251L203 1346Z"/><glyph unicode="˝" horiz-adv-x="975" d="M532 1606H768L432 1260H252L532 1606ZM922 1606H1159L823 1260H643L922 1606Z"/><glyph unicode="̄" horiz-adv-x="975" d="M276 1450H940L907 1260H242L276 1450Z"/><glyph unicode="̦" horiz-adv-x="471" d="M-84 -434Q-10 -396 11 -374T41 -303H-55L-18 -78H199L162 -285Q147 -367 127 -401T67 -464T-43 -524L-84 -434Z"/><glyph unicode="Δ" horiz-adv-x="0"/><glyph unicode="Ω" horiz-adv-x="0"/><glyph unicode="μ" horiz-adv-x="1051" d="M176 1145H408L289 471Q271 375 271 329Q271 254 312 221T442 188Q513 188 554 207T619 268T666 440L791 1145H1016L889 418Q857 237 808 150T672 24T436 -16Q272 -16 217 66L147 -324H-80L176 1145Z"/><glyph unicode="π" horiz-adv-x="0"/><glyph unicode="–" horiz-adv-x="1182" d="M72 762H1110L1073 553H33L72 762Z"/><glyph unicode="—" horiz-adv-x="1540" d="M72 762H1468L1434 553H33L72 762Z"/><glyph unicode="‘" horiz-adv-x="471" d="M440 1522L483 1403Q398 1359 370 1329T334 1243H457L401 940H131L178 1206Q197 1308 225 1359T302 1447T440 1522Z"/><glyph unicode="’" horiz-adv-x="471" d="M152 1055Q235 1096 264 1126T301 1214H180L236 1518H506L457 1253Q439 1151 412 1099T334 1009T195 936L152 1055Z"/><glyph unicode="‚" horiz-adv-x="471" d="M-63 -160Q28 -113 53 -84T88 0H-33L18 303H289L244 39Q225 -65 197 -117T119 -207T-18 -279L-63 -160Z"/><glyph unicode="“" horiz-adv-x="848" d="M436 1522L477 1409Q398 1368 369 1337T330 1249H451L397 952H133L180 1217Q197 1314 223 1364T298 1450T436 1522ZM819 1522L860 1409Q781 1369 751 1338T711 1249H831L780 952H516L563 1217Q582 1317 609 1367T682 1451T819 1522Z"/><glyph unicode="”" horiz-adv-x="846" d="M152 1063Q237 1106 264 1134T301 1219H180L236 1518H498L449 1253Q434 1156 409 1107T335 1022T195 950L152 1063ZM537 1063Q616 1103 643 1131T682 1219H563L616 1518H881L834 1253Q817 1156 792 1107T718 1022T578 950L537 1063Z"/><glyph unicode="„" horiz-adv-x="846" d="M-4 -154Q73 -114 100 -83T133 4H12L53 303H317L281 39Q269 -61 245 -110T176 -195T41 -266L-4 -154ZM379 -154Q459 -112 484 -82T514 4H395L436 303H700L666 39Q652 -63 628 -112T557 -196T422 -266L379 -154Z"/><glyph unicode="†" horiz-adv-x="973" d="M397 905H111L147 1118H436L518 1575H743L664 1118H952L915 905H625L408 -324H182L397 905Z"/><glyph unicode="‡" horiz-adv-x="973" d="M266 152H-23L14 365H303L399 909H111L147 1122H436L518 1575H743L664 1122H952L915 909H627L530 365H819L782 152H494L408 -324H182L266 152Z"/><glyph unicode="•" horiz-adv-x="635" d="M164 821H489L420 424H94L164 821Z"/><glyph unicode="…" horiz-adv-x="1350" d="M16 293H287L238 0H-33L16 293ZM457 293H727L676 0H406L457 293ZM897 293H1165L1112 0H844L897 293Z"/><glyph unicode="‰" horiz-adv-x="2755" d="M416 553Q253 553 173 631T92 877Q92 938 111 1073Q153 1311 248 1421T522 1532Q685 1532 766 1453T848 1204Q848 1105 818 962T737 729T610 596T416 553ZM416 727Q500 727 542 783T612 975T639 1194Q639 1276 610 1312T512 1348Q439 1348 398 1294T327 1106T297 877Q297 796 325 762T416 727ZM1430 -16Q1266 -16 1186 62T1106 309Q1106 415 1136 556T1219 789T1348 923T1538 965Q1699 965 1780 885T1862 635Q1862 536 1832 394T1750 160T1622 27T1430 -16ZM1430 158Q1515 158 1558 216T1628 412T1655 625Q1655 706 1625 742T1528 778Q1451 778 1411 723T1342 531T1313 309Q1313 229 1341 194T1430 158ZM2232 -16Q2069 -16 1989 62T1909 309Q1909 415 1939 556T2022 789T2151 923T2341 965Q2504 965 2584 885T2664 635Q2664 529 2634 389T2552 159T2426 26T2232 -16ZM2232 158Q2318 158 2361 216T2431 411T2458 625Q2458 706 2428 742T2331 778Q2253 778 2212 721T2143 521T2114 309Q2114 229 2143 194T2232 158ZM1343 1518H1556L610 0H397L1343 1518Z"/><glyph unicode="‹" horiz-adv-x="772" d="M102 571L455 1145H664L328 571L461 0H252L102 571Z"/><glyph unicode="›" horiz-adv-x="772" d="M379 573L246 1145H455L604 573L254 0H43L379 573Z"/><glyph unicode="⁄" horiz-adv-x="0"/><glyph unicode="€" horiz-adv-x="1151" d="M45 702H224L245 825H66L100 1014H285Q341 1221 410 1328T576 1485T819 1534Q933 1534 1023 1510T1204 1425L1069 1239Q959 1313 811 1313Q696 1313 631 1247T521 1014H911L877 825H479L458 702H856L823 514H435L434 457Q434 319 489 258T662 197Q768 197 887 250L971 70Q811 -16 627 -16Q406 -16 304 88T201 426L203 514H10L45 702Z"/><glyph unicode="™" horiz-adv-x="1800" d="M940 1518H1135L1227 840L1556 1518H1753L1583 561H1415L1526 1182L1229 561H1118L1038 1182L930 561H772L940 1518ZM428 1360H178L205 1518H883L854 1360H600L461 561H287L428 1360Z"/><glyph unicode="Ω" horiz-adv-x="0"/><glyph unicode="∂" horiz-adv-x="0"/><glyph unicode="∆" horiz-adv-x="0"/><glyph unicode="∏" horiz-adv-x="0"/><glyph unicode="∑" horiz-adv-x="0"/><glyph unicode="−" horiz-adv-x="0"/><glyph unicode="∕" horiz-adv-x="0"/><glyph unicode="∙" horiz-adv-x="471" d="M119 868H389L338 571H68L119 868Z"/><glyph unicode="√" horiz-adv-x="0"/><glyph unicode="∞" horiz-adv-x="0"/><glyph unicode="∫" horiz-adv-x="0"/><glyph unicode="≈" horiz-adv-x="0"/><glyph unicode="≠" horiz-adv-x="0"/><glyph unicode="≤" horiz-adv-x="0"/><glyph unicode="≥" horiz-adv-x="0"/><glyph unicode="◊" horiz-adv-x="0"/><glyph unicode="" horiz-adv-x="0"/><glyph unicode="ﬀ" horiz-adv-x="1270" d="M806 944H476L252 -324H23L245 944H66L102 1145H280L305 1284Q334 1445 421 1512T692 1579H795L758 1378H680Q609 1378 575 1347T526 1227L511 1145H841L866 1284Q895 1446 984 1512T1264 1579H1341L1399 1577L1362 1378H1253Q1174 1378 1138 1348T1087 1227L1072 1145H1321L1286 944H1036L811 -324H584L806 944Z"/><glyph unicode="ﬁ" horiz-adv-x="1120" d="M102 1145H280L305 1284Q334 1445 421 1512T692 1579H795L758 1378H680Q609 1378 575 1347T526 1227L511 1145H719L682 944H476L252 -324H23L245 944H66L102 1145ZM842 1145H1071L868 0H639L842 1145ZM907 1520H1139L1094 1272H862L907 1520Z"/><glyph unicode="ﬂ" horiz-adv-x="1202" d="M102 1145H280L305 1284Q334 1445 421 1512T692 1579H795L758 1378H680Q609 1378 575 1347T526 1227L511 1145H719L682 944H476L252 -324H23L245 944H66L102 1145ZM920 -2Q791 -2 736 43T681 192Q681 245 694 315L918 1575H1147L924 315Q917 275 917 255Q917 225 941 213T1034 201L997 0L972 -2H920Z"/><glyph unicode="ﬃ" horiz-adv-x="1681" d="M806 944H476L252 -324H23L245 944H66L102 1145H280L305 1284Q334 1445 421 1512T692 1579H795L758 1378H680Q609 1378 575 1347T526 1227L511 1145H841L866 1284Q895 1445 982 1512T1251 1579H1356L1319 1378H1241Q1191 1378 1161 1364T1114 1321T1087 1227L1072 1145H1280L1243 944H1036L811 -324H584L806 944ZM1401 1145H1632L1430 0H1200L1401 1145ZM1466 1520H1700L1655 1272H1423L1466 1520Z"/><glyph unicode="ﬄ" horiz-adv-x="1763" d="M806 944H476L252 -324H23L245 944H66L102 1145H280L305 1284Q334 1445 421 1512T692 1579H795L758 1378H680Q609 1378 575 1347T526 1227L511 1145H841L866 1284Q895 1445 982 1512T1251 1579H1356L1319 1378H1241Q1191 1378 1161 1364T1114 1321T1087 1227L1072 1145H1280L1243 944H1036L811 -324H584L806 944ZM1479 -2Q1351 -2 1296 44T1241 196Q1241 247 1253 315L1479 1575H1708L1485 315L1477 254Q1477 224 1501 213T1593 201L1559 0L1533 -2H1479Z"/></font>
</defs>
</svg>
